<svg width="32" height="32" fill="none" xmlns="http://www.w3.org/2000/svg"><g clip-path="url(#clip0_322_11177)" fill="#F89D33"><path d="M23.563 1H2.813A2.816 2.816 0 000 3.811v15a2.815 2.815 0 002.813 2.812h2.812v4.688c0 .836 1.014 1.25 1.6.663l5.076-5.076a.936.936 0 01.663-.275h10.599a2.816 2.816 0 002.812-2.812v-15A2.816 2.816 0 0023.563.999zM4.688 6.623h13.25a.937.937 0 110 1.875H4.688a.937.937 0 110-1.875zm9.5 9.375h-9.5a.937.937 0 110-1.875h9.5a.937.937 0 110 1.875zm7.5-3.75h-17a.937.937 0 110-1.875h17a.937.937 0 110 1.875z"/><path d="M29.188 4.75h-.925v14.062c0 2.585-2.116 4.688-4.7 4.688H13.477l-2 1.862h7.947l5.35 5.363c.589.588 1.601.175 1.601-.663v-4.7h2.813c1.55 0 2.812-1.25 2.812-2.8v-15a2.815 2.815 0 00-2.812-2.813z"/></g><defs><clipPath id="clip0_322_11177"><path fill="#fff" d="M0 0h32v32H0z"/></clipPath></defs></svg>