<svg width="28" height="28" fill="none" xmlns="http://www.w3.org/2000/svg"><path fill-rule="evenodd" clip-rule="evenodd" d="M19.96 5.852c2.428.564 3.357 1.983 4.521 3.937h-4.52V5.852zM5.775 9.953c.475 0 .82.23.82.766a.82.82 0 01-.818.82H.82a.82.82 0 000 1.64h7.383a.82.82 0 11.003 1.641H.82a.82.82 0 100 1.64h1.805v2.462c0 .453.367.82.82.82h1.65a3.146 3.146 0 006.162 0h8.33a3.146 3.146 0 006.163 0h1.43a.82.82 0 00.82-.82V14c0-2.407-2.539-2.567-2.541-2.57h-6.318a.82.82 0 01-.82-.82V5.687H3.444a.82.82 0 00-.82.82v1.804H1.64a.82.82 0 100 1.641h4.133zM23.73 18.05c.588.587.588 1.54 0 2.127-.944.945-2.567.273-2.567-1.064 0-1.336 1.623-2.008 2.567-1.063zm-14.492 0c.587.587.587 1.54 0 2.127-.944.945-2.567.273-2.567-1.064 0-1.336 1.623-2.008 2.567-1.063z" fill="#F89D33"/></svg>