<svg width="32" height="32" fill="none" xmlns="http://www.w3.org/2000/svg"><path d="M22.12 10.771c.447 0 .67-.297.67-.892 0-.596-.222-.894-.667-.894-.223 0-.391.075-.505.226-.113.15-.17.373-.17.668 0 .296.056.518.168.668.113.15.28.224.503.224zm2.941-1.125c.085-.06.127-.152.127-.279 0-.125-.043-.215-.13-.268-.085-.053-.22-.08-.4-.08h-.17v.715h.18c.178 0 .309-.03.393-.088z" fill="#F89D33"/><path d="M32 7.503V5.151H0v2.352h.789v16.994H0v2.352h32v-2.352h-.789V7.503H32zM26.373 8.56h1.523v.46h-.962v.58h.895v.46h-.895v.682h.962v.463h-1.523V8.56zm-2.446 0h.77c.36 0 .626.066.798.196.173.131.26.33.26.597a.703.703 0 01-.13.415.85.85 0 01-.363.285c.398.594.657.978.778 1.152h-.622l-.632-1.015h-.298v1.015h-.561V8.56zm-2.74.307c.217-.232.53-.348.936-.348.407 0 .717.117.933.35.215.235.323.571.323 1.01 0 .438-.109.774-.326 1.01-.217.235-.528.353-.933.353-.406 0-.717-.118-.934-.353-.217-.236-.326-.573-.326-1.014 0-.44.11-.776.327-1.008zm-2.613-.307h1.997v.467h-.718v2.178h-.561V9.027h-.718V8.56zm-8.519 15.937h-6.05V12.745h6.05v11.752zm2.511-11.586h3.878v7.26h-3.878v-7.26zm1.132 11.053a.908.908 0 110-1.815.908.908 0 010 1.815zm3.227 0a.908.908 0 110-1.815.908.908 0 010 1.815zm1.17-12.929c-.172.138-.41.207-.717.207-.283 0-.532-.054-.75-.16v-.52c.18.079.33.135.454.167.123.033.237.05.339.05a.483.483 0 00.283-.071c.066-.047.099-.117.099-.21a.232.232 0 00-.044-.138.484.484 0 00-.127-.117 3.274 3.274 0 00-.343-.18 1.62 1.62 0 01-.364-.218.82.82 0 01-.193-.244.696.696 0 01-.072-.326c0-.234.079-.418.238-.552.158-.134.377-.2.657-.2.138 0 .269.016.394.048.124.033.255.079.391.138l-.18.436a2.644 2.644 0 00-.35-.121 1.13 1.13 0 00-.273-.035.363.363 0 00-.244.074.245.245 0 00-.085.194c0 .05.011.093.034.13.023.036.06.072.11.106s.168.096.355.185c.247.119.417.237.509.356a.693.693 0 01.137.437.684.684 0 01-.258.564zm2.057 12.93a.908.908 0 110-1.816.908.908 0 010 1.815zm2.068-3.793h-3.878V12.91h3.878v7.26zm1.16 3.792a.908.908 0 110-1.815.908.908 0 010 1.815zm3.226 0a.908.908 0 110-1.815.908.908 0 010 1.815zm1.39-3.792h-3.878V12.91h3.878v7.26z" fill="#F89D33"/></svg>