<svg width="28" height="28" fill="none" xmlns="http://www.w3.org/2000/svg"><path d="M24.677 2.071H12.674a1.58 1.58 0 00-1.578 1.579v6.205a1.58 1.58 0 001.578 1.579h1.23v1.465a.648.648 0 00.403.605.64.64 0 00.713-.138l1.932-1.932h7.725a1.58 1.58 0 001.573-1.579V3.65a1.58 1.58 0 00-1.573-1.579zm-9.26 5.222a.54.54 0 11.01-1.081.54.54 0 01-.01 1.081zm3.256 0a.541.541 0 11.01-1.081.541.541 0 01-.01 1.081zm3.255 0a.541.541 0 11.01-1.081.541.541 0 01-.01 1.081zM9.149 25.929l1.23-1.665a4.284 4.284 0 012.849-1.696l4.879-.673a3.743 3.743 0 001.948-.886l5.436-4.711a.95.95 0 00.334-.76.983.983 0 00-.37-.748.991.991 0 00-1.29.07l-2.551 2.5c-.434.43-1.014.68-1.625.699l-3.34.127a1.681 1.681 0 01-1.432.794h-3.593a.253.253 0 110-.506h3.593a1.197 1.197 0 001.194-1.194 1.21 1.21 0 00-1.194-1.195H10.45c-.78 0-1.555.101-2.308.299l-.435.116a3.49 3.49 0 00-2.273 1.893l-.283.597a9.177 9.177 0 01-1.478 2.237L1.75 23.373l7.399 2.556z" fill="#F89D33"/><path d="M19.454 13.752l-2.845 2.561a1.653 1.653 0 01.264 1.357l.455-.021 3.345-3.016a.77.77 0 00-1.22-.88zm.516 3.801A1.923 1.923 0 0021.26 17l1.716-1.69a.76.76 0 00-.531-1.303.794.794 0 00-.527.19l-3.8 3.426 1.852-.071z" fill="#F89D33"/></svg>