<svg width="28" height="28" fill="none" xmlns="http://www.w3.org/2000/svg"><g clip-path="url(#clip0_322_12490)" fill="#F89D33"><path d="M.382 14.036a.583.583 0 00-.347.747l.367 1.008L3.19 13 .38 14.037zm2.639 8.96l1.68 4.62A.578.578 0 005.25 28a.571.571 0 00.202-.037l1.853-.683-4.284-4.284zm24.944-3.944l-1.923-5.286-4.614 4.614 2.287-.843a.58.58 0 01.749.346.582.582 0 01-.345.749l-2.905 1.07a.58.58 0 01-.75-.345v-.01l-4.89 4.89 12.044-4.439a.581.581 0 00.347-.746zm-.135-9.548L18.497.171a.584.584 0 00-.825 0l-17.5 17.5a.584.584 0 000 .824l9.334 9.333a.586.586 0 00.825.001L27.83 10.33a.585.585 0 000-.826zm-21 6.66l-2.333 2.332a.586.586 0 01-.826 0 .584.584 0 010-.824l2.334-2.334a.584.584 0 01.826.825zm10.074.74c-.413.413-.974.611-1.598.611-1.031 0-2.236-.54-3.244-1.55-.738-.736-1.256-1.618-1.457-2.482-.224-.962-.04-1.8.519-2.36.558-.56 1.396-.744 2.36-.519.863.202 1.745.719 2.482 1.457 1.62 1.62 2.034 3.747.938 4.843zm7.426-6.574l-2.333 2.333a.586.586 0 01-.826 0 .584.584 0 010-.825l2.333-2.333a.584.584 0 01.826.825z"/></g><defs><clipPath id="clip0_322_12490"><path fill="#fff" d="M0 0h28v28H0z"/></clipPath></defs></svg>