<svg width="28" height="28" fill="none" xmlns="http://www.w3.org/2000/svg"><path d="M25.909 8.66l-2.655-1.588-.598-2.476a2.28 2.28 0 00-2.397-1.742l-3.037.235-1.74-1.54a2.277 2.277 0 00-2.964-.001l-1.74 1.54-3.037-.234c-1.102-.077-2.133.645-2.37 1.652l-.878 2.73L2.092 8.66a2.275 2.275 0 00-.917 2.82l1.036 2.51-1.035 2.51a2.273 2.273 0 00.916 2.819l2.651 1.577.6 2.486a2.28 2.28 0 002.398 1.742l3.005-.232 1.772 1.56a2.278 2.278 0 002.964-.001l1.772-1.559 3.005.233a2.264 2.264 0 002.397-1.743l.598-2.475 2.655-1.588a2.276 2.276 0 00.916-2.819l-1.037-2.51 1.037-2.513a2.275 2.275 0 00-.916-2.817zM14 22.379c-4.62 0-8.379-3.759-8.379-8.379 0-4.62 3.759-8.379 8.379-8.379 4.62 0 8.379 3.759 8.379 8.379 0 4.62-3.759 8.379-8.379 8.379z" fill="#F89D33"/><path d="M14 7.145A6.863 6.863 0 007.145 14 6.863 6.863 0 0014 20.855 6.863 6.863 0 0020.855 14 6.863 6.863 0 0014 7.145zm4.347 5.108l-4.57 4.57a.76.76 0 01-1.077 0l-3.047-3.046A.761.761 0 1110.73 12.7l2.508 2.508 4.032-4.032a.761.761 0 111.077 1.077z" fill="#F89D33"/></svg>