<svg width="32" height="32" fill="none" xmlns="http://www.w3.org/2000/svg"><path d="M26.955 25.146c-.644-1.918-3.213-3.119-5.044-3.924-.718-.314-2.704-.847-2.943-1.75a1.87 1.87 0 01-.004-.927c-.11.021-.222.034-.338.034h-1.193a1.729 1.729 0 01-1.727-1.727c0-.952.775-1.725 1.727-1.725h1.193c.394 0 .768.133 1.07.372a7.672 7.672 0 001.265-.278c.522-1.093.93-2.4 1.02-3.526.39-4.815-2.562-7.633-6.795-7.146-3.077.355-4.916 2.65-5.114 5.604-.201 3.01.915 5.235 2.101 6.866.52.714 1.065 1.172.981 2.032-.097 1.016-1.184 1.3-1.961 1.611-.921.37-1.913.932-2.382 1.191-1.613.891-3.384 1.965-3.783 3.433-.881 3.253 2.096 4.24 4.554 4.694 2.11.39 4.488.42 6.444.42 3.54 0 9.903-.142 10.93-2.802.291-.755.166-1.958 0-2.452z" fill="#F89D33"/><path d="M19.382 16.366a.901.901 0 00-.755-.41h-1.193a.898.898 0 100 1.797h1.193a.892.892 0 00.793-.486c1.664-.131 3.111-.64 4.127-1.39.233.15.509.239.807.239h.074a1.5 1.5 0 001.5-1.502v-2.998c0-.597-.35-1.112-.854-1.351C24.854 5.45 20.868 1.6 16 1.6c-4.868 0-8.854 3.85-9.073 8.665-.506.24-.856.754-.856 1.351v2.998a1.5 1.5 0 001.5 1.502h.075a1.5 1.5 0 001.5-1.502v-2.998c0-.588-.34-1.096-.835-1.341.214-4.056 3.58-7.29 7.689-7.29 4.107 0 7.474 3.234 7.687 7.29a1.497 1.497 0 00-.834 1.341v2.998c0 .2.04.384.107.557-.874.626-2.147 1.072-3.58 1.195z" fill="#F89D33"/></svg>