<svg width="22" height="22" fill="none" xmlns="http://www.w3.org/2000/svg"><g clip-path="url(#clip0_322_20269)" fill="#fff"><path d="M7.133 14.223h11.645c.288 0 .54-.19.619-.468l2.578-9.023a.644.644 0 00-.62-.822H5.646l-.46-2.073a.645.645 0 00-.63-.505H.645a.644.644 0 100 1.29h3.392l2.328 10.473a1.935 1.935 0 00-1.166 1.772c0 1.066.868 1.934 1.934 1.934h11.645a.644.644 0 100-1.29H7.133a.645.645 0 010-1.288z"/><path d="M6.488 18.735c0 1.066.868 1.933 1.934 1.933a1.936 1.936 0 001.934-1.933A1.936 1.936 0 008.422 16.8a1.936 1.936 0 00-1.934 1.934zm9.067 0c0 1.066.867 1.933 1.933 1.933a1.936 1.936 0 001.934-1.933 1.936 1.936 0 00-1.934-1.934 1.936 1.936 0 00-1.933 1.934z"/></g><defs><clipPath id="clip0_322_20269"><path fill="#fff" d="M0 0h22v22H0z"/></clipPath></defs></svg>