<svg width="22" height="22" fill="none" xmlns="http://www.w3.org/2000/svg"><path d="M13.105 11a2.106 2.106 0 11-4.21 0 2.106 2.106 0 014.21 0z" fill="url(#paint0_linear_322_12254)"/><path d="M15.923 7.275a1.957 1.957 0 00-.473-.726 1.956 1.956 0 00-.726-.473c-.223-.086-.557-.19-1.173-.217-.666-.03-.866-.037-2.552-.037-1.687 0-1.887.006-2.553.037-.616.028-.95.13-1.172.217a1.954 1.954 0 00-.727.473c-.21.203-.371.451-.472.726-.087.222-.19.557-.218 1.173-.03.666-.037.865-.037 2.552s.007 1.886.037 2.553c.028.615.131.95.218 1.172.101.275.262.523.472.727.204.21.452.37.726.472.223.087.557.19 1.173.218.666.03.866.036 2.553.036 1.686 0 1.886-.006 2.552-.036.616-.028.95-.131 1.173-.218.55-.212.986-.648 1.199-1.199.086-.222.189-.556.217-1.172.03-.667.037-.866.037-2.553 0-1.687-.006-1.886-.037-2.552-.028-.616-.13-.95-.217-1.173zm-4.924 6.968a3.244 3.244 0 110-6.487 3.244 3.244 0 010 6.487zm3.371-5.857a.758.758 0 110-1.516.758.758 0 010 1.516z" fill="url(#paint1_linear_322_12254)"/><path d="M11 0C4.926 0 0 4.926 0 11s4.926 11 11 11 11-4.926 11-11S17.074 0 11 0zm6.278 13.604c-.03.673-.137 1.132-.293 1.533a3.23 3.23 0 01-1.848 1.848c-.401.156-.86.263-1.533.293-.673.031-.888.038-2.604.038-1.715 0-1.93-.007-2.604-.038-.672-.03-1.132-.137-1.533-.293a3.095 3.095 0 01-1.12-.729 3.095 3.095 0 01-.728-1.119c-.156-.401-.263-.86-.293-1.533-.031-.673-.038-.889-.038-2.604s.007-1.93.038-2.604c.03-.673.137-1.132.293-1.533.159-.422.407-.804.729-1.12.315-.32.697-.57 1.119-.728.401-.156.86-.263 1.533-.293.673-.031.889-.038 2.604-.038s1.93.007 2.604.038c.673.03 1.132.137 1.533.293.422.159.804.407 1.12.729.32.315.57.697.728 1.119.156.401.263.86.294 1.533.03.673.037.889.037 2.604s-.007 1.93-.038 2.604z" fill="url(#paint2_linear_322_12254)"/><defs><linearGradient id="paint0_linear_322_12254" x1="11" y1="8.895" x2="11" y2="13.105" gradientUnits="userSpaceOnUse"><stop stop-color="#4F33F8"/><stop offset=".344" stop-color="#A65AB2"/><stop offset=".641" stop-color="#D349D6"/><stop offset="1" stop-color="#F89D33"/></linearGradient><linearGradient id="paint1_linear_322_12254" x1="10.999" y1="5.822" x2="10.999" y2="16.178" gradientUnits="userSpaceOnUse"><stop stop-color="#4F33F8"/><stop offset=".344" stop-color="#A65AB2"/><stop offset=".641" stop-color="#D349D6"/><stop offset="1" stop-color="#F89D33"/></linearGradient><linearGradient id="paint2_linear_322_12254" x1="11" y1="0" x2="11" y2="22" gradientUnits="userSpaceOnUse"><stop stop-color="#4F33F8"/><stop offset=".344" stop-color="#A65AB2"/><stop offset=".641" stop-color="#D349D6"/><stop offset="1" stop-color="#F89D33"/></linearGradient></defs></svg>