<svg width="292" height="57" fill="none" xmlns="http://www.w3.org/2000/svg"><g clip-path="url(#clip0_322_12717)"><path d="M75.959 56.46V24.846h6.061v26.23h15.906v5.386H75.959zm36.906-5.194a6.738 6.738 0 003.6-.89 6.865 6.865 0 002.374-2.316 9.081 9.081 0 001.275-3.248 18.47 18.47 0 00.381-3.817v-16.15h6.02V40.96a22.814 22.814 0 01-.79 6.107 13.579 13.579 0 01-2.416 4.985 11.396 11.396 0 01-4.218 3.386 14.17 14.17 0 01-6.195 1.248c-2.489 0-4.612-.431-6.371-1.294a12.208 12.208 0 01-4.217-3.473 14.394 14.394 0 01-2.37-5.031 24.609 24.609 0 01-.695-5.928V24.845h6.061V40.96c-.003 1.3.115 2.597.351 3.874a10.254 10.254 0 001.275 3.252 7.428 7.428 0 002.37 2.317c1.09.602 2.321.9 3.565.863zM138.694 36.2v20.26h-6.061V24.846h4.702l16.253 20.753V24.89h6.065v31.57h-4.924L138.694 36.2z" fill="#000"/><path d="M179.451 56.686a14.357 14.357 0 01-6.237-1.336 16.07 16.07 0 01-4.79-3.607 17.008 17.008 0 01-3.076-5.168 16.527 16.527 0 01-1.096-5.92 16.333 16.333 0 011.145-6.058 17.297 17.297 0 013.206-5.122 15.272 15.272 0 014.879-3.516 13.998 13.998 0 016.107-1.336c2.136-.028 4.247.46 6.153 1.424a15.044 15.044 0 014.786 3.653 16.86 16.86 0 013.069 5.153 16.412 16.412 0 01-.046 11.936 16.701 16.701 0 01-3.16 5.076 15.647 15.647 0 01-4.833 3.516c-1.916.875-4 1.32-6.107 1.305zm-9.05-16.031c-.007 1.344.195 2.68.599 3.962.382 1.223.976 2.37 1.756 3.386a9.228 9.228 0 002.859 2.358 8.22 8.22 0 003.878.905 8.063 8.063 0 003.867-.89 8.736 8.736 0 002.855-2.45 10.299 10.299 0 001.76-3.382 12.64 12.64 0 00.614-3.874c.002-1.35-.221-2.69-.66-3.966a10.282 10.282 0 00-1.802-3.378 8.094 8.094 0 00-2.855-2.317 7.87 7.87 0 00-3.779-.89 8.016 8.016 0 00-3.912.917 8.29 8.29 0 00-2.855 2.405 10.88 10.88 0 00-1.76 3.381 13.162 13.162 0 00-.565 3.833z" fill="#F88E33"/><path d="M225.584 24.845V56.46h-6.027V42.968h-14.146V56.46h-6.065V24.845h6.065v12.78h14.146v-12.78h6.027z" fill="#000"/><path d="M245.395 56.686a14.387 14.387 0 01-6.241-1.336 16.113 16.113 0 01-4.79-3.607 16.925 16.925 0 01-3.054-5.168 16.55 16.55 0 01-1.099-5.92 16.334 16.334 0 011.145-6.058 17.297 17.297 0 013.206-5.122 15.248 15.248 0 014.875-3.516 14.027 14.027 0 016.107-1.336c2.136-.028 4.247.46 6.153 1.424a15.043 15.043 0 014.767 3.653 16.926 16.926 0 013.092 5.153 16.412 16.412 0 01-.046 11.936 16.701 16.701 0 01-3.16 5.076 15.647 15.647 0 01-4.833 3.516 14.445 14.445 0 01-6.122 1.305zm-9.05-16.031a12.807 12.807 0 00.614 3.962c.382 1.223.976 2.37 1.756 3.386a9.215 9.215 0 002.855 2.358 8.246 8.246 0 003.863.905 8.063 8.063 0 003.867-.89 8.79 8.79 0 002.855-2.45 10.318 10.318 0 001.76-3.382 12.67 12.67 0 00.614-3.874c.002-1.35-.221-2.69-.66-3.966a10.35 10.35 0 00-1.798-3.378 8.112 8.112 0 00-2.855-2.317 7.881 7.881 0 00-3.779-.89 8.02 8.02 0 00-3.909.917 8.3 8.3 0 00-2.855 2.405 10.857 10.857 0 00-1.759 3.381 13.131 13.131 0 00-.569 3.833z" fill="#F88E33"/><path d="M265.281 56.46V24.846h11.337c2.287-.05 4.56.375 6.676 1.248a13.682 13.682 0 014.832 3.382 14.026 14.026 0 012.901 5.034c.656 1.97.982 4.033.966 6.108a18.577 18.577 0 01-1.1 6.546 14.006 14.006 0 01-3.053 4.989 14.283 14.283 0 01-4.878 3.206 17.108 17.108 0 01-6.325 1.11l-11.356-.007zm20.612-15.851a13.674 13.674 0 00-.615-4.199 9.38 9.38 0 00-1.801-3.294 7.964 7.964 0 00-2.943-2.137 9.596 9.596 0 00-3.909-.764h-5.275v20.841h5.275a9.25 9.25 0 003.955-.801 8.013 8.013 0 002.897-2.184 9.847 9.847 0 001.801-3.34 13.49 13.49 0 00.615-4.122z" fill="#000"/><path d="M8.81 13.94c-.073-.15-.383-.87-.718-.65-.224.26-.381.569-.459.902-.073.331-.064.676.027 1.003a3.58 3.58 0 001.5 1.604c.16 0 .382-.306.466-.539.084-.233-.416-.5-.721-1.145-.306-.645-.02-1.019-.096-1.175zm4.35-8.054a5.829 5.829 0 00-1.71 1.637c0 .16.764.683 1.027.722.264.038.34-.45.806-.916.465-.466 1.221-.111 1.221-.111s.576-.61.466-.954c-.11-.344-1.077-.684-1.81-.378zm7.134 5.424a27.707 27.707 0 01-.763 3.435c-.61 1.382-1.943 2.943-1.943 3.214 0 .27.466.34.806.267.34-.072.992-.805 1.832-2.443a12.51 12.51 0 001.145-4.118c-.046-.233-1.088-.382-1.088-.382l.011.027zm1.688 17.34a41.224 41.224 0 00-3.203 4.031 2.42 2.42 0 001.225.233 21.417 21.417 0 002.783-3.897c-.084-.222-.657-.382-.805-.382v.015zM48.857 2.221A3.958 3.958 0 0047.288.744a2.824 2.824 0 00-2.59.144c-.389.23-.716.55-.956.933a2.82 2.82 0 00-.427 1.263 4.168 4.168 0 001.675 3.458L42.9 21.047a4.893 4.893 0 00-3.054 1.221 4.619 4.619 0 00-1.428 3.214l-2.797-.26c-1.226-.095-4.18-.4-4.18-.4a6.202 6.202 0 00-.256-1.37c-.21-.562-1.225-1.123-1.225-1.123l1.225-5.237a2.63 2.63 0 001.122-1.225c.13-.29.192-.606.18-.924a2.057 2.057 0 00-.882-1.615 2.018 2.018 0 00-.874-.354 2.367 2.367 0 00-2.798.916l-1.82-.477s.66-5.497-1.222-7.99c-1.882-2.492-7.332-3.667-11.096-3.362-3.763.305-6.317 4.89-6.317 4.89L6.061 6.34a3.607 3.607 0 000-1.416A3.58 3.58 0 005.5 3.626c-.92-1.218-3.787-.343-4.707.844-.92 1.187-1.328 2.98.382 4.13a3.435 3.435 0 003.52 0l1.22.916a9.95 9.95 0 00-1.38 2.29 7.79 7.79 0 000 5.39 11.833 11.833 0 004.69 5.233c1.909.843 7.478 2.446 11.608-.23a12.215 12.215 0 005-7.332l1.908.305c.074.376.203.739.382 1.077.287.492.712.89 1.221 1.145l-.996 4.817a4.174 4.174 0 00-1.63.844 3.5 3.5 0 00-1.221 1.637c-1.224 0-2.445.065-3.664.195a7.153 7.153 0 00-4.008 2.137c-1.332 1.222-5.5 8.176-5.5 8.176-.759.115-1.5.32-2.21.611a12.214 12.214 0 00-5.99 5.313 10.527 10.527 0 001.218 11.913c2.867 2.695 3.63 3.458 11.936 3.775h30.67c5.145 0 7.87-.5 9.886-2.248a10.752 10.752 0 003.13-11.337c-1.604-5.645-5.695-6.305-5.695-6.305a23.128 23.128 0 00-2.065-3.36 75.902 75.902 0 00-5.7-6.725 11.348 11.348 0 00-.45-3.47 4.728 4.728 0 00-1.145-1.5 4.678 4.678 0 00-1.622-.942l2.069-13.741a3.84 3.84 0 002.37-1.111 3.668 3.668 0 00.13-3.852zM4.667 6.225c.001.32-.089.632-.259.901a1.73 1.73 0 01-.698.626 1.695 1.695 0 01-1.802-.19c-1.637-.917 0-2.898.878-3.054 1.626-.279 2.08.538 1.908 1.725l-.026-.008zm8.91-2.122c1.721-.454 3.591-.381 3.935 1.794a15.65 15.65 0 01-.81 5.672L9.264 7.695s2.604-3.153 4.314-3.592zm-6.108 4.47c.26 0 7.1 3.252 7.1 3.668 0 .416-.805 2.29-1.294 2.21a66.597 66.597 0 01-5.81-5.119c-.381-.343-.381-.82-.034-.782l.038.023zm-.11 8.825c-2.554-1.943 0-5.611.305-5.806 0 0 5.726 4.813 5.66 4.962-.064.15-3.435 2.771-6 .817l.035.027zm15.092.06c-2.18 3.165-4.172 3.898-6.26 4.035-1.4.159-2.82.029-4.168-.381-.5-.233-.878-.806-.45-.954a13.44 13.44 0 006.218-5.863c2.137-4.046 2.175-8.482 2.442-8.78a3.977 3.977 0 013.363 3.127c.6 2.584 1.012 5.637-1.149 8.817h.004zm35.273 24.62c1.943 3.436.687 9.161-2.29 11.108-2.978 1.947-21.883 1.489-29.704 1.221-7.821-.267-15.394-.21-18.268-2.591-2.874-2.382-2.821-6.49-.905-9.36 1.916-2.87 4.428-5.462 12.42-5.912 9.09-.297 18.19-.097 27.258.6 6.977.816 9.53 1.5 11.485 4.934h.004zm-10.546-12.4c1.294 1.759 4.08 5.656 3.775 5.69-.31.03-.622-.007-.917-.107-.194-.076-3.435-4.279-3.74-4.313-.306-.034-1.222.34-1.061.61.16.272 3.397 3.436 3.164 3.47a6.162 6.162 0 01-1.676 0c-.194-.11-2.637-3.435-2.859-3.507-.221-.073-1.332.267-1.145.538.187.27 2.909 2.859 2.672 2.98a2.554 2.554 0 01-1.416 0c-.233-.144-1.798-2.514-2.137-2.59-.34-.077-1.222.232-1.027.576.194.343 1.6 1.87 1.416 1.87l-27.001-.244c.381-.417 4.045-6.562 6.794-7.482 2.748-.92 15.31.077 19.245.454 3.935.378 4.619.294 5.913 2.054zm-1.146-3.776a20.488 20.488 0 01-6.107-.649 3.359 3.359 0 013.397-2.947c2.672.123 3.325 3.352 2.714 3.58l-.004.016zM45.651 5.58c-.989-.683-1.065-3.164.416-3.664.828-.282 1.943.416 1.989 1.832.045 1.416-1.367 2.516-2.394 1.832h-.011zM13.538 38.842c-6.107 1.56-7.328 6.912-5.801 10.042 1.526 3.13 3.664 3.86 10.687 4.435 7.023.577 25.658.382 31.498 0 5.84-.381 6.95-2.435 7.443-5.156.492-2.722.649-5.913-2.137-7.87-2.787-1.959-9.36-1.722-15.81-1.795-6.451-.072-23.253-.332-25.88.344zm7.982 8.71c-1.226 4.546-7.944 5.726-10.997 2.748-3.054-2.977-2.863-9.47 4.962-10.153a5.702 5.702 0 016.199 4.58c.178.93.123 1.89-.16 2.795l-.004.03zm28.864-7.332a5.707 5.707 0 015.996 7.405c-1.221 4.546-7.939 5.725-10.996 2.748-3.058-2.977-2.833-9.443 5-10.127v-.026zm-11.192 7.405c-1.225 4.546-7.943 5.725-10.996 2.748-3.054-2.977-2.863-9.47 4.962-10.153a5.706 5.706 0 016.038 7.428l-.004-.023zM13.764 43.96a2.433 2.433 0 00-.787 2.94c.148.337.37.637.65.877 1.637 1.638 4.812.233 4.164-1.98a2.65 2.65 0 00-1.527-1.978 2.673 2.673 0 00-2.493.156l-.007-.015zm17.718.157a2.436 2.436 0 00-.996 1.878 2.413 2.413 0 00.847 1.946c1.638 1.638 4.813.233 4.168-1.977a2.672 2.672 0 00-4.019-1.828v-.02zm21.505 1.698a2.672 2.672 0 00-2.783-2.214 2.674 2.674 0 00-1.225.382 2.439 2.439 0 00-.149 3.825c1.634 1.637 4.798.282 4.165-1.993h-.008z" fill="#F88E33"/></g><defs><clipPath id="clip0_322_12717"><path fill="#fff" transform="translate(0 .5)" d="M0 0h292v56.312H0z"/></clipPath></defs></svg>