<svg width="14" height="14" fill="none" xmlns="http://www.w3.org/2000/svg"><path d="M9.071 7.581L7.9 8.758c-.476.477-1.312.487-1.798 0L4.928 7.58.717 11.806c.157.073.33.116.513.116h11.54c.183 0 .356-.043.512-.116l-4.21-4.225z" fill="#F89D33"/><path d="M12.77 2.078H1.23a1.21 1.21 0 00-.513.116l4.5 4.515.001.001 1.464 1.468c.155.156.48.156.636 0L8.78 6.711V6.71l.001-.001 4.5-4.515a1.217 1.217 0 00-.513-.116zm-12.64.69c-.08.164-.13.346-.13.54v7.383c0 .195.05.377.13.541L4.35 7 .13 2.768zm13.739-.001L9.65 7l4.219 4.232c.081-.163.13-.345.13-.54V3.308a1.22 1.22 0 00-.13-.542z" fill="#F89D33"/></svg>