<svg width="24" height="25" fill="none" xmlns="http://www.w3.org/2000/svg"><path d="M21.14 15.556h-5.624A3.52 3.52 0 0112 12.041V6.416c0-.241.025-.476.071-.703H2.86c-1.164 0-2.11.946-2.11 2.109v11.297c0 1.163.946 2.156 2.11 2.156h16.874c1.163 0 2.11-.993 2.11-2.156v-3.634a3.513 3.513 0 01-.703.071zM4.267 16.962a.703.703 0 110-1.406.703.703 0 010 1.406zm2.812 0a.703.703 0 110-1.406.703.703 0 010 1.406zm2.813 0a.703.703 0 110-1.406.703.703 0 010 1.406zm.703-3.515a.703.703 0 01-.703.703H4.266a.703.703 0 01-.704-.703V9.228c0-.388.315-.703.704-.703H9.89c.388 0 .703.315.703.703v4.219zm7.733-5.625c-.775 0-1.406.63-1.406 1.406 0 .775.63 1.406 1.406 1.406.775 0 1.406-.63 1.406-1.406 0-.775-.63-1.406-1.406-1.406z" fill="#F89D33"/><path d="M21.14 4.306h-5.624a2.11 2.11 0 00-2.11 2.11v5.625a2.11 2.11 0 002.11 2.109h5.625a2.11 2.11 0 002.109-2.11V6.417a2.11 2.11 0 00-2.11-2.11zm-2.812 7.735a2.815 2.815 0 01-2.812-2.813 2.815 2.815 0 012.812-2.812 2.815 2.815 0 012.813 2.812 2.815 2.815 0 01-2.813 2.813zM4.969 2.9c-.777 0-1.407.63-1.407 1.406h2.813c0-.776-.63-1.406-1.406-1.406zM3 15.5h9v3H3z" fill="#F89D33"/></svg>