<svg width="24" height="25" fill="none" xmlns="http://www.w3.org/2000/svg"><g clip-path="url(#clip0_322_20541)"><path d="M20.4.5h-1.6a.4.4 0 00-.4.4v18.8c0 1.324-1.078 2.4-2.4 2.4h-4.8a2.4 2.4 0 01-2.4-2.395V18.9a.8.8 0 00.8-.8v-1.6h1.6a.8.8 0 00.8-.8V6.1a.8.8 0 00-.8-.8h-.4V1.7c0-.662-.54-1.2-1.2-1.2h-4a1.2 1.2 0 00-1.2 1.2v3.6H4a.8.8 0 00-.8.8v9.6a.8.8 0 00.8.8h1.6v1.6a.8.8 0 00.8.8v.805a4.803 4.803 0 004.8 4.795H16c2.646 0 4.8-2.153 4.8-4.8V.9a.4.4 0 00-.4-.4zM5.2 5.3V1.7a.4.4 0 01.4-.4h4c.22 0 .4.18.4.4v3.6H5.2zm.916 8.283a.4.4 0 010-.566L7.833 11.3H6.4a.4.4 0 01-.283-.683l2.4-2.4a.4.4 0 01.566.566L7.365 10.5h1.434a.399.399 0 01.282.683l-2.399 2.4a.4.4 0 01-.566 0zm.683 4.517h-.4v-1.6h2.4v1.6h-2z" fill="#F89D33"/></g><defs><clipPath id="clip0_322_20541"><path fill="#fff" transform="translate(0 .5)" d="M0 0h24v24H0z"/></clipPath></defs></svg>