<svg width="26" height="27" fill="none" xmlns="http://www.w3.org/2000/svg"><g clip-path="url(#clip0_322_20570)"><path d="M19.79 10.397a.361.361 0 00-.472.195l-.806 1.95-.806-1.95a.361.361 0 00-.667.276l1.121 2.713c.126.305.582.295.704 0l1.122-2.713a.36.36 0 00-.196-.471zm2.468 2.064c1.028-.54.635-2.091-.514-2.091h-.913a.36.36 0 00-.36.36v2.74a.361.361 0 00.721 0v-.883h.285l.714 1.082a.36.36 0 10.602-.399l-.535-.81zm-.514-.595h-.552v-.775h.552a.388.388 0 010 .775zM2.465 13.373a.36.36 0 00-.36.36v.567a.361.361 0 10.721 0v-.566a.36.36 0 00-.36-.361zM4.24 9.496c-1.237 0-2.136.898-2.136 2.136v.874a.361.361 0 10.722 0v-.874c0-.704.437-1.414 1.414-1.414a.36.36 0 000-.722zM.927 16.088H.5a.501.501 0 01-.5-.501v-2.779a.5.5 0 01.501-.5h.426v3.78zM11.11 7.884a.5.5 0 01.5-.5h2.78a.5.5 0 01.5.5v.426h-3.78v-.426zm13.495 8.942a2.793 2.793 0 01-2.79 2.79H15.86a.694.694 0 01-.693-.693c0-.85-.692-1.542-1.542-1.542h-1.252c-.85 0-1.542.692-1.542 1.542a.694.694 0 01-.693.694H4.185a2.793 2.793 0 01-2.79-2.79v-5.258a2.793 2.793 0 012.79-2.79h17.63a2.793 2.793 0 012.79 2.79v5.257zM26 15.586a.501.501 0 01-.5.502h-.427v-3.78h.426a.5.5 0 01.501.5v2.779z" fill="#F89D33"/></g><defs><clipPath id="clip0_322_20570"><path fill="#fff" transform="translate(0 .5)" d="M0 0h26v26H0z"/></clipPath></defs></svg>