<svg width="24" height="24" fill="none" xmlns="http://www.w3.org/2000/svg"><path d="M21.188 16.969V9.377c0-1.32-1.192-2.33-2.457-2.084a8.86 8.86 0 00-.356.077v6.083c0 4.094-3.146 7.359-7.031 7.704v.734c0 1.163.946 2.109 2.11 2.109h4.592a4.2 4.2 0 01-1.077-2.813 4.223 4.223 0 014.218-4.218z" fill="#F89D33"/><path d="M21.188 18.375a2.816 2.816 0 00-2.813 2.813A2.816 2.816 0 0021.188 24 2.816 2.816 0 0024 21.187a2.816 2.816 0 00-2.813-2.812zm0 3.516a.703.703 0 110-1.407.703.703 0 010 1.407zm-10.993-4.922h1.149v2.774a6.324 6.324 0 005.625-6.29V7.825a9.163 9.163 0 00-5.598 7.737h-1.176a1.056 1.056 0 01-1.054-1.054V2.46A2.464 2.464 0 006.68 0a2.464 2.464 0 00-2.461 2.46v17.321h-.703A3.52 3.52 0 000 23.297c0 .388.315.703.703.703h8.438a.703.703 0 00.703-.703 3.52 3.52 0 00-3.516-3.516h-.703V2.461a1.056 1.056 0 012.11 0v12.047a2.464 2.464 0 002.46 2.46z" fill="#F89D33"/></svg>