<svg width="24" height="25" fill="none" xmlns="http://www.w3.org/2000/svg"><g clip-path="url(#clip0_322_20565)" fill="#F89D33"><path d="M12 12.393a3.488 3.488 0 003.483-3.483V5.627a7.66 7.66 0 00-3.484-.834 7.66 7.66 0 00-3.483.834V8.91a3.488 3.488 0 003.483 3.483zm-.704-3.142h1.406v1.39h-1.406V9.25z"/><path d="M4.293 12.5c0 4.25 3.457 7.707 7.707 7.707s7.707-3.457 7.707-7.707a7.695 7.695 0 00-2.817-5.953V8.91A4.896 4.896 0 0112 13.8a4.896 4.896 0 01-4.89-4.89V6.547A7.695 7.695 0 004.293 12.5zm5.693 3.578h4.028v1.406H9.986v-1.406z"/><path d="M2.914 11.797c.36-4.698 4.298-8.41 9.087-8.41 4.788 0 8.726 3.712 9.086 8.41h2.893a11.912 11.912 0 00-3.494-7.782A11.922 11.922 0 0012 .5a11.922 11.922 0 00-8.485 3.515 11.912 11.912 0 00-3.494 7.782h2.893zm18.173 1.406c-.36 4.698-4.298 8.41-9.086 8.41-4.789 0-8.727-3.712-9.087-8.41H.021a11.911 11.911 0 003.494 7.782 11.921 11.921 0 008.486 3.515 11.92 11.92 0 008.485-3.515c2.1-2.1 3.325-4.841 3.494-7.782h-2.893z"/></g><defs><clipPath id="clip0_322_20565"><path fill="#fff" transform="translate(0 .5)" d="M0 0h24v24H0z"/></clipPath></defs></svg>