<svg width="24" height="25" fill="none" xmlns="http://www.w3.org/2000/svg"><g clip-path="url(#clip0_322_20549)"><path fill-rule="evenodd" clip-rule="evenodd" d="M24 9.997v-5.5a5.378 5.378 0 00-4.605-2.614 5.372 5.372 0 00-5.365 5.364 5.372 5.372 0 005.365 5.363A5.378 5.378 0 0024 9.997zM4.605 12.61a5.37 5.37 0 005.366-5.363 5.37 5.37 0 00-5.366-5.364A5.381 5.381 0 000 4.496v5.5a5.381 5.381 0 004.605 2.614zm2.368-3.653v-3.42a.454.454 0 11.91 0v3.42a.455.455 0 01-.91 0zm2.998 12.336H6.474l-.04-.002v1.646c0 .098.083.18.182.18h3.173a.184.184 0 00.181-.18v-1.644zm-.003-.908H6.474c-.011 0-.026 0-.04.002v-7.141A6.303 6.303 0 009.966 10.5l.002 9.885zm7.558.908h-3.494l-.003 1.644a.185.185 0 00.182.18h3.173a.183.183 0 00.182-.18v-1.646a.447.447 0 01-.04.002zm.04-.906a.335.335 0 00-.04-.002h-3.494l.002-9.885a6.303 6.303 0 003.532 2.746v7.141zm-.54-14.85v3.42a.453.453 0 11-.906 0v-3.42a.453.453 0 11.906 0z" fill="#F89D33"/></g><defs><clipPath id="clip0_322_20549"><path fill="#fff" transform="translate(0 .5)" d="M0 0h24v24H0z"/></clipPath></defs></svg>