<svg width="20" height="21" fill="none" xmlns="http://www.w3.org/2000/svg"><g clip-path="url(#clip0_322_15160)"><path d="M10 20.5c5.524 0 10-4.476 10-10S15.524.5 10 .5 0 4.976 0 10.5s4.476 10 10 10zM4.576 10.283l9.642-3.717c.447-.162.838.109.693.786V7.35l-1.641 7.734c-.122.548-.447.682-.903.423l-2.5-1.842-1.206 1.162c-.133.133-.246.245-.504.245l.177-2.544 4.633-4.186c.202-.177-.045-.277-.31-.1L6.93 11.846l-2.468-.77c-.536-.17-.548-.535.113-.794z" fill="#31A8FF"/></g><defs><clipPath id="clip0_322_15160"><path fill="#fff" transform="translate(0 .5)" d="M0 0h20v20H0z"/></clipPath></defs></svg>