<svg width="22" height="22" fill="none" xmlns="http://www.w3.org/2000/svg"><path d="M11 0C4.935 0 0 4.935 0 11s4.935 11 11 11 11-4.935 11-11S17.066 0 11 0zm4.907 8.482c.005.11.008.22.008.33 0 3.345-2.546 7.202-7.204 7.202a7.158 7.158 0 01-3.881-1.137 5.08 5.08 0 003.748-1.048 2.534 2.534 0 01-2.365-1.759 2.547 2.547 0 001.143-.043 2.532 2.532 0 01-2.03-2.482v-.032c.341.19.731.304 1.146.316a2.53 2.53 0 01-.783-3.38 7.189 7.189 0 005.218 2.646 2.532 2.532 0 014.314-2.31 5.054 5.054 0 001.609-.614 2.544 2.544 0 01-1.115 1.4 5.034 5.034 0 001.454-.397 5.094 5.094 0 01-1.262 1.308z" fill="#338EF8"/></svg>