<svg width="22" height="23" fill="none" xmlns="http://www.w3.org/2000/svg"><g clip-path="url(#clip0_322_15154)" fill="#7233F8"><path d="M16.192 8.193c-.096-.375-.375-.803-.725-1.17-.43-.45-.98-.815-1.461-.923a16 16 0 00-6.014 0c-.875.195-1.971 1.25-2.185 2.093a11.5 11.5 0 000 4.936c.173.682.921 1.5 1.663 1.892.164.09.34.158.522.201a.082.082 0 01.068.08v2.4a.133.133 0 00.228.092l1.142-1.169 1.07-1.1a.08.08 0 01.06-.025 16.17 16.17 0 003.444-.277c.876-.196 1.972-1.25 2.187-2.094a11.5 11.5 0 00.001-4.936zm-2.155 5.057a1.85 1.85 0 01-.795.875 1.79 1.79 0 01-.344.11c-.133-.041-.261-.067-.375-.117a9.45 9.45 0 01-2.606-1.538 6.88 6.88 0 01-.654-.641 8.456 8.456 0 01-1.25-1.909c-.16-.325-.295-.664-.432-1-.125-.306.06-.625.25-.852.185-.213.414-.384.671-.5a.43.43 0 01.539.125c.317.359.596.75.834 1.166a.556.556 0 01-.157.75 1.852 1.852 0 00-.178.141.568.568 0 00-.135.144.39.39 0 00-.03.347c.24.664.607 1.216 1.155 1.605.185.132.384.242.595.328a.894.894 0 00.447.108c.273-.032.363-.332.553-.488a.524.524 0 01.624-.028c.203.125.398.265.593.404.193.131.379.273.556.424a.442.442 0 01.139.546zm-1.795-3a.267.267 0 01-.015-.064 1.743 1.743 0 00-.037-.25.724.724 0 00-.268-.42.737.737 0 00-.216-.105c-.099-.027-.203-.02-.3-.043a.185.185 0 01-.15-.214.193.193 0 01.204-.156c.572.042 1 .317 1.11.93.01.058.019.115.023.173a.499.499 0 010 .156.161.161 0 01-.132.126h-.028a.187.187 0 01-.191-.133zm-.183-1.549a2.25 2.25 0 00-.607-.186c-.092-.015-.185-.024-.277-.036a.177.177 0 01-.167-.198.174.174 0 01.194-.171 2.53 2.53 0 011.054.275c.4.2.725.522.931.919.116.232.194.481.23.739a.913.913 0 01.015.1c.006.076.009.15.015.243v.035a.498.498 0 01-.015.11.183.183 0 01-.273.102.184.184 0 01-.072-.084.527.527 0 01-.019-.155 2.013 2.013 0 00-.162-.813 1.83 1.83 0 00-.846-.88zm2.066 2.305c-.126 0-.187-.106-.195-.222-.017-.229-.03-.459-.06-.687a2.874 2.874 0 00-2.318-2.405c-.18-.03-.364-.038-.545-.058-.115-.011-.266-.019-.291-.163a.2.2 0 01.047-.154.197.197 0 01.146-.067h.134a3.317 3.317 0 012.707 1.5c.236.368.397.78.472 1.21.048.271.065.549.086.824a.192.192 0 01-.105.202.194.194 0 01-.079.02z"/><path d="M11 .5a11 11 0 100 22 11 11 0 000-22zm6.354 12.891v.015c-.32 1.299-1.768 2.69-3.096 2.98h-.015c-1.07.206-2.155.31-3.243.312-.318 0-.637-.01-.955-.03l-1.467 1.527a.583.583 0 01-1-.404v-1.448a3.71 3.71 0 01-.974-.452c-.923-.586-1.723-1.56-1.953-2.485v-.015a12.694 12.694 0 010-5.461v-.016c.32-1.298 1.767-2.689 3.099-2.979h.015a17.21 17.21 0 016.478 0h.014c.718.156 1.47.634 2.06 1.25.5.519.89 1.138 1.037 1.734v.016a12.694 12.694 0 010 5.456z"/></g><defs><clipPath id="clip0_322_15154"><path fill="#fff" transform="translate(0 .5)" d="M0 0h22v22H0z"/></clipPath></defs></svg>