<svg width="20" height="21" fill="none" xmlns="http://www.w3.org/2000/svg"><g clip-path="url(#clip0_322_15162)"><path d="M10 20.5c5.523 0 10-4.477 10-10S15.523.5 10 .5 0 4.977 0 10.5s4.477 10 10 10z" fill="#29A71A"/><path d="M14.409 6.09a6.201 6.201 0 00-9.935 7.175l-.658 3.194a.236.236 0 00.038.185.239.239 0 00.255.1L7.239 16a6.2 6.2 0 007.17-9.91zm-.977 7.792a4.857 4.857 0 01-5.593.909l-.436-.216-1.92.455.006-.024.398-1.932-.214-.422a4.854 4.854 0 117.76 1.23z" fill="#fff"/><path d="M13.261 12.465c-.235.37-.607.824-1.074.936-.818.198-2.074.007-3.636-1.45l-.02-.017C7.158 10.66 6.801 9.6 6.887 8.76c.048-.477.446-.909.78-1.19a.447.447 0 01.7.16l.505 1.136a.444.444 0 01-.055.454l-.256.332a.44.44 0 00-.04.491c.143.251.487.62.867.963.428.386.901.74 1.201.86a.434.434 0 00.476-.1l.297-.3a.454.454 0 01.443-.113l1.202.341a.455.455 0 01.254.672z" fill="#fff"/></g><defs><clipPath id="clip0_322_15162"><path fill="#fff" transform="translate(0 .5)" d="M0 0h20v20H0z"/></clipPath></defs></svg>