<svg width="20" height="20" fill="none" xmlns="http://www.w3.org/2000/svg"><path d="M8.754 11.873L12.007 10 8.754 8.126v3.747z" fill="#E73232"/><path d="M10 0C4.478 0 0 4.478 0 10s4.478 10 10 10 10-4.478 10-10S15.522 0 10 0zm6.248 10.01s0 2.028-.257 3.006a1.566 1.566 0 01-1.101 1.102c-.978.257-4.89.257-4.89.257s-3.902 0-4.89-.268a1.566 1.566 0 01-1.101-1.101C3.75 12.038 3.75 10 3.75 10s0-2.028.258-3.006A1.598 1.598 0 015.11 5.882c.978-.257 4.89-.257 4.89-.257s3.912 0 4.89.268c.535.144.957.566 1.101 1.101.268.978.258 3.016.258 3.016z" fill="#E73232"/></svg>