<svg width="65" height="43" fill="none" xmlns="http://www.w3.org/2000/svg"><path d="M10.523 16.243l-2.199 8.971c-.904-3.664-1.811-7.328-2.718-10.992l-.482 2.436H0v-1.495h3.68l1.925-7.802c.915 3.698 1.826 7.397 2.74 11.096.73-2.94 1.46-5.88 2.182-8.821l1.042 4.205 1.387-5.748 2.241 9.083.283-1.678h5.123v.001-.001l2.467.547c.196.06.405.109.627.147 1.229.213 6.036 1.774 7.035.175.232-.376.205-.97-.067-1.319-.34-.428-.902-.66-1.412-.816-.634-.187-1.268-.38-1.88-.63-.275-.113-.603-.255-.846-.427-.82-.408-1.23-1.096-1.23-2.068 0-1.356.973-2.204 2.206-2.55 1.01-.282 2.313-.246 3.295.115.544.2 1.013.498 1.408.897a.57.57 0 01.153.422c0 .372-.22.685-.617.685-.127 0-.269-.066-.425-.202-.848-.592-1.956-.856-2.976-.646-.618.12-1.28.472-1.28 1.185 0 .268.07.493.218.672.33.41.925.645 1.416.796.73.224 1.452.42 2.158.715.663.273 1.254.681 1.591 1.33.154.3.232.66.232 1.082 0 1.413-.947 2.314-2.248 2.682-1.836.524-5.232-.4-7.115-.755a5.884 5.884 0 01-.697-.174 11.945 11.945 0 0011.277 7.993c6.596 0 11.941-5.338 11.941-11.924 0-2.104-.547-4.155-1.603-5.973v-.043h1.689a13.378 13.378 0 011.422 6.016c0 7.416-6.022 13.43-13.449 13.43-6.1 0-11.376-4.097-12.964-9.845l-4.088-.022c-.356 1.486-.695 2.976-1.058 4.46l-.59 2.407c-.743-3.007-1.484-6.014-2.222-9.022-.46 1.912-.926 3.82-1.394 5.73-.356-1.44-.715-2.88-1.054-4.325zm-5.19 18.28c0 .304.08.558.247.761.375.463 1.05.732 1.607.902.826.255 1.646.477 2.447.811.752.31 1.422.773 1.804 1.508.175.34.263.749.263 1.227 0 1.603-1.074 2.623-2.549 3.042-1.303.372-3.063.28-4.327-.237-.587-.233-1.225-.613-1.575-1.154-.186-.337.076-.81.37-.996.166-.11.33-.099.495.008.088.055.177.11.263.167a5.56 5.56 0 002.999.868c.967 0 2.296-.303 2.296-1.508 0-.335-.086-.61-.253-.824-.386-.486-1.022-.749-1.6-.926-.72-.212-1.439-.43-2.133-.714-.313-.13-.682-.29-.958-.484-.93-.463-1.395-1.243-1.395-2.345 0-1.537 1.102-2.5 2.502-2.891a6.084 6.084 0 011.64-.21c1.378 0 2.7.356 3.691 1.356.194.209.206.483.138.747-.09.316-.332.51-.664.51-.143 0-.304-.076-.481-.23-.964-.672-2.217-.971-3.374-.733-.702.136-1.453.536-1.453 1.344zm10.088 2.732c0 1.444.318 3.15 1.71 3.897.391.21.86.317 1.404.317.544 0 1.01-.107 1.403-.317 1.387-.748 1.716-2.455 1.716-3.897 0-1.452-.324-3.143-1.713-3.9-.393-.213-.862-.32-1.406-.32-.544 0-1.015.107-1.409.32-1.383.76-1.705 2.452-1.705 3.9zm-2.158 0c0-3.323 1.781-5.728 5.272-5.728 3.505 0 5.27 2.393 5.27 5.728 0 3.33-1.77 5.722-5.27 5.722-3.486 0-5.272-2.403-5.272-5.722zm12.632-4.264c0-.335.089-.65.328-.894.364-.374.884-.399 1.338-.172.19.096.364.242.52.442l5.332 7.67V32.64c0-1.149 1.794-1.162 1.794 0v8.873c0 .943-.84 1.485-1.682 1.071a1.558 1.558 0 01-.53-.447l-5.301-7.63v7.357c0 1.124-1.8 1.173-1.8 0v-8.873zm21.08 8.538c.317.883-.775 1.483-1.5 1.032a.77.77 0 01-.33-.492l-.795-2.033h-4.889l-.786 2.033c-.06.23-.17.393-.33.494-.275.177-.576.19-.88.094-.434-.147-.697-.502-.63-.964a.562.562 0 01.049-.164l3.202-7.997c.225-.627.561-1.462 1.263-1.677.347-.1.803-.105 1.148.005.69.207 1.042 1.056 1.26 1.672l3.218 7.997zm-5.08-8.187l-2.015 5.415h4.051l-2.004-5.415h-.032zm5.444-.031c-.455 0-.783-.302-.783-.762 0-.454.33-.777.783-.777h7.21c1.023 0 1.044 1.539 0 1.539h-2.565v8.43c0 .593-.439.991-1.02.991-.582 0-1.024-.399-1.024-.99V33.31h-2.6zm17.604 8.218c.318.882-.774 1.484-1.5 1.032a.77.77 0 01-.33-.492l-.794-2.033H57.43l-.786 2.033c-.06.23-.17.393-.33.494-.475.306-1.16.135-1.435-.356-.1-.186-.12-.482-.026-.678l3.202-7.997c.224-.628.561-1.462 1.263-1.677.347-.1.802-.105 1.148.005.69.206 1.042 1.056 1.26 1.672l3.217 7.997zm-5.079-8.187l-2.015 5.415H61.9l-2.005-5.415h-.03zM42.618 17.18c0 .44-.194.816-.608.995-.51.205-1.018-.037-1.343-.445L35.992 11v6.489c0 .993-1.587 1.03-1.587 0V9.663c0-1.155 1.246-1.427 1.929-.55l4.702 6.763V3.873a11.896 11.896 0 00-7.143-2.367c-6.37 0-11.626 4.997-11.927 11.349l-1.51.035C20.74 5.694 26.677 0 33.892 0c3.2 0 6.27 1.126 8.706 3.193 0 4.658.019 9.312.02 13.986z" fill="#2EAB87"/></svg>