<svg width="503" height="151" viewBox="0 0 503 151" fill="none" xmlns="http://www.w3.org/2000/svg">
<g filter="url(#filter0_i_85_1235)">
<path d="M168.148 44.4609C167.953 45.3724 167.53 46.0885 166.879 46.6094C166.228 47.1302 165.512 47.3906 164.73 47.3906C163.559 47.3906 162.615 47.0326 161.898 46.3164C161.182 45.5352 160.824 44.6562 160.824 43.6797C160.824 42.7031 160.922 41.7591 161.117 40.8477C161.312 39.8711 161.41 38.9271 161.41 38.0156C161.41 33.263 159.945 28.9987 157.016 25.2227C154.086 21.4466 149.919 18.2891 144.516 15.75C139.177 13.1458 132.667 11.1602 124.984 9.79297C117.302 8.42578 108.741 7.74219 99.3008 7.74219C92.0742 7.74219 84.7826 8.23047 77.4258 9.20703C70.1341 10.1185 63.1029 11.4857 56.332 13.3086C49.6263 15.0664 43.3438 17.3125 37.4844 20.0469C31.625 22.7161 26.5143 25.8411 22.1523 29.4219C17.8555 32.9375 14.4701 36.8763 11.9961 41.2383C9.52214 45.5352 8.28516 50.2552 8.28516 55.3984C8.28516 59.3698 9.13151 62.8854 10.8242 65.9453C12.582 68.9401 14.9583 71.5768 17.9531 73.8555C20.9479 76.069 24.4635 77.9896 28.5 79.6172C32.6016 81.1797 37.0286 82.5143 41.7812 83.6211C46.5339 84.6628 51.4818 85.5417 56.625 86.2578C61.7682 86.9089 66.944 87.4622 72.1523 87.918L87.1914 89.1875C94.6784 89.8385 101.384 90.5221 107.309 91.2383C113.233 91.9544 118.441 92.8659 122.934 93.9727C130.421 95.8607 135.954 98.5625 139.535 102.078C143.116 105.594 144.906 110.281 144.906 116.141C144.906 121.805 143.344 126.785 140.219 131.082C137.094 135.379 132.829 138.992 127.426 141.922C122.022 144.852 115.707 147.065 108.48 148.562C101.254 150.06 93.5065 150.809 85.2383 150.809C76.2539 150.809 68.3438 150.19 61.5078 148.953C54.737 147.781 49.0404 146.479 44.418 145.047C39.8607 143.549 36.3776 142.182 33.9688 140.945C31.5599 139.708 30.2578 139.025 30.0625 138.895C28.8906 138.243 28.3047 137.202 28.3047 135.77C28.3047 134.663 28.6953 133.784 29.4766 133.133C30.2578 132.417 31.1042 132.059 32.0156 132.059C32.7318 132.059 33.3828 132.254 33.9688 132.645C34.0339 132.645 35.1406 133.23 37.2891 134.402C39.5026 135.509 42.7578 136.746 47.0547 138.113C51.4167 139.48 56.7878 140.717 63.168 141.824C69.5482 142.931 76.9701 143.484 85.4336 143.484C93.832 143.484 101.254 142.801 107.699 141.434C114.145 140.066 119.548 138.178 123.91 135.77C128.337 133.296 131.658 130.431 133.871 127.176C136.15 123.855 137.289 120.275 137.289 116.434C137.289 114.155 136.866 112.202 136.02 110.574C135.238 108.882 134.132 107.449 132.699 106.277C131.267 105.04 129.542 103.999 127.523 103.152C125.57 102.306 123.422 101.59 121.078 101.004C118.604 100.353 115.935 99.7995 113.07 99.3438C110.271 98.888 107.374 98.4974 104.379 98.1719C101.384 97.8464 98.3568 97.5534 95.2969 97.293C92.3021 97.0326 89.3398 96.7721 86.4102 96.5117L71.3711 95.2422C59.5221 94.2656 49.1706 92.7682 40.3164 90.75C31.5273 88.6667 24.2031 86.0299 18.3438 82.8398C12.4844 79.5846 8.08984 75.7109 5.16016 71.2188C2.23047 66.7266 0.765625 61.4857 0.765625 55.4961C0.765625 49.3763 2.13281 43.7773 4.86719 38.6992C7.66667 33.556 11.4427 28.9336 16.1953 24.832C21.013 20.7305 26.612 17.1823 32.9922 14.1875C39.4375 11.1276 46.306 8.58854 53.5977 6.57031C60.8893 4.55208 68.4414 3.05469 76.2539 2.07812C84.0664 1.03646 91.7487 0.515625 99.3008 0.515625C108.741 0.515625 116.944 1.10156 123.91 2.27344C130.941 3.38021 136.931 4.84505 141.879 6.66797C146.892 8.42578 150.993 10.444 154.184 12.7227C157.374 15.0013 159.945 17.2474 161.898 19.4609C166.521 24.8646 168.832 31.0169 168.832 37.918C168.832 40.1966 168.604 42.3776 168.148 44.4609ZM203.988 136.258C202.361 136.258 200.928 136.128 199.691 135.867C198.715 137.82 197.543 139.643 196.176 141.336C194.809 142.964 193.214 144.396 191.391 145.633C189.633 146.87 187.647 147.846 185.434 148.562C183.22 149.279 180.811 149.637 178.207 149.637C175.147 149.637 172.348 149.083 169.809 147.977C167.27 146.935 165.056 145.47 163.168 143.582C161.28 141.629 159.815 139.318 158.773 136.648C157.732 133.914 157.211 130.919 157.211 127.664C157.211 123.497 157.96 119.884 159.457 116.824C160.954 113.699 162.68 111.128 164.633 109.109C166.586 107.026 168.539 105.496 170.492 104.52C172.445 103.478 173.91 102.957 174.887 102.957C175.993 102.957 176.807 103.25 177.328 103.836C177.914 104.422 178.207 105.203 178.207 106.18C178.207 107.286 177.849 108.133 177.133 108.719C176.482 109.24 175.635 109.76 174.594 110.281C173.552 110.802 172.445 111.551 171.273 112.527C170.102 113.439 168.995 114.611 167.953 116.043C166.977 117.475 166.163 119.168 165.512 121.121C164.861 123.074 164.535 125.255 164.535 127.664C164.535 129.812 164.861 131.831 165.512 133.719C166.163 135.542 167.107 137.137 168.344 138.504C169.581 139.806 171.046 140.848 172.738 141.629C174.431 142.345 176.319 142.703 178.402 142.703C182.113 142.703 185.173 141.857 187.582 140.164C190.056 138.406 191.944 136.193 193.246 133.523C189.405 131.505 186.247 128.641 183.773 124.93C181.299 121.219 180.062 117.052 180.062 112.43C180.062 108.719 180.941 105.691 182.699 103.348C184.522 101.004 186.898 99.832 189.828 99.832C191.586 99.832 193.246 100.255 194.809 101.102C196.371 101.948 197.738 103.283 198.91 105.105C200.147 106.928 201.124 109.272 201.84 112.137C202.556 115.001 202.914 118.419 202.914 122.391C202.914 124.474 202.654 126.655 202.133 128.934C202.523 128.999 202.914 129.031 203.305 129.031C203.695 129.031 204.118 129.031 204.574 129.031C206.788 129.031 208.773 128.771 210.531 128.25C212.289 127.729 213.884 126.948 215.316 125.906C216.749 124.865 218.018 123.53 219.125 121.902C220.297 120.275 221.404 118.387 222.445 116.238C222.641 115.848 223.064 115.49 223.715 115.164C224.366 114.773 225.017 114.578 225.668 114.578C226.514 114.578 227.296 114.936 228.012 115.652C228.793 116.303 229.184 117.182 229.184 118.289C229.184 118.81 229.053 119.396 228.793 120.047C228.533 120.633 228.272 121.186 228.012 121.707C226.905 123.66 225.603 125.548 224.105 127.371C222.673 129.129 220.948 130.691 218.93 132.059C216.977 133.361 214.763 134.402 212.289 135.184C209.815 135.965 207.048 136.323 203.988 136.258ZM187.289 111.648C187.289 112.885 187.452 114.188 187.777 115.555C188.103 116.922 188.591 118.289 189.242 119.656C189.958 120.958 190.805 122.228 191.781 123.465C192.823 124.637 194.027 125.646 195.395 126.492C195.59 125.125 195.688 123.79 195.688 122.488C195.688 120.73 195.557 118.94 195.297 117.117C195.036 115.294 194.646 113.634 194.125 112.137C193.669 110.574 193.083 109.337 192.367 108.426C191.651 107.449 190.805 106.961 189.828 106.961C189.438 106.961 188.917 107.254 188.266 107.84C187.615 108.426 187.289 109.695 187.289 111.648ZM243.93 138.211C244.971 136.062 246.176 133.719 247.543 131.18C248.91 128.576 250.375 125.971 251.938 123.367C253.5 120.698 255.128 118.061 256.82 115.457C258.578 112.853 260.401 110.379 262.289 108.035C264.177 105.757 266.065 104.129 267.953 103.152C269.906 102.111 271.729 101.59 273.422 101.59C276.807 101.59 279.314 102.827 280.941 105.301C282.569 107.775 283.383 110.835 283.383 114.48C283.383 115.327 283.318 116.368 283.188 117.605C283.122 118.777 283.025 120.047 282.895 121.414C282.829 122.781 282.732 124.181 282.602 125.613C282.536 126.98 282.504 128.283 282.504 129.52C282.504 131.082 282.569 132.579 282.699 134.012C282.895 135.444 283.22 136.714 283.676 137.82C284.132 138.862 284.783 139.708 285.629 140.359C286.475 140.945 287.582 141.238 288.949 141.238C291.423 141.238 293.832 140.294 296.176 138.406C298.52 136.453 300.668 134.174 302.621 131.57C304.639 128.901 306.365 126.199 307.797 123.465C309.294 120.73 310.401 118.517 311.117 116.824C311.443 116.108 311.898 115.555 312.484 115.164C313.135 114.773 313.819 114.578 314.535 114.578C315.642 114.578 316.521 115.001 317.172 115.848C317.888 116.629 318.246 117.475 318.246 118.387C318.246 118.842 318.148 119.298 317.953 119.754C317.693 120.275 317.172 121.349 316.391 122.977C315.609 124.604 314.568 126.492 313.266 128.641C312.029 130.724 310.564 132.97 308.871 135.379C307.178 137.723 305.29 139.871 303.207 141.824C301.189 143.777 298.975 145.405 296.566 146.707C294.223 148.009 291.749 148.66 289.145 148.66C286.215 148.66 283.839 148.107 282.016 147C280.193 145.828 278.76 144.331 277.719 142.508C276.677 140.62 275.961 138.569 275.57 136.355C275.245 134.077 275.082 131.798 275.082 129.52C275.082 128.543 275.115 127.436 275.18 126.199C275.31 124.962 275.44 123.66 275.57 122.293C275.766 120.926 275.896 119.559 275.961 118.191C276.091 116.824 276.156 115.522 276.156 114.285C276.156 112.202 275.831 110.802 275.18 110.086C274.529 109.305 273.943 108.914 273.422 108.914C272.38 108.914 271.176 109.533 269.809 110.77C268.507 111.941 267.107 113.504 265.609 115.457C264.177 117.41 262.68 119.624 261.117 122.098C259.62 124.507 258.188 126.915 256.82 129.324C255.518 131.733 254.281 134.044 253.109 136.258C252.003 138.406 251.124 140.197 250.473 141.629C249.171 144.363 247.868 146.186 246.566 147.098C245.264 148.074 243.93 148.562 242.562 148.562C240.674 148.562 239.145 148.009 237.973 146.902C236.866 145.73 236.312 144.103 236.312 142.02C236.312 141.564 236.378 140.685 236.508 139.383C236.638 138.016 236.801 136.421 236.996 134.598C237.191 132.71 237.387 130.691 237.582 128.543C237.777 126.395 237.973 124.279 238.168 122.195C238.363 120.047 238.526 118.061 238.656 116.238C238.786 114.415 238.852 112.885 238.852 111.648C238.852 110.021 238.786 108.458 238.656 106.961C238.526 105.464 238.266 104.552 237.875 104.227C237.289 104.422 236.247 105.659 234.75 107.938C233.253 110.151 231.332 114.09 228.988 119.754C228.663 120.47 228.174 121.023 227.523 121.414C226.872 121.805 226.189 122 225.473 122C224.366 122 223.487 121.642 222.836 120.926C222.185 120.145 221.859 119.266 221.859 118.289C221.859 117.833 221.957 117.345 222.152 116.824C225.082 109.858 227.816 104.747 230.355 101.492C232.96 98.1719 235.531 96.5117 238.07 96.5117C239.568 96.5117 240.837 96.9023 241.879 97.6836C242.921 98.3997 243.734 99.3763 244.32 100.613C244.971 101.85 245.427 103.217 245.688 104.715C246.013 106.212 246.176 107.742 246.176 109.305C246.176 110.477 246.078 112.299 245.883 114.773C245.753 117.247 245.557 119.917 245.297 122.781C245.036 125.581 244.776 128.38 244.516 131.18C244.32 133.979 244.125 136.323 243.93 138.211ZM386.801 119.754C386.54 120.275 385.987 121.382 385.141 123.074C384.359 124.702 383.318 126.59 382.016 128.738C380.779 130.887 379.314 133.133 377.621 135.477C375.928 137.82 374.04 139.969 371.957 141.922C369.874 143.875 367.628 145.503 365.219 146.805C362.81 148.042 360.271 148.66 357.602 148.66C353.826 148.66 350.635 147.456 348.031 145.047C345.492 142.638 343.637 139.611 342.465 135.965C340.251 139.676 337.615 142.638 334.555 144.852C331.495 147 328.435 148.074 325.375 148.074C322.966 148.074 320.785 147.651 318.832 146.805C316.879 145.893 315.219 144.656 313.852 143.094C312.484 141.466 311.41 139.578 310.629 137.43C309.913 135.281 309.555 132.938 309.555 130.398C309.555 125.32 310.401 120.861 312.094 117.02C313.852 113.113 316.065 109.858 318.734 107.254C321.404 104.65 324.333 102.697 327.523 101.395C330.779 100.092 333.904 99.4414 336.898 99.4414C338.917 99.4414 340.772 99.7344 342.465 100.32C344.158 100.841 345.59 101.427 346.762 102.078C347.999 102.729 348.943 103.348 349.594 103.934C350.245 104.454 350.603 104.747 350.668 104.812C351.384 105.659 351.742 106.538 351.742 107.449C351.742 108.426 351.384 109.305 350.668 110.086C349.952 110.802 349.105 111.16 348.129 111.16C347.087 111.16 346.208 110.802 345.492 110.086C345.362 109.956 345.069 109.728 344.613 109.402C344.158 109.012 343.539 108.621 342.758 108.23C341.977 107.84 341.033 107.514 339.926 107.254C338.884 106.928 337.68 106.766 336.312 106.766C334.294 106.766 332.146 107.221 329.867 108.133C327.589 109.044 325.505 110.477 323.617 112.43C321.729 114.318 320.134 116.727 318.832 119.656C317.595 122.521 316.977 125.939 316.977 129.91C316.977 131.147 317.107 132.417 317.367 133.719C317.628 134.956 318.083 136.095 318.734 137.137C319.385 138.178 320.264 139.025 321.371 139.676C322.478 140.327 323.845 140.652 325.473 140.652C326.645 140.652 327.979 140.262 329.477 139.48C331.039 138.699 332.504 137.495 333.871 135.867C335.303 134.24 336.573 132.189 337.68 129.715C338.852 127.241 339.665 124.311 340.121 120.926C340.251 120.014 340.674 119.266 341.391 118.68C342.107 118.029 342.953 117.703 343.93 117.703C344.841 117.703 345.622 118.061 346.273 118.777C346.99 119.493 347.38 120.307 347.445 121.219C347.51 122.456 347.641 124.214 347.836 126.492C348.031 128.706 348.454 130.919 349.105 133.133C349.822 135.346 350.863 137.267 352.23 138.895C353.598 140.522 355.486 141.336 357.895 141.336C359.457 141.336 360.987 140.913 362.484 140.066C364.047 139.22 365.544 138.113 366.977 136.746C368.474 135.314 369.874 133.719 371.176 131.961C372.543 130.138 373.78 128.315 374.887 126.492C375.993 124.669 376.97 122.911 377.816 121.219C378.663 119.526 379.379 118.061 379.965 116.824C380.29 116.108 380.746 115.555 381.332 115.164C381.983 114.773 382.667 114.578 383.383 114.578C384.49 114.578 385.368 115.001 386.02 115.848C386.736 116.629 387.094 117.475 387.094 118.387C387.094 118.842 386.996 119.298 386.801 119.754ZM459.164 49.2461C459.164 50.2878 458.806 51.1341 458.09 51.7852C457.374 52.3711 456.495 52.6641 455.453 52.6641H405.941V53.7383C405.941 57.7096 405.648 61.9414 405.062 66.4336C404.477 70.9258 403.663 75.418 402.621 79.9102C401.645 84.3372 400.505 88.6667 399.203 92.8984C397.966 97.1302 396.664 101.036 395.297 104.617C393.995 108.198 392.693 111.323 391.391 113.992C390.089 116.596 388.917 118.549 387.875 119.852C388.721 122.846 389.73 125.646 390.902 128.25C392.074 130.789 393.376 133.035 394.809 134.988C396.306 136.876 397.901 138.374 399.594 139.48C401.286 140.587 403.109 141.141 405.062 141.141C407.341 141.141 409.587 140.197 411.801 138.309C414.079 136.355 416.163 134.077 418.051 131.473C420.004 128.803 421.697 126.134 423.129 123.465C424.626 120.73 425.701 118.549 426.352 116.922C427.003 115.359 428.142 114.578 429.77 114.578C430.876 114.578 431.755 114.969 432.406 115.75C433.122 116.531 433.48 117.378 433.48 118.289C433.48 118.745 433.383 119.201 433.188 119.656C432.992 120.112 432.504 121.154 431.723 122.781C431.007 124.409 430.03 126.297 428.793 128.445C427.621 130.594 426.221 132.872 424.594 135.281C423.031 137.625 421.241 139.773 419.223 141.727C417.27 143.68 415.154 145.307 412.875 146.609C410.596 147.911 408.188 148.562 405.648 148.562C401.156 148.562 397.12 147.098 393.539 144.168C389.958 141.238 386.898 137.137 384.359 131.863C381.885 126.59 379.997 120.34 378.695 113.113C377.393 105.887 376.742 97.9766 376.742 89.3828C376.742 87.2344 376.775 84.7279 376.84 81.8633C376.905 78.9336 377.035 75.8737 377.23 72.6836C377.426 69.4284 377.719 66.1081 378.109 62.7227C378.5 59.2721 379.021 55.9193 379.672 52.6641H344.613C343.572 52.6641 342.693 52.3711 341.977 51.7852C341.26 51.1341 340.902 50.2878 340.902 49.2461C340.902 48.2044 341.26 47.3906 341.977 46.8047C342.693 46.1536 343.572 45.8281 344.613 45.8281H381.332C381.983 43.4844 382.732 41.3359 383.578 39.3828C384.49 37.4297 385.499 35.737 386.605 34.3047C387.777 32.8724 389.047 31.7656 390.414 30.9844C391.846 30.138 393.409 29.7148 395.102 29.7148C396.729 29.7148 398.129 30.138 399.301 30.9844C400.538 31.7656 401.579 32.8724 402.426 34.3047C403.272 35.737 403.923 37.4297 404.379 39.3828C404.9 41.3359 405.29 43.4844 405.551 45.8281H455.453C456.495 45.8281 457.374 46.1536 458.09 46.8047C458.806 47.3906 459.164 48.2044 459.164 49.2461ZM385.629 110.086C387.582 105.789 389.34 101.167 390.902 96.2188C392.53 91.2057 393.897 86.1602 395.004 81.082C396.176 76.0039 397.055 71.0234 397.641 66.1406C398.292 61.2578 398.617 56.7656 398.617 52.6641H387.094C386.182 56.7005 385.434 61.7135 384.848 67.7031C384.327 73.6276 384.066 80.8542 384.066 89.3828C384.066 94.1354 384.197 98.1393 384.457 101.395C384.717 104.585 385.108 107.482 385.629 110.086ZM394.711 37.0391C394.125 37.0391 393.279 37.6901 392.172 38.9922C391.065 40.2292 389.958 42.5078 388.852 45.8281H398.227C397.901 43.0938 397.413 40.9453 396.762 39.3828C396.176 37.8203 395.492 37.0391 394.711 37.0391ZM387.191 117.117V117.215V117.117ZM502.23 119.754C501.97 120.275 501.417 121.382 500.57 123.074C499.789 124.702 498.747 126.59 497.445 128.738C496.208 130.887 494.743 133.133 493.051 135.477C491.358 137.82 489.47 139.969 487.387 141.922C485.303 143.875 483.057 145.503 480.648 146.805C478.24 148.042 475.701 148.66 473.031 148.66C469.255 148.66 466.065 147.456 463.461 145.047C460.922 142.638 459.066 139.611 457.895 135.965C455.681 139.676 453.044 142.638 449.984 144.852C446.924 147 443.865 148.074 440.805 148.074C438.396 148.074 436.215 147.651 434.262 146.805C432.309 145.893 430.648 144.656 429.281 143.094C427.914 141.466 426.84 139.578 426.059 137.43C425.342 135.281 424.984 132.938 424.984 130.398C424.984 125.32 425.831 120.861 427.523 117.02C429.281 113.113 431.495 109.858 434.164 107.254C436.833 104.65 439.763 102.697 442.953 101.395C446.208 100.092 449.333 99.4414 452.328 99.4414C454.346 99.4414 456.202 99.7344 457.895 100.32C459.587 100.841 461.02 101.427 462.191 102.078C463.428 102.729 464.372 103.348 465.023 103.934C465.674 104.454 466.033 104.747 466.098 104.812C466.814 105.659 467.172 106.538 467.172 107.449C467.172 108.426 466.814 109.305 466.098 110.086C465.382 110.802 464.535 111.16 463.559 111.16C462.517 111.16 461.638 110.802 460.922 110.086C460.792 109.956 460.499 109.728 460.043 109.402C459.587 109.012 458.969 108.621 458.188 108.23C457.406 107.84 456.462 107.514 455.355 107.254C454.314 106.928 453.109 106.766 451.742 106.766C449.724 106.766 447.576 107.221 445.297 108.133C443.018 109.044 440.935 110.477 439.047 112.43C437.159 114.318 435.564 116.727 434.262 119.656C433.025 122.521 432.406 125.939 432.406 129.91C432.406 131.147 432.536 132.417 432.797 133.719C433.057 134.956 433.513 136.095 434.164 137.137C434.815 138.178 435.694 139.025 436.801 139.676C437.908 140.327 439.275 140.652 440.902 140.652C442.074 140.652 443.409 140.262 444.906 139.48C446.469 138.699 447.934 137.495 449.301 135.867C450.733 134.24 452.003 132.189 453.109 129.715C454.281 127.241 455.095 124.311 455.551 120.926C455.681 120.014 456.104 119.266 456.82 118.68C457.536 118.029 458.383 117.703 459.359 117.703C460.271 117.703 461.052 118.061 461.703 118.777C462.419 119.493 462.81 120.307 462.875 121.219C462.94 122.456 463.07 124.214 463.266 126.492C463.461 128.706 463.884 130.919 464.535 133.133C465.251 135.346 466.293 137.267 467.66 138.895C469.027 140.522 470.915 141.336 473.324 141.336C474.887 141.336 476.417 140.913 477.914 140.066C479.477 139.22 480.974 138.113 482.406 136.746C483.904 135.314 485.303 133.719 486.605 131.961C487.973 130.138 489.21 128.315 490.316 126.492C491.423 124.669 492.4 122.911 493.246 121.219C494.092 119.526 494.809 118.061 495.395 116.824C495.72 116.108 496.176 115.555 496.762 115.164C497.413 114.773 498.096 114.578 498.812 114.578C499.919 114.578 500.798 115.001 501.449 115.848C502.165 116.629 502.523 117.475 502.523 118.387C502.523 118.842 502.426 119.298 502.23 119.754Z" fill="#A2EED8"/>
</g>
<defs>
<filter id="filter0_i_85_1235" x="-1.23438" y="-2.48438" width="503.758" height="153.293" filterUnits="userSpaceOnUse" color-interpolation-filters="sRGB">
<feFlood flood-opacity="0" result="BackgroundImageFix"/>
<feBlend mode="normal" in="SourceGraphic" in2="BackgroundImageFix" result="shape"/>
<feColorMatrix in="SourceAlpha" type="matrix" values="0 0 0 0 0 0 0 0 0 0 0 0 0 0 0 0 0 0 127 0" result="hardAlpha"/>
<feOffset dx="-2" dy="-3"/>
<feGaussianBlur stdDeviation="2"/>
<feComposite in2="hardAlpha" operator="arithmetic" k2="-1" k3="1"/>
<feColorMatrix type="matrix" values="0 0 0 0 0.0392157 0 0 0 0 0.45098 0 0 0 0 0.356863 0 0 0 0.4 0"/>
<feBlend mode="normal" in2="shape" result="effect1_innerShadow_85_1235"/>
</filter>
</defs>
</svg>
