<svg width="1303" height="1046" viewBox="0 0 1303 1046" fill="none" xmlns="http://www.w3.org/2000/svg">
<g filter="url(#filter0_dddddd_85_1232)">
<path d="M282.148 253.461C281.953 254.372 281.53 255.089 280.879 255.609C280.228 256.13 279.512 256.391 278.73 256.391C277.559 256.391 276.615 256.033 275.898 255.316C275.182 254.535 274.824 253.656 274.824 252.68C274.824 251.703 274.922 250.759 275.117 249.848C275.312 248.871 275.41 247.927 275.41 247.016C275.41 242.263 273.945 237.999 271.016 234.223C268.086 230.447 263.919 227.289 258.516 224.75C253.177 222.146 246.667 220.16 238.984 218.793C231.302 217.426 222.741 216.742 213.301 216.742C206.074 216.742 198.783 217.23 191.426 218.207C184.134 219.118 177.103 220.486 170.332 222.309C163.626 224.066 157.344 226.312 151.484 229.047C145.625 231.716 140.514 234.841 136.152 238.422C131.855 241.938 128.47 245.876 125.996 250.238C123.522 254.535 122.285 259.255 122.285 264.398C122.285 268.37 123.132 271.885 124.824 274.945C126.582 277.94 128.958 280.577 131.953 282.855C134.948 285.069 138.464 286.99 142.5 288.617C146.602 290.18 151.029 291.514 155.781 292.621C160.534 293.663 165.482 294.542 170.625 295.258C175.768 295.909 180.944 296.462 186.152 296.918L201.191 298.188C208.678 298.839 215.384 299.522 221.309 300.238C227.233 300.954 232.441 301.866 236.934 302.973C244.421 304.861 249.954 307.562 253.535 311.078C257.116 314.594 258.906 319.281 258.906 325.141C258.906 330.805 257.344 335.785 254.219 340.082C251.094 344.379 246.829 347.992 241.426 350.922C236.022 353.852 229.707 356.065 222.48 357.562C215.254 359.06 207.507 359.809 199.238 359.809C190.254 359.809 182.344 359.19 175.508 357.953C168.737 356.781 163.04 355.479 158.418 354.047C153.861 352.549 150.378 351.182 147.969 349.945C145.56 348.708 144.258 348.025 144.062 347.895C142.891 347.243 142.305 346.202 142.305 344.77C142.305 343.663 142.695 342.784 143.477 342.133C144.258 341.417 145.104 341.059 146.016 341.059C146.732 341.059 147.383 341.254 147.969 341.645C148.034 341.645 149.141 342.23 151.289 343.402C153.503 344.509 156.758 345.746 161.055 347.113C165.417 348.48 170.788 349.717 177.168 350.824C183.548 351.931 190.97 352.484 199.434 352.484C207.832 352.484 215.254 351.801 221.699 350.434C228.145 349.066 233.548 347.178 237.91 344.77C242.337 342.296 245.658 339.431 247.871 336.176C250.15 332.855 251.289 329.275 251.289 325.434C251.289 323.155 250.866 321.202 250.02 319.574C249.238 317.882 248.132 316.449 246.699 315.277C245.267 314.04 243.542 312.999 241.523 312.152C239.57 311.306 237.422 310.59 235.078 310.004C232.604 309.353 229.935 308.799 227.07 308.344C224.271 307.888 221.374 307.497 218.379 307.172C215.384 306.846 212.357 306.553 209.297 306.293C206.302 306.033 203.34 305.772 200.41 305.512L185.371 304.242C173.522 303.266 163.171 301.768 154.316 299.75C145.527 297.667 138.203 295.03 132.344 291.84C126.484 288.585 122.09 284.711 119.16 280.219C116.23 275.727 114.766 270.486 114.766 264.496C114.766 258.376 116.133 252.777 118.867 247.699C121.667 242.556 125.443 237.934 130.195 233.832C135.013 229.73 140.612 226.182 146.992 223.188C153.438 220.128 160.306 217.589 167.598 215.57C174.889 213.552 182.441 212.055 190.254 211.078C198.066 210.036 205.749 209.516 213.301 209.516C222.741 209.516 230.944 210.102 237.91 211.273C244.941 212.38 250.931 213.845 255.879 215.668C260.892 217.426 264.993 219.444 268.184 221.723C271.374 224.001 273.945 226.247 275.898 228.461C280.521 233.865 282.832 240.017 282.832 246.918C282.832 249.197 282.604 251.378 282.148 253.461ZM317.988 345.258C316.361 345.258 314.928 345.128 313.691 344.867C312.715 346.82 311.543 348.643 310.176 350.336C308.809 351.964 307.214 353.396 305.391 354.633C303.633 355.87 301.647 356.846 299.434 357.562C297.22 358.279 294.811 358.637 292.207 358.637C289.147 358.637 286.348 358.083 283.809 356.977C281.27 355.935 279.056 354.47 277.168 352.582C275.28 350.629 273.815 348.318 272.773 345.648C271.732 342.914 271.211 339.919 271.211 336.664C271.211 332.497 271.96 328.884 273.457 325.824C274.954 322.699 276.68 320.128 278.633 318.109C280.586 316.026 282.539 314.496 284.492 313.52C286.445 312.478 287.91 311.957 288.887 311.957C289.993 311.957 290.807 312.25 291.328 312.836C291.914 313.422 292.207 314.203 292.207 315.18C292.207 316.286 291.849 317.133 291.133 317.719C290.482 318.24 289.635 318.76 288.594 319.281C287.552 319.802 286.445 320.551 285.273 321.527C284.102 322.439 282.995 323.611 281.953 325.043C280.977 326.475 280.163 328.168 279.512 330.121C278.861 332.074 278.535 334.255 278.535 336.664C278.535 338.812 278.861 340.831 279.512 342.719C280.163 344.542 281.107 346.137 282.344 347.504C283.581 348.806 285.046 349.848 286.738 350.629C288.431 351.345 290.319 351.703 292.402 351.703C296.113 351.703 299.173 350.857 301.582 349.164C304.056 347.406 305.944 345.193 307.246 342.523C303.405 340.505 300.247 337.641 297.773 333.93C295.299 330.219 294.062 326.052 294.062 321.43C294.062 317.719 294.941 314.691 296.699 312.348C298.522 310.004 300.898 308.832 303.828 308.832C305.586 308.832 307.246 309.255 308.809 310.102C310.371 310.948 311.738 312.283 312.91 314.105C314.147 315.928 315.124 318.272 315.84 321.137C316.556 324.001 316.914 327.419 316.914 331.391C316.914 333.474 316.654 335.655 316.133 337.934C316.523 337.999 316.914 338.031 317.305 338.031C317.695 338.031 318.118 338.031 318.574 338.031C320.788 338.031 322.773 337.771 324.531 337.25C326.289 336.729 327.884 335.948 329.316 334.906C330.749 333.865 332.018 332.53 333.125 330.902C334.297 329.275 335.404 327.387 336.445 325.238C336.641 324.848 337.064 324.49 337.715 324.164C338.366 323.773 339.017 323.578 339.668 323.578C340.514 323.578 341.296 323.936 342.012 324.652C342.793 325.303 343.184 326.182 343.184 327.289C343.184 327.81 343.053 328.396 342.793 329.047C342.533 329.633 342.272 330.186 342.012 330.707C340.905 332.66 339.603 334.548 338.105 336.371C336.673 338.129 334.948 339.691 332.93 341.059C330.977 342.361 328.763 343.402 326.289 344.184C323.815 344.965 321.048 345.323 317.988 345.258ZM301.289 320.648C301.289 321.885 301.452 323.188 301.777 324.555C302.103 325.922 302.591 327.289 303.242 328.656C303.958 329.958 304.805 331.228 305.781 332.465C306.823 333.637 308.027 334.646 309.395 335.492C309.59 334.125 309.688 332.79 309.688 331.488C309.688 329.73 309.557 327.94 309.297 326.117C309.036 324.294 308.646 322.634 308.125 321.137C307.669 319.574 307.083 318.337 306.367 317.426C305.651 316.449 304.805 315.961 303.828 315.961C303.438 315.961 302.917 316.254 302.266 316.84C301.615 317.426 301.289 318.695 301.289 320.648ZM357.93 347.211C358.971 345.062 360.176 342.719 361.543 340.18C362.91 337.576 364.375 334.971 365.938 332.367C367.5 329.698 369.128 327.061 370.82 324.457C372.578 321.853 374.401 319.379 376.289 317.035C378.177 314.757 380.065 313.129 381.953 312.152C383.906 311.111 385.729 310.59 387.422 310.59C390.807 310.59 393.314 311.827 394.941 314.301C396.569 316.775 397.383 319.835 397.383 323.48C397.383 324.327 397.318 325.368 397.188 326.605C397.122 327.777 397.025 329.047 396.895 330.414C396.829 331.781 396.732 333.181 396.602 334.613C396.536 335.98 396.504 337.283 396.504 338.52C396.504 340.082 396.569 341.579 396.699 343.012C396.895 344.444 397.22 345.714 397.676 346.82C398.132 347.862 398.783 348.708 399.629 349.359C400.475 349.945 401.582 350.238 402.949 350.238C405.423 350.238 407.832 349.294 410.176 347.406C412.52 345.453 414.668 343.174 416.621 340.57C418.639 337.901 420.365 335.199 421.797 332.465C423.294 329.73 424.401 327.517 425.117 325.824C425.443 325.108 425.898 324.555 426.484 324.164C427.135 323.773 427.819 323.578 428.535 323.578C429.642 323.578 430.521 324.001 431.172 324.848C431.888 325.629 432.246 326.475 432.246 327.387C432.246 327.842 432.148 328.298 431.953 328.754C431.693 329.275 431.172 330.349 430.391 331.977C429.609 333.604 428.568 335.492 427.266 337.641C426.029 339.724 424.564 341.97 422.871 344.379C421.178 346.723 419.29 348.871 417.207 350.824C415.189 352.777 412.975 354.405 410.566 355.707C408.223 357.009 405.749 357.66 403.145 357.66C400.215 357.66 397.839 357.107 396.016 356C394.193 354.828 392.76 353.331 391.719 351.508C390.677 349.62 389.961 347.569 389.57 345.355C389.245 343.077 389.082 340.798 389.082 338.52C389.082 337.543 389.115 336.436 389.18 335.199C389.31 333.962 389.44 332.66 389.57 331.293C389.766 329.926 389.896 328.559 389.961 327.191C390.091 325.824 390.156 324.522 390.156 323.285C390.156 321.202 389.831 319.802 389.18 319.086C388.529 318.305 387.943 317.914 387.422 317.914C386.38 317.914 385.176 318.533 383.809 319.77C382.507 320.941 381.107 322.504 379.609 324.457C378.177 326.41 376.68 328.624 375.117 331.098C373.62 333.507 372.188 335.915 370.82 338.324C369.518 340.733 368.281 343.044 367.109 345.258C366.003 347.406 365.124 349.197 364.473 350.629C363.171 353.363 361.868 355.186 360.566 356.098C359.264 357.074 357.93 357.562 356.562 357.562C354.674 357.562 353.145 357.009 351.973 355.902C350.866 354.73 350.312 353.103 350.312 351.02C350.312 350.564 350.378 349.685 350.508 348.383C350.638 347.016 350.801 345.421 350.996 343.598C351.191 341.71 351.387 339.691 351.582 337.543C351.777 335.395 351.973 333.279 352.168 331.195C352.363 329.047 352.526 327.061 352.656 325.238C352.786 323.415 352.852 321.885 352.852 320.648C352.852 319.021 352.786 317.458 352.656 315.961C352.526 314.464 352.266 313.552 351.875 313.227C351.289 313.422 350.247 314.659 348.75 316.938C347.253 319.151 345.332 323.09 342.988 328.754C342.663 329.47 342.174 330.023 341.523 330.414C340.872 330.805 340.189 331 339.473 331C338.366 331 337.487 330.642 336.836 329.926C336.185 329.145 335.859 328.266 335.859 327.289C335.859 326.833 335.957 326.345 336.152 325.824C339.082 318.858 341.816 313.747 344.355 310.492C346.96 307.172 349.531 305.512 352.07 305.512C353.568 305.512 354.837 305.902 355.879 306.684C356.921 307.4 357.734 308.376 358.32 309.613C358.971 310.85 359.427 312.217 359.688 313.715C360.013 315.212 360.176 316.742 360.176 318.305C360.176 319.477 360.078 321.299 359.883 323.773C359.753 326.247 359.557 328.917 359.297 331.781C359.036 334.581 358.776 337.38 358.516 340.18C358.32 342.979 358.125 345.323 357.93 347.211ZM500.801 328.754C500.54 329.275 499.987 330.382 499.141 332.074C498.359 333.702 497.318 335.59 496.016 337.738C494.779 339.887 493.314 342.133 491.621 344.477C489.928 346.82 488.04 348.969 485.957 350.922C483.874 352.875 481.628 354.503 479.219 355.805C476.81 357.042 474.271 357.66 471.602 357.66C467.826 357.66 464.635 356.456 462.031 354.047C459.492 351.638 457.637 348.611 456.465 344.965C454.251 348.676 451.615 351.638 448.555 353.852C445.495 356 442.435 357.074 439.375 357.074C436.966 357.074 434.785 356.651 432.832 355.805C430.879 354.893 429.219 353.656 427.852 352.094C426.484 350.466 425.41 348.578 424.629 346.43C423.913 344.281 423.555 341.938 423.555 339.398C423.555 334.32 424.401 329.861 426.094 326.02C427.852 322.113 430.065 318.858 432.734 316.254C435.404 313.65 438.333 311.697 441.523 310.395C444.779 309.092 447.904 308.441 450.898 308.441C452.917 308.441 454.772 308.734 456.465 309.32C458.158 309.841 459.59 310.427 460.762 311.078C461.999 311.729 462.943 312.348 463.594 312.934C464.245 313.454 464.603 313.747 464.668 313.812C465.384 314.659 465.742 315.538 465.742 316.449C465.742 317.426 465.384 318.305 464.668 319.086C463.952 319.802 463.105 320.16 462.129 320.16C461.087 320.16 460.208 319.802 459.492 319.086C459.362 318.956 459.069 318.728 458.613 318.402C458.158 318.012 457.539 317.621 456.758 317.23C455.977 316.84 455.033 316.514 453.926 316.254C452.884 315.928 451.68 315.766 450.312 315.766C448.294 315.766 446.146 316.221 443.867 317.133C441.589 318.044 439.505 319.477 437.617 321.43C435.729 323.318 434.134 325.727 432.832 328.656C431.595 331.521 430.977 334.939 430.977 338.91C430.977 340.147 431.107 341.417 431.367 342.719C431.628 343.956 432.083 345.095 432.734 346.137C433.385 347.178 434.264 348.025 435.371 348.676C436.478 349.327 437.845 349.652 439.473 349.652C440.645 349.652 441.979 349.262 443.477 348.48C445.039 347.699 446.504 346.495 447.871 344.867C449.303 343.24 450.573 341.189 451.68 338.715C452.852 336.241 453.665 333.311 454.121 329.926C454.251 329.014 454.674 328.266 455.391 327.68C456.107 327.029 456.953 326.703 457.93 326.703C458.841 326.703 459.622 327.061 460.273 327.777C460.99 328.493 461.38 329.307 461.445 330.219C461.51 331.456 461.641 333.214 461.836 335.492C462.031 337.706 462.454 339.919 463.105 342.133C463.822 344.346 464.863 346.267 466.23 347.895C467.598 349.522 469.486 350.336 471.895 350.336C473.457 350.336 474.987 349.913 476.484 349.066C478.047 348.22 479.544 347.113 480.977 345.746C482.474 344.314 483.874 342.719 485.176 340.961C486.543 339.138 487.78 337.315 488.887 335.492C489.993 333.669 490.97 331.911 491.816 330.219C492.663 328.526 493.379 327.061 493.965 325.824C494.29 325.108 494.746 324.555 495.332 324.164C495.983 323.773 496.667 323.578 497.383 323.578C498.49 323.578 499.368 324.001 500.02 324.848C500.736 325.629 501.094 326.475 501.094 327.387C501.094 327.842 500.996 328.298 500.801 328.754ZM573.164 258.246C573.164 259.288 572.806 260.134 572.09 260.785C571.374 261.371 570.495 261.664 569.453 261.664H519.941V262.738C519.941 266.71 519.648 270.941 519.062 275.434C518.477 279.926 517.663 284.418 516.621 288.91C515.645 293.337 514.505 297.667 513.203 301.898C511.966 306.13 510.664 310.036 509.297 313.617C507.995 317.198 506.693 320.323 505.391 322.992C504.089 325.596 502.917 327.549 501.875 328.852C502.721 331.846 503.73 334.646 504.902 337.25C506.074 339.789 507.376 342.035 508.809 343.988C510.306 345.876 511.901 347.374 513.594 348.48C515.286 349.587 517.109 350.141 519.062 350.141C521.341 350.141 523.587 349.197 525.801 347.309C528.079 345.355 530.163 343.077 532.051 340.473C534.004 337.803 535.697 335.134 537.129 332.465C538.626 329.73 539.701 327.549 540.352 325.922C541.003 324.359 542.142 323.578 543.77 323.578C544.876 323.578 545.755 323.969 546.406 324.75C547.122 325.531 547.48 326.378 547.48 327.289C547.48 327.745 547.383 328.201 547.188 328.656C546.992 329.112 546.504 330.154 545.723 331.781C545.007 333.409 544.03 335.297 542.793 337.445C541.621 339.594 540.221 341.872 538.594 344.281C537.031 346.625 535.241 348.773 533.223 350.727C531.27 352.68 529.154 354.307 526.875 355.609C524.596 356.911 522.188 357.562 519.648 357.562C515.156 357.562 511.12 356.098 507.539 353.168C503.958 350.238 500.898 346.137 498.359 340.863C495.885 335.59 493.997 329.34 492.695 322.113C491.393 314.887 490.742 306.977 490.742 298.383C490.742 296.234 490.775 293.728 490.84 290.863C490.905 287.934 491.035 284.874 491.23 281.684C491.426 278.428 491.719 275.108 492.109 271.723C492.5 268.272 493.021 264.919 493.672 261.664H458.613C457.572 261.664 456.693 261.371 455.977 260.785C455.26 260.134 454.902 259.288 454.902 258.246C454.902 257.204 455.26 256.391 455.977 255.805C456.693 255.154 457.572 254.828 458.613 254.828H495.332C495.983 252.484 496.732 250.336 497.578 248.383C498.49 246.43 499.499 244.737 500.605 243.305C501.777 241.872 503.047 240.766 504.414 239.984C505.846 239.138 507.409 238.715 509.102 238.715C510.729 238.715 512.129 239.138 513.301 239.984C514.538 240.766 515.579 241.872 516.426 243.305C517.272 244.737 517.923 246.43 518.379 248.383C518.9 250.336 519.29 252.484 519.551 254.828H569.453C570.495 254.828 571.374 255.154 572.09 255.805C572.806 256.391 573.164 257.204 573.164 258.246ZM499.629 319.086C501.582 314.789 503.34 310.167 504.902 305.219C506.53 300.206 507.897 295.16 509.004 290.082C510.176 285.004 511.055 280.023 511.641 275.141C512.292 270.258 512.617 265.766 512.617 261.664H501.094C500.182 265.701 499.434 270.714 498.848 276.703C498.327 282.628 498.066 289.854 498.066 298.383C498.066 303.135 498.197 307.139 498.457 310.395C498.717 313.585 499.108 316.482 499.629 319.086ZM508.711 246.039C508.125 246.039 507.279 246.69 506.172 247.992C505.065 249.229 503.958 251.508 502.852 254.828H512.227C511.901 252.094 511.413 249.945 510.762 248.383C510.176 246.82 509.492 246.039 508.711 246.039ZM501.191 326.117V326.215V326.117ZM616.23 328.754C615.97 329.275 615.417 330.382 614.57 332.074C613.789 333.702 612.747 335.59 611.445 337.738C610.208 339.887 608.743 342.133 607.051 344.477C605.358 346.82 603.47 348.969 601.387 350.922C599.303 352.875 597.057 354.503 594.648 355.805C592.24 357.042 589.701 357.66 587.031 357.66C583.255 357.66 580.065 356.456 577.461 354.047C574.922 351.638 573.066 348.611 571.895 344.965C569.681 348.676 567.044 351.638 563.984 353.852C560.924 356 557.865 357.074 554.805 357.074C552.396 357.074 550.215 356.651 548.262 355.805C546.309 354.893 544.648 353.656 543.281 352.094C541.914 350.466 540.84 348.578 540.059 346.43C539.342 344.281 538.984 341.938 538.984 339.398C538.984 334.32 539.831 329.861 541.523 326.02C543.281 322.113 545.495 318.858 548.164 316.254C550.833 313.65 553.763 311.697 556.953 310.395C560.208 309.092 563.333 308.441 566.328 308.441C568.346 308.441 570.202 308.734 571.895 309.32C573.587 309.841 575.02 310.427 576.191 311.078C577.428 311.729 578.372 312.348 579.023 312.934C579.674 313.454 580.033 313.747 580.098 313.812C580.814 314.659 581.172 315.538 581.172 316.449C581.172 317.426 580.814 318.305 580.098 319.086C579.382 319.802 578.535 320.16 577.559 320.16C576.517 320.16 575.638 319.802 574.922 319.086C574.792 318.956 574.499 318.728 574.043 318.402C573.587 318.012 572.969 317.621 572.188 317.23C571.406 316.84 570.462 316.514 569.355 316.254C568.314 315.928 567.109 315.766 565.742 315.766C563.724 315.766 561.576 316.221 559.297 317.133C557.018 318.044 554.935 319.477 553.047 321.43C551.159 323.318 549.564 325.727 548.262 328.656C547.025 331.521 546.406 334.939 546.406 338.91C546.406 340.147 546.536 341.417 546.797 342.719C547.057 343.956 547.513 345.095 548.164 346.137C548.815 347.178 549.694 348.025 550.801 348.676C551.908 349.327 553.275 349.652 554.902 349.652C556.074 349.652 557.409 349.262 558.906 348.48C560.469 347.699 561.934 346.495 563.301 344.867C564.733 343.24 566.003 341.189 567.109 338.715C568.281 336.241 569.095 333.311 569.551 329.926C569.681 329.014 570.104 328.266 570.82 327.68C571.536 327.029 572.383 326.703 573.359 326.703C574.271 326.703 575.052 327.061 575.703 327.777C576.419 328.493 576.81 329.307 576.875 330.219C576.94 331.456 577.07 333.214 577.266 335.492C577.461 337.706 577.884 339.919 578.535 342.133C579.251 344.346 580.293 346.267 581.66 347.895C583.027 349.522 584.915 350.336 587.324 350.336C588.887 350.336 590.417 349.913 591.914 349.066C593.477 348.22 594.974 347.113 596.406 345.746C597.904 344.314 599.303 342.719 600.605 340.961C601.973 339.138 603.21 337.315 604.316 335.492C605.423 333.669 606.4 331.911 607.246 330.219C608.092 328.526 608.809 327.061 609.395 325.824C609.72 325.108 610.176 324.555 610.762 324.164C611.413 323.773 612.096 323.578 612.812 323.578C613.919 323.578 614.798 324.001 615.449 324.848C616.165 325.629 616.523 326.475 616.523 327.387C616.523 327.842 616.426 328.298 616.23 328.754Z" fill="#2EAB87"/>
</g>
<g filter="url(#filter1_dddddd_85_1232)">
<path d="M282.148 253.461C281.953 254.372 281.53 255.089 280.879 255.609C280.228 256.13 279.512 256.391 278.73 256.391C277.559 256.391 276.615 256.033 275.898 255.316C275.182 254.535 274.824 253.656 274.824 252.68C274.824 251.703 274.922 250.759 275.117 249.848C275.312 248.871 275.41 247.927 275.41 247.016C275.41 242.263 273.945 237.999 271.016 234.223C268.086 230.447 263.919 227.289 258.516 224.75C253.177 222.146 246.667 220.16 238.984 218.793C231.302 217.426 222.741 216.742 213.301 216.742C206.074 216.742 198.783 217.23 191.426 218.207C184.134 219.118 177.103 220.486 170.332 222.309C163.626 224.066 157.344 226.312 151.484 229.047C145.625 231.716 140.514 234.841 136.152 238.422C131.855 241.938 128.47 245.876 125.996 250.238C123.522 254.535 122.285 259.255 122.285 264.398C122.285 268.37 123.132 271.885 124.824 274.945C126.582 277.94 128.958 280.577 131.953 282.855C134.948 285.069 138.464 286.99 142.5 288.617C146.602 290.18 151.029 291.514 155.781 292.621C160.534 293.663 165.482 294.542 170.625 295.258C175.768 295.909 180.944 296.462 186.152 296.918L201.191 298.188C208.678 298.839 215.384 299.522 221.309 300.238C227.233 300.954 232.441 301.866 236.934 302.973C244.421 304.861 249.954 307.562 253.535 311.078C257.116 314.594 258.906 319.281 258.906 325.141C258.906 330.805 257.344 335.785 254.219 340.082C251.094 344.379 246.829 347.992 241.426 350.922C236.022 353.852 229.707 356.065 222.48 357.562C215.254 359.06 207.507 359.809 199.238 359.809C190.254 359.809 182.344 359.19 175.508 357.953C168.737 356.781 163.04 355.479 158.418 354.047C153.861 352.549 150.378 351.182 147.969 349.945C145.56 348.708 144.258 348.025 144.062 347.895C142.891 347.243 142.305 346.202 142.305 344.77C142.305 343.663 142.695 342.784 143.477 342.133C144.258 341.417 145.104 341.059 146.016 341.059C146.732 341.059 147.383 341.254 147.969 341.645C148.034 341.645 149.141 342.23 151.289 343.402C153.503 344.509 156.758 345.746 161.055 347.113C165.417 348.48 170.788 349.717 177.168 350.824C183.548 351.931 190.97 352.484 199.434 352.484C207.832 352.484 215.254 351.801 221.699 350.434C228.145 349.066 233.548 347.178 237.91 344.77C242.337 342.296 245.658 339.431 247.871 336.176C250.15 332.855 251.289 329.275 251.289 325.434C251.289 323.155 250.866 321.202 250.02 319.574C249.238 317.882 248.132 316.449 246.699 315.277C245.267 314.04 243.542 312.999 241.523 312.152C239.57 311.306 237.422 310.59 235.078 310.004C232.604 309.353 229.935 308.799 227.07 308.344C224.271 307.888 221.374 307.497 218.379 307.172C215.384 306.846 212.357 306.553 209.297 306.293C206.302 306.033 203.34 305.772 200.41 305.512L185.371 304.242C173.522 303.266 163.171 301.768 154.316 299.75C145.527 297.667 138.203 295.03 132.344 291.84C126.484 288.585 122.09 284.711 119.16 280.219C116.23 275.727 114.766 270.486 114.766 264.496C114.766 258.376 116.133 252.777 118.867 247.699C121.667 242.556 125.443 237.934 130.195 233.832C135.013 229.73 140.612 226.182 146.992 223.188C153.438 220.128 160.306 217.589 167.598 215.57C174.889 213.552 182.441 212.055 190.254 211.078C198.066 210.036 205.749 209.516 213.301 209.516C222.741 209.516 230.944 210.102 237.91 211.273C244.941 212.38 250.931 213.845 255.879 215.668C260.892 217.426 264.993 219.444 268.184 221.723C271.374 224.001 273.945 226.247 275.898 228.461C280.521 233.865 282.832 240.017 282.832 246.918C282.832 249.197 282.604 251.378 282.148 253.461ZM317.988 345.258C316.361 345.258 314.928 345.128 313.691 344.867C312.715 346.82 311.543 348.643 310.176 350.336C308.809 351.964 307.214 353.396 305.391 354.633C303.633 355.87 301.647 356.846 299.434 357.562C297.22 358.279 294.811 358.637 292.207 358.637C289.147 358.637 286.348 358.083 283.809 356.977C281.27 355.935 279.056 354.47 277.168 352.582C275.28 350.629 273.815 348.318 272.773 345.648C271.732 342.914 271.211 339.919 271.211 336.664C271.211 332.497 271.96 328.884 273.457 325.824C274.954 322.699 276.68 320.128 278.633 318.109C280.586 316.026 282.539 314.496 284.492 313.52C286.445 312.478 287.91 311.957 288.887 311.957C289.993 311.957 290.807 312.25 291.328 312.836C291.914 313.422 292.207 314.203 292.207 315.18C292.207 316.286 291.849 317.133 291.133 317.719C290.482 318.24 289.635 318.76 288.594 319.281C287.552 319.802 286.445 320.551 285.273 321.527C284.102 322.439 282.995 323.611 281.953 325.043C280.977 326.475 280.163 328.168 279.512 330.121C278.861 332.074 278.535 334.255 278.535 336.664C278.535 338.812 278.861 340.831 279.512 342.719C280.163 344.542 281.107 346.137 282.344 347.504C283.581 348.806 285.046 349.848 286.738 350.629C288.431 351.345 290.319 351.703 292.402 351.703C296.113 351.703 299.173 350.857 301.582 349.164C304.056 347.406 305.944 345.193 307.246 342.523C303.405 340.505 300.247 337.641 297.773 333.93C295.299 330.219 294.062 326.052 294.062 321.43C294.062 317.719 294.941 314.691 296.699 312.348C298.522 310.004 300.898 308.832 303.828 308.832C305.586 308.832 307.246 309.255 308.809 310.102C310.371 310.948 311.738 312.283 312.91 314.105C314.147 315.928 315.124 318.272 315.84 321.137C316.556 324.001 316.914 327.419 316.914 331.391C316.914 333.474 316.654 335.655 316.133 337.934C316.523 337.999 316.914 338.031 317.305 338.031C317.695 338.031 318.118 338.031 318.574 338.031C320.788 338.031 322.773 337.771 324.531 337.25C326.289 336.729 327.884 335.948 329.316 334.906C330.749 333.865 332.018 332.53 333.125 330.902C334.297 329.275 335.404 327.387 336.445 325.238C336.641 324.848 337.064 324.49 337.715 324.164C338.366 323.773 339.017 323.578 339.668 323.578C340.514 323.578 341.296 323.936 342.012 324.652C342.793 325.303 343.184 326.182 343.184 327.289C343.184 327.81 343.053 328.396 342.793 329.047C342.533 329.633 342.272 330.186 342.012 330.707C340.905 332.66 339.603 334.548 338.105 336.371C336.673 338.129 334.948 339.691 332.93 341.059C330.977 342.361 328.763 343.402 326.289 344.184C323.815 344.965 321.048 345.323 317.988 345.258ZM301.289 320.648C301.289 321.885 301.452 323.188 301.777 324.555C302.103 325.922 302.591 327.289 303.242 328.656C303.958 329.958 304.805 331.228 305.781 332.465C306.823 333.637 308.027 334.646 309.395 335.492C309.59 334.125 309.688 332.79 309.688 331.488C309.688 329.73 309.557 327.94 309.297 326.117C309.036 324.294 308.646 322.634 308.125 321.137C307.669 319.574 307.083 318.337 306.367 317.426C305.651 316.449 304.805 315.961 303.828 315.961C303.438 315.961 302.917 316.254 302.266 316.84C301.615 317.426 301.289 318.695 301.289 320.648ZM357.93 347.211C358.971 345.062 360.176 342.719 361.543 340.18C362.91 337.576 364.375 334.971 365.938 332.367C367.5 329.698 369.128 327.061 370.82 324.457C372.578 321.853 374.401 319.379 376.289 317.035C378.177 314.757 380.065 313.129 381.953 312.152C383.906 311.111 385.729 310.59 387.422 310.59C390.807 310.59 393.314 311.827 394.941 314.301C396.569 316.775 397.383 319.835 397.383 323.48C397.383 324.327 397.318 325.368 397.188 326.605C397.122 327.777 397.025 329.047 396.895 330.414C396.829 331.781 396.732 333.181 396.602 334.613C396.536 335.98 396.504 337.283 396.504 338.52C396.504 340.082 396.569 341.579 396.699 343.012C396.895 344.444 397.22 345.714 397.676 346.82C398.132 347.862 398.783 348.708 399.629 349.359C400.475 349.945 401.582 350.238 402.949 350.238C405.423 350.238 407.832 349.294 410.176 347.406C412.52 345.453 414.668 343.174 416.621 340.57C418.639 337.901 420.365 335.199 421.797 332.465C423.294 329.73 424.401 327.517 425.117 325.824C425.443 325.108 425.898 324.555 426.484 324.164C427.135 323.773 427.819 323.578 428.535 323.578C429.642 323.578 430.521 324.001 431.172 324.848C431.888 325.629 432.246 326.475 432.246 327.387C432.246 327.842 432.148 328.298 431.953 328.754C431.693 329.275 431.172 330.349 430.391 331.977C429.609 333.604 428.568 335.492 427.266 337.641C426.029 339.724 424.564 341.97 422.871 344.379C421.178 346.723 419.29 348.871 417.207 350.824C415.189 352.777 412.975 354.405 410.566 355.707C408.223 357.009 405.749 357.66 403.145 357.66C400.215 357.66 397.839 357.107 396.016 356C394.193 354.828 392.76 353.331 391.719 351.508C390.677 349.62 389.961 347.569 389.57 345.355C389.245 343.077 389.082 340.798 389.082 338.52C389.082 337.543 389.115 336.436 389.18 335.199C389.31 333.962 389.44 332.66 389.57 331.293C389.766 329.926 389.896 328.559 389.961 327.191C390.091 325.824 390.156 324.522 390.156 323.285C390.156 321.202 389.831 319.802 389.18 319.086C388.529 318.305 387.943 317.914 387.422 317.914C386.38 317.914 385.176 318.533 383.809 319.77C382.507 320.941 381.107 322.504 379.609 324.457C378.177 326.41 376.68 328.624 375.117 331.098C373.62 333.507 372.188 335.915 370.82 338.324C369.518 340.733 368.281 343.044 367.109 345.258C366.003 347.406 365.124 349.197 364.473 350.629C363.171 353.363 361.868 355.186 360.566 356.098C359.264 357.074 357.93 357.562 356.562 357.562C354.674 357.562 353.145 357.009 351.973 355.902C350.866 354.73 350.312 353.103 350.312 351.02C350.312 350.564 350.378 349.685 350.508 348.383C350.638 347.016 350.801 345.421 350.996 343.598C351.191 341.71 351.387 339.691 351.582 337.543C351.777 335.395 351.973 333.279 352.168 331.195C352.363 329.047 352.526 327.061 352.656 325.238C352.786 323.415 352.852 321.885 352.852 320.648C352.852 319.021 352.786 317.458 352.656 315.961C352.526 314.464 352.266 313.552 351.875 313.227C351.289 313.422 350.247 314.659 348.75 316.938C347.253 319.151 345.332 323.09 342.988 328.754C342.663 329.47 342.174 330.023 341.523 330.414C340.872 330.805 340.189 331 339.473 331C338.366 331 337.487 330.642 336.836 329.926C336.185 329.145 335.859 328.266 335.859 327.289C335.859 326.833 335.957 326.345 336.152 325.824C339.082 318.858 341.816 313.747 344.355 310.492C346.96 307.172 349.531 305.512 352.07 305.512C353.568 305.512 354.837 305.902 355.879 306.684C356.921 307.4 357.734 308.376 358.32 309.613C358.971 310.85 359.427 312.217 359.688 313.715C360.013 315.212 360.176 316.742 360.176 318.305C360.176 319.477 360.078 321.299 359.883 323.773C359.753 326.247 359.557 328.917 359.297 331.781C359.036 334.581 358.776 337.38 358.516 340.18C358.32 342.979 358.125 345.323 357.93 347.211ZM500.801 328.754C500.54 329.275 499.987 330.382 499.141 332.074C498.359 333.702 497.318 335.59 496.016 337.738C494.779 339.887 493.314 342.133 491.621 344.477C489.928 346.82 488.04 348.969 485.957 350.922C483.874 352.875 481.628 354.503 479.219 355.805C476.81 357.042 474.271 357.66 471.602 357.66C467.826 357.66 464.635 356.456 462.031 354.047C459.492 351.638 457.637 348.611 456.465 344.965C454.251 348.676 451.615 351.638 448.555 353.852C445.495 356 442.435 357.074 439.375 357.074C436.966 357.074 434.785 356.651 432.832 355.805C430.879 354.893 429.219 353.656 427.852 352.094C426.484 350.466 425.41 348.578 424.629 346.43C423.913 344.281 423.555 341.938 423.555 339.398C423.555 334.32 424.401 329.861 426.094 326.02C427.852 322.113 430.065 318.858 432.734 316.254C435.404 313.65 438.333 311.697 441.523 310.395C444.779 309.092 447.904 308.441 450.898 308.441C452.917 308.441 454.772 308.734 456.465 309.32C458.158 309.841 459.59 310.427 460.762 311.078C461.999 311.729 462.943 312.348 463.594 312.934C464.245 313.454 464.603 313.747 464.668 313.812C465.384 314.659 465.742 315.538 465.742 316.449C465.742 317.426 465.384 318.305 464.668 319.086C463.952 319.802 463.105 320.16 462.129 320.16C461.087 320.16 460.208 319.802 459.492 319.086C459.362 318.956 459.069 318.728 458.613 318.402C458.158 318.012 457.539 317.621 456.758 317.23C455.977 316.84 455.033 316.514 453.926 316.254C452.884 315.928 451.68 315.766 450.312 315.766C448.294 315.766 446.146 316.221 443.867 317.133C441.589 318.044 439.505 319.477 437.617 321.43C435.729 323.318 434.134 325.727 432.832 328.656C431.595 331.521 430.977 334.939 430.977 338.91C430.977 340.147 431.107 341.417 431.367 342.719C431.628 343.956 432.083 345.095 432.734 346.137C433.385 347.178 434.264 348.025 435.371 348.676C436.478 349.327 437.845 349.652 439.473 349.652C440.645 349.652 441.979 349.262 443.477 348.48C445.039 347.699 446.504 346.495 447.871 344.867C449.303 343.24 450.573 341.189 451.68 338.715C452.852 336.241 453.665 333.311 454.121 329.926C454.251 329.014 454.674 328.266 455.391 327.68C456.107 327.029 456.953 326.703 457.93 326.703C458.841 326.703 459.622 327.061 460.273 327.777C460.99 328.493 461.38 329.307 461.445 330.219C461.51 331.456 461.641 333.214 461.836 335.492C462.031 337.706 462.454 339.919 463.105 342.133C463.822 344.346 464.863 346.267 466.23 347.895C467.598 349.522 469.486 350.336 471.895 350.336C473.457 350.336 474.987 349.913 476.484 349.066C478.047 348.22 479.544 347.113 480.977 345.746C482.474 344.314 483.874 342.719 485.176 340.961C486.543 339.138 487.78 337.315 488.887 335.492C489.993 333.669 490.97 331.911 491.816 330.219C492.663 328.526 493.379 327.061 493.965 325.824C494.29 325.108 494.746 324.555 495.332 324.164C495.983 323.773 496.667 323.578 497.383 323.578C498.49 323.578 499.368 324.001 500.02 324.848C500.736 325.629 501.094 326.475 501.094 327.387C501.094 327.842 500.996 328.298 500.801 328.754ZM573.164 258.246C573.164 259.288 572.806 260.134 572.09 260.785C571.374 261.371 570.495 261.664 569.453 261.664H519.941V262.738C519.941 266.71 519.648 270.941 519.062 275.434C518.477 279.926 517.663 284.418 516.621 288.91C515.645 293.337 514.505 297.667 513.203 301.898C511.966 306.13 510.664 310.036 509.297 313.617C507.995 317.198 506.693 320.323 505.391 322.992C504.089 325.596 502.917 327.549 501.875 328.852C502.721 331.846 503.73 334.646 504.902 337.25C506.074 339.789 507.376 342.035 508.809 343.988C510.306 345.876 511.901 347.374 513.594 348.48C515.286 349.587 517.109 350.141 519.062 350.141C521.341 350.141 523.587 349.197 525.801 347.309C528.079 345.355 530.163 343.077 532.051 340.473C534.004 337.803 535.697 335.134 537.129 332.465C538.626 329.73 539.701 327.549 540.352 325.922C541.003 324.359 542.142 323.578 543.77 323.578C544.876 323.578 545.755 323.969 546.406 324.75C547.122 325.531 547.48 326.378 547.48 327.289C547.48 327.745 547.383 328.201 547.188 328.656C546.992 329.112 546.504 330.154 545.723 331.781C545.007 333.409 544.03 335.297 542.793 337.445C541.621 339.594 540.221 341.872 538.594 344.281C537.031 346.625 535.241 348.773 533.223 350.727C531.27 352.68 529.154 354.307 526.875 355.609C524.596 356.911 522.188 357.562 519.648 357.562C515.156 357.562 511.12 356.098 507.539 353.168C503.958 350.238 500.898 346.137 498.359 340.863C495.885 335.59 493.997 329.34 492.695 322.113C491.393 314.887 490.742 306.977 490.742 298.383C490.742 296.234 490.775 293.728 490.84 290.863C490.905 287.934 491.035 284.874 491.23 281.684C491.426 278.428 491.719 275.108 492.109 271.723C492.5 268.272 493.021 264.919 493.672 261.664H458.613C457.572 261.664 456.693 261.371 455.977 260.785C455.26 260.134 454.902 259.288 454.902 258.246C454.902 257.204 455.26 256.391 455.977 255.805C456.693 255.154 457.572 254.828 458.613 254.828H495.332C495.983 252.484 496.732 250.336 497.578 248.383C498.49 246.43 499.499 244.737 500.605 243.305C501.777 241.872 503.047 240.766 504.414 239.984C505.846 239.138 507.409 238.715 509.102 238.715C510.729 238.715 512.129 239.138 513.301 239.984C514.538 240.766 515.579 241.872 516.426 243.305C517.272 244.737 517.923 246.43 518.379 248.383C518.9 250.336 519.29 252.484 519.551 254.828H569.453C570.495 254.828 571.374 255.154 572.09 255.805C572.806 256.391 573.164 257.204 573.164 258.246ZM499.629 319.086C501.582 314.789 503.34 310.167 504.902 305.219C506.53 300.206 507.897 295.16 509.004 290.082C510.176 285.004 511.055 280.023 511.641 275.141C512.292 270.258 512.617 265.766 512.617 261.664H501.094C500.182 265.701 499.434 270.714 498.848 276.703C498.327 282.628 498.066 289.854 498.066 298.383C498.066 303.135 498.197 307.139 498.457 310.395C498.717 313.585 499.108 316.482 499.629 319.086ZM508.711 246.039C508.125 246.039 507.279 246.69 506.172 247.992C505.065 249.229 503.958 251.508 502.852 254.828H512.227C511.901 252.094 511.413 249.945 510.762 248.383C510.176 246.82 509.492 246.039 508.711 246.039ZM501.191 326.117V326.215V326.117ZM616.23 328.754C615.97 329.275 615.417 330.382 614.57 332.074C613.789 333.702 612.747 335.59 611.445 337.738C610.208 339.887 608.743 342.133 607.051 344.477C605.358 346.82 603.47 348.969 601.387 350.922C599.303 352.875 597.057 354.503 594.648 355.805C592.24 357.042 589.701 357.66 587.031 357.66C583.255 357.66 580.065 356.456 577.461 354.047C574.922 351.638 573.066 348.611 571.895 344.965C569.681 348.676 567.044 351.638 563.984 353.852C560.924 356 557.865 357.074 554.805 357.074C552.396 357.074 550.215 356.651 548.262 355.805C546.309 354.893 544.648 353.656 543.281 352.094C541.914 350.466 540.84 348.578 540.059 346.43C539.342 344.281 538.984 341.938 538.984 339.398C538.984 334.32 539.831 329.861 541.523 326.02C543.281 322.113 545.495 318.858 548.164 316.254C550.833 313.65 553.763 311.697 556.953 310.395C560.208 309.092 563.333 308.441 566.328 308.441C568.346 308.441 570.202 308.734 571.895 309.32C573.587 309.841 575.02 310.427 576.191 311.078C577.428 311.729 578.372 312.348 579.023 312.934C579.674 313.454 580.033 313.747 580.098 313.812C580.814 314.659 581.172 315.538 581.172 316.449C581.172 317.426 580.814 318.305 580.098 319.086C579.382 319.802 578.535 320.16 577.559 320.16C576.517 320.16 575.638 319.802 574.922 319.086C574.792 318.956 574.499 318.728 574.043 318.402C573.587 318.012 572.969 317.621 572.188 317.23C571.406 316.84 570.462 316.514 569.355 316.254C568.314 315.928 567.109 315.766 565.742 315.766C563.724 315.766 561.576 316.221 559.297 317.133C557.018 318.044 554.935 319.477 553.047 321.43C551.159 323.318 549.564 325.727 548.262 328.656C547.025 331.521 546.406 334.939 546.406 338.91C546.406 340.147 546.536 341.417 546.797 342.719C547.057 343.956 547.513 345.095 548.164 346.137C548.815 347.178 549.694 348.025 550.801 348.676C551.908 349.327 553.275 349.652 554.902 349.652C556.074 349.652 557.409 349.262 558.906 348.48C560.469 347.699 561.934 346.495 563.301 344.867C564.733 343.24 566.003 341.189 567.109 338.715C568.281 336.241 569.095 333.311 569.551 329.926C569.681 329.014 570.104 328.266 570.82 327.68C571.536 327.029 572.383 326.703 573.359 326.703C574.271 326.703 575.052 327.061 575.703 327.777C576.419 328.493 576.81 329.307 576.875 330.219C576.94 331.456 577.07 333.214 577.266 335.492C577.461 337.706 577.884 339.919 578.535 342.133C579.251 344.346 580.293 346.267 581.66 347.895C583.027 349.522 584.915 350.336 587.324 350.336C588.887 350.336 590.417 349.913 591.914 349.066C593.477 348.22 594.974 347.113 596.406 345.746C597.904 344.314 599.303 342.719 600.605 340.961C601.973 339.138 603.21 337.315 604.316 335.492C605.423 333.669 606.4 331.911 607.246 330.219C608.092 328.526 608.809 327.061 609.395 325.824C609.72 325.108 610.176 324.555 610.762 324.164C611.413 323.773 612.096 323.578 612.812 323.578C613.919 323.578 614.798 324.001 615.449 324.848C616.165 325.629 616.523 326.475 616.523 327.387C616.523 327.842 616.426 328.298 616.23 328.754Z" fill="#A2EED8"/>
</g>
<g filter="url(#filter2_i_85_1232)">
<path d="M282.148 253.461C281.953 254.372 281.53 255.089 280.879 255.609C280.228 256.13 279.512 256.391 278.73 256.391C277.559 256.391 276.615 256.033 275.898 255.316C275.182 254.535 274.824 253.656 274.824 252.68C274.824 251.703 274.922 250.759 275.117 249.848C275.312 248.871 275.41 247.927 275.41 247.016C275.41 242.263 273.945 237.999 271.016 234.223C268.086 230.447 263.919 227.289 258.516 224.75C253.177 222.146 246.667 220.16 238.984 218.793C231.302 217.426 222.741 216.742 213.301 216.742C206.074 216.742 198.783 217.23 191.426 218.207C184.134 219.118 177.103 220.486 170.332 222.309C163.626 224.066 157.344 226.312 151.484 229.047C145.625 231.716 140.514 234.841 136.152 238.422C131.855 241.938 128.47 245.876 125.996 250.238C123.522 254.535 122.285 259.255 122.285 264.398C122.285 268.37 123.132 271.885 124.824 274.945C126.582 277.94 128.958 280.577 131.953 282.855C134.948 285.069 138.464 286.99 142.5 288.617C146.602 290.18 151.029 291.514 155.781 292.621C160.534 293.663 165.482 294.542 170.625 295.258C175.768 295.909 180.944 296.462 186.152 296.918L201.191 298.188C208.678 298.839 215.384 299.522 221.309 300.238C227.233 300.954 232.441 301.866 236.934 302.973C244.421 304.861 249.954 307.562 253.535 311.078C257.116 314.594 258.906 319.281 258.906 325.141C258.906 330.805 257.344 335.785 254.219 340.082C251.094 344.379 246.829 347.992 241.426 350.922C236.022 353.852 229.707 356.065 222.48 357.562C215.254 359.06 207.507 359.809 199.238 359.809C190.254 359.809 182.344 359.19 175.508 357.953C168.737 356.781 163.04 355.479 158.418 354.047C153.861 352.549 150.378 351.182 147.969 349.945C145.56 348.708 144.258 348.025 144.062 347.895C142.891 347.243 142.305 346.202 142.305 344.77C142.305 343.663 142.695 342.784 143.477 342.133C144.258 341.417 145.104 341.059 146.016 341.059C146.732 341.059 147.383 341.254 147.969 341.645C148.034 341.645 149.141 342.23 151.289 343.402C153.503 344.509 156.758 345.746 161.055 347.113C165.417 348.48 170.788 349.717 177.168 350.824C183.548 351.931 190.97 352.484 199.434 352.484C207.832 352.484 215.254 351.801 221.699 350.434C228.145 349.066 233.548 347.178 237.91 344.77C242.337 342.296 245.658 339.431 247.871 336.176C250.15 332.855 251.289 329.275 251.289 325.434C251.289 323.155 250.866 321.202 250.02 319.574C249.238 317.882 248.132 316.449 246.699 315.277C245.267 314.04 243.542 312.999 241.523 312.152C239.57 311.306 237.422 310.59 235.078 310.004C232.604 309.353 229.935 308.799 227.07 308.344C224.271 307.888 221.374 307.497 218.379 307.172C215.384 306.846 212.357 306.553 209.297 306.293C206.302 306.033 203.34 305.772 200.41 305.512L185.371 304.242C173.522 303.266 163.171 301.768 154.316 299.75C145.527 297.667 138.203 295.03 132.344 291.84C126.484 288.585 122.09 284.711 119.16 280.219C116.23 275.727 114.766 270.486 114.766 264.496C114.766 258.376 116.133 252.777 118.867 247.699C121.667 242.556 125.443 237.934 130.195 233.832C135.013 229.73 140.612 226.182 146.992 223.188C153.438 220.128 160.306 217.589 167.598 215.57C174.889 213.552 182.441 212.055 190.254 211.078C198.066 210.036 205.749 209.516 213.301 209.516C222.741 209.516 230.944 210.102 237.91 211.273C244.941 212.38 250.931 213.845 255.879 215.668C260.892 217.426 264.993 219.444 268.184 221.723C271.374 224.001 273.945 226.247 275.898 228.461C280.521 233.865 282.832 240.017 282.832 246.918C282.832 249.197 282.604 251.378 282.148 253.461ZM317.988 345.258C316.361 345.258 314.928 345.128 313.691 344.867C312.715 346.82 311.543 348.643 310.176 350.336C308.809 351.964 307.214 353.396 305.391 354.633C303.633 355.87 301.647 356.846 299.434 357.562C297.22 358.279 294.811 358.637 292.207 358.637C289.147 358.637 286.348 358.083 283.809 356.977C281.27 355.935 279.056 354.47 277.168 352.582C275.28 350.629 273.815 348.318 272.773 345.648C271.732 342.914 271.211 339.919 271.211 336.664C271.211 332.497 271.96 328.884 273.457 325.824C274.954 322.699 276.68 320.128 278.633 318.109C280.586 316.026 282.539 314.496 284.492 313.52C286.445 312.478 287.91 311.957 288.887 311.957C289.993 311.957 290.807 312.25 291.328 312.836C291.914 313.422 292.207 314.203 292.207 315.18C292.207 316.286 291.849 317.133 291.133 317.719C290.482 318.24 289.635 318.76 288.594 319.281C287.552 319.802 286.445 320.551 285.273 321.527C284.102 322.439 282.995 323.611 281.953 325.043C280.977 326.475 280.163 328.168 279.512 330.121C278.861 332.074 278.535 334.255 278.535 336.664C278.535 338.812 278.861 340.831 279.512 342.719C280.163 344.542 281.107 346.137 282.344 347.504C283.581 348.806 285.046 349.848 286.738 350.629C288.431 351.345 290.319 351.703 292.402 351.703C296.113 351.703 299.173 350.857 301.582 349.164C304.056 347.406 305.944 345.193 307.246 342.523C303.405 340.505 300.247 337.641 297.773 333.93C295.299 330.219 294.062 326.052 294.062 321.43C294.062 317.719 294.941 314.691 296.699 312.348C298.522 310.004 300.898 308.832 303.828 308.832C305.586 308.832 307.246 309.255 308.809 310.102C310.371 310.948 311.738 312.283 312.91 314.105C314.147 315.928 315.124 318.272 315.84 321.137C316.556 324.001 316.914 327.419 316.914 331.391C316.914 333.474 316.654 335.655 316.133 337.934C316.523 337.999 316.914 338.031 317.305 338.031C317.695 338.031 318.118 338.031 318.574 338.031C320.788 338.031 322.773 337.771 324.531 337.25C326.289 336.729 327.884 335.948 329.316 334.906C330.749 333.865 332.018 332.53 333.125 330.902C334.297 329.275 335.404 327.387 336.445 325.238C336.641 324.848 337.064 324.49 337.715 324.164C338.366 323.773 339.017 323.578 339.668 323.578C340.514 323.578 341.296 323.936 342.012 324.652C342.793 325.303 343.184 326.182 343.184 327.289C343.184 327.81 343.053 328.396 342.793 329.047C342.533 329.633 342.272 330.186 342.012 330.707C340.905 332.66 339.603 334.548 338.105 336.371C336.673 338.129 334.948 339.691 332.93 341.059C330.977 342.361 328.763 343.402 326.289 344.184C323.815 344.965 321.048 345.323 317.988 345.258ZM301.289 320.648C301.289 321.885 301.452 323.188 301.777 324.555C302.103 325.922 302.591 327.289 303.242 328.656C303.958 329.958 304.805 331.228 305.781 332.465C306.823 333.637 308.027 334.646 309.395 335.492C309.59 334.125 309.688 332.79 309.688 331.488C309.688 329.73 309.557 327.94 309.297 326.117C309.036 324.294 308.646 322.634 308.125 321.137C307.669 319.574 307.083 318.337 306.367 317.426C305.651 316.449 304.805 315.961 303.828 315.961C303.438 315.961 302.917 316.254 302.266 316.84C301.615 317.426 301.289 318.695 301.289 320.648ZM357.93 347.211C358.971 345.062 360.176 342.719 361.543 340.18C362.91 337.576 364.375 334.971 365.938 332.367C367.5 329.698 369.128 327.061 370.82 324.457C372.578 321.853 374.401 319.379 376.289 317.035C378.177 314.757 380.065 313.129 381.953 312.152C383.906 311.111 385.729 310.59 387.422 310.59C390.807 310.59 393.314 311.827 394.941 314.301C396.569 316.775 397.383 319.835 397.383 323.48C397.383 324.327 397.318 325.368 397.188 326.605C397.122 327.777 397.025 329.047 396.895 330.414C396.829 331.781 396.732 333.181 396.602 334.613C396.536 335.98 396.504 337.283 396.504 338.52C396.504 340.082 396.569 341.579 396.699 343.012C396.895 344.444 397.22 345.714 397.676 346.82C398.132 347.862 398.783 348.708 399.629 349.359C400.475 349.945 401.582 350.238 402.949 350.238C405.423 350.238 407.832 349.294 410.176 347.406C412.52 345.453 414.668 343.174 416.621 340.57C418.639 337.901 420.365 335.199 421.797 332.465C423.294 329.73 424.401 327.517 425.117 325.824C425.443 325.108 425.898 324.555 426.484 324.164C427.135 323.773 427.819 323.578 428.535 323.578C429.642 323.578 430.521 324.001 431.172 324.848C431.888 325.629 432.246 326.475 432.246 327.387C432.246 327.842 432.148 328.298 431.953 328.754C431.693 329.275 431.172 330.349 430.391 331.977C429.609 333.604 428.568 335.492 427.266 337.641C426.029 339.724 424.564 341.97 422.871 344.379C421.178 346.723 419.29 348.871 417.207 350.824C415.189 352.777 412.975 354.405 410.566 355.707C408.223 357.009 405.749 357.66 403.145 357.66C400.215 357.66 397.839 357.107 396.016 356C394.193 354.828 392.76 353.331 391.719 351.508C390.677 349.62 389.961 347.569 389.57 345.355C389.245 343.077 389.082 340.798 389.082 338.52C389.082 337.543 389.115 336.436 389.18 335.199C389.31 333.962 389.44 332.66 389.57 331.293C389.766 329.926 389.896 328.559 389.961 327.191C390.091 325.824 390.156 324.522 390.156 323.285C390.156 321.202 389.831 319.802 389.18 319.086C388.529 318.305 387.943 317.914 387.422 317.914C386.38 317.914 385.176 318.533 383.809 319.77C382.507 320.941 381.107 322.504 379.609 324.457C378.177 326.41 376.68 328.624 375.117 331.098C373.62 333.507 372.188 335.915 370.82 338.324C369.518 340.733 368.281 343.044 367.109 345.258C366.003 347.406 365.124 349.197 364.473 350.629C363.171 353.363 361.868 355.186 360.566 356.098C359.264 357.074 357.93 357.562 356.562 357.562C354.674 357.562 353.145 357.009 351.973 355.902C350.866 354.73 350.312 353.103 350.312 351.02C350.312 350.564 350.378 349.685 350.508 348.383C350.638 347.016 350.801 345.421 350.996 343.598C351.191 341.71 351.387 339.691 351.582 337.543C351.777 335.395 351.973 333.279 352.168 331.195C352.363 329.047 352.526 327.061 352.656 325.238C352.786 323.415 352.852 321.885 352.852 320.648C352.852 319.021 352.786 317.458 352.656 315.961C352.526 314.464 352.266 313.552 351.875 313.227C351.289 313.422 350.247 314.659 348.75 316.938C347.253 319.151 345.332 323.09 342.988 328.754C342.663 329.47 342.174 330.023 341.523 330.414C340.872 330.805 340.189 331 339.473 331C338.366 331 337.487 330.642 336.836 329.926C336.185 329.145 335.859 328.266 335.859 327.289C335.859 326.833 335.957 326.345 336.152 325.824C339.082 318.858 341.816 313.747 344.355 310.492C346.96 307.172 349.531 305.512 352.07 305.512C353.568 305.512 354.837 305.902 355.879 306.684C356.921 307.4 357.734 308.376 358.32 309.613C358.971 310.85 359.427 312.217 359.688 313.715C360.013 315.212 360.176 316.742 360.176 318.305C360.176 319.477 360.078 321.299 359.883 323.773C359.753 326.247 359.557 328.917 359.297 331.781C359.036 334.581 358.776 337.38 358.516 340.18C358.32 342.979 358.125 345.323 357.93 347.211ZM500.801 328.754C500.54 329.275 499.987 330.382 499.141 332.074C498.359 333.702 497.318 335.59 496.016 337.738C494.779 339.887 493.314 342.133 491.621 344.477C489.928 346.82 488.04 348.969 485.957 350.922C483.874 352.875 481.628 354.503 479.219 355.805C476.81 357.042 474.271 357.66 471.602 357.66C467.826 357.66 464.635 356.456 462.031 354.047C459.492 351.638 457.637 348.611 456.465 344.965C454.251 348.676 451.615 351.638 448.555 353.852C445.495 356 442.435 357.074 439.375 357.074C436.966 357.074 434.785 356.651 432.832 355.805C430.879 354.893 429.219 353.656 427.852 352.094C426.484 350.466 425.41 348.578 424.629 346.43C423.913 344.281 423.555 341.938 423.555 339.398C423.555 334.32 424.401 329.861 426.094 326.02C427.852 322.113 430.065 318.858 432.734 316.254C435.404 313.65 438.333 311.697 441.523 310.395C444.779 309.092 447.904 308.441 450.898 308.441C452.917 308.441 454.772 308.734 456.465 309.32C458.158 309.841 459.59 310.427 460.762 311.078C461.999 311.729 462.943 312.348 463.594 312.934C464.245 313.454 464.603 313.747 464.668 313.812C465.384 314.659 465.742 315.538 465.742 316.449C465.742 317.426 465.384 318.305 464.668 319.086C463.952 319.802 463.105 320.16 462.129 320.16C461.087 320.16 460.208 319.802 459.492 319.086C459.362 318.956 459.069 318.728 458.613 318.402C458.158 318.012 457.539 317.621 456.758 317.23C455.977 316.84 455.033 316.514 453.926 316.254C452.884 315.928 451.68 315.766 450.312 315.766C448.294 315.766 446.146 316.221 443.867 317.133C441.589 318.044 439.505 319.477 437.617 321.43C435.729 323.318 434.134 325.727 432.832 328.656C431.595 331.521 430.977 334.939 430.977 338.91C430.977 340.147 431.107 341.417 431.367 342.719C431.628 343.956 432.083 345.095 432.734 346.137C433.385 347.178 434.264 348.025 435.371 348.676C436.478 349.327 437.845 349.652 439.473 349.652C440.645 349.652 441.979 349.262 443.477 348.48C445.039 347.699 446.504 346.495 447.871 344.867C449.303 343.24 450.573 341.189 451.68 338.715C452.852 336.241 453.665 333.311 454.121 329.926C454.251 329.014 454.674 328.266 455.391 327.68C456.107 327.029 456.953 326.703 457.93 326.703C458.841 326.703 459.622 327.061 460.273 327.777C460.99 328.493 461.38 329.307 461.445 330.219C461.51 331.456 461.641 333.214 461.836 335.492C462.031 337.706 462.454 339.919 463.105 342.133C463.822 344.346 464.863 346.267 466.23 347.895C467.598 349.522 469.486 350.336 471.895 350.336C473.457 350.336 474.987 349.913 476.484 349.066C478.047 348.22 479.544 347.113 480.977 345.746C482.474 344.314 483.874 342.719 485.176 340.961C486.543 339.138 487.78 337.315 488.887 335.492C489.993 333.669 490.97 331.911 491.816 330.219C492.663 328.526 493.379 327.061 493.965 325.824C494.29 325.108 494.746 324.555 495.332 324.164C495.983 323.773 496.667 323.578 497.383 323.578C498.49 323.578 499.368 324.001 500.02 324.848C500.736 325.629 501.094 326.475 501.094 327.387C501.094 327.842 500.996 328.298 500.801 328.754ZM573.164 258.246C573.164 259.288 572.806 260.134 572.09 260.785C571.374 261.371 570.495 261.664 569.453 261.664H519.941V262.738C519.941 266.71 519.648 270.941 519.062 275.434C518.477 279.926 517.663 284.418 516.621 288.91C515.645 293.337 514.505 297.667 513.203 301.898C511.966 306.13 510.664 310.036 509.297 313.617C507.995 317.198 506.693 320.323 505.391 322.992C504.089 325.596 502.917 327.549 501.875 328.852C502.721 331.846 503.73 334.646 504.902 337.25C506.074 339.789 507.376 342.035 508.809 343.988C510.306 345.876 511.901 347.374 513.594 348.48C515.286 349.587 517.109 350.141 519.062 350.141C521.341 350.141 523.587 349.197 525.801 347.309C528.079 345.355 530.163 343.077 532.051 340.473C534.004 337.803 535.697 335.134 537.129 332.465C538.626 329.73 539.701 327.549 540.352 325.922C541.003 324.359 542.142 323.578 543.77 323.578C544.876 323.578 545.755 323.969 546.406 324.75C547.122 325.531 547.48 326.378 547.48 327.289C547.48 327.745 547.383 328.201 547.188 328.656C546.992 329.112 546.504 330.154 545.723 331.781C545.007 333.409 544.03 335.297 542.793 337.445C541.621 339.594 540.221 341.872 538.594 344.281C537.031 346.625 535.241 348.773 533.223 350.727C531.27 352.68 529.154 354.307 526.875 355.609C524.596 356.911 522.188 357.562 519.648 357.562C515.156 357.562 511.12 356.098 507.539 353.168C503.958 350.238 500.898 346.137 498.359 340.863C495.885 335.59 493.997 329.34 492.695 322.113C491.393 314.887 490.742 306.977 490.742 298.383C490.742 296.234 490.775 293.728 490.84 290.863C490.905 287.934 491.035 284.874 491.23 281.684C491.426 278.428 491.719 275.108 492.109 271.723C492.5 268.272 493.021 264.919 493.672 261.664H458.613C457.572 261.664 456.693 261.371 455.977 260.785C455.26 260.134 454.902 259.288 454.902 258.246C454.902 257.204 455.26 256.391 455.977 255.805C456.693 255.154 457.572 254.828 458.613 254.828H495.332C495.983 252.484 496.732 250.336 497.578 248.383C498.49 246.43 499.499 244.737 500.605 243.305C501.777 241.872 503.047 240.766 504.414 239.984C505.846 239.138 507.409 238.715 509.102 238.715C510.729 238.715 512.129 239.138 513.301 239.984C514.538 240.766 515.579 241.872 516.426 243.305C517.272 244.737 517.923 246.43 518.379 248.383C518.9 250.336 519.29 252.484 519.551 254.828H569.453C570.495 254.828 571.374 255.154 572.09 255.805C572.806 256.391 573.164 257.204 573.164 258.246ZM499.629 319.086C501.582 314.789 503.34 310.167 504.902 305.219C506.53 300.206 507.897 295.16 509.004 290.082C510.176 285.004 511.055 280.023 511.641 275.141C512.292 270.258 512.617 265.766 512.617 261.664H501.094C500.182 265.701 499.434 270.714 498.848 276.703C498.327 282.628 498.066 289.854 498.066 298.383C498.066 303.135 498.197 307.139 498.457 310.395C498.717 313.585 499.108 316.482 499.629 319.086ZM508.711 246.039C508.125 246.039 507.279 246.69 506.172 247.992C505.065 249.229 503.958 251.508 502.852 254.828H512.227C511.901 252.094 511.413 249.945 510.762 248.383C510.176 246.82 509.492 246.039 508.711 246.039ZM501.191 326.117V326.215V326.117ZM616.23 328.754C615.97 329.275 615.417 330.382 614.57 332.074C613.789 333.702 612.747 335.59 611.445 337.738C610.208 339.887 608.743 342.133 607.051 344.477C605.358 346.82 603.47 348.969 601.387 350.922C599.303 352.875 597.057 354.503 594.648 355.805C592.24 357.042 589.701 357.66 587.031 357.66C583.255 357.66 580.065 356.456 577.461 354.047C574.922 351.638 573.066 348.611 571.895 344.965C569.681 348.676 567.044 351.638 563.984 353.852C560.924 356 557.865 357.074 554.805 357.074C552.396 357.074 550.215 356.651 548.262 355.805C546.309 354.893 544.648 353.656 543.281 352.094C541.914 350.466 540.84 348.578 540.059 346.43C539.342 344.281 538.984 341.938 538.984 339.398C538.984 334.32 539.831 329.861 541.523 326.02C543.281 322.113 545.495 318.858 548.164 316.254C550.833 313.65 553.763 311.697 556.953 310.395C560.208 309.092 563.333 308.441 566.328 308.441C568.346 308.441 570.202 308.734 571.895 309.32C573.587 309.841 575.02 310.427 576.191 311.078C577.428 311.729 578.372 312.348 579.023 312.934C579.674 313.454 580.033 313.747 580.098 313.812C580.814 314.659 581.172 315.538 581.172 316.449C581.172 317.426 580.814 318.305 580.098 319.086C579.382 319.802 578.535 320.16 577.559 320.16C576.517 320.16 575.638 319.802 574.922 319.086C574.792 318.956 574.499 318.728 574.043 318.402C573.587 318.012 572.969 317.621 572.188 317.23C571.406 316.84 570.462 316.514 569.355 316.254C568.314 315.928 567.109 315.766 565.742 315.766C563.724 315.766 561.576 316.221 559.297 317.133C557.018 318.044 554.935 319.477 553.047 321.43C551.159 323.318 549.564 325.727 548.262 328.656C547.025 331.521 546.406 334.939 546.406 338.91C546.406 340.147 546.536 341.417 546.797 342.719C547.057 343.956 547.513 345.095 548.164 346.137C548.815 347.178 549.694 348.025 550.801 348.676C551.908 349.327 553.275 349.652 554.902 349.652C556.074 349.652 557.409 349.262 558.906 348.48C560.469 347.699 561.934 346.495 563.301 344.867C564.733 343.24 566.003 341.189 567.109 338.715C568.281 336.241 569.095 333.311 569.551 329.926C569.681 329.014 570.104 328.266 570.82 327.68C571.536 327.029 572.383 326.703 573.359 326.703C574.271 326.703 575.052 327.061 575.703 327.777C576.419 328.493 576.81 329.307 576.875 330.219C576.94 331.456 577.07 333.214 577.266 335.492C577.461 337.706 577.884 339.919 578.535 342.133C579.251 344.346 580.293 346.267 581.66 347.895C583.027 349.522 584.915 350.336 587.324 350.336C588.887 350.336 590.417 349.913 591.914 349.066C593.477 348.22 594.974 347.113 596.406 345.746C597.904 344.314 599.303 342.719 600.605 340.961C601.973 339.138 603.21 337.315 604.316 335.492C605.423 333.669 606.4 331.911 607.246 330.219C608.092 328.526 608.809 327.061 609.395 325.824C609.72 325.108 610.176 324.555 610.762 324.164C611.413 323.773 612.096 323.578 612.812 323.578C613.919 323.578 614.798 324.001 615.449 324.848C616.165 325.629 616.523 326.475 616.523 327.387C616.523 327.842 616.426 328.298 616.23 328.754Z" fill="#A2EED8"/>
</g>
<defs>
<filter id="filter0_dddddd_85_1232" x="-571.335" y="-476.585" width="1873.96" height="1522.49" filterUnits="userSpaceOnUse" color-interpolation-filters="sRGB">
<feFlood flood-opacity="0" result="BackgroundImageFix"/>
<feColorMatrix in="SourceAlpha" type="matrix" values="0 0 0 0 0 0 0 0 0 0 0 0 0 0 0 0 0 0 127 0" result="hardAlpha"/>
<feOffset/>
<feGaussianBlur stdDeviation="8.16787"/>
<feColorMatrix type="matrix" values="0 0 0 0 0.180392 0 0 0 0 0.670588 0 0 0 0 0.529412 0 0 0 1 0"/>
<feBlend mode="normal" in2="BackgroundImageFix" result="effect1_dropShadow_85_1232"/>
<feColorMatrix in="SourceAlpha" type="matrix" values="0 0 0 0 0 0 0 0 0 0 0 0 0 0 0 0 0 0 127 0" result="hardAlpha"/>
<feOffset/>
<feGaussianBlur stdDeviation="16.3357"/>
<feColorMatrix type="matrix" values="0 0 0 0 0.180392 0 0 0 0 0.670588 0 0 0 0 0.529412 0 0 0 1 0"/>
<feBlend mode="normal" in2="effect1_dropShadow_85_1232" result="effect2_dropShadow_85_1232"/>
<feColorMatrix in="SourceAlpha" type="matrix" values="0 0 0 0 0 0 0 0 0 0 0 0 0 0 0 0 0 0 127 0" result="hardAlpha"/>
<feOffset/>
<feGaussianBlur stdDeviation="57.1751"/>
<feColorMatrix type="matrix" values="0 0 0 0 0.180392 0 0 0 0 0.670588 0 0 0 0 0.529412 0 0 0 1 0"/>
<feBlend mode="normal" in2="effect2_dropShadow_85_1232" result="effect3_dropShadow_85_1232"/>
<feColorMatrix in="SourceAlpha" type="matrix" values="0 0 0 0 0 0 0 0 0 0 0 0 0 0 0 0 0 0 127 0" result="hardAlpha"/>
<feOffset/>
<feGaussianBlur stdDeviation="114.35"/>
<feColorMatrix type="matrix" values="0 0 0 0 0.180392 0 0 0 0 0.670588 0 0 0 0 0.529412 0 0 0 1 0"/>
<feBlend mode="normal" in2="effect3_dropShadow_85_1232" result="effect4_dropShadow_85_1232"/>
<feColorMatrix in="SourceAlpha" type="matrix" values="0 0 0 0 0 0 0 0 0 0 0 0 0 0 0 0 0 0 127 0" result="hardAlpha"/>
<feOffset/>
<feGaussianBlur stdDeviation="196.029"/>
<feColorMatrix type="matrix" values="0 0 0 0 0.180392 0 0 0 0 0.670588 0 0 0 0 0.529412 0 0 0 1 0"/>
<feBlend mode="normal" in2="effect4_dropShadow_85_1232" result="effect5_dropShadow_85_1232"/>
<feColorMatrix in="SourceAlpha" type="matrix" values="0 0 0 0 0 0 0 0 0 0 0 0 0 0 0 0 0 0 127 0" result="hardAlpha"/>
<feOffset/>
<feGaussianBlur stdDeviation="343.05"/>
<feColorMatrix type="matrix" values="0 0 0 0 0.180392 0 0 0 0 0.670588 0 0 0 0 0.529412 0 0 0 1 0"/>
<feBlend mode="normal" in2="effect5_dropShadow_85_1232" result="effect6_dropShadow_85_1232"/>
<feBlend mode="normal" in="SourceGraphic" in2="effect6_dropShadow_85_1232" result="shape"/>
</filter>
<filter id="filter1_dddddd_85_1232" x="-571.335" y="-476.585" width="1873.96" height="1522.49" filterUnits="userSpaceOnUse" color-interpolation-filters="sRGB">
<feFlood flood-opacity="0" result="BackgroundImageFix"/>
<feColorMatrix in="SourceAlpha" type="matrix" values="0 0 0 0 0 0 0 0 0 0 0 0 0 0 0 0 0 0 127 0" result="hardAlpha"/>
<feOffset/>
<feGaussianBlur stdDeviation="8.16787"/>
<feColorMatrix type="matrix" values="0 0 0 0 0.180392 0 0 0 0 0.670588 0 0 0 0 0.529412 0 0 0 1 0"/>
<feBlend mode="normal" in2="BackgroundImageFix" result="effect1_dropShadow_85_1232"/>
<feColorMatrix in="SourceAlpha" type="matrix" values="0 0 0 0 0 0 0 0 0 0 0 0 0 0 0 0 0 0 127 0" result="hardAlpha"/>
<feOffset/>
<feGaussianBlur stdDeviation="16.3357"/>
<feColorMatrix type="matrix" values="0 0 0 0 0.180392 0 0 0 0 0.670588 0 0 0 0 0.529412 0 0 0 1 0"/>
<feBlend mode="normal" in2="effect1_dropShadow_85_1232" result="effect2_dropShadow_85_1232"/>
<feColorMatrix in="SourceAlpha" type="matrix" values="0 0 0 0 0 0 0 0 0 0 0 0 0 0 0 0 0 0 127 0" result="hardAlpha"/>
<feOffset/>
<feGaussianBlur stdDeviation="57.1751"/>
<feColorMatrix type="matrix" values="0 0 0 0 0.180392 0 0 0 0 0.670588 0 0 0 0 0.529412 0 0 0 1 0"/>
<feBlend mode="normal" in2="effect2_dropShadow_85_1232" result="effect3_dropShadow_85_1232"/>
<feColorMatrix in="SourceAlpha" type="matrix" values="0 0 0 0 0 0 0 0 0 0 0 0 0 0 0 0 0 0 127 0" result="hardAlpha"/>
<feOffset/>
<feGaussianBlur stdDeviation="114.35"/>
<feColorMatrix type="matrix" values="0 0 0 0 0.180392 0 0 0 0 0.670588 0 0 0 0 0.529412 0 0 0 1 0"/>
<feBlend mode="normal" in2="effect3_dropShadow_85_1232" result="effect4_dropShadow_85_1232"/>
<feColorMatrix in="SourceAlpha" type="matrix" values="0 0 0 0 0 0 0 0 0 0 0 0 0 0 0 0 0 0 127 0" result="hardAlpha"/>
<feOffset/>
<feGaussianBlur stdDeviation="196.029"/>
<feColorMatrix type="matrix" values="0 0 0 0 0.180392 0 0 0 0 0.670588 0 0 0 0 0.529412 0 0 0 1 0"/>
<feBlend mode="normal" in2="effect4_dropShadow_85_1232" result="effect5_dropShadow_85_1232"/>
<feColorMatrix in="SourceAlpha" type="matrix" values="0 0 0 0 0 0 0 0 0 0 0 0 0 0 0 0 0 0 127 0" result="hardAlpha"/>
<feOffset/>
<feGaussianBlur stdDeviation="343.05"/>
<feColorMatrix type="matrix" values="0 0 0 0 0.180392 0 0 0 0 0.670588 0 0 0 0 0.529412 0 0 0 1 0"/>
<feBlend mode="normal" in2="effect5_dropShadow_85_1232" result="effect6_dropShadow_85_1232"/>
<feBlend mode="normal" in="SourceGraphic" in2="effect6_dropShadow_85_1232" result="shape"/>
</filter>
<filter id="filter2_i_85_1232" x="112.766" y="206.516" width="503.758" height="153.293" filterUnits="userSpaceOnUse" color-interpolation-filters="sRGB">
<feFlood flood-opacity="0" result="BackgroundImageFix"/>
<feBlend mode="normal" in="SourceGraphic" in2="BackgroundImageFix" result="shape"/>
<feColorMatrix in="SourceAlpha" type="matrix" values="0 0 0 0 0 0 0 0 0 0 0 0 0 0 0 0 0 0 127 0" result="hardAlpha"/>
<feOffset dx="-2" dy="-3"/>
<feGaussianBlur stdDeviation="2"/>
<feComposite in2="hardAlpha" operator="arithmetic" k2="-1" k3="1"/>
<feColorMatrix type="matrix" values="0 0 0 0 0.0392157 0 0 0 0 0.45098 0 0 0 0 0.356863 0 0 0 0.4 0"/>
<feBlend mode="normal" in2="shape" result="effect1_innerShadow_85_1232"/>
</filter>
</defs>
</svg>
