<svg width="25" height="24" fill="none" xmlns="http://www.w3.org/2000/svg"><path d="M12.2 0C5.572 0 .2 5.372.2 12s5.372 12 12 12 12-5.372 12-12-5.372-12-12-12zm4.615 13.539s1.061 1.047 1.322 1.534c.008.01.012.02.014.024.107.18.131.318.079.422-.088.172-.387.257-.49.265h-1.875c-.13 0-.402-.034-.732-.261-.254-.178-.504-.47-.748-.753-.364-.422-.679-.787-.996-.787a.38.38 0 00-.119.018c-.24.078-.547.42-.547 1.333 0 .285-.226.449-.384.449h-.859c-.293 0-1.816-.103-3.166-1.527-1.653-1.744-3.14-5.241-3.153-5.274-.094-.226.1-.347.311-.347h1.894c.253 0 .335.154.393.29.067.159.315.79.721 1.5.659 1.157 1.062 1.627 1.386 1.627a.38.38 0 00.174-.044c.423-.235.344-1.742.325-2.054 0-.059-.001-.674-.217-.969-.156-.214-.42-.295-.58-.325a.688.688 0 01.25-.211c.29-.145.812-.166 1.33-.166h.29c.562.007.707.043.91.095.413.098.422.364.386 1.276-.011.258-.023.551-.023.896 0 .075-.004.155-.004.24-.012.464-.027.99.3 1.206a.27.27 0 00.143.041c.114 0 .456 0 1.384-1.59.286-.513.534-1.045.743-1.593.02-.033.074-.133.14-.171a.333.333 0 01.154-.037h2.226c.243 0 .41.036.44.13.056.149-.01.603-1.026 1.979l-.453.599c-.922 1.207-.922 1.269.057 2.185z" fill="#fff"/></svg>