<svg width="52" height="45" viewBox="0 0 52 45" fill="none" xmlns="http://www.w3.org/2000/svg">
<path opacity="0.55" fill-rule="evenodd" clip-rule="evenodd" d="M39.5857 20.9988H51.0026V24.8175L43.0252 24.7753C42.6585 26.3066 42.299 27.8394 41.9394 29.3723L41.9388 29.3745C41.4171 31.5984 40.8955 33.8222 40.3523 36.0412L38.8627 42.1209C36.985 34.5257 35.1142 26.9298 33.2482 19.3318C32.0871 24.1595 30.9094 28.982 29.7276 33.8048C29.5885 33.2412 29.4492 32.6776 29.3099 32.1141L29.3089 32.1099L29.3089 32.1099C28.5491 29.0362 27.7895 25.9634 27.0644 22.8809L21.6438 44.9999H21.3775C19.3137 36.6364 17.2444 28.2745 15.175 19.9125L14.646 17.7745L13.4271 23.9281H0.484375V20.1518H9.78074L14.6416 0.443604C16.0522 6.14505 17.4593 11.8474 18.8664 17.5497C19.7648 21.1905 20.6632 24.8313 21.5625 28.4718C23.4101 21.0466 25.2496 13.6203 27.0769 6.18974L29.7063 16.8118L33.2105 2.29389L38.872 25.2374L39.5857 20.9988Z" fill="#777777"/>
</svg>
