<svg width="25" height="24" fill="none" xmlns="http://www.w3.org/2000/svg"><path d="M23.005 5.535C19.415 0 12.085-1.645 6.401 1.795.866 5.235-.93 12.715 2.66 18.25l.3.448-1.197 4.488 4.487-1.197.45.3c1.944 1.046 4.038 1.645 6.132 1.645 2.244 0 4.488-.599 6.432-1.795 5.535-3.59 7.18-10.92 3.74-16.604zm-3.141 11.518c-.599.897-1.347 1.496-2.394 1.645-.598 0-1.346.3-4.338-.897C10.59 16.604 8.495 14.659 7 12.416c-.897-1.048-1.346-2.394-1.496-3.74 0-1.197.45-2.244 1.197-2.992.3-.299.598-.449.898-.449h.748c.299 0 .598 0 .748.599.299.748 1.047 2.543 1.047 2.692.15.15.15.45 0 .599.15.299 0 .598-.15.748-.15.15-.3.448-.449.598-.299.15-.448.449-.299.748a17.22 17.22 0 002.094 2.543c.898.748 1.795 1.346 2.843 1.795.299.15.598.15.747-.15.15-.299.898-1.047 1.197-1.346.3-.3.449-.3.748-.15l2.393 1.197c.3.15.599.3.748.449.15.449.15 1.047-.15 1.496z" fill="#fff"/></svg>