<svg width="50" height="50" viewBox="0 0 50 50" fill="none" xmlns="http://www.w3.org/2000/svg">
<path d="M46.2607 11.5303C38.7813 -0.000381164 23.5109 -3.42843 11.6685 3.73931C0.137786 10.9071 -3.60191 26.4891 3.87748 38.0199L4.50076 38.9548L2.00763 48.304L11.3569 45.8109L12.2918 46.4342C16.3431 48.6157 20.7061 49.8622 25.0691 49.8622C29.7437 49.8622 34.4183 48.6157 38.4697 46.1225C50.0004 38.6431 53.4284 23.3727 46.2607 11.5303ZM39.7162 35.5267C38.4697 37.3966 36.9115 38.6431 34.73 38.9548C33.4834 38.9548 31.9252 39.5781 25.6924 37.0849C20.3945 34.5918 16.0315 30.5405 12.9151 25.8658C11.0452 23.6844 10.1103 20.8796 9.79867 18.0748C9.79867 15.5817 10.7336 13.4002 12.2918 11.842C12.9151 11.2187 13.5384 10.9071 14.1616 10.9071H15.7198C16.3431 10.9071 16.9664 10.9071 17.2781 12.1536C17.9013 13.7118 19.4595 17.4515 19.4595 17.7632C19.7712 18.0748 19.7712 18.6981 19.4595 19.0097C19.7712 19.633 19.4595 20.2563 19.1479 20.5679C18.8363 20.8796 18.5246 21.5029 18.213 21.8145C17.5897 22.1261 17.2781 22.7494 17.5897 23.3727C18.8363 25.2426 20.3945 27.1124 21.9527 28.6706C23.8225 30.2288 25.6924 31.4754 27.8739 32.4103C28.4971 32.7219 29.1204 32.722 29.4321 32.0987C29.7437 31.4754 31.3019 29.9172 31.9252 29.2939C32.5485 28.6706 32.8601 28.6706 33.4834 28.9823L38.4697 31.4754C39.0929 31.787 39.7162 32.0987 40.0279 32.4103C40.3395 33.3452 40.3395 34.5918 39.7162 35.5267Z" fill="#212121"/>
</svg>
