<svg width="46" height="46" fill="none" xmlns="http://www.w3.org/2000/svg"><path d="M37.076 30.904c-2.3 0-4.232 1.932-4.232 4.232 0 2.3 1.932 4.232 4.232 4.232 2.3 0 4.232-1.932 4.232-4.232a4.22 4.22 0 00-4.232-4.232zm-27.232 0c-2.3 0-4.232 1.932-4.232 4.232 0 2.3 1.932 4.232 4.232 4.232 2.3 0 4.232-1.932 4.232-4.232 0-2.392-1.84-4.232-4.232-4.232zM26.312 9.168a2 2 0 00-2-2H.92c-.46 0-.92.368-.92.92v16.216a2 2 0 002 2h22.312a2 2 0 002-2V9.168z" fill="#FF6C00"/><path d="M45.935 23.853c-.015-.023-.024-.026-.03-.053-.01-.055-.092-.12-.118-.17a.341.341 0 00-.063-.086l-6.9-8.74c-.184-.184-.46-.369-.736-.369H28.98c-.46 0-.92.46-.92.92v10.788a2 2 0 01-2 2H2a2 2 0 00-2 2v4.9c0 .46.46.92.92.92h2.019c.51 0 .833-.408.833-.92 0-3.311 2.76-6.071 6.072-6.071 3.312 0 6.072 2.76 6.072 6.072 0 .456.38.92.836.92H30.08c.51 0 .833-.41.833-.92 0-3.312 2.76-6.072 6.072-6.072 3.312 0 6.072 2.76 6.072 6.072 0 .456.38.92.836.92h1.188c.46 0 .92-.46.92-.92V24.188c0-.082 0-.237-.065-.335zM34.5 27.867h-1.564c-.46 0-.92-.46-.92-.92s.46-.92.92-.92H34.5c.46 0 .92.46.92.92s-.46.92-.92.92zm-2.508-4.6a2 2 0 01-2-2v-2.9a2 2 0 012-2h4.767a2 2 0 011.562.751l2.32 2.9c1.047 1.31.115 3.25-1.562 3.25h-7.087z" fill="#FF6C00"/></svg>