<svg width="46" height="46" fill="none" xmlns="http://www.w3.org/2000/svg"><path fill-rule="evenodd" clip-rule="evenodd" d="M42.819 9.172H2.998c-.628 0-1.199.257-1.613.671v-.001.001a2.275 2.275 0 00-.669 1.613v1.933h44.388v-1.933c0-.614-.244-1.172-.638-1.581l-.033-.032a2.278 2.278 0 00-1.613-.671h-.002zm-7.94 24.691a3.974 3.974 0 010-5.074 2.535 2.535 0 00-2 .734v.003a2.534 2.534 0 00-.742 1.8c0 .704.284 1.34.742 1.799v.002a2.535 2.535 0 001.998.735l.003.002zm3.062-5.08a2.536 2.536 0 00-2.539 2.373v.057a2.557 2.557 0 00.743 1.913c.46.46 1.096.745 1.799.745a2.54 2.54 0 001.8-.743v-.002a2.535 2.535 0 00.742-1.8c0-.704-.284-1.34-.743-1.799v-.003a2.535 2.535 0 00-1.8-.742h-.002zm7.161-13.962H.715v20.558c0 .613.243 1.171.638 1.58l.033.032a2.28 2.28 0 001.613.672h39.82c.627 0 1.198-.258 1.612-.672v.002-.002c.412-.412.669-.983.669-1.612l.002-20.558zm-7.16 12.529c1.093 0 2.087.445 2.808 1.165v.004a3.964 3.964 0 01-.002 5.616v.004a3.965 3.965 0 01-4.44.813 3.98 3.98 0 01-1.628.35 3.965 3.965 0 01-2.808-1.165v-.005a3.964 3.964 0 01.002-5.615v-.004a3.964 3.964 0 014.436-.813 3.951 3.951 0 011.631-.35zm-13.15-1.824a.716.716 0 010 1.432H5.447a.716.716 0 010-1.432h19.345z" fill="#FF6C00"/></svg>