<svg width="169" height="40" fill="none" xmlns="http://www.w3.org/2000/svg"><path d="M0 10C0 4.477 4.477 0 10 0h149c5.523 0 10 4.477 10 10v20c0 5.523-4.477 10-10 10H10C4.477 40 0 35.523 0 30V10z" fill="#F7F8FA"/><path d="M10.182 17.345a1.527 1.527 0 01.095-1.604 2.948 2.948 0 011.043-.937l4.688-2.44a3.233 3.233 0 012.984 0l4.687 2.442c.418.224.776.545 1.043.937a1.527 1.527 0 01.095 1.604 1.695 1.695 0 01-1.51.903H11.694a1.697 1.697 0 01-1.511-.905zm14.193 8.405a1.25 1.25 0 00-1.25-1.25v-5h-1.25v5H20v-5h-1.25v5h-2.5v-5H15v5h-1.875v-5h-1.25v5a1.25 1.25 0 00-1.25 1.25.625.625 0 100 1.25h13.75a.625.625 0 000-1.25zM36.057 24h3.273c1.875 0 2.897-1.057 2.897-2.574s-1.022-2.488-2.897-2.488h-2.216V16.21h4.21v-.937h-5.267V24zm1.057-.92v-3.205h2.216c1.193 0 1.858.699 1.858 1.534 0 .852-.665 1.67-1.858 1.67h-2.216zm9.46 1.056c1.33 0 2.302-.664 2.609-1.653l-.972-.273c-.255.682-.848 1.023-1.636 1.023-1.18 0-1.994-.763-2.041-2.165h4.751v-.426c0-2.438-1.449-3.273-2.812-3.273-1.773 0-2.95 1.398-2.95 3.41 0 2.01 1.16 3.357 3.052 3.357zm-2.04-3.937c.068-1.019.788-1.926 1.939-1.926 1.09 0 1.79.818 1.79 1.926h-3.73zm5.872 2.13c.034 1.074 1.061 1.807 2.454 1.807 1.432 0 2.472-.767 2.472-1.96 0-.818-.49-1.483-1.227-1.534v-.068c.622-.192 1.09-.644 1.09-1.38 0-1.036-.886-1.825-2.266-1.825-1.364 0-2.336.75-2.37 1.807h1.057c.03-.541.597-.92 1.364-.92.763 0 1.193.387 1.193.971 0 .546-.375.955-1.176.955h-1.125v.903h1.125c.8 0 1.312.44 1.312 1.091 0 .746-.66 1.057-1.466 1.057-.788 0-1.316-.311-1.363-.904h-1.074zm7.344-4.875h-1.005V24h1.005v-2.796h3.137V24h1.005v-6.546h-1.005v2.813H57.75v-2.813zm7.905 6.7c1.142 0 1.739-.614 1.943-1.04h.052V24h1.005v-4.313c0-2.079-1.585-2.318-2.42-2.318-.989 0-2.114.341-2.625 1.534l.954.341c.222-.477.746-.988 1.705-.988.924 0 1.38.49 1.38 1.33v.033c0 .486-.494.444-1.687.597-1.215.158-2.54.426-2.54 1.926 0 1.279.989 2.011 2.233 2.011zm.154-.904c-.802 0-1.381-.358-1.381-1.057 0-.767.699-1.006 1.483-1.108.426-.05 1.568-.17 1.739-.375v.92c0 .819-.648 1.62-1.841 1.62zm4.102.75h.341c1.449 0 1.867-1.125 1.96-3.273l.103-2.335h2.403V24h1.006v-6.546H71.36l-.12 2.898c-.084 2.2-.306 2.71-1.09 2.71h-.239V24zm8.664-1.483v-5.063h-1.006V24h1.176l3.136-5.063V24h1.006v-6.546h-1.159l-3.153 5.063zm11.2-5.063h-1.006v3.32c-.486.14-.985.226-1.585.226-.819 0-1.45-.46-1.45-1.466v-2.096H84.73v2.096c0 1.602.972 2.404 2.455 2.404.618 0 1.112-.081 1.585-.222V24h1.005v-6.546zm2.85 0H91.62V24h1.005v-2.796h3.137V24h1.005v-6.546h-1.005v2.813h-3.137v-2.813zm6.985 2.37v-2.37h-1.006V24h2.744c1.534 0 2.37-.938 2.37-2.114 0-1.193-.836-2.062-2.37-2.062H99.61zM104.757 24h1.006v-6.546h-1.006V24zm-5.147-3.239h1.738c.797 0 1.364.486 1.364 1.177 0 .66-.567 1.125-1.364 1.125H99.61V20.76zm9 1.756v-5.063h-1.006V24h1.176l3.137-5.063V24h1.005v-6.546h-1.159l-3.153 5.063zm2.488-7.244c0 .443-.238.835-.835.835-.596 0-.818-.392-.818-.835h-.938c0 .92.682 1.568 1.756 1.568 1.091 0 1.773-.648 1.773-1.568h-.938zm7.041 11.181h1.006v-3.46h.085c.222.358.648 1.142 1.909 1.142 1.637 0 2.779-1.312 2.779-3.392 0-2.062-1.142-3.375-2.796-3.375-1.278 0-1.67.784-1.892 1.125h-.119v-1.04h-.972v9zm.989-5.727c0-1.466.648-2.454 1.875-2.454 1.278 0 1.909 1.074 1.909 2.454 0 1.398-.648 2.506-1.909 2.506-1.21 0-1.875-1.023-1.875-2.506zm8.25 3.426c1.142 0 1.738-.613 1.943-1.04h.051V24h1.006v-4.313c0-2.079-1.585-2.318-2.421-2.318-.988 0-2.113.341-2.625 1.534l.955.341c.222-.477.746-.988 1.704-.988.925 0 1.381.49 1.381 1.33v.033c0 .486-.494.444-1.687.597-1.215.158-2.54.426-2.54 1.926 0 1.279.989 2.011 2.233 2.011zm.153-.903c-.801 0-1.38-.358-1.38-1.057 0-.767.698-1.006 1.483-1.108.426-.05 1.568-.17 1.738-.375v.92c0 .819-.648 1.62-1.841 1.62zm7.342.886c1.448 0 2.403-.886 2.573-2.045h-1.005c-.188.716-.784 1.142-1.568 1.142-1.194 0-1.961-.989-1.961-2.506 0-1.483.784-2.454 1.961-2.454.886 0 1.414.545 1.568 1.142h1.005c-.17-1.227-1.21-2.046-2.591-2.046-1.772 0-2.948 1.398-2.948 3.392 0 1.96 1.125 3.375 2.966 3.375zm9.089-6.681h-1.006v3.32c-.485.14-.984.225-1.585.225-.818 0-1.449-.46-1.449-1.466v-2.096h-1.005v2.096c0 1.602.971 2.404 2.454 2.404a5.37 5.37 0 001.585-.222V24h1.006v-6.546zm4.589 6.681c1.33 0 2.302-.664 2.608-1.653l-.971-.273c-.256.682-.848 1.023-1.637 1.023-1.18 0-1.994-.763-2.041-2.165h4.752v-.426c0-2.438-1.449-3.273-2.813-3.273-1.773 0-2.949 1.398-2.949 3.41 0 2.01 1.159 3.357 3.051 3.357zM146.51 20.2c.068-1.019.789-1.926 1.939-1.926 1.091 0 1.79.818 1.79 1.926h-3.729zm5.672-1.807h2.165V24h1.006v-5.608h2.147v-.938h-5.318v.938z" fill="#7C7C7C"/></svg>