<svg width="26" height="25" fill="none" xmlns="http://www.w3.org/2000/svg"><path d="M10 23a1 1 0 100-2 1 1 0 000 2zm11 0a1 1 0 100-2 1 1 0 000 2z" fill="#FF6C00" stroke="#FF6C00" stroke-width="2.5" stroke-linecap="round" stroke-linejoin="round"/><path d="M2 2h4l2.68 13.39a2 2 0 002 1.61h9.72a2 2 0 002-1.61L24 7H7" stroke="#FF6C00" stroke-width="2.5" stroke-linecap="round" stroke-linejoin="round"/><path d="M8 8h15v8H9L8 8z" fill="#FF6C00"/><circle cx="18.5" cy="7.5" r="6.5" fill="#FF6C00" stroke="#fff" stroke-width="2"/><path d="M16.333 8.042l1.625 1.625 3.25-3.25" stroke="#fff" stroke-width="1.625" stroke-linecap="round" stroke-linejoin="round"/></svg>