<svg width="159" height="40" fill="none" xmlns="http://www.w3.org/2000/svg"><path d="M0 10C0 4.477 4.477 0 10 0h139c5.523 0 10 4.477 10 10v20c0 5.523-4.477 10-10 10H10C4.477 40 0 35.523 0 30V10z" fill="#F7F8FA"/><g clip-path="url(#clip0_2711_8649)" fill="#7C7C7C"><path d="M31.677 14.08a2.33 2.33 0 00-2.322-2.322H12.323A2.33 2.33 0 0010 14.08v8.516a2.33 2.33 0 002.323 2.323 2.33 2.33 0 002.322 2.323h17.032A2.33 2.33 0 0034 24.919v-8.516a2.33 2.33 0 00-2.323-2.323zm-2.284 11.613H16.93c-.194-1.626-1.47-2.903-3.058-3.058v-3.948c1.626-.194 2.903-1.471 3.058-3.058h12.426c.193 1.626 1.47 2.903 3.058 3.058v3.91a3.459 3.459 0 00-3.02 3.096zm-15.522-8.555v-.735c0-.426.348-.774.774-.774h.736a1.899 1.899 0 01-1.51 1.51zm18.58-.735v.736a1.9 1.9 0 01-1.51-1.51h.736c.426 0 .775.348.775.774zm-20.903 6.194V14.08c0-.425.349-.774.775-.774h17.032c.426 0 .774.349.774.774H14.645a2.33 2.33 0 00-2.322 2.323v6.968a.776.776 0 01-.775-.774zm2.323 2.322v-.735a1.899 1.899 0 011.51 1.51h-.736a.776.776 0 01-.774-.775zm17.806.774h-.735a1.9 1.9 0 011.51-1.51v.736a.776.776 0 01-.775.774z"/><path d="M23.162 17.177a3.47 3.47 0 00-3.484 3.484 3.47 3.47 0 003.484 3.483 3.47 3.47 0 003.483-3.483 3.47 3.47 0 00-3.483-3.484zm0 5.42a1.917 1.917 0 01-1.936-1.936c0-1.084.852-1.936 1.936-1.936s1.935.852 1.935 1.936a1.917 1.917 0 01-1.935 1.935z"/></g><path d="M45.057 24h1.057v-3.903h4.653V24h1.057v-8.727h-1.057v3.886h-4.653v-3.886h-1.057V24zm10.672.153c1.142 0 1.739-.613 1.944-1.04h.05V24h1.006v-4.313c0-2.079-1.585-2.318-2.42-2.318-.989 0-2.114.341-2.625 1.534l.955.341c.221-.477.745-.988 1.704-.988.925 0 1.38.49 1.38 1.33v.033c0 .486-.494.444-1.687.597-1.214.158-2.54.426-2.54 1.926 0 1.279.99 2.011 2.233 2.011zm.154-.903c-.801 0-1.38-.358-1.38-1.057 0-.767.698-1.006 1.482-1.108.426-.05 1.568-.17 1.739-.375v.92c0 .819-.648 1.62-1.841 1.62zm4.102.75h.341c1.45 0 1.867-1.125 1.96-3.273l.103-2.335h2.403V24h1.006v-6.546h-4.364l-.119 2.898c-.085 2.2-.307 2.71-1.09 2.71h-.24V24zm8.664-1.483v-5.063h-1.006V24h1.176l3.137-5.063V24h1.005v-6.546h-1.159l-3.153 5.063zm11.2-5.063h-1.006v3.32c-.486.14-.984.226-1.585.226-.818 0-1.45-.46-1.45-1.466v-2.096h-1.005v2.096c0 1.602.972 2.404 2.455 2.404.618 0 1.112-.081 1.585-.222V24h1.006v-6.546zm2.85 0h-1.005V24H82.7v-2.796h3.136V24h1.006v-6.546h-1.006v2.813H82.7v-2.813zm6.985 2.37v-2.37h-1.006V24h2.745c1.534 0 2.369-.938 2.369-2.114 0-1.193-.835-2.062-2.37-2.062h-1.738zM94.832 24h1.005v-6.546h-1.005V24zm-5.148-3.239h1.739c.796 0 1.363.486 1.363 1.177 0 .66-.567 1.125-1.363 1.125h-1.74V20.76zm9 1.756v-5.063h-1.006V24h1.176l3.137-5.063V24h1.005v-6.546h-1.159l-3.153 5.063zm2.489-7.244c0 .443-.239.835-.836.835-.596 0-.818-.392-.818-.835h-.937c0 .92.681 1.568 1.755 1.568 1.091 0 1.773-.648 1.773-1.568h-.937zm7.04 11.181h1.006v-3.46h.085c.222.358.648 1.142 1.909 1.142 1.637 0 2.779-1.312 2.779-3.392 0-2.062-1.142-3.375-2.796-3.375-1.278 0-1.67.784-1.892 1.125h-.119v-1.04h-.972v9zm.989-5.727c0-1.466.648-2.454 1.875-2.454 1.278 0 1.909 1.074 1.909 2.454 0 1.398-.648 2.506-1.909 2.506-1.21 0-1.875-1.023-1.875-2.506zm8.25 3.426c1.142 0 1.739-.613 1.943-1.04h.051V24h1.006v-4.313c0-2.079-1.585-2.318-2.42-2.318-.989 0-2.114.341-2.625 1.534l.954.341c.222-.477.746-.988 1.705-.988.924 0 1.38.49 1.38 1.33v.033c0 .486-.494.444-1.687.597-1.215.158-2.54.426-2.54 1.926 0 1.279.989 2.011 2.233 2.011zm.153-.903c-.801 0-1.38-.358-1.38-1.057 0-.767.699-1.006 1.483-1.108.426-.05 1.568-.17 1.738-.375v.92c0 .819-.647 1.62-1.841 1.62zm7.342.886c1.449 0 2.403-.886 2.574-2.045h-1.006c-.188.716-.784 1.142-1.568 1.142-1.193 0-1.96-.989-1.96-2.506 0-1.483.784-2.454 1.96-2.454.886 0 1.415.545 1.568 1.142h1.006c-.171-1.227-1.211-2.046-2.591-2.046-1.773 0-2.949 1.398-2.949 3.392 0 1.96 1.125 3.375 2.966 3.375zm9.089-6.681h-1.005v3.32a5.52 5.52 0 01-1.586.225c-.818 0-1.449-.46-1.449-1.466v-2.096h-1.005v2.096c0 1.602.971 2.404 2.454 2.404.618 0 1.113-.081 1.586-.222V24h1.005v-6.546zm4.59 6.681c1.329 0 2.301-.664 2.608-1.653l-.972-.273c-.256.682-.848 1.023-1.636 1.023-1.181 0-1.995-.763-2.041-2.165h4.751v-.426c0-2.438-1.449-3.273-2.813-3.273-1.772 0-2.948 1.398-2.948 3.41 0 2.01 1.159 3.357 3.051 3.357zm-2.041-3.937c.068-1.019.788-1.926 1.938-1.926 1.091 0 1.79.818 1.79 1.926h-3.728zm5.671-1.807h2.165V24h1.006v-5.608h2.148v-.938h-5.319v.938z" fill="#7C7C7C"/><defs><clipPath id="clip0_2711_8649"><path fill="#fff" transform="translate(10 11.758)" d="M0 0h24v15.484H0z"/></clipPath></defs></svg>