<svg width="66" height="40" fill="none" xmlns="http://www.w3.org/2000/svg"><path d="M.585 10c0-5.523 4.477-10 10-10h44.996c5.522 0 10 4.477 10 10v20c0 5.523-4.478 10-10 10H10.585c-5.523 0-10-4.477-10-10V10z" fill="#F7F8FA"/><path d="M31.865 19.797v5.201h-1.662V12.153h4.407a4.01 4.01 0 012.853 1.112 3.576 3.576 0 011.192 2.711 3.537 3.537 0 01-1.192 2.726c-.77.73-1.721 1.094-2.853 1.094h-2.745zm0-6.062v4.483h2.786a2.209 2.209 0 001.644-.664 2.189 2.189 0 00.668-1.57 2.176 2.176 0 00-.668-1.569 2.167 2.167 0 00-1.644-.681h-2.786zm10.619 2.188c1.229 0 2.198.326 2.909.978.71.651 1.066 1.545 1.065 2.68v5.417h-1.59v-1.22h-.072c-.688 1.005-1.603 1.507-2.745 1.507-.975 0-1.79-.287-2.447-.86a2.75 2.75 0 01-.984-2.153c0-.91.346-1.633 1.038-2.17.692-.537 1.616-.806 2.772-.807.986 0 1.799.179 2.437.538v-.377a1.867 1.867 0 00-.686-1.46 2.363 2.363 0 00-1.604-.602c-.928 0-1.662.388-2.203 1.166l-1.463-.915c.805-1.148 1.996-1.722 3.573-1.722zm-2.15 6.385a1.31 1.31 0 00.552 1.076c.367.287.823.44 1.291.43a2.658 2.658 0 001.869-.77c.55-.515.826-1.119.826-1.811-.519-.41-1.24-.615-2.168-.615-.675 0-1.237.161-1.688.485-.455.327-.681.726-.681 1.205zM55.58 16.21l-5.548 12.662h-1.715l2.059-4.43-3.648-8.232h1.806l2.636 6.313h.036l2.565-6.313h1.81z" fill="#5F6368"/><path d="M25.151 18.676c0-.503-.042-1.005-.128-1.5h-7.007v2.842h4.013a3.4 3.4 0 01-1.484 2.242v1.845h2.395c1.403-1.284 2.211-3.183 2.211-5.429z" fill="#4285F4"/><path d="M18.015 25.887c2.005 0 3.694-.654 4.925-1.782l-2.396-1.844c-.666.449-1.525.705-2.53.705-1.937 0-3.582-1.298-4.17-3.046h-2.468v1.901a7.398 7.398 0 002.74 2.967 7.468 7.468 0 003.899 1.099z" fill="#34A853"/><path d="M13.844 19.92a4.392 4.392 0 010-2.825v-1.9h-2.468a7.337 7.337 0 000 6.626l2.468-1.901z" fill="#FBBC04"/><path d="M18.015 14.05a4.05 4.05 0 012.85 1.106l2.121-2.106a7.167 7.167 0 00-4.971-1.922 7.47 7.47 0 00-3.9 1.099 7.4 7.4 0 00-2.739 2.967l2.468 1.901c.588-1.748 2.233-3.046 4.17-3.046z" fill="#EA4335"/></svg>