<svg width="33" height="33" fill="none" xmlns="http://www.w3.org/2000/svg"><path fill="#fff" d="M.5.5h32v32H.5z"/><path d="M28 16.919a13.786 13.786 0 00-.202-2.37H16.732v4.488h6.338a5.37 5.37 0 01-.807 2.009 5.413 5.413 0 01-1.536 1.532v2.913h3.782C26.724 23.464 28 20.465 28 16.92z" fill="#4285F4"/><path d="M16.733 28.306c3.166 0 5.832-1.032 7.777-2.813l-3.783-2.913c-1.053.71-2.409 1.114-3.994 1.114-3.06 0-5.659-2.05-6.587-4.81H6.249v3.002a11.683 11.683 0 004.325 4.686 11.795 11.795 0 006.159 1.734z" fill="#34A853"/><path d="M10.146 18.883a6.936 6.936 0 010-4.46v-3.002H6.249a11.587 11.587 0 000 10.465l3.897-3.003z" fill="#FBBC04"/><path d="M16.733 9.613c1.673-.027 3.29.6 4.5 1.748l3.35-3.326a11.318 11.318 0 00-7.85-3.034c-2.175 0-4.307.6-6.159 1.734a11.683 11.683 0 00-4.325 4.686l3.897 3.002c.928-2.76 3.526-4.81 6.587-4.81z" fill="#EA4335"/></svg>