<svg width="69" height="40" fill="none" xmlns="http://www.w3.org/2000/svg"><path d="M0 10C0 4.477 4.477 0 10 0h48.685c5.523 0 10 4.477 10 10v20c0 5.523-4.477 10-10 10H10C4.477 40 0 35.523 0 30V10z" fill="#F7F8FA"/><path d="M22.053 34.966v-1.993a1.184 1.184 0 00-1.247-1.262 1.226 1.226 0 00-1.114.565 1.165 1.165 0 00-1.047-.565 1.047 1.047 0 00-.929.472v-.392h-.69v3.175h.697v-1.76a.745.745 0 01.776-.844c.457 0 .69.3.69.837v1.767h.696v-1.76a.75.75 0 01.776-.844c.47 0 .696.3.696.837v1.767h.696zm10.306-3.175h-1.127v-.963h-.697v.963h-.643v.631h.643v1.448c0 .738.286 1.176 1.101 1.176.305 0 .604-.084.863-.246l-.2-.591a1.27 1.27 0 01-.61.18c-.345 0-.457-.213-.457-.532v-1.435h1.127v-.631zm5.883-.08a.934.934 0 00-.836.465v-.385h-.683v3.175h.69v-1.78c0-.525.225-.817.676-.817.148-.002.294.025.431.08l.212-.651a1.474 1.474 0 00-.49-.087zm-8.894.332a2.368 2.368 0 00-1.293-.332c-.802 0-1.32.386-1.32 1.017 0 .518.385.837 1.095.936l.325.047c.378.053.557.153.557.332 0 .246-.252.385-.723.385a1.689 1.689 0 01-1.055-.332l-.325.538a2.29 2.29 0 001.373.412c.915 0 1.446-.432 1.446-1.036 0-.558-.418-.85-1.108-.95l-.325-.047c-.298-.04-.537-.1-.537-.312 0-.232.226-.372.604-.372.347.005.687.099.988.272l.298-.558zm18.477-.332a.934.934 0 00-.836.465v-.385h-.683v3.175h.69v-1.78c0-.525.225-.817.676-.817.148-.002.294.025.431.08l.212-.651a1.475 1.475 0 00-.49-.087zm-8.887 1.668a1.606 1.606 0 001.691 1.667c.414.02.821-.114 1.14-.379l-.33-.558c-.24.182-.53.282-.83.286a1.016 1.016 0 01-.955-1.016 1.019 1.019 0 01.955-1.017c.3.004.59.104.83.286l.33-.558a1.66 1.66 0 00-1.14-.379 1.6 1.6 0 00-1.691 1.668zm6.46 0V31.79h-.69v.385a1.203 1.203 0 00-1.002-.465 1.666 1.666 0 00-1.585 1.668 1.671 1.671 0 001.585 1.667 1.201 1.201 0 001.002-.465v.385h.69V33.38zm-2.567 0a.962.962 0 011.178-.881.96.96 0 01.663 1.314.96.96 0 01-1.841-.433zm-8.323-1.668a1.665 1.665 0 00-1.578 1.69 1.67 1.67 0 001.624 1.645c.474.017.936-.142 1.3-.445l-.338-.512a1.51 1.51 0 01-.922.333.88.88 0 01-.948-.778H36a3.2 3.2 0 00.013-.265c-.006-.99-.616-1.668-1.505-1.668zm-.013.618a.786.786 0 01.802.77h-1.645a.818.818 0 01.843-.77zm17.302 1.05v-2.863h-.69v1.66a1.203 1.203 0 00-1.001-.465 1.666 1.666 0 00-1.585 1.668 1.671 1.671 0 001.585 1.667 1.2 1.2 0 001.001-.465v.385h.69V33.38zm1.15 1.127a.316.316 0 01.227.093.32.32 0 01.093.223.313.313 0 01-.195.29.32.32 0 01-.447-.29.31.31 0 01.093-.223.325.325 0 01.23-.092zm0 .562a.234.234 0 00.172-.072.248.248 0 00-.077-.4.246.246 0 00-.342.226.248.248 0 00.15.226c.03.013.064.02.097.02zm.018-.394a.133.133 0 01.087.025.084.084 0 01.03.069.079.079 0 01-.023.06.116.116 0 01-.07.028l.096.111h-.075l-.089-.11h-.028v.11h-.063v-.293h.135zm-.072.055v.078h.072a.07.07 0 00.04-.01.034.034 0 00.014-.03.034.034 0 00-.004-.016.033.033 0 00-.01-.012.07.07 0 00-.04-.01h-.072zm-3.662-1.35a.962.962 0 011.177-.881.96.96 0 01.663 1.314.96.96 0 01-1.261.508.95.95 0 01-.58-.941zm-23.291 0V31.79h-.69v.385a1.203 1.203 0 00-1.002-.465 1.665 1.665 0 00-1.585 1.668 1.67 1.67 0 001.585 1.667 1.201 1.201 0 001.002-.465v.385h.69V33.38zm-2.567 0a.962.962 0 011.178-.881.96.96 0 01.663 1.314.961.961 0 01-1.787-.047.955.955 0 01-.054-.386z" fill="#261C15"/><path d="M39.566 7.59H29.119v18.805h10.447V7.59z" fill="#FF5F00"/><path d="M29.782 16.993a11.955 11.955 0 014.56-9.402 11.929 11.929 0 00-12.596-1.354 11.946 11.946 0 00-4.902 4.411 11.973 11.973 0 000 12.69 11.945 11.945 0 004.902 4.41 11.922 11.922 0 0012.596-1.353 11.935 11.935 0 01-4.56-9.402z" fill="#EB001B"/><path d="M53.66 16.992c0 2.244-.631 4.442-1.82 6.344a11.945 11.945 0 01-4.902 4.412 11.92 11.92 0 01-12.595-1.354 11.956 11.956 0 004.56-9.402 11.976 11.976 0 00-4.56-9.402 11.928 11.928 0 0117.497 3.057 11.973 11.973 0 011.82 6.345zm-1.141 7.412v-.384h.155v-.079h-.395v.079h.155v.384h.085zm.766 0v-.464h-.12l-.14.32-.14-.32h-.12v.464h.085v-.35l.13.302h.09l.13-.303v.35h.085z" fill="#F79E1B"/></svg>