<svg width="67" height="40" fill="none" xmlns="http://www.w3.org/2000/svg"><path d="M.085 10c0-5.523 4.477-10 10-10h46.5c5.523 0 10 4.477 10 10v20c0 5.523-4.477 10-10 10h-46.5c-5.523 0-10-4.477-10-10V10z" fill="#F7F8FA"/><path d="M51.805 13.264h-8.953c.522 2.955 3.39 5.736 6.52 5.736h7.126c.087-.26.087-.695.087-.956 0-2.607-2.173-4.78-4.78-4.78z" fill="url(#paint0_linear_2711_8651)"/><path d="M43.635 19.521v7.214h4.346v-3.824h3.824c2.086 0 3.911-1.477 4.52-3.39h-12.69zm-15.298-6.257v13.385h3.824s.956 0 1.478-.956c2.607-5.128 3.39-6.693 3.39-6.693h.521v7.649h4.346V13.264H38.07s-.956.087-1.477.956c-2.173 4.432-3.39 6.692-3.39 6.692h-.521v-7.648h-4.346zM10.085 26.736V13.35h4.346s1.217 0 1.912 1.912c1.738 5.04 1.912 5.736 1.912 5.736s.348-1.217 1.912-5.736c.695-1.912 1.912-1.912 1.912-1.912h4.346v13.385H22.08v-7.214h-.521l-2.434 7.214h-1.912l-2.434-7.214h-.521v7.214h-4.172z" fill="#4FAD50"/><defs><linearGradient id="paint0_linear_2711_8651" x1="42.837" y1="16.173" x2="56.554" y2="16.173" gradientUnits="userSpaceOnUse"><stop stop-color="#27B1E6"/><stop offset="1" stop-color="#148ACA"/></linearGradient></defs></svg>