<svg width="36" height="42" fill="none" xmlns="http://www.w3.org/2000/svg"><g clip-path="url(#clip0_3219_35339)"><path d="M4.39 40.199V.944h18.02l9.223 9.213V40.2H4.39z" fill="#fff"/><path d="M22.023 1.887l8.668 8.661v28.705H5.337V1.887h16.686zM22.803 0H3.45v41.14h29.13V9.764L22.803 0z" fill="#000"/><path d="M31.633 40.2H4.39V.943h18.02l.213.214v8.795h8.802l.207.205v30.041z" fill="#fff"/><path d="M21.68 1.888v9.008h9.008v28.359H5.332V1.888H21.68zM22.8 0H3.445v41.143h29.13V9.766l-.76-.758h-8.249V.766L22.8 0z" fill="#000"/><path d="M28.759 8.468h-4.564V3.856l4.564 4.45v.162z" fill="#000"/><path d="M25.142 6.096l1.464 1.428h-1.464V6.096zm-.59-3.213h-1.298v6.53h6.45V7.908l-5.152-5.026z" fill="#000"/><path d="M35.081 31.684H.937V17.9l1.74-1.74v2.19h30.665v-2.19l1.74 1.74v13.784z" fill="#ED1C24"/><path d="M34.11 18.012l.207.206v12.7H1.707v-12.7l.206-.206v1.105H34.11v-1.105zm-1.534-3.703v3.274H3.446v-3.274L.172 17.583V32.45H35.85V17.583l-3.274-3.274z" fill="#ED1C24"/><path d="M5.516 30.17v-9.817H9.11a6.81 6.81 0 011.526.166c.483.1.906.282 1.269.544.362.252.65.589.86 1.012.222.413.333.926.333 1.54 0 .605-.11 1.123-.332 1.556a3.03 3.03 0 01-.861 1.073c-.363.272-.78.478-1.254.619-.473.13-.967.196-1.48.196H8.114v3.112H5.516zm2.598-5.165h.936c.514 0 .891-.12 1.133-.362.252-.242.377-.584.377-1.027 0-.444-.136-.756-.407-.937-.272-.181-.66-.272-1.163-.272h-.876v2.598zm6.589 5.165v-9.817h2.9c.745 0 1.425.09 2.04.272a4.096 4.096 0 011.6.86c.443.394.786.897 1.027 1.511.252.614.378 1.355.378 2.22 0 .867-.12 1.612-.363 2.236-.241.624-.584 1.138-1.027 1.54-.433.403-.951.7-1.555.892a6.327 6.327 0 01-1.949.287h-3.05zm2.598-2.084h.151a4 4 0 00.997-.12 1.91 1.91 0 00.8-.454c.232-.211.413-.503.544-.876.131-.372.197-.845.197-1.42 0-.573-.066-1.042-.197-1.404-.13-.363-.312-.645-.543-.846a1.734 1.734 0 00-.801-.408 3.975 3.975 0 00-.997-.12h-.15v5.649zm7.094 2.084v-9.817h6.404v2.175h-3.806v1.873h3.262v2.175h-3.262v3.595h-2.598z" fill="#fff"/></g><defs><clipPath id="clip0_3219_35339"><path fill="#fff" d="M0 0h36v41.143H0z"/></clipPath></defs></svg>