<svg width="32" height="33" fill="none" xmlns="http://www.w3.org/2000/svg"><path fill="#fff" d="M0 .5h32v32H0z"/><path d="M28 9.327c-.857.367-1.837.612-2.816.734.98-.612 1.836-1.592 2.204-2.694-.98.613-1.96.98-3.184 1.225C23.347 7.612 22 7 20.654 7a4.912 4.912 0 00-4.899 4.898c0 .367 0 .735.123 1.102A14.434 14.434 0 015.714 7.857c-.367.735-.612 1.592-.612 2.45a4.73 4.73 0 002.204 4.04 4.229 4.229 0 01-2.204-.612c0 2.326 1.714 4.408 3.918 4.775-.367.123-.857.123-1.347.123-.367 0-.612 0-.98-.123.613 1.96 2.45 3.429 4.654 3.429-1.714 1.347-3.796 2.081-6.123 2.081-.367 0-.734 0-1.224-.122 2.204 1.347 4.776 2.204 7.592 2.204 9.061 0 13.959-7.47 13.959-13.96v-.611c.98-.368 1.837-1.225 2.449-2.204z" fill="#55ACE3"/></svg>