<svg width="74" height="40" fill="none" xmlns="http://www.w3.org/2000/svg"><path d="M.686 10c0-5.523 4.477-10 10-10h52.4c5.522 0 10 4.477 10 10v20c0 5.523-4.478 10-10 10h-52.4c-5.523 0-10-4.477-10-10V10z" fill="#F7F8FA"/><path d="M59.561 12.185h-3.294c-.996 0-1.762.307-2.222 1.303l-6.281 14.326h4.443s.766-1.916.92-2.375h5.438c.154.536.537 2.298.537 2.298h3.983l-3.524-15.551zm-5.209 10.036c.383-.92 1.685-4.366 1.685-4.366 0 .076.383-.92.537-1.456l.306 1.379s.843 3.754.996 4.52h-3.524v-.077zm-6.282.46c0 3.218-2.91 5.363-7.43 5.363-1.916 0-3.754-.383-4.75-.843l.612-3.524.537.23c1.379.613 2.298.843 3.983.843 1.226 0 2.529-.46 2.529-1.532 0-.69-.537-1.15-2.222-1.916-1.609-.766-3.754-1.992-3.754-4.213 0-3.064 2.988-5.133 7.201-5.133 1.609 0 2.988.306 3.83.69l-.612 3.37-.307-.306c-.766-.307-1.762-.613-3.217-.613-1.609.077-2.375.766-2.375 1.379 0 .69.92 1.226 2.375 1.915 2.451 1.15 3.6 2.452 3.6 4.29z" fill="#3362AB"/><path d="M10.685 12.34l.077-.307h6.588c.92 0 1.61.307 1.84 1.303l1.455 6.894c-1.456-3.677-4.827-6.665-9.96-7.89z" fill="#F9B50B"/><path d="M29.915 12.186L23.25 27.738h-4.52L14.9 14.714c2.757 1.762 5.056 4.52 5.898 6.435l.46 1.609 4.137-10.649h4.52v.077zm1.761-.076h4.214l-2.681 15.628h-4.214l2.681-15.629z" fill="#3362AB"/></svg>