<svg width="33" height="33" fill="none" xmlns="http://www.w3.org/2000/svg"><path d="M30.064 23.001c0-.11-.111-.11-.111-.221-.443-.886-1.44-1.993-2.767-3.21-.665-.554-.997-.997-1.218-1.218-.332-.443-.332-.775-.222-1.218.111-.332.554-.885 1.329-1.882.443-.553.664-.885.996-1.217 1.66-2.214 2.435-3.653 2.214-4.317l-.11-.111c-.111-.11-.222-.221-.444-.221-.22-.111-.553-.111-.885 0h-4.981l-.111.11c-.11.111-.11.111-.11.222-.444 1.217-.997 2.214-1.55 3.32-.333.554-.665 1.108-.997 1.55-.332.443-.553.775-.775.997-.221.221-.442.332-.553.553-.11.11-.332.221-.332.11-.111 0-.222 0-.222-.11l-.332-.332c-.11-.11-.11-.332-.221-.553V9.718c0-.111-.11-.332-.11-.443-.112-.11-.222-.222-.333-.332-.11-.11-.332-.11-.443-.222a9.928 9.928 0 00-1.992-.221c-1.772 0-2.99.11-3.432.332-.221.11-.443.221-.553.443-.222.221-.222.332-.111.332.553.11.996.332 1.218.664l.11.222c.111.11.11.332.222.664.11.332.11.664.11 1.107v1.77c0 .554-.11.886-.11 1.218 0 .333-.111.554-.222.665-.11.221-.11.332-.221.332 0 0 0 .11-.11.11-.112 0-.222.111-.444.111-.11 0-.332-.11-.442-.221a1.334 1.334 0 01-.554-.554c-.221-.221-.443-.553-.664-.996-.221-.443-.554-.886-.775-1.55l-.221-.442a15.956 15.956 0 01-.554-1.218c-.221-.554-.443-.996-.664-1.55a1.528 1.528 0 00-.332-.443h-.11s-.112-.11-.222-.11-.222-.111-.332-.111H3.386c-.443 0-.665.11-.775.221l-.111.111v.221c0 .111 0 .222.11.443.554 1.329 1.218 2.657 1.883 3.985.664 1.218 1.328 2.325 1.77 3.1.554.775.997 1.55 1.55 2.214.554.664.886 1.107.997 1.328l.443.443.332.332c.221.221.553.554.996.886.443.332.996.664 1.55.996.553.332 1.217.553 1.881.775.775.221 1.44.332 2.104.221h1.66c.332 0 .554-.11.775-.332l.11-.11c0-.111.111-.111.111-.222v-.443c0-.443 0-.775.111-1.107.11-.332.11-.553.222-.775.11-.221.221-.332.332-.443l.221-.22h.11c.222-.112.554 0 .776.22.332.222.664.554.885.886.222.332.554.664.997 1.107.442.443.774.775.996.886l.332.221c.221.11.443.221.775.332.332.11.553.11.775.11l3.763-.11c.332 0 .665-.11.886-.221.221-.111.332-.222.332-.443v-.443c-.221-.221-.221-.332-.221-.443z" fill="#7294C7"/></svg>