<svg width="40" height="40" fill="none" xmlns="http://www.w3.org/2000/svg"><circle cx="20" cy="20" r="20" fill="#F40000"/><path d="M28.713 18.913c0-.388-.065-.84-.065-1.357a88.402 88.402 0 00-.194-1.487c-.129-.517-.323-.905-.71-1.229-.324-.323-.776-.517-1.229-.581-1.487-.194-3.685-.259-6.658-.259-2.974 0-5.237.065-6.659.259-.453.064-.905.258-1.228.581a2.58 2.58 0 00-.711 1.229c-.13.452-.194.905-.194 1.487-.065.517-.065.97-.065 1.357v2.974c0 .388.065.84.065 1.357.064.518.129 1.035.194 1.487.129.517.323.905.71 1.229.324.323.777.517 1.229.581 1.487.194 3.685.259 6.659.259 2.973 0 5.236-.065 6.658-.259.453-.064.905-.258 1.228-.581.324-.324.582-.712.712-1.229a5.19 5.19 0 00.194-1.487c.064-.517.064-.97.064-1.357v-2.974zm-5.43 2.004l-5.107 3.168a.494.494 0 01-.323.13c-.13 0-.194 0-.324-.066a.679.679 0 01-.323-.581v-6.4a.68.68 0 01.323-.582.587.587 0 01.647 0l5.107 3.168c.194.129.323.323.323.517s-.13.517-.323.646z" fill="#fff"/></svg>