<svg xmlns="http://www.w3.org/2000/svg" width="458.434" height="184.232" viewBox="0 0 12129.44 4874.47" shape-rendering="geometricPrecision" text-rendering="geometricPrecision" image-rendering="optimizeQuality" fill-rule="evenodd" clip-rule="evenodd"><g fill="#fefefe"><path d="M5098.3 2262.91c-40.53 31.54-92.22 56.12-157.19 70.99-65.34 14.86-136.71 21.37-215.28 21.37-38.58 0-94.21-.14-167.52-1.11-72.97-1.12-163.84-3.45-273.53-5.4l-13.27-13.02V1077.13l13.27-13.4c71.85-1.95 147.26-4.77 225.24-5.99 77.88-.87 159.65-1.84 245.64-1.84 106.22 0 194.78 17.44 265.52 51.07 71.34 33.28 127.6 79.58 170.59 138.03 42.23 59.22 72.2 127.63 89.54 206.83 17.69 79.24 25.76 164.56 25.76 254.97 0 125.65-13.99 232.97-42.71 324.22-28.38 90.41-83.66 168.25-166.06 231.89zm-344.48-140.75c164.94 0 247.1-138.17 247.1-415.36 0-277.67-82.16-416.33-247.1-416.33h-105.77c-30.07 0-56.36-1.5-79.2-2.33v835.97c22.84-1.95 49.13-1.95 79.2-1.95h105.77zm1071.42-495.32v718.34c-20.75 3.58-43.97 5.53-69.39 7.86-23.95 1.99-49.75 2.23-76.52 2.23-26.04 0-51.56-.24-77.11-2.23-25.8-2.33-49.02-4.28-70.39-7.86V1725.6c0-72.48-28.86-108.09-87.8-108.09h-28.13c-7.62-23.71-11.04-57.1-11.04-99.12 0-41.88 3.42-76.52 11.04-104.61 32.79-2.47 62.28-4.91 89.64-6.27 27.3-2.23 52.47-3.44 74.68-3.44h41.53c63.22 0 113.46 20.01 149.32 60.29 36.13 39.93 54.17 94.21 54.17 162.48zm-327.04-591.2c36.1-20.16 82.89-29.11 140.12-29.11 58.7 0 103.89 8.95 136.58 29.11 15.1 34.01 22.45 70.49 22.45 109.03 0 38.19-7.35 74.08-22.45 108.2-35.86 19.43-83.66 27.64-142.36 27.64-58.69 0-103.29-8.21-134.34-27.64-14.76-34.12-22.11-70.01-22.11-108.2 0-38.54 7.35-75.02 22.11-109.03zm473.56 1245.79c.88-32.65 9.33-68.89 24.79-106.94 15.6-38.58 34.15-69.14 55.15-91.88 99.98 52.68 186.7 78.96 259.88 78.96 34.88 0 62.14-6.13 80.45-17.44 18.8-11.91 28.38-28.23 28.38-47.76 0-37.32-29.11-65.35-86.24-84.25l-102.52-39.69c-156.11-56.61-233.98-150.43-233.98-280.49 0-94.21 32.44-169.37 97.75-224.27 65.49-55.98 154.16-83.86 264.79-83.86 54.8 0 115.2 7.38 181.42 23.7 66.07 14.97 120.21 33.39 162.96 54.76 2.96 34.5-4.91 73.08-20.65 115.34-16.57 41.5-36.2 71.23-60.16 88.53-104.75-47.52-191.71-70.98-261.72-70.98-24.68 0-43.83 5.39-56.85 16.95-13.16 11.42-19.67 25.07-19.67 42.75 0 29.84 23.6 53.41 71.12 70.74l115.58 41.5c166.27 58.21 248.92 158.54 248.92 301.03 0 93.44-34.12 167.77-102.53 222.53-69.03 54.76-166.68 82.3-293.89 82.3-127.14 0-244.78-29.73-352.98-91.53zm1368.28-456.47v-24.44c0-69.52-7.25-120.49-22.11-151.68-15.25-32.45-43.38-48.29-84.49-48.29-43.62 0-74.09 21.27-91.63 64.62-17.44 43.1-25.8 114.08-25.8 214.41 0 49.4 3.07 91.39 10.31 125.4 6.89 33.91 16.36 60.44 29.73 81.32 12.67 20.27 29.34 34.89 49.5 44.81 19.88 8.98 43.48 13.75 70.74 13.75 28.62 0 60.3-6.47 96.05-18.9 34.61-12.54 72.07-32.17 111.61-59.81 11.08 5.92 23.12 15.11 34.64 27.26 11.81 11.94 23.08 24.68 32.8 39.93 10.3 14.62 18.55 31.29 26.42 47.76 7.35 16.71 12.74 33.18 16.92 48.15-41.36 43.24-94.8 78.12-160.87 104.65-66.32 25.55-133.37 39.06-201.78 39.06-133.86 0-236.07-43.38-306.92-130.69-71.22-87.7-106.73-211.25-106.73-372.26 0-82.51 11.55-154.36 34.39-215.15 23.33-61.06 53.68-111.4 91.98-151.33 37.95-39.65 81.67-69.87 130.55-89.75 49.4-20.16 100.85-29.97 154.15-29.97 55.25 0 105.14 7.38 150.19 22.21 46.3 14.86 85.6 35.85 118.4 64.23 32.79 26.52 58.35 59.81 76.62 97.79 18.45 37.7 27.02 79.93 27.02 126.37 0 52.29-15.08 88.29-45.78 110.15-30.36 20.75-68.17 31.68-112.87 31.68-37.84 0-71.61-3.79-103.04-11.28zm1080.99-330.87c89.54 89.4 134.86 218.25 134.86 385.49 0 74.43-9.81 142.35-29.34 203.03-18.94 61.52-47.04 113.6-84.15 156.94-36.73 42.75-81.91 75.41-135.6 98.53-53.4 23.18-114.95 34.88-184.82 34.88-70.01 0-131.18-11.7-184.58-35.51-52.81-23.95-97.9-56.61-134.49-100.33-36.48-42.37-64.71-94.84-83.13-155.86-18.94-61.17-28.51-128.57-28.51-201.68 0-75.02 9.57-142.7 28.51-202.99 18.42-60.68 46.65-112.87 82.4-156.94 35.48-43.73 80.32-76.52 134.59-101.34 53.44-22.7 115.2-34.5 185.21-34.5 123.06 0 223.05 36.1 299.05 110.28zm-298.18 108.2c-27.89 0-50.1 7.25-67.19 19.53-16.95 13.13-30.22 30.47-39.9 53.79-10.82 22.46-16.95 47.9-21.37 77.01-3.59 30.08-5.29 60.64-5.29 94.45 0 52.91 1.7 97.86 4.56 135.8 3.06 38.19 9.43 70.5 19.25 95.81 8.84 25.07 22.11 43.48 39.06 56.61 16.95 12.67 39.3 19.04 66.95 19.04 55.24 0 91.73-24.54 109.66-72.83 16.85-47.66 25.93-115.55 25.93-204.25 0-89.75-9.08-158.16-25.93-204.95-17.93-46.44-53.06-70.01-105.73-70.01zm943.44 519.87l162.48-708.38c34.64-7.76 74.43-10.93 117.67-10.93 53.78 0 100.33 7.48 140.5 21.48l9.19 13.4c-127.2 463.72-213.79 766.45-259.74 907.45-63.85 6.99-130.55 10.09-201.05 10.09-70.49 0-120.35-8.84-150.67-28.27-29.97-19.63-53.05-56.25-69.03-111.02l-224.52-781.83c61.55-26.05 115.59-38.54 163-38.54 46.89 0 83.87 9.67 110.05 29.94 26.25 21.13 45.43 56.01 58.2 106l83.63 349.88c6.65 23.36 19.91 99.11 41.63 225.73.87 10.69 7.24 15 18.66 15zm1246.81-149.73h-485.72c1.85 55.91 16.82 98.63 42.62 130.31 26.04 30.6 69.27 45.22 128.7 45.22 30.08 0 64.13-3.83 102.91-12.67 39.44-7.98 84.39-21.87 135.49-41.01 40.87 42.85 66.32 99.6 76 171.8-99.22 71.37-221.41 106.88-366.24 106.88-78.33 0-144.16-12.78-197.21-37.22-52.96-25.31-95.81-60.05-129.09-105.13-32.9-44.7-56.26-98.14-70.01-158.54-13.61-61.66-20.61-127.14-20.61-200.81 0-69.42 8.32-133.65 24.92-192.83 17.2-59.32 42.62-110.91 76.52-154.99 34.75-43.1 78.72-77.98 131.77-102.56 52.33-24.54 114.82-37.07 185.56-37.07 59.81 0 113.73 9.81 161.64 29.97 48.39 19.88 88.91 47.03 122.57 82.02 33.77 35.27 59.57 77.25 77.85 125.29 18.17 49.12 27.15 101.94 27.15 158.89 0 76.03-8.35 140.65-24.82 192.45zm-488.19-201.78h244.77v-20.85c0-45.82-9.95-83.66-29.97-113.74-20.99-29.59-51.07-44.7-91.98-44.7-39.3 0-68.89 14.38-87.94 42.37-19.14 27.4-30.56 73.07-34.88 136.92zm633.99-224.23c6.51-25.21 18.41-52.57 36.1-83.03 17.3-30.22 35.13-53.06 52.43-66.22 114.47 8.11 193.94 65.1 239.48 169.61 46.93-111.99 124.91-167.87 233.35-167.87 32.31 0 73.32 4.91 123.31 14.87 0 38.29-6.37 84-19.28 137.3-13.62 52.68-31.06 97.76-53.16 135.71-21.62-7.87-53.44-14.49-95.57-19.15-62.38 0-113.49 32.03-153.63 95.77v581.77c-40.9 6.99-89.05 10.09-144.68 10.09-55.49 0-104.65-3.1-147.02-10.09v-603.49c0-94.35-23.43-159.07-71.33-195.27zm1670.52-105.03l-230.53 879.35c-36.25 134.38-83.77 237.39-143.82 310.12-68.41 82.4-173.65 123.79-316.14 123.79-76.14 0-151.3-12.91-226.08-37.46-3.93-34.01 0-71.71 11.42-113 11.18-41.88 26.53-74.68 46.55-96.78 56.26 18.94 112.13 28.27 168.11 28.27 92.36 0 153.77-50.62 183.5-151.55l7.63-26.42c-108.34 0-173.55-38.68-194.54-117.77l-217.27-805.79c57.86-26.05 111.02-38.54 161.01-38.54 49.99 0 86.44 8.46 109.07 27.5 23.43 18.28 40.77 51.07 51.94 96.54l85.71 359.93c8.74 33.56 22.84 116.07 42.86 246.38 1.74 8.84 6.75 12.91 14.76 12.91l163.34-725.09c29.84-8.5 70.12-12.67 120.98-12.67 57.83 0 107.82 6.4 149.45 19.77l12.05 20.51zM4284.78 2582.64c100.71-2.58 186.95-4.67 258.52-6.37 72-.87 129.82-1.22 173.06-1.22 136.43 0 243.03 28.23 320.28 84.84 78.61 56.89 117.29 141.73 117.29 255.22 0 54.76-16.09 105.97-46.3 153.52-31.44 47.14-70.99 81.54-119.38 102.43 30.71 9.95 60.19 25.65 88.57 47.52 27.88 22.35 52.08 47.17 71.96 77.25 19.91 28.86 35.61 60.68 47.52 95.32 11.8 33.63 17.58 69.24 17.58 105.62 0 127.83-40.77 223.5-122.09 284.91-81.92 61.76-197.95 92.71-347.2 92.71-45.92 0-107.19-.49-183.46-1.95-75.79-1.46-168.26-3.2-276.35-6.51l-13.27-11.91V2595.17l13.27-12.53zm438.58 717.5h-154.75v364.64c32.17-.87 68.79-.87 108.83 0 40.62 1.57 77.84-1.36 112.34-9.12 35.13-7 63.88-25.42 87.94-54.03 23.22-28.97 35.13-69.14 35.13-119.97 0-48.39-15.11-90.51-45.68-127.14-30.46-36.45-78.61-54.38-143.81-54.38zm-154.75-513.88v300.55h131.91c59.43 0 101.55-14.62 125.74-43.38 23.96-29.21 36.11-65.55 36.11-107.82 0-42.61-12.4-78.12-37.46-105.13-24.69-28.13-66.08-42.72-124.39-42.72h-75.3c-21.62 0-40.14-.77-56.61-1.5zm1496.25 225.98c89.29 89.78 134.24 218.49 134.24 385.28 0 75.05-9.47 142.7-28.38 204.11-19.53 60.43-47.9 113.35-84.63 156.1-36.24 42.86-81.91 75.65-135.46 99.11-53.44 22.49-115.44 34.4-185.45 34.4-69.03 0-131.17-11.91-184.09-35.75-52.57-23.33-97.65-56.99-134.49-99.85-36.48-43.34-64.47-94.93-83.03-156.59-18.9-60.05-28.37-127.49-28.37-201.53 0-75.17 9.47-142.7 28.37-203.14 18.56-60.05 46.45-112.38 82.06-155.62 36.24-43.83 81.29-77.59 134.59-101.06 53.79-23.95 115.93-35.23 184.96-35.23 123.94 0 223.64 36.69 299.68 109.77zm-298.32 107.95c-27.5 0-49.75 7.63-66.56 20.4-17.2 12.54-30.85 30.47-41.01 52.33-9.96 23.46-17.2 48.63-20.65 78.47-3.69 29.73-5.78 60.92-5.78 94.93 0 51.46 1.47 96.78 4.91 135.46 3.2 38.09 9.47 69.39 18.8 94.94 9.57 25.66 22.49 44.46 39.9 57.23 16.85 12.4 38.33 18.66 66.7 18.66 55.28 0 91.73-23.95 108.83-72.44 17.79-47.66 26.38-115.2 26.38-204.6 0-89.54-8.59-158.2-26.38-204.64-17.1-46.65-52.95-70.74-105.14-70.74zm545.04-55.49c5.78-24.93 17.93-52.46 35.75-83.41 17.2-30.71 34.4-52.68 51.8-66.18 114.61 8.6 194.92 65.59 239.62 170.58 47.52-112.37 125.65-168.39 234.09-168.39 31.92 0 73.56 4.8 122.82 14.62 0 39.2-6.4 84.74-19.39 137.69-12.92 52.92-30.95 98.38-53.06 135.84-21.51-8.01-53.43-14.52-95.31-19.04-62.15 0-113.5 31.68-153.64 95.04v581.66c-41.28 7.24-89.54 11.28-144.92 11.28-55.77 0-104.41-4.04-146.78-11.28v-603.87c0-93.72-23.71-158.06-70.98-194.54zm1443.81-52.46c90.28 89.78 134.49 218.49 134.49 385.28 0 75.05-9.71 142.7-28.86 204.11-19.43 60.43-47.31 113.35-84.39 156.1-36.83 42.86-81.53 75.65-135.6 99.11-53.54 22.49-115.2 34.4-185.07 34.4-69.27 0-131.52-11.91-184.23-35.75-52.91-23.33-98.1-56.99-134.34-99.85-36.97-43.34-64.86-94.93-83.52-156.59-18.42-60.05-27.75-127.49-27.75-201.53 0-75.17 9.33-142.7 27.75-203.14 18.66-60.05 46.2-112.38 82.54-155.62 35.72-43.83 80.94-77.59 134.49-101.06 53.54-23.95 115.79-35.23 185.06-35.23 123.17 0 223.65 36.69 299.43 109.77zm-298.8 107.95c-27.54 0-49.64 7.63-66.56 20.4-16.96 12.54-29.98 30.47-40.18 52.33-10.55 23.46-17.06 48.63-20.88 78.47-3.7 29.73-5.78 60.92-5.78 94.93 0 51.46 1.25 96.78 4.56 135.46 3.06 38.09 9.33 69.39 19.28 94.94 8.85 25.66 22.35 44.46 39.66 57.23 16.46 12.4 38.57 18.66 66.32 18.66 55.38 0 92.01-23.95 109.2-72.44 17.93-47.66 26.64-115.2 26.64-204.6 0-89.54-8.71-158.2-26.64-204.64-17.19-46.65-53.05-70.74-105.62-70.74zm943.69 520.5l162.85-708.77c34.75-7.24 74.19-11.28 118.02-11.28 53.2 0 100.09 7.49 140.37 22.46l8.74 12.77c-126.86 464.62-213.34 766.39-259.26 907.24-64.23 7.24-131.03 11.28-201.43 11.28-70.49 0-120.73-10.3-150.43-29.35-29.87-20.02-53.05-56.22-69.41-110.88l-224.38-781.98c60.3-26.28 115.2-39.41 162.48-39.41 47.8 0 84.14 10.55 110.77 30.71 26.04 20.99 45.47 56.26 57.62 106.11l84.39 350.02c5.88 23.7 20.02 98.87 41.11 225.73 1.12 10.54 7.28 15.35 18.56 15.35zm1192.88-628.45c90.03 89.78 134.97 218.49 134.97 385.28 0 75.05-9.57 142.7-28.86 204.11-19.63 60.43-48.01 113.35-84.35 156.1-36.59 42.86-82.41 75.65-135.46 99.11-53.68 22.49-115.69 34.4-185.1 34.4-69.63 0-131.53-11.91-184.2-35.75-53.06-23.33-97.9-56.99-134.63-99.85-37.07-43.34-64.47-94.93-83.13-156.59-18.8-60.05-28.23-127.49-28.23-201.53 0-75.17 9.43-142.7 28.23-203.14 18.66-60.05 45.57-112.38 82.3-155.62 36.1-43.83 80.91-77.59 134.45-101.06 53.19-23.95 115.58-35.23 185.21-35.23 123.44 0 223.15 36.69 298.8 109.77zm-297.93 107.95c-27.75 0-49.86 7.63-66.46 20.4-17.31 12.54-30.43 30.47-41.26 52.33-10.06 23.46-17.19 48.63-20.64 78.47-3.55 29.73-5.4 60.92-5.4 94.93 0 51.46 1.36 96.78 5.16 135.46 2.47 38.09 8.98 69.39 18.45 94.94 9.67 25.66 22.45 44.46 39.65 57.23 16.95 12.4 38.68 18.66 66.7 18.66 55.01 0 91-23.95 109.28-72.44 17.44-47.66 26.53-115.2 26.53-204.6 0-89.54-9.09-158.2-26.53-204.64-18.28-46.65-52.81-70.74-105.48-70.74zm1328.72 371.15h-486.21c2.2 55.04 16.58 98.52 42.37 129.33 26.39 30.71 68.9 46.93 129.06 46.93 29.48 0 63.74-5.54 103.43-13.65 38.54-8.84 84.11-21.97 135.07-41.01 40.42 41.74 66.46 99.22 76.28 171.56-100.09 70.99-221.8 106.74-366.73 106.74-78.6 0-144.54-13.02-197.49-37.22-52.92-25.3-95.43-59.94-129.06-104.89-32.3-44.56-56.39-98-70-159.17-13.27-60.92-20.02-127.83-20.02-199.3 0-70.26 7.73-134.87 24.92-193.95 16.71-59.08 42.13-110.77 76.52-154.5 34.16-44.07 78.09-77.74 130.9-102.52 53.3-25.94 114.96-37.22 185.84-37.22 60.19 0 113.97 9.68 161.98 29.45 48.15 19.78 89.06 47.66 122.44 82.3 33.67 34.5 59.71 76.52 78.12 125.64 18.07 47.91 26.39 101.07 26.39 158.79 0 76.38-7.73 139.77-23.81 192.69zm-488.29-202.51h245.26v-20.4c0-46.16-10.69-83.87-31.09-113.7-20.26-30.22-50.72-45.33-91.49-45.33-39.79 0-69.52 14.38-88.32 42.23-18.52 28.37-30.95 73.94-34.36 137.2z" fill-rule="nonzero"/><path d="M1457.29 4203.93V646.39c0-11.32-9.47-2.82-15.35 3.17-274.61 226.35-424.55 491.53-453.69 791.79-1.32 11.56.87 11.56-11.03 12.88-494.46 60.19-761.83 288.5-959.18 640.26-20.65 36.34-33.28 96.88 17.82 145.03 115.69 109.31 252.26 155.37 385.63 234.19 33.87 19.28 51.45 37.11 45.57 55.14-17.58 55.77-42.65 106.01-60.09 169.13-31.29 111.4-36.34 196.03-39.27 360.84v.48c-42.12 14.87-213.96 65.21-199.48 133.62 18.94 91.14 142.11 117.67 200.7 146.88 15.95 466.7 188.27 667.51 263.43 1117.12-194.15 61.03-383.43 205.47-443.83 322.62-42.4 82.78 4.04 94.93 17.3 94.93h1188.11c1587.25 0 2448.16-1781.88 1800.2-3078.94-319.93-641.33-848.4-1313.51-308.27-1761.76 14-11.18 42.75-33.29 23.95-33.77-6.75 0-12.53 1.6-18.55 3.55-232.49 60.19-628.18 291.94-815.23 443.24-158.78 129.68-289.72 294.04-365.85 546.05-25.94 85.57-40.66 168.36-43.87 241.19-25.52 567.77 342.77 996.15 435.76 1522.28 97.27 554.27-42.37 1264.98-546.29 1486.78-27.02 12.39-98.49 45.19-98.49-39.17z"/></g></svg>