<svg width="40" height="40" fill="none" xmlns="http://www.w3.org/2000/svg"><path d="M13.333 4.167a1.25 1.25 0 00-1.227 1.014l-2.083 10.833a1.245 1.245 0 00-.023.236v4.167a2.936 2.936 0 002.917 2.916H15v8.334a1.25 1.25 0 00.106.519c.269 2.034 1.958 3.647 4.06 3.647 2.287 0 4.167-1.88 4.167-4.166 0-2.287-1.88-4.167-4.166-4.167-.594 0-1.154.135-1.667.363v-5.575a1.253 1.253 0 000-.405V16.25c0-.08-.008-.158-.023-.236L15.394 5.181a1.25 1.25 0 00-1.227-1.014h-.834zm10.417 0a1.25 1.25 0 100 2.5h4.583v1.666H23.75a1.25 1.25 0 100 2.5h4.583V12.5H23.75a1.249 1.249 0 00-1.17 1.732 1.25 1.25 0 001.17.768h4.583v1.667H23.75a1.25 1.25 0 100 2.5h4.583v1.666H23.75a1.252 1.252 0 00-1.268 1.25 1.249 1.249 0 001.268 1.25h4.583v9.584a2.936 2.936 0 002.917 2.916 2.936 2.936 0 002.917-2.916V7.083a2.936 2.936 0 00-2.917-2.916h-7.5zM10 23.95v2.95a3.672 3.672 0 00-1.25-.233A3.769 3.769 0 005 30.417v1.666c0 2.056 1.694 3.75 3.75 3.75a3.77 3.77 0 003.75-3.75v-7.108A4.504 4.504 0 0110 23.95zm-1.25 5.217c.705 0 1.25.544 1.25 1.25v1.666c0 .706-.545 1.25-1.25 1.25s-1.25-.544-1.25-1.25v-1.666c0-.706.545-1.25 1.25-1.25zM19.167 30c.935 0 1.666.731 1.666 1.667 0 .935-.731 1.666-1.666 1.666a1.648 1.648 0 01-1.667-1.666c0-.936.731-1.667 1.667-1.667z" fill="#FF6D1B"/></svg>