<svg width="64" height="64" fill="none" xmlns="http://www.w3.org/2000/svg"><g clip-path="url(#clip0_267_3590)"><path d="M27.733 41.704H22.55l3.243-19.844h5.184l-3.243 19.844zm18.793-19.359c-1.022-.402-2.644-.845-4.65-.845-5.12 0-8.725 2.702-8.747 6.565-.042 2.85 2.582 4.434 4.544 5.384 2.006.971 2.688 1.605 2.688 2.47-.02 1.33-1.621 1.943-3.114 1.943-2.07 0-3.179-.316-4.864-1.056l-.683-.317-.725 4.455c1.216.548 3.456 1.035 5.782 1.056 5.44 0 8.981-2.66 9.023-6.777.02-2.26-1.365-3.99-4.352-5.405-1.813-.908-2.923-1.52-2.923-2.449.02-.844.939-1.71 2.986-1.71 1.685-.042 2.923.36 3.862.76l.468.211.706-4.285zm6.892 12.329c.427-1.14 2.07-5.552 2.07-5.552-.022.042.426-1.162.682-1.9l.362 1.71s.982 4.75 1.195 5.742h-4.31zm6.4-12.814h-4.011c-1.237 0-2.176.358-2.71 1.646l-7.7 18.198h5.44l1.087-2.977h6.657c.149.697.618 2.977.618 2.977H64L59.818 21.86zm-41.6 0L13.14 35.392l-.555-2.745c-.939-3.166-3.883-6.607-7.168-8.318l4.65 17.354h5.483L23.7 21.86h-5.482z" fill="#D8D8D8"/><path d="M8.427 21.86H.085l-.085.4c6.507 1.647 10.816 5.617 12.586 10.388l-1.813-9.12c-.298-1.268-1.216-1.627-2.346-1.668z" fill="#C7C7C7"/></g><defs><clipPath id="clip0_267_3590"><path fill="#fff" d="M0 0h64v64H0z"/></clipPath></defs></svg>