<svg width="64" height="64" fill="none" xmlns="http://www.w3.org/2000/svg"><path d="M14.284 52.913v-2.648c0-1.013-.666-1.676-1.809-1.676-.571 0-1.192.175-1.62.75-.332-.483-.81-.75-1.525-.75-.477 0-.954.133-1.331.617v-.53H7v4.237h.999v-2.34c0-.75.427-1.105 1.092-1.105.666 0 .999.396.999 1.105v2.34h.998v-2.34c0-.75.478-1.105 1.093-1.105.666 0 .999.396.999 1.105v2.34h1.104zm14.812-4.237h-1.62v-1.28h-.999v1.28h-.904v.838h.904v1.944c0 .971.428 1.542 1.57 1.542a2.85 2.85 0 001.238-.309l-.289-.796a1.695 1.695 0 01-.86.22c-.477 0-.666-.267-.666-.704v-1.897h1.62v-.838h.006zm8.476-.093c-.57 0-.954.268-1.192.617v-.529h-.999v4.236h.999v-2.385c0-.704.333-1.105.954-1.105.189 0 .427.046.621.087l.289-.884c-.2-.036-.483-.036-.672-.036zm-12.809.443c-.477-.309-1.143-.443-1.858-.443-1.143 0-1.903.53-1.903 1.368 0 .705.571 1.106 1.57 1.234l.477.046c.521.088.81.221.81.442 0 .309-.383.53-1.049.53a2.775 2.775 0 01-1.525-.442l-.477.704c.521.355 1.237.53 1.953.53 1.331 0 2.097-.576 2.097-1.368 0-.75-.622-1.146-1.57-1.28l-.477-.046c-.428-.047-.76-.134-.76-.396 0-.309.332-.483.86-.483.57 0 1.142.22 1.43.354l.422-.75zm26.567-.443c-.571 0-.954.268-1.192.617v-.529h-.999v4.236h.999v-2.385c0-.704.333-1.105.954-1.105.189 0 .427.046.621.087l.289-.874c-.195-.047-.477-.047-.672-.047zm-12.759 2.211c0 1.28.954 2.206 2.43 2.206.666 0 1.143-.134 1.62-.483l-.477-.75c-.383.266-.76.395-1.193.395-.81 0-1.381-.53-1.381-1.368 0-.797.571-1.326 1.381-1.367.427 0 .81.133 1.193.396l.477-.751c-.477-.355-.954-.483-1.62-.483-1.476-.005-2.43.925-2.43 2.205zm9.237 0v-2.118h-.999v.53c-.333-.396-.81-.617-1.431-.617-1.287 0-2.286.925-2.286 2.205S44.091 53 45.378 53c.666 0 1.143-.221 1.431-.617v.53h.999v-2.119zm-3.667 0c0-.75.521-1.367 1.381-1.367.81 0 1.382.576 1.382 1.367 0 .751-.572 1.368-1.382 1.368-.854-.046-1.381-.622-1.381-1.368zm-11.95-2.21c-1.331 0-2.285.884-2.285 2.205 0 1.327.954 2.206 2.335 2.206.666 0 1.332-.175 1.859-.576l-.477-.663c-.383.267-.86.442-1.332.442-.621 0-1.237-.267-1.381-1.013h3.378v-.355c.045-1.362-.815-2.246-2.097-2.246zm0 .796c.622 0 1.049.355 1.143 1.013h-2.38c.095-.57.522-1.013 1.237-1.013zM57 50.794V47h-.999v2.206c-.332-.396-.81-.617-1.43-.617-1.288 0-2.286.925-2.286 2.205S53.283 53 54.57 53c.666 0 1.143-.221 1.431-.617v.53H57v-2.119zm-3.667 0c0-.75.522-1.367 1.381-1.367.81 0 1.382.576 1.382 1.367 0 .751-.572 1.368-1.382 1.368-.86-.046-1.38-.622-1.38-1.368zm-33.43 0v-2.118h-.998v.53c-.333-.396-.81-.617-1.431-.617-1.287 0-2.286.925-2.286 2.205S16.187 53 17.474 53c.666 0 1.143-.221 1.431-.617v.53h.999v-2.119zm-3.71 0c0-.75.52-1.367 1.38-1.367.81 0 1.382.576 1.382 1.367 0 .751-.571 1.368-1.381 1.368-.86-.046-1.382-.622-1.382-1.368z" fill="#000"/><path d="M39.285 14.604H24.672V40.82h14.613V14.604z" fill="#FF5A00"/><path d="M25.645 27.712c0-5.326 2.507-10.053 6.355-13.108a16.625 16.625 0 00-10.3-3.567c-9.231 0-16.7 7.458-16.7 16.675 0 9.218 7.469 16.676 16.7 16.676 3.896 0 7.468-1.344 10.3-3.567a16.633 16.633 0 01-6.355-13.109z" fill="#EB001B"/><path d="M59 27.712c0 9.218-7.469 16.676-16.7 16.676A16.625 16.625 0 0132 40.82a16.576 16.576 0 006.355-13.109c0-5.326-2.507-10.053-6.355-13.108a16.598 16.598 0 0110.295-3.567C51.531 11.037 59 18.544 59 27.712z" fill="#F79E1B"/></svg>