<svg width="64" height="64" fill="none" xmlns="http://www.w3.org/2000/svg"><path d="M12.51 12h15.945c2.226 0 3.61 1.814 3.09 4.047L24.123 47.92c-.523 2.225-2.752 4.041-4.98 4.041H3.2c-2.223 0-3.61-1.816-3.091-4.041l7.426-31.871C8.055 13.813 10.282 12 12.51 12z" fill="#D8D8D8"/><path d="M27.128 12h18.336c2.226 0 1.222 1.814.699 4.047L38.74 47.92c-.521 2.225-.359 4.041-2.589 4.041H17.816c-2.23 0-3.61-1.816-3.086-4.041l7.422-31.871c.527-2.234 2.75-4.048 4.976-4.048z" fill="#C7C7C7"/><path d="M44.737 12h15.945c2.229 0 3.613 1.814 3.09 4.047L56.348 47.92c-.524 2.225-2.754 4.041-4.982 4.041H35.43c-2.23 0-3.613-1.816-3.091-4.041l7.423-31.871c.52-2.234 2.745-4.048 4.975-4.048z" fill="#D8D8D8"/><path d="M16.675 22.214c-1.64.017-2.124 0-2.279-.037-.06.283-1.166 5.387-1.169 5.391-.238 1.033-.411 1.769-1 2.244a1.78 1.78 0 01-1.177.41c-.727 0-1.15-.361-1.222-1.046l-.013-.235s.221-1.383.221-1.391c0 0 1.161-4.651 1.37-5.266a.441.441 0 00.016-.07c-2.26.02-2.661 0-2.689-.037-.015.05-.07.339-.07.339l-1.186 5.242-.102.445-.197 1.454c0 .432.084.784.253 1.081.54.944 2.081 1.086 2.953 1.086 1.123 0 2.177-.239 2.889-.674 1.236-.73 1.559-1.872 1.847-2.886l.134-.52s1.196-4.832 1.4-5.46c.007-.035.01-.053.02-.07zm4.07 3.897c-.288 0-.815.07-1.289.302-.171.088-.334.19-.505.291l.154-.558-.084-.094c-1.004.203-1.229.23-2.156.361l-.078.052c-.108.892-.203 1.564-.602 3.318-.152.647-.31 1.3-.468 1.945l.042.082c.95-.05 1.24-.05 2.065-.037l.067-.072c.105-.538.118-.664.35-1.752.11-.516.338-1.65.45-2.054.206-.096.41-.19.604-.19.463 0 .407.404.389.565-.02.27-.189 1.152-.361 1.91l-.116.489c-.08.36-.169.712-.249 1.07l.035.071c.937-.05 1.222-.05 2.022-.037l.094-.072c.145-.84.187-1.064.444-2.287l.129-.561c.25-1.1.376-1.657.187-2.11-.201-.51-.682-.632-1.124-.632zm4.547 1.15c-.498.096-.816.16-1.131.201-.313.05-.618.096-1.1.163l-.037.034-.035.028c-.05.358-.085.668-.152 1.032-.056.377-.143.805-.284 1.42-.11.47-.166.634-.228.8-.06.165-.127.326-.25.789l.029.043.024.039c.45-.021.744-.037 1.046-.04.302-.01.615 0 1.1.003l.041-.034.046-.038c.07-.418.08-.53.123-.734.042-.218.116-.52.295-1.328.084-.38.179-.757.267-1.145.091-.385.187-.765.278-1.144l-.014-.046-.018-.042zm.01-1.55c-.452-.268-1.246-.183-1.78.186-.533.361-.594.874-.143 1.145.445.26 1.242.182 1.771-.19.532-.37.599-.878.152-1.142zm2.736 6.183c.915 0 1.854-.253 2.56-1.001.543-.607.792-1.51.878-1.882.281-1.233.063-1.809-.212-2.16-.418-.534-1.155-.705-1.92-.705-.46 0-1.556.046-2.413.835-.614.57-.899 1.342-1.07 2.083-.173.754-.372 2.113.877 2.619.386.165.942.21 1.3.21zm-.071-2.774c.21-.934.46-1.717 1.096-1.717.498 0 .534.583.312 1.52-.04.207-.221.98-.467 1.31-.172.242-.375.39-.6.39-.067 0-.464 0-.47-.59-.004-.292.056-.59.129-.913zm5.797 2.654l.072-.073c.101-.538.118-.664.343-1.752.112-.516.344-1.65.454-2.054.206-.096.406-.19.607-.19.46 0 .404.404.386.565-.017.27-.186 1.152-.362 1.91l-.11.488c-.083.362-.174.712-.254 1.07l.035.072c.94-.05 1.214-.05 2.019-.036l.097-.073a36.9 36.9 0 01.444-2.286l.125-.562c.252-1.1.38-1.656.193-2.11-.206-.51-.69-.632-1.126-.632-.289 0-.819.07-1.29.302-.167.088-.336.19-.502.292l.144-.559-.077-.094c-1.003.203-1.233.23-2.159.361l-.07.052c-.113.893-.204 1.563-.604 3.318-.152.647-.31 1.3-.467 1.945l.042.082c.952-.05 1.236-.05 2.06-.036zm6.905.036c.059-.288.41-1.998.413-1.998 0 0 .299-1.254.317-1.3 0 0 .094-.13.188-.181h.138c1.306 0 2.78 0 3.935-.85.787-.584 1.324-1.444 1.564-2.49a3.78 3.78 0 00.108-.867c0-.4-.08-.797-.313-1.107-.59-.824-1.762-.84-3.117-.846l-.668.006c-1.733.022-2.428.016-2.714-.02-.024.127-.07.352-.07.352s-.62 2.878-.62 2.883l-1.557 6.407c1.514-.018 2.134-.018 2.396.01zm1.15-5.113l.658-2.861.021-.148.01-.112.263.027 1.394.12c.537.208.759.744.604 1.444-.14.639-.556 1.176-1.088 1.436-.44.22-.977.238-1.53.238h-.359l.027-.144zm4.112 2.476c-.175.744-.375 2.103.868 2.587a2.41 2.41 0 001.112.2c.382-.02.735-.211 1.062-.486l-.088.34.056.072a33.088 33.088 0 012.14-.03l.088-.067c.142-.832.275-1.64.643-3.23.179-.763.358-1.518.542-2.277l-.03-.083c-1 .185-1.267.225-2.23.361l-.072.06-.03.226a1.375 1.375 0 00-.7-.577c-.428-.168-1.433.048-2.297.835-.607.562-.899 1.331-1.064 2.07zm2.1.046c.215-.917.46-1.693 1.098-1.693.403 0 .615.372.572 1.006a31.62 31.62 0 01-.115.514c-.064.272-.133.542-.2.813a1.91 1.91 0 01-.236.475c-.163.233-.554.377-.778.377-.064 0-.457 0-.471-.58-.003-.289.056-.586.13-.912zm10.972-3.027l-.077-.089c-.99.2-1.17.233-2.079.355l-.067.067c-.003.011-.005.028-.01.043l-.003-.015c-.677 1.562-.657 1.225-1.209 2.454l-.006-.15-.138-2.665-.086-.089c-1.037.2-1.062.233-2.02.355l-.074.067c-.01.032-.01.067-.017.105l.007.014c.12.612.09.475.21 1.44.057.474.131.95.187 1.419.095.783.148 1.168.263 2.363-.647 1.068-.8 1.471-1.422 2.408l.004.01-.439.693c-.05.073-.095.123-.159.144-.07.035-.16.041-.287.041h-.243l-.361 1.2 1.239.022c.727-.003 1.184-.343 1.43-.8l.779-1.335h-.013l.082-.094c.524-1.127 4.509-7.963 4.509-7.963zM45.931 41.963h-.526l1.945-6.432h.645l.205-.663.02.737c-.024.456.334.86 1.275.793h1.089l.374-1.239h-.41c-.235 0-.344-.06-.33-.187l-.02-.75h-2.016v.004c-.652.014-2.598.063-2.992.168-.477.123-.98.484-.98.484l.198-.663h-1.886l-.393 1.316-1.97 6.53h-.383l-.375 1.23h3.756l-.126.41h1.85l.123-.41h.52l.407-1.328zm-1.541-5.125c-.302.084-.864.337-.864.337l.5-1.644h1.498l-.362 1.198s-.463.027-.772.109zm.028 2.349s-.47.059-.78.129c-.305.092-.877.383-.877.383l.516-1.71h1.506l-.365 1.198zm-.84 2.791h-1.502l.436-1.443h1.498l-.431 1.444zm3.62-3.99h2.166l-.31 1.009h-2.196l-.33 1.102h1.921l-1.454 2.048a.6.6 0 01-.295.246.863.863 0 01-.39.112h-.533l-.366 1.207h1.394c.724 0 1.152-.33 1.468-.762l.997-1.365.214 1.386a.65.65 0 00.359.47c.14.07.283.19.487.209.219.009.376.016.481.016h.685l.411-1.35h-.27c-.155 0-.422-.027-.467-.075-.046-.06-.046-.15-.07-.288l-.218-1.39h-.89l.391-.464h2.19l.338-1.102h-2.029l.316-1.008h2.023l.375-1.243h-6.029l-.369 1.243zM28.902 42.26l.505-1.682h2.078l.38-1.25h-2.08l.318-1.036h2.032l.377-1.211h-5.086l-.369 1.21h1.156l-.309 1.036h-1.158l-.384 1.273h1.155l-.674 2.225c-.09.294.043.407.128.544a.556.556 0 00.372.271c.203.046.343.073.532.073h2.343l.418-1.386-1.039.143c-.2 0-.756-.024-.695-.21zm.238-8.052l-.527.952c-.112.208-.214.337-.305.396-.08.05-.24.071-.47.071h-.275l-.368 1.218h.913c.439 0 .776-.16.936-.241.174-.093.219-.04.353-.169l.308-.267h2.85l.377-1.268h-2.085l.364-.692h-2.07zm4.207 8.077c-.049-.07-.014-.194.06-.45l.78-2.578h2.77c.404-.006.695-.01.885-.024.203-.021.425-.094.666-.224.25-.137.377-.282.485-.447.12-.165.313-.527.478-1.084l.979-3.262-2.875.016s-.885.131-1.275.275c-.393.161-.956.61-.956.61l.26-.894h-1.776l-2.487 8.247c-.088.32-.147.552-.16.692-.005.15.19.3.315.411.15.113.369.094.58.113.222.016.538.027.973.027h1.365l.42-1.415-1.223.116a.321.321 0 01-.264-.13zm1.342-4.769h2.91l-.185.58c-.026.014-.088-.029-.384.006h-2.52l.179-.586zm.583-1.945h2.934l-.21.699s-1.384-.014-1.605.027c-.975.169-1.544.69-1.544.69l.425-1.416zm2.207 4.467a.31.31 0 01-.115.179c-.06.038-.155.051-.298.051h-.414l.024-.706h-1.725l-.07 3.453c-.002.249.022.393.204.508.182.145.744.163 1.5.163h1.08l.39-1.292-.94.051-.313.019c-.043-.019-.083-.035-.129-.08-.04-.04-.106-.016-.096-.265l.008-.885.987-.04c.532 0 .76-.174.954-.34.186-.158.246-.34.316-.586l.166-.783h-1.356l-.173.553z" fill="#FEFEFE"/></svg>