<svg width="64" height="64" fill="none" xmlns="http://www.w3.org/2000/svg"><g clip-path="url(#clip0_279_4571)" fill="#2897F2"><path d="M3.24 21.239L.013 28.746h2.099l.595-1.504H6.17l.596 1.504h2.15L5.69 21.239H3.24zm1.196 1.74l1.056 2.625H3.38l1.056-2.624zm4.697 5.761v-7.508l2.989.013 1.734 4.839 1.696-4.852h2.963v7.508H16.64v-5.53l-1.99 5.53h-1.645l-1.997-5.53v5.53H9.133zm10.67 0v-7.508h6.124v1.677h-4.224v1.287h4.122v1.58h-4.128v1.332h4.224v1.632h-6.118zm7.207-7.501v7.507h1.875v-2.669h.787l2.253 2.669h2.291l-2.47-2.765a2.286 2.286 0 002.06-2.304c0-1.58-1.241-2.432-2.623-2.432l-4.173-.006zm1.875 1.677h2.144c.512 0 .89.403.89.787 0 .499-.487.787-.864.787h-2.17v-1.574zm7.603 5.824h-1.914v-7.508h1.914v7.508zm4.543 0h-.416c-2.003 0-3.213-1.575-3.213-3.719 0-2.195 1.203-3.782 3.725-3.782h2.074v1.779h-2.144c-1.024 0-1.754.8-1.754 2.022 0 1.453.832 2.061 2.023 2.061h.492l-.787 1.639zm4.083-7.501l-3.225 7.5h2.099l.595-1.503h3.462l.596 1.504h2.144l-3.226-7.508-2.445.007zm1.19 1.74l1.057 2.625h-2.112l1.056-2.624zm4.698 5.761v-7.508h2.387l3.046 4.717v-4.717h1.876v7.508H56l-3.124-4.84v4.839h-1.875zM13.678 41.872v-7.507h6.124v1.677H15.58v1.286h4.127v1.581H15.58v1.331h4.223v1.632h-6.124zm29.996 0v-7.507h6.125v1.677h-4.224v1.286h4.108v1.581h-4.108v1.331h4.224v1.632h-6.125zm-23.634 0l2.982-3.705-3.053-3.802h2.361l1.818 2.349 1.824-2.349h2.272l-3.014 3.75 2.988 3.751h-2.361l-1.767-2.31-1.721 2.31-2.33.006zm8.403-7.5v7.507h1.927V39.51h1.977c1.67 0 2.938-.89 2.938-2.611 0-1.428-.992-2.522-2.694-2.522h-4.148v-.006zm1.927 1.696h2.08c.537 0 .928.332.928.864 0 .499-.384.864-.935.864H30.37v-1.728zm5.72-1.703v7.507h1.875v-2.668h.787l2.253 2.668h2.291l-2.47-2.764a2.286 2.286 0 002.06-2.304c0-1.581-1.241-2.432-2.623-2.432l-4.173-.007zm1.881 1.683h2.144c.512 0 .89.404.89.788 0 .499-.486.787-.864.787h-2.17v-1.575zm12.699 5.824V40.24h3.757c.557 0 .794-.3.794-.627 0-.313-.237-.633-.794-.633h-1.696c-1.472 0-2.297-.896-2.297-2.247 0-1.203.755-2.361 2.944-2.361h3.654l-.787 1.69h-3.162c-.601 0-.787.32-.787.62 0 .314.23.653.691.653h1.78c1.644 0 2.355.934 2.355 2.157 0 1.312-.794 2.387-2.445 2.387H50.67v-.007zm6.885 0V40.24h3.757c.557 0 .794-.3.794-.627 0-.313-.237-.633-.794-.633h-1.696c-1.472 0-2.298-.896-2.298-2.247 0-1.203.756-2.361 2.944-2.361h3.655l-.788 1.69h-3.161c-.602 0-.787.32-.787.62 0 .314.23.653.69.653h1.78c1.645 0 2.355.934 2.355 2.157 0 1.312-.793 2.387-2.444 2.387h-4.007v-.007z"/></g><defs><clipPath id="clip0_279_4571"><path fill="#fff" d="M0 0h64v64H0z"/></clipPath></defs></svg>