<svg width="20" height="20" fill="none" xmlns="http://www.w3.org/2000/svg"><path d="M16.041 1.667c-1.035 0-1.875.84-1.875 1.875v12.916a1.875 1.875 0 003.75 0V3.542c0-1.036-.84-1.875-1.875-1.875zm-8.75.416a.625.625 0 100 1.25h1.325l-6.74 5.992a.625.625 0 10.83.934l6.877-6.113v1.48a.625.625 0 101.25 0V2.707a.625.625 0 00-.625-.625H7.29zm2.708 5.834c-1.035 0-1.875.84-1.875 1.875v6.666a1.875 1.875 0 003.75 0V9.792c0-1.036-.84-1.875-1.875-1.875zm-6.041 3.75c-1.036 0-1.875.84-1.875 1.875v2.916a1.875 1.875 0 003.75 0v-2.916c0-1.036-.84-1.875-1.875-1.875z" fill="#000"/></svg>