<svg width="18" height="18" fill="none" xmlns="http://www.w3.org/2000/svg"><path d="M15.316 17.25H2.684A1.936 1.936 0 01.75 15.316V2.684C.75 1.617 1.617.75 2.684.75h12.632c1.067 0 1.934.867 1.934 1.934v12.632a1.936 1.936 0 01-1.934 1.934zM2.684 2.04a.645.645 0 00-.645.644v12.632c0 .356.29.645.645.645h12.632c.356 0 .645-.29.645-.645V2.684a.645.645 0 00-.645-.645H2.684zm11.522 4.067a.645.645 0 10-.96-.86l-4.844 5.41a1 1 0 01-1.433.057L4.723 8.58a.644.644 0 00-.888.934l3.208 3.05a1 1 0 001.434-.058l5.73-6.399z" fill="#FA6410"/></svg>