<svg width="40" height="40" fill="none" xmlns="http://www.w3.org/2000/svg"><path d="M2.917 8.333c-.692 0-1.25.559-1.25 1.25 0 .692.558 1.25 1.25 1.25H13.75c.692 0 1.25.559 1.25 1.25 0 .692-.558 1.25-1.25 1.25H2.917c-.692 0-1.25.559-1.25 1.25 0 .692.558 1.25 1.25 1.25h7.5c.692 0 1.25.559 1.25 1.25 0 .692-.558 1.25-1.25 1.25h-7.5c-.692 0-1.25.559-1.25 1.25 0 .692.558 1.25 1.25 1.25h4.167a1.25 1.25 0 110 2.5H2.917c-.692 0-1.25.559-1.25 1.25v1.667A3.756 3.756 0 005.417 30h.594a4.593 4.593 0 004.406 3.333A4.592 4.592 0 0014.823 30H22.5V12.083a3.756 3.756 0 00-3.75-3.75H2.917zM25 11.667V28.75a4.591 4.591 0 004.584 4.583A4.593 4.593 0 0033.99 30h.594a3.745 3.745 0 003.75-3.75v-5.3c0-.524-.11-1.05-.326-1.525l-2.458-5.533a3.748 3.748 0 00-3.424-2.225H25zm3.334 2.5h3.792c.494 0 .94.29 1.14.742l1.371 3.086a.833.833 0 01-.76 1.172h-5.543a.834.834 0 01-.834-.834V15c0-.46.374-.833.834-.833zm-17.917 12.5a2.084 2.084 0 11-.002 4.168 2.084 2.084 0 01.002-4.168zm19.167 0a2.084 2.084 0 11-.002 4.168 2.084 2.084 0 01.002-4.168z" fill="#FF6D1B"/></svg>