<svg width="15" height="15" fill="none" xmlns="http://www.w3.org/2000/svg"><g clip-path="url(#clip0_227_3141)"><path d="M7.49.5a.584.584 0 00-.573.591v8.31L5.579 8.063a.583.583 0 10-.825.824l2.334 2.332a.583.583 0 00.824 0l2.334-2.332a.583.583 0 10-.825-.824L8.083 9.4V1.091a.583.583 0 00-.592-.59zM2.64 4.784A2.147 2.147 0 00.5 6.92v5.441c0 1.174.965 2.138 2.139 2.138h9.722a2.147 2.147 0 002.139-2.138v-5.44a2.147 2.147 0 00-2.139-2.138h-2.333a.584.584 0 100 1.166h2.333c.544 0 .972.428.972.971v5.441a.963.963 0 01-.972.972H2.64a.963.963 0 01-.972-.972v-5.44c0-.544.428-.972.972-.972h2.333a.584.584 0 100-1.166H2.64z" fill="#FA6410"/></g><defs><clipPath id="clip0_227_3141"><path fill="#fff" transform="translate(.5 .5)" d="M0 0h14v14H0z"/></clipPath></defs></svg>