<svg width="40" height="40" fill="none" xmlns="http://www.w3.org/2000/svg"><path d="M10.416 4.167c-2.516 0-4.583 2.067-4.583 4.583V33.4a1.25 1.25 0 00.417 2.433h.628c.134.022.271.022.405 0h15.428c.134.022.271.022.405 0h.634a1.25 1.25 0 00.416-2.433v-7.567h3.75c.246 0 .417.171.417.417v2.917c0 2.286 1.88 4.166 4.167 4.166 2.286 0 4.166-1.88 4.166-4.166V18.306a3.751 3.751 0 00-1.448-2.96l-6.535-5.082a1.25 1.25 0 10-1.533 1.972L30 14.453v3.88a3.333 3.333 0 003.333 3.334h.833v7.5c0 .935-.731 1.666-1.666 1.666a1.648 1.648 0 01-1.667-1.666V26.25a2.936 2.936 0 00-2.917-2.917h-3.75V8.75c0-2.516-2.067-4.583-4.583-4.583h-9.167zm0 2.5h9.167c1.165 0 2.083.918 2.083 2.083v5a2.065 2.065 0 01-2.083 2.083h-9.167a2.065 2.065 0 01-2.083-2.083v-5c0-1.165.918-2.083 2.083-2.083z" fill="#FF6D1B"/></svg>