<svg width="82" height="26" fill="none" xmlns="http://www.w3.org/2000/svg"><rect x=".284" y=".401" width="24.869" height="24.869" rx="9.326" fill="#000"/><path d="M10.439 4.546a.576.576 0 00-.506.331.6.6 0 00.052.61l2.201 3.168c-.053-.004-.107-.01-.161-.011a3.17 3.17 0 00-2.341.95l-.282.285a3.281 3.281 0 00-.923 2.544l-3.117-2.237a.578.578 0 00-.92.346.601.601 0 00.248.62l4.54 3.259a5.63 5.63 0 00-.128 1.19c0 3.044 2.44 5.524 5.435 5.524 2.995 0 5.435-2.48 5.435-5.524 0-1.04-.291-2.013-.787-2.845a.598.598 0 00.01-.114v-2.387a2.99 2.99 0 00-.557-1.74l-2.66-3.718a.585.585 0 00-.501-.25.576.576 0 00-.5.338.601.601 0 00.06.608l2.66 3.718c.217.304.334.669.334 1.044v1.122a5.356 5.356 0 00-3.43-1.297l-3.665-5.276a.586.586 0 00-.497-.258zm1.56 5.272a2.022 2.022 0 011.48.698l.68.98c.246.354.378.778.378 1.213 0 1.169-.92 2.104-2.07 2.104a2.05 2.05 0 01-1.194-.386l-.959-.687a2.091 2.091 0 01-.088-3.024l.28-.285A2.022 2.022 0 0112 9.818zm3.406 1.532c1.947.406 3.402 2.15 3.402 4.251 0 2.404-1.905 4.34-4.27 4.34-2.366 0-4.27-1.936-4.27-4.34 0-.145.01-.288.023-.43l.312.224a3.202 3.202 0 001.865.601c1.78 0 3.234-1.479 3.234-3.287 0-.472-.106-.933-.296-1.359z" fill="#fff"/><path d="M32.925 19.438l1.809-13.056h1.958l3.19 5.95 3.17-5.95h1.96l1.808 13.056h-2.48l-1.25-9.81.653.13-3.861 6.938-3.88-6.92.653-.13-1.25 9.792h-2.48zm16.462 4.514l2.07-5.13-3.88-8.71h2.574l2.388 6.006 2.425-6.006h2.573L51.7 23.952h-2.312z" fill="#000"/><path d="M60.393 19.438V8.695h-3.694V6.382h9.774v2.313H62.78v10.743h-2.387zm7.663 0v-9.326h2.313v9.326h-2.313zm0-10.743V6.382h2.313v2.313h-2.313zm4.854 15.257v-13.84h1.865l.448 1.548-.69-.242a5.446 5.446 0 011.399-1.054c.504-.267 1.119-.4 1.846-.4.914 0 1.682.22 2.304.661a4.113 4.113 0 011.408 1.763 5.9 5.9 0 01.485 2.406 5.9 5.9 0 01-.485 2.406 4.113 4.113 0 01-1.408 1.762c-.622.442-1.39.663-2.304.663-.727 0-1.318-.1-1.772-.299-.453-.199-.913-.516-1.38-.951l.597-.466v6.043H72.91zm4.514-6.23c.69 0 1.225-.27 1.604-.811.385-.547.578-1.253.578-2.117 0-.87-.192-1.576-.578-2.117-.38-.541-.914-.811-1.604-.811-.535 0-.973.124-1.315.373a2.158 2.158 0 00-.755 1.035c-.162.435-.243.942-.243 1.52 0 .578.081 1.088.243 1.53.161.434.413.776.755 1.025.342.249.78.373 1.315.373z" fill="#000"/></svg>