<svg width="106" height="33" fill="none" xmlns="http://www.w3.org/2000/svg"><rect y=".5" width="32" height="32" rx="12" fill="#FA6410"/><path d="M13.066 5.834a.74.74 0 00-.65.426.772.772 0 00.067.783l2.832 4.078c-.07-.005-.138-.013-.208-.015a4.079 4.079 0 00-3.012 1.222l-.362.368a4.222 4.222 0 00-1.189 3.273l-4.01-2.879a.744.744 0 00-.847-.039.755.755 0 00-.337.485.774.774 0 00.32.798l5.841 4.192a7.243 7.243 0 00-.165 1.533c0 3.916 3.14 7.108 6.994 7.108 3.853 0 6.993-3.192 6.993-7.108 0-1.34-.374-2.59-1.012-3.662a.775.775 0 00.013-.146V13.18c0-.805-.252-1.59-.717-2.24l-3.423-4.784a.752.752 0 00-.645-.321.741.741 0 00-.644.435.772.772 0 00.078.782l3.422 4.784c.28.391.43.86.43 1.344v1.443a6.893 6.893 0 00-4.412-1.668l-4.717-6.79a.753.753 0 00-.64-.331zm2.008 6.783a2.602 2.602 0 011.904.899l.875 1.26c.317.456.487 1.001.487 1.561 0 1.504-1.184 2.707-2.664 2.707-.55 0-1.086-.174-1.536-.496l-1.234-.884a2.69 2.69 0 01-.113-3.891l.361-.367a2.6 2.6 0 011.92-.789zm4.383 1.972c2.505.522 4.377 2.765 4.377 5.47 0 3.093-2.45 5.584-5.494 5.584-3.044 0-5.495-2.49-5.495-5.584 0-.188.012-.372.03-.554l.401.288a4.12 4.12 0 002.4.774c2.29 0 4.162-1.903 4.162-4.23 0-.607-.137-1.2-.381-1.748zM42 23.996l2.328-16.8h2.52l4.104 7.656 4.08-7.656h2.52l2.328 16.8h-3.192L55.08 11.372l.84.168-4.968 8.928-4.992-8.904.84-.168-1.608 12.6H42zm21.182 5.808l2.664-6.6-4.992-11.208h3.312l3.072 7.728 3.12-7.728h3.312l-7.512 17.808h-2.976z" fill="#fff"/><path d="M77.344 23.996V10.172h-4.752V7.196h12.576v2.976h-4.752v13.824h-3.072zm9.862 0v-12h2.976v12h-2.976zm0-13.824V7.196h2.976v2.976h-2.976zm6.245 19.632V11.996h2.4l.576 1.992-.888-.312a7.007 7.007 0 011.8-1.356c.648-.344 1.44-.516 2.376-.516 1.176 0 2.164.284 2.964.852.8.568 1.404 1.324 1.812 2.268.416.944.624 1.976.624 3.096s-.208 2.152-.624 3.096c-.408.944-1.012 1.7-1.812 2.268-.8.568-1.788.852-2.964.852-.936 0-1.696-.128-2.28-.384-.584-.256-1.176-.664-1.776-1.224l.768-.6v7.776h-2.976zm5.808-8.016c.888 0 1.576-.348 2.064-1.044.496-.704.744-1.612.744-2.724 0-1.12-.248-2.028-.744-2.724-.488-.696-1.176-1.044-2.064-1.044-.688 0-1.252.16-1.692.48-.44.32-.764.764-.972 1.332-.208.56-.312 1.212-.312 1.956s.104 1.4.312 1.968c.208.56.532 1 .972 1.32.44.32 1.004.48 1.692.48z" fill="#fff"/></svg>