<svg width="40" height="40" fill="none" xmlns="http://www.w3.org/2000/svg"><path d="M25.544 10A9.394 9.394 0 0020 11.812 9.394 9.394 0 0014.457 10C9.242 10 5 14.242 5 19.456c0 5.215 4.242 9.457 9.457 9.457A9.394 9.394 0 0020 27.101a9.394 9.394 0 005.544 1.812c5.214 0 9.456-4.242 9.456-9.457C35 14.242 30.758 10 25.544 10zM20 23.46a6.804 6.804 0 010-8.009 6.804 6.804 0 010 8.01zm5.544 2.844a6.793 6.793 0 01-3.631-1.052 9.4 9.4 0 002-5.796 9.4 9.4 0 00-2-5.795 6.799 6.799 0 013.63-1.052 6.855 6.855 0 016.848 6.847 6.855 6.855 0 01-6.847 6.848z" fill="#5A5A5A"/></svg>