<svg width="40" height="40" fill="none" xmlns="http://www.w3.org/2000/svg"><path d="M13.296 13.334H9.973c-.886 0-1.552.6-1.773 1.56l-1.44 5.52h-.221l-1.44-5.52c-.221-.96-.886-1.56-1.773-1.56H0v12h3.324v-7.08h.22l1.884 7.08h2.327l1.884-7.08h.333v7.08h3.323l.002-12zm13.297 0H23.6c-.775 0-1.552.48-1.883 1.32l-2.66 5.88h-.22v-7.2h-3.324v12h2.992c.775 0 1.552-.48 1.773-1.32l2.659-5.88h.333v7.2h3.323l-.001-12zM40 17.294c-.11-2.16-1.883-3.96-4.1-3.96h-8.2c.554 2.76 2.881 4.8 5.762 4.8h6.427c0-.24.111-.48.111-.84zm-.554 2.04H28.808v6h3.324v-3.6h3.877c1.553 0 2.883-.96 3.437-2.4z" fill="#5A5A5A"/></svg>