<svg width="22" height="21" fill="none" xmlns="http://www.w3.org/2000/svg"><g clip-path="url(#clip0_396_659)"><path d="M3.846 1.133a2.372 2.372 0 00-2.36 2.36v3.67a2.372 2.372 0 002.36 2.36h3.67a2.372 2.372 0 002.36-2.36v-3.67a2.372 2.372 0 00-2.36-2.36h-3.67zm10.488 0a2.372 2.372 0 00-2.36 2.36v3.67a2.372 2.372 0 002.36 2.36h3.67a2.372 2.372 0 002.36-2.36v-3.67a2.372 2.372 0 00-2.36-2.36h-3.67zM3.846 2.706h3.67c.445 0 .787.342.787.786v3.67a.775.775 0 01-.786.787H3.846a.775.775 0 01-.787-.786v-3.67c0-.445.343-.787.787-.787zm10.488 0h3.67c.444 0 .787.342.787.786v3.67a.775.775 0 01-.787.787h-3.67a.775.775 0 01-.787-.786v-3.67c0-.445.343-.787.787-.787zM4.633 4.279v2.097H6.73V4.28H4.633zm10.487 0v2.097h2.098V4.28H15.12zM3.846 11.62a2.372 2.372 0 00-2.36 2.36v3.67a2.372 2.372 0 002.36 2.36h3.67a2.372 2.372 0 002.36-2.36v-3.67a2.372 2.372 0 00-2.36-2.36h-3.67zm8.128 0v2.884h2.884V11.62h-2.884zm2.884 2.884v2.622h2.622v-2.622h-2.622zm2.622 0h2.884V11.62H17.48v2.884zm0 2.622v2.884h2.884v-2.884H17.48zm-2.622 0h-2.884v2.884h2.884v-2.884zM3.846 13.193h3.67c.445 0 .787.343.787.787v3.67a.775.775 0 01-.786.787H3.846a.775.775 0 01-.787-.787v-3.67c0-.444.343-.787.787-.787zm.787 1.573v2.098H6.73v-2.098H4.633z" fill="#000"/></g><defs><clipPath id="clip0_396_659"><path fill="#fff" transform="translate(.628 .274)" d="M0 0h20.594v20.594H0z"/></clipPath></defs></svg>