<svg width="180" height="180" fill="none" xmlns="http://www.w3.org/2000/svg"><path d="M6.207 0H4a4 4 0 00-4 4v2.207h6.207V0zm6.207 0H6.207v6.207h6.207V0zm6.206 0h-6.206v6.207h6.207V0z" fill="#000"/><path d="M24.828 0H18.62v6.207h6.207V0zm6.207 0h-6.207v6.207h6.207V0zm6.206 0h-6.206v6.207h6.206V0zm6.207 4a4 4 0 00-4-4h-2.207v6.207h6.207V4zm12.414-4H52.76a3.103 3.103 0 100 6.207h3.103V0z" fill="#000"/><path d="M62.069 4a4 4 0 00-4-4h-2.207v6.207h6.207V4zm24.828-4H84.69a4 4 0 00-4 4v2.207h6.207V0z" fill="#000"/><path d="M93.103 0h-6.206v6.207h6.206V0zm6.207 0h-6.207v6.207h6.207V0zm6.207 4a4 4 0 00-4-4H99.31v6.207h6.207V4zm12.414-.897a3.103 3.103 0 10-6.207 0v3.104h3.104a3.103 3.103 0 003.103-3.104zm12.414 0a3.104 3.104 0 10-6.208.001 3.104 3.104 0 006.208 0zM142.759 0h-2.207a4 4 0 00-4 4v2.207h6.207V0zm6.207 0h-6.207v6.207h6.207V0zm6.206 0h-6.206v6.207h6.206V0zm6.207 0h-6.207v6.207h6.207V0zm6.207 0h-6.207v6.207h6.207V0zm6.207 0h-6.207v6.207h6.207V0zM180 4a4 4 0 00-4-4h-2.207v6.207H180V4zM6.207 6.207H0v6.207h6.207V6.207zm37.241 0h-6.207v6.207h6.207V6.207zm18.621 0h-6.207v6.207h6.207V6.207zm12.414 0h-3.104a3.103 3.103 0 100 6.207h3.104V6.207zm6.207 0h-6.207v6.207h6.207V6.207zm12.413 0h-6.206v6.207h6.206V6.207zm6.207 0h-6.207v6.207h2.207a4 4 0 004-4V6.207z" fill="#000"/><path d="M111.724 6.207h-6.207v2.207a4 4 0 004 4h2.207V6.207zm31.035 0h-6.207v6.207h6.207V6.207zm37.241 0h-6.207v6.207H180V6.207zM6.207 12.414H0v6.207h6.207v-6.207zm12.413 0h-2.206a4 4 0 00-4 4v2.207h6.207v-6.207z" fill="#000"/><path d="M24.828 12.414H18.62v6.207h6.207v-6.207zm6.207 4a4 4 0 00-4-4h-2.207v6.207h6.207v-2.207zm12.413-4h-6.207v6.207h6.207v-6.207zm18.621 0h-6.207v6.207h6.207v-6.207zm18.621 0h-6.207v2.207a4 4 0 004 4h2.207v-6.207zm12.413 0h-6.206v6.207h2.206a4 4 0 004-4v-2.207zm24.828 0h-6.207v2.207a4 4 0 004 4h2.207v-6.207zm6.207 0h-6.207v6.207h6.207v-6.207zm6.207 4a4 4 0 00-4-4h-2.207v6.207h6.207v-2.207zm12.414-4h-6.207v6.207h6.207v-6.207zm12.413 0h-2.206a4 4 0 00-4 4v2.207h6.206v-6.207zm6.207 0h-6.207v6.207h6.207v-6.207zm6.207 4a4 4 0 00-4-4h-2.207v6.207h6.207v-2.207zm12.414-4h-6.207v6.207H180v-6.207zM6.207 18.62H0v6.208h6.207V18.62z" fill="#000"/><path d="M18.62 18.62h-6.206v6.208h6.207V18.62z" fill="#000"/><path d="M24.828 18.62H18.62v6.208h6.207V18.62zm6.207 0h-6.207v6.208h6.207V18.62zm12.413 0h-6.207v6.208h6.207V18.62zm12.414 0H52.76a3.103 3.103 0 000 6.208h3.103V18.62zm12.414 4a4 4 0 00-4-4h-2.207v6.208h6.207V22.62zm18.621-4H80.69v6.208h6.207V18.62zm18.62 3.104a3.103 3.103 0 10-6.207 0v3.104h6.207v-3.104zm24.828-3.104h-6.207v6.208h6.207V18.62zm12.414 0h-6.207v6.208h6.207V18.62zm12.413 0h-6.206v6.208h6.206V18.62zm6.207 0h-6.207v6.208h6.207V18.62zm6.207 0h-6.207v6.208h6.207V18.62zm12.414 0h-6.207v6.208H180V18.62zM6.207 24.828H0v6.207h6.207v-6.207z" fill="#000"/><path d="M18.62 24.828h-6.206v2.207a4 4 0 004 4h2.207v-6.207z" fill="#000"/><path d="M24.828 24.828H18.62v6.207h6.207v-6.207zm6.207 0h-6.207v6.207h2.207a4 4 0 004-4v-2.207zm12.413 0h-6.207v6.207h6.207v-6.207zm18.621 0h-6.207v6.207h6.207v-6.207z" fill="#000"/><path d="M68.276 24.828h-6.207v6.207h6.207v-6.207zm6.207 0h-6.207v6.207h6.207v-6.207zm6.207 0h-6.207v6.207h6.207v-6.207zm6.207 0H80.69v6.207h6.207v-6.207zm6.206 0h-6.206v6.207h6.206v-6.207zm6.207 0h-6.207v6.207h6.207v-6.207zm6.207 0H99.31v6.207h6.207v-6.207zm24.828 0h-6.207v6.207h2.207a4 4 0 004-4v-2.207zm12.414 0h-6.207v6.207h6.207v-6.207zm12.413 0h-6.206v2.207a4 4 0 004 4h2.206v-6.207zm6.207 0h-6.207v6.207h6.207v-6.207zm6.207 0h-6.207v6.207h2.207a4 4 0 004-4v-2.207zm12.414 0h-6.207v6.207H180v-6.207zM6.207 31.035H0v6.206h6.207v-6.206zm37.241 0h-6.207v6.206h6.207v-6.206zm12.414 0h-2.207a4 4 0 00-4 4v2.206h6.207v-6.206zm6.207 0h-6.207v6.206h6.207v-6.206z" fill="#000"/><path d="M68.276 31.035h-6.207v6.206h6.207v-6.206zm12.414 0h-6.207v6.206h6.207v-6.206zm6.207 0H80.69v6.206h6.207v-6.206zm6.206 0h-6.206v6.206h6.206v-6.206zm6.207 0h-6.207v6.206h6.207v-6.206zm12.414 0h-6.207v6.206h6.207v-6.206zm6.207 0h-6.207v6.206h6.207v-6.206zm6.207 0h-6.207v6.206h6.207v-6.206zm18.621 0h-6.207v6.206h6.207v-6.206zm37.241 0h-6.207v6.206H180v-6.206zM6.207 37.241H0v2.207a4 4 0 004 4h2.207v-6.207zm6.207 0H6.207v6.207h6.207v-6.207zm6.206 0h-6.206v6.207h6.207v-6.207z" fill="#000"/><path d="M24.828 37.241H18.62v6.207h6.207v-6.207zm6.207 0h-6.207v6.207h6.207v-6.207zm6.206 0h-6.206v6.207h6.206v-6.207zm6.207 0h-6.207v6.207h2.207a4 4 0 004-4v-2.207zm12.414 0h-6.207v2.207a4 4 0 004 4h2.207v-6.207zm12.414 0h-6.207v6.207h6.207v-6.207zm12.414 0h-6.207v3.104a3.103 3.103 0 106.207 0V37.24zm12.413 0h-6.206v3.104a3.103 3.103 0 106.206 0V37.24zm12.414 0H99.31v2.207a4 4 0 004 4h2.207v-6.207zm12.414 0h-6.207v6.207h6.207v-6.207zm12.414 4a4 4 0 00-4-4h-2.207v6.207h6.207v-2.207zm12.414-4h-6.207v2.207a4 4 0 004 4h2.207v-6.207zm6.207 0h-6.207v6.207h6.207v-6.207zm6.206 0h-6.206v6.207h6.206v-6.207zm6.207 0h-6.207v6.207h6.207v-6.207zm6.207 0h-6.207v6.207h6.207v-6.207zm6.207 0h-6.207v6.207h6.207v-6.207zm6.207 0h-6.207v6.207H176a4 4 0 004-4v-2.207zM62.069 43.448h-6.207v6.207h6.207v-6.207z" fill="#000"/><path d="M68.276 43.448h-6.207v6.207h6.207v-6.207zm43.448 0h-6.207v2.207a4 4 0 004 4h2.207v-6.207zm6.207 0h-6.207v6.207h6.207v-6.207zm6.207 0h-6.207v6.207h6.207v-6.207zm6.207 0h-6.207v6.207h6.207v-6.207zm-93.104 6.207h-3.103a3.103 3.103 0 100 6.207h3.103v-6.207z" fill="#000"/><path d="M43.448 52.759a3.103 3.103 0 00-3.103-3.104H37.24v6.207h3.104a3.104 3.104 0 003.103-3.103zm12.414-3.104H52.76a3.103 3.103 0 103.103 3.104v-3.104zm18.621 4a4 4 0 00-4-4h-2.207v6.207h6.207v-2.207zm12.414-.896a3.103 3.103 0 00-6.207 0v3.103h6.207V52.76zm12.413 0a3.103 3.103 0 10-6.207 0v3.103h6.207V52.76zm18.621-3.104h-6.207v3.104a3.104 3.104 0 006.207 0v-3.104zm18.621 4a4 4 0 00-4-4h-2.207v6.207h6.207v-2.207zm12.414-.896a3.104 3.104 0 10-3.104 3.103h3.104V52.76zm12.413 0a3.103 3.103 0 10-6.207 0v3.103h6.207V52.76zm18.621 0a3.103 3.103 0 10-6.207 0v3.103h3.104A3.103 3.103 0 00180 52.76zM12.414 55.862H9.31a3.103 3.103 0 100 6.207h3.104v-6.207zm6.206 4a4 4 0 00-4-4h-2.206v6.207h6.207v-2.207zm55.863-4h-6.207v3.103a3.103 3.103 0 106.207 0v-3.103zm12.414 0H80.69v2.207a4 4 0 004 4h2.207v-6.207z" fill="#000"/><path d="M93.103 55.862h-6.206v6.207h6.206v-6.207zm6.207 0h-6.207v6.207h6.207v-6.207zm6.207 3.103a3.103 3.103 0 00-3.103-3.103H99.31v6.207h3.104a3.103 3.103 0 003.103-3.104zm24.828-3.103h-2.207a4 4 0 00-4 4v2.207h6.207v-6.207zm6.207 0h-6.207v6.207h2.207a4 4 0 004-4v-2.207zm18.62 0h-6.206v3.103a3.103 3.103 0 106.206 0v-3.103zm12.414 0h-6.207v2.207a4 4 0 004 4h2.207v-6.207zm6.207 0h-6.207v6.207h6.207v-6.207zM18.62 62.069h-6.206v6.207h6.207v-6.207zm18.621 0h-3.103a3.103 3.103 0 100 6.207h3.103v-6.207zm6.207 0h-6.207v6.207h6.207v-6.207zm6.207 4a4 4 0 00-4-4h-2.207v6.207h6.207v-2.207zm12.414-.897a3.103 3.103 0 00-6.207 0v3.104h6.207v-3.104z" fill="#000"/><path d="M93.103 62.069h-6.206v6.207h2.206a4 4 0 004-4v-2.207zm31.035 0h-2.207a4 4 0 00-4 4v2.207h6.207v-6.207zM180 65.172a3.103 3.103 0 00-3.103-3.103h-3.104v3.103a3.104 3.104 0 006.207 0zM12.414 68.276h-2.207a4 4 0 00-4 4v2.207h6.207v-6.207zm6.206 0h-6.206v6.207h6.207v-6.207zm31.035 0h-6.207v6.207h6.207v-6.207zm6.207 0h-6.207v6.207h2.207a4 4 0 004-4v-2.207zm12.414 4a4 4 0 00-4-4h-2.207v2.207a4 4 0 004 4h2.207v-2.207zm12.414-4h-2.207a4 4 0 00-4 4v2.207h6.207v-6.207zm6.207 0H80.69v6.207h2.207a4 4 0 004-4v-2.207zm18.62 3.104a3.103 3.103 0 10-6.206-.001 3.103 3.103 0 006.206 0zm12.414-3.104h-2.207a4 4 0 00-4 4v2.207h6.207v-6.207zm6.207 0h-6.207v6.207h6.207v-6.207zm43.448 3.104a3.103 3.103 0 10-6.207 0v3.103h6.207v-3.104zM12.414 74.483H6.207v2.207a4 4 0 004 4h2.207v-6.207zm6.206 0h-6.206v6.207h6.207v-6.207zm18.621 0h-3.103a3.103 3.103 0 100 6.207h3.103v-6.207zm6.207 0h-6.207v6.207h6.207v-6.207zm31.035 0h-6.207v6.207h6.207v-6.207zm43.448 0h-6.207v6.207h2.207a4 4 0 004-4v-2.207zm12.414 0h-6.207v2.207a4 4 0 004 4h2.207v-6.207zm6.207 0h-6.207v6.207h6.207v-6.207zm6.207 0h-6.207v6.207h6.207v-6.207zm6.207 0h-6.207v6.207h6.207v-6.207zm6.206 0h-6.206v6.207h6.206v-6.207zm6.207 0h-6.207v6.207h6.207v-6.207zm6.207 0h-6.207v6.207h6.207v-6.207zm6.207 4a4 4 0 00-4-4h-2.207v6.207h6.207v-2.207zm-148.965 5.31a3.103 3.103 0 00-3.104-3.103h-3.103v6.207h3.103a3.104 3.104 0 003.104-3.104zm24.827.897a4 4 0 00-4-4h-2.207v6.207h6.207V84.69zm12.414-4h-2.207a4 4 0 00-4 4v2.207h6.207V80.69zm6.207 0h-6.207v6.207h6.207V80.69zm6.207 0h-6.207v6.207h6.207V80.69zm12.414 0H84.69a4 4 0 00-4 4v2.207h6.207V80.69zm6.206 4a4 4 0 00-4-4h-2.206v6.207h6.206V84.69zm12.414-4h-3.103a3.104 3.104 0 100 6.207h3.103V80.69zm6.207 0h-6.207v6.207h6.207V80.69zm55.862 0h-6.207v6.207h6.207V80.69zm12.414 4a4 4 0 00-4-4h-2.207v6.207H180V84.69zM6.207 90A3.103 3.103 0 100 90a3.103 3.103 0 006.207 0zm12.413-3.103h-2.206a4 4 0 00-4 4v2.206h6.207v-6.206zm24.828 0h-2.207a4 4 0 00-4 4v2.206h6.207v-6.206zm12.414 0h-6.207v6.206h6.207v-6.206zm12.414 0h-6.207v6.206h6.207v-6.206zm12.414 0h-6.207v6.206h6.207v-6.206zm6.207 0H80.69v6.206h6.207v-6.206z" fill="#000"/><path d="M93.103 86.897h-6.206v6.206h6.206v-6.206zm18.621 0h-6.207v6.206h6.207v-6.206zm6.207 0h-6.207v6.206h6.207v-6.206zm6.207 4a4 4 0 00-4-4h-2.207v6.206h6.207v-2.206zM136.552 90a3.104 3.104 0 00-6.207 0v3.103h6.207V90zm12.414 0a3.104 3.104 0 00-6.207 0v3.103h6.207V90zm18.62-3.103h-6.207v6.206h6.207v-6.206zm12.414 0h-6.207v6.206H180v-6.206zM18.62 93.103h-6.206v6.207h6.207v-6.207zm18.621 0h-2.206a4 4 0 00-4 4v2.207h6.206v-6.207zm12.414 0h-6.207v6.207h6.207v-6.207zm12.414 0h-6.207v6.207h6.207v-6.207z" fill="#000"/><path d="M68.276 93.103h-6.207v6.207h6.207v-6.207zm12.414 0h-6.207v6.207h6.207v-6.207zm6.207 0H80.69v6.207h6.207v-6.207zm12.413 3.104a3.103 3.103 0 00-3.103-3.104h-3.104v3.104a3.103 3.103 0 006.207 0zm12.414-3.104h-6.207v6.207h6.207v-6.207zm6.207 0h-6.207v6.207h6.207v-6.207zm12.414 0h-6.207v2.207a4 4 0 004 4h2.207v-6.207zm6.207 0h-6.207v6.207h6.207v-6.207zm12.414 0h-6.207v6.207h6.207v-6.207zm12.413 0h-2.207a4 4 0 00-4 4v2.207h6.207v-6.207zm6.207 0h-6.207v6.207h6.207v-6.207zm12.414 0h-6.207v6.207H176a4 4 0 004-4v-2.207zM12.414 99.31h-2.207a4 4 0 00-4 4v2.207h6.207V99.31zm12.414 3.104a3.104 3.104 0 00-3.104-3.104h-3.103v6.207h3.103a3.103 3.103 0 003.104-3.103zm12.413-3.104h-6.206v2.207a4 4 0 004 4h2.206V99.31zm6.207 0h-6.207v6.207h6.207V99.31zm6.207 0h-6.207v6.207h6.207V99.31zm6.207 0h-6.207v6.207h6.207V99.31zm6.207 0h-6.207v6.207h6.207V99.31zm12.414 0h-6.207v6.207h6.207V99.31zm12.414 0H80.69v6.207h6.207V99.31zm24.827 0h-6.207v6.207h6.207V99.31zm6.207 0h-6.207v6.207h6.207V99.31zm24.828 0h-6.207v6.207h6.207V99.31zm12.413 0h-6.206v6.207h6.206V99.31zm12.414 0h-6.207v6.207h6.207V99.31zm6.207 0h-6.207v6.207h6.207V99.31zm-161.379 6.207H6.207v6.207h6.207v-6.207z" fill="#000"/><path d="M18.62 105.517h-6.206v6.207h6.207v-6.207zm31.035 0h-6.207v6.207h6.207v-6.207zm12.414 0h-6.207v6.207h6.207v-6.207z" fill="#000"/><path d="M68.276 105.517h-6.207v6.207h6.207v-6.207zm12.414 0h-6.207v2.207a4 4 0 004 4h2.207v-6.207zm12.413 0h-6.206v6.207h6.206v-6.207zm6.207 0h-6.207v6.207h6.207v-6.207zm6.207 0H99.31v6.207h2.207a4 4 0 004-4v-2.207zm18.621 3.104a3.104 3.104 0 00-3.104-3.104h-3.103v3.104a3.103 3.103 0 106.207 0zm12.414-3.104h-3.104a3.104 3.104 0 000 6.207h3.104v-6.207zm6.207 0h-6.207v6.207h6.207v-6.207zm12.413 0h-6.206v6.207h6.206v-6.207zm6.207 0h-6.207v6.207h6.207v-6.207zm12.414 0h-6.207v2.207a4 4 0 004 4h2.207v-6.207zm-161.379 6.207H6.207v6.207h6.207v-6.207zm6.206 0h-6.206v6.207h6.207v-6.207zm18.621 0h-2.206a4 4 0 00-4 4v2.207h6.206v-6.207zm6.207 0h-6.207v6.207h6.207v-6.207zm6.207 0h-6.207v6.207h6.207v-6.207zm12.414 0h-6.207v2.207a4 4 0 004 4h2.207v-6.207zm6.207 0h-6.207v6.207h6.207v-6.207zm18.621 0H80.69v6.207h6.207v-6.207zm6.206 0h-6.206v6.207h6.206v-6.207zm49.656 0h-6.207v2.207a4 4 0 004 4h2.207v-6.207zm6.207 0h-6.207v6.207h6.207v-6.207zm12.413 0h-6.207v6.207h6.207v-6.207zm18.621 4a4 4 0 00-4-4h-2.207v6.207H180v-2.207zM6.207 117.931H4a4 4 0 00-4 4v2.207h6.207v-6.207zm12.413 0h-6.206v6.207h6.207v-6.207z" fill="#000"/><path d="M24.828 121.931a4 4 0 00-4-4H18.62v6.207h6.207v-2.207zm12.413-4h-6.206v6.207h6.206v-6.207zm12.414 0h-6.207v6.207h6.207v-6.207zm18.621 0h-6.207v2.207a4 4 0 004 4h2.207v-6.207zm18.621 0H80.69v2.207a4 4 0 004 4h2.207v-6.207zm12.413 0h-6.207v6.207h6.207v-6.207zm6.207 4a4 4 0 00-4-4H99.31v6.207h6.207v-2.207zm24.828-.897a3.104 3.104 0 00-6.207 0v3.104h6.207v-3.104zm18.621-3.103h-6.207v6.207h6.207v-6.207zm12.413 0h-6.207v6.207h6.207v-6.207zm6.207 4a4 4 0 00-4-4h-2.207v6.207h6.207v-2.207zm12.414-4h-6.207v6.207H180v-6.207zM6.207 124.138H0v2.207a4 4 0 004 4h2.207v-6.207zm6.207 0H6.207v6.207h6.207v-6.207zm6.206 0h-6.206v6.207h6.207v-6.207z" fill="#000"/><path d="M24.828 124.138H18.62v6.207h2.207a4 4 0 004-4v-2.207zm12.413 0h-6.206v2.207a4 4 0 004 4h2.206v-6.207zm6.207 0h-6.207v6.207h6.207v-6.207zm6.207 0h-6.207v6.207h6.207v-6.207zm6.207 4a4 4 0 00-4-4h-2.207v6.207h6.207v-2.207zm18.621 0a4 4 0 00-4-4h-2.207v6.207h6.207v-2.207zm18.62-4h-6.206v2.207a4 4 0 004 4h2.206v-6.207zm6.207 0h-6.207v6.207h6.207v-6.207zm12.414 0h-6.207v2.207a4 4 0 004 4h2.207v-6.207zm6.207 3.103a3.103 3.103 0 00-3.103-3.103h-3.104v6.207h3.104a3.104 3.104 0 003.103-3.104zm12.414-3.103h-6.207v6.207h6.207v-6.207zm6.207 0h-6.207v6.207h6.207v-6.207zm6.207 0h-6.207v6.207h6.207v-6.207zm6.207 0h-6.207v6.207h6.207v-6.207zm6.206 0h-6.206v6.207h6.206v-6.207zm6.207 0h-6.207v6.207h6.207v-6.207zm12.414 0h-6.207v6.207h6.207v-6.207zm6.207 0h-6.207v6.207H176a4 4 0 004-4v-2.207zm-124.138 6.207h-6.207v2.207a4 4 0 004 4h2.207v-6.207zm6.207 0h-6.207v6.207h6.207v-6.207zm6.207 0h-6.207v6.207h6.207v-6.207zm12.414 4a4 4 0 00-4-4h-2.207v6.207h6.207v-2.207zm18.62-4h-6.207v6.207h2.207a4 4 0 004-4v-2.207zm31.035 0h-6.207v6.207h6.207v-6.207zm24.827 0h-6.206v6.207h6.206v-6.207zm6.207 0h-6.207v6.207h6.207v-6.207zm6.207 0h-6.207v6.207h6.207v-6.207zm6.207 0h-6.207v6.207h2.207a4 4 0 004-4v-2.207zM6.207 136.552H4a4 4 0 00-4 4v2.207h6.207v-6.207zm6.207 0H6.207v6.207h6.207v-6.207zm6.206 0h-6.206v6.207h6.207v-6.207z" fill="#000"/><path d="M24.828 136.552H18.62v6.207h6.207v-6.207zm6.207 0h-6.207v6.207h6.207v-6.207zm6.206 0h-6.206v6.207h6.206v-6.207zm6.207 4a4 4 0 00-4-4h-2.207v6.207h6.207v-2.207zm18.621-4h-6.207v6.207h6.207v-6.207z" fill="#000"/><path d="M68.276 136.552h-6.207v6.207h6.207v-6.207zm6.207 0h-6.207v6.207h6.207v-6.207zm6.207 0h-6.207v6.207h2.207a4 4 0 004-4v-2.207zm12.413 0H90a3.103 3.103 0 100 6.207h3.103v-6.207zm18.621 3.103a3.103 3.103 0 10-6.207 0v3.104h6.207v-3.104zm12.414-3.103h-3.104a3.103 3.103 0 100 6.207h3.104v-6.207zm6.207 0h-6.207v6.207h6.207v-6.207zm12.414 3.103a3.104 3.104 0 10-6.207.001 3.104 3.104 0 006.207-.001zm12.413-3.103h-6.206v6.207h6.206v-6.207zm6.207 0h-6.207v6.207h2.207a4 4 0 004-4v-2.207zM6.207 142.759H0v6.207h6.207v-6.207zm37.241 0h-6.207v6.207h6.207v-6.207zm12.414 0H52.76a3.103 3.103 0 103.103 3.103v-3.103zm43.448 4a4 4 0 00-4-4h-2.207v6.207h6.207v-2.207z" fill="#000"/><path d="M111.724 142.759h-6.207v3.103a3.104 3.104 0 006.207 0v-3.103zm18.621 0h-6.207v6.207h6.207v-6.207zm24.827 0h-6.206v6.207h6.206v-6.207zm18.621 0h-2.207a4 4 0 00-4 4v2.207h6.207v-6.207zm6.207 4a4 4 0 00-4-4h-2.207v6.207H180v-2.207zM6.207 148.966H0v6.206h6.207v-6.206zm12.413 0h-2.206a4 4 0 00-4 4v2.206h6.207v-6.206z" fill="#000"/><path d="M24.828 148.966H18.62v6.206h6.207v-6.206zm6.207 4a4 4 0 00-4-4h-2.207v6.206h6.207v-2.206zm12.413-4h-6.207v6.206h6.207v-6.206zm24.828 0h-2.207a4 4 0 00-4 4v2.206h6.207v-6.206zm6.207 4a4 4 0 00-4-4h-2.207v6.206h6.207v-2.206zm18.62-4h-2.206a4 4 0 00-4 4v2.206h6.206v-6.206zm6.207 0h-6.207v6.206h2.207a4 4 0 004-4v-2.206zm31.035 0h-6.207v6.206h6.207v-6.206zm6.207 0h-6.207v6.206h6.207v-6.206zm6.207 0h-6.207v6.206h6.207v-6.206zm6.207 0h-6.207v6.206h6.207v-6.206zm6.206 0h-6.206v6.206h6.206v-6.206zm6.207 0h-6.207v6.206h6.207v-6.206zm6.207 0h-6.207v6.206h6.207v-6.206zm12.414 0h-6.207v3.103a3.104 3.104 0 006.207 0v-3.103zM6.207 155.172H0v6.207h6.207v-6.207zm12.413 0h-6.206v6.207h6.207v-6.207z" fill="#000"/><path d="M24.828 155.172H18.62v6.207h6.207v-6.207zm6.207 0h-6.207v6.207h6.207v-6.207zm12.413 0h-6.207v6.207h6.207v-6.207zm18.621 0h-2.207a4 4 0 00-4 4v2.207h6.207v-6.207zm18.621 4a4 4 0 00-4-4h-2.207v6.207h6.207v-2.207zm12.413-4h-6.206v6.207h2.206a4 4 0 004-4v-2.207zm18.621 0h-3.103a3.104 3.104 0 000 6.207h3.103v-6.207zm6.207 0h-6.207v6.207h6.207v-6.207zm6.207 0h-6.207v6.207h6.207v-6.207zm6.207 0h-6.207v6.207h6.207v-6.207zm6.207 0h-6.207v6.207h6.207v-6.207zm18.62 0h-6.206v6.207h6.206v-6.207zm12.414 0h-6.207v6.207h2.207a4 4 0 004-4v-2.207zM6.207 161.379H0v6.207h6.207v-6.207zm12.413 0h-6.206v2.207a4 4 0 004 4h2.207v-6.207z" fill="#000"/><path d="M24.828 161.379H18.62v6.207h6.207v-6.207zm6.207 0h-6.207v6.207h2.207a4 4 0 004-4v-2.207zm12.413 0h-6.207v6.207h6.207v-6.207zm18.621 0h-6.207v2.207a4 4 0 004 4h2.207v-6.207z" fill="#000"/><path d="M68.276 161.379h-6.207v6.207h6.207v-6.207zm6.207 0h-6.207v6.207h2.207a4 4 0 004-4v-2.207zm12.414 0H80.69v2.207a4 4 0 004 4h2.207v-6.207zm31.034 0h-6.207v6.207h6.207v-6.207zm12.414 0h-6.207v2.207a4 4 0 004 4h2.207v-6.207zm6.207 0h-6.207v6.207h6.207v-6.207zm6.207 0h-6.207v6.207h6.207v-6.207zm6.207 0h-6.207v6.207h6.207v-6.207zm12.413 0h-6.207v6.207h2.207a4 4 0 004-4v-2.207zM6.207 167.586H0v6.207h6.207v-6.207zm37.241 0h-6.207v6.207h6.207v-6.207zm24.828 0h-6.207v6.207h2.207a4 4 0 004-4v-2.207zm24.827 4a4 4 0 00-4-4h-2.206v6.207h6.206v-2.207zm24.828-4h-6.207v6.207h6.207v-6.207zm24.828 0h-6.207v6.207h2.207a4 4 0 004-4v-2.207zm12.413 0h-6.206v2.207a4 4 0 004 4h2.206v-6.207zm18.621 0h-2.207a4 4 0 00-4 4v2.207h6.207v-6.207z" fill="#000"/><path d="M180 170.69a3.104 3.104 0 00-3.103-3.104h-3.104v6.207h3.104A3.103 3.103 0 00180 170.69zM6.207 173.793H0V176a4 4 0 004 4h2.207v-6.207zm6.207 0H6.207V180h6.207v-6.207zm6.206 0h-6.206V180h6.207v-6.207z" fill="#000"/><path d="M24.828 173.793H18.62V180h6.207v-6.207zm6.207 0h-6.207V180h6.207v-6.207zm6.206 0h-6.206V180h6.206v-6.207zm6.207 0h-6.207V180h2.207a4 4 0 004-4v-2.207zm18.621 0h-3.104a3.104 3.104 0 103.104 3.104v-3.104zm31.034 0h-6.206v3.104a3.103 3.103 0 006.206 0v-3.104zm12.414 0h-3.103a3.104 3.104 0 000 6.207h3.103v-6.207zm6.207 0h-6.207V180h6.207v-6.207zm6.207 0h-6.207V180h6.207v-6.207zm6.207 3.104a3.104 3.104 0 00-3.104-3.104h-3.103V180h3.103a3.104 3.104 0 003.104-3.103zm12.414-3.104h-3.104a3.104 3.104 0 103.104 3.104v-3.104zm24.827 0h-6.207V176a4 4 0 004 4h2.207v-6.207zm6.207 0h-6.207V180h2.207a4 4 0 004-4v-2.207z" fill="#000"/></svg>