<svg width="40" height="40" fill="none" xmlns="http://www.w3.org/2000/svg"><path d="M32.618 12.897L22.837 5.19a4.57 4.57 0 00-5.674 0l-9.781 7.707A6.215 6.215 0 005 17.806v14.24a3.755 3.755 0 003.75 3.75H15v-8.474a4.592 4.592 0 01-3.333-4.405v-7.084a.833.833 0 111.666 0v5.417c0 .23.188.417.417.417H15c.23 0 .417-.188.417-.417v-5.417a.833.833 0 111.666 0v5.417c0 .23.188.417.417.417h1.25c.23 0 .417-.188.417-.417v-5.417a.833.833 0 111.666 0v7.084a4.592 4.592 0 01-3.333 4.405v8.475h5.833V15.833a.832.832 0 011.355-.65c.148.119 3.645 3.012 3.645 11.317v.782c0 .578-.225 1.122-.635 1.531l-1.865 1.865v5.119h5.417a3.755 3.755 0 003.75-3.75V17.806a6.215 6.215 0 00-2.382-4.91z" fill="#FF6D1B"/></svg>