<svg width="40" height="40" fill="none" xmlns="http://www.w3.org/2000/svg"><path d="M24.574 8.433a.532.532 0 00-.47.03l-8.67 4.958-3.565-2.04a.517.517 0 00-.645.1.511.511 0 00.145.78l4.066 2.332 9.172-5.25c.371-.213.36-.744-.033-.91zm2.723 1.629a.526.526 0 00-.591-.046l-11.271 6.448-5.067-2.9a.51.51 0 00-.708.196.512.512 0 00.207.68l5.567 3.196 11.78-6.74a.506.506 0 00.083-.835zm1.984 2.036a.513.513 0 00-.665-.13l-13.181 7.54-6.011-3.445a.505.505 0 00-.752.305.522.522 0 00.251.574l6.511 3.738 13.683-7.83a.511.511 0 00.164-.752zm1.649 2.977c-.203-.542-.849-.74-1.352-.452l-14.143 8.09-6.638-3.805c-.201-.115-.464.023-.464.255 0 6.444 5.223 11.667 11.667 11.667 6.443 0 11.666-5.223 11.666-11.667 0-1.438-.26-2.816-.736-4.088z" fill="#5A5A5A"/></svg>