<svg width="35" height="35" fill="none" xmlns="http://www.w3.org/2000/svg"><g opacity=".3" clip-path="url(#clip0_140_1911)"><path d="M17.448.332c-4.675 0-8.492 3.857-8.492 8.58 0 4.724 3.817 8.582 8.492 8.582 4.674 0 8.49-3.857 8.49-8.581 0-4.724-3.816-8.581-8.49-8.581zM7.682 20.926c-2.095 0-3.82 1.744-3.82 3.861v1.03c0 2.523 1.583 4.786 3.998 6.343 2.415 1.556 5.72 2.495 9.588 2.495 3.867 0 7.172-.94 9.587-2.495 2.415-1.557 3.999-3.82 3.999-6.344v-1.029c0-2.117-1.726-3.861-3.822-3.861H7.682z" fill="#252525"/></g><defs><clipPath id="clip0_140_1911"><path fill="#fff" transform="translate(.286 .332)" d="M0 0h34.323v34.323H0z"/></clipPath></defs></svg>