<svg width="40" height="40" fill="none" xmlns="http://www.w3.org/2000/svg"><path d="M0 13.61h5.076c1.298 0 1.797 1.217 1.797 1.217l1.103 5.61C6.47 15.587 0 13.61 0 13.61z" fill="#5A5A5A"/><path d="M11.374 13.585h3.511L9.892 25.947H6.277L3.643 15.935s2.774 1.406 4.483 5.238c.072.466.245 1.215.245 1.215l3.003-8.803zm4.809-.002h3.32l-1.986 12.364h-3.28l1.946-12.364zm9.908-.249c1.519 0 3.073.607 3.073.607l-.531 2.73s-1.214-.798-2.274-.798c-1.632 0-2.203.535-2.203 1.251 0 1.402 4.552 1.629 4.553 4.774 0 2.617-3.261 4.437-5.612 4.437s-3.567-.718-3.567-.718l.568-2.62s1.25.72 3.149.72c1.893 0 2.16-.795 2.16-1.136 0-2.008-4.55-1.476-4.55-5.38 0-2.161 1.783-3.867 5.234-3.867z" fill="#5A5A5A"/><path fill-rule="evenodd" clip-rule="evenodd" d="M34.007 13.583h3.451L40 25.947h-2.987l-.353-1.766h-4.107l-.674 1.766H28.62l5.386-12.364zm-.545 8.237l1.787-4.673.935 4.673h-2.722z" fill="#5A5A5A"/></svg>