<svg width="40" height="40" fill="none" xmlns="http://www.w3.org/2000/svg"><path d="M20 1.667a1.666 1.666 0 00-1.662 1.764C10.848 4.261 5 10.625 5 18.333v.834H3.75a1.25 1.25 0 100 2.5h3.942a3.861 3.861 0 00-.192 1.277c.02.832.336 1.437.539 1.89.537 1.2.616 2.109.778 3.099.123.754.366 1.642.963 2.404L8.66 33.51a1.25 1.25 0 00.762 1.595l8.936 3.156a1.253 1.253 0 001.597-.762l1.352-3.83c.188-.4 1.006-1.416 1.965-2.334.97-.928 2.09-1.844 2.87-2.402 2.855-2.039 5.55-3.562 5.56-3.568l.007-.003.007-.005a3.339 3.339 0 001.499-3.691h3.035a1.248 1.248 0 001.171-1.733 1.25 1.25 0 00-1.17-.767H35v-.834C35 10.624 29.152 4.26 21.661 3.43A1.666 1.666 0 0020 1.667zm-8.88 20h.173c.3.028.583.169.799.398l.141.235c.145.238.343.563.578.924.47.723 1.055 1.576 1.722 2.243 1.145 1.145 2.597 1.2 3.384 1.2 1.28 0 2.405-.59 3.836-1.273 1.431-.683 2.982-1.524 4.256-2.21.345-.186 1.009-.564 1.797-.909.788-.345 1.692-.608 2.176-.608.35 0 .668.202.796.534a.821.821 0 01-.35 1.014 71.746 71.746 0 00-5.737 3.684 30.306 30.306 0 00-3.148 2.63c-.738.707-1.412 1.4-1.93 2.131l-7.752-2.74c-.393-.346-.453-.624-.578-1.39-.14-.852-.264-2.157-.964-3.718h.002c-.206-.459-.318-.802-.32-.923-.01-.4.101-.684.359-.907.237-.205.501-.301.76-.315zm3.665 0h8.76a72.798 72.798 0 01-2.868 1.471c-1.342.64-2.688 1.029-2.76 1.029-.787 0-1.094.055-1.616-.468-.402-.4-.965-1.178-1.393-1.837-.05-.075-.077-.124-.123-.195zm2.299 11.666a1.25 1.25 0 11-.001 2.501 1.25 1.25 0 010-2.5z" fill="#FF6D1B"/></svg>