<svg width="20" height="20" fill="none" xmlns="http://www.w3.org/2000/svg"><g clip-path="url(#clip0_672_661)" fill="#0092B4"><path d="M16.833 9.136v1.29c1.262.63 1.995 1.41 1.995 2.185 0 1.775-3.57 3.17-7.103 3.463a.585.585 0 10.096 1.167c3.075-.253 8.179-1.58 8.179-4.63 0-1.666-1.63-2.812-3.167-3.475zM6.477 14.085a.586.586 0 00-.99.285l-.259 1.186c-3.877-1.044-5.74-3.29-2.054-5.13v-1.29c-4.836 2.086-4.077 6.004 1.804 7.566l-.233 1.065c-.1.457.353.844.79.67l2.929-1.172a.586.586 0 00.2-.955l-2.187-2.225zM10.26 1.597a.586.586 0 00-.581.003L4.93 4.34l5.072 2.93 5.073-2.944-4.816-2.729z"/><path d="M4.345 10.838c0 .21.112.403.293.507l4.78 2.76V8.284L4.345 5.355v5.483zm11.317 0V5.34l-5.073 2.942v5.822l4.78-2.76a.586.586 0 00.293-.507z"/></g><defs><clipPath id="clip0_672_661"><path fill="#fff" d="M0 0h20v20H0z"/></clipPath></defs></svg>