<svg width="34" height="34" fill="none" xmlns="http://www.w3.org/2000/svg"><path d="M32.698 10.649l-1.846.75c.767 1.889 1.156 3.773 1.156 5.601 0 8.275-6.733 15.008-15.008 15.008-3.423 0-6.739-1.213-9.44-3.433 1.273-1.977-.152-4.602-2.513-4.602a2.992 2.992 0 00-2.988 2.988c0 2.012 1.96 3.454 3.88 2.852h.001C9.058 32.517 12.96 34 17 34c9.346 0 17-7.653 17-17 0-2.086-.438-4.223-1.302-6.351zM1.992 17C1.992 8.725 8.725 1.992 17 1.992c3.423 0 6.738 1.213 9.44 3.433-1.273 1.977.152 4.602 2.513 4.602a2.992 2.992 0 002.988-2.988c0-2.012-1.96-3.454-3.88-2.852h-.001C24.942 1.483 21.04 0 17 0 7.654 0 0 7.653 0 17c0 2.086.438 4.223 1.302 6.351l1.846-.75C2.381 20.713 1.992 18.829 1.992 17z" fill="#fff"/><path d="M7.242 12.02h5.286c.538-2.47 1.866-5.909 4.402-5.976-4.22.026-7.88 2.45-9.688 5.976zm6.77 4.98c0 1.034.064 2.04.189 2.988h5.598c.125-.949.19-1.954.19-2.988s-.065-2.04-.19-2.988h-5.598c-.125.949-.19 1.954-.19 2.988zm12.746-4.98c-1.807-3.526-5.468-5.95-9.688-5.976 2.536.067 3.864 3.505 4.402 5.976h5.286zm-12.186 0h4.857c-.37-1.506-1.326-3.985-2.428-3.985-1.184 0-2.124 2.747-2.429 3.985zM27.958 17c0-1.035-.144-2.038-.414-2.988h-5.737c.115.96.174 1.963.174 2.988s-.06 2.029-.174 2.988h5.737c.27-.95.414-1.953.414-2.988zm-1.199 4.98h-5.286c-.537 2.468-1.864 5.908-4.4 5.976 4.219-.026 7.879-2.45 9.686-5.976zm-9.83 5.976c-2.536-.068-3.863-3.506-4.4-5.976H7.241c1.807 3.525 5.467 5.95 9.687 5.976zM6.043 17c0 1.035.144 2.038.414 2.988h5.737A25.223 25.223 0 0112.02 17c0-1.025.06-2.029.175-2.988H6.457A10.91 10.91 0 006.043 17zm13.387 4.98h-4.858c.371 1.506 1.326 3.985 2.429 3.985 1.183 0 2.123-2.747 2.428-3.985z" fill="#fff"/></svg>