<svg width="26" height="30" fill="none" xmlns="http://www.w3.org/2000/svg"><path d="M24.61 26.484V.88a.878.878 0 00-.88-.88H.88A.878.878 0 000 .879v24.726A4.4 4.4 0 004.395 30H25.98a5.233 5.233 0 01-1.372-3.516zM3.515 14.941c0-.485.393-.879.879-.879h7.03a.88.88 0 01.88.88v7.03a.878.878 0 01-.88.88h-7.03a.878.878 0 01-.88-.88v-7.03zm16.699 11.543H4.395c-1.159 0-1.164-1.757 0-1.757h15.82c1.158 0 1.163 1.757 0 1.757zm0-3.632H14.94c-1.158 0-1.163-1.758 0-1.758h5.274c1.158 0 1.163 1.758 0 1.758zm0-3.516H14.94c-1.158 0-1.163-1.758 0-1.758h5.274c1.158 0 1.163 1.758 0 1.758zm0-3.516H14.94c-1.158 0-1.163-1.758 0-1.758h5.274c1.158 0 1.163 1.758 0 1.758zm.879-4.394a.878.878 0 01-.88.879H4.395a.878.878 0 01-.878-.88v-7.03a.88.88 0 01.879-.88h15.82a.88.88 0 01.879.88v7.03z" fill="#fff"/></svg>