<svg width="34" height="34" fill="none" xmlns="http://www.w3.org/2000/svg"><path d="M17 0C10.958 0 6.043 4.915 6.043 10.957c0 3.458 1.611 6.548 4.122 8.558.634-3.1 3.377-5.57 6.835-5.57a4.987 4.987 0 01-4.98-4.98A4.987 4.987 0 0117 3.985a4.987 4.987 0 014.98 4.98 4.987 4.987 0 01-4.98 4.98c3.262 0 6.17 2.303 6.83 5.574a10.943 10.943 0 004.127-8.562C27.957 4.915 23.042 0 17 0z" fill="#fff"/><path d="M17 15.938a4.97 4.97 0 00-4.975 4.78A10.89 10.89 0 0017 21.914c1.79 0 3.48-.431 4.973-1.195A4.977 4.977 0 0017 15.937zM20.491 34l-3.49-1.835L13.51 34l.67-3.907-2.838-2.766 3.921-.57 1.738-3.546 1.737 3.546 3.922.57-2.839 2.766.67 3.907z" fill="#fff"/><path d="M9.185 34l-3.509-1.844L2.168 34l.67-3.907L0 27.328l3.922-.57 1.754-3.554 1.755 3.554 3.922.57-2.838 2.767.67 3.906zm22.646 0l-3.508-1.844L24.815 34l.67-3.907-2.838-2.766 3.922-.57 1.754-3.554 1.754 3.554 3.922.57-2.838 2.767.67 3.906zM17 11.953a2.988 2.988 0 100-5.976 2.988 2.988 0 000 5.976z" fill="#fff"/></svg>