<svg width="30" height="28" fill="none" xmlns="http://www.w3.org/2000/svg"><path d="M20.856 2.226A2.234 2.234 0 0018.657.325h-7.315c-1.095 0-2.04.817-2.198 1.901l-.386 2.65h1.833l.348-2.388a.41.41 0 01.403-.349h7.315a.41.41 0 01.403.349l.348 2.388h1.834l-.386-2.65zm5.889 15.864H18.89v1.06a.907.907 0 01-.48.8l-2.983 1.59a.906.906 0 01-.854 0l-2.983-1.59a.907.907 0 01-.48-.8v-1.06H3.255A5.046 5.046 0 010 16.903v9.659c0 .614.5 1.113 1.114 1.113h27.773c.613 0 1.113-.5 1.113-1.113v-9.659a5.046 5.046 0 01-3.255 1.187zm2.142-11.4H1.114C.5 6.69 0 7.19 0 7.804v5.217a3.259 3.259 0 003.255 3.255h7.855v-1.59c0-.5.406-.907.907-.907h5.966c.5 0 .907.406.907.908v1.589h7.855A3.259 3.259 0 0030 13.02V7.804c0-.614-.5-1.114-1.113-1.114z" fill="#fff"/><path d="M12.924 15.594v3.011l2.075 1.107 2.076-1.107v-3.011h-4.151z" fill="#fff"/></svg>