<svg width="40" height="37" fill="none" xmlns="http://www.w3.org/2000/svg"><path d="M27.783 12.117c.017-.2.034-.4.034-.617 0-.217-.017-.417-.034-.617l1.384-1.016a2.055 2.055 0 00.566-2.667L28.5 5a1.992 1.992 0 00-2.6-.85l-1.533.717a7.937 7.937 0 00-.95-.567l-.167-1.783a2.029 2.029 0 00-2.017-1.85h-2.466c-1.05 0-1.917.8-2.017 1.85L16.583 4.3c-.333.167-.633.35-.95.567L14.1 4.15c-.95-.45-2.083-.067-2.6.85l-1.233 2.2c-.517.9-.267 2.05.566 2.667l1.384 1.016c-.017.2-.034.4-.034.617 0 .217.017.417.034.617l-1.384 1.016a2.055 2.055 0 00-.566 2.667L11.5 18c.517.917 1.65 1.3 2.6.85l1.533-.717c.317.217.617.4.95.567l.167 1.783c.1 1.05.967 1.85 2.017 1.85h2.466c1.05 0 1.917-.8 2.017-1.85l.167-1.783c.333-.167.633-.35.95-.567l1.533.717c.95.45 2.083.083 2.6-.85l1.233-2.2c.517-.9.267-2.05-.566-2.667l-1.384-1.016zm-3.616-.617c0 2.3-1.867 4.167-4.167 4.167a4.168 4.168 0 01-4.167-4.167c0-2.3 1.867-4.167 4.167-4.167S24.167 9.2 24.167 11.5zM35 27H5c-2.757 0-5 2.243-5 5s2.243 5 5 5h30c2.757 0 5-2.243 5-5s-2.243-5-5-5zM6.667 33.667A1.67 1.67 0 015 32a1.67 1.67 0 011.667-1.667A1.67 1.67 0 018.333 32a1.67 1.67 0 01-1.666 1.667zm8.333 0A1.67 1.67 0 0113.333 32 1.67 1.67 0 0115 30.333 1.67 1.67 0 0116.667 32 1.67 1.67 0 0115 33.667zm10 0A1.67 1.67 0 0123.333 32 1.67 1.67 0 0125 30.333 1.67 1.67 0 0126.667 32 1.67 1.67 0 0125 33.667zm8.333 0A1.67 1.67 0 0131.667 32a1.67 1.67 0 011.666-1.667A1.67 1.67 0 0135 32a1.67 1.67 0 01-1.667 1.667z" fill="#fff"/></svg>