<svg width="24" height="24" fill="none" xmlns="http://www.w3.org/2000/svg"><path d="M20.484 17.672V3.48a3.484 3.484 0 00-3.48-3.481H2.437A2.463 2.463 0 000 2.46v3.868h3.516v1.559A4.225 4.225 0 000 12.047a4.21 4.21 0 001.406 3.141v5.907l2.11-1.406v.83A3.484 3.484 0 006.996 24h14.566A2.463 2.463 0 0024 21.54v-3.868h-3.516zM1.406 2.46a1.056 1.056 0 012.11 0v2.46h-2.11V2.46zM4.22 9.234a2.816 2.816 0 012.812 2.813 2.816 2.816 0 01-2.812 2.812 2.816 2.816 0 01-2.813-2.812A2.816 2.816 0 014.22 9.234zm-1.407 6.79c.884.314 1.882.33 2.813 0v2.444L4.22 17.53l-1.407.938v-2.444zm2.11 4.495v-.83l2.11 1.406v-5.907a4.209 4.209 0 001.405-3.141 4.225 4.225 0 00-3.515-4.16V2.461c0-.377-.086-.735-.238-1.055h12.32c1.143 0 2.074.93 2.074 2.075v18.058c0 .377.086.735.238 1.055H6.996a2.077 2.077 0 01-2.074-2.075zm17.672 1.02a1.056 1.056 0 01-2.11 0v-2.46h2.11v2.46z" fill="#0092B4"/><path d="M10.547 4.219h6.328v1.406h-6.328V4.219zm0 3.609h6.328v1.406h-6.328V7.828zm0 3.516h6.328v1.406h-6.328v-1.406zm0 3.516h6.328v1.406h-6.328v-1.407zm0 3.515h6.328v1.406h-6.328v-1.406z" fill="#0092B4"/></svg>