<svg width="25" height="25" fill="none" xmlns="http://www.w3.org/2000/svg"><g clip-path="url(#clip0_703_2971)" fill="#0092B4"><path d="M12.5 25a.769.769 0 01-.342-.08c-4.942-2.406-9.033-5.003-9.033-12.42V3.906a.78.78 0 01.514-.734L12.233.047a.783.783 0 01.534 0l8.594 3.125a.78.78 0 01.514.734V12.5c0 7.417-4.09 10.014-9.033 12.42a.768.768 0 01-.342.08zM4.687 4.453V12.5c0 5.828 2.63 8.276 7.813 10.848 5.182-2.572 7.813-5.02 7.813-10.848V4.453L12.5 1.613l-7.813 2.84z"/><path d="M11.948 15.625L8.27 11.947l1.105-1.104 2.573 2.572L16.864 8.5l1.105 1.105-6.021 6.02z"/></g><defs><clipPath id="clip0_703_2971"><path fill="#fff" d="M0 0h25v25H0z"/></clipPath></defs></svg>