<svg width="25" height="25" fill="none" xmlns="http://www.w3.org/2000/svg"><g clip-path="url(#clip0_703_2974)"><path d="M20.175.938H4.826L0 7.519l12.552 16.543L25 7.517 20.175.937zM6.862 8.242l3.536 10.565L2.382 8.242h4.48zm1.54 0h8.201l-4.072 12.334L8.402 8.242zm9.74 0h4.485l-7.992 10.622 3.507-10.622zM19.435 2.4l3.214 4.382h-4.506L16.705 2.4h2.73zm-4.268 0l1.438 4.382H8.396L9.834 2.4h5.333zm-9.6 0h2.73L6.859 6.78H2.353L5.567 2.4z" fill="#0092B4"/></g><defs><clipPath id="clip0_703_2974"><path fill="#fff" d="M0 0h25v25H0z"/></clipPath></defs></svg>