<svg width="32" height="19" fill="none" xmlns="http://www.w3.org/2000/svg"><path fill-rule="evenodd" clip-rule="evenodd" d="M26.95 6.449l-.774.788-.031 4.139a17.084 17.084 0 00.056 1.391c.035.444.09.872.159 1.282v.01c.425 2.52 1.43 4.292 2.602 4.292 1.555 0 2.817-3.123 2.817-6.975v-9.84l-4.83 4.913z" fill="#0092B4"/><mask id="a" style="mask-type:alpha" maskUnits="userSpaceOnUse" x="0" y="0" width="30" height="19"><path fill-rule="evenodd" clip-rule="evenodd" d="M0 .375h29.636v17.978H0V.375z" fill="#fff"/></mask><g mask="url(#a)"><path fill-rule="evenodd" clip-rule="evenodd" d="M16.93 5.954l3.339-3.105h3.492L20.42 5.954h-3.49zm-3.636 0h-3.282L13.35 2.85h3.282l-3.338 3.104zm-6.92 0H3.63l3.356-3.11.004.008h2.723L6.375 5.953zm17.291 5.403l.032-4.139.006-.933 5.933-5.91L7.031.39c-.695 0-1.364.264-1.871.74L.721 5.28a2.256 2.256 0 00-.717 1.661l.003.821.003.596L0 8.37v7.327a2.656 2.656 0 002.656 2.656h22.559a8.773 8.773 0 01-.544-1.118c-.648-1.605-1.006-3.686-1.006-5.878z" fill="#0092B4"/></g></svg>