<svg width="27" height="27" fill="none" xmlns="http://www.w3.org/2000/svg"><path fill-rule="evenodd" clip-rule="evenodd" d="M7.512 19.251c.25.881 1.178 1.501 2.243 1.501h7.43c1.027 0 1.93-.577 2.217-1.416l2.339-6.882H5.586l1.926 6.797z" fill="#0092B4"/><mask id="a" style="mask-type:alpha" maskUnits="userSpaceOnUse" x="0" y="0" width="27" height="11"><path fill-rule="evenodd" clip-rule="evenodd" d="M.5.6h26.24v9.44H.5V.6z" fill="#fff"/></mask><g mask="url(#a)"><path fill-rule="evenodd" clip-rule="evenodd" d="M17.916 5.652a1.023 1.023 0 01-1.222-.77l-.434-1.914a1.022 1.022 0 011.992-.452l.435 1.914c.125.55-.22 1.097-.771 1.222zm-3.905.041h-.448a1.006 1.006 0 01-.796-.967l-.017-1.914a1.022 1.022 0 011.012-1.03 1.01 1.01 0 011.031 1.012l.017 1.914c.003.488-.342.88-.799.985zm-2.716-2.68l-.434 1.914a1.008 1.008 0 01-.82.766h-.412a1.02 1.02 0 01-.76-1.217l.434-1.914a1.022 1.022 0 011.992.451zm13.273 2.68h-3.422l-1.137-3.668C19.749 1.19 18.786.6 17.679.6H9.965c-1.068 0-2.006.548-2.302 1.344l-1.395 3.75H2.673a2.173 2.173 0 000 4.345h21.895a2.173 2.173 0 100-4.346z" fill="#0092B4"/></g><path fill-rule="evenodd" clip-rule="evenodd" d="M17.662 22.948h-8.45c-.672 0-1.216.544-1.216 1.216v.85c0 .672.544 1.216 1.216 1.216h8.45c.672 0 1.216-.544 1.216-1.215v-.85c0-.672-.544-1.216-1.216-1.216z" fill="#0092B4"/></svg>