<svg width="15" height="16" fill="none" xmlns="http://www.w3.org/2000/svg"><path d="M12.916 1.75h-1.25V.5h-.833v1.25H4.166V.5h-.833v1.25h-1.25A2.086 2.086 0 000 3.834v9.582c0 1.15.935 2.084 2.084 2.084h10.832A2.086 2.086 0 0015 13.416V3.833a2.086 2.086 0 00-2.084-2.083zm1.25 11.666c0 .689-.56 1.25-1.25 1.25H2.084c-.69 0-1.25-.561-1.25-1.25v-7.5h13.332v7.5zm0-8.333H.833v-1.25c0-.69.561-1.25 1.25-1.25h1.25v.833h.833v-.833h6.667v.834h.833v-.833h1.25c.69 0 1.25.56 1.25 1.249v1.25z" fill="#0092B4"/></svg>