<svg width="19" height="14" fill="none" xmlns="http://www.w3.org/2000/svg"><path d="M3.984 1.48h8.792c2.896 0 5.244 2.422 5.244 5.408v3.26c0 .45-.353.814-.788.814H3.984v-4.71" stroke="#3F4B50" stroke-linecap="round" stroke-linejoin="round"/><path d="M13.174 1.388v3.993c0 .62.486 1.12 1.086 1.12h3.572" stroke="#3F4B50"/><path d="M1 6.132h5.217m-3.16-2.494h5.217" stroke="#3F4B50" stroke-linecap="round" stroke-linejoin="round"/><path fill-rule="evenodd" clip-rule="evenodd" d="M9.248 11.014c0 .952-.749 1.724-1.672 1.724-.923 0-1.672-.772-1.672-1.724 0-.953.75-1.724 1.672-1.724.923 0 1.672.771 1.672 1.724z" fill="#fff"/><path clip-rule="evenodd" d="M9.248 11.014c0 .952-.749 1.724-1.672 1.724-.923 0-1.672-.772-1.672-1.724 0-.953.75-1.724 1.672-1.724.923 0 1.672.771 1.672 1.724z" stroke="#3F4B50"/><path fill-rule="evenodd" clip-rule="evenodd" d="M15.84 11.014c0 .952-.749 1.724-1.672 1.724-.923 0-1.672-.772-1.672-1.724 0-.953.75-1.724 1.672-1.724.923 0 1.672.771 1.672 1.724z" fill="#fff"/><path clip-rule="evenodd" d="M15.84 11.014c0 .952-.749 1.724-1.672 1.724-.923 0-1.672-.772-1.672-1.724 0-.953.75-1.724 1.672-1.724.923 0 1.672.771 1.672 1.724z" stroke="#3F4B50"/></svg>