<svg width="21" height="21" fill="none" xmlns="http://www.w3.org/2000/svg"><path fill-rule="evenodd" clip-rule="evenodd" d="M3.107 4.013h14.555a2 2 0 011.96 2.396l-1.191 5.897a2 2 0 01-1.96 1.604H6.742a2 2 0 01-1.96-1.604L3.106 4.013z" fill="#0092B4"/><path fill-rule="evenodd" clip-rule="evenodd" d="M.61 2.377a1.448 1.448 0 112.663-1.136l4.363 10.226a1.448 1.448 0 01-2.663 1.136L.61 2.377zm7.636 18.219c1.139 0 2.062-.91 2.062-2.032 0-1.123-.923-2.032-2.062-2.032-1.138 0-2.061.91-2.061 2.032 0 1.122.923 2.032 2.061 2.032zm7.56 0c1.138 0 2.061-.91 2.061-2.032 0-1.123-.923-2.032-2.061-2.032-1.139 0-2.062.91-2.062 2.032 0 1.122.923 2.032 2.062 2.032z" fill="#0092B4"/></svg>