<svg width="18" height="18" fill="none" xmlns="http://www.w3.org/2000/svg"><g clip-path="url(#clip0_844_81)"><path d="M16.572 2.552a4.84 4.84 0 00-3.6-1.568 4.53 4.53 0 00-2.829.977A5.786 5.786 0 009 3.155 5.783 5.783 0 007.856 1.96 4.528 4.528 0 005.028.984a4.84 4.84 0 00-3.6 1.568C.508 3.55 0 4.915 0 6.394c0 1.522.567 2.916 1.785 4.385 1.09 1.315 2.656 2.65 4.47 4.195.618.528 1.32 1.126 2.05 1.763a1.055 1.055 0 001.39 0c.73-.637 1.432-1.235 2.051-1.763 1.813-1.546 3.38-2.88 4.469-4.195C17.433 9.31 18 7.916 18 6.394c0-1.48-.507-2.844-1.428-3.842z" fill="#0092B4"/></g><defs><clipPath id="clip0_844_81"><path fill="#fff" d="M0 0h18v18H0z"/></clipPath></defs></svg>