<svg width="15" height="16" fill="none" xmlns="http://www.w3.org/2000/svg"><g clip-path="url(#clip0_669_627)"><path d="M7.5 4.903l-.81-1.12a3.821 3.821 0 00-.755-.79h0a2.774 2.774 0 00-1.745-.605c-.882 0-1.68.35-2.265.984L7.5 4.902zm0 0l.81-1.12m-.81 1.12l.81-1.12m0 0c.23-.318.484-.581.755-.79l-.755.79zm-2.45 8.502h0l.003.002c.493.42 1.054.898 1.637 1.407.579-.505 1.135-.98 1.626-1.397l.014-.013h0c1.534-1.307 2.762-2.358 3.602-3.372h0C13.647 7.82 14 6.877 14 5.896c0-1.006-.344-1.894-.925-2.524a3.034 3.034 0 00-2.265-.984c-.64 0-1.219.197-1.745.604L5.86 12.285zm0 0c-1.533-1.307-2.762-2.359-3.602-3.373l3.602 3.373zm-.647.762c.516.44 1.1.938 1.707 1.468L1.19 2.694C.423 3.526 0 4.664 0 5.896c0 1.268.473 2.43 1.488 3.654.908 1.096 2.213 2.208 3.724 3.496h.001zM1 5.896c0-1.006.344-1.894.925-2.524l.333 5.54C1.353 7.82 1 6.877 1 5.896z" stroke="#0092B4" stroke-width="2"/></g><defs><clipPath id="clip0_669_627"><path fill="#fff" transform="translate(0 .568)" d="M0 0h15v15H0z"/></clipPath></defs></svg>