<svg width="37" height="37" fill="none" xmlns="http://www.w3.org/2000/svg"><path d="M35.524 35.11l-5.72-5.72a7.043 7.043 0 01-1.566 1.566l5.72 5.72a1.104 1.104 0 001.566 0 1.107 1.107 0 000-1.567zM1.152 4.607v19.78c0 .6.486 1.084 1.084 1.084h15.176l-.001-.072c0-.832.149-1.629.422-2.366H7.185c-.584 0-1.086-.449-1.114-1.032a1.084 1.084 0 011.083-1.136H18.32c.239 0 .459.078.638.209a6.827 6.827 0 015.291-2.512h.073V4.608H1.152zm17.167 13.82H7.154a1.084 1.084 0 010-2.169H18.32a1.084 1.084 0 010 2.168zm1.084-5.691c0 .598-.486 1.084-1.084 1.084H7.154a1.084 1.084 0 01-1.084-1.084V8.129c0-.598.485-1.084 1.084-1.084H18.32c.598 0 1.084.486 1.084 1.084v4.607zM1.152 2.439h18.562V0H2.236c-.598 0-1.084.485-1.084 1.084v1.355z" fill="#fff"/><path d="M24.248 30.068a4.67 4.67 0 100-9.339 4.67 4.67 0 000 9.34zM8.238 9.213h8.997v2.439H8.238V9.213zM23.236 0H21.88v2.439h2.439V1.084A1.083 1.083 0 0023.236 0z" fill="#fff"/></svg>