<svg width="35" height="35" fill="none" xmlns="http://www.w3.org/2000/svg"><g clip-path="url(#clip0_691_3222)" fill="#fff"><path d="M6.187 15.21v-4.99h-.735A5.458 5.458 0 000 15.67v16.321a1.025 1.025 0 001.75.725L5.57 28.9h15.74a5.458 5.458 0 005.452-5.452v-.735H13.689c-4.137 0-7.502-3.365-7.502-7.502z"/><path d="M29.55 1.982H13.69a5.458 5.458 0 00-5.452 5.452v7.776a5.458 5.458 0 005.452 5.452h15.742l3.819 3.818a1.025 1.025 0 001.75-.725V7.435a5.458 5.458 0 00-5.452-5.453zM15.441 12.271c-.575 0-1-.47-1.026-1.026-.025-.554.49-1.025 1.026-1.025.575 0 1 .47 1.025 1.025.025.554-.489 1.026-1.025 1.026zm6.178 0c-.575 0-1-.47-1.026-1.026-.025-.554.49-1.025 1.026-1.025.575 0 1 .47 1.025 1.025.025.554-.489 1.026-1.025 1.026zm6.178 0c-.575 0-1-.47-1.026-1.026-.025-.554.49-1.025 1.026-1.025.574 0 1 .47 1.025 1.025.025.554-.489 1.026-1.025 1.026z"/></g><defs><clipPath id="clip0_691_3222"><path fill="#fff" d="M0 0h35v35H0z"/></clipPath></defs></svg>