<svg width="35" height="35" fill="none" xmlns="http://www.w3.org/2000/svg"><g clip-path="url(#clip0_691_3283)" fill-rule="evenodd" clip-rule="evenodd" fill="#fff"><path d="M11.041 1.595v4.558h7.335l-7.335-4.558z"/><path d="M31.754 0H12.36l9.973 6.197a2.052 2.052 0 011.63 2.007v20.164h7.792c.567 0 1.026-.459 1.026-1.025V1.025A1.028 1.028 0 0031.754 0zM11.32 16.166l-.029.422c.22-.084.536-.246.775-.232.237-.015.557.149.774.232l-.028-.422c-.04-.454.235-.734.507-1.052l-.41-.103c-.446-.104-.624-.45-.843-.807l-.225.357c-.237.393-.62.455-1.028.553.272.318.546.598.507 1.052z"/><path d="M20.885 8.204H3.248c-.566 0-1.025.459-1.025 1.025v24.746c0 .566.459 1.025 1.025 1.025h17.637c.566 0 1.025-.46 1.025-1.025V9.229c0-.566-.459-1.025-1.025-1.025zM8.002 14.2c.109-.336.383-.592.726-.678l1.596-.4.874-1.394a1.026 1.026 0 011.737 0l.874 1.394 1.596.4a1.025 1.025 0 01.537 1.653l-1.056 1.262L15 18.08a1.025 1.025 0 01-1.406 1.02l-1.527-.613-1.526.614a1.025 1.025 0 01-1.406-1.022l.113-1.641-1.056-1.262A1.025 1.025 0 018 14.2zm9.807 17.244H6.324c-1.355-.048-1.361-2 0-2.05H17.81c1.355.048 1.36 2 0 2.05zm0-4.101H6.324c-1.355-.049-1.361-2 0-2.051H17.81c1.355.049 1.36 2 0 2.05zm0-4.102H6.324c-1.355-.049-1.361-2 0-2.05H17.81c1.355.048 1.36 1.999 0 2.05z"/></g><defs><clipPath id="clip0_691_3283"><path fill="#fff" d="M0 0h35v35H0z"/></clipPath></defs></svg>