<svg width="31" height="31" fill="none" xmlns="http://www.w3.org/2000/svg"><g clip-path="url(#clip0_691_3239)" fill="#fff"><path d="M31 12.362H0v17.517c0 .504.409.913.913.913h29.174A.913.913 0 0031 29.88V12.362zm-3.138 16.205h-8.103a.913.913 0 010-1.826h8.103a.913.913 0 010 1.826zm0-4.051h-8.103a.913.913 0 010-1.826h8.103a.913.913 0 110 1.826zM0 1.12v9.415h2.64V7.397c0-.504.41-.913.913-.913h24.309c.504 0 .913.409.913.913v3.138H31V5.172a.913.913 0 00-.913-.913H9.63a.913.913 0 01-.817-.505L7.293.713a.913.913 0 00-.817-.505H.913A.913.913 0 000 1.12z"/><path d="M4.467 8.31h22.482v2.225H4.467V8.31z"/></g><defs><clipPath id="clip0_691_3239"><path fill="#fff" d="M0 0h31v31H0z"/></clipPath></defs></svg>