<svg width="32" height="32" fill="none" xmlns="http://www.w3.org/2000/svg"><g clip-path="url(#clip0_776_5880)" fill="#fff"><path d="M7.725 17.638c.018-.018.017-.017 0 0z"/><path d="M31.29 13.216l-1.59-.382a13.936 13.936 0 00-1.776-4.28l.807-1.355a.937.937 0 00-.143-1.142l-2.643-2.643a.939.939 0 00-1.142-.143l-1.354.807a13.936 13.936 0 00-4.28-1.775L18.785.71a.937.937 0 00-.91-.71h-3.749a.937.937 0 00-.909.71l-.382 1.592c-1.51.346-2.946.942-4.28 1.775L7.2 3.27a.937.937 0 00-1.142.143L3.416 6.057a.937.937 0 00-.143 1.142l.807 1.354a13.935 13.935 0 00-1.775 4.28l-1.592.383a.937.937 0 00-.71.91v3.749c0 .43.294.805.711.909l1.592.382c.23 1.001.577 1.963 1.023 2.885.689-.691 4.146-4.164 4.395-4.412-.012-.063-.146-1.264-.15-1.498-.08-4.776 3.768-8.577 8.432-8.577a8.402 8.402 0 018.422 8.465c-.02 4.327-3.25 8.01-7.76 8.347-.195.015-1.077.145-2.306-.097l-4.4 4.4c.919.442 1.877.787 2.874 1.017l.382 1.592c.105.417.479.71.91.71h3.749c.43 0 .804-.293.909-.71l.382-1.59a13.935 13.935 0 004.28-1.776l1.355.807a.938.938 0 001.142-.143l2.643-2.643a.938.938 0 00.143-1.143l-.807-1.353a13.91 13.91 0 001.775-4.282l1.59-.381a.936.936 0 00.71-.91v-3.749a.937.937 0 00-.708-.909z"/><path d="M22.345 14.286a.926.926 0 00-1.553-.425L18.653 16a1.876 1.876 0 01-2.651 0c-.73-.73-.73-1.92 0-2.651l2.14-2.14a.927.927 0 00-.426-1.553c-3.955-1.005-7.515 1.571-8.168 5.13a6.636 6.636 0 00.268 3.413L.822 27.192a2.828 2.828 0 00.018 4.005c1.106 1.049 2.8 1.093 3.97-.017l8.993-8.994c1.44.514 3.046.504 4.618-.05 2.832-1 4.815-4.354 3.924-7.85z"/></g><defs><clipPath id="clip0_776_5880"><path fill="#fff" d="M0 0h32v32H0z"/></clipPath></defs></svg>