<svg width="35" height="35" fill="none" xmlns="http://www.w3.org/2000/svg"><g clip-path="url(#clip0_776_5864)" fill="#fff"><path d="M17.498 2.374l4.559 2.632 1.028-1.78L17.498 0l-5.586 3.225 1.028 1.781 4.558-2.632zM4.4 9.937l4.558-2.632-1.028-1.78L2.344 8.75v6.45H4.4V9.938zm0 9.863H2.344v6.45l5.586 3.225 1.028-1.78L4.4 25.063v-5.264zm13.098 12.826l-4.558-2.632-1.028 1.78L17.498 35l5.587-3.225-1.028-1.781-4.559 2.632zM30.6 25.063l-4.559 2.632 1.028 1.78 5.586-3.225V19.8H30.6v5.263zM27.07 5.525l-1.029 1.78 4.558 2.632v5.264h2.056V8.75L27.07 5.525z"/><path d="M28.54 23.874V12.313l-10.013 5.78v11.562l10.013-5.78zM7.486 10.532l10.013 5.78 10.013-5.78-10.013-5.78-10.013 5.78zM6.459 23.874l10.012 5.781V18.093L6.46 12.313v11.561z"/></g><defs><clipPath id="clip0_776_5864"><path fill="#fff" d="M0 0h35v35H0z"/></clipPath></defs></svg>