<svg width="17" height="18" fill="none" xmlns="http://www.w3.org/2000/svg"><path fill-rule="evenodd" clip-rule="evenodd" d="M12.419 5.627a1.01 1.01 0 001-1.002 1.021 1.021 0 00-1.01-1.014 1.01 1.01 0 00-.997 1.007 1.002 1.002 0 001.007 1.01zm-4.367 6.74c1.842 0 3.34-1.499 3.356-3.36.016-1.84-1.51-3.377-3.356-3.376-1.844 0-3.339 1.498-3.356 3.36-.016 1.841 1.51 3.377 3.356 3.377zM3.712.918h8.68c.302.064.612.1.904.196 1.696.555 2.801 2.077 2.806 3.872.008 2.677.004 5.355.001 8.033-.001.86-.238 1.653-.745 2.35-.835 1.146-1.97 1.711-3.381 1.713-2.595.002-5.19.002-7.784-.002-.272 0-.548-.012-.814-.06C1.892 16.748.853 15.9.286 14.497c-.145-.36-.193-.759-.286-1.14V4.644l.06-.34C.338 2.82 1.176 1.782 2.562 1.21c.361-.149.765-.197 1.15-.292z" fill="#0092B4"/></svg>