<svg width="30" height="30" fill="none" xmlns="http://www.w3.org/2000/svg"><g clip-path="url(#clip0_752_6563)"><path d="M27.62 4.253c-1.553-1.685-3.684-2.612-6-2.612-1.732 0-3.318.547-4.714 1.627A9.644 9.644 0 0015 5.258a9.64 9.64 0 00-1.906-1.99c-1.396-1.08-2.982-1.627-4.713-1.627-2.317 0-4.448.927-6.001 2.612C.845 5.917 0 8.19 0 10.656c0 2.538.946 4.86 2.975 7.31 1.816 2.19 4.426 4.415 7.449 6.99 1.032.88 2.202 1.877 3.416 2.94a1.759 1.759 0 002.32 0 327.1 327.1 0 013.417-2.94c3.022-2.575 5.632-4.8 7.448-6.99 2.03-2.45 2.975-4.772 2.975-7.31 0-2.465-.845-4.739-2.38-6.403z" fill="#fff"/></g><defs><clipPath id="clip0_752_6563"><path fill="#fff" d="M0 0h30v30H0z"/></clipPath></defs></svg>