<svg width="30" height="30" fill="none" xmlns="http://www.w3.org/2000/svg"><g clip-path="url(#clip0_752_6551)" fill="#fff"><path d="M29.904 13.272a1.266 1.266 0 00-.271-.407l-3.75-3.749a1.25 1.25 0 00-1.767 1.767l1.617 1.617H18.75a1.25 1.25 0 100 2.5h6.983l-1.617 1.616A1.249 1.249 0 0025 18.75c.32 0 .64-.122.884-.367l3.749-3.748a1.252 1.252 0 00.271-1.362z"/><path d="M21.25 17.5c-.691 0-1.25.56-1.25 1.25V25h-5V5c0-.551-.363-1.039-.891-1.197L9.767 2.5H20v6.25a1.25 1.25 0 102.5 0v-7.5C22.5.56 21.94 0 21.25 0h-20c-.045 0-.085.019-.129.024a1.253 1.253 0 00-.53.185C.564.226.53.227.504.247.494.255.49.27.48.277A1.23 1.23 0 00.147.67C.13.705.127.741.113.776c-.04.095-.084.188-.1.293-.005.037.006.072.005.109C.016 1.202 0 1.224 0 1.25v25c0 .596.421 1.109 1.005 1.225l12.5 2.5A1.249 1.249 0 0015 28.75V27.5h6.25c.691 0 1.25-.56 1.25-1.25v-7.5c0-.69-.559-1.25-1.25-1.25z"/></g><defs><clipPath id="clip0_752_6551"><path fill="#fff" d="M0 0h30v30H0z"/></clipPath></defs></svg>