<svg width="30" height="30" fill="none" xmlns="http://www.w3.org/2000/svg"><path d="M15 11.25A3.755 3.755 0 0011.25 15 3.755 3.755 0 0015 18.75 3.755 3.755 0 0018.75 15 3.755 3.755 0 0015 11.25z" fill="#fff"/><path d="M28.986 12.45l-1.655-.319a2.115 2.115 0 01-1.598-1.326A2.115 2.115 0 0126 8.741l1.04-1.417a1.247 1.247 0 00-.126-1.621L24.67 3.459a1.25 1.25 0 00-1.583-.151l-1.397.943a2.115 2.115 0 01-2.068.193 2.117 2.117 0 01-1.27-1.649l-.267-1.735A1.25 1.25 0 0016.85 0h-3.173a1.25 1.25 0 00-1.227 1.014l-.411 2.137a2.116 2.116 0 01-1.29 1.583 2.118 2.118 0 01-2.034-.207l-1.803-1.22a1.25 1.25 0 00-1.583.152L3.085 5.703a1.247 1.247 0 00-.125 1.62l1.039 1.42c.447.607.545 1.358.269 2.062a2.115 2.115 0 01-1.6 1.326l-1.654.319A1.25 1.25 0 000 13.678v3.172c0 .617.45 1.142 1.06 1.236l1.735.268a2.118 2.118 0 011.649 1.268 2.115 2.115 0 01-.193 2.07l-.943 1.395a1.248 1.248 0 00.15 1.584l2.245 2.244a1.249 1.249 0 001.62.125L8.744 26a2.12 2.12 0 012.062-.269c.7.277 1.185.858 1.326 1.6l.319 1.654A1.25 1.25 0 0013.678 30h3.172a1.25 1.25 0 001.236-1.06l.188-1.22a2.109 2.109 0 011.306-1.664 2.112 2.112 0 012.1.254l.996.73a1.25 1.25 0 001.622-.125l2.243-2.244a1.248 1.248 0 00.151-1.583l-.943-1.397a2.112 2.112 0 01-.193-2.068 2.118 2.118 0 011.649-1.27l1.735-.267A1.25 1.25 0 0030 16.85v-3.172a1.25 1.25 0 00-1.014-1.228zM15 21.25A6.257 6.257 0 018.75 15 6.257 6.257 0 0115 8.75 6.257 6.257 0 0121.25 15 6.257 6.257 0 0115 21.25z" fill="#fff"/></svg>