<svg width="26" height="27" fill="none" xmlns="http://www.w3.org/2000/svg"><path fill-rule="evenodd" clip-rule="evenodd" d="M4 5.183h19.511a2 2 0 011.96 2.396l-1.774 8.782a2 2 0 01-1.96 1.604H8.219a2 2 0 01-1.96-1.604L4 5.183z" fill="#fff"/><path fill-rule="evenodd" clip-rule="evenodd" d="M.619 2.675A1.47 1.47 0 011.491.709L2.25.447a1.47 1.47 0 011.831.812l5.95 13.945a1.47 1.47 0 01-.872 1.966l-.759.262a1.47 1.47 0 01-1.83-.812L.618 2.675zM10.65 26.6c1.471 0 2.663-1.175 2.663-2.625 0-1.449-1.192-2.624-2.662-2.624s-2.663 1.175-2.663 2.625c0 1.449 1.192 2.624 2.663 2.624zm9.759 0c1.47 0 2.662-1.175 2.662-2.625 0-1.449-1.192-2.624-2.662-2.624s-2.663 1.175-2.663 2.625c0 1.449 1.192 2.624 2.663 2.624z" fill="#fff"/></svg>