<svg width="117" height="38" fill="none" xmlns="http://www.w3.org/2000/svg"><g clip-path="url(#clip0_844_105)" fill="#0092B4"><path fill-rule="evenodd" clip-rule="evenodd" d="M2.505 35.355l.737.323c-.092.584-.276.999-.553 1.244-.276.277-.63.415-1.06.415-.492 0-.891-.215-1.199-.645-.369-.492-.553-1.152-.553-1.982 0-.89.184-1.582.553-2.073.308-.43.738-.646 1.291-.646.43 0 .784.154 1.06.461.216.246.37.6.461 1.06l-.783.23c-.031-.276-.123-.49-.277-.645a.705.705 0 00-.507-.23c-.307 0-.553.138-.738.415-.184.276-.276.722-.276 1.336 0 .676.092 1.152.276 1.429.185.276.415.415.692.415.215 0 .4-.093.553-.277.154-.184.261-.46.323-.83zm1.429 1.89v-5.161h.737v3.456l1.568-3.456h.784v5.16h-.738v-3.363l-1.567 3.364h-.784zm6.408-1.89l.737.323c-.123.584-.307.999-.553 1.244-.276.277-.63.415-1.06.415-.492 0-.891-.215-1.199-.645-.369-.492-.553-1.152-.553-1.982 0-.89.184-1.582.553-2.073.308-.43.723-.646 1.245-.646.461 0 .83.154 1.106.461.216.246.37.6.461 1.06l-.783.23c-.031-.276-.123-.49-.277-.645a.705.705 0 00-.507-.23c-.307 0-.553.138-.738.415-.184.276-.276.722-.276 1.336 0 .676.092 1.152.276 1.429.185.276.415.415.692.415.215 0 .4-.093.553-.277.154-.184.261-.46.323-.83zm2.305 1.89v-4.286h-1.153v-.875h3.089v.875h-1.152v4.286h-.784zm2.443 0v-5.161h2.904v.875h-2.12v1.152h1.936v.83h-1.936v1.428h2.167v.876h-2.95zm3.596 0v-5.161h1.199l.691 3.502.692-3.502h1.198v5.16h-.737V33.19l-.784 4.055h-.738l-.784-4.055v4.055h-.737zm4.564 0v-5.161h.784v2.027h1.106c.43 0 .753.154.968.461.246.277.369.66.369 1.152 0 .369-.092.722-.277 1.06-.184.307-.538.46-1.06.46h-1.89zm.784-2.258v1.382h.83c.214 0 .368-.015.46-.046.093-.03.185-.107.277-.23a.915.915 0 00.092-.415c0-.46-.261-.691-.784-.691h-.875zm3.088 2.258v-5.161h.784v5.16h-.784zm3.043-5.161h1.567c.4 0 .692.03.876.092a.877.877 0 01.415.46c.123.216.184.461.184.738 0 .246-.046.476-.138.691a.904.904 0 01-.415.415c.246.092.43.246.553.46.123.216.185.477.185.784 0 .4-.077.722-.23.968-.154.276-.354.445-.6.507-.154.03-.507.046-1.06.046h-1.337v-5.161zm.784.875v1.198h.507c.307 0 .507-.015.599-.046.123 0 .215-.061.277-.184.092-.092.138-.23.138-.415a.655.655 0 00-.092-.368.444.444 0 00-.23-.185h-1.199zm0 2.028v1.382h.691c.338 0 .553-.015.645-.046a.445.445 0 00.231-.184.914.914 0 00.092-.415c0-.184-.03-.322-.092-.415-.092-.122-.184-.2-.277-.23-.122-.061-.353-.092-.691-.092h-.6zm3.18 2.258v-5.161h.784v2.027h1.522v-2.027h.783v5.16h-.784v-2.257h-1.52v2.258h-.785zm4.933-1.429l-1.429-3.732h.876l.922 2.672.784-2.672h.783L39.709 36c-.154.491-.308.83-.461 1.014-.154.215-.338.322-.554.322-.215 0-.4-.03-.553-.092v-.737h.277c.215 0 .353-.047.415-.139.092-.092.169-.276.23-.553zm3.227 1.429v-4.286h-1.152v-.875h3.088v.875h-1.152v4.286h-.784zm2.444 0v-5.161h1.244c.461 0 .769.03.922.092.246.061.43.23.553.507.154.245.231.584.231 1.014 0 .368-.062.675-.184.921-.123.246-.277.43-.461.553-.216.092-.554.138-1.015.138h-.507v1.936h-.783zm.783-4.286v1.475h.415c.308 0 .507-.03.6-.092.092-.031.184-.108.276-.23a.915.915 0 00.092-.415c0-.185-.03-.338-.092-.461a1.834 1.834 0 00-.276-.23c-.093-.031-.308-.047-.646-.047h-.369zm2.858 4.286v-5.161h2.859v.875h-2.075v1.152h1.936v.876h-1.936v1.382h2.167v.876h-2.95zm3.596 0v-5.161h.784v2.027h1.567v-2.027h.784v5.16h-.784v-2.257h-1.567v2.258h-.784zm3.919 0v-5.161h.783v2.027h1.568v-2.027h.784v5.16h-.784v-2.257h-1.568v2.258h-.783zm3.918 0v-5.161h2.905v.875h-2.12v1.152h1.981v.876h-1.982v1.382h2.213v.876h-2.997zm3.596 0V32.13h2.766v.875h-1.982v4.24h-.784zm3.135-2.535c0-.614.077-1.121.23-1.52.154-.4.37-.707.646-.922.276-.184.615-.277 1.014-.277.553 0 .999.231 1.337.692.338.46.507 1.121.507 1.981 0 .86-.184 1.536-.553 2.028-.307.43-.738.645-1.29.645-.585 0-1.03-.215-1.338-.645-.369-.46-.553-1.121-.553-1.982zm.784-.046c0 .615.107 1.06.322 1.337.215.307.477.46.784.46.307 0 .553-.153.738-.46.215-.277.322-.722.322-1.337 0-.614-.107-1.06-.322-1.336-.185-.307-.43-.46-.738-.46-.338 0-.6.153-.784.46-.215.276-.322.722-.322 1.336zm5.07-2.58h1.568c.43 0 .738.046.922.138.154.092.292.246.415.46.123.185.184.415.184.692 0 .246-.046.476-.138.691-.123.215-.261.369-.415.461.246.092.43.246.553.46.123.216.185.477.185.784 0 .369-.077.691-.23.968-.185.246-.385.4-.6.46-.154.032-.522.047-1.106.047h-1.337v-5.161zm.784.875v1.198h1.107a.684.684 0 00.323-.184.914.914 0 00.092-.415.654.654 0 00-.092-.368.522.522 0 00-.185-.185c-.092-.03-.353-.046-.784-.046h-.46zm0 2.074v1.382h.738c.307 0 .507-.015.6-.046a.821.821 0 00.23-.23c.061-.092.092-.23.092-.415a.914.914 0 00-.092-.415c-.062-.122-.138-.2-.23-.23-.124-.03-.354-.046-.692-.046h-.646zm2.997-.323c0-.614.077-1.121.23-1.52.185-.4.4-.692.646-.876.276-.184.614-.276 1.014-.276.553 0 .999.23 1.337.69.369.462.553 1.122.553 1.982 0 .86-.2 1.536-.6 2.028-.306.43-.737.645-1.29.645-.584 0-1.03-.215-1.337-.645-.369-.492-.553-1.167-.553-2.028zm.784 0c0 .584.107 1.03.322 1.337.216.276.477.415.784.415.307 0 .553-.139.738-.415.215-.307.322-.768.322-1.383 0-.583-.092-1.029-.276-1.336-.215-.277-.477-.415-.784-.415-.338 0-.6.138-.784.415-.215.307-.322.768-.322 1.382zm6.592 1.705h.323v1.982h-.646V37.29h-2.443v1.106h-.645v-1.982h.322c.123-.368.215-.814.277-1.336.092-.492.138-1.26.138-2.304v-.691h2.674v4.331zm-.784-3.41h-1.152c0 1.536-.108 2.673-.323 3.41h1.475v-3.41zm1.475 1.752c0-.615.093-1.122.277-1.521.154-.4.369-.691.645-.876.277-.184.6-.276.969-.276.553 0 1.014.23 1.383.69.338.462.507 1.122.507 1.983 0 .86-.185 1.535-.553 2.027-.308.43-.754.645-1.337.645-.554 0-1-.215-1.337-.645-.37-.492-.553-1.167-.553-2.027zm.83 0c0 .583.108 1.029.323 1.336.184.276.43.415.738.415.307 0 .568-.139.783-.415.215-.307.323-.768.323-1.383 0-.583-.108-1.029-.323-1.336a.888.888 0 00-.783-.415c-.308 0-.569.138-.784.415-.184.307-.277.768-.277 1.383zm3.412 0c0-.615.092-1.122.276-1.521.154-.4.37-.691.646-.876.276-.184.599-.276.968-.276.553 0 1.014.23 1.383.69.338.462.507 1.122.507 1.983 0 .86-.184 1.535-.553 2.027-.338.43-.784.645-1.337.645-.553 0-.999-.215-1.337-.645-.369-.492-.553-1.167-.553-2.027zm.83 0c0 .583.092 1.029.276 1.336.215.276.477.415.784.415.307 0 .568-.139.784-.415.184-.307.276-.768.276-1.383 0-.583-.092-1.029-.276-1.336-.216-.277-.477-.415-.784-.415-.308 0-.569.138-.784.415-.184.307-.276.768-.276 1.383zm4.425 2.58v-4.332h-1.152v-.875h3.088v.875h-1.152v4.332h-.784zm2.443-5.207h1.568c.43 0 .722.046.876.138.184.092.338.246.46.46.124.216.185.462.185.738 0 .246-.061.461-.184.645-.092.215-.215.369-.37.461.216.092.4.246.554.461.123.215.184.476.184.783 0 .4-.092.722-.276.968-.154.246-.338.4-.553.46-.185.062-.553.093-1.107.093H96.18V32.13zm.784.875v1.198h.507c.308 0 .507-.015.6-.046a.684.684 0 00.322-.184c.062-.092.092-.23.092-.415a.654.654 0 00-.092-.368.444.444 0 00-.23-.185h-1.198zm0 2.028v1.382h.738c.307 0 .507-.015.599-.046.092-.03.17-.107.23-.23a.654.654 0 00.093-.369c0-.184-.031-.322-.093-.415a.412.412 0 00-.276-.23c-.092-.061-.307-.092-.645-.092h-.646zm2.95-.276c0-.615.093-1.122.277-1.521.154-.4.369-.707.646-.922.276-.184.599-.276.968-.276.553 0 1.014.23 1.383.69.338.462.507 1.122.507 1.982 0 .86-.185 1.536-.553 2.028-.308.43-.753.645-1.337.645-.554 0-.984-.215-1.291-.645-.4-.492-.6-1.152-.6-1.981zm.83-.047c0 .584.108 1.03.323 1.337.184.307.43.46.738.46.307 0 .568-.153.783-.46.215-.277.323-.722.323-1.337 0-.614-.108-1.06-.323-1.336-.184-.307-.445-.46-.783-.46-.308 0-.554.153-.738.46-.215.276-.323.722-.323 1.336zm6.593 1.705h.322v2.028h-.645v-1.152h-2.443v1.152h-.646v-2.028h.323c.123-.368.215-.798.277-1.29.061-.522.092-1.29.092-2.304v-.691h2.72v4.285zm-.784-3.456h-1.199c0 1.536-.107 2.688-.322 3.456h1.521V32.96zm5.117 4.286h-.83l-.322-1.152h-1.568l-.323 1.152h-.829l1.521-5.161h.83l1.521 5.16zm-1.475-2.074l-.507-1.89-.553 1.89h1.06zM-.215-.404h27.66v22.35h-6.224v-9.217c0-4.101-3.411-7.465-7.606-7.465-4.15 0-7.56 3.364-7.56 7.465v9.217h-6.27V-.404zm0 23.732h27.66V27.2H-.215v-3.87zM114.067 7.522c.646 0 1.291.276 1.706.737.461.415.738 1.014.738 1.705 0 .691-.277 1.29-.738 1.705-.415.461-1.06.738-1.706.738a2.44 2.44 0 01-1.752-.738 2.402 2.402 0 01-.691-1.705c0-.69.277-1.29.691-1.705a2.441 2.441 0 011.752-.737zm0 .46h-.046c-.507.047-1.014.231-1.337.6-.368.368-.599.83-.599 1.382 0 .553.231 1.014.553 1.383.369.368.876.599 1.429.599.507 0 1.015-.23 1.383-.6.323-.368.554-.829.554-1.382 0-.553-.231-1.014-.554-1.382-.368-.369-.876-.6-1.383-.6zm-1.106 3.319V8.674h1.383c.307 0 .522.061.645.184a.753.753 0 01.231.553.675.675 0 01-.138.415.448.448 0 01-.231.184l-.046.046h-.046c.153.031.246.093.276.185.062.092.093.2.093.322v.139c0 .153.015.276.046.368 0 .062.015.123.046.185l.046.046h-.692a.523.523 0 01-.046-.23c-.03-.062-.046-.185-.046-.37v-.046a.314.314 0 00-.092-.23c-.061-.061-.169-.092-.323-.092h-.461v.968h-.645zm.645-2.12v.645h.554a.867.867 0 00.276-.046c.062-.061.092-.154.092-.277 0-.122-.03-.215-.092-.276-.092-.03-.2-.046-.323-.046h-.507zm-78.093 3.272h3.503v14.792h-3.503V12.453zm5.624 0h3.503v.645c.37-.246.8-.43 1.291-.553.492-.154.984-.23 1.475-.23.4 0 .738.06 1.015.184.245.123.445.276.599.46.123.185.215.385.276.6.062.215.093.414.093.599V27.29h-3.504V14.895a.31.31 0 00-.138-.276.58.58 0 00-.23-.139c-.093-.061-.17-.077-.231-.046a.674.674 0 00-.415.139c-.154.092-.23.2-.23.322v12.396h-3.504V12.453zm10.372 2.58c0-.614.093-1.106.277-1.474.154-.338.369-.6.645-.784.277-.153.584-.245.922-.276.308-.062.6-.077.876-.046h2.812c.646 0 1.168.077 1.568.23.368.154.63.353.783.6.185.276.292.568.323.875.03.307.046.599.046.875v9.585c0 .308-.015.615-.046.922-.03.307-.138.584-.323.83-.153.276-.415.491-.783.645-.4.153-.922.23-1.568.23H54.23c-.276 0-.568-.015-.876-.046a1.954 1.954 0 01-.922-.323c-.276-.153-.491-.414-.645-.783-.184-.338-.277-.83-.277-1.475v-9.585zm3.504 9.816c0 .061.03.123.092.184.03.062.092.123.184.184a.656.656 0 00.37.093c.184 0 .322-.046.414-.139.123-.092.185-.2.185-.322v-10a.31.31 0 00-.139-.277.444.444 0 00-.23-.184.76.76 0 00-.23-.046.89.89 0 00-.462.138.438.438 0 00-.184.369v10zm6.362-12.396h3.642l.83 4.424h.184l.876-4.424h3.642l-1.844 7.05 1.844 7.742h-3.642l-.876-5.115h-.184l-.876 5.115h-3.596l1.798-7.742-1.798-7.05zm10.741 0h3.504v.691a5.005 5.005 0 011.29-.6c.492-.153.984-.23 1.476-.23.4 0 .737.062 1.014.185.246.123.446.276.6.46.122.185.214.385.276.6.061.215.092.414.092.599v11.428c0 .184-.03.384-.092.6a2.124 2.124 0 01-.277.598 1.833 1.833 0 01-.6.461c-.276.123-.614.184-1.013.184-.492 0-.984-.076-1.475-.23a5.005 5.005 0 01-1.291-.6v3.78h-3.504V12.453zm3.504 12.35c0 .092.03.169.092.23.03.062.092.123.184.184a.656.656 0 00.37.093c.183 0 .322-.046.414-.139a.438.438 0 00.184-.368v-9.908a.31.31 0 00-.138-.276.444.444 0 00-.23-.185.756.756 0 00-.23-.046.675.675 0 00-.416.138c-.153.093-.23.216-.23.37v9.907zm6.869-9.77c0-.614.092-1.106.276-1.474.154-.338.37-.6.646-.784.276-.153.584-.245.922-.276.307-.062.599-.092.876-.092h2.812c.645.03 1.168.123 1.567.276.369.154.63.353.784.6.184.276.292.568.323.875.03.276.046.568.046.875v12.212h-3.504V26.6a5.229 5.229 0 01-.83.415 5.264 5.264 0 01-.922.276 5.36 5.36 0 01-.968.092c-.492 0-.876-.076-1.152-.23-.277-.154-.477-.338-.6-.553a2.304 2.304 0 01-.23-.784 5.573 5.573 0 01-.046-.69v-3.78c0-.368.092-.69.276-.967.215-.246.523-.476.922-.691.4-.215.907-.446 1.522-.692.4-.153.752-.322 1.06-.506.307-.154.538-.338.691-.553.185-.246.277-.569.277-.968v-2.12a.31.31 0 00-.138-.277.444.444 0 00-.23-.184.76.76 0 00-.231-.046.675.675 0 00-.415.138c-.154.092-.23.215-.23.369v2.304h-3.504v-2.12zm4.748 4.931c-.4.123-.691.261-.876.415a1.403 1.403 0 00-.323.46 3.2 3.2 0 00-.046.508v3.456c0 .061.031.123.093.184.03.062.092.123.184.184a.656.656 0 00.369.093c.184 0 .322-.046.415-.139.123-.092.184-.2.184-.322v-4.839zm9.128-7.603v.69a5.018 5.018 0 011.29-.598c.462-.154.953-.23 1.476-.23.4 0 .737.06 1.014.184.246.123.446.276.599.46.123.185.215.384.277.6.061.215.092.414.092.599v3.502h-3.504v-2.719a.442.442 0 00-.138-.323.578.578 0 00-.23-.138.76.76 0 00-.23-.046.89.89 0 00-.462.138.438.438 0 00-.184.369v12.35H92.86V12.361h3.504zm6.454-4.885h3.55v11.29h.138l1.291-6.405h3.595l-1.797 7.142 2.028 7.696h-3.596l-1.521-7.005h-.138V27.2h-3.55V7.476zM32.7 4.388c1.522 1.521 3.181 3.042 4.38 3.042 1.245 0 5.071-3.871 6.915-5.438-1.66 1.797-5.532 5.76-5.532 6.866 0 1.106.46 1.475 2.074 3.364-1.89-1.705-2.397-1.981-3.457-1.981-1.153 0-2.72 1.52-4.38 3.041 1.337-1.659 2.997-3.226 2.997-4.424 0-1.152-1.614-2.81-2.997-4.47z"/><path d="M32.793 4.434c1.52 1.521 3.18 3.042 4.38 3.042 1.29 0 5.07-3.871 6.914-5.392-1.66 1.751-5.532 5.714-5.532 6.82 0 1.106.461 1.475 2.075 3.364-1.89-1.705-2.398-1.981-3.458-1.981-1.152 0-2.72 1.52-4.38 3.041 1.384-1.659 2.997-3.226 2.997-4.424 0-1.152-1.613-2.81-2.996-4.47z"/></g><defs><clipPath id="clip0_844_105"><path fill="#fff" d="M0 0h117v38H0z"/></clipPath></defs></svg>