<svg width="261" height="33" fill="none" xmlns="http://www.w3.org/2000/svg"><mask id="a" style="mask-type:alpha" maskUnits="userSpaceOnUse" x="0" y="0" width="35" height="28"><path fill-rule="evenodd" clip-rule="evenodd" d="M0 .436h34.794V27.21H0V.436z" fill="#fff"/></mask><g mask="url(#a)"><path fill-rule="evenodd" clip-rule="evenodd" d="M0 .435h34.794V27.21h-7.845V15.85c0-4.826-4.299-8.777-9.552-8.777-5.255 0-9.552 3.95-9.552 8.777v11.36H0V.435z" fill="#0092B4"/></g><mask id="b" style="mask-type:alpha" maskUnits="userSpaceOnUse" x="-1" y="-1" width="262" height="35"><path fill-rule="evenodd" clip-rule="evenodd" d="M0 32.83h260V.436H0V32.83z" fill="#fff"/><path fill-rule="evenodd" clip-rule="evenodd" d="M0 32.83h260V.436H0V32.83z" stroke="#fff"/></mask><g mask="url(#b)" fill-rule="evenodd" clip-rule="evenodd" fill="#0092B4"><path d="M0 32.785h34.794V29.44H0v3.345zm72.206-19.977H58.773v3.273h4.958V32.83h3.52V16.08h4.955v-3.273zm-20.434 8.278h-2.306c-1.506 0-2.728-1.117-2.728-2.49 0-1.372 1.222-2.488 2.728-2.488h6.818v-3.316h-6.818c-3.47 0-6.294 2.606-6.294 5.805 0 3.2 2.825 5.896 6.294 5.896h2.306c1.505 0 2.729 1.115 2.729 2.488s-1.224 2.49-2.729 2.49h-8.008v3.316h8.008c3.47 0 6.295-2.606 6.295-5.806s-2.825-5.895-6.295-5.895zm35.019.075c-1.114-.034-5.52-.033-9.049-.005v-.87c0-2.32 2.028-4.205 4.523-4.205 2.497 0 4.526 1.886 4.526 4.205v.875zm-4.523-8.354c-4.433 0-8.041 3.357-8.041 7.48V32.83h3.519v-8.39c3.218-.02 7.878-.026 9.049-.006v8.397h3.52V20.286c0-4.122-3.61-7.479-8.047-7.479zm19.502.001h-8.043V32.83h3.519l-.022-16.749h4.546c2.494 0 4.524 1.886 4.524 4.205V32.83h3.519V20.286c0-4.122-3.609-7.478-8.043-7.478zm18.257 16.675h-3.254V16.225h3.254c3.934 0 7.131 2.973 7.131 6.628 0 3.657-3.197 6.63-7.131 6.63zm.003-16.634h-6.819V32.83h6.819c5.917 0 10.73-4.475 10.73-9.977 0-5.498-4.813-10.004-10.73-10.004zm25.62 8.312c-1.219-.037-5.535-.032-9.048.004v-.879c0-2.32 2.028-4.205 4.522-4.205 2.497 0 4.526 1.886 4.526 4.205v.875zm-4.522-8.354c-4.433 0-8.042 3.357-8.042 7.48V32.83h3.519v-8.386c3.013-.023 7.756-.032 9.049-.011v8.397h3.52V20.286c0-4.122-3.609-7.479-8.046-7.479zm42.32.001h-13.432v3.273h4.957V32.83h3.519V16.08h4.956v-3.273zm-21.156 8.481h-2.756c-.201-.012-3.097-.055-3.395-.057v-5.055h6.151c1.518 0 2.749 1.145 2.749 2.556 0 1.41-1.231 2.556-2.749 2.556zm6.315-2.556c0-3.237-2.833-5.871-6.314-5.871h-9.715V32.83h3.564v-8.228h3.395c3.082.288 5.505 2.685 5.505 5.626v2.602h3.565v-2.602c0-2.564-1.174-4.865-3.031-6.506 1.809-1.034 3.031-2.875 3.031-4.99zm65.67 2.597h-2.775c-.162-.011-2.458-.04-3.416-.053v-5.094h6.191c1.527 0 2.768 1.152 2.768 2.572 0 1.42-1.241 2.574-2.768 2.574zm6.35-2.575c0-3.257-2.852-5.909-6.355-5.909h-9.78V32.83h3.588v-8.166h3.417c3.104.29 5.543 2.705 5.543 5.665v2.501h3.587v-2.501c0-2.58-1.181-4.898-3.051-6.55 1.822-1.04 3.051-2.894 3.051-5.024zm-44.92-5.913h-9.742l-.02 19.989h3.824V16.396h5.938c1.447 0 2.624 1.094 2.624 2.44 0 1.344-1.177 2.44-2.624 2.44h-4.055v3.553h4.055c3.554 0 6.446-2.688 6.446-5.994 0-3.304-2.892-5.993-6.446-5.993zm21.642 8.428h-8.818v-.78c0-2.26 1.979-4.099 4.41-4.099s4.408 1.84 4.408 4.099v.78zm-4.406-8.433c-4.539 0-8.232 3.433-8.232 7.653v12.34h3.822V24.8h8.818v8.031h3.822V20.49c0-4.22-3.691-7.653-8.23-7.653zm47.063 3.178v-3.177h-3.571v3.177c0 2.875-2.515 5.213-5.605 5.213h-.176c-.114-.003-.226-.016-.341-.016h-2.705v-8.374h-3.569V32.83h3.569v-8.283h2.877c3.295.087 5.95 2.592 5.95 5.676v2.607h3.571v-2.607c0-2.956-1.548-5.578-3.924-7.223 2.369-1.544 3.924-4.096 3.924-6.985z"/></g></svg>