<svg width="16" height="20" fill="none" xmlns="http://www.w3.org/2000/svg"><path d="M8 .4a4.85 4.85 0 00-4.848 4.848A4.85 4.85 0 008 10.096a4.85 4.85 0 004.848-4.848A4.85 4.85 0 008 .4zm0 7.248a2.417 2.417 0 01-2.424-2.424A2.417 2.417 0 018 2.8a2.417 2.417 0 012.424 2.424A2.417 2.417 0 018 7.648z" fill="#0092B4"/><path d="M15.128 10.84a1.622 1.622 0 00-2.232-.624c-3.288 1.848-6.504 1.848-9.792 0a1.622 1.622 0 00-2.232.624c-.456.792-.168 1.8.624 2.232a14.422 14.422 0 003.432 1.416L2.6 16.816c-.648.648-.648 1.68 0 2.304.648.648 1.68.648 2.304 0L8 16.024l3.096 3.096c.648.648 1.68.648 2.304 0 .648-.648.648-1.68 0-2.304l-2.328-2.328a14.422 14.422 0 003.432-1.416c.792-.456 1.08-1.44.624-2.232z" fill="#0092B4"/></svg>