<svg width="16" height="16" fill="none" xmlns="http://www.w3.org/2000/svg"><path d="M14.43 12.529l-.085-.165c-.237-.543-3.152-1.366-3.389-1.382l-.186.016c-.356.066-.746.379-1.508 1.02a.47.47 0 01-.543.066c-1-.543-2.22-1.629-2.83-2.287-.66-.708-1.456-1.876-1.83-2.814a.483.483 0 01.136-.51c.865-.758 1.237-1.12 1.271-1.515.017-.23-.491-3.143-1.016-3.423l-.153-.099c-.339-.214-.847-.526-1.406-.411a1.582 1.582 0 00-.39.148c-.373.23-1.305.856-1.728 1.662-.254.51-.373 5.135 3.185 9.036 3.525 3.867 7.88 4.032 8.523 3.9h.017l.05-.016c.882-.313 1.627-1.12 1.915-1.465.526-.609.17-1.35-.033-1.761z" fill="#0092B4" stroke="#0092B4"/></svg>