<svg width="19" height="19" fill="none" xmlns="http://www.w3.org/2000/svg"><path d="M9.5 0C4.25 0 0 4.249 0 9.5 0 14.75 4.249 19 9.5 19c5.25 0 9.5-4.249 9.5-9.5C19 4.25 14.751 0 9.5 0zm-.281 13.946a.96.96 0 01-.95-.963.96.96 0 01.95-.962c.525 0 .963.437.963.962a.971.971 0 01-.963.963zm1.425-4.864c-.687.538-.7.913-.7 1.563 0 .238-.125.513-.738.513-.512 0-.687-.188-.687-.838 0-1.075.475-1.588.837-1.9.413-.35 1.113-.739 1.113-1.414 0-.575-.5-.85-1.125-.85-1.276 0-1 .963-1.676.963-.337 0-.75-.225-.75-.713 0-.675.775-1.676 2.463-1.676 1.601 0 2.664.888 2.664 2.064 0 1.175-1.063 2.025-1.4 2.288z" fill="#0092B4"/></svg>