<svg width="13" height="13" fill="none" xmlns="http://www.w3.org/2000/svg"><path d="M11.174.414l.008 1.58A6.502 6.502 0 000 6.496c-.014.554.823.557.813.003a5.684 5.684 0 019.964-3.738l-1.933.01c-.542.003-.54.817.003.814l2.75-.015a.411.411 0 00.405-.411L11.987.41a.408.408 0 00-.414-.41.41.41 0 00-.399.413zm1.013 6.087a5.684 5.684 0 01-9.964 3.738l1.933-.01c.542-.003.54-.816-.003-.814l-2.75.016a.41.41 0 00-.405.41l.015 2.748c.002.23.187.417.418.41a.409.409 0 00.395-.413l-.008-1.58A6.502 6.502 0 0013 6.504c.007-.277-.199-.416-.405-.417-.206 0-.413.137-.408.414z" fill="#F37928"/></svg>