<svg width="20" height="16" fill="none" xmlns="http://www.w3.org/2000/svg"><path fill-rule="evenodd" clip-rule="evenodd" d="M19.146 1.847a7.83 7.83 0 01-2.26.607A3.81 3.81 0 0018.613.292a7.703 7.703 0 01-2.49.947C15.344.413 14.388 0 13.254 0c-1.085 0-2.01.383-2.776 1.148-.765.765-1.148 1.69-1.148 2.776 0 .291.033.591.097.899a10.934 10.934 0 01-4.513-1.209A11.125 11.125 0 011.336.717a3.844 3.844 0 00-.534 1.98c0 .672.158 1.296.474 1.87A3.92 3.92 0 002.55 5.966a3.893 3.893 0 01-1.773-.498v.048c0 .948.297 1.78.892 2.497a3.86 3.86 0 002.254 1.354c-.34.09-.684.134-1.033.134-.226 0-.474-.02-.74-.06a3.84 3.84 0 001.384 1.937 3.829 3.829 0 002.284.784c-1.425 1.117-3.05 1.676-4.871 1.676-.349 0-.664-.016-.948-.048 1.822 1.174 3.83 1.761 6.026 1.761 1.393 0 2.7-.22 3.923-.662 1.224-.441 2.268-1.033 3.135-1.774a11.868 11.868 0 002.241-2.557 11.404 11.404 0 001.404-3.019 11.15 11.15 0 00.449-3.663 8.217 8.217 0 001.968-2.028z" fill="#0092B4"/></svg>