<svg width="65" height="65" fill="none" xmlns="http://www.w3.org/2000/svg"><path d="M22.828 50.96l-9.697 5.29c-.57.31-1.08.691-1.557 1.107A32.35 32.35 0 0032.501 65a32.37 32.37 0 0020.804-7.535 8.6 8.6 0 00-1.71-1.146l-10.383-5.191a3.96 3.96 0 01-2.19-3.542v-4.074a15.7 15.7 0 00.983-1.263c1.415-2 2.486-4.198 3.228-6.505 1.332-.411 2.313-1.641 2.313-3.103v-4.349a3.25 3.25 0 00-1.087-2.41v-6.286s1.292-9.783-11.957-9.783c-13.25 0-11.958 9.783-11.958 9.783v6.286a3.242 3.242 0 00-1.086 2.41v4.349a3.26 3.26 0 001.503 2.736c1.087 4.73 3.932 8.135 3.932 8.135v3.974a3.964 3.964 0 01-2.065 3.474z" fill="#E0E4E7"/><path d="M33.056.005C15.109-.302.31 13.998.005 31.945-.17 42.12 4.366 51.264 11.587 57.346c.472-.412.979-.79 1.542-1.096l9.697-5.29a3.961 3.961 0 002.064-3.477V43.51s-2.846-3.405-3.932-8.135a3.262 3.262 0 01-1.503-2.736v-4.35c0-.956.425-1.81 1.086-2.409v-6.287S19.25 9.811 32.5 9.811s11.957 9.783 11.957 9.783v6.287a3.242 3.242 0 011.087 2.41v4.349c0 1.462-.981 2.692-2.313 3.103a23.89 23.89 0 01-3.228 6.505c-.357.504-.69.93-.982 1.263v4.074c0 1.5.847 2.872 2.189 3.542l10.384 5.191a8.648 8.648 0 011.704 1.143c7.003-5.84 11.528-14.572 11.696-24.405C65.302 15.109 51.003.31 33.056.005z" fill="#0092B4"/></svg>