<svg width="25" height="25" fill="none" xmlns="http://www.w3.org/2000/svg"><path fill-rule="evenodd" clip-rule="evenodd" d="M12.275 18.15h1.2s.35-.05.55-.25c.175-.175.175-.525.175-.525s-.025-1.6.725-1.85c.725-.225 1.675 1.55 2.675 2.225.75.525 1.325.4 1.325.4l2.675-.025s1.4-.075.725-1.175c-.05-.1-.375-.825-1.975-2.3-1.675-1.55-1.45-1.3.575-4C22.15 9.025 22.65 8.025 22.5 7.575c-.15-.4-1.05-.3-1.05-.3l-3 .025s-.225-.025-.4.075c-.2.125-.3.35-.3.35s-.475 1.275-1.1 2.35c-1.35 2.275-1.875 2.4-2.1 2.25-.5-.325-.375-1.325-.375-2.025 0-2.2.325-3.125-.65-3.35-.325-.075-.575-.125-1.4-.15-1.075 0-1.975 0-2.5.25-.35.175-.6.55-.45.55.2.025.65.125.875.45.3.425.3 1.35.3 1.35s.175 2.6-.425 2.925c-.4.225-.95-.225-2.15-2.3C7.175 8.975 6.7 7.8 6.7 7.8s-.1-.225-.25-.325c-.125-.1-.375-.175-.65-.175l-2.675.025s-.425 0-.575.2c-.15.175 0 .5 0 .5s2.25 5.225 4.775 7.85c2.325 2.45 4.95 2.275 4.95 2.275z" fill="#0092B4"/></svg>