<svg width="20" height="20" fill="none" xmlns="http://www.w3.org/2000/svg"><path d="M10 .625C4.83.625.625 4.83.625 10c0 1.819.522 3.572 1.512 5.095L.676 18.504a.625.625 0 00.82.82l3.41-1.46A9.3 9.3 0 0010 19.374c5.17 0 9.375-4.205 9.375-9.375S15.17.625 10 .625zm4.812 12.73s-.78 1-1.343 1.234c-1.432.593-3.453 0-5.756-2.302-2.302-2.303-2.895-4.324-2.302-5.756.234-.564 1.233-1.343 1.233-1.343a.728.728 0 01.935.058l1.131 1.13a.627.627 0 010 .885L8 7.97s-.287.863 1.44 2.59c1.726 1.727 2.59 1.44 2.59 1.44l.71-.71a.627.627 0 01.883 0l1.131 1.13c.243.244.27.664.058.936z" fill="#0092B4"/></svg>