<svg width="60" height="60" viewBox="0 0 60 60" fill="none" xmlns="http://www.w3.org/2000/svg">
<circle cx="30" cy="30" r="30" fill="#0092B4"/>
<path fill-rule="evenodd" clip-rule="evenodd" d="M39.0879 30.0439C39.0879 37.8002 32.8002 44.0879 25.0439 44.0879C17.2877 44.0879 11 37.8002 11 30.0439C11 22.2877 17.2877 16 25.0439 16C32.8002 16 39.0879 22.2877 39.0879 30.0439ZM22.5986 24.0455C22.5986 23.076 23.3845 22.29 24.3541 22.29C25.3236 22.29 26.1096 23.076 26.1096 24.0455V29.1699H29.7952C30.7648 29.1699 31.5507 29.9559 31.5507 30.9254C31.5507 31.8949 30.7648 32.6809 29.7952 32.6809H24.795C24.7204 32.6809 24.647 32.6763 24.5749 32.6672C24.5026 32.6763 24.4289 32.681 24.3541 32.681C23.3845 32.681 22.5986 31.895 22.5986 30.9255V24.0455Z" fill="white"/>
<path d="M33.8099 39.6452L33.8099 39.6452L51.184 42.3656C51.6495 41.73 51.9297 40.9766 51.9884 40.1877C52.0472 39.3988 51.8815 38.6116 51.5133 37.9136C51.1453 37.2161 50.5911 36.6379 49.9174 36.237C49.2441 35.8364 48.4748 35.6266 47.6935 35.6266C47.6935 35.6266 47.6935 35.6266 47.6935 35.6266H47.3871V34.2524C47.3871 34.2523 47.3871 34.2522 47.3871 34.2521C47.3872 33.3393 47.0897 32.4554 46.5454 31.7277C46.0022 31.0016 45.2432 30.4704 44.3834 30.2011C43.5186 29.9288 42.5887 29.9331 41.7264 30.2135C40.8649 30.4936 40.1084 31.0374 39.573 31.7752L33.8099 39.6452ZM45.418 50.2395L51.184 42.3656L37.3147 46.3757H37.3177H37.6211V47.7502C37.6211 47.7502 37.6211 47.7502 37.6211 47.7502C37.6211 48.6628 37.9186 49.5466 38.4628 50.2742C39.0064 51.001 39.7663 51.5325 40.627 51.8016C41.4872 52.0705 42.4115 52.066 43.2691 51.7886C44.1272 51.511 44.8817 50.9719 45.418 50.2395C45.418 50.2395 45.418 50.2395 45.418 50.2395Z" fill="white" stroke="#0092B4" stroke-width="4"/>
</svg>
