<svg width="33" height="33" fill="none" xmlns="http://www.w3.org/2000/svg"><path d="M24.948 19.8c2.64-4.884 1.98-11.22-2.112-15.444-5.016-5.016-13.2-5.016-18.348 0-5.016 5.016-5.016 13.2 0 18.348 4.224 4.224 10.56 4.884 15.312 2.244 1.188 2.376 3.036 5.016 3.96 5.94 1.848 1.848 5.016 1.98 6.996 0 1.848-1.848 1.98-5.148 0-6.996-.792-1.056-3.432-2.904-5.808-4.092zm-2.904-5.544c-1.188 1.452-4.62 4.884-8.448 4.884-3.96 0-7.26-3.432-8.448-4.884a1.199 1.199 0 010-1.32c1.188-1.452 4.62-4.884 8.448-4.884 3.96 0 7.26 3.432 8.448 4.884.396.396.396.924 0 1.32z" fill="#fff"/><path d="M13.596 10.824h-.132c-.132 1.452-1.32 2.508-2.64 2.64v.264c0 1.584 1.32 2.904 2.904 2.904 1.584 0 2.904-1.32 2.904-2.904 0-1.584-1.452-2.904-3.036-2.904z" fill="#fff"/></svg>