<svg width="37" height="30" fill="none" xmlns="http://www.w3.org/2000/svg"><path fill-rule="evenodd" clip-rule="evenodd" d="M9.871 0c3.251.041 5.863 2.49 5.858 5.492-.05 3.037-2.73 5.474-6.018 5.474-3.28-.041-5.902-2.53-5.858-5.557C3.897 2.381 6.591-.04 9.871.001zm.148 12.967c4.925 0 9.58 2.565 9.58 9.169 0 1.23-2.798 1.953-6.27 2.214-5.696.53-13.33-.117-13.33-2.15 0-6.25 4.17-8.883 8.793-9.146a10.3 10.3 0 011.227-.087z" fill="#F3F5F6"/><path fill-rule="evenodd" clip-rule="evenodd" d="M9.871 0c3.251.041 5.863 2.49 5.858 5.492-.05 3.037-2.73 5.474-6.018 5.474-3.28-.041-5.902-2.53-5.858-5.557C3.897 2.381 6.591-.04 9.871.001z" fill="#F3F5F6"/><path d="M24.073 24.98l-3.43 1.877a3 3 0 01-4.073-1.16l7.503-.717zm0 0l3.546 1.773h.002a2.995 2.995 0 001.9.266l.005-.001-5.453-2.038zm-7.858-1.153l.005-.027.6-3.882-2.87-2.702-.003-.003a3.002 3.002 0 01-.145-4.232l.003-.004h0a2.999 2.999 0 011.727-.916l3.883-.636 1.675-3.527.004-.009.004-.009a3 3 0 015.393-.007l1.685 3.37 4.006.508a3 3 0 012.616 3.33m-18.583 8.746l18.583-8.746m-18.583 8.746l-.003.027m.003-.027l-.003.027m18.586-8.773a2.995 2.995 0 01-.852 1.763m.852-1.763l-.852 1.763m0 0l-2.767 2.804.732 3.865 2.035-6.669zm-17.734 7.01c-.08.636.044 1.282.358 1.843l-.358-1.843z" fill="#F3F5F6" stroke="#0092B4" stroke-width="4"/></svg>