<svg width="60" height="60" fill="none" xmlns="http://www.w3.org/2000/svg"><circle cx="30" cy="30" r="30" fill="#0092B4"/><mask id="a" maskUnits="userSpaceOnUse" x="16" y="15.953" width="28" height="28" fill="#000"><path fill="#fff" d="M16 15.953h28v28H16z"/><path fill-rule="evenodd" clip-rule="evenodd" d="M36.916 34.205c1.625-1.514 2.619-3.544 2.619-5.776 0-4.681-4.373-8.476-9.768-8.476-5.394 0-9.767 3.795-9.767 8.476 0 2.251 1.012 4.298 2.663 5.816.118.114.253.24.399.376.667.625 1.535 1.437 1.82 2.02.173.353.313.728.437 1.063.143.383.266.713.398.901.247.352.556.382 1.267.382l1.018.003c1.543.007 4.203.019 4.793-.004.773-.029.866-.117 1.051-.38.098-.14.195-.408.312-.732.143-.396.316-.873.554-1.292.282-.498 1.064-1.26 1.685-1.865a32 32 0 00.519-.512z"/></mask><path fill-rule="evenodd" clip-rule="evenodd" d="M36.916 34.205c1.625-1.514 2.619-3.544 2.619-5.776 0-4.681-4.373-8.476-9.768-8.476-5.394 0-9.767 3.795-9.767 8.476 0 2.251 1.012 4.298 2.663 5.816.118.114.253.24.399.376.667.625 1.535 1.437 1.82 2.02.173.353.313.728.437 1.063.143.383.266.713.398.901.247.352.556.382 1.267.382l1.018.003c1.543.007 4.203.019 4.793-.004.773-.029.866-.117 1.051-.38.098-.14.195-.408.312-.732.143-.396.316-.873.554-1.292.282-.498 1.064-1.26 1.685-1.865a32 32 0 00.519-.512z" fill="#F3F5F6"/><path d="M36.916 34.205l-2.727-2.927-.069.064-.065.067 2.86 2.796zm-14.253.04l2.774-2.881-.033-.032-.034-.032-2.707 2.945zm.399.376l2.732-2.92-2.732 2.92zm1.82 2.02l3.593-1.759-3.593 1.758zm.437 1.063l3.75-1.395-3.75 1.395zm.398.901l3.273-2.3-3.273 2.3zm2.285.385l.018-4-.018 4zm4.793-.004l.152 3.998-.152-3.998zm1.051-.38l3.273 2.299-3.273-2.3zm.312-.732l-3.762-1.36 3.762 1.36zm.554-1.292l3.478 1.974-3.478-1.974zm1.685-1.865l-2.792-2.865 2.792 2.865zm-.862-6.288c0 .99-.432 1.998-1.346 2.849l5.453 5.854c2.336-2.177 3.893-5.23 3.893-8.703h-8zm-5.768-4.476c3.737 0 5.768 2.518 5.768 4.476h8c0-7.404-6.716-12.476-13.768-12.476v8zM24 28.43c0-1.958 2.03-4.476 5.767-4.476v-8C22.715 15.953 16 21.025 16 28.43h8zm1.37 2.871c-.93-.855-1.37-1.872-1.37-2.871h-8c0 3.504 1.584 6.58 3.955 8.76l5.415-5.89zm-5.482 5.826c.143.138.301.286.44.416l5.466-5.842a36.172 36.172 0 01-.357-.336l-5.549 5.762zm.44.416c.351.328.646.606.887.86.116.122.182.2.212.237.044.056-.036-.033-.138-.24l7.186-3.517c-.434-.887-1.103-1.615-1.46-1.99-.43-.454-.903-.895-1.22-1.192l-5.466 5.842zm.961.856c.072.147.146.337.281.7l7.498-2.79c-.114-.306-.319-.866-.593-1.426L21.29 38.4zm.281.7c.052.138.37 1.09.874 1.807l6.546-4.6a2.876 2.876 0 01.218.368l-.001-.002a1.964 1.964 0 01-.049-.122 17.634 17.634 0 01-.04-.108l-.05-.132-7.498 2.79zm.874 1.807a4.75 4.75 0 002.725 1.894c.779.203 1.56.188 1.815.188v-8c-.169 0-.215-.003-.215-.003a2.638 2.638 0 01.416.073 3.21 3.21 0 011.023.476c.376.262.627.553.782.773l-6.546 4.599zm4.54 2.081l1 .004.035-8-1.035-.004v8zm1 .004c1.464.007 4.262.02 4.963-.006l-.303-7.995c-.479.019-3.003.009-4.624.001l-.036 8zm4.963-.006c.346-.014 1.232-.038 2.112-.4 1.277-.523 1.904-1.457 2.06-1.68l-6.546-4.598c-.047.067.098-.154.342-.393a3.485 3.485 0 011.108-.73 2.9 2.9 0 01.693-.194c.068-.01.066-.005-.072 0l.303 7.995zm4.172-2.08c.323-.46.51-.917.578-1.081.089-.217.172-.45.222-.589l-7.523-2.72-.072.197-.032.084c-.004.01.01-.027.043-.092a3.224 3.224 0 01.238-.398l6.546 4.6zm.8-1.67c.075-.207.127-.348.18-.478.053-.129.084-.187.091-.2l-6.957-3.949c-.433.763-.713 1.563-.837 1.907l7.523 2.72zm.271-.678c-.084.149-.136.202-.08.133.043-.052.117-.138.233-.26.237-.253.522-.532.845-.847l-5.583-5.73c-.297.29-.713.695-1.093 1.099-.316.336-.88.953-1.28 1.656l6.958 3.949zm.998-.974c.184-.18.403-.392.588-.581l-5.721-5.592c-.102.104-.242.241-.45.443l5.583 5.73z" fill="#0092B4" mask="url(#a)"/><rect width="8" height="4" rx="2" transform="matrix(1 0 0 -1 26 47)" fill="#F3F5F6"/><rect width="6" height="4" rx="2" transform="matrix(0 -1 -1 0 32 17)" fill="#F3F5F6"/><rect x="19.857" y="20.714" width="6" height="4" rx="2" transform="rotate(-130 19.857 20.714)" fill="#F3F5F6"/><rect x="16.906" y="28.22" width="6" height="4" rx="2" transform="rotate(-170 16.906 28.22)" fill="#F3F5F6"/><rect width="6" height="4" rx="2" transform="scale(1 -1) rotate(10 182.653 230.23)" fill="#F3F5F6"/><rect width="6" height="4" rx="2" transform="scale(1 -1) rotate(50 42.137 32.376)" fill="#F3F5F6"/></svg>