<svg width="60" height="61" fill="none" xmlns="http://www.w3.org/2000/svg"><circle cx="29.999" cy="30.191" r="30" fill="#0092B4"/><path fill-rule="evenodd" clip-rule="evenodd" d="M23.871 18c3.251.041 5.863 2.49 5.858 5.492-.05 3.037-2.73 5.474-6.018 5.473-3.28-.04-5.902-2.529-5.858-5.556.044-3.028 2.738-5.45 6.018-5.409zm.148 12.967c4.925 0 9.58 2.565 9.58 9.169 0 1.23-2.798 1.953-6.27 2.214-5.696.53-13.33-.117-13.33-2.15 0-6.25 4.17-8.883 8.793-9.147.401-.052.81-.081 1.227-.086z" fill="#F3F5F6"/><path fill-rule="evenodd" clip-rule="evenodd" d="M23.871 18c3.251.041 5.863 2.49 5.858 5.492-.05 3.037-2.73 5.474-6.018 5.473-3.28-.04-5.902-2.529-5.858-5.556.044-3.028 2.738-5.45 6.018-5.409z" fill="#F3F5F6"/><path d="M38.073 42.98l-3.43 1.877a3 3 0 01-4.073-1.16l7.503-.717zm0 0l3.546 1.773h.002a2.995 2.995 0 001.9.266l.005-.001-5.453-2.038zm-7.858-1.153l.005-.026.6-3.883-2.87-2.702-.003-.002a3.002 3.002 0 01-.145-4.233l.003-.004h0a2.999 2.999 0 011.727-.916l3.883-.636 1.675-3.527.004-.009.004-.009a3 3 0 015.393-.007l1.685 3.37 4.006.508a3 3 0 012.616 3.33m-18.583 8.746l18.583-8.746m-18.583 8.746l-.003.027m.003-.027l-.003.027m18.586-8.773a2.995 2.995 0 01-.852 1.763m.852-1.763l-.852 1.763m0 0l-2.767 2.804.732 3.865 2.035-6.669zm-17.734 7.01c-.08.636.044 1.282.358 1.843l-.358-1.843z" fill="#F3F5F6" stroke="#0092B4" stroke-width="4"/></svg>