<svg xmlns="http://www.w3.org/2000/svg" xmlns:xlink="http://www.w3.org/1999/xlink"><defs>
    <style>
      .cls-1 {
        fill: #f5f5f5;
        fill-rule: evenodd;
      }
    </style>
  
    <style>
      .cls-1 {
        fill: #f5f5f5;
        fill-rule: evenodd;
      }
    </style>
  
    <style>
      .cls-1 {
        fill: #f5f5f5;
        fill-rule: evenodd;
      }
    </style>
  
    <style>
      .cls-1 {
        fill: #f5f5f5;
        fill-rule: evenodd;
      }
    </style>
  </defs><symbol id="facebook" viewBox="0 0 9.63 18.563">
  
  <path id="_" data-name="&#xF09A;" class="cls-1" d="M1258.98,75a21.85,21.85,0,0,0-2.54-.134,3.981,3.981,0,0,0-4.25,4.361V81.66h-2.84v3.3h2.84v8.466h3.41V84.962h2.84l0.43-3.3h-3.27V79.552a1.367,1.367,0,0,1,1.63-1.606h1.75V75Z" transform="translate(-1249.34 -74.875)"/>
</symbol><symbol id="linkedin" viewBox="0 0 17.12 16.375">
  
  <path id="_" data-name="&#xF0E1;" class="cls-1" d="M1376.32,81.839h-3.68V92.892h3.68V81.839Zm0.24-3.413a2.071,2.071,0,1,0-2.1,1.907h0.02A1.912,1.912,0,0,0,1376.56,78.425Zm13,8.131c0-3.391-1.81-4.975-4.23-4.975a3.641,3.641,0,0,0-3.33,1.863h0.02V81.839h-3.67s0.05,1.037,0,11.054h3.67V86.724a2.751,2.751,0,0,1,.12-0.9,2.016,2.016,0,0,1,1.89-1.338c1.33,0,1.86,1.015,1.86,2.5v5.912h3.67V86.557Z" transform="translate(-1372.44 -76.531)"/>
</symbol><symbol id="says" viewBox="0 0 30 34">
    <path fill="#FFF" fill-rule="evenodd" d="M15.196 4.345c5.826 0 10.565 4.75 10.565 10.59 0 5.839-4.739 10.59-10.534 10.59l-.126-.008c-.116-.008-.233-.015-.35-.021l-.711-.029-.683.204-7.085 2.122.86-3.392.473-1.865-1.094-1.584c-1.23-1.777-1.879-3.858-1.879-6.017 0-5.84 4.739-10.59 10.564-10.59m0-4.236C7.02.109.393 6.747.393 14.935c0 3.132.975 6.032 2.63 8.426L.327 33.996l14.247-4.267c.208.008.412.031.622.031C23.372 29.76 30 23.123 30 14.935 30 6.747 23.372.109 15.196.109z"/>
</symbol><symbol id="search" viewBox="0 0 35 34">
    <path fill="#F1FBFF" fill-rule="evenodd" d="M13.378 4.239c4.648 0 8.43 3.8 8.43 8.472 0 1.759-.541 3.453-1.563 4.896l-.829 1.171-1.166.834c-1.437 1.028-3.121 1.571-4.872 1.571-4.648 0-8.43-3.801-8.43-8.472 0-4.672 3.782-8.472 8.43-8.472m0-4.236C6.395.003.734 5.693.734 12.711s5.661 12.707 12.644 12.707c2.729 0 5.249-.878 7.316-2.355l10.154 10.206c.413.415.953.622 1.493.622.54 0 1.081-.207 1.493-.622.824-.828.824-2.171 0-3L23.679 20.064c1.47-2.077 2.344-4.61 2.344-7.353 0-7.018-5.662-12.708-12.645-12.708z"/>
</symbol><symbol id="skype" viewBox="0 0 17.12 17.156">
  
  <path id="_" data-name="&#xF17E;" class="cls-1" d="M1345.51,86.724c0,2.264-2.18,3.313-4.28,3.313-2.51,0-4.61-1.115-4.61-2.487a1.078,1.078,0,0,1,1.13-1.171c1.19,0,1.3,1.718,3.37,1.718,0.98,0,1.62-.435,1.62-1,0-.714-0.62-0.825-1.61-1.071l-1.63-.4c-1.63-.39-2.88-1.06-2.88-2.933,0-2.264,2.24-3.1,4.17-3.1,2.11,0,4.24.837,4.24,2.119a1.148,1.148,0,0,1-1.16,1.216c-1.08,0-1.11-1.283-2.86-1.283-0.99,0-1.61.268-1.61,0.859,0,0.647.64,0.792,1.48,0.993l1.16,0.268C1343.63,84.114,1345.51,84.783,1345.51,86.724Zm4.05,2.42a4.25,4.25,0,0,0-.89-2.61,8.378,8.378,0,0,0,.18-1.673,7.853,7.853,0,0,0-7.85-7.853,8.356,8.356,0,0,0-1.68.178,4.278,4.278,0,0,0-6,6,8.378,8.378,0,0,0-.18,1.673,7.856,7.856,0,0,0,7.86,7.853,8.342,8.342,0,0,0,1.67-.178A4.276,4.276,0,0,0,1349.56,89.145Z" transform="translate(-1332.44 -76.281)"/>
</symbol><symbol id="twitter" viewBox="0 0 17.56 14.281">
  
  <path id="_" data-name="&#xF099;" class="cls-1" d="M1307.78,79.418a7.178,7.178,0,0,1-2.07.558,3.543,3.543,0,0,0,1.58-1.985,7.081,7.081,0,0,1-2.28.87,3.61,3.61,0,0,0-6.24,2.465,4.523,4.523,0,0,0,.09.825,10.254,10.254,0,0,1-7.43-3.77,3.607,3.607,0,0,0,1.12,4.819,3.642,3.642,0,0,1-1.63-.457v0.045a3.6,3.6,0,0,0,2.89,3.536,3.837,3.837,0,0,1-.95.123,4.556,4.556,0,0,1-.68-0.056,3.608,3.608,0,0,0,3.37,2.5,7.22,7.22,0,0,1-4.47,1.539,7.341,7.341,0,0,1-.87-0.045,10.253,10.253,0,0,0,15.78-8.633c0-.156,0-0.312-0.01-0.469A7.752,7.752,0,0,0,1307.78,79.418Z" transform="translate(-1290.22 -77.719)"/>
</symbol><symbol id="write" viewBox="0 0 34 34">
    <path fill="#FFF" fill-rule="evenodd" d="M33.307 9.586L18.028 25.418h-9.54v-9.53L24.335.621c.413-.411.955-.618 1.496-.618s1.083.207 1.495.619l5.981 5.976c.826.825.826 2.163 0 2.988zm-7.503-4.494L12.728 17.688v3.495h3.498L28.834 8.119l-3.03-3.027zm-15.196-.853h-5.3c-.585 0-1.06.474-1.06 1.059v23.298c0 .585.475 1.059 1.06 1.059h23.319c.585 0 1.06-.474 1.06-1.059V23.3c0-1.169.949-2.117 2.12-2.117 1.171 0 2.12.948 2.12 2.117v8.472c0 1.17-.949 2.119-2.12 2.119H2.129c-1.171 0-2.12-.949-2.12-2.119V2.121C.009.951.958.003 2.129.003h8.479c1.171 0 2.12.948 2.12 2.118s-.949 2.118-2.12 2.118z"/>
</symbol></svg>