<svg xmlns="http://www.w3.org/2000/svg" xmlns:xlink="http://www.w3.org/1999/xlink"><symbol id="check-in-marker" viewBox="-3 -3 23 22"><path d="M6.382 5.144a.523.523 0 0 0-.74.74L7.6 7.837c.006.007.017.004.024.01.002.003 0 .006.003.01a.48.48 0 0 0 .676 0l.004-.007c.01-.007.02-.004.03-.012.015-.015.02-.035.034-.05l4.985-4.985a.478.478 0 0 0-.676-.675L8.02 6.784l-1.64-1.64zm6.11.855c0 .02.007.04.007.062 0 2.796-5 8.438-5 8.438s-5-5.642-5-8.438S4.736 1 7.5 1a4.92 4.92 0 0 1 3 1.034V.83a5.938 5.938 0 0 0-3-.83c-3.314 0-6 2.686-6 6s6 10 6 10 6-6.688 6-10h-1.007z"/></symbol><symbol id="facebook-alt" viewBox="0 0 20 20">
	<path d="M20 10.0611C20 4.50451 15.5229 0 10 0C4.47715 0 0 4.50451 0 10.0611C0 15.0829 3.65686 19.2452 8.4375 20V12.9694H5.89844V10.0611H8.4375V7.84452C8.4375 5.32296 9.93043 3.93012 12.2146 3.93012C13.3087 3.93012 14.4531 4.12663 14.4531 4.12663V6.60261H13.1921C11.9499 6.60261 11.5625 7.37816 11.5625 8.17381V10.0611H14.3359L13.8926 12.9694H11.5625V20C16.3431 19.2452 20 15.0829 20 10.0611Z"/>
</symbol><symbol id="facebook" viewBox="0 0 16 33">
	<path d="M10.127 32.64V16.317h4.505l.597-5.625h-5.103l.008-2.815c0-1.467.14-2.253 2.246-2.253H15.2V0H10.69C5.28 0 3.375 2.728 3.375 7.317v3.377H0v5.624h3.374v16.32h6.753z"/>
</symbol><symbol id="instagram" viewBox="0 0 32 32">
	<path d="M16.002 0c-4.346 0-4.89.02-6.598.097C7.7.175 6.538.444 5.52.84a7.835 7.835 0 0 0-2.834 1.845A7.854 7.854 0 0 0 .84 5.52C.443 6.536.173 7.7.096 9.4.02 11.11 0 11.655 0 16c0 4.346.02 4.89.097 6.596.078 1.703.348 2.866.743 3.883a7.84 7.84 0 0 0 1.845 2.834A7.835 7.835 0 0 0 5.52 31.16c1.017.396 2.18.666 3.883.744C11.11 31.98 11.653 32 16 32c4.345 0 4.89-.02 6.596-.096 1.703-.078 2.867-.348 3.885-.744a7.828 7.828 0 0 0 2.833-1.846 7.854 7.854 0 0 0 1.847-2.834c.393-1.018.663-2.18.743-3.884C31.98 20.89 32 20.346 32 16c0-4.345-.02-4.89-.097-6.597-.08-1.704-.35-2.866-.743-3.884a7.853 7.853 0 0 0-1.847-2.835A7.82 7.82 0 0 0 26.48.84C25.46.444 24.297.175 22.593.097 20.887.02 20.343 0 15.997 0h.005zm-1.436 2.883H16c4.274 0 4.78.016 6.467.092 1.56.072 2.407.332 2.97.55.747.29 1.28.638 1.84 1.198.56.56.906 1.093 1.197 1.84.22.563.48 1.41.55 2.97.077 1.687.094 2.193.094 6.464 0 4.27-.017 4.776-.093 6.463-.072 1.56-.332 2.407-.55 2.97a4.947 4.947 0 0 1-1.2 1.838c-.56.56-1.09.907-1.837 1.197-.564.22-1.41.48-2.97.55-1.688.078-2.194.094-6.466.094-4.273 0-4.78-.017-6.466-.094-1.56-.072-2.407-.333-2.97-.552a4.956 4.956 0 0 1-1.84-1.196 4.96 4.96 0 0 1-1.198-1.84c-.22-.563-.48-1.41-.55-2.97-.078-1.686-.093-2.193-.093-6.466 0-4.272.015-4.776.092-6.463.07-1.56.332-2.408.55-2.972.29-.746.638-1.28 1.198-1.84a4.966 4.966 0 0 1 1.84-1.197c.564-.22 1.41-.48 2.97-.55 1.477-.067 2.05-.087 5.03-.09v.003zm9.976 2.657a1.92 1.92 0 1 0 0 3.84 1.92 1.92 0 0 0 0-3.84zm-8.54 2.243a8.217 8.217 0 1 0 0 16.435 8.217 8.217 0 0 0 0-16.435zm0 2.884a5.333 5.333 0 1 1 0 10.667 5.333 5.333 0 0 1 0-10.667z" fill="currentColor"/>
</symbol><symbol id="map-pin" viewBox="0 0 24 32">
	<path d="M12 0C5.36 0 0 5.36 0 12c0 8 12 20 12 20s12-12 12-20c0-6.64-5.36-12-12-12zm0 8a4 4 0 0 1 4 4c0 2.22-1.78 4-4 4a4 4 0 0 1-4-4c0-2.2 1.8-4 4-4z" fill-rule="evenodd"/>
</symbol><symbol id="phone-alt" viewBox="-3 -3 22 22"><path d="M15.76 2.34c-.017-.024-1.694-2.373-2.667-2.342-2.73.086-5.94 2.73-8.15 4.933C2.73 7.133.074 10.33-.013 13.06v.022c0 .957 2.328 2.638 2.35 2.653.634.44 1.33.28 1.613-.12.173-.245 1.958-2.918 2.16-3.245a.97.97 0 0 0 .13-.507c0-.244-.072-.515-.212-.78a77.645 77.645 0 0 0-.8-1.416C5.464 9.33 6.07 8.542 7.32 7.3c1.24-1.236 2.04-1.847 2.377-2.083.383.218 1.165.66 1.422.795.484.255.97.284 1.296.077a254.71 254.71 0 0 0 3.226-2.148c.24-.173.368-.48.368-.815 0-.265-.08-.544-.25-.788zm-.724.827c-.41.28-2.7 1.787-3.128 2.06a.74.74 0 0 1-.323-.1c-.174-.09-.682-.374-1.392-.776l-.55-.313-.522.363c-.387.27-1.228.918-2.51 2.193-1.286 1.28-1.932 2.116-2.203 2.5l-.365.518.316.552a74.3 74.3 0 0 1 .783 1.387c.09.167.097.282.097.313v.013c-.242.382-1.795 2.712-2.078 3.124-.04.006-.128 0-.237-.075-.88-.633-1.8-1.532-1.93-1.884.087-1.87 1.74-4.497 4.658-7.404 2.92-2.907 5.554-4.552 7.427-4.64.354.127 1.262 1.043 1.893 1.912a.39.39 0 0 1 .07.218c0 .017-.002.03-.004.04z"/></symbol><symbol id="phone" viewBox="0 0 60 60"><path d="M21.667 42.795C8.865 30.457 11.535 22.61 12.792 20.94l9.238 8.678c-1.24 1.316.054 3.098 1.5 4.784 2.07 2.41 4.44 4.53 6.484 6.1 3.096 2.367 4.702 3.404 5.89 2.15l9.006 8.475c-1.408 1.55-9.76 4.67-23.243-8.332zm26.407 5.113l-.045.007c.004 0-2.445 2.538-2.445 2.538l-9.017-8.496 2.425-2.55a1.437 1.437 0 0 1 1.987-.063c.003.007 7.128 6.607 7.128 6.607v.01c0 .505.516 1.366-.036 1.95zm-14.02-29.99l-6.918 3.746-.04.024a.94.94 0 0 1-.854-1.67l6.917-3.75a.93.93 0 0 1 1.27.375.94.94 0 0 1-.378 1.274zm-9.823.914a.956.956 0 0 1-.35.296.947.947 0 0 1-.96-.08.94.94 0 0 1-.21-1.31l4.576-6.398a.936.936 0 0 1 1.304-.218c.42.303.52.89.22 1.31l-4.58 6.4zm-3.776-2.622a.936.936 0 0 1-1.12.707.933.933 0 0 1-.71-1.117l1.727-7.676a.938.938 0 1 1 1.83.412l-1.726 7.674zm4.073 8.22c.927.5 1.386 1.363.927 1.947v.007l-2.616 2.538-9.445-8.685 2.34-2.55c.52-.545 1.254-.586 1.814-.058l6.98 6.792v.008z"/></symbol><symbol id="whatsapp" viewBox="0 0 16 16">
	<path d="M13.608 2.325A7.88 7.88 0 0 0 7.998 0C3.625 0 .067 3.556.065 7.928c0 1.397.365 2.76 1.06 3.964L0 16l4.204-1.102a7.928 7.928 0 0 0 3.79.965h.004c4.37 0 7.93-3.557 7.93-7.93a7.88 7.88 0 0 0-2.32-5.608zm-5.61 12.2h-.003a6.583 6.583 0 0 1-3.355-.92l-.24-.143-2.496.654.666-2.43-.157-.25a6.573 6.573 0 0 1-1.007-3.508A6.6 6.6 0 0 1 8 1.338a6.55 6.55 0 0 1 4.66 1.934 6.55 6.55 0 0 1 1.93 4.662 6.6 6.6 0 0 1-6.592 6.59zm2.26-5.58c-.18-.068-.313-.1-.445.098s-.512.644-.627.777c-.116.132-.23.148-.43.05-.198-.1-.836-.31-1.593-.984-.59-.525-.987-1.174-1.102-1.373-.115-.198-.012-.305.087-.404.09-.09.2-.232.298-.348.1-.116.132-.198.198-.33.066-.133.033-.248-.017-.348-.05-.1-.446-1.074-.61-1.47-.162-.387-.325-.334-.447-.34a7.945 7.945 0 0 0-.38-.007.728.728 0 0 0-.53.247c-.18.2-.692.678-.692 1.653s.71 1.917.81 2.05c.098.132 1.396 2.133 3.384 2.99.473.205.842.327 1.13.418.474.15.906.13 1.248.08.38-.058 1.172-.48 1.338-.943.165-.463.165-.86.115-.942-.05-.083-.182-.133-.38-.232-.198-.1-1.172-.578-1.354-.644z"/>
</symbol><symbol id="youtube" viewBox="0 0 32 23">
	<path d="M12.696 15.74V6.554l8.645 4.61-8.644 4.578zM31.68 4.96s-.313-2.252-1.272-3.244C29.19.413 27.828.406 27.202.33 22.724 0 16.007 0 16.007 0h-.014S9.276 0 4.798.33c-.626.077-1.99.083-3.207 1.386C.633 2.708.32 4.96.32 4.96S0 7.61 0 10.255v2.48c0 2.648.32 5.293.32 5.293s.312 2.254 1.27 3.246c1.22 1.303 2.818 1.262 3.53 1.398C7.68 22.923 16 23 16 23s6.724-.01 11.202-.34c.625-.078 1.99-.084 3.206-1.387.96-.992 1.272-3.246 1.272-3.246s.32-2.645.32-5.292v-2.48c0-2.647-.32-5.294-.32-5.294z"/>
</symbol></svg>