<svg width="21" height="20" viewBox="0 0 21 20" fill="none" xmlns="http://www.w3.org/2000/svg">
<path d="M11.3701 0.0943212C8.97736 -0.234824 6.54634 0.312873 4.52592 1.63628C2.5055 2.95969 1.03214 4.96942 0.377895 7.29439C-0.276351 9.61935 -0.067296 12.1025 0.966459 14.2854C2.00021 16.4682 3.78885 18.2033 6.0021 19.1703C5.94224 18.4021 5.99718 17.6293 6.1651 16.8773C6.3501 16.0383 7.4611 11.4143 7.4611 11.4143C7.23986 10.9184 7.1293 10.3803 7.1371 9.83732C7.1371 8.35232 7.9941 7.24432 9.0601 7.24432C9.2516 7.24153 9.44146 7.28002 9.61677 7.35715C9.79208 7.43429 9.94872 7.54827 10.076 7.69134C10.2034 7.83442 10.2984 8.00323 10.3547 8.18631C10.4109 8.36939 10.4271 8.56243 10.4021 8.75232C10.4021 9.65232 9.8241 11.0143 9.5221 12.2923C9.46241 12.5267 9.45862 12.7718 9.51104 13.0079C9.56345 13.2441 9.6706 13.4645 9.82385 13.6517C9.97711 13.8388 10.1722 13.9873 10.3933 14.0852C10.6145 14.1831 10.8555 14.2277 11.0971 14.2153C12.9951 14.2153 14.2671 11.7843 14.2671 8.91432C14.2671 6.71432 12.8101 5.06632 10.1241 5.06632C9.48147 5.04135 8.84048 5.14724 8.24003 5.37757C7.63958 5.60791 7.09221 5.95787 6.63115 6.40621C6.17008 6.85455 5.80495 7.39192 5.55792 7.9857C5.31089 8.57947 5.18711 9.21725 5.1941 9.86032C5.16546 10.5736 5.3956 11.2733 5.8421 11.8303C5.92553 11.8926 5.98645 11.9803 6.01567 12.0803C6.04489 12.1802 6.04083 12.2869 6.0041 12.3843C5.9581 12.5683 5.8421 13.0073 5.7961 13.1683C5.78653 13.2229 5.76427 13.2745 5.73112 13.3189C5.69797 13.3634 5.65484 13.3994 5.60523 13.4241C5.55561 13.4488 5.50088 13.4615 5.44545 13.4612C5.39002 13.4609 5.33544 13.4476 5.2861 13.4223C3.9021 12.8683 3.2501 11.3453 3.2501 9.60632C3.2501 6.75932 5.6341 3.35132 10.4041 3.35132C14.2001 3.35132 16.7241 6.12832 16.7241 9.09832C16.7241 13.0073 14.5471 15.9463 11.3301 15.9463C10.8493 15.9617 10.3724 15.8556 9.94343 15.6378C9.51449 15.42 9.1474 15.0976 8.8761 14.7003C8.8761 14.7003 8.2981 17.0163 8.1841 17.4543C7.95139 18.211 7.608 18.9291 7.1651 19.5853C8.0881 19.8653 9.0471 20.0053 10.0111 20.0013C11.3247 20.0024 12.6256 19.7443 13.8393 19.2419C15.053 18.7395 16.1556 18.0026 17.0842 17.0734C18.0127 16.1443 18.7488 15.0411 19.2504 13.827C19.7519 12.613 20.0091 11.3119 20.0071 9.99832C20.0059 7.58332 19.1309 5.25032 17.5437 3.4301C15.9566 1.60988 13.7644 0.425386 11.3721 0.0953211L11.3701 0.0943212Z" fill="white"/>
</svg>
