<?xml version="1.0" ?><svg viewBox="0 0 22.48 22.481" xmlns="http://www.w3.org/2000/svg"><g data-name="Layer 2" id="Layer_2"><g data-name="Layer 1" id="Layer_1-2"><path d="M20.949,16.874C25.339,9.616,19.731-.15,11.234,0A11.245,11.245,0,0,0,0,11.234c-.15,8.495,9.614,14.106,16.872,9.715l5.157,1.5a.34.34,0,0,0,.422-.422Zm-4.026,3.38C9.759,24.338.764,19.7.682,11.234A10.564,10.564,0,0,1,11.234.682c8.042-.143,13.3,9.158,9.055,15.971a.341.341,0,0,0-.035.27l1.372,4.7Zm1.058-9.1c.8-.863.245-2.689-1.049-2.658H13.2c.6-2.509-.352-5.96-3.273-4.792a.34.34,0,0,0-.16.362,7.56,7.56,0,0,1,.2,2.448c-.426,1.474-2.319,2.7-2.852,3.981H1.326a.341.341,0,0,0,0,.681H4.163v5.941c-.271.017-.919-.117-.907.34a.339.339,0,0,0,.34.34H15.723a1.667,1.667,0,0,0,1.591-2.089,1.647,1.647,0,0,0,.718-2.35A1.587,1.587,0,0,0,17.981,11.154ZM7.05,17.117H4.844V11.176H7.05Zm10.275-3.564a.966.966,0,0,1-.531,1.615.343.343,0,0,0-.227.5.981.981,0,0,1-.844,1.448H7.731V10.835c.459-1.256,2.467-2.53,2.878-4.106a6.891,6.891,0,0,0-.12-2.5c2.375-.676,2.418,3.213,1.944,4.513a.343.343,0,0,0,.327.435h4.172a.832.832,0,0,1,.744.849c0,.636-.365.832-.426.841a.341.341,0,0,0,0,.681.644.644,0,0,1,.528.713.955.955,0,0,1-.407.779A.342.342,0,0,0,17.325,13.553Zm-11.378,2.2a.34.34,0,0,1,0,.68A.34.34,0,0,1,5.947,15.755Z" data-name="best buy" id="best_buy"/></g></g></svg>