<?xml version="1.0" ?><svg viewBox="0 0 22.465 22.465" xmlns="http://www.w3.org/2000/svg"><g data-name="Layer 2" id="Layer_2"><g data-name="Layer 1" id="Layer_1-2"><path d="M15.317,5.673H10.922a.341.341,0,0,1,0-.681h4.395a.341.341,0,0,1,0,.681Zm-8.623,0H9.106a.341.341,0,0,0,0-.681H6.694A.341.341,0,0,0,6.694,5.673Zm4.539,3.858H6.694a.341.341,0,0,0,0,.681h4.539A.341.341,0,0,0,11.233,9.531ZM3.744,6.808a1.475,1.475,0,0,1,0-2.95A1.475,1.475,0,0,1,3.744,6.808Zm0-2.269a.794.794,0,0,0,0,1.588A.794.794,0,0,0,3.744,4.539Zm0,6.808a1.476,1.476,0,0,1,0-2.951A1.476,1.476,0,0,1,3.744,11.347Zm0-2.269a.794.794,0,0,0,0,1.588A.794.794,0,0,0,3.744,9.078Zm7.489,4.992H6.694a.341.341,0,0,0,0,.681h4.539A.341.341,0,0,0,11.233,14.07ZM3.744,15.886a1.475,1.475,0,0,1,0-2.95A1.475,1.475,0,0,1,3.744,15.886Zm0-2.27a.8.8,0,0,0,0,1.589A.795.795,0,0,0,3.744,13.616Zm7.489,4.993H6.694a.341.341,0,0,0,0,.681h4.539A.341.341,0,0,0,11.233,18.609ZM3.744,20.424a1.475,1.475,0,0,1,0-2.95A1.475,1.475,0,0,1,3.744,20.424Zm0-2.268a.794.794,0,0,0,0,1.587A.794.794,0,0,0,3.744,18.156Zm14.182,2.607a1.7,1.7,0,0,1-1.7,1.7H1.7a1.7,1.7,0,0,1-1.7-1.7V1.7A1.7,1.7,0,0,1,1.7,0H16.224a1.7,1.7,0,0,1,1.7,1.7V5.787a.341.341,0,0,1-.681,0V1.7A1.021,1.021,0,0,0,16.224.681H13.388V1.7A1.249,1.249,0,0,1,12.14,2.95H5.786A1.25,1.25,0,0,1,4.538,1.7V.681H1.7A1.023,1.023,0,0,0,.68,1.7V20.763A1.022,1.022,0,0,0,1.7,21.784H16.224a1.021,1.021,0,0,0,1.021-1.021c0-.276-.082-.8.341-.794S17.923,20.475,17.926,20.763ZM5.786,2.269H12.14c.8-.019.519-1.085.567-1.588H5.219C5.267,1.186,4.982,2.248,5.786,2.269ZM22.463,18.913a.343.343,0,0,1-.339.375H13.048a.343.343,0,0,1-.339-.375l.908-9.076a.341.341,0,0,1,.339-.307H15.43a2.212,2.212,0,1,1,4.312,0h1.474a.34.34,0,0,1,.339.307ZM16.111,9.53h2.95V8.963a1.475,1.475,0,0,0-2.95,0Zm-2.46,6.807h7.87l-.613-6.126H19.742c-.047.555.183,1.356-.341,1.361s-.293-.808-.34-1.361h-2.95c-.047.555.183,1.356-.34,1.361s-.294-.8-.341-1.361H14.264Zm8.1,2.27-.159-1.589H13.583l-.159,1.589Z" data-name="wish list" id="wish_list"/></g></g></svg>