<?xml version="1.0" ?><svg viewBox="0 0 22.465 22.394" xmlns="http://www.w3.org/2000/svg"><g data-name="Layer 2" id="Layer_2"><g data-name="Layer 1" id="Layer_1-2"><path d="M11.233,0A11.246,11.246,0,0,0,0,11.233c-.036,6.155,5.28,11.606,11.474,11.132L22.366,11.473a.338.338,0,0,0,.1-.24A11.245,11.245,0,0,0,11.233,0Zm.375,21.268a10.57,10.57,0,0,1,9.661-9.661ZM8.727,11.923,6.477,9.73l3.109-.452a.339.339,0,0,0,.256-.186l1.391-2.818,1.39,2.818a.341.341,0,0,0,.257.186l3.109.452-2.25,2.193a.341.341,0,0,0-.1.3l.369,2.15c-.181.19-.358.384-.525.585l-2.094-1.1a.34.34,0,0,0-.316,0L8.293,15.321l.531-3.1A.337.337,0,0,0,8.727,11.923ZM14.6,13.8l-.26-1.511,2.616-2.549a.341.341,0,0,0-.189-.581L13.155,8.63,11.538,5.354a.355.355,0,0,0-.611,0L9.311,8.63,5.7,9.155a.341.341,0,0,0-.188.581l2.615,2.549-.618,3.6a.341.341,0,0,0,.494.36l3.234-1.7,1.829.962a11.166,11.166,0,0,0-2.161,6.27A10.563,10.563,0,0,1,.681,11.233c.541-13.8,20.137-14.079,21.1-.332A11.187,11.187,0,0,0,14.6,13.8Zm4.122-6.655a1.269,1.269,0,0,1,.716.7,1.716,1.716,0,0,1-.226,1.469.579.579,0,0,0,.13.658c.331.3-.157.8-.467.495a1.261,1.261,0,0,1-.285-1.431c.1-.255.378-.649.219-.931-.08-.31-.58-.388-.813-.5a1.261,1.261,0,0,1-.811-1.212c.037-.494.074-1.087-.58-1.114a1.471,1.471,0,0,1-1.731-.795c-.113-.249-.192-.725-.5-.813-.275-.159-.685.13-.93.219a1.261,1.261,0,0,1-1.431-.285c-.2-.187-.455-.594-.777-.558-.316-.04-.581.38-.776.558a1.481,1.481,0,0,1-1.9.073c-.6-.243-.816.359-.961.806a1.26,1.26,0,0,1-1.214.811c-.272,0-.741-.092-.943.154-.253.2-.142.675-.154.943.034.789-.614,1.206-1.3,1.4-.6.257-.323.827-.11,1.25a1.472,1.472,0,0,1-.661,1.786c-.454.475.014.883.376,1.2a1.477,1.477,0,0,1,.074,1.9c-.242.606.355.814.805.962a1.473,1.473,0,0,1,.8,1.731.571.571,0,0,0,.169.426c.2.265.671.131.943.154A1.287,1.287,0,0,1,7.594,18c.11.247.2.727.5.812.284.164.674-.136.931-.218a1.258,1.258,0,0,1,1.431.285c.309.32-.2.787-.495.467-.313-.36-.79-.077-1.13.081a1.259,1.259,0,0,1-1.692-.7c-.121-.34-.285-.908-.742-.856l-.518.015a1.274,1.274,0,0,1-1.295-1.3L4.6,16.07c.035-.476-.5-.614-.856-.742a1.268,1.268,0,0,1-.7-1.692l.212-.472c.214-.427-.231-.76-.508-1.013a1.269,1.269,0,0,1,0-1.832l.377-.355a.579.579,0,0,0,.131-.658l-.212-.472a1.269,1.269,0,0,1,.7-1.693c.343-.125.9-.27.856-.741a1.706,1.706,0,0,1,.354-1.445A1.705,1.705,0,0,1,6.4,4.6c.48.019.611-.5.742-.856a1.258,1.258,0,0,1,1.692-.7c.332.154.827.444,1.13.081a1.7,1.7,0,0,1,1.271-.771,1.263,1.263,0,0,1,.916.4c.246.27.6.726,1.013.506l.472-.211a1.268,1.268,0,0,1,1.693.7l.184.484c.144.441.71.375,1.075.357a1.268,1.268,0,0,1,1.295,1.3l-.015.518C17.836,6.879,18.368,7.01,18.724,7.141Z" data-name="special offer" id="special_offer"/></g></g></svg>