<svg width="16" height="16" fill="none" xmlns="http://www.w3.org/2000/svg"><path d="M4.31 8.955l5.615-5.752c.06-.061.542-.554 1.304-.821 1.063-.35 2.146-.062 3.008.821.883.884 1.143 1.972.802 3.061a3.693 3.693 0 01-.802 1.376L8.2 13.823c-1.042 1.069-3.65 2.445-6.056 0-2.387-2.444-1.023-5.135 0-6.183L8.622.985a.595.595 0 01.862 0 .63.63 0 010 .883L3.026 8.524c-.1.082-2.126 2.239 0 4.416 2.066 2.116 4.091.226 4.312 0l6.037-6.204s.34-.349.501-.842c.2-.657.06-1.232-.501-1.807-1.204-1.233-2.367-.206-2.587 0l-5.616 5.73c-.2.206-.34.555 0 .905.34.349.662.184.862 0l3.891-3.986c.24-.225.642-.225.863 0 .24.247.24.658 0 .904l-3.891 3.965c-.542.534-1.645.965-2.587 0-.963-.966-.542-2.116 0-2.65z" fill="#333"/></svg>