<svg width="32" height="21" fill="none" xmlns="http://www.w3.org/2000/svg"><path d="M23.688 1.75H16.25A1.75 1.75 0 0014.5 3.5v14a1.75 1.75 0 001.75 1.75h10.5a1.75 1.75 0 001.75-1.75V6.562L23.687 1.75z" stroke="#333" stroke-linecap="round" stroke-linejoin="round"/><path d="M23.25 1.75V7h5.25M25 11.375h-7m7 3.5h-7m1.75-7H18" stroke="#333" stroke-linecap="round" stroke-linejoin="round"/><path d="M5.438 7a.5.5 0 00-1 0h1zm-1 7.875a.5.5 0 001 0h-1zm0-7.875v7.875h1V7h-1z" fill="#333"/><path d="M1 10.438a.5.5 0 000 1v-1zm7.875 1a.5.5 0 000-1v1zm-7.875 0h7.875v-1H1v1z" fill="#333"/></svg>