<svg width="274" height="62" fill="none" xmlns="http://www.w3.org/2000/svg"><g opacity=".5" fill="#fff"><path d="M69.71 9h-7.08v14.522h-.098L57.194 9h-7.566l6.647 15.346L49 43h7.858l5.674-14.522h.097V43h7.08V28.478h.098L75.48 43h7.858l-7.275-18.654L82.711 9h-7.567l-5.337 14.522h-.097V9zm32.453 0h-17.27v34H98.77l5.137-4.955V27.699l-5.137-4.955h-6.795v-7.336h10.189V9zm-10.19 20.159h4.853v7.446h-4.852v-7.446zM107.884 9v34h6.167l5.577-17.512h.098V43h7.08V9h-6.128L115.1 26.512h-.098V9h-7.119zm52.535 4.955L155.281 9h-13.098v34h7.08V31.63h6.018l5.137-4.949V13.955zm-7.08 1.453v9.814h-4.075v-9.814h4.075zm28.716-1.453L176.911 9h-8.726l-5.143 4.955v24.09L168.185 43h8.726l5.143-4.955v-24.09zm-7.08 1.453v21.197h-4.852V15.408h4.852zm30.173-1.453L200.004 9h-8.719l-5.182 4.955v24.09L191.285 43h8.732l5.143-4.955v-9.567h-7.099v8.127h-4.833V15.408h4.846v6.61h7.073v-8.063zm22.99 0L223.026 9h-8.758l-5.143 4.955v24.09L214.268 43h8.758l5.144-4.955v-9.567h-7.087v8.127h-4.852V15.408h4.852v6.61h7.08v-8.063h-.026zM232.095 9v34h6.16l5.584-17.512h.091V43h7.087V9h-6.161l-5.577 17.512h-.058V9h-7.126zm22.996 0v34h6.154l5.578-17.512h.097V43H274V9h-6.16l-5.578 17.512h-.097V9h-7.074zM107.725 56.717a2.627 2.627 0 00-.323 3.21c.311.492.777.856 1.317 1.03.54.173 1.121.146 1.644-.077a2.478 2.478 0 001.224-1.146 2.641 2.641 0 00.247-1.695 2.566 2.566 0 00-.842-1.473 2.383 2.383 0 00-1.549-.581 2.25 2.25 0 00-.932.18 2.334 2.334 0 00-.786.552zm-.735 4.258a3.494 3.494 0 01-.733-1.135 3.609 3.609 0 010-2.68c.17-.425.419-.81.733-1.135a3.502 3.502 0 012.45-1.01c.91 0 1.787.361 2.45 1.01.314.324.563.71.733 1.135a3.609 3.609 0 010 2.68c-.17.425-.419.81-.733 1.135a3.502 3.502 0 01-2.45 1.01c-.91 0-1.787-.361-2.45-1.01zm11.714-5.96c.321 0 .641.045.95.136.265.07.519.18.755.325.195.136.371.258.521.386.115.1.224.21.325.326l.098.136-.651.678a.72.72 0 00-.078-.102 1.833 1.833 0 00-.235-.251 2.223 2.223 0 00-.403-.312 2.62 2.62 0 00-.553-.237 2.323 2.323 0 00-.729-.115 2.317 2.317 0 00-.926.187 2.389 2.389 0 00-.785.545 2.492 2.492 0 00-.523.818 2.582 2.582 0 00-.18.965 2.58 2.58 0 00.174.969 2.5 2.5 0 00.523.822c.225.235.492.421.787.547.295.125.611.188.93.184.247.003.493-.033.729-.108.205-.06.4-.15.579-.272.141-.091.276-.193.403-.305.093-.08.18-.17.261-.264l.071-.122.651.678-.111.15a6.044 6.044 0 01-.331.325 3.99 3.99 0 01-.547.406 3.045 3.045 0 01-.755.326 3.395 3.395 0 01-1.812.036 3.497 3.497 0 01-1.592-.904 3.508 3.508 0 01-.732-1.134 3.609 3.609 0 010-2.681c.17-.425.419-.81.732-1.134a3.363 3.363 0 011.125-.765c.421-.174.87-.257 1.322-.246l.007.007zm10.549.095v6.78h-1.022v-2.956h-3.208v2.956h-1.022v-6.78h1.022v2.861h3.208V55.11h1.022zm4.503 1.607a2.627 2.627 0 00-.323 3.21c.312.492.777.856 1.317 1.03.54.173 1.121.146 1.644-.077a2.478 2.478 0 001.224-1.146 2.635 2.635 0 00.247-1.695 2.561 2.561 0 00-.842-1.473 2.38 2.38 0 00-1.548-.581 2.25 2.25 0 00-.933.18 2.334 2.334 0 00-.786.552zm-.735 4.258a3.475 3.475 0 01-.732-1.135 3.61 3.61 0 010-2.68c.169-.425.418-.81.732-1.135a3.504 3.504 0 012.45-1.01 3.5 3.5 0 012.45 1.01c.314.324.563.71.733 1.135a3.609 3.609 0 010 2.68c-.17.425-.419.81-.733 1.135a3.5 3.5 0 01-2.45 1.01c-.91 0-1.786-.361-2.45-1.01zm11.46.915h-2.759v-6.78h2.668a1.91 1.91 0 011.347.542 1.723 1.723 0 01.397 2 1.476 1.476 0 01-.319.468l-.169.143.104.06c.039 0 .124.096.235.197.112.095.213.204.299.326.094.145.171.303.228.468.073.19.11.392.11.596a1.924 1.924 0 01-.598 1.397 2.05 2.05 0 01-1.497.583h-.046zm-1.763-.922h1.763a1.012 1.012 0 00.765-.317 1.101 1.101 0 00.309-.795 1.101 1.101 0 00-.309-.795 1.012 1.012 0 00-.765-.317h-1.763v2.224zm1.627-4.936h-1.627v1.844h1.672a.854.854 0 00.626-.27.937.937 0 00.259-.652.938.938 0 00-.259-.652.856.856 0 00-.626-.27h-.045zm4.08 5.858l2.694-6.78h1.081l2.694 6.78h-1.067l-.703-1.79h-2.877l-.703 1.79h-1.119zm3.208-5.566l-1.067 2.807h2.135l-1.068-2.807zm10.875-1.214v6.78h-1.022v-2.956h-3.208v2.956h-1.022v-6.78h1.022v2.861h3.208V55.11h1.022zm9.651 6.78h-2.785v-6.78h2.648a1.91 1.91 0 011.347.542c.172.156.31.347.406.562.095.215.145.449.148.686.002.26-.051.517-.157.753a1.49 1.49 0 01-.318.467l-.17.143.098.06.241.197c.113.095.213.204.299.326.092.147.168.304.228.468.073.19.11.392.111.596 0 .265-.053.526-.158.767a1.84 1.84 0 01-.448.63 2.054 2.054 0 01-.689.447c-.256.1-.528.146-.801.136zm-1.738-.922h1.764a1.02 1.02 0 00.763-.32 1.115 1.115 0 00.311-.792 1.11 1.11 0 00-.309-.795 1.015 1.015 0 00-.765-.317h-1.764v2.224zm1.627-4.936h-1.627v1.844h1.627c.235 0 .46-.097.626-.27a.942.942 0 00.259-.652.942.942 0 00-.259-.652.867.867 0 00-.626-.27zm12.489 5.858h-4.321a3.462 3.462 0 01.175-1.139c.109-.313.272-.603.482-.854.198-.229.416-.438.651-.624.234-.19.462-.36.696-.515.234-.156.449-.312.651-.461a2.03 2.03 0 00.475-.536c.121-.203.184-.439.182-.678.007-.15-.016-.3-.069-.441a1.065 1.065 0 00-.237-.373 1.204 1.204 0 00-.859-.298c-.172 0-.342.034-.501.102-.136.055-.26.138-.364.244a4.287 4.287 0 00-.228.278 1.37 1.37 0 00-.13.25l-.033.096-.833-.387a.992.992 0 01.052-.17c.052-.13.115-.254.189-.372.103-.17.226-.328.364-.468.179-.162.384-.288.606-.373.279-.115.578-.172.878-.17a2.167 2.167 0 011.575.604c.196.187.352.416.458.67.105.256.158.53.154.808 0 .297-.062.591-.182.861-.11.256-.267.486-.462.678a7.64 7.64 0 01-.651.55c-.254.19-.475.359-.703.515-.233.163-.451.35-.651.556a2.422 2.422 0 00-.507.677h3.162v.97h-.019zm3.208-.854a4.422 4.422 0 01-.794-2.536c0-.912.278-1.8.794-2.536.238-.3.536-.54.873-.707a2.45 2.45 0 012.159 0c.337.166.635.407.873.707.516.736.794 1.624.794 2.536 0 .912-.278 1.8-.794 2.536-.238.3-.536.541-.873.707a2.448 2.448 0 01-2.159 0 2.557 2.557 0 01-.873-.707zm3.163-.678a3.648 3.648 0 00.501-1.848c0-.652-.174-1.291-.501-1.847a1.494 1.494 0 00-.528-.494 1.425 1.425 0 00-1.378 0 1.494 1.494 0 00-.528.494 3.648 3.648 0 00-.501 1.847c0 .652.174 1.292.501 1.848.135.207.316.376.528.493a1.427 1.427 0 001.378 0c.212-.117.393-.286.528-.493zm4.731.678a4.422 4.422 0 01-.794-2.536c0-.912.278-1.8.794-2.536.238-.298.537-.539.874-.704a2.457 2.457 0 012.157 0c.337.165.636.406.874.704.516.736.794 1.624.794 2.536 0 .912-.278 1.8-.794 2.536a2.565 2.565 0 01-.874.704 2.456 2.456 0 01-2.157 0 2.557 2.557 0 01-.874-.704zm3.163-.678a3.599 3.599 0 00.508-1.848c0-.653-.176-1.293-.508-1.847a1.49 1.49 0 00-.526-.494 1.42 1.42 0 00-1.375 0 1.482 1.482 0 00-.526.494 3.599 3.599 0 00-.508 1.847 3.6 3.6 0 00.508 1.848c.134.207.314.376.526.493a1.42 1.42 0 001.375 0 1.49 1.49 0 00.526-.493zm7.094-1.356a1.275 1.275 0 00-.918-.366 1.273 1.273 0 00-.924.366 1.092 1.092 0 00-.278.377 1.138 1.138 0 00.278 1.311c.25.244.582.376.924.366.34.008.669-.124.918-.366a1.122 1.122 0 00.383-.847 1.12 1.12 0 00-.383-.84zm-.183-2.848a1.002 1.002 0 00-.735-.285.997.997 0 00-.735.285.917.917 0 00-.293.678.897.897 0 00.293.678 1 1 0 00.735.278.984.984 0 00.735-.278.94.94 0 00.211-1.048.923.923 0 00-.211-.308zm-2.102-.583a1.91 1.91 0 011.393-.556c.254-.007.507.038.743.133.237.096.454.24.637.423.177.16.32.358.417.58.098.222.149.464.149.708 0 .158-.02.315-.059.468a1.51 1.51 0 01-.162.373c-.061.09-.126.176-.196.258a.806.806 0 01-.169.156l-.059.054.098.074c.08.066.156.136.228.21.087.116.165.239.234.367.089.147.164.304.221.467.065.188.098.385.098.584a2.07 2.07 0 01-.168.826c-.112.26-.277.491-.483.679a2.194 2.194 0 01-1.601.624 2.122 2.122 0 01-.854-.146 2.196 2.196 0 01-.734-.478 1.966 1.966 0 01-.484-.678 2.038 2.038 0 01-.166-.827c.001-.314.08-.622.227-.895.12-.233.279-.443.469-.617l.234-.177a1.28 1.28 0 01-.182-.149 1.993 1.993 0 01-.293-.434 1.574 1.574 0 01-.182-.725c0-.245.051-.486.148-.709.098-.222.241-.42.418-.58l.078-.013zm8.259 6.32V55.11h4.184v.997h-3.163v5.81l-1.021-.027zm5.948-.97a.611.611 0 01.182.44.648.648 0 01-.181.44.6.6 0 01-.424.184.61.61 0 01-.56-.385.628.628 0 01-.045-.239.63.63 0 01.37-.58.57.57 0 01.658.14z"/><path fill-rule="evenodd" clip-rule="evenodd" d="M0 43h7V27.473L0 24v19z"/><path fill-rule="evenodd" clip-rule="evenodd" d="M10.495 43H17V21.265L0 12v7.269l10.495 5.721V43z"/><path fill-rule="evenodd" clip-rule="evenodd" d="M20.495 43H27V15.192L10 6v7.21l10.495 5.68V43z"/><path fill-rule="evenodd" clip-rule="evenodd" d="M31.491 43H38V9.165L21 0v7.19l10.491 5.66V43z"/></g></svg>