<svg width="250" height="57" fill="none" xmlns="http://www.w3.org/2000/svg"><path d="M63.869 9h-6.451v13.24h-.089L52.466 9h-6.894l6.056 13.992L45 40h7.16l5.17-13.24h.088V40h6.45V26.76h.09L69.127 40h7.159l-6.629-17.008L75.715 9H68.82l-4.863 13.24h-.088V9zm29.569 0H77.703v31h12.642l4.68-4.518v-9.433l-4.68-4.518h-6.191v-6.688h9.284V9zm-9.284 18.38h4.42v6.765h-4.42V27.38zM98.649 9v31h5.619l5.081-15.967h.089V40h6.451V9h-5.583l-5.082 15.967h-.089V9h-6.486zm47.865 4.518L141.834 9H129.9v31h6.451V29.633h5.483l4.68-4.512V13.518zm-6.451 1.325v8.947h-3.712v-8.947h3.712zm26.164-1.325L161.541 9h-7.95l-4.686 4.518v21.964L153.591 40h7.95l4.686-4.518V13.518zm-6.451 1.325v19.302h-4.42V14.843h4.42zm27.492-1.325L182.581 9h-7.944l-4.721 4.518v21.964L174.637 40h7.956l4.686-4.518v-8.723h-6.468v7.386h-4.403V14.843h4.415v6.026h6.445v-7.35zm20.946 0L203.557 9h-7.979l-4.687 4.518v21.964L195.578 40h7.979l4.686-4.518v-8.723h-6.456v7.386h-4.421V14.843h4.421v6.026h6.45v-7.35h-.023zM211.82 9v31h5.613l5.087-15.967h.083V40h6.457V9h-5.613l-5.082 15.967h-.053V9h-6.492zm20.952 0v31h5.607l5.082-15.967h.088V40H250V9h-5.613l-5.081 15.967h-.089V9h-6.445zM97.571 52.473a2.15 2.15 0 00-.294 2.754c.283.422.707.734 1.199.883a2.256 2.256 0 001.497-.066c.477-.19.871-.538 1.115-.983.244-.444.324-.959.225-1.454a2.175 2.175 0 00-.767-1.264 2.248 2.248 0 00-1.41-.498 2.125 2.125 0 00-1.565.628zm-.67 3.652a2.985 2.985 0 01-.667-.973 2.942 2.942 0 01.668-3.273 3.293 3.293 0 012.23-.866c.83 0 1.628.31 2.232.867a2.97 2.97 0 01.902 2.122 2.97 2.97 0 01-.902 2.123 3.292 3.292 0 01-2.231.867 3.29 3.29 0 01-2.231-.867zm10.669-5.112c.292 0 .583.038.865.116.241.061.473.155.687.28.178.116.338.22.475.33.105.087.204.18.296.28l.089.116-.593.582a.66.66 0 00-.071-.087 1.592 1.592 0 00-.213-.215 2.02 2.02 0 00-.872-.471 2.222 2.222 0 00-.663-.1 2.2 2.2 0 00-1.559.629c-.204.2-.366.44-.476.702-.11.262-.166.544-.164.828a2.1 2.1 0 00.635 1.536c.204.202.448.361.717.469.269.107.556.161.847.158a2.23 2.23 0 00.663-.093c.187-.05.365-.13.528-.233a3.31 3.31 0 00.367-.261c.085-.07.164-.146.237-.227l.066-.105.592.582-.1.128a3.602 3.602 0 01-.303.279 3.53 3.53 0 01-.498.349 2.84 2.84 0 01-.687.28 3.279 3.279 0 01-1.651.03 3.238 3.238 0 01-1.449-.775 3 3 0 01-.667-.973 2.936 2.936 0 010-2.3 3 3 0 011.692-1.63c.382-.148.792-.22 1.204-.21l.006.006zm9.607.081v5.817h-.931v-2.536h-2.922v2.536h-.93v-5.817h.93v2.455h2.922v-2.455h.931zm4.101 1.379a2.151 2.151 0 00-.294 2.754c.283.422.707.734 1.199.883a2.26 2.26 0 001.497-.066 2.206 2.206 0 001.115-.983c.244-.444.324-.959.225-1.454a2.175 2.175 0 00-.767-1.264 2.247 2.247 0 00-1.41-.498 2.158 2.158 0 00-1.565.628zm-.67 3.652a2.954 2.954 0 01-.667-3.273 3 3 0 01.667-.973 3.296 3.296 0 012.232-.866c.829 0 1.627.31 2.231.867a2.97 2.97 0 01.902 2.122 2.97 2.97 0 01-.902 2.123 3.292 3.292 0 01-2.231.867c-.829 0-1.627-.31-2.232-.867zm10.437.786h-2.512v-5.817h2.43c.454-.004.893.162 1.226.466a1.415 1.415 0 01.51 1.07c0 .223-.05.444-.148.645a1.263 1.263 0 01-.291.402l-.154.122.095.052c.036 0 .113.082.214.169.102.081.194.175.272.28.086.124.155.259.208.4.066.163.1.337.1.512a1.604 1.604 0 01-.545 1.198 1.928 1.928 0 01-1.363.5h-.042zm-1.606-.791h1.606a.97.97 0 00.697-.272.917.917 0 00.281-.682.917.917 0 00-.281-.682.95.95 0 00-.697-.272h-1.606v1.908zm1.482-4.235h-1.482v1.582h1.524a.813.813 0 00.569-.231.781.781 0 000-1.119.813.813 0 00-.569-.232h-.042zm3.716 5.026l2.454-5.817h.984l2.453 5.817h-.972l-.64-1.536h-2.619l-.641 1.536h-1.019zm2.922-4.776l-.972 2.408h1.944l-.972-2.408zm9.904-1.04v5.816h-.931v-2.536h-2.922v2.536h-.93v-5.817h.93v2.455h2.922v-2.455h.931zm8.789 5.816h-2.537v-5.817h2.412c.455-.004.894.162 1.227.466a1.433 1.433 0 01.071 2.117l-.154.122.089.052.22.169c.102.081.194.175.272.28.084.125.153.26.208.4.066.163.1.337.1.512a1.586 1.586 0 01-.551 1.198 1.894 1.894 0 01-1.357.5zm-1.582-.791h1.606a.975.975 0 00.694-.274.933.933 0 00.284-.68.935.935 0 00-.602-.888.968.968 0 00-.376-.066h-1.606v1.908zm1.481-4.235h-1.481v1.582h1.481a.813.813 0 00.57-.231.784.784 0 000-1.119.813.813 0 00-.57-.232zm11.374 5.026h-3.936c-.004-.333.05-.663.16-.977a2.29 2.29 0 01.439-.733c.18-.197.378-.376.593-.535a7.91 7.91 0 01.634-.442c.213-.134.409-.268.592-.396a1.75 1.75 0 00.433-.46 1.07 1.07 0 00.166-.581.89.89 0 00-.279-.698 1.139 1.139 0 00-.782-.256 1.2 1.2 0 00-.456.087.997.997 0 00-.332.21 3.995 3.995 0 00-.208.238c-.047.067-.086.14-.118.215l-.03.082-.758-.332a.82.82 0 01.047-.145 2.171 2.171 0 01.504-.721 1.78 1.78 0 01.551-.32c.255-.099.526-.148.8-.146a2.042 2.042 0 011.434.518 1.684 1.684 0 01.557 1.268 1.827 1.827 0 01-.586 1.32 6.909 6.909 0 01-.593.471c-.231.163-.433.308-.64.442-.212.14-.411.3-.593.477a2.097 2.097 0 00-.462.582h2.88v.832h-.017zm2.922-.733a3.636 3.636 0 010-4.35 2.29 2.29 0 01.795-.607 2.34 2.34 0 012.761.606c.47.632.723 1.393.723 2.175 0 .782-.253 1.544-.723 2.176a2.34 2.34 0 01-3.556 0zm2.88-.582a2.99 2.99 0 000-3.17 1.335 1.335 0 00-.481-.423 1.36 1.36 0 00-1.736.423 2.99 2.99 0 000 3.17c.123.178.288.323.481.424a1.365 1.365 0 001.255 0c.193-.101.358-.246.481-.424zm4.309.582a3.643 3.643 0 01-.724-2.175c0-.783.254-1.544.724-2.176a2.31 2.31 0 01.796-.604 2.346 2.346 0 012.76.604c.47.632.723 1.393.723 2.175 0 .782-.253 1.544-.723 2.176a2.312 2.312 0 01-.796.604 2.352 2.352 0 01-1.964 0 2.302 2.302 0 01-.796-.604zm2.88-.582a2.955 2.955 0 000-3.17 1.33 1.33 0 00-1.105-.576 1.353 1.353 0 00-1.106.576 2.955 2.955 0 000 3.17c.123.178.287.323.48.424a1.353 1.353 0 001.731-.424zm6.46-1.163a1.197 1.197 0 00-.835-.314 1.198 1.198 0 00-.842.314.945.945 0 00-.344.721.945.945 0 00.344.727c.227.21.53.322.842.314.309.007.609-.106.835-.314a.95.95 0 00.35-.727.948.948 0 00-.35-.721zm-.166-2.443a.945.945 0 00-.669-.244.941.941 0 00-.67.244.778.778 0 00-.267.582.765.765 0 00.267.581.927.927 0 00.67.239.947.947 0 00.669-.239.779.779 0 000-1.163zm-1.914-.5a1.797 1.797 0 011.268-.477 1.768 1.768 0 011.257.477 1.458 1.458 0 01.462 1.506c-.034.113-.084.22-.148.32-.055.077-.114.15-.178.221a.69.69 0 01-.154.134l-.053.047.089.063c.072.057.141.117.207.18a2.513 2.513 0 01.415.693c.059.16.089.33.089.5a1.686 1.686 0 01-.593 1.291c-.395.36-.919.553-1.458.535a2.01 2.01 0 01-1.446-.535 1.689 1.689 0 01-.593-1.29 1.56 1.56 0 01.208-.769c.109-.2.253-.379.426-.529l.214-.151a1.167 1.167 0 01-.166-.128 1.7 1.7 0 01-.267-.372 1.296 1.296 0 01-.166-.623 1.436 1.436 0 01.516-1.105l.071.012zm7.521 5.42v-5.816h3.811v.832h-2.88v4.985h-.931zm5.417-.831a.518.518 0 01.001.755.562.562 0 01-.777.001.52.52 0 01-.16-.378.5.5 0 01.16-.378.532.532 0 01.388-.162.552.552 0 01.388.162z" fill="#504F54"/><path fill-rule="evenodd" clip-rule="evenodd" d="M0 39h6V25.107L0 22v17z" fill="#504F54"/><path fill-rule="evenodd" clip-rule="evenodd" d="M9.878 39H16V19.368L0 11v6.565l9.878 5.168V39z" fill="#504F54"/><path fill-rule="evenodd" clip-rule="evenodd" d="M19.878 40H26V14.447L10 6v6.626l9.878 5.22V40z" fill="#504F54"/><path fill-rule="evenodd" clip-rule="evenodd" d="M28.874 40H35V8.526L19 0v6.689l9.874 5.264V40z" fill="#504F54"/></svg>