<svg width="365" height="350" fill="none" xmlns="http://www.w3.org/2000/svg"><path d="M18.939 0h74.894c9.469 0 18.077 7.737 18.077 17.194v71.355c0 9.456-8.608 18.053-18.938 18.053H18.939C8.609 107.462 0 98.865 0 89.408V17.194C0 7.737 8.608 0 18.939 0zm0 121.217h74.894c10.33 0 18.938 7.738 18.938 18.054v71.355c0 9.456-8.608 18.053-18.939 18.053H18.94C8.609 228.679 0 220.082 0 210.626v-71.355c0-10.316 8.608-18.054 18.939-18.054zm0 121.217h74.894c10.33 0 18.938 7.737 18.938 18.054v71.355c0 9.456-8.608 18.053-18.939 18.053H18.94C8.609 349.896 0 342.159 0 331.843v-71.355c0-10.317 8.608-18.054 18.939-18.054zm125.684-121.217h74.894c10.33 0 18.938 7.738 18.938 18.054v71.355c0 9.456-8.608 18.053-18.938 18.053h-74.894c-10.331 0-18.939-7.737-18.939-18.053v-71.355c.861-10.316 8.608-18.054 18.939-18.054zm0 121.217h74.894c10.33 0 18.938 7.737 18.938 18.054v71.355c0 9.456-8.608 18.053-18.938 18.053h-74.894c-10.331 0-18.939-7.737-18.939-18.053v-71.355c.861-10.317 8.608-18.054 18.939-18.054zm126.544 0h74.894c10.331 0 18.939 7.737 18.939 18.054v71.355c0 9.456-8.608 18.053-18.939 18.053h-74.894c-10.33 0-18.938-7.737-18.938-18.053v-71.355c0-10.317 8.608-18.054 18.938-18.054z" opacity=".5" fill-rule="evenodd" clip-rule="evenodd" fill="#EFF5F8"/></svg>