<svg width="51" height="42" fill="none" xmlns="http://www.w3.org/2000/svg"><g filter="url(#filter0_i_94_21263)"><path d="M.96 8c0-3.771 0-5.657 1.173-6.828C3.304 0 5.19 0 8.96 0h34c3.771 0 5.657 0 6.828 1.172C50.961 2.343 50.961 4.229 50.961 8v9c0 3.771 0 5.657-1.172 6.828C48.618 25 46.732 25 42.961 25h-34c-3.771 0-5.657 0-6.828-1.172C.96 22.657.96 20.771.96 17V8z" fill="#002B45"/></g><g filter="url(#filter1_i_94_21263)"><path d="M2.477 7.875c0-2.828 0-4.243.878-5.121.879-.879 2.293-.879 5.122-.879h34.97c2.828 0 4.242 0 5.12.879.88.878.88 2.293.88 5.121v9.25c0 2.828 0 4.243-.88 5.121-.878.879-2.292.879-5.12.879H8.476c-2.829 0-4.243 0-5.122-.879-.878-.878-.878-2.293-.878-5.121v-9.25z" fill="#2C66F6"/></g><path d="M26.95 35.143c-.164 1.143-1.814 1.143-1.979 0l-1.443-10a1 1 0 01.99-1.143h2.886a1 1 0 01.99 1.143l-1.443 10z" fill="#002B45"/><path d="M22.48 9.378l-1.562 2.068c.572.132 1.026.396 1.364.792.344.389.517.865.517 1.43 0 .77-.26 1.375-.781 1.815-.514.44-1.152.66-1.914.66-.602 0-1.133-.136-1.595-.407a2.324 2.324 0 01-.99-1.188l1.078-.627c.227.66.73.99 1.507.99.44 0 .788-.11 1.045-.33.256-.227.385-.532.385-.913s-.129-.682-.385-.902c-.257-.22-.605-.33-1.045-.33h-.286l-.506-.759 1.66-2.189H17.75V8.3h4.73v1.078zm4.257 3.806L28.794 16H27.42l-1.364-1.881L24.68 16h-1.386l2.068-2.827-1.958-2.673h1.375l1.265 1.738L27.31 10.5h1.386l-1.958 2.684zm4.807-2.299h.143c.807 0 1.46.246 1.958.737.506.484.76 1.115.76 1.892 0 .77-.254 1.404-.76 1.903-.506.484-1.159.726-1.958.726-.807 0-1.463-.242-1.969-.726-.506-.499-.759-1.133-.759-1.903 0-.587.154-1.104.462-1.551L31.863 8.3h1.441l-1.76 2.585zm.143 4.059c.425 0 .774-.128 1.045-.385.271-.264.407-.612.407-1.045 0-.433-.136-.777-.407-1.034-.271-.264-.62-.396-1.045-.396-.44 0-.796.132-1.067.396-.264.257-.396.601-.396 1.034 0 .433.132.781.396 1.045.271.257.627.385 1.067.385z" fill="#fff"/><defs><filter id="filter0_i_94_21263" x=".961" y="0" width="50" height="25.284" filterUnits="userSpaceOnUse" color-interpolation-filters="sRGB"><feFlood flood-opacity="0" result="BackgroundImageFix"/><feBlend in="SourceGraphic" in2="BackgroundImageFix" result="shape"/><feColorMatrix in="SourceAlpha" values="0 0 0 0 0 0 0 0 0 0 0 0 0 0 0 0 0 0 127 0" result="hardAlpha"/><feOffset dy=".284"/><feGaussianBlur stdDeviation="1.707"/><feComposite in2="hardAlpha" operator="arithmetic" k2="-1" k3="1"/><feColorMatrix values="0 0 0 0 0 0 0 0 0 0.0830918 0 0 0 0 0.133333 0 0 0 0.59 0"/><feBlend in2="shape" result="effect1_innerShadow_94_21263"/></filter><filter id="filter1_i_94_21263" x="2.477" y="1.875" width="46.969" height="21.534" filterUnits="userSpaceOnUse" color-interpolation-filters="sRGB"><feFlood flood-opacity="0" result="BackgroundImageFix"/><feBlend in="SourceGraphic" in2="BackgroundImageFix" result="shape"/><feColorMatrix in="SourceAlpha" values="0 0 0 0 0 0 0 0 0 0 0 0 0 0 0 0 0 0 127 0" result="hardAlpha"/><feOffset dy=".284"/><feGaussianBlur stdDeviation="3.236"/><feComposite in2="hardAlpha" operator="arithmetic" k2="-1" k3="1"/><feColorMatrix values="0 0 0 0 0.0902778 0 0 0 0 0.313201 0 0 0 0 0.866667 0 0 0 1 0"/><feBlend in2="shape" result="effect1_innerShadow_94_21263"/></filter></defs></svg>