<svg width="36" height="42" fill="none" xmlns="http://www.w3.org/2000/svg"><g filter="url(#filter0_i_94_21280)"><path d="M0 8c0-3.771 0-5.657 1.172-6.828C2.343 0 4.229 0 8 0h19.63c3.77 0 5.656 0 6.828 1.172C35.63 2.343 35.63 4.229 35.63 8v10c0 3.771 0 5.657-1.172 6.828C33.286 26 31.401 26 27.63 26H8c-3.771 0-5.657 0-6.828-1.172C0 23.657 0 21.771 0 18V8z" fill="#002B45"/></g><g filter="url(#filter1_i_94_21280)"><rect x="2" y="2" width="32" height="22" rx="1.991" fill="#FF69C3"/></g><path d="M18.99 35.143c-.165 1.143-1.815 1.143-1.98 0l-1.443-10a1 1 0 01.99-1.143h2.886a1 1 0 01.99 1.143l-1.443 10z" fill="#002B45"/><path d="M7.48 16.143c-.74 0-1.37-.165-1.891-.495a2.665 2.665 0 01-1.078-1.397l1.089-.638c.308.865.946 1.298 1.914 1.298.47 0 .825-.092 1.067-.275a.878.878 0 00.363-.737.807.807 0 00-.385-.715c-.257-.169-.711-.352-1.364-.55-.667-.198-1.206-.433-1.617-.704-.499-.352-.748-.869-.748-1.551 0-.682.242-1.221.726-1.617.477-.403 1.06-.605 1.749-.605.609 0 1.144.15 1.606.451.47.293.829.708 1.078 1.243l-1.067.616c-.323-.719-.862-1.078-1.617-1.078-.367 0-.66.088-.88.264-.22.169-.33.4-.33.693 0 .286.11.513.33.682.22.161.627.334 1.221.517.367.125.58.198.638.22.095.03.286.103.572.22.235.095.422.198.561.308.572.447.836.975.792 1.584 0 .697-.253 1.25-.76 1.661-.49.403-1.147.605-1.968.605zm6.488 0c-.829 0-1.521-.279-2.079-.836-.55-.565-.825-1.25-.825-2.057 0-.821.275-1.507.825-2.057.558-.557 1.25-.836 2.08-.836a2.85 2.85 0 011.462.385c.44.257.77.601.99 1.034l-1.023.594a1.367 1.367 0 00-.572-.616 1.62 1.62 0 00-.869-.231c-.484 0-.89.165-1.22.495a1.716 1.716 0 00-.485 1.232c0 .484.162.895.484 1.232.33.33.737.495 1.221.495.323 0 .612-.073.87-.22.263-.154.461-.363.593-.627l1.023.583c-.235.44-.576.788-1.023 1.045a2.83 2.83 0 01-1.452.385zm4.554-5.643v.924c.3-.682.865-1.023 1.694-1.023v1.287c-.447-.03-.843.08-1.188.33-.337.242-.506.645-.506 1.21V16h-1.188v-5.5h1.188zm6.967 4.807c-.557.557-1.243.836-2.057.836-.814 0-1.5-.279-2.057-.836a2.8 2.8 0 01-.847-2.057 2.8 2.8 0 01.847-2.057c.557-.557 1.243-.836 2.057-.836.814 0 1.5.279 2.057.836a2.8 2.8 0 01.847 2.057 2.8 2.8 0 01-.847 2.057zm-3.773-2.057c0 .499.165.913.495 1.243.33.33.737.495 1.221.495.484 0 .891-.165 1.221-.495.33-.33.495-.744.495-1.243 0-.499-.165-.913-.495-1.243a1.659 1.659 0 00-1.22-.495 1.66 1.66 0 00-1.222.495c-.33.33-.495.744-.495 1.243zM28.598 16H27.41V7.97h1.188V16zm2.568 0h-1.188V7.97h1.188V16z" fill="#fff"/><defs><filter id="filter0_i_94_21280" x="0" y="0" width="35.629" height="26.284" filterUnits="userSpaceOnUse" color-interpolation-filters="sRGB"><feFlood flood-opacity="0" result="BackgroundImageFix"/><feBlend in="SourceGraphic" in2="BackgroundImageFix" result="shape"/><feColorMatrix in="SourceAlpha" values="0 0 0 0 0 0 0 0 0 0 0 0 0 0 0 0 0 0 127 0" result="hardAlpha"/><feOffset dy=".284"/><feGaussianBlur stdDeviation="1.707"/><feComposite in2="hardAlpha" operator="arithmetic" k2="-1" k3="1"/><feColorMatrix values="0 0 0 0 0 0 0 0 0 0.0830918 0 0 0 0 0.133333 0 0 0 0.59 0"/><feBlend in2="shape" result="effect1_innerShadow_94_21280"/></filter><filter id="filter1_i_94_21280" x="2" y="2" width="32" height="22.284" filterUnits="userSpaceOnUse" color-interpolation-filters="sRGB"><feFlood flood-opacity="0" result="BackgroundImageFix"/><feBlend in="SourceGraphic" in2="BackgroundImageFix" result="shape"/><feColorMatrix in="SourceAlpha" values="0 0 0 0 0 0 0 0 0 0 0 0 0 0 0 0 0 0 127 0" result="hardAlpha"/><feOffset dy=".284"/><feGaussianBlur stdDeviation="3.236"/><feComposite in2="hardAlpha" operator="arithmetic" k2="-1" k3="1"/><feColorMatrix values="0 0 0 0 0.7625 0 0 0 0 0 0 0 0 0 0.4575 0 0 0 1 0"/><feBlend in2="shape" result="effect1_innerShadow_94_21280"/></filter></defs></svg>