<svg width="79" height="56" fill="none" xmlns="http://www.w3.org/2000/svg"><g filter="url(#filter0_i_94_21253)"><rect x=".961" y="13" width="78" height="26" rx="3.2" fill="#002B45"/></g><g filter="url(#filter1_i_94_21253)"><rect x="3.316" y="14.953" width="73.273" height="22.1" rx="1.991" fill="#AB76ED"/></g><path d="M40.95 49.143c-.164 1.143-1.814 1.143-1.979 0l-1.443-10a1 1 0 01.99-1.143h2.886a1 1 0 01.99 1.143l-1.443 10z" fill="#002B45"/><path d="M28.41 29.143c-.74 0-1.37-.165-1.891-.495a2.666 2.666 0 01-1.078-1.397l1.089-.638c.308.865.946 1.298 1.914 1.298.469 0 .825-.092 1.067-.275a.878.878 0 00.363-.737.807.807 0 00-.385-.715c-.257-.169-.712-.352-1.364-.55-.668-.198-1.207-.433-1.617-.704-.499-.352-.748-.869-.748-1.551 0-.682.242-1.221.726-1.617.476-.403 1.06-.605 1.749-.605.608 0 1.144.15 1.606.451.469.293.828.708 1.078 1.243l-1.067.616c-.323-.719-.862-1.078-1.617-1.078-.367 0-.66.088-.88.264-.22.169-.33.4-.33.693 0 .286.11.513.33.682.22.161.627.334 1.22.517.367.125.58.198.639.22.095.03.286.103.572.22.234.095.421.198.56.308.573.447.837.975.793 1.584 0 .697-.253 1.25-.76 1.661-.49.403-1.147.605-1.968.605zm7.46-2.695V23.5h1.187V29H35.87v-.704c-.366.565-.935.847-1.705.847-.638 0-1.151-.202-1.54-.605-.381-.41-.572-.964-.572-1.661V23.5h1.188v3.256c0 .41.11.726.33.946.22.22.52.33.902.33.433 0 .774-.132 1.023-.396.25-.271.374-.667.374-1.188zm5.69-3.091c.747 0 1.393.282 1.935.847.536.557.803 1.24.803 2.046 0 .814-.267 1.5-.803 2.057-.535.557-1.18.836-1.936.836-.828 0-1.47-.308-1.925-.924V31.2h-1.188v-7.7h1.188v.792c.448-.623 1.09-.935 1.925-.935zm-1.43 4.158c.33.33.744.495 1.242.495.5 0 .913-.165 1.243-.495.33-.337.495-.759.495-1.265 0-.506-.165-.924-.495-1.254-.33-.337-.744-.506-1.243-.506-.498 0-.913.169-1.243.506-.33.33-.495.748-.495 1.254 0 .499.165.92.495 1.265zm10.558-.759H46.31c.088.41.286.73.594.957.315.227.704.341 1.166.341.623 0 1.096-.227 1.42-.682l.978.572c-.535.8-1.338 1.199-2.409 1.199-.887 0-1.61-.271-2.167-.814-.55-.55-.825-1.243-.825-2.079 0-.814.272-1.5.814-2.057.535-.557 1.232-.836 2.09-.836.8 0 1.46.282 1.98.847s.781 1.25.781 2.057c0 .147-.014.312-.044.495zm-4.389-.968h3.234c-.08-.433-.264-.766-.55-1.001-.278-.235-.62-.352-1.023-.352-.44 0-.806.121-1.1.363-.293.242-.48.572-.56.99zm6.666-2.288v.924c.301-.682.866-1.023 1.694-1.023v1.287c-.447-.03-.843.08-1.188.33-.337.242-.505.645-.505 1.21V29h-1.188v-5.5h1.188z" fill="#fff"/><rect x="16.961" width="46" height="17" rx="8" fill="#2F80ED"/><path d="M24.06 4.3h3.024c1.056 0 1.932.37 2.63 1.111.703.74 1.055 1.654 1.055 2.739 0 1.078-.352 1.991-1.056 2.739-.697.74-1.573 1.111-2.629 1.111H24.06V4.3zm1.264 6.49h1.76c.726 0 1.316-.25 1.771-.748.462-.499.693-1.13.693-1.892 0-.763-.23-1.393-.693-1.892-.455-.499-1.045-.748-1.77-.748h-1.76v5.28zm7.643-5.335a.72.72 0 01-.528.22.757.757 0 01-.539-.22.757.757 0 01-.22-.539.72.72 0 01.22-.528.716.716 0 01.54-.231c.212 0 .392.077.538.231a.72.72 0 01.22.528.739.739 0 01-.23.539zM33.033 12h-1.188V6.5h1.188V12zm5.758-4.686V6.5h1.166v5.247c0 .836-.275 1.478-.825 1.925-.543.447-1.21.671-2.002.671-1.269 0-2.138-.444-2.607-1.331l1.023-.594c.286.565.821.847 1.606.847.513 0 .913-.136 1.199-.407.293-.264.44-.634.44-1.111v-.671c-.448.638-1.086.957-1.914.957-.77 0-1.427-.275-1.97-.825a2.802 2.802 0 01-.802-2.013c0-.792.267-1.46.803-2.002a2.624 2.624 0 011.969-.836c.828 0 1.466.319 1.914.957zm-3.003 3.113c.337.33.755.495 1.254.495.498 0 .913-.165 1.243-.495.337-.33.506-.74.506-1.232 0-.491-.169-.902-.506-1.232-.33-.33-.745-.495-1.243-.495-.499 0-.917.165-1.254.495-.33.33-.495.74-.495 1.232 0 .491.165.902.495 1.232zm6.675-4.972a.72.72 0 01-.528.22.757.757 0 01-.539-.22.757.757 0 01-.22-.539.72.72 0 01.22-.528.716.716 0 01.54-.231c.212 0 .392.077.538.231a.72.72 0 01.22.528.739.739 0 01-.23.539zM42.53 12h-1.188V6.5h1.188V12zm4.449-5.5v1.144h-1.364v2.64c0 .227.051.392.154.495.102.095.253.15.45.165.206.007.46.004.76-.011V12c-.91.11-1.562.033-1.958-.231-.396-.271-.594-.766-.594-1.485v-2.64h-1.012V6.5h1.012V5.312l1.188-.352V6.5h1.364zm5.208.781V6.5h1.188V12h-1.188v-.792c-.448.623-1.09.935-1.925.935-.756 0-1.4-.279-1.936-.836-.536-.557-.803-1.243-.803-2.057 0-.814.267-1.5.803-2.057.535-.557 1.18-.836 1.936-.836.836 0 1.477.308 1.925.924zm-2.981 3.234c.33.33.744.495 1.243.495.498 0 .913-.165 1.243-.495.33-.337.495-.759.495-1.265 0-.506-.165-.924-.495-1.254-.33-.337-.745-.506-1.243-.506-.499 0-.913.169-1.243.506-.33.33-.495.748-.495 1.254 0 .499.165.92.495 1.265zM55.946 12h-1.188V3.97h1.188V12z" fill="#fff"/><defs><filter id="filter0_i_94_21253" x=".961" y="13" width="78" height="26.284" filterUnits="userSpaceOnUse" color-interpolation-filters="sRGB"><feFlood flood-opacity="0" result="BackgroundImageFix"/><feBlend in="SourceGraphic" in2="BackgroundImageFix" result="shape"/><feColorMatrix in="SourceAlpha" values="0 0 0 0 0 0 0 0 0 0 0 0 0 0 0 0 0 0 127 0" result="hardAlpha"/><feOffset dy=".284"/><feGaussianBlur stdDeviation="1.707"/><feComposite in2="hardAlpha" operator="arithmetic" k2="-1" k3="1"/><feColorMatrix values="0 0 0 0 0 0 0 0 0 0.0830918 0 0 0 0 0.133333 0 0 0 0.59 0"/><feBlend in2="shape" result="effect1_innerShadow_94_21253"/></filter><filter id="filter1_i_94_21253" x="3.316" y="14.953" width="73.273" height="22.384" filterUnits="userSpaceOnUse" color-interpolation-filters="sRGB"><feFlood flood-opacity="0" result="BackgroundImageFix"/><feBlend in="SourceGraphic" in2="BackgroundImageFix" result="shape"/><feColorMatrix in="SourceAlpha" values="0 0 0 0 0 0 0 0 0 0 0 0 0 0 0 0 0 0 127 0" result="hardAlpha"/><feOffset dy=".284"/><feGaussianBlur stdDeviation="3.236"/><feComposite in2="hardAlpha" operator="arithmetic" k2="-1" k3="1"/><feColorMatrix values="0 0 0 0 0.488313 0 0 0 0 0.173802 0 0 0 0 0.8875 0 0 0 1 0"/><feBlend in2="shape" result="effect1_innerShadow_94_21253"/></filter></defs></svg>