<svg width="51" height="57" fill="none" xmlns="http://www.w3.org/2000/svg"><g filter="url(#filter0_i_94_21270)"><path d="M.96 23c0-3.771 0-5.657 1.173-6.828C3.304 15 5.19 15 8.96 15h34c3.771 0 5.657 0 6.828 1.172C50.96 17.343 50.96 19.229 50.96 23v9c0 3.771 0 5.657-1.172 6.828C48.618 40 46.732 40 42.961 40h-34c-3.771 0-5.657 0-6.828-1.172C.96 37.657.96 35.771.96 32v-9z" fill="#002B45"/></g><g filter="url(#filter1_i_94_21270)"><rect x="2.477" y="16.875" width="46.97" height="21.25" rx="3" fill="#FF8957"/></g><path d="M26.95 50.143c-.164 1.143-1.814 1.143-1.979 0l-1.443-10a1 1 0 01.99-1.143h2.886a1 1 0 01.99 1.143l-1.443 10z" fill="#002B45"/><path d="M22.48 24.378l-1.562 2.068c.572.132 1.026.396 1.364.792.344.389.517.865.517 1.43 0 .77-.26 1.375-.781 1.815-.514.44-1.152.66-1.914.66-.602 0-1.133-.136-1.595-.407a2.324 2.324 0 01-.99-1.188l1.078-.627c.227.66.73.99 1.507.99.44 0 .788-.11 1.045-.33.256-.227.385-.532.385-.913s-.129-.682-.385-.902c-.257-.22-.605-.33-1.045-.33h-.286l-.506-.759 1.66-2.189H17.75V23.3h4.73v1.078zm4.257 3.806L28.794 31H27.42l-1.364-1.881L24.68 31h-1.386l2.068-2.827-1.958-2.673h1.375l1.265 1.738L27.31 25.5h1.386l-1.958 2.684zm4.807-2.299h.143c.807 0 1.46.246 1.958.737.506.484.76 1.115.76 1.892 0 .77-.254 1.404-.76 1.903-.506.484-1.159.726-1.958.726-.807 0-1.463-.242-1.969-.726-.506-.499-.759-1.133-.759-1.903 0-.587.154-1.104.462-1.551l2.442-3.663h1.441l-1.76 2.585zm.143 4.059c.425 0 .774-.128 1.045-.385.271-.264.407-.612.407-1.045 0-.433-.136-.777-.407-1.034-.271-.264-.62-.396-1.045-.396-.44 0-.796.132-1.067.396-.264.257-.396.601-.396 1.034 0 .433.132.781.396 1.045.271.257.627.385 1.067.385z" fill="#fff"/><rect x="3" width="46" height="17" rx="8" fill="#2F80ED"/><path d="M10.098 4.3h3.025c1.056 0 1.933.37 2.63 1.111.703.74 1.055 1.654 1.055 2.739 0 1.078-.352 1.991-1.056 2.739-.697.74-1.573 1.111-2.629 1.111h-3.025V4.3zm1.265 6.49h1.76c.726 0 1.317-.25 1.771-.748.462-.499.693-1.13.693-1.892 0-.763-.23-1.393-.693-1.892-.454-.499-1.045-.748-1.77-.748h-1.76v5.28zm7.643-5.335a.72.72 0 01-.528.22.757.757 0 01-.539-.22.757.757 0 01-.22-.539.72.72 0 01.22-.528.716.716 0 01.54-.231c.212 0 .392.077.538.231a.72.72 0 01.22.528.739.739 0 01-.23.539zM19.072 12h-1.188V6.5h1.188V12zm5.758-4.686V6.5h1.166v5.247c0 .836-.275 1.478-.825 1.925-.543.447-1.21.671-2.002.671-1.269 0-2.138-.444-2.607-1.331l1.023-.594c.286.565.821.847 1.606.847.513 0 .913-.136 1.199-.407.293-.264.44-.634.44-1.111v-.671c-.447.638-1.085.957-1.914.957-.77 0-1.427-.275-1.97-.825a2.802 2.802 0 01-.802-2.013c0-.792.268-1.46.803-2.002a2.624 2.624 0 011.969-.836c.828 0 1.466.319 1.914.957zm-3.003 3.113c.337.33.755.495 1.254.495.498 0 .913-.165 1.243-.495.337-.33.506-.74.506-1.232 0-.491-.169-.902-.506-1.232-.33-.33-.745-.495-1.243-.495-.499 0-.917.165-1.254.495-.33.33-.495.74-.495 1.232 0 .491.165.902.495 1.232zm6.675-4.972a.72.72 0 01-.527.22.757.757 0 01-.54-.22.757.757 0 01-.22-.539.72.72 0 01.22-.528.716.716 0 01.54-.231c.212 0 .392.077.538.231a.72.72 0 01.22.528.739.739 0 01-.23.539zM28.57 12h-1.19V6.5h1.188V12zm4.448-5.5v1.144h-1.364v2.64c0 .227.051.392.154.495.103.095.253.15.45.165.206.007.46.004.76-.011V12c-.91.11-1.562.033-1.958-.231-.396-.271-.594-.766-.594-1.485v-2.64h-1.012V6.5h1.012V5.312l1.188-.352V6.5h1.364zm5.208.781V6.5h1.188V12h-1.188v-.792c-.448.623-1.09.935-1.925.935-.756 0-1.4-.279-1.936-.836-.536-.557-.803-1.243-.803-2.057 0-.814.267-1.5.803-2.057.535-.557 1.18-.836 1.936-.836.836 0 1.477.308 1.925.924zm-2.981 3.234c.33.33.744.495 1.243.495.498 0 .913-.165 1.243-.495.33-.337.495-.759.495-1.265 0-.506-.165-.924-.495-1.254-.33-.337-.745-.506-1.243-.506-.499 0-.913.169-1.243.506-.33.33-.495.748-.495 1.254 0 .499.165.92.495 1.265zM41.986 12h-1.188V3.97h1.188V12z" fill="#fff"/><defs><filter id="filter0_i_94_21270" x=".961" y="15" width="50" height="25.284" filterUnits="userSpaceOnUse" color-interpolation-filters="sRGB"><feFlood flood-opacity="0" result="BackgroundImageFix"/><feBlend in="SourceGraphic" in2="BackgroundImageFix" result="shape"/><feColorMatrix in="SourceAlpha" values="0 0 0 0 0 0 0 0 0 0 0 0 0 0 0 0 0 0 127 0" result="hardAlpha"/><feOffset dy=".284"/><feGaussianBlur stdDeviation="1.707"/><feComposite in2="hardAlpha" operator="arithmetic" k2="-1" k3="1"/><feColorMatrix values="0 0 0 0 0 0 0 0 0 0.0830918 0 0 0 0 0.133333 0 0 0 0.59 0"/><feBlend in2="shape" result="effect1_innerShadow_94_21270"/></filter><filter id="filter1_i_94_21270" x="2.477" y="16.875" width="46.969" height="21.534" filterUnits="userSpaceOnUse" color-interpolation-filters="sRGB"><feFlood flood-opacity="0" result="BackgroundImageFix"/><feBlend in="SourceGraphic" in2="BackgroundImageFix" result="shape"/><feColorMatrix in="SourceAlpha" values="0 0 0 0 0 0 0 0 0 0 0 0 0 0 0 0 0 0 127 0" result="hardAlpha"/><feOffset dy=".284"/><feGaussianBlur stdDeviation="3.236"/><feComposite in2="hardAlpha" operator="arithmetic" k2="-1" k3="1"/><feColorMatrix values="0 0 0 0 0.983333 0 0 0 0 0.236 0 0 0 0 0 0 0 0 1 0"/><feBlend in2="shape" result="effect1_innerShadow_94_21270"/></filter></defs></svg>