<svg width="34" height="42" fill="none" xmlns="http://www.w3.org/2000/svg"><g filter="url(#filter0_i_94_21294)"><path d="M0 8c0-3.771 0-5.657 1.172-6.828C2.343 0 4.229 0 8 0h17.333c3.772 0 5.657 0 6.829 1.172C33.333 2.343 33.333 4.229 33.333 8v9c0 3.771 0 5.657-1.171 6.828C30.99 25 29.105 25 25.333 25H8c-3.771 0-5.657 0-6.828-1.172C0 22.657 0 20.771 0 17V8z" fill="#002B45"/></g><g filter="url(#filter1_i_94_21294)"><rect x="2" y="2" width="29" height="21" rx="3" fill="#2C66F6"/></g><path d="M17.99 35.143c-.165 1.143-1.815 1.143-1.98 0l-1.443-10a1 1 0 01.99-1.143h2.886a1 1 0 01.99 1.143l-1.443 10z" fill="#002B45"/><path d="M12.718 9.378l-1.562 2.068c.572.132 1.027.396 1.364.792.345.389.517.865.517 1.43 0 .77-.26 1.375-.781 1.815-.513.44-1.151.66-1.914.66-.601 0-1.133-.136-1.595-.407a2.324 2.324 0 01-.99-1.188l1.078-.627c.227.66.73.99 1.507.99.44 0 .788-.11 1.045-.33.257-.227.385-.532.385-.913s-.128-.682-.385-.902c-.257-.22-.605-.33-1.045-.33h-.286l-.506-.759 1.66-2.189H7.989V8.3h4.73v1.078zm4.257 3.806L19.032 16h-1.375l-1.364-1.881L14.918 16h-1.386l2.068-2.827-1.958-2.673h1.375l1.265 1.738 1.265-1.738h1.386l-1.958 2.684zm7.475.253h.88v1.177h-.88V16h-1.276v-1.386H19.39v-1.177L22.041 8.3h1.375l-2.65 5.137h2.408v-2.002h1.276v2.002z" fill="#fff"/><defs><filter id="filter0_i_94_21294" x="0" y="0" width="33.334" height="25.284" filterUnits="userSpaceOnUse" color-interpolation-filters="sRGB"><feFlood flood-opacity="0" result="BackgroundImageFix"/><feBlend in="SourceGraphic" in2="BackgroundImageFix" result="shape"/><feColorMatrix in="SourceAlpha" values="0 0 0 0 0 0 0 0 0 0 0 0 0 0 0 0 0 0 127 0" result="hardAlpha"/><feOffset dy=".284"/><feGaussianBlur stdDeviation="1.707"/><feComposite in2="hardAlpha" operator="arithmetic" k2="-1" k3="1"/><feColorMatrix values="0 0 0 0 0 0 0 0 0 0.0830918 0 0 0 0 0.133333 0 0 0 0.59 0"/><feBlend in2="shape" result="effect1_innerShadow_94_21294"/></filter><filter id="filter1_i_94_21294" x="2" y="2" width="29" height="21.284" filterUnits="userSpaceOnUse" color-interpolation-filters="sRGB"><feFlood flood-opacity="0" result="BackgroundImageFix"/><feBlend in="SourceGraphic" in2="BackgroundImageFix" result="shape"/><feColorMatrix in="SourceAlpha" values="0 0 0 0 0 0 0 0 0 0 0 0 0 0 0 0 0 0 127 0" result="hardAlpha"/><feOffset dy=".284"/><feGaussianBlur stdDeviation="3.236"/><feComposite in2="hardAlpha" operator="arithmetic" k2="-1" k3="1"/><feColorMatrix values="0 0 0 0 0.0902778 0 0 0 0 0.313201 0 0 0 0 0.866667 0 0 0 1 0"/><feBlend in2="shape" result="effect1_innerShadow_94_21294"/></filter></defs></svg>