<svg width="40" height="40" fill="none" xmlns="http://www.w3.org/2000/svg"><g filter="url(#filter0_i_94_17914)"><path d="M21.187 6.23l2.73 5.495c.371.75 1.363 1.499 2.19 1.624l4.941.832c3.163.542 3.907 2.831 1.633 5.12l-3.845 3.893c-.64.646-1.013 1.915-.806 2.831l1.095 4.809c.869 3.788-1.137 5.266-4.465 3.288l-4.63-2.768c-.848-.5-2.212-.5-3.06 0l-4.651 2.748c-3.328 1.977-5.333.5-4.465-3.29l1.095-4.808c.207-.895-.165-2.164-.806-2.83L4.32 19.323c-2.274-2.29-1.53-4.6 1.633-5.12l4.94-.833c.828-.146 1.82-.875 2.192-1.624l2.729-5.495c1.467-2.998 3.907-2.998 5.374-.021z" fill="#FF7A57"/></g><defs><filter id="filter0_i_94_17914" x="3" y="4" width="31" height="31" filterUnits="userSpaceOnUse" color-interpolation-filters="sRGB"><feFlood flood-opacity="0" result="BackgroundImageFix"/><feBlend in="SourceGraphic" in2="BackgroundImageFix" result="shape"/><feColorMatrix in="SourceAlpha" values="0 0 0 0 0 0 0 0 0 0 0 0 0 0 0 0 0 0 127 0" result="hardAlpha"/><feOffset/><feGaussianBlur stdDeviation="4"/><feComposite in2="hardAlpha" operator="arithmetic" k2="-1" k3="1"/><feColorMatrix values="0 0 0 0 1 0 0 0 0 0.208333 0 0 0 0 0 0 0 0 1 0"/><feBlend in2="shape" result="effect1_innerShadow_94_17914"/></filter></defs></svg>