<svg width="40" height="40" fill="none" xmlns="http://www.w3.org/2000/svg"><path d="M37.793 15.045a.919.919 0 00-.714-.347h-3.504c-.864-2.327-1.99-4.607-3.271-5.468-4.43-2.973-16.177-2.973-20.606 0-1.281.862-2.403 3.145-3.272 5.468H2.922a.912.912 0 00-.714.347.95.95 0 00-.188.785l.518 2.566c.089.437.467.75.903.75h1.038c-1.002 1.179-1.488 2.664-1.494 4.15-.007 1.837.676 3.496 1.925 4.67.014.012.028.02.04.033v3.59c0 .778.62 1.411 1.383 1.411h3.232c.763 0 1.383-.633 1.383-1.411v-1.443h18.104v1.443c0 .778.62 1.411 1.383 1.411h3.231c.762 0 1.383-.633 1.383-1.411v-3.52c1.325-1.239 1.959-2.943 1.967-4.645.006-1.537-.502-3.076-1.563-4.28h1.107a.923.923 0 00.902-.751l.52-2.565a.962.962 0 00-.189-.783zm-26.577-3.459c3.53-2.371 14.037-2.371 17.566 0 .686.46 1.568 2.315 2.376 4.588H8.841c.807-2.272 1.69-4.127 2.375-4.588zM7.08 23.65c0-1.533 1.218-2.775 2.72-2.775 1.503 0 2.72 1.242 2.72 2.775s-1.217 2.776-2.72 2.776c-1.502 0-2.72-1.243-2.72-2.776zm23.154 2.776c-1.502 0-2.72-1.243-2.72-2.776 0-1.533 1.218-2.775 2.72-2.775 1.503 0 2.72 1.242 2.72 2.775s-1.219 2.776-2.72 2.776z" fill="#002B45"/></svg>