<svg width="40" height="40" fill="none" xmlns="http://www.w3.org/2000/svg"><path d="M35.419 30.78l-2.75.65c-.617.15-1.1.618-1.233 1.234l-.584 2.45c-.316 1.334-2.016 1.75-2.9.7l-4.983-5.733c-.4-.467-.183-1.2.417-1.35 2.95-.717 5.6-2.367 7.55-4.717.316-.383.883-.433 1.233-.083l3.7 3.7c1.267 1.267.817 2.85-.45 3.15zm-30.918 0l2.75.65c.617.15 1.1.618 1.234 1.234l.583 2.45c.317 1.334 2.017 1.75 2.9.7l4.983-5.733c.4-.467.184-1.2-.416-1.35a14.153 14.153 0 01-7.55-4.717c-.317-.383-.884-.433-1.234-.083l-3.7 3.7c-1.266 1.267-.816 2.85.45 3.15z" fill="#002B45"/><g filter="url(#filter0_i_94_17923)"><path d="M19.999 3.328A11.658 11.658 0 008.332 14.995c0 2.417.717 4.633 1.95 6.483 1.8 2.667 4.65 4.55 7.967 5.034.566.1 1.15.15 1.75.15.6 0 1.183-.05 1.75-.15 3.316-.484 6.166-2.367 7.966-5.034a11.613 11.613 0 001.95-6.483c0-6.45-5.216-11.667-11.666-11.667zm5.1 11.3l-1.384 1.384c-.233.233-.366.683-.283 1.016l.4 1.717c.317 1.35-.4 1.883-1.6 1.166l-1.667-.983c-.3-.183-.8-.183-1.1 0l-1.666.983c-1.2.7-1.917.184-1.6-1.166l.4-1.717c.066-.316-.05-.783-.284-1.016L14.9 14.628c-.817-.816-.55-1.633.583-1.816l1.783-.3c.3-.05.65-.317.784-.584l.983-1.967c.533-1.066 1.4-1.066 1.933 0l.984 1.967c.133.267.483.533.8.583l1.783.3c1.117.184 1.383 1 .567 1.817z" fill="#FF7A57"/></g><defs><filter id="filter0_i_94_17923" x="8.332" y="3.328" width="23.334" height="23.333" filterUnits="userSpaceOnUse" color-interpolation-filters="sRGB"><feFlood flood-opacity="0" result="BackgroundImageFix"/><feBlend in="SourceGraphic" in2="BackgroundImageFix" result="shape"/><feColorMatrix in="SourceAlpha" values="0 0 0 0 0 0 0 0 0 0 0 0 0 0 0 0 0 0 127 0" result="hardAlpha"/><feOffset/><feGaussianBlur stdDeviation="2"/><feComposite in2="hardAlpha" operator="arithmetic" k2="-1" k3="1"/><feColorMatrix values="0 0 0 0 1 0 0 0 0 0.208333 0 0 0 0 0 0 0 0 1 0"/><feBlend in2="shape" result="effect1_innerShadow_94_17923"/></filter></defs></svg>