<svg width="40" height="40" fill="none" xmlns="http://www.w3.org/2000/svg"><g filter="url(#filter0_i_94_17891)"><rect x="17.803" y="30.914" width="4.387" height="6.581" rx="1.277" fill="#18415A"/></g><g filter="url(#filter1_i_94_17891)"><path d="M2.451 11.5c0-3.771 0-5.657 1.172-6.828C4.794 3.5 6.68 3.5 10.45 3.5h19.097c3.771 0 5.657 0 6.828 1.172 1.172 1.171 1.172 3.057 1.172 6.828v9.643c0 3.771 0 5.657-1.172 6.828-1.171 1.172-3.057 1.172-6.828 1.172H10.45c-3.771 0-5.657 0-6.828-1.172C2.45 26.8 2.45 24.914 2.45 21.143V11.5z" fill="#002B45"/></g><path d="M6.304 12.586c0-1.433.002-2.442.104-3.205.1-.745.286-1.158.585-1.457.298-.298.711-.484 1.456-.584.764-.103 1.773-.104 3.205-.104h16.727c1.433 0 2.442.001 3.205.104.745.1 1.158.286 1.457.584.298.299.484.712.584 1.457.102.763.104 1.772.104 3.205v7.435c0 1.433-.002 2.442-.104 3.205-.1.745-.286 1.158-.584 1.457-.299.298-.712.484-1.457.584-.763.103-1.772.104-3.205.104H11.654c-1.432 0-2.441-.001-3.205-.104-.745-.1-1.158-.286-1.456-.584-.299-.299-.485-.712-.585-1.457-.102-.763-.104-1.772-.104-3.205v-7.435z" stroke="#fff" stroke-width="1.3"/><path fill-rule="evenodd" clip-rule="evenodd" d="M10.033 10h4.083c.563 0 1.032.44 1.032 1.026v4.057c0 .537-.47 1.026-1.032 1.026h-4.083A1.054 1.054 0 019 15.083v-4.057C9 10.44 9.47 10 10.033 10zm0 6.891h4.083c.563 0 1.032.44 1.032 1.026v4.057c0 .537-.47 1.026-1.032 1.026h-4.083C9.469 23 9 22.56 9 21.974v-4.057c0-.586.47-1.026 1.033-1.026zm6.851 0h4.084c.563 0 1.032.44 1.032 1.026v4.057C22 22.51 21.53 23 20.968 23h-4.084c-.563 0-1.032-.44-1.032-1.026v-4.057c.047-.586.47-1.026 1.032-1.026z" fill="#FF7A57"/><defs><filter id="filter0_i_94_17891" x="17.803" y="30.914" width="4.387" height="6.746" filterUnits="userSpaceOnUse" color-interpolation-filters="sRGB"><feFlood flood-opacity="0" result="BackgroundImageFix"/><feBlend in="SourceGraphic" in2="BackgroundImageFix" result="shape"/><feColorMatrix in="SourceAlpha" values="0 0 0 0 0 0 0 0 0 0 0 0 0 0 0 0 0 0 127 0" result="hardAlpha"/><feOffset dy=".165"/><feGaussianBlur stdDeviation="1.28"/><feComposite in2="hardAlpha" operator="arithmetic" k2="-1" k3="1"/><feColorMatrix values="0 0 0 0 0 0 0 0 0 0.14902 0 0 0 0 0.239216 0 0 0 1 0"/><feBlend in2="shape" result="effect1_innerShadow_94_17891"/></filter><filter id="filter1_i_94_17891" x="2.451" y="3.5" width="35.098" height="25.808" filterUnits="userSpaceOnUse" color-interpolation-filters="sRGB"><feFlood flood-opacity="0" result="BackgroundImageFix"/><feBlend in="SourceGraphic" in2="BackgroundImageFix" result="shape"/><feColorMatrix in="SourceAlpha" values="0 0 0 0 0 0 0 0 0 0 0 0 0 0 0 0 0 0 127 0" result="hardAlpha"/><feOffset dy=".165"/><feGaussianBlur stdDeviation=".991"/><feComposite in2="hardAlpha" operator="arithmetic" k2="-1" k3="1"/><feColorMatrix values="0 0 0 0 0 0 0 0 0 0.0830918 0 0 0 0 0.133333 0 0 0 0.59 0"/><feBlend in2="shape" result="effect1_innerShadow_94_17891"/></filter></defs></svg>