<svg width="40" height="40" fill="none" xmlns="http://www.w3.org/2000/svg"><path fill-rule="evenodd" clip-rule="evenodd" d="M31.673 11.35A4.244 4.244 0 0030.61 3c-2.11 0-3.86 1.54-4.188 3.558l-14.97-.438a2.653 2.653 0 10-2.64 3.243l-.355 20.154a4.242 4.242 0 104.123 4.276l17.269-4.108a3.086 3.086 0 103.207-4.384l-1.384-13.95zm-3.83-.893l-6.818 8.247.818.676 6.889-8.333c.566.28 1.204.438 1.879.438h.01l1.374 13.854a3.07 3.07 0 00-1.222.56l-8.553-5.505-.574.892 8.395 5.402a3.07 3.07 0 00-.476 1.975l-17.11 4.07a4.233 4.233 0 00-.99-1.842l7.072-8.554-.818-.676-7.062 8.543a4.22 4.22 0 00-1.141-.523l.36-20.516c.137-.056.267-.123.391-.2L16.7 16.45l.804-.692-6.465-7.521c.217-.31.37-.668.44-1.055l14.906.437a4.234 4.234 0 001.458 2.84z" fill="#002B45"/><g filter="url(#filter0_i_94_17885)"><circle cx="19.476" cy="19.433" r="6.894" fill="#FF7A57"/></g><defs><filter id="filter0_i_94_17885" x="12.582" y="12.539" width="13.787" height="13.788" filterUnits="userSpaceOnUse" color-interpolation-filters="sRGB"><feFlood flood-opacity="0" result="BackgroundImageFix"/><feBlend in="SourceGraphic" in2="BackgroundImageFix" result="shape"/><feColorMatrix in="SourceAlpha" values="0 0 0 0 0 0 0 0 0 0 0 0 0 0 0 0 0 0 127 0" result="hardAlpha"/><feOffset/><feGaussianBlur stdDeviation="4"/><feComposite in2="hardAlpha" operator="arithmetic" k2="-1" k3="1"/><feColorMatrix values="0 0 0 0 1 0 0 0 0 0.208333 0 0 0 0 0 0 0 0 1 0"/><feBlend in2="shape" result="effect1_innerShadow_94_17885"/></filter></defs></svg>