<svg width="40" height="40" fill="none" xmlns="http://www.w3.org/2000/svg"><g filter="url(#filter0_i_94_17934)" fill="#FF7A57"><path d="M15.498 5a7.131 7.131 0 00-7.125 7.125c0 3.855 3.014 6.975 6.945 7.11.12-.015.24-.015.33 0h.105a7.107 7.107 0 006.87-7.11A7.131 7.131 0 0015.496 5zm7.619 18.225c-4.184-2.79-11.01-2.79-15.225 0-1.905 1.275-2.955 3-2.955 4.845 0 1.845 1.05 3.555 2.94 4.815 2.1 1.41 4.86 2.115 7.62 2.115s5.52-.705 7.62-2.115c1.89-1.275 2.94-2.985 2.94-4.845-.014-1.845-1.05-3.555-2.94-4.815z"/></g><path d="M31.984 13.011c.24 2.91-1.83 5.46-4.695 5.805h-.075c-.09 0-.18 0-.255.03-1.455.075-2.79-.39-3.795-1.245 1.545-1.38 2.43-3.45 2.25-5.7a6.961 6.961 0 00-1.155-3.27 5.361 5.361 0 011.905-.525c2.94-.255 5.565 1.935 5.82 4.905zm3 13.875c-.12 1.455-1.05 2.715-2.61 3.57-1.5.825-3.39 1.215-5.265 1.17 1.08-.975 1.71-2.19 1.83-3.48.15-1.86-.735-3.645-2.505-5.07-1.005-.795-2.175-1.425-3.45-1.89 3.315-.96 7.485-.315 10.05 1.755 1.38 1.11 2.085 2.505 1.95 3.945z" fill="#002B45"/><defs><filter id="filter0_i_94_17934" x="4.938" y="5" width="21.119" height="30" filterUnits="userSpaceOnUse" color-interpolation-filters="sRGB"><feFlood flood-opacity="0" result="BackgroundImageFix"/><feBlend in="SourceGraphic" in2="BackgroundImageFix" result="shape"/><feColorMatrix in="SourceAlpha" values="0 0 0 0 0 0 0 0 0 0 0 0 0 0 0 0 0 0 127 0" result="hardAlpha"/><feOffset/><feGaussianBlur stdDeviation="4"/><feComposite in2="hardAlpha" operator="arithmetic" k2="-1" k3="1"/><feColorMatrix values="0 0 0 0 1 0 0 0 0 0.208333 0 0 0 0 0 0 0 0 1 0"/><feBlend in2="shape" result="effect1_innerShadow_94_17934"/></filter></defs></svg>