<svg width="30" height="30" fill="none" xmlns="http://www.w3.org/2000/svg"><path d="M9.05 2.5H6.675C3.938 2.5 2.5 3.938 2.5 6.662v2.375c0 2.725 1.438 4.163 4.162 4.163h2.375c2.725 0 4.163-1.438 4.163-4.162V6.662C13.213 3.938 11.775 2.5 9.05 2.5zm14.288 0h-2.375c-2.725 0-4.162 1.438-4.162 4.162v2.375c0 2.725 1.437 4.163 4.162 4.163h2.375c2.725 0 4.163-1.438 4.163-4.162V6.662c0-2.724-1.438-4.162-4.163-4.162zm0 14.281h-2.375c-2.725 0-4.162 1.438-4.162 4.163v2.375c0 2.725 1.437 4.162 4.162 4.162h2.375c2.725 0 4.163-1.437 4.163-4.162v-2.375c0-2.725-1.438-4.163-4.163-4.163zm-14.288 0H6.675c-2.737 0-4.175 1.438-4.175 4.163v2.375c0 2.737 1.438 4.175 4.162 4.175h2.375c2.725 0 4.163-1.438 4.163-4.163v-2.375c.013-2.737-1.425-4.175-4.15-4.175z" fill="#fff"/></svg>