<svg width="30" height="30" fill="none" xmlns="http://www.w3.org/2000/svg"><g filter="url(#filter0_i_94_68760)"><path d="M15 2.5C8.113 2.5 2.5 8.113 2.5 15S8.113 27.5 15 27.5 27.5 21.887 27.5 15 21.887 2.5 15 2.5zm5.438 16.962a.933.933 0 01-.813.463.837.837 0 01-.475-.137l-3.875-2.313c-.963-.575-1.675-1.838-1.675-2.95V9.4c0-.513.425-.938.938-.938.512 0 .937.425.937.938v5.125c0 .45.375 1.112.763 1.338l3.875 2.312c.45.262.6.837.325 1.287z" fill="#FF7A57"/></g><defs><filter id="filter0_i_94_68760" x="0" y="0" width="30" height="30" filterUnits="userSpaceOnUse" color-interpolation-filters="sRGB"><feFlood flood-opacity="0" result="BackgroundImageFix"/><feBlend in="SourceGraphic" in2="BackgroundImageFix" result="shape"/><feColorMatrix in="SourceAlpha" values="0 0 0 0 0 0 0 0 0 0 0 0 0 0 0 0 0 0 127 0" result="hardAlpha"/><feOffset/><feGaussianBlur stdDeviation="3.5"/><feComposite in2="hardAlpha" operator="arithmetic" k2="-1" k3="1"/><feColorMatrix values="0 0 0 0 1 0 0 0 0 0.208333 0 0 0 0 0 0 0 0 0.6 0"/><feBlend in2="shape" result="effect1_innerShadow_94_68760"/></filter></defs></svg>