<svg width="180" height="41" fill="none" xmlns="http://www.w3.org/2000/svg"><g clip-path="url(#clip0_94_17642)"><path d="M70.652 9.79c1.094 0 3.376.061 4.783 1.28.75.626 1.469 1.782 1.469 3.69 0 1.218-.313 2.531-1.407 3.688a6.426 6.426 0 01-3.25 1.782v.062a4.55 4.55 0 012.75 1.282c.719.75 1.063 1.656 1.063 2.75 0 1.939-.97 4.158-3.095 5.627-2.344 1.594-5.064 1.72-6.564 1.72H59.18l4.438-21.882h7.034zm-6.346 18.442h2.47c.656 0 2.22-.063 3.376-1.032.75-.656 1.219-1.688 1.219-2.782 0-.812-.313-1.438-.97-1.844-.718-.406-1.531-.469-2.375-.469h-2.47l-1.25 6.127zm1.97-9.566h2.156c1.344 0 2.314-.406 2.97-1a2.972 2.972 0 001.031-2.25c0-1.094-.625-1.532-.906-1.75-.594-.345-1.563-.439-2.188-.439h-1.97l-1.094 5.44z" fill="url(#paint0_linear_94_17642)"/><path d="M84.908 15.484l-1.219 6.127h6.815l1.219-6.127h4.251l-3.282 16.193h-4.251l1.406-6.94h-6.814l-1.407 6.94h-4.251l3.282-16.193h4.251z" fill="url(#paint1_linear_94_17642)"/><path d="M101.85 15.484l1.313 9.128.281 3.095h.125l6.502-12.223h4.501l-10.534 18.162c-.75 1.313-1.813 3.032-3.313 4.032-1.22.75-2.47.938-3.876.938-1.157 0-2.032-.125-3.001-.469l.937-3.157c.47.219 1 .344 1.594.344.72 0 1.438-.063 1.97-.406.375-.22 1-.907 1.344-1.407l.563-.938-2.907-17.099h4.501z" fill="url(#paint2_linear_94_17642)"/><path d="M121.792 8.227L118.947 22.2h.125l6.252-6.721h5.064l-7.627 7.564 4.595 8.628h-4.877l-3.626-8.221h-.156l-1.688 8.221h-4.251l4.783-23.444h4.251z" fill="url(#paint3_linear_94_17642)"/><path d="M131.485 17.798c2.345-2.251 5.158-2.564 7.065-2.564 1.469 0 3.532.25 5.126 1.907.813.813 1.782 2.407 1.782 4.97 0 2.97-1.094 5.283-2.688 6.94-2.157 2.22-4.752 2.876-7.409 2.876-1.5 0-3.376-.188-4.97-1.657-1.375-1.282-1.969-2.938-1.969-4.939 0-3.032 1.281-5.783 3.063-7.533zm2.814 2.688c-1.001 1.47-1.438 3.188-1.438 4.72 0 .406.031 1.782.687 2.595.375.5 1.032 1.062 2.282 1.062 1.72 0 3.439-1.062 4.471-3.438a8.74 8.74 0 00.718-3.47c0-.875-.125-1.813-.718-2.595-.563-.718-1.313-1.062-2.22-1.062-1.219 0-2.563.437-3.782 2.188z" fill="url(#paint4_linear_94_17642)"/><path d="M157.21 15.484c2.095 0 2.97.47 3.377.75 1.125.782 1.25 1.907 1.25 2.501 0 1.094-.375 2.126-1.094 2.876-.657.656-1.813 1.22-2.72 1.47l-.031.093c1.094.094 2.032.594 2.501 1.188.375.5.531 1.188.531 1.844 0 1.5-.75 3.157-2.219 4.158-1.094.781-2.72 1.313-4.846 1.313h-8.189l3.282-16.193h8.158zm-6.627 13.38h3.283c.906 0 1.5-.313 1.844-.657.469-.406.875-1 .875-1.97 0-.218-.031-.812-.531-1.218-.5-.407-1.25-.407-1.907-.407h-2.688l-.876 4.251zm1.438-7.065h2.626c.719 0 1.313 0 1.907-.407.625-.406.906-1.094.906-1.719 0-.594-.281-.906-.5-1.063-.375-.281-.906-.313-1.375-.313h-2.845l-.719 3.502z" fill="url(#paint5_linear_94_17642)"/><path d="M166.028 17.798c2.345-2.251 5.158-2.564 7.065-2.564 1.469 0 3.532.25 5.126 1.907.813.813 1.782 2.407 1.782 4.97 0 2.97-1.094 5.283-2.688 6.94-2.157 2.22-4.752 2.876-7.409 2.876-1.5 0-3.376-.188-4.97-1.657-1.375-1.282-1.969-2.938-1.969-4.939 0-3.032 1.281-5.783 3.063-7.533zm2.813 2.688c-1 1.47-1.437 3.188-1.437 4.72 0 .406.031 1.782.687 2.595.375.5 1.032 1.062 2.282 1.062 1.719 0 3.439-1.062 4.47-3.438a8.725 8.725 0 00.719-3.47c0-.875-.125-1.813-.719-2.595-.562-.718-1.313-1.062-2.219-1.062-1.219 0-2.564.437-3.783 2.188z" fill="url(#paint6_linear_94_17642)"/><path d="M106.157 39.164l-.893-2.628-.169-.526h-.015l.01.568v2.586h-.746v-3.68h1.261l.736 2.14.163.652h.016l.163-.652.736-2.14h1.262v3.68h-.747v-2.586l.011-.568h-.016l-.168.526-.894 2.628h-.71" fill="url(#paint7_linear_94_17642)"/><path d="M111.424 35.484v.652h-1.451v.83h1.319v.605h-1.319v.941h1.451v.652h-2.197v-3.68h2.197z" fill="url(#paint8_linear_94_17642)"/><path d="M114.438 35.484v1.572h.016l1.235-1.572h.889l-1.43 1.667 1.451 2.013h-.946l-1.199-1.83h-.016v1.83h-.746v-1.83h-.016l-1.199 1.83h-.946l1.451-2.013-1.43-1.667h.889l1.235 1.572h.016v-1.572h.746z" fill="url(#paint9_linear_94_17642)"/><path d="M116.975 38.512c.374-.63.447-1.177.447-1.85v-1.178h2.397v3.028h.421v1.425h-.736v-.773h-2.213v.773h-.736v-1.425h.42zm1.157-2.376v.526c0 .725-.042 1.256-.378 1.85h1.319v-2.376h-.941z" fill="url(#paint10_linear_94_17642)"/><path d="M121.043 35.484l.73 1.567.158.389h.016l.158-.395.699-1.56h.736l-1.472 3.133c-.205.436-.484.588-.873.588-.173 0-.363-.031-.557-.115l.084-.558a.656.656 0 00.316.08c.142 0 .31-.006.415-.248l.105-.247-1.351-2.634h.836" fill="url(#paint11_linear_94_17642)"/><path d="M124.465 35.484v1.483h1.493v-1.483h.747v3.68h-.747v-1.593h-1.493v1.593h-.746v-3.68h.746z" fill="url(#paint12_linear_94_17642)"/><path d="M129.283 35.484l1.461 3.68h-.84l-.311-.83h-1.519l-.31.83h-.799l1.467-3.68h.851zm.089 2.245l-.541-1.503h-.011l-.509 1.503h1.061" fill="url(#paint13_linear_94_17642)"/><path d="M132.088 35.484c1.335 0 1.414.92 1.414 1.152 0 .483-.336 1.146-1.277 1.146h-.478v1.382H131v-3.68h1.088zm0 1.72c.452 0 .626-.31.626-.59 0-.304-.195-.551-.626-.551h-.341v1.14h.341z" fill="url(#paint14_linear_94_17642)"/><path d="M137.176 37.32c0 1.335-.893 1.881-1.803 1.881-.909 0-1.803-.546-1.803-1.881 0-1.336.894-1.883 1.803-1.883.91 0 1.803.547 1.803 1.883zm-2.817 0c0 1.245.736 1.355 1.014 1.355.279 0 1.015-.11 1.015-1.355 0-1.247-.736-1.357-1.015-1.357-.278 0-1.014.11-1.014 1.357z" fill="url(#paint15_linear_94_17642)"/><path d="M137.538 38.512c.373-.63.447-1.177.447-1.85v-1.178h2.397v3.028h.42v1.425h-.736v-.773h-2.213v.773h-.736v-1.425h.421zm1.156-2.376v.526c0 .725-.042 1.256-.378 1.85h1.319v-2.376h-.941z" fill="url(#paint16_linear_94_17642)"/><path d="M141.832 35.484v1.483h1.493v-1.483h.747v3.68h-.747v-1.593h-1.493v1.593h-.746v-3.68h.746z" fill="url(#paint17_linear_94_17642)"/><path d="M145.364 36.862h.515c1.267 0 1.356.883 1.356 1.114 0 .568-.321 1.188-1.377 1.188h-1.241v-3.68h.747v1.378zm0 1.724h.494c.352 0 .615-.216.615-.573 0-.237-.116-.573-.673-.573h-.436v1.146zm3.143-3.102v3.68h-.746v-3.68h.746z" fill="url(#paint18_linear_94_17642)"/><path d="M149.801 35.484v1.892l-.016.894h.016l.263-.536 1.288-2.25h.893v3.68h-.746v-1.898l.016-.888h-.016l-.252.557-1.299 2.229h-.893v-3.68h.746zm1.782-.873c-.215.531-.662.615-.972.615-.311 0-.757-.084-.973-.615l.384-.205c.131.326.462.342.589.342.126 0 .457-.016.588-.342l.384.205z" fill="url(#paint19_linear_94_17642)"/><path d="M155.857 35.484l1.462 3.68h-.841l-.31-.83h-1.52l-.31.83h-.799l1.467-3.68h.851zm.09 2.245l-.542-1.503h-.01l-.51 1.503h1.062" fill="url(#paint20_linear_94_17642)"/><path d="M157.77 36.962h1.545c-.057-.357-.299-.92-1.224-.92a2.31 2.31 0 00-.794.142l-.058-.589c.284-.094.62-.157 1.015-.157 1.104 0 1.85.683 1.85 1.823 0 1.173-.71 1.94-1.961 1.94-.32 0-.641-.052-.983-.173l.09-.62c.389.168.725.189.919.189.758 0 1.136-.463 1.146-1.03h-1.545v-.605z" fill="url(#paint21_linear_94_17642)"/><path d="M161.608 35.484c1.335 0 1.414.92 1.414 1.152 0 .483-.337 1.146-1.278 1.146h-.478v1.382h-.746v-3.68h1.088zm0 1.72c.452 0 .625-.31.625-.59 0-.304-.194-.551-.625-.551h-.342v1.14h.342z" fill="url(#paint22_linear_94_17642)"/><path d="M166.696 37.32c0 1.335-.894 1.881-1.803 1.881-.909 0-1.803-.546-1.803-1.881 0-1.336.894-1.883 1.803-1.883.909 0 1.803.547 1.803 1.883zm-2.818 0c0 1.245.736 1.355 1.015 1.355.278 0 1.015-.11 1.015-1.355 0-1.247-.737-1.357-1.015-1.357-.279 0-1.015.11-1.015 1.357z" fill="url(#paint23_linear_94_17642)"/><path d="M170.062 35.484v3.68h-.746V36.09h-1.456v3.075h-.747v-3.68h2.949z" fill="url(#paint24_linear_94_17642)"/><path d="M174.083 37.32c0 1.335-.894 1.881-1.803 1.881-.91 0-1.803-.546-1.803-1.881 0-1.336.893-1.883 1.803-1.883.909 0 1.803.547 1.803 1.883zm-2.818 0c0 1.245.736 1.355 1.015 1.355.278 0 1.014-.11 1.014-1.355 0-1.247-.736-1.357-1.014-1.357-.279 0-1.015.11-1.015 1.357z" fill="url(#paint25_linear_94_17642)"/><path d="M175.588 35.484c1.335 0 1.414.92 1.414 1.152 0 .483-.336 1.146-1.277 1.146h-.478v1.382h-.747v-3.68h1.088zm0 1.72c.452 0 .626-.31.626-.59 0-.304-.195-.551-.626-.551h-.341v1.14h.341z" fill="url(#paint26_linear_94_17642)"/><path d="M179.835 35.484v.652h-1.062v3.028h-.746v-3.028h-1.062v-.652h2.87z" fill="url(#paint27_linear_94_17642)"/><path d="M27.287 11.957c.542-.18 3.572-.813 6.347-.426a30.67 30.67 0 01-1.862 2.096c-1.597-.224-3.698-.312-5.792.213-.372.032-.578.658.05.537.462-.089 2.626-.259 4.881.098-.69.656-1.38 1.257-2.051 1.8-1.274-.33-2.752-.559-4.287-.483-.37-.04-.694.534-.054.537.374.003 1.816.164 3.47.627-3.072 2.325-5.558 3.418-5.558 3.418S34.187 31.51 35.28 32.644c.058.061.023.105-.027.103-.283-.015-.986-.08-1.33-.355-.405-.324-6.92-6.15-11.937-8.539-5.017-2.387-8.66-2.103-10.804-1.942-2.144.162-5.705 1.255-6.353 1.336-.495.061-1.111-.128-1.37-.199-.05-.013-.052-.066.014-.087.749-.243 4.402-1.388 8.438-3.154 4.531-1.982 5.503-4.45 5.543-5.098.04-.647-.364-.769-.566-.567-.203.203-.77.405-1.376.607-.607.203-.89.284-1.821 1.133-.202-.04-.81-.809-.81-.97.527-1.093 2.307-3.643 2.307-3.643s-.485-1.052-.445-1.133c.04-.08.526.162 1.295.688 1.133-.242 3.156-.404 4.572 1.376 1.417 1.78.729 4.168.324 5.098-.23.528-.445.931-.202 1.053 2.954-1.74 2.225-7.203 2.225-7.203 1.976-1.411 6.324-2.944 12.964-2.994.022 0 .057.015.03.06a27.3 27.3 0 01-1.543 2.32c-1.62-.146-4.511-.184-7.242.897-.365.081-.486.729.121.526zm15.443 2.509V26.12c0 3.758-2.993 7.99-7.819 11.042-5.023 3.177-11.621 3.424-13.525 3.424-1.9 0-8.491-.247-13.514-3.424C3.02 34.094 0 29.862 0 26.12V14.466c0-3.743 3.019-7.974 7.87-11.042C12.893.247 19.486 0 21.386 0c1.904 0 8.504.247 13.527 3.424 4.826 3.052 7.817 7.283 7.817 11.042zm-2.67 0c0-2.808-2.579-6.257-6.576-8.785-4.53-2.865-10.872-3.01-12.098-3.01-1.223 0-7.557.145-12.087 3.01-4.022 2.544-6.628 5.992-6.628 8.785V26.12c0 2.792 2.604 6.24 6.626 8.785 4.53 2.865 10.866 3.01 12.089 3.01 1.226 0 7.57-.145 12.1-3.01 3.997-2.529 6.573-5.977 6.573-8.785V14.466z" fill="url(#paint28_linear_94_17642)"/></g><defs><linearGradient id="paint0_linear_94_17642" x1="68.042" y1="9.789" x2="68.042" y2="31.671" gradientUnits="userSpaceOnUse"><stop stop-color="#00609A"/><stop offset="1" stop-color="#1B3646"/></linearGradient><linearGradient id="paint1_linear_94_17642" x1="86.675" y1="15.484" x2="86.675" y2="31.677" gradientUnits="userSpaceOnUse"><stop stop-color="#00609A"/><stop offset="1" stop-color="#1B3646"/></linearGradient><linearGradient id="paint2_linear_94_17642" x1="104.21" y1="15.484" x2="104.21" y2="38.616" gradientUnits="userSpaceOnUse"><stop stop-color="#00609A"/><stop offset="1" stop-color="#1B3646"/></linearGradient><linearGradient id="paint3_linear_94_17642" x1="121.573" y1="8.227" x2="121.573" y2="31.671" gradientUnits="userSpaceOnUse"><stop stop-color="#00609A"/><stop offset="1" stop-color="#1B3646"/></linearGradient><linearGradient id="paint4_linear_94_17642" x1="136.94" y1="15.234" x2="136.94" y2="31.927" gradientUnits="userSpaceOnUse"><stop stop-color="#00609A"/><stop offset="1" stop-color="#1B3646"/></linearGradient><linearGradient id="paint5_linear_94_17642" x1="153.803" y1="15.484" x2="153.803" y2="31.677" gradientUnits="userSpaceOnUse"><stop stop-color="#00609A"/><stop offset="1" stop-color="#1B3646"/></linearGradient><linearGradient id="paint6_linear_94_17642" x1="171.483" y1="15.234" x2="171.483" y2="31.927" gradientUnits="userSpaceOnUse"><stop stop-color="#00609A"/><stop offset="1" stop-color="#1B3646"/></linearGradient><linearGradient id="paint7_linear_94_17642" x1="106.512" y1="35.484" x2="106.512" y2="39.164" gradientUnits="userSpaceOnUse"><stop stop-color="#00609A"/><stop offset="1" stop-color="#1B3646"/></linearGradient><linearGradient id="paint8_linear_94_17642" x1="110.325" y1="35.484" x2="110.325" y2="39.164" gradientUnits="userSpaceOnUse"><stop stop-color="#00609A"/><stop offset="1" stop-color="#1B3646"/></linearGradient><linearGradient id="paint9_linear_94_17642" x1="114.065" y1="35.484" x2="114.065" y2="39.164" gradientUnits="userSpaceOnUse"><stop stop-color="#00609A"/><stop offset="1" stop-color="#1B3646"/></linearGradient><linearGradient id="paint10_linear_94_17642" x1="118.397" y1="35.484" x2="118.397" y2="39.937" gradientUnits="userSpaceOnUse"><stop stop-color="#00609A"/><stop offset="1" stop-color="#1B3646"/></linearGradient><linearGradient id="paint11_linear_94_17642" x1="121.873" y1="35.484" x2="121.873" y2="39.206" gradientUnits="userSpaceOnUse"><stop stop-color="#00609A"/><stop offset="1" stop-color="#1B3646"/></linearGradient><linearGradient id="paint12_linear_94_17642" x1="125.212" y1="35.484" x2="125.212" y2="39.164" gradientUnits="userSpaceOnUse"><stop stop-color="#00609A"/><stop offset="1" stop-color="#1B3646"/></linearGradient><linearGradient id="paint13_linear_94_17642" x1="128.855" y1="35.484" x2="128.855" y2="39.164" gradientUnits="userSpaceOnUse"><stop stop-color="#00609A"/><stop offset="1" stop-color="#1B3646"/></linearGradient><linearGradient id="paint14_linear_94_17642" x1="132.251" y1="35.484" x2="132.251" y2="39.164" gradientUnits="userSpaceOnUse"><stop stop-color="#00609A"/><stop offset="1" stop-color="#1B3646"/></linearGradient><linearGradient id="paint15_linear_94_17642" x1="135.373" y1="35.438" x2="135.373" y2="39.201" gradientUnits="userSpaceOnUse"><stop stop-color="#00609A"/><stop offset="1" stop-color="#1B3646"/></linearGradient><linearGradient id="paint16_linear_94_17642" x1="138.96" y1="35.484" x2="138.96" y2="39.937" gradientUnits="userSpaceOnUse"><stop stop-color="#00609A"/><stop offset="1" stop-color="#1B3646"/></linearGradient><linearGradient id="paint17_linear_94_17642" x1="142.579" y1="35.484" x2="142.579" y2="39.164" gradientUnits="userSpaceOnUse"><stop stop-color="#00609A"/><stop offset="1" stop-color="#1B3646"/></linearGradient><linearGradient id="paint18_linear_94_17642" x1="146.562" y1="35.484" x2="146.562" y2="39.164" gradientUnits="userSpaceOnUse"><stop stop-color="#00609A"/><stop offset="1" stop-color="#1B3646"/></linearGradient><linearGradient id="paint19_linear_94_17642" x1="150.65" y1="34.406" x2="150.65" y2="39.164" gradientUnits="userSpaceOnUse"><stop stop-color="#00609A"/><stop offset="1" stop-color="#1B3646"/></linearGradient><linearGradient id="paint20_linear_94_17642" x1="155.429" y1="35.484" x2="155.429" y2="39.164" gradientUnits="userSpaceOnUse"><stop stop-color="#00609A"/><stop offset="1" stop-color="#1B3646"/></linearGradient><linearGradient id="paint21_linear_94_17642" x1="158.632" y1="35.438" x2="158.632" y2="39.201" gradientUnits="userSpaceOnUse"><stop stop-color="#00609A"/><stop offset="1" stop-color="#1B3646"/></linearGradient><linearGradient id="paint22_linear_94_17642" x1="161.771" y1="35.484" x2="161.771" y2="39.164" gradientUnits="userSpaceOnUse"><stop stop-color="#00609A"/><stop offset="1" stop-color="#1B3646"/></linearGradient><linearGradient id="paint23_linear_94_17642" x1="164.893" y1="35.438" x2="164.893" y2="39.201" gradientUnits="userSpaceOnUse"><stop stop-color="#00609A"/><stop offset="1" stop-color="#1B3646"/></linearGradient><linearGradient id="paint24_linear_94_17642" x1="168.588" y1="35.484" x2="168.588" y2="39.164" gradientUnits="userSpaceOnUse"><stop stop-color="#00609A"/><stop offset="1" stop-color="#1B3646"/></linearGradient><linearGradient id="paint25_linear_94_17642" x1="172.28" y1="35.438" x2="172.28" y2="39.201" gradientUnits="userSpaceOnUse"><stop stop-color="#00609A"/><stop offset="1" stop-color="#1B3646"/></linearGradient><linearGradient id="paint26_linear_94_17642" x1="175.751" y1="35.484" x2="175.751" y2="39.164" gradientUnits="userSpaceOnUse"><stop stop-color="#00609A"/><stop offset="1" stop-color="#1B3646"/></linearGradient><linearGradient id="paint27_linear_94_17642" x1="178.4" y1="35.484" x2="178.4" y2="39.164" gradientUnits="userSpaceOnUse"><stop stop-color="#00609A"/><stop offset="1" stop-color="#1B3646"/></linearGradient><linearGradient id="paint28_linear_94_17642" x1="21.365" y1="0" x2="21.365" y2="40.586" gradientUnits="userSpaceOnUse"><stop stop-color="#00609A"/><stop offset="1" stop-color="#1B3646"/></linearGradient><clipPath id="clip0_94_17642"><path fill="#fff" d="M0 0h180v40.586H0z"/></clipPath></defs></svg>