<svg width="158" height="65" fill="none" xmlns="http://www.w3.org/2000/svg"><g clip-path="url(#clip0_94_17501)"><path fill-rule="evenodd" clip-rule="evenodd" d="M32.672 63.836l-.258.001c-17.259 0-31.25-14.03-31.25-31.337 0-17.306 13.991-31.336 31.25-31.336l.281.001h93.151c17.141.139 30.969 14.115 30.969 31.335 0 17.221-13.852 31.197-30.992 31.336H32.672v0z" fill="#fff" stroke="#fff" stroke-width="2.327"/><path fill-rule="evenodd" clip-rule="evenodd" d="M32.672 63.836l-.258.001c-17.259 0-31.25-14.03-31.25-31.337 0-17.306 13.991-31.336 31.25-31.336l.281.001h93.151c17.141.139 30.969 14.115 30.969 31.335 0 17.221-13.852 31.197-30.992 31.336H32.672z" fill="url(#paint0_linear_94_17501)"/><path fill-rule="evenodd" clip-rule="evenodd" d="M107.906 20.968h.694v-2.63c0-.318.302-1.077 1.127-1.077.621 0 .792.392.792.939v2.768h.694v-2.63c0-.652.433-1.077 1.102-1.077.678 0 .816.416.816.939v2.768h.694v-3.095c0-.873-.563-1.225-1.404-1.225-.538 0-1.036.27-1.322.72-.172-.515-.645-.72-1.159-.72-.58 0-1.054.245-1.364.72h-.016v-.621h-.653v4.22h-.001zm10.643-4.218h-.727l-1.151 3.519h-.016l-1.184-3.519h-.776l1.568 4.22h.743l1.543-4.22zm.916 4.22h.694v-4.22h-.694v4.22zm.694-5.83h-.694v.85h.694v-.85zm5.084 0h-.694v2.172h-.017c-.31-.498-.931-.661-1.363-.661-1.29 0-1.927 1.004-1.927 2.196 0 1.192.645 2.22 1.943 2.22.58 0 1.119-.203 1.348-.669h.016v.572h.694v-5.83zm-3.266 3.756c0-.824.318-1.633 1.266-1.633.954 0 1.33.768 1.33 1.6 0 .793-.359 1.593-1.29 1.593-.898 0-1.306-.767-1.306-1.56zm7.487.733c-.123.547-.523.824-1.094.824-.923 0-1.339-.653-1.315-1.388h3.16c.041-1.02-.416-2.417-1.911-2.417-1.151 0-1.984.931-1.984 2.197.041 1.29.678 2.22 2.025 2.22.947 0 1.617-.506 1.804-1.437h-.685zm-2.409-1.176c.049-.645.482-1.192 1.209-1.192.686 0 1.184.53 1.216 1.192h-2.425zm4.211.408c0 1.233.71 2.204 2.049 2.204s2.049-.971 2.049-2.204c0-1.24-.71-2.213-2.049-2.213s-2.049.972-2.049 2.213zm.734 0c0-1.029.588-1.6 1.315-1.6.726 0 1.314.571 1.314 1.6 0 1.02-.588 1.592-1.314 1.592-.727 0-1.315-.571-1.315-1.592z" fill="#fff"/><path d="M137.481 20.063h-.907v.906h.907v-.907z" fill="#fff"/><path fill-rule="evenodd" clip-rule="evenodd" d="M138.898 20.969h.694V19.09c0-1.07.409-1.706 1.527-1.706v-.735c-.751-.025-1.216.31-1.551.988h-.017v-.89h-.653v4.22zm6.718-4.219h-.695v2.384c0 .76-.408 1.323-1.249 1.323-.53 0-.857-.335-.857-.85V16.75h-.694v2.776c0 .906.343 1.543 1.453 1.543.605 0 1.078-.245 1.372-.768h.016v.67h.654V16.75z" fill="#fff"/><path d="M58.614 15.045h.405l.62.979h.375l-.646-1.005c.35-.026.592-.211.592-.608 0-.45-.268-.661-.807-.661h-.887v2.274h.349v-.98zm0-1.005h.485c.243 0 .512.053.512.345 0 .343-.27.37-.566.37h-.43v-.715z" fill="#fff"/><path d="M59.044 16.897c1.076 0 2.019-.873 2.019-2.01 0-1.137-.943-1.957-2.019-1.957-1.102 0-2.071.82-2.071 1.957s.969 2.01 2.072 2.01zm0-3.65c.915 0 1.616.714 1.616 1.64 0 .952-.701 1.64-1.615 1.64-.916 0-1.642-.688-1.642-1.64 0-.926.726-1.64 1.642-1.64zm-2.492 30.586a2.178 2.178 0 11-4.357.002 2.178 2.178 0 014.357-.002zM83.56 17.401c-3.21-1.789-17.499 2.256-22.083 17.704-.54.148-3.133.822-3.133.822l-1.133 3.053 4.02-1.226s-.441 7.405 6.3 7.627c5.294-.198 8.063-7.726 6.368-13.022-.323.171-4.554 2.207-4.554 2.207s.98 5.812-1.372 6.523c-.762.098-1.656-2.23-.837-5.714C78.383 29.527 85.513 18.497 83.561 17.4zm-4.484 3.531c2.156-.194-8.211 10.839-10.86 11.378-.857-.49 6.57-10.323 10.86-11.378z" fill="#fff"/><path d="M77.383 31.505v2.181s2.868-1.863 3.089-1.52c.073.981-3.553 9.27-3.627 10.52-.074.76.637 3.63 3.993 2.133 1.644-.71 6.05-4.322 6.05-4.322s-.71 1.843-.408 3.316c.298 1.474 2.126 1.862 3.775 1.252 1.648-.612 3.53-1.865 4.34-2.845-.123-.32-.589-1.79-.589-1.79s-1.477 1.394-1.84 1.212c-.365-.183 4.194-13.545 4.194-13.545s-4.675-.181-5.141-.181c-.77 3.51-5.135 12.415-8.147 12.808-1.032-.074 3.651-10.52 3.824-11.697.343-1.545-.813-2.255-2.183-1.937-1.446.491-7.33 4.415-7.33 4.415zm32.12-3.741s-.567 1.398-.673 1.64c-.591-1.022-2.636-3.011-6.858-.376-4.408 2.85-6.29 7.717-5.698 12.879.645 4.275 5.269 4.784 8.387 1.155-.322.942-3.63 11.105-3.63 11.105l5.136.027 8.39-26.323-5.054-.107zm-5.63 12.717c-.726.402-1.854 1.074-2.014-1.48-.081-3.011 2.342-6.377 2.805-6.905 1.209-1.37 2.718-1.396 2.68.775-.16 2.5-1.776 6.452-3.471 7.61zM27.04 45.035c-2.569-2.714-.571-7.71-.14-12.135-.573.572-6.284 13.847-11.423 13.274-4.568-1.424-3.997-6.565-2.57-10.42h7.423c-2.284 6.28.856 3.712 2.998-.284 4.283-8.708 4.569-9.421 9.28-22.556h8.137c-2.427 7.424-4.712 14.704-5.71 22.413 0 .285.142.57.428.428 1.712-.285 11.134-21.412 11.99-22.84h7.851c0 .713-8.707 24.553-7.279 26.836.715 1.285 1.715-1.14 2.57-2.141l1.286 1.285c-2.57 2.856-5.567 7.993-9.85 7.138-.572-.143-1.143-.427-1.57-.856-4.428-3.854 3.567-17.786 2.712-18.7-.266.029-.532.737-1 1.712-2.428 4.997-7.993 18.13-12.564 18.13-.712 0-2.142-.713-2.57-1.284zm92.495-3.915c9.517-5.002 11.802-11.347 8.872-13.122-4.33-2.42-16.185 1.909-14.841 13.767-.594.35-1.832 1.022-1.832 1.022l.863 2.366s1.747-1.048 2.198-1.361c6.057 4.91 12.703-3.142 12.703-3.142l-1.162-1.79s-5.03 4.839-6.801 2.26zm1.262-7.261c1.371-2.42 3.577-4.302 4.652-3.549 1.076.754-1.103 4.571-6.229 8.628-.205-.354.206-2.659 1.577-5.079z" fill="#fff"/><path d="M135.129 28.184l5.512-.16s-7.743 6.11-6.615 11.884c.89 3.51 4.166 1.8 5.969-2.178.347-.78 2.527-6.077 1.155-6.077-1.371 0-2.803 2.716-2.803 2.716l-1.5-1.506s3.039-4.33 6.498-5.489c.414-.13 2.912-.64 2.941 2.935.109 1.667-1.691 10.81-7.956 14.035-5.747 2.955-8.269-.584-8.724-1.64-3.148-7.816 5.523-14.52 5.523-14.52z" fill="#fff"/></g><defs><linearGradient id="paint0_linear_94_17501" x1="78.99" y1="1.164" x2="78.99" y2="63.837" gradientUnits="userSpaceOnUse"><stop stop-color="#00609A"/><stop offset="1" stop-color="#1B3646"/></linearGradient><clipPath id="clip0_94_17501"><path fill="#fff" d="M0 0h157.979v65H0z"/></clipPath></defs></svg>