<svg width="127" height="33" fill="none" xmlns="http://www.w3.org/2000/svg"><g clip-path="url(#clip0_94_17531)" fill-rule="evenodd" clip-rule="evenodd"><path d="M6.983 6.828a3.19 3.19 0 01.977 4.404 10.014 10.014 0 0016.444 11.407 3.19 3.19 0 015.094 3.84A16.394 16.394 0 012.578 7.806a3.19 3.19 0 014.405-.977z" fill="url(#paint0_linear_94_17531)"/><path d="M28.022 11.02a3.19 3.19 0 01-4.467-.625 10.014 10.014 0 00-10.907-3.55A3.19 3.19 0 0110.793.742a16.394 16.394 0 0117.854 5.81 3.19 3.19 0 01-.625 4.468z" fill="url(#paint1_linear_94_17531)"/><path d="M28.274 6.771a3.19 3.19 0 01-.434 4.49l-19.1 15.73a3.19 3.19 0 01-4.056-4.924l19.1-15.73a3.19 3.19 0 014.49.434z" fill="url(#paint2_linear_94_17531)"/><path d="M50.356 6.894a10.014 10.014 0 105.4 15.983 3.19 3.19 0 114.977 3.991 16.394 16.394 0 11-.422-21.016 3.19 3.19 0 11-4.813 4.188 10.014 10.014 0 00-5.142-3.146z" fill="url(#paint3_linear_94_17531)"/><path d="M82.305 6.894a10.014 10.014 0 105.4 15.983 3.19 3.19 0 114.977 3.991 16.394 16.394 0 11-.422-21.016 3.19 3.19 0 11-4.813 4.188 10.014 10.014 0 00-5.142-3.146z" fill="url(#paint4_linear_94_17531)"/><path d="M112.985 6.94a10.013 10.013 0 00-12.353 11.915 10.016 10.016 0 0016.315 5.328 10.01 10.01 0 002.159-12.505 3.19 3.19 0 015.551-3.144 16.396 16.396 0 01-3.533 20.472A16.395 16.395 0 0195.704 9.33 16.392 16.392 0 01114.638.778a3.19 3.19 0 11-1.652 6.162z" fill="url(#paint5_linear_94_17531)"/></g><defs><linearGradient id="paint0_linear_94_17531" x1="15.077" y1="6.328" x2="15.077" y2="33.004" gradientUnits="userSpaceOnUse"><stop stop-color="#00609A"/><stop offset="1" stop-color="#1B3646"/></linearGradient><linearGradient id="paint1_linear_94_17531" x1="18.91" y1="11.664" x2="18.91" y2=".033" gradientUnits="userSpaceOnUse"><stop stop-color="#00609A"/><stop offset="1" stop-color="#1B3646"/></linearGradient><linearGradient id="paint2_linear_94_17531" x1="16.262" y1="5.609" x2="16.262" y2="27.719" gradientUnits="userSpaceOnUse"><stop stop-color="#00609A"/><stop offset="1" stop-color="#1B3646"/></linearGradient><linearGradient id="paint3_linear_94_17531" x1="46.492" y1=".219" x2="46.492" y2="33.007" gradientUnits="userSpaceOnUse"><stop stop-color="#00609A"/><stop offset="1" stop-color="#1B3646"/></linearGradient><linearGradient id="paint4_linear_94_17531" x1="78.441" y1=".219" x2="78.441" y2="33.007" gradientUnits="userSpaceOnUse"><stop stop-color="#00609A"/><stop offset="1" stop-color="#1B3646"/></linearGradient><linearGradient id="paint5_linear_94_17531" x1="110.392" y1=".219" x2="110.392" y2="33.007" gradientUnits="userSpaceOnUse"><stop stop-color="#00609A"/><stop offset="1" stop-color="#1B3646"/></linearGradient><clipPath id="clip0_94_17531"><path fill="#fff" d="M0 0h126.791v33H0z"/></clipPath></defs></svg>