<svg width="146" height="31" fill="none" xmlns="http://www.w3.org/2000/svg"><path d="M17.434 3.74c-4.994-.025-5.282.008-6.937.802-.373.18-.809.419-.968.533-.479.34-1.356 1.202-1.356 1.332 0 .066-.026.12-.057.12-.154 0-.844 1.295-.845 1.585 0 .108-.026.224-.057.258-.203.225-.268 2.188-.099 3.03l.161.806c.06.304.324.852.624 1.304.097.146.206.31.241.368.16.256 1.229 1.242 1.68 1.549.63.427 1.395.892 1.59.966.083.032.412.2.731.373.32.173.712.369.871.435.16.067.698.317 1.195.555 2.656 1.274 2.884 1.406 3.11 1.791.232.397.24.811.02 1.134-.09.13-.21.237-.27.237-.06 0-.13.035-.156.076-.048.077-5.524.041-8.239-.053l-1.21-.042v-1.41c0-1.21-.014-1.41-.097-1.41-.053 0-.096.03-.096.065s-.033.064-.074.064c-.08 0-.765.559-.849.692a.8.8 0 01-.247.184c-.108.056-.362.253-.563.438-.201.186-.501.43-.666.543-.166.114-.31.23-.322.258-.033.075-.668.596-.728.596-.028 0-.143.096-.254.214-.111.12-.508.46-.88.76a17.88 17.88 0 00-.806.672 3.14 3.14 0 01-.365.29c-.13.09-.4.317-.601.507l-.364.347.407.378c.223.208.427.38.452.38.026.001.273.205.549.454.276.248.536.452.579.452.042 0 .115.05.162.113.046.062.243.244.438.404l.484.395.543.452c.227.19.536.439.688.552.152.114.376.307.499.43s.336.296.474.386c.137.089.424.323.637.52.213.198.421.36.463.36.042.001.143.087.226.191.291.37.307.307.326-1.27l.017-1.469.29.008c.16.005 1.837.014 3.727.021 2.393.01 3.437.036 3.437.084 0 .079 2.009.025 3.033-.081.804-.084 1.816-.282 1.969-.386.035-.024.239-.112.452-.196a2.75 2.75 0 00.42-.19c.062-.076.524-.325.602-.325.044 0 .181-.094.305-.209.124-.115.336-.297.472-.404.28-.22.98-1.095 1.186-1.484.21-.394.527-1.392.632-1.985.209-1.19.075-2.758-.319-3.721a3.635 3.635 0 01-.169-.47c0-.066-.319-.575-.417-.665a7.043 7.043 0 01-.379-.467c-.169-.222-.367-.435-.439-.473-.127-.068-.237-.158-.649-.525a2.164 2.164 0 00-.43-.283 2.69 2.69 0 01-.459-.295c-.123-.101-.248-.184-.277-.184-.029 0-.203-.1-.388-.225-.184-.124-.375-.226-.424-.226-.104 0-.613-.268-.645-.339-.011-.027-.062-.048-.112-.048s-.091-.03-.091-.065-.048-.065-.106-.065c-.057 0-.268-.082-.468-.182-1.056-.532-1.594-.79-1.643-.788-.03.002-.134-.054-.23-.122a1.274 1.274 0 00-.365-.171c-.104-.025-.487-.209-.851-.408a52.503 52.503 0 00-.936-.501c-.15-.077-.36-.23-.465-.34-.174-.184-.19-.24-.19-.66 0-.442.008-.468.212-.639a1.05 1.05 0 01.417-.207c.112-.017 2.12-.016 4.463.003l4.26.034-.013-2.705-.012-2.704-.762-.044c-.42-.024-2.535-.054-4.7-.064l.002-.001zm7.903.012l.022 8.761c.019 7.796.032 8.796.124 9.084.191.601.392 1.091.577 1.404.1.171.184.34.184.375 0 .226 1.688 1.996 1.902 1.996.024 0 .165.08.314.178.726.476 1.005.612 1.795.875.867.29 1.658.481 2.442.59.84.118 2.909.12 3.679.003 1.13-.17 1.96-.381 2.559-.65.112-.05.252-.092.312-.092.129 0 1.17-.546 1.356-.71a2.16 2.16 0 01.366-.235c.309-.158 1.392-1.163 1.52-1.41.056-.107.163-.258.24-.335.185-.188.628-1.002.725-1.335.043-.147.151-.528.241-.848l.163-.581.003-8.534.002-8.536h-6.777v8.16c0 5.03-.023 8.222-.061 8.322-.08.21-.51.685-.62.685a.297.297 0 00-.171.087c-.225.225-.774.333-1.697.333h-.903l-.512-.25c-.538-.26-.687-.4-.926-.873l-.146-.287V3.752h-6.715.002zm20.654.001V26.6l6.083-.002c6.184-.002 6.772-.021 7.534-.252.124-.038.305-.069.402-.069.17 0 .779-.246 1.308-.528l.612-.327c.302-.161.672-.472 1.254-1.053.176-.176.57-.726.77-1.074.172-.302.562-1.42.692-1.987.11-.48.169-1.73.108-2.323-.047-.454-.322-1.503-.433-1.646a1.598 1.598 0 01-.131-.323c-.122-.387-.893-1.319-1.443-1.744a7.576 7.576 0 01-.4-.33 1.817 1.817 0 00-.412-.255c-.144-.063-.262-.134-.262-.156 0-.04.358-.322.409-.322.048 0 1.076-1.015 1.076-1.063 0-.026.054-.124.121-.218.19-.27.563-.995.653-1.274.045-.139.114-.293.154-.343.048-.06.07-.504.067-1.323-.004-1.148-.016-1.27-.175-1.77-.196-.617-.648-1.56-.885-1.845-.416-.502-.906-.982-1.274-1.245-.51-.365-1.407-.802-2.081-1.015-1.04-.328-1.74-.359-8.01-.359h-5.737zm6.648 4.96l1.823.022c1.978.022 1.963.02 2.43.413.503.423.7 1.397.487 2.415-.075.355-.511.947-.822 1.113-.26.139-.348.145-2.095.165l-1.823.021V8.713zm.048 8.516c.027-.01.98-.006 2.119.012l2.07.032.271.18c.15.1.38.346.51.55l.24.368v.94c0 .862-.012.97-.155 1.275-.086.184-.195.334-.243.334-.049 0-.105.041-.124.091-.056.146-.482.397-.812.479-.195.048-.948.075-2.114.075h-1.81v-2.158c0-1.187.021-2.167.048-2.178z" fill="url(#paint0_linear_94_17632)"/><path d="M138.207.845c-.046.025-.05.315-.051 1.343l-.002 1.436-2.597.001c-2.499.001-2.831.02-3.936.218-.914.163-1.919.767-2.525 1.518-.495.613-.798 1.3-1.042 2.361-.024.107-.063 1.384-.087 2.84-.046 2.913-.026 2.772-.477 3.334-.366.455-1.258.763-2.211.763-.465 0-1.278-.188-1.555-.36-.352-.217-.745-.611-.821-.822-.052-.144-.084-1.627-.107-4.949l-.033-4.743-3.308-.016-3.307-.017.001 5.05c0 2.778.027 5.235.06 5.46.071.491.342 1.407.548 1.85.389.837 1.302 1.882 2.141 2.452.208.142.437.31.507.374a.778.778 0 00.291.152c.089.021.28.105.425.188.303.172 1.142.516 1.593.651l.306.093v6.577h6.712v-6.552l.533-.185c.776-.268 2.284-1.02 2.69-1.342.513-.408 1.34-1.263 1.578-1.634.295-.459.713-1.411.836-1.904.175-.702.234-1.561.236-3.484.001-1.012.019-1.905.041-1.984.063-.236.398-.28 2.003-.26l1.473.017.018 1.404c.011.862.042 1.403.081 1.403a.064.064 0 00.063-.064c0-.036.036-.065.08-.065.045 0 .304-.204.576-.452.272-.248.519-.451.549-.451.031 0 .23-.164.441-.364.212-.2.487-.43.612-.511.124-.081.4-.31.613-.507.213-.197.41-.359.436-.36.026 0 .202-.139.391-.307a56.459 56.459 0 012.008-1.668c.145-.11.423-.35.618-.535l.355-.336-.443-.416c-.243-.23-.481-.418-.528-.418-.046 0-.137-.066-.202-.146a4.401 4.401 0 00-.505-.452 11.636 11.636 0 01-.516-.425c-.071-.067-.44-.373-.821-.681-.38-.308-.777-.646-.882-.75-.105-.106-.217-.192-.248-.192-.032 0-.278-.203-.548-.451-.269-.247-.52-.45-.551-.45-.033 0-.231-.162-.441-.36a5.692 5.692 0 00-.639-.524 1.894 1.894 0 01-.37-.302c-.027-.033-.047-.054-.062-.045V.845zm-32.735 2.227c-.4-.007-.797.005-1.185.035-1.268.099-2.528.358-3.256.672a1.27 1.27 0 01-.349.103c-.14 0-1.06.472-1.4.717-.14.102-.291.187-.334.187-.042 0-.175.094-.296.21a21.61 21.61 0 01-.624.558c-.222.192-.403.376-.403.41 0 .034-.112.197-.248.361-.417.503-.574.787-.842 1.526-.482 1.33-.459.8-.459 10.268v8.48h6.647v-6.582h5.099v6.582h6.647v-8.438c0-7.32-.013-8.514-.1-9.008-.154-.881-.684-2.248-.991-2.555a5.001 5.001 0 01-.381-.504c-.143-.21-.329-.429-.413-.484a5.321 5.321 0 01-.501-.43c-.19-.18-.404-.346-.475-.369a2.351 2.351 0 01-.424-.252c-.378-.27-1.04-.6-1.417-.711a63.52 63.52 0 01-.844-.257c-1.032-.32-2.249-.5-3.446-.52h-.005zm-11.456.68l-3.342.017-3.343.016-.032 8.196-.032 8.197-.174.295c-.216.367-.252.396-.73.574-.762.285-2.016.148-2.471-.271a1.527 1.527 0 01-.278-.405c-.114-.246-.12-.621-.12-8.336-.002-4.443-.02-8.123-.041-8.18-.035-.09-.389-.102-3.324-.102h-3.285v8.084c0 5.045-.024 8.166-.063 8.303-.165.576-.687.94-1.49 1.042-.483.062-1.125-.01-1.425-.16a.993.993 0 00-.28-.101c-.117 0-.324-.262-.459-.582-.118-.28-.123-.594-.139-8.357l-.016-8.147c0-.064-.708-.082-3.324-.082h-3.324v8.382c0 9.218-.012 8.887.399 10.14.353 1.079.808 1.8 1.643 2.606.28.27.528.491.552.492.025 0 .232.129.46.286.558.381.673.436 1.48.709.818.275 1.362.41 2.114.523h0c.786.117 2.556.117 3.23-.001.808-.142 2.185-.581 2.636-.842.12-.07.352-.218.516-.331.592-.41.765-.483.926-.393.08.045.16.1.178.12.08.097 1.275.776 1.42.807.09.02.234.066.323.103.349.148 1.091.369 1.613.482.778.168 3.067.17 3.905.002.616-.123 1.357-.327 1.678-.46.106-.045.31-.117.452-.162.142-.045.36-.146.483-.226l.676-.428c.247-.157.658-.488.913-.737.518-.504 1.186-1.355 1.188-1.512 0-.055.073-.23.162-.385.189-.33.432-1.012.589-1.653.101-.413.112-1.188.133-8.987l.023-8.536h0zm10.954 5.046c.169-.007.354-.006.561.002.637.024.76.049 1.194.244.636.287.733.383.93.915l.167.45v4.316h-5.103l.018-2.276.019-2.274.173-.357c.206-.426.293-.507.78-.734.389-.18.754-.267 1.261-.286h0z" fill="url(#paint1_linear_94_17632)" stroke="url(#paint2_linear_94_17632)" stroke-width=".065"/><defs><linearGradient id="paint0_linear_94_17632" x1="32.665" y1="3.734" x2="32.665" y2="29.363" gradientUnits="userSpaceOnUse"><stop stop-color="#00609A"/><stop offset="1" stop-color="#1B3646"/></linearGradient><linearGradient id="paint1_linear_94_17632" x1="105.644" y1=".844" x2="105.644" y2="26.979" gradientUnits="userSpaceOnUse"><stop stop-color="#00609A"/><stop offset="1" stop-color="#1B3646"/></linearGradient><linearGradient id="paint2_linear_94_17632" x1="105.644" y1=".844" x2="105.644" y2="26.979" gradientUnits="userSpaceOnUse"><stop stop-color="#00609A"/><stop offset="1" stop-color="#1B3646"/></linearGradient></defs></svg>