<svg width="185" height="36" fill="none" xmlns="http://www.w3.org/2000/svg"><path d="M100.456 18.341v4.992a.347.347 0 01-.346.345h-3.934c-3.178-.05-4.453-1.519-4.502-4.71.049-3.093 1.187-4.636 4.52-4.683v.007h8.293v-3.417h-8.292c-5.908.03-8.341 2.547-8.459 7.895l-.005.42.005.007c.127 5.19 2.555 7.74 8.292 7.825v.004h6.072c1.401 0 2.407-1.173 2.407-2.409V18.34h-4.051v.001zm32.507 8.677v-6.65h10.091v-3.3h-10.091v-4.983c0-.19.154-.348.348-.348h9.976V8.321h-11.966c-1.4 0-2.408 1.17-2.408 2.409v16.288h4.05zm-57.867-3.399a.346.346 0 01-.347-.347v-2.886h10.086V17.09H74.749v-2.46c0-.187.15-.348.347-.348h9.978v-3.417H73.107c-1.403 0-2.411 1.175-2.411 2.412v11.348c0 1.24 1.008 2.413 2.41 2.413h11.968v-3.419h-9.978zM64.091 7.938c-1.894 0-3.104 1.012-4 3.047l-5.275 12.17-5.278-12.17c-.898-2.035-2.107-3.047-4.003-3.047-1.773 0-3.605 1.27-3.605 4.033v15.067h4.042V12.383l5.31 12.068c.714 1.686 1.86 2.744 3.53 2.747h.004c1.668-.003 2.818-1.061 3.53-2.747l5.309-12.068v14.655h4.043V11.971c0-2.762-1.835-4.034-3.607-4.034zm49.628 12.449l2.49-5.871c.079-.184.221-.233.329-.233h.002c.107 0 .252.049.329.233l2.493 5.87h-5.643zm6.146-7.716c-.679-1.473-2.028-2.191-3.325-2.191h-.002c-1.298 0-2.647.717-3.321 2.19L106.6 27.039h4.305l1.442-3.415h8.387l1.443 3.415h4.304l-6.615-14.367h-.001zm59.663-1.805v10.808l-6.951-9.5c-.587-.74-1.239-1.308-2.581-1.308-1.232 0-2.754.976-2.754 2.828v13.354h4.049V16.242l6.921 9.532c.602.822 1.225 1.274 2.611 1.274 1.233 0 2.753-.885 2.753-2.83V10.866h-4.048zm-24.261 12.981c-4.134 0-5.323-1.52-5.323-4.906v-.018c0-3.285 1.134-4.9 5.323-4.9 4.194 0 5.326 1.615 5.326 4.9v.018c0 3.386-1.192 4.906-5.326 4.906zm9.267-4.924c-.001-5.661-2.257-8.302-9.267-8.302-7.005 0-9.263 2.64-9.266 8.302v.012c0 5.574 2.319 8.262 9.266 8.262 6.949 0 9.267-2.688 9.267-8.262v-.012z" fill="url(#paint0_linear_94_17481)"/><path d="M14.517 15.33a2.027 2.027 0 010-4.055c1.118 0 2.024.908 2.024 2.03a2.025 2.025 0 01-2.024 2.026zm3.105-13.377c-8.947 0-16.196 7.263-16.196 16.224 0 7.776 5.463 14.274 12.752 15.856V19.474h.001a1.325 1.325 0 011.27-1.296h2.047a.179.179 0 00.177-.17l.001-16.052-.052-.003zm11.161 25.074a2.027 2.027 0 010-4.055 2.027 2.027 0 010 4.055zm-4.745 0a2.026 2.026 0 01-2.023-2.029c0-1.117.906-2.026 2.023-2.026a2.027 2.027 0 010 4.055zm-4.748 0a2.029 2.029 0 010-4.055 2.027 2.027 0 010 4.055zm.331-24.952v16.738l-.004.005a1.32 1.32 0 01-1.32 1.309h-1.993c-.1 0-.18.08-.18.179v14.027c.493.045.99.07 1.497.07 8.946 0 16.197-7.265 16.197-16.226 0-8.281-6.195-15.114-14.197-16.101" fill="url(#paint1_linear_94_17481)"/><defs><linearGradient id="paint0_linear_94_17481" x1="112.753" y1="7.938" x2="112.753" y2="27.198" gradientUnits="userSpaceOnUse"><stop stop-color="#00609A"/><stop offset="1" stop-color="#1B3646"/></linearGradient><linearGradient id="paint1_linear_94_17481" x1="17.622" y1="1.953" x2="17.622" y2="34.403" gradientUnits="userSpaceOnUse"><stop stop-color="#00609A"/><stop offset="1" stop-color="#1B3646"/></linearGradient></defs></svg>