<svg width="196" height="31" fill="none" xmlns="http://www.w3.org/2000/svg"><path fill-rule="evenodd" clip-rule="evenodd" d="M71.67 23.953c2.342 0 4.217-.65 5.689-1.95 1.435-1.171 2.377-2.667 2.89-4.487.495-1.755.395-3.252-.363-4.487-.757-1.236-2.265-1.885-4.607-1.885s-4.216.65-5.67 1.885c-1.454 1.235-2.396 2.732-2.89 4.487-.513 1.821-.414 3.316.362 4.487.74 1.3 2.248 1.95 4.59 1.95zm.88-3.121c-.715 0-1.228-.26-1.435-.91-.225-.585-.2-1.366.092-2.406.275-.976.69-1.755 1.264-2.406.555-.585 1.213-.846 1.93-.846.715 0 1.227.26 1.452.846.208.65.182 1.43-.092 2.406-.293 1.04-.708 1.821-1.263 2.406-.574.65-1.232.91-1.949.91zm115.502-.617c-.651 0-1.033-.26-1.211-.78-.244-.52-.256-1.17-.018-2.016.239-.846.635-1.56 1.153-2.017.473-.52 1.047-.715 1.651-.78 1.367 0 1.807.976 1.341 2.861-.238.846-.617 1.496-1.089 2.017-.601.52-1.177.715-1.827.715zm-4.097-8.778l-4.561 16.191h4.683l1.502-5.332c.488 1.04 1.382 1.56 2.552 1.56 1.431 0 2.861-.455 4.325-1.496a8.499 8.499 0 001.868-2.015c.528-.716.95-1.756 1.345-2.926.476-1.691.442-3.187-.121-4.422-.562-1.236-1.746-1.886-3.567-1.886-.715 0-1.42.194-2.227.52-.808.325-1.493.91-2.085 1.626h-.065l.512-1.82h-4.161zm-3.86 7.15c.623-2.212.615-4.032-.236-5.398-.786-1.366-2.341-2.081-4.552-2.081-1.886 0-3.612.585-5.179 1.755-1.63 1.171-2.72 2.732-3.306 4.813-.55 1.95-.339 3.511.668 4.55.925 1.107 2.34 1.626 4.292 1.626 1.431 0 2.805-.26 4.206-.845 1.4-.585 2.539-1.625 3.416-3.121h-4.488c-.222.326-.555.585-.935.78-.315.195-.724.26-1.115.26-.65 0-1.115-.195-1.442-.65-.328-.455-.376-.975-.175-1.69h8.846zm-8.168-2.407c.384-1.365 1.301-2.081 2.751-2.146.566.065 1.032.26 1.247.65.281.39.394.91.229 1.496h-4.227zm-15.869 7.401l2.436-8.648h-4.034l.989-3.512h12.749l-.988 3.512h-4.033l-2.436 8.648h-4.683zm-2.211-7.543c.235-1.756-.114-3.057-1.13-3.837-1.034-.716-2.356-1.105-3.917-1.105-2.016 0-3.724.52-5.29 1.69-1.546 1.107-2.655 2.732-3.241 4.813-.568 2.015-.358 3.576.633 4.682.943 1.04 2.339 1.625 4.29 1.625 1.626 0 3.233-.39 4.623-1.17a7.448 7.448 0 001.936-1.561c.573-.65.988-1.43 1.375-2.34h-4.684c-.193.47-.49.893-.869 1.234-.369.39-.88.586-1.465.586-.716 0-1.163-.26-1.323-.846-.179-.52-.172-1.235.102-2.21.092-.325.267-.716.442-1.106.175-.39.35-.78.572-1.105.221-.326.555-.586.87-.781a2.08 2.08 0 011.132-.325c.52 0 .855.195 1.024.52.252.26.254.716.172 1.235h4.748zm-22.74 5.136c-1.041 0-1.469-.326-1.286-.976.11-.39.332-.715.647-.91a2.597 2.597 0 011.02-.39c.362-.13.836-.195 1.245-.26.492-.13.919-.26 1.411-.39-.174.845-.487 1.495-.977 2.08-.555.586-1.214.846-2.06.846zm6.821 2.34l.056-.194a.996.996 0 01-.301-.78 2.328 2.328 0 01.09-.78l1.593-5.658c.202-.716.385-1.366.438-2.016a2.28 2.28 0 00-.276-1.562c-.262-.454-.756-.78-1.529-1.04-.772-.26-1.841-.39-3.272-.39-2.211 0-4.013.39-5.237 1.04-1.242.716-1.99 1.756-2.357 3.056h4.618c.277-.52.564-.845.944-1.04.427-.13.706-.196 1.031-.196.325 0 .632.066.986.195.289.13.41.39.347.846-.212.52-.758.846-1.64.976-.409.065-.883.13-1.356.195a18.67 18.67 0 00-1.699.26c-.521 0-1.078.13-1.588.325-.557.13-1.151.39-1.614.65-.464.259-.899.65-1.287 1.105-.389.456-.683 1.04-.884 1.756-.33 1.17-.132 2.08.549 2.666.598.65 1.5.91 2.606.91.91 0 1.709-.065 2.433-.325.788-.26 1.567-.715 2.382-1.3l-.106 1.3h5.073v.002zm-40.375.067l2.437-8.648h-4.1l.99-3.512h12.813l-.989 3.512h-4.097l-2.437 8.648h-4.618zm-10.256-3.366c-.65 0-1.032-.26-1.212-.78-.243-.52-.256-1.17-.017-2.016.237-.846.635-1.56 1.153-2.017.472-.52 1.047-.715 1.65-.78 1.367 0 1.808.976 1.341 2.861-.238.846-.617 1.496-1.089 2.017-.6.52-1.176.715-1.826.715zM83.2 11.437l-4.56 16.191h4.683l1.502-5.332c.487 1.04 1.382 1.56 2.553 1.56 1.43 0 2.86-.455 4.323-1.496a8.513 8.513 0 001.869-2.015c.527-.716.95-1.756 1.345-2.926.477-1.691.442-3.187-.12-4.422-.563-1.236-1.746-1.886-3.567-1.886-.716 0-1.42.194-2.228.52-.807.325-1.493.91-2.085 1.626h-.065l.513-1.82H83.2zM50.422 23.58h4.619l2.435-8.648h3.708l-2.436 8.648h4.684l3.424-12.16H53.847l-3.425 12.16zm.694-7.543c.234-1.756-.115-3.057-1.131-3.837-1.034-.716-2.355-1.105-3.917-1.105-2.017 0-3.723.52-5.29 1.69-1.546 1.107-2.655 2.732-3.241 4.813-.568 2.015-.357 3.576.632 4.682.943 1.04 2.34 1.625 4.29 1.625 1.627 0 3.233-.39 4.623-1.17a7.457 7.457 0 001.936-1.561c.574-.65.989-1.43 1.376-2.34H45.71c-.193.471-.49.893-.868 1.234-.37.39-.88.586-1.466.586-.715 0-1.163-.26-1.323-.846-.179-.52-.172-1.235.103-2.21.091-.325.266-.716.441-1.106.175-.39.35-.78.572-1.105.221-.326.555-.586.87-.781a2.085 2.085 0 011.133-.325c.52 0 .855.195 1.024.52.251.26.253.716.172 1.235h4.748z" fill="url(#paint0_linear_94_17734)"/><path fill-rule="evenodd" clip-rule="evenodd" d="M111.961 7.638l3.198 14.885 11.656-14.984-9.291 6.526-5.563-6.427z" fill="url(#paint1_linear_94_17734)"/><path fill-rule="evenodd" clip-rule="evenodd" d="M110.999 11.422l-3.464 12.119h5.996l-2.532-12.12zm14.719 0l-9.259 12.119h5.795l3.464-12.12z" fill="url(#paint2_linear_94_17734)"/><path fill-rule="evenodd" clip-rule="evenodd" d="M36.488 5.063L25.163 17.9 0 5.17l23.787 5.014 12.7-5.121z" fill="url(#paint3_linear_94_17734)"/><path fill-rule="evenodd" clip-rule="evenodd" d="M2.266 30.369l13.27-15.046 29.49 14.92-27.877-5.877-14.883 6.003zM23.044.404a3.974 3.974 0 00-3.634 4.273 3.975 3.975 0 004.274 3.634 3.973 3.973 0 003.635-4.274A3.975 3.975 0 0023.044.404z" fill="url(#paint4_linear_94_17734)"/><defs><linearGradient id="paint0_linear_94_17734" x1="116.613" y1="11.094" x2="116.613" y2="27.628" gradientUnits="userSpaceOnUse"><stop stop-color="#00609A"/><stop offset="1" stop-color="#1B3646"/></linearGradient><linearGradient id="paint1_linear_94_17734" x1="119.388" y1="7.539" x2="119.388" y2="22.523" gradientUnits="userSpaceOnUse"><stop stop-color="#00609A"/><stop offset="1" stop-color="#1B3646"/></linearGradient><linearGradient id="paint2_linear_94_17734" x1="116.626" y1="11.422" x2="116.626" y2="23.541" gradientUnits="userSpaceOnUse"><stop stop-color="#00609A"/><stop offset="1" stop-color="#1B3646"/></linearGradient><linearGradient id="paint3_linear_94_17734" x1="18.244" y1="5.063" x2="18.244" y2="17.9" gradientUnits="userSpaceOnUse"><stop stop-color="#00609A"/><stop offset="1" stop-color="#1B3646"/></linearGradient><linearGradient id="paint4_linear_94_17734" x1="23.646" y1=".391" x2="23.646" y2="30.369" gradientUnits="userSpaceOnUse"><stop stop-color="#00609A"/><stop offset="1" stop-color="#1B3646"/></linearGradient></defs></svg>