<svg width="165" height="40" fill="none" xmlns="http://www.w3.org/2000/svg"><path fill-rule="evenodd" clip-rule="evenodd" d="M133.546 29.07l1.003-19.752-8.787-4.446.224-4.445h38.702l-.214 4.199-10.271 4.692-1.014 20.002 9.544 4.937-.275 5.433h-39.895l.251-4.938 10.732-5.681zm-41.898.531h-5.854l.356-7.282 5.863-.002c3.104-.123 4.488 2.654 3.702 4.445 0 0-.298 2.716-4.067 2.84zm.718-14.138h-5.853l.357-6.843h6.156c2.33-.062 4.003 1.66 3.495 3.845 0 0-.147 3-4.155 2.998zM109.132.36s7.467-.803 8.911 8.678c0 0 .595 6.537-6.037 10.372 7.23 2.092 5.917 10.857 5.917 10.857-2.185 9.96-12.363 9.391-12.363 9.391H56.29l.302-4.94 9.183-5.67.875-20.023-8.608-4.189.301-4.444L109.132.36zM27.874 5.766h1.147c2.639 0 4.665 2.212 4.527 4.94l-.905 17.876c-.139 2.726-2.39 4.938-5.03 4.938h-1.146c-2.64 0-4.665-2.21-4.528-4.938l.906-17.877c.139-2.727 2.39-4.939 5.029-4.939zM18.172.392h21.202c9.236 0 16.33 7.74 15.847 17.285l-.238 4.692c-.484 9.545-8.363 17.285-17.598 17.285H16.182c-9.235 0-16.33-7.74-15.846-17.285l.237-4.692C1.058 8.13 8.937.392 18.172.392z" fill="url(#paint0_linear_94_17477)"/><defs><linearGradient id="paint0_linear_94_17477" x1="82.5" y1=".344" x2="82.5" y2="39.69" gradientUnits="userSpaceOnUse"><stop stop-color="#00609A"/><stop offset="1" stop-color="#1B3646"/></linearGradient></defs></svg>