<svg width="122" height="48" fill="none" xmlns="http://www.w3.org/2000/svg"><path d="M1.715 17.607v6.437l17.364-1.91v-6.967l-17.364 2.44zm5.541 6.829v22.057h6.357V23.786l-6.357.65zm14.168-9.598v31.655h6.7V13.896l-6.7.942zm7.947-1.118v7.282l9.673-1.064v-7.577l-9.673 1.36zm0 12.702v7.415l6.35-.347v-7.614l-6.35.546zm0 12.76v7.31h9.673V38.89l-9.673.291zM64.06 8.833v37.659h8.781V7.6L64.06 8.834zM74.48 7.37v8.663l12.798-1.408V5.57L74.48 7.37zm0 15.177v8.823l8.388-.458v-9.083l-8.388.718zm0 15.272v8.675h12.8V37.43l-12.798.387zM41.604 12v34.492h7.63V10.928l-7.63 1.073zm9.054 26.538v7.953h11.077v-8.287l-11.077.334zM115.97 5.144c-2.776-2.622-6.845-3.697-11.296-3.058v9.608c1.803-.1 3.263.568 3.914 1.915 1.027 2.124-.033 5.31-2.533 8.261-3.86 4.555-14.125 13.878-14.125 13.878l14.735-.485c9.003-8.795 12.236-14.134 12.816-20.798.305-3.525-.974-6.922-3.511-9.32zm4.031 41.349V36.44l-29.887.9 29.887 9.153zM90.114 37.34l.004 9.152H120L90.114 37.34zm12.842-35.038C94.274 4.15 90.01 10.538 90.502 20.96l9.258-.822c-.422-5.888 1.379-7.285 3.201-8.053l-.005-9.784z" fill="url(#paint0_linear_94_17638)"/><defs><linearGradient id="paint0_linear_94_17638" x1="60.858" y1="1.906" x2="60.858" y2="46.493" gradientUnits="userSpaceOnUse"><stop stop-color="#00609A"/><stop offset="1" stop-color="#1B3646"/></linearGradient></defs></svg>