<svg width="162" height="83" fill="none" xmlns="http://www.w3.org/2000/svg"><path fill-rule="evenodd" clip-rule="evenodd" d="M61.444 61.998v-1.426h-3.63v1.426h-.423v-3.06h.424v1.327h3.629v-1.328h.419v3.061h-.42z" fill="url(#paint0_linear_94_17589)"/><path fill-rule="evenodd" clip-rule="evenodd" d="M63.29 61.998v-3.06h3.614v.305h-3.198v1.022h3.114v.302h-3.114v1.124h3.198v.307H63.29z" fill="url(#paint1_linear_94_17589)"/><path fill-rule="evenodd" clip-rule="evenodd" d="M74.242 60.653v-.381c0-.728-.362-1.094-1.506-1.094H71.49v-.272h-.425v.272h-1.231c-1.152 0-1.514.305-1.514 1.094v.381c0 .779.408 1.048 1.514 1.048h1.23v.3h.426v-.3h1.246c1.098 0 1.506-.255 1.506-1.048zm-.426 0c0 .59-.285.745-1.08.745H71.49v-1.914h1.246c.755 0 1.08.177 1.08.771v.398zm-2.751.745h-1.231c-.796 0-1.1-.155-1.1-.75v-.406c0-.586.333-.758 1.1-.758h1.23v1.914z" fill="url(#paint2_linear_94_17589)"/><path fill-rule="evenodd" clip-rule="evenodd" d="M77.47 59.243v2.755h.422v-2.755h1.996v-.306h-4.4v.306h1.981z" fill="url(#paint3_linear_94_17589)"/><path fill-rule="evenodd" clip-rule="evenodd" d="M85.214 61.997v-3.06h-2.75c-1.017 0-1.436.252-1.436.948 0 .575.42.844 1.22.844l-1.389 1.27h.588l1.307-1.27h2.035v1.27h.425v-.002zm-.425-1.571H82.33c-.654 0-.882-.085-.882-.541 0-.475.24-.643.84-.643h2.5v1.184z" fill="url(#paint4_linear_94_17589)"/><path fill-rule="evenodd" clip-rule="evenodd" d="M90.803 61.998v-1.426h-3.627v1.426h-.422v-3.06h.422v1.327h3.627v-1.328h.424v3.061h-.424z" fill="url(#paint5_linear_94_17589)"/><path fill-rule="evenodd" clip-rule="evenodd" d="M97.227 61.997l-2.116-3.06h-.65l-2.113 3.06h.466l.525-.767h2.872l.52.767h.496zm-1.237-1.08h-2.42l1.207-1.76 1.214 1.76z" fill="url(#paint6_linear_94_17589)"/><path fill-rule="evenodd" clip-rule="evenodd" d="M102.052 61.998v-1.27h-2.034l-1.314 1.27h-.579l1.379-1.27c-.8 0-1.213-.268-1.213-.843 0-.696.413-.947 1.43-.947h2.757v3.06h-.426zm0-2.755h-2.5c-.6 0-.848.167-.848.643 0 .456.231.54.889.54h2.459v-1.183z" fill="url(#paint7_linear_94_17589)"/><path fill-rule="evenodd" clip-rule="evenodd" d="M110.315 61.998h.742l-2.954-1.604 2.888-1.456h-.749l-2.578 1.312h-.685v-1.313h-.424v3.061h.424v-1.44h.703l2.633 1.44z" fill="url(#paint8_linear_94_17589)"/><path fill-rule="evenodd" clip-rule="evenodd" d="M116.552 60.953c0 .6-.2.744-1.058.744h-1.787c-.795 0-1.092-.154-1.092-.744v-.976c0-.596.326-.757 1.092-.757h1.787c.815 0 1.058.151 1.058.757v.976zm.419 0v-.957c0-.89-.486-1.09-1.477-1.09h-1.782c-1.16 0-1.521.313-1.521 1.09v.957c0 .786.412 1.05 1.521 1.05h1.782c1.086 0 1.477-.178 1.477-1.05z" fill="url(#paint9_linear_94_17589)"/><path fill-rule="evenodd" clip-rule="evenodd" d="M123.394 58.938h.909v3.06h-.424v-2.812h-.235l-2.204 2.812h-.217l-2.201-2.812h-.238v2.812h-.421v-3.06h.903l2.071 2.61 2.057-2.61z" fill="url(#paint10_linear_94_17589)"/><path fill-rule="evenodd" clip-rule="evenodd" d="M126.245 61.998v-2.755h3.618v2.755h.427v-3.06h-4.474v3.06h.429z" fill="url(#paint11_linear_94_17589)"/><path fill-rule="evenodd" clip-rule="evenodd" d="M135.796 61.997l-.519-.767h-2.871l-.533.767h-.467l2.119-3.06h.642l2.116 3.06h-.487zm-1.95-2.841l-1.216 1.76h2.426l-1.21-1.76z" fill="url(#paint12_linear_94_17589)"/><path fill-rule="evenodd" clip-rule="evenodd" d="M141.963 61.998v-3.06h-.42v1.327h-3.622v-1.328h-.429v3.061h.429v-1.426h3.622v1.426h.42z" fill="url(#paint13_linear_94_17589)"/><path fill-rule="evenodd" clip-rule="evenodd" d="M147.889 61.998v-3.06h-.824l-3.228 2.822h-.037v-2.822h-.417v3.06h.686l3.237-2.824h.156v2.824h.427z" fill="url(#paint14_linear_94_17589)"/><path fill-rule="evenodd" clip-rule="evenodd" d="M153 60.426h-2.464c-.657 0-.878-.085-.878-.541 0-.475.232-.643.832-.643H153v1.184zm.416 1.571v-3.06h-2.749c-1.009 0-1.433.252-1.433.948 0 .575.424.844 1.222.844l-1.394 1.27h.596l1.3-1.27H153v1.27h.416v-.002z" fill="url(#paint15_linear_94_17589)"/><path fill-rule="evenodd" clip-rule="evenodd" d="M57.352 66.53s9.195-.124 9.932.369c.736.487 1.47.983 1.594 1.96.122.981-.49 4.042-2.82 4.166-2.328.122-5.022-.124-5.022-.124l-.12 2.452-3.678-.122.114-8.702z" fill="url(#paint16_linear_94_17589)"/><path fill-rule="evenodd" clip-rule="evenodd" d="M61.158 68.979l-.119 1.473s2.938.61 3.55 0c.614-.61.122-1.593-.856-1.593s-2.575.12-2.575.12z" fill="#EFF5F8"/><path fill-rule="evenodd" clip-rule="evenodd" d="M68.88 68.865c.985-1.102 2.7-2.82 6.615-2.576 3.922.247 6.01 1.835 6.01 3.684 0 1.832.116 4.283-2.212 5.014-2.325.74-4.657.74-6.249.499-1.593-.249-4.164-1.722-4.53-3.68-.37-1.96.366-2.941.366-2.941z" fill="url(#paint17_linear_94_17589)"/><path fill-rule="evenodd" clip-rule="evenodd" d="M72.556 71.184c-.224-1.583 1.1-2.575 2.202-2.575 1.101 0 2.935.125 2.814 2.21-.12 2.081-.237 1.958-1.34 2.328-1.103.367-3.31.738-3.676-1.963z" fill="#EFF5F8"/><path fill-rule="evenodd" clip-rule="evenodd" d="M94.61 69.971c-.61-1.109-1.954-3.196-4.042-3.314-2.083-.123-4.903-.37-6.25.118-1.35.495-2.445 1.716-2.693 2.82-.243 1.106-.496 3.556 1.101 4.659 1.592 1.103 4.171 1.963 6.618 1.47 2.446-.489 4.777-1.47 5.145-3.554h-4.164s-1.108 1.472-2.45 1.349c0 0-1.234.37-2.089-.853-.853-1.231-.733-2.333.122-3.437.866-1.106 3.189-.739 3.435-.247.244.492.612 1.225.612 1.225l4.654-.236z" fill="url(#paint18_linear_94_17589)"/><path fill-rule="evenodd" clip-rule="evenodd" d="M94.245 66.774h3.8v2.945h3.793V66.53h3.925v8.824h-3.679v-2.94h-3.916v2.94h-4.047l.124-8.581z" fill="url(#paint19_linear_94_17589)"/><path fill-rule="evenodd" clip-rule="evenodd" d="M106.992 66.531l10.905.125v2.205h-6.615v.858h5.515v2.45h-5.763v1.107h7.107v2.325h-11.028l-.121-9.07z" fill="url(#paint20_linear_94_17589)"/><path fill-rule="evenodd" clip-rule="evenodd" d="M123.531 66.531h3.8s-.242.615.253.494c.482-.123 3.791-.252 4.775.98.978 1.222 1.348 2.816.364 3.92-.984 1.104-1.841 1.592-2.447 1.592-.619 0-2.692.123-2.692.123v1.96h-4.053v-2.083s-2.574-.123-3.432-.367c-.853-.247-2.451-1.225-2.451-2.817 0-1.595.858-2.945 2.088-3.064 1.221-.122 3.55-.122 3.55-.122l.245-.616z" fill="url(#paint21_linear_94_17589)"/><path fill-rule="evenodd" clip-rule="evenodd" d="M123.531 69.232l-.123 1.837s-1.959.247-1.959-.484c0-.738.37-1.474 2.082-1.353zm4.051.119l.116 1.716s1.103.493 1.72-.366c.606-.857-.496-1.472-1.836-1.35z" fill="#EFF5F8"/><path fill-rule="evenodd" clip-rule="evenodd" d="M135.295 69.232v6.496h3.92v-6.496h3.552l.742-.978-1.102-1.348h-10.294c.002 0-.493 1.96.609 2.08 1.102.124 2.573.246 2.573.246z" fill="url(#paint22_linear_94_17589)"/><path fill-rule="evenodd" clip-rule="evenodd" d="M146.688 66.906v2.448s4.661-.243 5.52.243c.857.492 1.714 1.23 1.836 2.082.122.863-.122 2.214-.979 2.946-.857.735-1.835 1.224-2.823 1.224h-7.101v-8.82l3.547-.123z" fill="url(#paint23_linear_94_17589)"/><path fill-rule="evenodd" clip-rule="evenodd" d="M147.062 71.925v1.47h2.447c.61 0 1.472-1.347.367-1.592-1.101-.245-2.814.123-2.814.123z" fill="#EFF5F8"/><path fill-rule="evenodd" clip-rule="evenodd" d="M7.11 26.094h6.252v21.202L7.109 41.78V26.094z" fill="url(#paint24_linear_94_17589)"/><path fill-rule="evenodd" clip-rule="evenodd" d="M14.59 19.11h6.004v35.05l-6.004-5.768V19.11z" fill="url(#paint25_linear_94_17589)"/><path fill-rule="evenodd" clip-rule="evenodd" d="M21.82 12.125h6.128v33.208H21.82V12.125z" fill="url(#paint26_linear_94_17589)"/><path fill-rule="evenodd" clip-rule="evenodd" d="M29.172 5.14h6.373v33.332h-6.373V5.14z" fill="url(#paint27_linear_94_17589)"/><path fill-rule="evenodd" clip-rule="evenodd" d="M36.402 11.75h6.13v33.58h-6.13V11.75z" fill="url(#paint28_linear_94_17589)"/><path fill-rule="evenodd" clip-rule="evenodd" d="M44 18.984h6.004v29.29L44 54.165v-35.18z" fill="url(#paint29_linear_94_17589)"/><path fill-rule="evenodd" clip-rule="evenodd" d="M51.105 25.969h6.133v15.32l-6.133 6.006V25.969z" fill="url(#paint30_linear_94_17589)"/><path fill-rule="evenodd" clip-rule="evenodd" d="M21.82 46.078h6.128v30.749H21.82V46.078z" fill="url(#paint31_linear_94_17589)"/><path fill-rule="evenodd" clip-rule="evenodd" d="M29.172 39.453h6.002V76.82h-6.002V39.453z" fill="url(#paint32_linear_94_17589)"/><path fill-rule="evenodd" clip-rule="evenodd" d="M36.402 46.188h6.13v30.631h-6.13V46.187z" fill="url(#paint33_linear_94_17589)"/><defs><linearGradient id="paint0_linear_94_17589" x1="59.627" y1="58.938" x2="59.627" y2="61.998" gradientUnits="userSpaceOnUse"><stop stop-color="#00609A"/><stop offset="1" stop-color="#1B3646"/></linearGradient><linearGradient id="paint1_linear_94_17589" x1="65.097" y1="58.938" x2="65.097" y2="61.998" gradientUnits="userSpaceOnUse"><stop stop-color="#00609A"/><stop offset="1" stop-color="#1B3646"/></linearGradient><linearGradient id="paint2_linear_94_17589" x1="71.281" y1="58.906" x2="71.281" y2="62.002" gradientUnits="userSpaceOnUse"><stop stop-color="#00609A"/><stop offset="1" stop-color="#1B3646"/></linearGradient><linearGradient id="paint3_linear_94_17589" x1="77.688" y1="58.938" x2="77.688" y2="61.998" gradientUnits="userSpaceOnUse"><stop stop-color="#00609A"/><stop offset="1" stop-color="#1B3646"/></linearGradient><linearGradient id="paint4_linear_94_17589" x1="83.037" y1="58.938" x2="83.037" y2="61.998" gradientUnits="userSpaceOnUse"><stop stop-color="#00609A"/><stop offset="1" stop-color="#1B3646"/></linearGradient><linearGradient id="paint5_linear_94_17589" x1="88.99" y1="58.938" x2="88.99" y2="61.998" gradientUnits="userSpaceOnUse"><stop stop-color="#00609A"/><stop offset="1" stop-color="#1B3646"/></linearGradient><linearGradient id="paint6_linear_94_17589" x1="94.787" y1="58.938" x2="94.787" y2="61.997" gradientUnits="userSpaceOnUse"><stop stop-color="#00609A"/><stop offset="1" stop-color="#1B3646"/></linearGradient><linearGradient id="paint7_linear_94_17589" x1="100.301" y1="58.938" x2="100.301" y2="61.998" gradientUnits="userSpaceOnUse"><stop stop-color="#00609A"/><stop offset="1" stop-color="#1B3646"/></linearGradient><linearGradient id="paint8_linear_94_17589" x1="108.806" y1="58.938" x2="108.806" y2="61.998" gradientUnits="userSpaceOnUse"><stop stop-color="#00609A"/><stop offset="1" stop-color="#1B3646"/></linearGradient><linearGradient id="paint9_linear_94_17589" x1="114.581" y1="58.906" x2="114.581" y2="62.003" gradientUnits="userSpaceOnUse"><stop stop-color="#00609A"/><stop offset="1" stop-color="#1B3646"/></linearGradient><linearGradient id="paint10_linear_94_17589" x1="121.333" y1="58.938" x2="121.333" y2="61.998" gradientUnits="userSpaceOnUse"><stop stop-color="#00609A"/><stop offset="1" stop-color="#1B3646"/></linearGradient><linearGradient id="paint11_linear_94_17589" x1="128.053" y1="58.938" x2="128.053" y2="61.998" gradientUnits="userSpaceOnUse"><stop stop-color="#00609A"/><stop offset="1" stop-color="#1B3646"/></linearGradient><linearGradient id="paint12_linear_94_17589" x1="133.845" y1="58.938" x2="133.845" y2="61.997" gradientUnits="userSpaceOnUse"><stop stop-color="#00609A"/><stop offset="1" stop-color="#1B3646"/></linearGradient><linearGradient id="paint13_linear_94_17589" x1="139.728" y1="58.938" x2="139.728" y2="61.998" gradientUnits="userSpaceOnUse"><stop stop-color="#00609A"/><stop offset="1" stop-color="#1B3646"/></linearGradient><linearGradient id="paint14_linear_94_17589" x1="145.636" y1="58.938" x2="145.636" y2="61.998" gradientUnits="userSpaceOnUse"><stop stop-color="#00609A"/><stop offset="1" stop-color="#1B3646"/></linearGradient><linearGradient id="paint15_linear_94_17589" x1="151.239" y1="58.938" x2="151.239" y2="61.998" gradientUnits="userSpaceOnUse"><stop stop-color="#00609A"/><stop offset="1" stop-color="#1B3646"/></linearGradient><linearGradient id="paint16_linear_94_17589" x1="63.065" y1="66.516" x2="63.065" y2="75.353" gradientUnits="userSpaceOnUse"><stop stop-color="#00609A"/><stop offset="1" stop-color="#1B3646"/></linearGradient><linearGradient id="paint17_linear_94_17589" x1="74.958" y1="66.266" x2="74.958" y2="75.629" gradientUnits="userSpaceOnUse"><stop stop-color="#00609A"/><stop offset="1" stop-color="#1B3646"/></linearGradient><linearGradient id="paint18_linear_94_17589" x1="88.027" y1="66.484" x2="88.027" y2="75.867" gradientUnits="userSpaceOnUse"><stop stop-color="#00609A"/><stop offset="1" stop-color="#1B3646"/></linearGradient><linearGradient id="paint19_linear_94_17589" x1="99.942" y1="66.531" x2="99.942" y2="75.355" gradientUnits="userSpaceOnUse"><stop stop-color="#00609A"/><stop offset="1" stop-color="#1B3646"/></linearGradient><linearGradient id="paint20_linear_94_17589" x1="112.566" y1="66.531" x2="112.566" y2="75.601" gradientUnits="userSpaceOnUse"><stop stop-color="#00609A"/><stop offset="1" stop-color="#1B3646"/></linearGradient><linearGradient id="paint21_linear_94_17589" x1="125.475" y1="66.531" x2="125.475" y2="75.601" gradientUnits="userSpaceOnUse"><stop stop-color="#00609A"/><stop offset="1" stop-color="#1B3646"/></linearGradient><linearGradient id="paint22_linear_94_17589" x1="137.756" y1="66.906" x2="137.756" y2="75.728" gradientUnits="userSpaceOnUse"><stop stop-color="#00609A"/><stop offset="1" stop-color="#1B3646"/></linearGradient><linearGradient id="paint23_linear_94_17589" x1="148.607" y1="66.906" x2="148.607" y2="75.849" gradientUnits="userSpaceOnUse"><stop stop-color="#00609A"/><stop offset="1" stop-color="#1B3646"/></linearGradient><linearGradient id="paint24_linear_94_17589" x1="10.236" y1="26.094" x2="10.236" y2="47.296" gradientUnits="userSpaceOnUse"><stop stop-color="#00609A"/><stop offset="1" stop-color="#1B3646"/></linearGradient><linearGradient id="paint25_linear_94_17589" x1="17.592" y1="19.109" x2="17.592" y2="54.16" gradientUnits="userSpaceOnUse"><stop stop-color="#00609A"/><stop offset="1" stop-color="#1B3646"/></linearGradient><linearGradient id="paint26_linear_94_17589" x1="24.884" y1="12.125" x2="24.884" y2="45.333" gradientUnits="userSpaceOnUse"><stop stop-color="#00609A"/><stop offset="1" stop-color="#1B3646"/></linearGradient><linearGradient id="paint27_linear_94_17589" x1="32.358" y1="5.141" x2="32.358" y2="38.472" gradientUnits="userSpaceOnUse"><stop stop-color="#00609A"/><stop offset="1" stop-color="#1B3646"/></linearGradient><linearGradient id="paint28_linear_94_17589" x1="39.467" y1="11.75" x2="39.467" y2="45.329" gradientUnits="userSpaceOnUse"><stop stop-color="#00609A"/><stop offset="1" stop-color="#1B3646"/></linearGradient><linearGradient id="paint29_linear_94_17589" x1="47.002" y1="18.984" x2="47.002" y2="54.163" gradientUnits="userSpaceOnUse"><stop stop-color="#00609A"/><stop offset="1" stop-color="#1B3646"/></linearGradient><linearGradient id="paint30_linear_94_17589" x1="54.172" y1="25.969" x2="54.172" y2="47.295" gradientUnits="userSpaceOnUse"><stop stop-color="#00609A"/><stop offset="1" stop-color="#1B3646"/></linearGradient><linearGradient id="paint31_linear_94_17589" x1="24.884" y1="46.078" x2="24.884" y2="76.827" gradientUnits="userSpaceOnUse"><stop stop-color="#00609A"/><stop offset="1" stop-color="#1B3646"/></linearGradient><linearGradient id="paint32_linear_94_17589" x1="32.173" y1="39.453" x2="32.173" y2="76.82" gradientUnits="userSpaceOnUse"><stop stop-color="#00609A"/><stop offset="1" stop-color="#1B3646"/></linearGradient><linearGradient id="paint33_linear_94_17589" x1="39.467" y1="46.188" x2="39.467" y2="76.819" gradientUnits="userSpaceOnUse"><stop stop-color="#00609A"/><stop offset="1" stop-color="#1B3646"/></linearGradient></defs></svg>