<svg width="116" height="68" fill="none" xmlns="http://www.w3.org/2000/svg"><g clip-path="url(#clip0_94_17727)"><path d="M9.969.008h96.062C111.537.008 116 4.473 116 9.98v48.048c0 5.508-4.463 9.973-9.969 9.973H9.969C4.463 68 0 63.536 0 58.028V9.98C0 4.473 4.463.008 9.969.008z" fill="url(#paint0_linear_94_17727)"/><path d="M97.082 24.49h3.965a4.651 4.651 0 014.644 4.646 4.651 4.651 0 01-4.644 4.646h-3.965v6.913c0 2.81-2.288 5.1-5.098 5.1a5.106 5.106 0 01-5.097-5.1V23.583c0-6.89 5.573-12.465 12.46-12.465h3.512a4.652 4.652 0 014.645 4.646 4.652 4.652 0 01-4.645 4.646h-3.285a2.485 2.485 0 00-2.492 2.493v1.587zm-20.73 0h3.964a4.652 4.652 0 014.645 4.646 4.652 4.652 0 01-4.645 4.646h-3.964V53.16c0 2.81-2.289 5.1-5.098 5.1a5.106 5.106 0 01-5.098-5.1V23.583c0-6.89 5.574-12.465 12.461-12.465h3.512a4.652 4.652 0 014.644 4.646 4.652 4.652 0 01-4.644 4.646h-3.285a2.485 2.485 0 00-2.492 2.493v1.587zM19.598 46.429v6.754c0 2.81-2.289 5.1-5.098 5.1a5.106 5.106 0 01-5.098-5.1v-38.53c0-2.833 2.289-5.122 5.098-5.122a5.106 5.106 0 015.098 5.1v9.972h6.57v-9.972c0-2.81 2.288-5.1 5.098-5.1a5.106 5.106 0 015.097 5.1V53.16c0 2.81-2.288 5.1-5.097 5.1a5.106 5.106 0 01-5.098-5.1V36.162a2.485 2.485 0 00-2.492-2.493h-4.078v12.76zm31.379-24.546h.453c6.887 0 12.46 5.576 12.46 12.466v11.445c0 6.89-5.573 12.465-12.46 12.465h-.453c-6.888 0-12.461-5.575-12.461-12.465V34.35c0-6.89 5.573-12.466 12.46-12.466zm.226 9.066a2.592 2.592 0 00-2.605 2.606v13.032a2.592 2.592 0 002.605 2.607 2.592 2.592 0 002.606-2.607V33.555a2.592 2.592 0 00-2.606-2.606zm40.781 16.205a5.667 5.667 0 010 11.332 5.667 5.667 0 010-11.332z" fill="#EFF5F8"/></g><defs><linearGradient id="paint0_linear_94_17727" x1="58" y1=".008" x2="58" y2="68.001" gradientUnits="userSpaceOnUse"><stop stop-color="#00609A"/><stop offset="1" stop-color="#1B3646"/></linearGradient><clipPath id="clip0_94_17727"><path fill="#fff" d="M0 0h116v68H0z"/></clipPath></defs></svg>