<svg width="71" height="83" fill="none" xmlns="http://www.w3.org/2000/svg"><g clip-path="url(#clip0_94_17675)"><path d="M65.467 0H4.497C2.015 0 0 2.359 0 5.268v71.417c0 2.91 2.014 5.268 4.498 5.268h60.969c2.484 0 4.498-2.359 4.498-5.268V5.268C69.965 2.358 67.95 0 65.467 0z" fill="#EFF5F8"/><path d="M65.546 1.813H5.463c-2.394 0-4.334 2.258-4.334 5.045v69.95c0 2.786 1.94 5.045 4.334 5.045h60.083c2.394 0 4.334-2.259 4.334-5.046V6.858c0-2.787-1.94-5.045-4.334-5.045z" fill="url(#paint0_linear_94_17675)" stroke="url(#paint1_linear_94_17675)" stroke-width="2.237"/><path d="M63.684 3.54H7.33c-2.244 0-4.064 2.16-4.064 4.827v66.927c0 2.666 1.82 4.828 4.064 4.828h56.354c2.245 0 4.065-2.162 4.065-4.828V8.367c0-2.667-1.82-4.828-4.065-4.828z" stroke="#EFF5F8" stroke-width=".911"/><path d="M12.053 25.838v4.471h2.016c.805 0 1.43-.196 1.879-.59.454-.393.68-.943.68-1.65 0-.706-.223-1.253-.671-1.64-.449-.394-1.078-.59-1.888-.59h-2.016zm-1.74-1.322h3.756c1.437 0 2.525.303 3.266.908.741.6 1.112 1.482 1.112 2.646 0 1.174-.37 2.061-1.112 2.662-.735.6-1.824.9-3.266.9h-2.016v4.781h-1.74V24.517zm14.223 1.418l-1.835 6.088h3.67l-1.835-6.088zm-1.051-1.418h2.11l3.939 11.898h-1.801l-.948-3.1h-4.507l-.93 3.1h-1.801l3.938-11.898zm15.661 10.543h1.043v3.92h-1.465v-2.566h-7.126v2.567h-1.465v-3.921h.663c.276 0 .526-.882.75-2.646.172-1.36.259-2.755.259-4.184v-3.713h7.341v10.543zm-1.75-9.189h-3.842v2.367c0 1.19-.08 2.548-.242 4.072-.155 1.525-.25 2.325-.284 2.4a.525.525 0 00-.043.174c0 .117.135.176.405.176h4.007V25.87zm4.264 10.543V24.517h1.68v9.794l4.343-9.794h2.206v11.898h-1.68V26.62l-4.343 9.794H41.66zm17.216-5.94c0-1.748-.195-2.996-.586-3.746-.385-.749-1.02-1.123-1.904-1.123-.88 0-1.514.374-1.905 1.123-.385.75-.577 1.998-.577 3.746 0 1.742.192 2.988.577 3.737.391.75 1.026 1.124 1.905 1.124.884 0 1.52-.372 1.904-1.116.39-.749.586-1.997.586-3.745zm1.818 0c0 2.072-.356 3.618-1.068 4.638-.707 1.02-1.787 1.53-3.24 1.53-1.454 0-2.534-.507-3.24-1.522-.707-1.015-1.06-2.563-1.06-4.646 0-2.077.353-3.626 1.06-4.646.712-1.02 1.792-1.53 3.24-1.53 1.453 0 2.533.51 3.24 1.53.712 1.02 1.068 2.569 1.068 4.646zM23.22 55.45h1.043v3.92h-1.465v-2.566h-7.126v2.566h-1.465v-3.92h.663c.276 0 .526-.883.75-2.646.173-1.36.259-2.755.259-4.184v-3.714h7.341V55.45zm-1.749-9.189h-3.843v2.367c0 1.19-.08 2.547-.241 4.072-.155 1.525-.25 2.324-.285 2.399a.527.527 0 00-.043.175c0 .117.135.175.405.175h4.007v-9.188zm8.378.064l-1.836 6.088h3.67l-1.834-6.088zm-1.052-1.419h2.111l3.938 11.898h-1.8l-.949-3.1h-4.506l-.93 3.1h-1.802l3.938-11.898zm7.539 4.088v-4.088h1.75v3.881c0 .866.157 1.405.473 1.618.316.212.787.319 1.413.319.672 0 1.184-.037 1.534-.112.35-.08.787-.303 1.31-.67v-5.036h1.749v11.898h-1.75V51.56c-.677.309-1.231.494-1.662.558-.431.059-1.008.088-1.732.088-1.051 0-1.83-.26-2.335-.781-.5-.52-.75-1.33-.75-2.43zm14.743-2.669l-1.835 6.088h3.67l-1.835-6.088zm-1.051-1.419h2.11l3.939 11.898h-1.801l-.948-3.1h-4.507l-.93 3.1H46.09l3.938-11.898z" fill="#EFF5F8"/></g><defs><linearGradient id="paint0_linear_94_17675" x1="35.505" y1="1.813" x2="35.505" y2="81.853" gradientUnits="userSpaceOnUse"><stop stop-color="#00609A"/><stop offset="1" stop-color="#1B3646"/></linearGradient><linearGradient id="paint1_linear_94_17675" x1="35.505" y1="1.813" x2="35.505" y2="81.853" gradientUnits="userSpaceOnUse"><stop stop-color="#00609A"/><stop offset="1" stop-color="#1B3646"/></linearGradient><clipPath id="clip0_94_17675"><path fill="#fff" d="M0 0h71v82.971H0z"/></clipPath></defs></svg>