<svg width="136" height="47" fill="none" xmlns="http://www.w3.org/2000/svg"><path d="M31.529 40.71c5.237 0 9.482-4.219 9.482-9.422s-4.245-9.42-9.482-9.42c-5.237 0-9.482 4.217-9.482 9.42s4.245 9.421 9.482 9.421z" fill="url(#paint0_linear_94_17490)"/><path d="M13.707 35.677c2.437 0 4.413-1.964 4.413-4.386 0-2.421-1.976-4.385-4.413-4.385-2.438 0-4.414 1.964-4.414 4.386 0 2.421 1.976 4.385 4.414 4.385z" fill="url(#paint1_linear_94_17490)"/><path d="M31.529 19.643c3.37 0 6.103-2.715 6.103-6.064S34.9 7.516 31.529 7.516c-3.37 0-6.103 2.714-6.103 6.063 0 3.35 2.732 6.064 6.103 6.064z" fill="url(#paint2_linear_94_17490)"/><path d="M13.707 21.32c4.303 0 7.792-3.466 7.792-7.742s-3.489-7.742-7.792-7.742c-4.304 0-7.793 3.466-7.793 7.742s3.489 7.743 7.793 7.743z" fill="url(#paint3_linear_94_17490)"/><path d="M65.663 35.623h4.922L61.469 10.96h-3.57L48.78 35.623h4.923l1.74-4.707h8.478l1.74 4.707-8.846-8.418 2.868-7.755 2.866 7.755h-5.734l8.847 8.418zm17.124-16.837l-4.53 12.25-4.528-12.25h-4.625l6.227 16.837h5.853l6.225-16.837h-4.623zm6.558 0h4.625v16.837h-4.625V18.786z" fill="url(#paint4_linear_94_17490)"/><path d="M91.673 16.87a2.968 2.968 0 002.978-2.958 2.968 2.968 0 00-2.978-2.959 2.968 2.968 0 00-2.978 2.959 2.968 2.968 0 002.978 2.958z" fill="url(#paint5_linear_94_17490)"/><path d="M110.3 22.496v-3.71h-5.54V14.14h-4.622v4.644h-3.657v3.71h3.657v7.245c0 3.736 1.88 6.23 6.682 6.23 1.854 0 3.48-.676 3.48-.676l-.562-3.636s-.91.27-2.029.27c-1.372 0-2.949-.587-2.949-2.471v-6.962h5.54zm10.606 9.278c-2.579 0-4.668-2.032-4.668-4.537 0-2.503 2.089-4.534 4.667-4.534 2.579 0 4.668 2.032 4.668 4.535 0 2.505-2.089 4.536-4.667 4.536zm0-13.419c-5.013 0-9.078 3.951-9.078 8.821 0 4.872 4.065 8.821 9.077 8.821 5.01 0 9.075-3.949 9.075-8.82 0-4.87-4.065-8.822-9.075-8.822" fill="url(#paint6_linear_94_17490)"/><defs><linearGradient id="paint0_linear_94_17490" x1="31.529" y1="21.867" x2="31.529" y2="40.709" gradientUnits="userSpaceOnUse"><stop stop-color="#00609A"/><stop offset="1" stop-color="#1B3646"/></linearGradient><linearGradient id="paint1_linear_94_17490" x1="13.707" y1="26.906" x2="13.707" y2="35.677" gradientUnits="userSpaceOnUse"><stop stop-color="#00609A"/><stop offset="1" stop-color="#1B3646"/></linearGradient><linearGradient id="paint2_linear_94_17490" x1="31.529" y1="7.516" x2="31.529" y2="19.643" gradientUnits="userSpaceOnUse"><stop stop-color="#00609A"/><stop offset="1" stop-color="#1B3646"/></linearGradient><linearGradient id="paint3_linear_94_17490" x1="13.707" y1="5.836" x2="13.707" y2="21.321" gradientUnits="userSpaceOnUse"><stop stop-color="#00609A"/><stop offset="1" stop-color="#1B3646"/></linearGradient><linearGradient id="paint4_linear_94_17490" x1="71.376" y1="10.961" x2="71.376" y2="35.623" gradientUnits="userSpaceOnUse"><stop stop-color="#00609A"/><stop offset="1" stop-color="#1B3646"/></linearGradient><linearGradient id="paint5_linear_94_17490" x1="91.673" y1="10.953" x2="91.673" y2="16.87" gradientUnits="userSpaceOnUse"><stop stop-color="#00609A"/><stop offset="1" stop-color="#1B3646"/></linearGradient><linearGradient id="paint6_linear_94_17490" x1="113.23" y1="14.141" x2="113.23" y2="35.997" gradientUnits="userSpaceOnUse"><stop stop-color="#00609A"/><stop offset="1" stop-color="#1B3646"/></linearGradient></defs></svg>