<svg width="140" height="34" fill="none" xmlns="http://www.w3.org/2000/svg"><path d="M134.526 10.767c-2.496-2.38-5.785-3.626-9.301-3.626h-19.51v25.953h19.51c3.516 0 6.919-1.247 9.301-3.627 2.495-2.38 3.856-5.666 3.856-9.293.114-3.74-1.361-7.027-3.856-9.407zm-9.301 16.547h-13.612v-14.62h13.612c4.423 0 7.259 2.833 7.259 7.367 0 4.533-2.836 7.253-7.259 7.253z" fill="url(#paint0_linear_94_17541)"/><path d="M76.453 17.118c0-6.007-4.65-10.087-11.683-10.087H43.672v25.954h5.898V12.698h15.313c2.609 0 5.558 1.133 5.558 4.42 0 2.833-2.042 4.533-5.558 4.533h-5.558v2.834l8.167 8.5h7.26l-7.147-6.914c6.466-.793 8.848-5.213 8.848-8.953z" fill="url(#paint1_linear_94_17541)"/><path d="M82.352 32.985h16.674V27.77H87.91v-5.553h7.032v-4.873H87.91v-5.1h11.116V7.03H82.352v25.954z" fill="url(#paint2_linear_94_17541)"/><path d="M10.435 33.997A10.404 10.404 0 010 23.57h5.218a5.323 5.323 0 005.33 5.327c2.95 0 5.332-2.38 5.332-5.327 0-2.72-1.928-4.646-3.97-5.326-1.701-.567-3.97-.567-3.97-.567v-3.06l8.847-8.047 3.517 3.854-5.672 3.966c4.31 1.247 6.466 5.327 6.466 9.18-.227 5.78-4.878 10.427-10.663 10.427z" fill="url(#paint3_linear_94_17541)"/><path d="M5.104 5.1h4.991V0H0v10.087h5.104V5.1z" fill="url(#paint4_linear_94_17541)"/><path d="M36.865 17.906H26.656v5.667h10.209v-5.667z" fill="url(#paint5_linear_94_17541)"/><defs><linearGradient id="paint0_linear_94_17541" x1="122.052" y1="7.141" x2="122.052" y2="33.094" gradientUnits="userSpaceOnUse"><stop stop-color="#00609A"/><stop offset="1" stop-color="#1B3646"/></linearGradient><linearGradient id="paint1_linear_94_17541" x1="60.062" y1="7.031" x2="60.062" y2="32.985" gradientUnits="userSpaceOnUse"><stop stop-color="#00609A"/><stop offset="1" stop-color="#1B3646"/></linearGradient><linearGradient id="paint2_linear_94_17541" x1="90.689" y1="7.031" x2="90.689" y2="32.985" gradientUnits="userSpaceOnUse"><stop stop-color="#00609A"/><stop offset="1" stop-color="#1B3646"/></linearGradient><linearGradient id="paint3_linear_94_17541" x1="10.549" y1="6.57" x2="10.549" y2="33.997" gradientUnits="userSpaceOnUse"><stop stop-color="#00609A"/><stop offset="1" stop-color="#1B3646"/></linearGradient><linearGradient id="paint4_linear_94_17541" x1="5.048" y1="0" x2="5.048" y2="10.087" gradientUnits="userSpaceOnUse"><stop stop-color="#00609A"/><stop offset="1" stop-color="#1B3646"/></linearGradient><linearGradient id="paint5_linear_94_17541" x1="31.761" y1="17.906" x2="31.761" y2="23.573" gradientUnits="userSpaceOnUse"><stop stop-color="#00609A"/><stop offset="1" stop-color="#1B3646"/></linearGradient></defs></svg>