<svg width="135" height="41" fill="none" xmlns="http://www.w3.org/2000/svg"><path d="M72.54 20.26C72.54 9.244 81.471.313 92.492.313c11.022 0 19.957 8.931 19.957 19.949 0 11.016-8.935 19.949-19.957 19.949-11.02 0-19.954-8.933-19.954-19.95zm13.017 0a6.939 6.939 0 0013.876 0 6.939 6.939 0 00-13.876 0z" fill="url(#paint0_linear_94_17713)"/><path d="M134.001 39.35h-12.53V14.432h-7.409V5.958c4.5-.22 7.939-1.883 8.669-4.99h11.27V39.35z" fill="url(#paint1_linear_94_17713)"/><path d="M67.516 39.35h-12.53V14.432h-7.408V5.958c4.498-.22 7.936-1.883 8.668-4.99h11.27V39.35z" fill="url(#paint2_linear_94_17713)"/><path fill-rule="evenodd" clip-rule="evenodd" d="M19.485 17.252l-.62-1.759-.624 1.76-2.04 5.973h5.462l-2.178-5.974zm7.872 22.124l-2.817-7.987H13.187l-2.817 7.987H0l14.68-38.33h8.678l14.568 38.33H27.357z" fill="url(#paint3_linear_94_17713)"/><path d="M36.773 24.444a6.937 6.937 0 006.94 6.936 6.937 6.937 0 100-13.872 6.937 6.937 0 00-6.94 6.936z" fill="url(#paint4_linear_94_17713)"/><defs><linearGradient id="paint0_linear_94_17713" x1="92.495" y1=".313" x2="92.495" y2="40.21" gradientUnits="userSpaceOnUse"><stop stop-color="#00609A"/><stop offset="1" stop-color="#1B3646"/></linearGradient><linearGradient id="paint1_linear_94_17713" x1="124.032" y1=".969" x2="124.032" y2="39.35" gradientUnits="userSpaceOnUse"><stop stop-color="#00609A"/><stop offset="1" stop-color="#1B3646"/></linearGradient><linearGradient id="paint2_linear_94_17713" x1="57.547" y1=".969" x2="57.547" y2="39.35" gradientUnits="userSpaceOnUse"><stop stop-color="#00609A"/><stop offset="1" stop-color="#1B3646"/></linearGradient><linearGradient id="paint3_linear_94_17713" x1="18.963" y1="1.047" x2="18.963" y2="39.376" gradientUnits="userSpaceOnUse"><stop stop-color="#00609A"/><stop offset="1" stop-color="#1B3646"/></linearGradient><linearGradient id="paint4_linear_94_17713" x1="43.711" y1="17.508" x2="43.711" y2="31.38" gradientUnits="userSpaceOnUse"><stop stop-color="#00609A"/><stop offset="1" stop-color="#1B3646"/></linearGradient></defs></svg>