<svg width="125" height="38" fill="none" xmlns="http://www.w3.org/2000/svg"><g clip-path="url(#clip0_94_17696)"><path d="M30.647 9.952c-.331.332-.331.83 0 1.078.332.332.83.332 1.079 0 .331-.332.331-.83 0-1.078-.332-.332-.83-.332-1.079 0z" fill="#EFF5F8"/><path d="M38.279 9.453H34.96l-.83.995c-.165.166-.082.25.084.332l1.078.498 3.069-1.41c.249-.083.166-.415-.083-.415zM25.92 25.71h-4.064c-1.078.663-1.41.83-2.82 1.41-.083 0-.166.166-.083.249l3.65 10.202h2.073l-3.318-9.373c2.157 0 7.382-.58 10.202-5.142-.912 1.327-2.985 2.654-5.64 2.654zm5.806-14.681c-.331.332-.83.332-1.078 0-.332-.332-.332-.83 0-1.078.332-.332.83-.332 1.078 0-.663-.664-1.741-.664-2.322 0-.58.663-.664 1.659 0 2.322.663.664 1.742.664 2.322 0 .58-.663.664-1.659 0-2.322a.872.872 0 010 1.078zm-8.045 18.58l2.82 7.962h2.073l-2.986-8.377c-.497.166-1.16.248-1.907.414zm2.82-9.954c.249-.332.415-.663.663-1.078-.083-.083-.165 0-.248.083-4.23 4.479-8.295 5.06-11.447 5.06h-4.81c-.166 0-.25-.166-.166-.332 3.732-5.143 7.796-9.207 10.865-11.778l-8.045 6.718c-.664.498-1.41.83-2.405.83H.788c-.248 0-.165.248-.165.414.663 2.157 2.654 4.147 5.972 4.147l-2.406 2.406c-.083.083-.083.331.166.331h9.04c6.47 0 10.535-2.82 13.106-6.8z" fill="url(#paint0_linear_94_17696)"/><path d="M116.743 37.573h7.382v-22.81h-7.382v8.378h-6.967v-8.377h-7.382v22.81h7.382v-8.627h6.967v8.626zm-87.34-25.297c-.663-.664-.663-1.66 0-2.323.665-.663 1.743-.663 2.323 0 .58.664.664 1.659 0 2.323-.663.663-1.741.663-2.322 0zm2.075 10.782c2.82-4.562 3.815-11.778 3.815-11.778l-1.078-.497c-.166-.083-.166-.166-.083-.332l.83-.995C34.463 8.46 32.638 6.8 29.983 6.8c-1.575 0-2.985.415-4.23 1.244 0 0-1.824 1.245-4.396 3.484-3.069 2.654-7.133 6.636-10.865 11.778-.083.166 0 .332.166.332h4.81c3.152 0 7.217-.58 11.447-5.06.083-.083.165-.083.248-.083.083.083.083.166.083.25-.663 1.658-2.322 4.893-5.39 6.883h4.063c2.737 0 4.728-1.244 5.557-2.57zm-4.148 5.474l3.152 8.958h8.958c-1.825-5.557-3.815-10.7-5.723-15.427-1.493 3.235-2.903 4.81-6.387 6.47zM.125 37.573h9.04l3.07-9.538H3.443c-1.079 2.82-2.157 5.972-3.318 9.538zm12.193-20.487l4.562-3.732c.995-2.654 1.99-5.309 2.986-7.548.497 1.161.995 2.405 1.492 3.65 2.489-2.074 4.065-3.318 6.138-3.899C26.252 2.82 25.34.83 24.925 0h-10.12c-.829 1.825-4.063 8.543-7.879 17.584h3.65c.746 0 1.327-.083 1.742-.498zM68.22 35.002l.498 2.488h5.972V14.764h-7.382v15.842c-.664.746-1.908 1.576-3.069 1.576-2.073 0-3.152-1.161-3.152-3.318v-14.1h-7.382v15.842c-.663.746-2.073 1.576-3.318 1.576-1.907 0-2.985-1.161-2.985-3.318v-14.1H40.02V29.86c0 5.474 2.405 8.21 7.382 8.21 3.566 0 5.723-1.326 7.382-3.068 1.16 2.074 3.234 3.069 6.303 3.069 3.567-.083 5.557-1.327 7.133-3.069zm23.473-4.479c-.663.747-1.742 1.576-3.566 1.576-1.991 0-3.07-1.825-3.07-5.391 0-4.396 1.162-6.553 3.567-6.553 1.41 0 2.074.083 3.07.332v10.036zm-6.138 7.465h.25c3.317 0 5.556-1.161 6.8-2.986l.415 2.488h6.055V15.676c-2.405-.746-5.225-1.41-10.368-1.41-7.382 0-11.363 4.48-11.363 12.774 0 7.63 2.82 10.948 8.211 10.948z" fill="url(#paint1_linear_94_17696)"/></g><defs><linearGradient id="paint0_linear_94_17696" x1="19.561" y1="9.453" x2="19.561" y2="37.571" gradientUnits="userSpaceOnUse"><stop stop-color="#00609A"/><stop offset="1" stop-color="#1B3646"/></linearGradient><linearGradient id="paint1_linear_94_17696" x1="62.125" y1="0" x2="62.125" y2="38.071" gradientUnits="userSpaceOnUse"><stop stop-color="#00609A"/><stop offset="1" stop-color="#1B3646"/></linearGradient><clipPath id="clip0_94_17696"><path fill="#fff" transform="translate(.125)" d="M0 0h124v37.988H0z"/></clipPath></defs></svg>