<svg width="89" height="77" fill="none" xmlns="http://www.w3.org/2000/svg"><g clip-path="url(#clip0_94_17486)"><path d="M63.643 5.912c7.494 0 13.572 31.67 13.572 70.78h10.936C88.15 34.586 77.119.5 63.61.5c-7.72 0-14.538 10.213-19.04 26.257C40.066 10.713 33.248.5 25.593.5 12.086.5 1.086 34.553 1.086 76.66H12.02c0-39.11 6.015-70.748 13.509-70.748 7.494 0 13.572 29.253 13.572 65.336h10.871c0-36.083 6.111-65.336 13.605-65.336" fill="url(#paint0_linear_94_17486)"/></g><defs><linearGradient id="paint0_linear_94_17486" x1="44.618" y1=".5" x2="44.618" y2="76.693" gradientUnits="userSpaceOnUse"><stop stop-color="#00609A"/><stop offset="1" stop-color="#1B3646"/></linearGradient><clipPath id="clip0_94_17486"><path fill="#fff" transform="translate(.668 .133)" d="M0 0h87.708v76.837H0z"/></clipPath></defs></svg>