<svg width="155" height="32" fill="none" xmlns="http://www.w3.org/2000/svg"><path d="M90 .672s.514.463.506 1.072v28.302c.008.61-.506 1.073-.506 1.073h15.508v-7.444s-.141.712-1.129.695h-5.153V1.744c-.009-.61.506-1.072.506-1.072H90zm52.096 0h-13.167v7.577s.141-.713 1.129-.695h3.912v22.492c.009.61-.505 1.073-.505 1.073h9.731s-.514-.463-.506-1.072V4.293l-.594-3.621z" fill="url(#paint0_linear_94_17705)"/><path d="M147.583.672v7.577s-.14-.713-1.128-.695h-6.607c-.021-2.298-.091-4.658-.309-6.882h8.044z" fill="url(#paint1_linear_94_17705)"/><path d="M150.218 31.79c2.637 0 4.774-2.165 4.774-4.836 0-2.671-2.137-4.837-4.774-4.837-2.636 0-4.773 2.166-4.773 4.837s2.137 4.837 4.773 4.837z" fill="url(#paint2_linear_94_17705)"/><path d="M152.994 3.11a.991.991 0 00.29-.18.788.788 0 00.197-.277.943.943 0 00.072-.382c0-.302-.094-.532-.282-.691-.188-.159-.486-.238-.896-.238h-1.388v3.355h.446v-1.49h.749l1.017 1.491h.522l-1.076-1.49c.123-.021.239-.054.349-.098zm-.972-.254h-.589V1.693h.816c.112 0 .218.008.32.024a.832.832 0 01.273.09.52.52 0 01.194.175c.048.073.071.17.071.29a.54.54 0 01-.092.33.529.529 0 01-.245.176 1.22 1.22 0 01-.349.067 7.006 7.006 0 01-.399.011zm.037-2.826c-1.615.001-2.913 1.346-2.917 2.999.004 1.652 1.302 2.997 2.917 2.998 1.615 0 2.914-1.346 2.916-2.998-.002-1.653-1.301-2.998-2.916-2.999zm0 5.735c-1.459-.003-2.651-1.221-2.651-2.736 0-1.515 1.191-2.733 2.651-2.737 1.46.004 2.651 1.222 2.651 2.737 0 1.515-1.191 2.733-2.651 2.736zM77.492 0c-8.658 0-11.591 7.173-11.591 15.96 0 8.973 3.13 15.952 11.551 15.952 8.422 0 11.632-6.837 11.632-15.951C89.084 6.924 85.866 0 77.492 0zm2.603 17.552c0 5.927-1.165 7.571-2.602 7.571-1.438 0-2.603-1.587-2.603-7.57V13.99c0-5.585 1.165-7.21 2.603-7.21 1.437 0 2.602 1.796 2.602 7.21v3.561zm38.971 4.67c0 1.825-.947 2.783-2.114 2.783-1.168 0-2.115-.97-2.115-2.782V1.742c-.009-.61.505-1.072.505-1.072h-9.759s.515.463.506 1.072v20.649c0 6.807 4.859 9.553 10.837 9.553 5.977 0 10.805-3.144 10.805-9.566V1.742c-.009-.61.506-1.072.506-1.072h-9.679s.514.463.505 1.072v20.37l.003.11zm-79.013-6.864l.036-.007c3.01-.696 4.948-3.165 4.948-6.688 0-4.98-3.643-8.005-10.503-8.005h-9.833s.514.463.506 1.071v28.262c.008.609-.506 1.072-.506 1.072h11.074l.415-.003c6.95 0 10.086-3.64 10.086-8.286 0-4.134-2.42-6.693-6.223-7.416zm-6.232-8.447h.79c1.6 0 2.897.995 2.897 2.996 0 1.654-1.297 2.996-2.897 2.996h-.79V6.91zm.903 17.968h-.902v-6.613h.764c1.828 0 3.45.96 3.45 3.307-.001 2.133-1.484 3.306-3.312 3.306zm-22.21 6.622h.033l-.017-.003-.016.003zm2.622-.424h9.52s-.317-.438-.779-2.48l-6.139-26.37s-.29-1.193.453-1.563H7.065c.744.37.453 1.562.453 1.562L1.366 28.51C.904 30.553.008 31.077.008 31.077h9.917c-.603-.368-.535-.92-.535-.92l.592-3.941h5.098l.532 3.729s.124.733-.476 1.132zM10.86 20.566l1.741-12.067 1.694 12.067H10.86zm43.912 4.396c2.282 0 2.134-2.03 2.134-2.03.006-1.477-1.275-2.438-1.275-2.438l-5.378-4.473-.095-.08c-1.775-1.62-2.902-4.047-2.902-6.76 0-4.878 3.502-9.022 9.356-9.022 1.793 0 3.648.378 5.232 1.14 0 0 .78.455 1.456-.248v7.968s-3.267-2.267-5.963-2.267c0 0-1.987-.024-1.987 1.828 0 0-.024 1.007 1.585 2.226 0 0 5.44 3.937 7.286 6.96 0 0 1.537 2.46 1.348 5.39 0 0-.284 8.811-9.652 8.811 0 0-3.659.033-6.86-1.781 0 0-1.06-.654-1.75-.021v-8.978s4.332 3.775 7.465 3.775z" fill="url(#paint3_linear_94_17705)"/><defs><linearGradient id="paint0_linear_94_17705" x1="116.598" y1=".672" x2="116.598" y2="31.119" gradientUnits="userSpaceOnUse"><stop stop-color="#00609A"/><stop offset="1" stop-color="#1B3646"/></linearGradient><linearGradient id="paint1_linear_94_17705" x1="143.561" y1=".672" x2="143.561" y2="8.249" gradientUnits="userSpaceOnUse"><stop stop-color="#00609A"/><stop offset="1" stop-color="#1B3646"/></linearGradient><linearGradient id="paint2_linear_94_17705" x1="150.218" y1="22.117" x2="150.218" y2="31.791" gradientUnits="userSpaceOnUse"><stop stop-color="#00609A"/><stop offset="1" stop-color="#1B3646"/></linearGradient><linearGradient id="paint3_linear_94_17705" x1="77.492" y1="0" x2="77.492" y2="31.967" gradientUnits="userSpaceOnUse"><stop stop-color="#00609A"/><stop offset="1" stop-color="#1B3646"/></linearGradient></defs></svg>