<svg width="172" height="23" fill="none" xmlns="http://www.w3.org/2000/svg"><path d="M148.024 8.458c0-2.458-1.076-3.669-2.717-3.669-1.492 0-2.507 1.477-2.507 3.55 0 2.162.924 3.642 2.537 3.642 1.642 0 2.687-1.392 2.687-3.523zM142.29.733v2.31h.062c.865-1.898 3.105-2.754 4.894-2.754 4.719 0 6.986 3.818 6.986 8.08 0 6.098-3.821 8.318-7.312 8.318-1.704 0-2.956-.68-4.001-1.983v6.808h-6.208V.732h5.581l-.002.001zm17.91 0l2.746 9.56 2.717-9.56h5.972l-5.016 14.474c-1.641 4.795-2.298 6.305-7.821 6.305-.628 0-2.089-.06-2.746-.119V17.13c2.657 0 3.313-.147 3.313-1.094 0-.297-.089-.681-5.404-15.303h6.239z" fill="url(#paint0_linear_94_17573)"/><path fill-rule="evenodd" clip-rule="evenodd" d="M128.973 10.828h5.566v5.52h-5.566v-5.52z" fill="url(#paint1_linear_94_17573)"/><path d="M6.21 5.471L10.18.734h7.254l-5.793 6.01 6.539 9.5h-7.461L7.375 10.74 6.21 11.894v4.35H0V.738h6.21v4.735z" fill="url(#paint2_linear_94_17573)"/><path d="M23.252.733l2.746 9.56L28.714.734h5.97L29.67 15.208c-1.642 4.795-2.298 6.304-7.822 6.304-.627 0-2.09-.059-2.746-.118v-4.263c2.656 0 3.313-.148 3.313-1.095 0-.297-.09-.68-5.403-15.303h6.24zM41.19 12.691h2.328c1.493 0 2.33-.148 2.33-1.302 0-1.154-.807-1.42-2.33-1.42H41.19v2.722zm0-5.86h2.328c1.373 0 1.883-.326 1.883-1.184 0-1.036-.54-1.361-1.883-1.361H41.19V6.83zM35.22.733h9.494c3.911 0 6.538 1.125 6.538 3.967 0 2.013-1.553 3.108-3.047 3.314 1.583.386 3.612 1.184 3.612 3.819 0 3.167-2.923 4.41-6.507 4.41H35.22V.733zm23.46 11.158c0 .771.748 1.304 1.972 1.304 2.179 0 2.747-1.45 2.747-3.82-2.031.977-4.718.504-4.718 2.517zM53.22 5.5c0-3.288 2.357-5.21 8.536-5.21 7.404 0 7.852 2.723 7.852 6.422v7.253c0 .889.03 1.333.835 1.983v.297h-6.417l-.299-1.658c-1.76 1.628-3.552 2.102-5.881 2.102-2.953 0-5.58-1.451-5.58-4.676 0-7.046 11.133-3.85 11.133-6.75 0-1.125-1.373-1.274-2.031-1.274-.864 0-2.029.18-2.178 1.51h-5.97z" fill="url(#paint3_linear_94_17573)"/><path d="M88.414.733v15.51h-6.208V5.232h-3.493V9.08c0 5.386-2.03 7.429-5.434 7.429-1.193 0-2.15-.06-3.045-.356V12.07a5.04 5.04 0 001.106.118c1.311 0 1.581-1.096 1.581-4.855v-6.6h15.493zm9.55 3.553v1.42c0 2.516-.298 5.327-1.462 6.985h4.627V4.286h-3.165zm9.375-3.553v11.958h1.73v7.252h-5.671v-3.7h-8.509v3.7h-5.672V12.69h1.463c1.223-1.984 1.612-4.291 1.612-7.459V.733h15.048zm8.206 11.158c0 .771.747 1.304 1.971 1.304 2.178 0 2.747-1.45 2.747-3.82-2.031.977-4.718.504-4.718 2.517zM110.082 5.5c.001-3.288 2.36-5.21 8.539-5.21 7.404 0 7.852 2.723 7.852 6.422v7.253c0 .889.03 1.333.836 1.983v.297h-6.42l-.296-1.658c-1.762 1.628-3.552 2.102-5.881 2.102-2.953 0-5.581-1.451-5.581-4.676 0-7.046 11.135-3.85 11.135-6.75 0-1.125-1.374-1.274-2.031-1.274-.867 0-2.03.18-2.179 1.51h-5.974z" fill="url(#paint4_linear_94_17573)"/><defs><linearGradient id="paint0_linear_94_17573" x1="154.173" y1=".289" x2="154.173" y2="21.512" gradientUnits="userSpaceOnUse"><stop stop-color="#00609A"/><stop offset="1" stop-color="#1B3646"/></linearGradient><linearGradient id="paint1_linear_94_17573" x1="131.756" y1="10.828" x2="131.756" y2="16.348" gradientUnits="userSpaceOnUse"><stop stop-color="#00609A"/><stop offset="1" stop-color="#1B3646"/></linearGradient><linearGradient id="paint2_linear_94_17573" x1="9.09" y1=".734" x2="9.09" y2="16.245" gradientUnits="userSpaceOnUse"><stop stop-color="#00609A"/><stop offset="1" stop-color="#1B3646"/></linearGradient><linearGradient id="paint3_linear_94_17573" x1="43.727" y1=".289" x2="43.727" y2="21.512" gradientUnits="userSpaceOnUse"><stop stop-color="#00609A"/><stop offset="1" stop-color="#1B3646"/></linearGradient><linearGradient id="paint4_linear_94_17573" x1="98.772" y1=".289" x2="98.772" y2="19.943" gradientUnits="userSpaceOnUse"><stop stop-color="#00609A"/><stop offset="1" stop-color="#1B3646"/></linearGradient></defs></svg>