<svg width="155" height="34" fill="none" xmlns="http://www.w3.org/2000/svg"><g clip-path="url(#clip0_94_17527)"><path fill-rule="evenodd" clip-rule="evenodd" d="M18.631.093a16.96 16.96 0 1015.096 15.143A16.939 16.939 0 0018.63.093zm-.55 25.843A9.047 9.047 0 1115.677 8a9.047 9.047 0 012.406 17.934zM42.799.764a3.957 3.957 0 00-3.862 4.775c.372 1.864 2.114 3.138 4.01 3.138h11.011L36.823 31.352a1.13 1.13 0 00.896 1.813h26.877c1.896 0 3.64-1.274 4.011-3.139a3.958 3.958 0 00-3.86-4.775H51.33L68.453 2.594a1.141 1.141 0 00-.906-1.83H42.798zm107.399.092a4.015 4.015 0 00-3.087 3.97v13.176l-21.35-16.989a1.137 1.137 0 00-1.669.288 1.13 1.13 0 00-.172.604V29.11a4.015 4.015 0 003.087 3.971 3.95 3.95 0 004.801-3.865v-13.29l21.35 16.99a1.131 1.131 0 001.2.132 1.133 1.133 0 00.64-1.024V4.72a3.946 3.946 0 00-4.801-3.864zM94.61 7.92c9.03 0 15.777 4.772 15.777 9.04 0 4.27-6.747 9.041-15.777 9.041s-15.777-4.772-15.777-9.04c0-4.269 6.747-9.04 15.777-9.04zm0-7.913c-13.07 0-23.666 7.59-23.666 16.954 0 9.363 10.596 16.953 23.666 16.953 13.071 0 23.666-7.59 23.666-16.953S107.68.007 94.61.007z" fill="url(#paint0_linear_94_17527)"/></g><defs><linearGradient id="paint0_linear_94_17527" x1="77.446" y1="0" x2="77.446" y2="33.92" gradientUnits="userSpaceOnUse"><stop stop-color="#00609A"/><stop offset="1" stop-color="#1B3646"/></linearGradient><clipPath id="clip0_94_17527"><path fill="#fff" d="M0 0h155v33.929H0z"/></clipPath></defs></svg>