<svg width="109" height="78" fill="none" xmlns="http://www.w3.org/2000/svg"><path fill-rule="evenodd" clip-rule="evenodd" d="M4.786 19.819C4.786 9.226 26.214.64 52.65.64c26.434 0 47.864 8.586 47.864 19.178 0 10.591-21.43 19.177-47.864 19.177-26.435 0-47.864-8.585-47.864-19.178zm58.54 1.679a.16.16 0 00-.13-.125 66.317 66.317 0 00-4.15-.475c-.08-.014-.139-.09-.085-.27 4.424-4.662 6.104-10.595 3.868-15.237a.162.162 0 01.18-.142C78.23 7.1 89.346 12.922 89.346 19.82c0 8.385-16.429 15.183-36.696 15.183s-36.696-6.798-36.696-15.184c0-7.268 12.348-13.345 28.84-14.834.08.003.147.065.152.192l-3.581 19.75a2.4 2.4 0 001.33 2.623c.32.15.668.229 1.02.229l.129.007c3.193-.167 6.625-1.166 9.867-3.04a25.135 25.135 0 002.647-1.763.158.158 0 01.175-.017c1.08.72 1.701 1.563 1.701 2.464 0 1.226-1.146 2.343-3.033 3.19-2.191.986-5.38 1.605-8.933 1.605-3.01 0-5.76-.445-7.894-1.188a.157.157 0 00-.162.072.158.158 0 00-.022.058l-.304 1.674a.16.16 0 00.124.178c4.34 1.011 9.331 1.587 14.644 1.587 6.608 0 11.966-2.147 11.966-4.794 0-1.03-.81-1.984-2.188-2.765-1.207-.593-1.967-1.361-1.78-1.877.193-.534 1.348-.62 2.72-.25.077.01.153-.036.18-.176l-.227-1.245zM52.65 9.41c0 .103-.003.207-.01.308.174 3.519-1.998 8.227-5.967 12.203a25.36 25.36 0 01-2.512 2.209.157.157 0 01-.118.02c-.083-.017-.137-.096-.122-.193l3.89-21.45a.16.16 0 00-.152-.152C26.22 3.365 9.572 10.798 9.572 19.82c0 9.709 19.286 17.579 43.078 17.579s43.078-7.87 43.078-17.58c0-9.709-19.286-17.579-43.078-17.579-.754 0-1.504.008-2.256.024a.16.16 0 00-.155.122l-.455 2.503a.16.16 0 00.076.164 4.787 4.787 0 012.79 4.358zM8.04 48.585v23.49h13.02v5.285H0V48.585h8.04zM39.497 65.7l-3.756-10.479-3.755 10.48h7.511zm1.352-17.102l10.916 28.754h-8.362l-2.404-6.79H30.484l-2.403 6.79H21.37l10.815-28.754h8.664zm19.822 23.46h3.605c2.153 0 5.008-.376 6.86-2.85 1.852-2.473 1.903-5.365 1.903-6.539 0-1.51-.2-4.568-2.353-6.707-2.004-1.927-4.608-2.095-6.56-2.095H60.67v18.191zm-8.013-23.473h11.767c3.406 0 8.563.336 12.52 3.731 3.204 2.725 4.706 7.168 4.706 10.605 0 2.515-.8 7.67-5.207 11.15-3.506 2.766-7.46 3.27-11.167 3.27H52.66V48.584zm44.074 17.102l-3.755-10.479-3.756 10.48h7.511zm1.352-17.102L109 77.34h-8.362l-2.403-6.79H87.719l-2.404 6.79h-6.71L89.42 48.585h8.663z" fill="url(#paint0_linear_94_17723)"/><defs><linearGradient id="paint0_linear_94_17723" x1="54.5" y1=".641" x2="54.5" y2="77.36" gradientUnits="userSpaceOnUse"><stop stop-color="#00609A"/><stop offset="1" stop-color="#1B3646"/></linearGradient></defs></svg>