<svg width="123" height="49" fill="none" xmlns="http://www.w3.org/2000/svg"><path fill-rule="evenodd" clip-rule="evenodd" d="M122.482 49H0V0h122.5v49h-.018z" fill="url(#paint0_linear_94_17582)"/><path fill-rule="evenodd" clip-rule="evenodd" d="M2.45 24.503c0 12.045 24.642 22.05 58.808 22.05s58.791-10.005 58.791-22.05-24.642-22.05-58.791-22.05S2.449 12.458 2.449 24.503z" fill="#EFF5F8"/><path d="M56.899 31.859a9.883 9.883 0 001.299 1.525H44.942c0-.514-.509-1.56-1.071-2.382-.562-.823-3.6-5.33-3.6-5.33v6.187c0 .514 0 1.011.264 1.525H29.492c.263-.514.263-1.011.263-1.525V17.154c0-.514 0-1.011-.264-1.525h11.044c-.263.514-.263 1.01-.263 1.525v6.427s3.529-4.49 4.337-5.536c.614-.788 1.369-1.902 1.369-2.416h11.518c-.79.514-1.668 1.44-2.388 2.296l-4.214 5.022s5.302 7.9 6.005 8.912zm3.476-14.705V31.86c0 .514 0 1.011-.263 1.525h21.315v-4.936c-.527.257-1.036.257-1.563.257h-8.972v-2.33h8.62v-3.737h-8.62V20.29h8.972c.527 0 1.036 0 1.563.24v-4.918H60.112c.263.531.263 1.028.263 1.542zm50.583 14.705a4.26 4.26 0 00.861 1.525h-11.553c.052-.514-.141-1.011-.351-1.525 0 0-.176-.412-.422-1.011l-.105-.257h-6.654l-.106.274s-.193.497-.368 1.011c-.176.514-.37 1.011-.299 1.525H82.85a4.46 4.46 0 00.825-1.525l5.46-14.705c.194-.514.386-1.01.316-1.525h15.398c-.14.514.141 1.011.334 1.525.456 1.114 5.39 13.694 5.776 14.688zm-13.027-5.022l-1.616-4.113a8.915 8.915 0 01-.35-1.165 6.803 6.803 0 01-.317 1.165c-.052.171-.737 1.971-1.527 4.113h3.81zM24.259 15.63H12.25c.263.514.263 1.01.263 1.525V31.86c0 .514 0 1.011-.263 1.525h12.01c-.264-.514-.264-1.011-.264-1.525V17.154c0-.514 0-1.011.263-1.525zm83.012 1.405c-.053-1.25.948-2.296 2.23-2.33h.158c1.299-.018 2.37.976 2.388 2.244v.086c.035 1.286-1.001 2.365-2.335 2.4-1.317.034-2.423-.977-2.458-2.28a.294.294 0 00.017-.12zm.474 0c0 1.028.861 1.868 1.914 1.868 1.054 0 1.914-.84 1.914-1.868s-.861-1.868-1.914-1.868c-1.018-.034-1.879.737-1.914 1.731v.137zm1.44 1.388h-.421v-2.81h1.071a.906.906 0 01.895.908.936.936 0 01-.509.823l.614 1.08h-.474l-.562-.995h-.614v.994zm0-1.388h.579c.281.017.527-.188.527-.463 0-.274-.193-.514-.474-.514h-.632v.977z" fill="url(#paint1_linear_94_17582)"/><defs><linearGradient id="paint0_linear_94_17582" x1="61.25" y1="0" x2="61.25" y2="49" gradientUnits="userSpaceOnUse"><stop stop-color="#00609A"/><stop offset="1" stop-color="#1B3646"/></linearGradient><linearGradient id="paint1_linear_94_17582" x1="62.149" y1="14.703" x2="62.149" y2="33.401" gradientUnits="userSpaceOnUse"><stop stop-color="#00609A"/><stop offset="1" stop-color="#1B3646"/></linearGradient></defs></svg>