<svg width="112" height="68" fill="none" xmlns="http://www.w3.org/2000/svg"><g clip-path="url(#clip0_94_17557)"><path d="M11.59 67.282h88.284L55.966 23.375 11.59 67.282z" fill="url(#paint0_linear_94_17557)"/><path d="M9.902 65.13l6.878-6.71-2.29-2.349-4.321 4.216-7.61-7.803L0 54.981l9.902 10.15z" fill="url(#paint1_linear_94_17557)"/><path d="M18.29 56.89l7.049-6.878-1.936-1.983-4.475 4.366-2.149-2.203 3.586-3.499-2.025-2.074-3.586 3.497-1.841-1.887 4.328-4.224-1.934-1.982-7.026 6.855 10.01 10.012z" fill="url(#paint2_linear_94_17557)"/><path d="M41.356 24.289c-2.842-2.914-7.773-2.565-10.147-.248-2.376 2.317-3.588 6.937-.234 10.375 3.684 3.776 8.068 2.405 10.443.089 3.502-3.417 2.255-7.841-.062-10.216zm-2.09 8.22c-1.571 1.535-3.493 1.118-5.69-1.133-1.845-1.892-1.734-3.792-.392-5.102.923-.9 2.797-1.705 5.027.58 2.544 2.608 2.628 4.122 1.056 5.656z" fill="url(#paint3_linear_94_17557)"/><path d="M49.284 26.702l2.6-2.537-3.912-4.01-2.34-9.74-2.981 2.908 1.55 5.526-5.238-1.929-2.81 2.742 8.93 2.867 4.201 4.173z" fill="url(#paint4_linear_94_17557)"/><path d="M35.422 40.246s-6.328-2.16-6.629-2.107c-.097.016 1.36-3.86-1.913-5.579 0 0-2.43-1.314-4.86.894l-5.18 5.105 9.987 10.058 2.642-2.578-5.404-5.538 8.735 2.303 2.622-2.558zm-9.801-1.381c-1.468 1.43-1.667 1.543-1.667 1.543l-2.383-2.443c-.082-.084 1.646-1.565 1.918-1.83.116-.113 1.191-.815 2.081.097 0 0 1.518 1.2.05 2.633z" fill="url(#paint5_linear_94_17557)"/><path d="M48.479 12.336l-2.311-2.33L56.256 0l3.302 3.328-3.635 7.153 7.41-3.346 3.177 3.204-10.088 10.005-2.435-2.454 5.325-5.282-7.285 3.305-1.506-1.518 3.386-7.278-5.428 5.219z" fill="url(#paint6_linear_94_17557)"/><path d="M65.995 29.995L59 22.943l10.089-10.006 7.014 7.073-2.038 2.021-4.394-4.43-1.644 1.63 3.466 3.494-2.122 2.105-3.445-3.474-2.205 2.186 4.353 4.39-2.08 2.063z" fill="url(#paint7_linear_94_17557)"/><path d="M89.058 33.078l2.599 2.622-7.634 7.57 4.27 4.305-2.454 2.436-6.87-6.926 10.089-10.007z" fill="url(#paint8_linear_94_17557)"/><path d="M87.656 51.834l10.089-10.006 2.538 2.558-10.09 10.005-2.537-2.557z" fill="url(#paint9_linear_94_17557)"/><path d="M94.795 59.039l-2.373-2.393L102.51 46.64l3.446 3.471-2.944 10.39 6.678-6.625 2.311 2.33-10.089 10.006-3.013-3.036 2.595-10.907-6.7 6.769z" fill="url(#paint10_linear_94_17557)"/><path d="M84.499 28.475l-6.127-6.178-10.11 9.985 2.6 2.62 5.511-5.466-1.984 9.024 2.661 2.684s2.098-6.455 2.163-6.724c0 0 2.273 1.252 4.767-.892 0 0 2.392-2.332.519-5.053zm-3.742 2.927s-1.288.864-2.422-.28l-1.773-1.872 2.412-2.393 1.857 1.873c.206.207 1.507 1.186-.074 2.672z" fill="url(#paint11_linear_94_17557)"/></g><defs><linearGradient id="paint0_linear_94_17557" x1="55.732" y1="23.375" x2="55.732" y2="67.282" gradientUnits="userSpaceOnUse"><stop stop-color="#00609A"/><stop offset="1" stop-color="#1B3646"/></linearGradient><linearGradient id="paint1_linear_94_17557" x1="8.39" y1="52.484" x2="8.39" y2="65.13" gradientUnits="userSpaceOnUse"><stop stop-color="#00609A"/><stop offset="1" stop-color="#1B3646"/></linearGradient><linearGradient id="paint2_linear_94_17557" x1="16.81" y1="40.023" x2="16.81" y2="56.89" gradientUnits="userSpaceOnUse"><stop stop-color="#00609A"/><stop offset="1" stop-color="#1B3646"/></linearGradient><linearGradient id="paint3_linear_94_17557" x1="36.253" y1="22.203" x2="36.253" y2="36.77" gradientUnits="userSpaceOnUse"><stop stop-color="#00609A"/><stop offset="1" stop-color="#1B3646"/></linearGradient><linearGradient id="paint4_linear_94_17557" x1="44.018" y1="10.414" x2="44.018" y2="26.702" gradientUnits="userSpaceOnUse"><stop stop-color="#00609A"/><stop offset="1" stop-color="#1B3646"/></linearGradient><linearGradient id="paint5_linear_94_17557" x1="26.131" y1="32.172" x2="26.131" y2="48.617" gradientUnits="userSpaceOnUse"><stop stop-color="#00609A"/><stop offset="1" stop-color="#1B3646"/></linearGradient><linearGradient id="paint6_linear_94_17557" x1="56.339" y1="0" x2="56.339" y2="20.344" gradientUnits="userSpaceOnUse"><stop stop-color="#00609A"/><stop offset="1" stop-color="#1B3646"/></linearGradient><linearGradient id="paint7_linear_94_17557" x1="67.552" y1="12.938" x2="67.552" y2="29.995" gradientUnits="userSpaceOnUse"><stop stop-color="#00609A"/><stop offset="1" stop-color="#1B3646"/></linearGradient><linearGradient id="paint8_linear_94_17557" x1="85.313" y1="33.078" x2="85.313" y2="50.011" gradientUnits="userSpaceOnUse"><stop stop-color="#00609A"/><stop offset="1" stop-color="#1B3646"/></linearGradient><linearGradient id="paint9_linear_94_17557" x1="93.969" y1="41.828" x2="93.969" y2="54.391" gradientUnits="userSpaceOnUse"><stop stop-color="#00609A"/><stop offset="1" stop-color="#1B3646"/></linearGradient><linearGradient id="paint10_linear_94_17557" x1="102.212" y1="46.641" x2="102.212" y2="66.213" gradientUnits="userSpaceOnUse"><stop stop-color="#00609A"/><stop offset="1" stop-color="#1B3646"/></linearGradient><linearGradient id="paint11_linear_94_17557" x1="76.739" y1="22.297" x2="76.739" y2="41.144" gradientUnits="userSpaceOnUse"><stop stop-color="#00609A"/><stop offset="1" stop-color="#1B3646"/></linearGradient><clipPath id="clip0_94_17557"><path fill="#fff" d="M0 0h112v67.331H0z"/></clipPath></defs></svg>