<svg width="93" height="95" fill="none" xmlns="http://www.w3.org/2000/svg"><g clip-path="url(#clip0_94_17434)"><path d="M70.022 13.369c.224-.548-.223-1.063-.223-1.063s-3.506-5.99-15.84-7.342c-6.629-.709-15.617.644-21.927 4.09-11.474 6.215-13.195 16.488-13.195 16.488-.063.257-.159 1.03.096 1.352.255.322.637.322 1.115.161 4.048-1.384 16.064-5.41 23.649-7.439 10.804-2.898 19.696-4.67 25.37-5.635.446-.097.796-.226.955-.612z" fill="#92A5B0" fill-opacity=".5"/><path d="M82.356 61.734c-6.47 14.685-18.868 24.893-35.154 25.119-11.824.16-22.278-3.93-29.832-11.078l-4.557 1.964v-7.15C7.84 63.828 4.94 55.23 4.94 45.504 4.94 20.546 23.84.902 50.23.902c4.302 0 8.19.676 11.123 1.352C56.827.805 52.333 0 47.329 0 19.028 0-.03 23.186-.03 47.114-.031 73.166 20.207 95 46.756 95c25.369 0 39.042-18.066 43.44-28.95l-7.84-4.316z" fill="url(#paint0_linear_94_17434)"/><path d="M75.791 56.579c3.73-.419 6.31-1.932 7.713-3.35 1.275-1.288 1.594-3.027 1.594-4.347.063-1.932 0-7.986 0-7.986l-9.849 2.157v2.319c.032 1.546.765 2.383 2.359 2.093a17.07 17.07 0 001.275-.322v1.9c0-.064.16 1.063-2.327 1.546-3.25.515-4.717-1.514-4.749-5.088.064-3.832 2.2-6.022 4.813-6.634 2.932-.676 4.59.032 5.545.16 3.251.484 4.176-4.443 1.212-5.603-2.2-.901-5.036-1.062-7.745-.515-3.633.74-10.74 3.8-10.773 13.751-.031 7.922 5.737 10.498 10.932 9.919z" fill="url(#paint1_linear_94_17434)"/><path d="M43.758 65.053s3.028-1.063 3.282-1.127c2.423-.838 3.315-2.32 3.315-4.831-.032-2.737-.032-8.083-.032-8.083l7.044 8.18c1.147 1.191 2.581 1.288 3.888.901 1.339-.386 2.486-1.642 2.518-3.413V36.36s-1.817.386-3.315.804c-1.72.483-3.06 1.61-3.06 4.573v7.053s-4.015-5.056-6.597-7.664c-1.37-1.385-3.665-.548-3.665-.548l-3.378 1.03v23.445z" fill="url(#paint2_linear_94_17434)"/><path d="M41.624 42.125s-2.104.612-3.825 1.256c-2.23.805-3.537 2.125-3.537 5.539v19.483s1.944-.676 3.792-1.385c2.582-.998 3.57-2.35 3.57-5.088V42.125z" fill="url(#paint3_linear_94_17434)"/><path d="M31.14 46.757c-1.945-.902-3.602.096-4.303 1.191l-5.96 10.273v-8.276l-7.076 2.93-.031 23.38 4.971-2.093s.988-.29 1.562-1.224c.542-.87.51-2.287.51-2.287v-7.406l5.546 5.957c1.21 1.288 3.442 1.933 5.418.322 1.785-1.449 1.498-3.928.51-5.055l-5.036-5.12s4.43-7.086 5.163-8.245c.956-1.61.478-3.542-1.275-4.347z" fill="url(#paint4_linear_94_17434)"/><path d="M28.367 74.257c-.255.612.35 1.224.35 1.224 2.55 3.253 13.929 7.375 26.295 4.348C73.879 75.224 77.863 61.73 78.309 59.83c.096-.386.16-.998-.19-1.384-.288-.322-.734-.322-1.308-.194-13.13 3.124-34.898 9.855-47.488 15.297-.541.225-.764.322-.956.708z" fill="#92A5B0" fill-opacity=".5"/><path d="M17.18 43.603c-.032-1.288-1.02-1.996-2.71-1.127v4.154s.542-.257.957-.45c1.02-.483 1.785-1.32 1.753-2.577zm-2.741-3.767c.318-.13.541-.226.796-.355.925-.45 1.594-1.32 1.594-2.415 0-1.256-1.02-1.578-2.39-.87v3.64zm7.266 3.156c.064 3.284-2.262 5.023-5.322 6.28l-6.215 2.672V34.908s3.92-1.61 5.195-2.093c3.633-1.352 5.769.29 5.769 2.738 0 1.642-.702 3.027-2.2 4.25 1.467.258 2.742 1.482 2.773 3.189z" fill="url(#paint5_linear_94_17434)"/><path d="M33.497 28.63c0-1.449-.988-1.803-2.168-1.481-.956.29-2.071.708-2.071.708v10.595c0 1.063-.16 2.383-1.466 2.706-.988.257-1.466-.42-1.466-1.482v-8.663c0-1.449-.988-1.867-2.168-1.481-1.338.45-2.103.773-2.103.773v10.498c-.032 3.51 2.39 5.282 6.024 4.187 3.219-.966 5.386-2.802 5.418-7.471V28.63z" fill="url(#paint6_linear_94_17434)"/><path d="M68.11 33.008c.924-.193 1.497-.87 1.497-2.029v-1.835l-5.035 1.127v-2.995s2.486-.515 3.155-.676c.86-.193 1.306-.676 1.306-1.675v-1.739l-4.462.966V21.77l3.57-.74c.988-.194 1.307-.87 1.307-1.804v-1.803c-2.231.386-6.47 1.256-9.115 1.868L60.3 34.812s5.035-1.192 7.808-1.804z" fill="url(#paint7_linear_94_17434)"/><path d="M38.914 32.362s2.486-1.32 2.486-3.381c-.032-1.772-1.625-1.385-2.454-1.063l-.032 4.444zm.032 2.415v4.187c0 1.127-.765 1.932-1.721 2.318 0 .033 0-.032 0 0-.797.29-2.518.87-2.518.87V26.147s3.538-1.256 5.61-1.74c3.187-.772 5.481.71 5.45 3.35-.033 2.512-1.403 4.025-2.646 5.088l2.74 2.64c.83.838.893 2.32-.03 3.221-.575.547-2.073 1.095-3.22-.129-.032 0-3.665-3.8-3.665-3.8z" fill="url(#paint8_linear_94_17434)"/><path d="M74.674 23.767s2.455-.934 2.423-2.93c-.032-1.675-1.658-1.385-2.454-1.192l.031 4.122zm-4.143 8.76v-15.33s4.43-.805 5.578-.933c3.187-.419 5.322 1.384 5.258 3.896-.031 2.222-1.402 3.575-2.581 4.38 0 0 2.167 2.447 2.74 3.124.766.87.734 2.383-.413 3.123-1.116.709-2.263.355-2.9-.386l-3.538-4.25v3.735c0 1.127-.67 1.964-1.817 2.19l-2.327.45z" fill="url(#paint9_linear_94_17434)"/><path d="M59.312 26.083l-6.279 1.45v1.77c0 .838.574 1.353 1.403 1.192.51-.097.924-.193.924-.193v1.77c0 .71-1.02 1.16-2.103 1.128-1.53-.064-2.359-1.256-2.39-3.51.031-2.963 1.433-4.702 3.314-5.185.924-.258 1.785-.129 2.454-.032 1.625.258 2.55-.515 2.581-1.868.032-1.45-1.243-2.35-3.952-2.254-5.928.193-8.955 4.508-8.955 9.629 0 5.249 3.41 7.567 7.553 6.827 2.327-.483 3.506-1.256 4.303-1.965.796-.708 1.147-1.77 1.147-2.705v-6.054z" fill="url(#paint10_linear_94_17434)"/><path d="M34.548 8.922C27.6 12.013 22.915 19.388 22.66 22.48c-.095 1.223 1.53 1.416 1.69.096 1.465-5.668 5.927-11.013 10.198-13.654zm22.979 5.28c3.729-.934 5.8-1.063 5.832-2.77.064-2.833-7.904-6.118-15.234-5.506 7.458.515 11.92 3.413 11.92 5.41.032 1.288-1.084 2.415-2.518 2.866zm2.293 62.473c5.61-2.222 10.996-6.505 13.992-12.882.86-1.835-1.626-2.801-2.327-.611-1.753 4.54-5.322 9.854-11.665 13.493z" fill="#fff"/><path d="M88.091 57.513h.765c.414 0 .956.064.956.58 0 .58-.382.643-.892.643h-.797l-.032-1.223zm-.924 3.896h.892v-1.964h.574l1.116 1.964h.956l-1.212-2.028c.67-.065 1.212-.387 1.212-1.224 0-.998-.638-1.385-1.785-1.385h-1.753v4.637zm-2.55-2.318c0 2.512 1.976 4.154 4.207 4.154s4.207-1.61 4.207-4.154c0-2.512-1.976-4.122-4.207-4.122-2.23 0-4.207 1.61-4.207 4.122zm1.116 0c0-1.868 1.37-3.253 3.091-3.253 1.69 0 3.092 1.353 3.092 3.253 0 1.9-1.403 3.252-3.092 3.252-1.72.032-3.091-1.352-3.091-3.252z" fill="url(#paint11_linear_94_17434)"/></g><defs><linearGradient id="paint0_linear_94_17434" x1="45.082" y1="0" x2="45.082" y2="95" gradientUnits="userSpaceOnUse"><stop stop-color="#00609A"/><stop offset="1" stop-color="#1B3646"/></linearGradient><linearGradient id="paint1_linear_94_17434" x1="75.014" y1="32.594" x2="75.014" y2="56.657" gradientUnits="userSpaceOnUse"><stop stop-color="#00609A"/><stop offset="1" stop-color="#1B3646"/></linearGradient><linearGradient id="paint2_linear_94_17434" x1="53.765" y1="36.359" x2="53.765" y2="65.053" gradientUnits="userSpaceOnUse"><stop stop-color="#00609A"/><stop offset="1" stop-color="#1B3646"/></linearGradient><linearGradient id="paint3_linear_94_17434" x1="37.943" y1="42.125" x2="37.943" y2="68.403" gradientUnits="userSpaceOnUse"><stop stop-color="#00609A"/><stop offset="1" stop-color="#1B3646"/></linearGradient><linearGradient id="paint4_linear_94_17434" x1="23.421" y1="46.406" x2="23.421" y2="76.255" gradientUnits="userSpaceOnUse"><stop stop-color="#00609A"/><stop offset="1" stop-color="#1B3646"/></linearGradient><linearGradient id="paint5_linear_94_17434" x1="15.937" y1="32.328" x2="15.937" y2="51.944" gradientUnits="userSpaceOnUse"><stop stop-color="#00609A"/><stop offset="1" stop-color="#1B3646"/></linearGradient><linearGradient id="paint6_linear_94_17434" x1="27.776" y1="27.039" x2="27.776" y2="45.312" gradientUnits="userSpaceOnUse"><stop stop-color="#00609A"/><stop offset="1" stop-color="#1B3646"/></linearGradient><linearGradient id="paint7_linear_94_17434" x1="64.954" y1="17.422" x2="64.954" y2="34.812" gradientUnits="userSpaceOnUse"><stop stop-color="#00609A"/><stop offset="1" stop-color="#1B3646"/></linearGradient><linearGradient id="paint8_linear_94_17434" x1="40.605" y1="24.203" x2="40.605" y2="42.152" gradientUnits="userSpaceOnUse"><stop stop-color="#00609A"/><stop offset="1" stop-color="#1B3646"/></linearGradient><linearGradient id="paint9_linear_94_17434" x1="76.289" y1="16.203" x2="76.289" y2="32.526" gradientUnits="userSpaceOnUse"><stop stop-color="#00609A"/><stop offset="1" stop-color="#1B3646"/></linearGradient><linearGradient id="paint10_linear_94_17434" x1="52.81" y1="20.344" x2="52.81" y2="36.941" gradientUnits="userSpaceOnUse"><stop stop-color="#00609A"/><stop offset="1" stop-color="#1B3646"/></linearGradient><linearGradient id="paint11_linear_94_17434" x1="88.824" y1="54.969" x2="88.824" y2="63.245" gradientUnits="userSpaceOnUse"><stop stop-color="#00609A"/><stop offset="1" stop-color="#1B3646"/></linearGradient><clipPath id="clip0_94_17434"><path fill="#fff" d="M0 0h93v95H0z"/></clipPath></defs></svg>