<svg width="156" height="78" fill="none" xmlns="http://www.w3.org/2000/svg"><g clip-path="url(#clip0_94_17472)"><path d="M155.118.188H.914V77.81h154.204V.187z" fill="url(#paint0_linear_94_17472)" stroke="#fff" stroke-width="1.102"/><path d="M136.986 45.364c-.034.276-.138 1.004-1.078 1.099h-8.255c-.94-.095-1.111-.823-1.146-1.1V32.509c.034-.277.165-.867 1.105-.961h8.3c.94.094 1.04.684 1.074.961v12.856zm2.859-18.66h-16.197c-2.433.197-4.489 1.442-4.763 4.228v15.915c.274 2.786 2.33 4.262 4.763 4.46h16.197c2.433-.198 4.489-1.674 4.763-4.46V30.932c-.274-2.786-2.33-4.03-4.763-4.229zm-65.548 4.843h-7.24v-4.844H89.16v4.844h-7.24v19.76h-7.623v-19.76zm-9.527 0v-4.844H44.953v24.604l20.08-.006.008-4.838H52.594l.002-5.27H64.77v-4.831H52.596v-4.815H64.77zm44.207 3.813c0 .533-.132 1-1.079 1h-8.83v-4.83h8.841c1.076 0 1.068.71 1.068 1.154v2.676zm2.111 6.382c2.378-.192 4.748-1.824 4.748-4.506v-6.074c-.276-2.772-2.338-4.27-4.782-4.467H91.446v24.612h7.622v-9.565h3.034l4.954 9.565h8.765l-5.9-9.565h1.167zm-81.911 9.565l5.106-15.454v15.454h7.622V26.703h-10.29l-4.954 12.302-4.954-12.302H11.418v24.604h7.622V35.853l5.144 15.454h4.992z" fill="#EFF5F8"/></g><defs><linearGradient id="paint0_linear_94_17472" x1="78.016" y1=".188" x2="78.016" y2="77.811" gradientUnits="userSpaceOnUse"><stop stop-color="#00609A"/><stop offset="1" stop-color="#1B3646"/></linearGradient><clipPath id="clip0_94_17472"><path fill="#fff" transform="translate(.758 .031)" d="M0 0h154.512v77.935H0z"/></clipPath></defs></svg>