<svg width="32" height="32" fill="none" xmlns="http://www.w3.org/2000/svg"><g filter="url(#filter0_i_94_17792)"><rect x="14.242" y="24.734" width="3.51" height="5.265" rx="1.277" fill="#18415A"/></g><g filter="url(#filter1_i_94_17792)"><path d="M1.96 10.797c0-3.771 0-5.657 1.173-6.829C4.304 2.797 6.19 2.797 9.96 2.797h12.077c3.772 0 5.657 0 6.829 1.171 1.171 1.172 1.171 3.058 1.171 6.829v4.514c0 3.771 0 5.657-1.171 6.829-1.172 1.171-3.057 1.171-6.829 1.171H9.961c-3.771 0-5.657 0-6.828-1.171-1.173-1.172-1.173-3.058-1.173-6.83v-4.514z" fill="#002B45"/></g><g filter="url(#filter2_di_94_17792)"><path d="M4.523 11.266c0-2.829 0-4.243.88-5.122.878-.878 2.292-.878 5.12-.878h10.982c2.828 0 4.242 0 5.121.878.879.879.879 2.293.879 5.122v3.548c0 2.828 0 4.242-.879 5.121-.879.879-2.293.879-5.121.879H10.523c-2.828 0-4.242 0-5.12-.879-.88-.879-.88-2.293-.88-5.121v-3.548z" fill="#FF7A57"/><path d="M5.173 11.266c0-1.433.002-2.442.104-3.206.1-.744.286-1.158.585-1.456.298-.299.711-.484 1.456-.584.764-.103 1.773-.104 3.205-.104h10.982c1.432 0 2.441.001 3.205.104.745.1 1.158.285 1.456.584.299.298.485.712.585 1.456.102.764.104 1.773.104 3.206v3.548c0 1.432-.002 2.441-.104 3.205-.1.745-.286 1.158-.585 1.456-.298.299-.711.484-1.456.585-.764.102-1.773.104-3.205.104H10.523c-1.432 0-2.441-.002-3.205-.104-.745-.1-1.158-.286-1.456-.585-.299-.298-.484-.711-.585-1.456-.102-.764-.104-1.773-.104-3.205v-3.548z" stroke="#fff" stroke-width="1.3"/></g><defs><filter id="filter0_i_94_17792" x="14.242" y="24.734" width="3.51" height="5.43" filterUnits="userSpaceOnUse" color-interpolation-filters="sRGB"><feFlood flood-opacity="0" result="BackgroundImageFix"/><feBlend in="SourceGraphic" in2="BackgroundImageFix" result="shape"/><feColorMatrix in="SourceAlpha" values="0 0 0 0 0 0 0 0 0 0 0 0 0 0 0 0 0 0 127 0" result="hardAlpha"/><feOffset dy=".165"/><feGaussianBlur stdDeviation="1.28"/><feComposite in2="hardAlpha" operator="arithmetic" k2="-1" k3="1"/><feColorMatrix values="0 0 0 0 0 0 0 0 0 0.14902 0 0 0 0 0.239216 0 0 0 1 0"/><feBlend in2="shape" result="effect1_innerShadow_94_17792"/></filter><filter id="filter1_i_94_17792" x="1.961" y="2.797" width="28.078" height="20.68" filterUnits="userSpaceOnUse" color-interpolation-filters="sRGB"><feFlood flood-opacity="0" result="BackgroundImageFix"/><feBlend in="SourceGraphic" in2="BackgroundImageFix" result="shape"/><feColorMatrix in="SourceAlpha" values="0 0 0 0 0 0 0 0 0 0 0 0 0 0 0 0 0 0 127 0" result="hardAlpha"/><feOffset dy=".165"/><feGaussianBlur stdDeviation=".991"/><feComposite in2="hardAlpha" operator="arithmetic" k2="-1" k3="1"/><feColorMatrix values="0 0 0 0 0 0 0 0 0 0.0830918 0 0 0 0 0.133333 0 0 0 0.59 0"/><feBlend in2="shape" result="effect1_innerShadow_94_17792"/></filter><filter id="filter2_di_94_17792" x="2.954" y="3.862" width="26.119" height="18.686" filterUnits="userSpaceOnUse" color-interpolation-filters="sRGB"><feFlood flood-opacity="0" result="BackgroundImageFix"/><feColorMatrix in="SourceAlpha" values="0 0 0 0 0 0 0 0 0 0 0 0 0 0 0 0 0 0 127 0" result="hardAlpha"/><feOffset dy=".165"/><feGaussianBlur stdDeviation=".785"/><feColorMatrix values="0 0 0 0 0.0738889 0 0 0 0 0.225185 0 0 0 0 0.316667 0 0 0 1 0"/><feBlend in2="BackgroundImageFix" result="effect1_dropShadow_94_17792"/><feBlend in="SourceGraphic" in2="effect1_dropShadow_94_17792" result="shape"/><feColorMatrix in="SourceAlpha" values="0 0 0 0 0 0 0 0 0 0 0 0 0 0 0 0 0 0 127 0" result="hardAlpha"/><feOffset dy=".165"/><feGaussianBlur stdDeviation="1.879"/><feComposite in2="hardAlpha" operator="arithmetic" k2="-1" k3="1"/><feColorMatrix values="0 0 0 0 0.904167 0 0 0 0 0.29872 0 0 0 0 0.139392 0 0 0 1 0"/><feBlend in2="shape" result="effect2_innerShadow_94_17792"/></filter></defs></svg>