<svg width="32" height="32" fill="none" xmlns="http://www.w3.org/2000/svg"><g filter="url(#filter0_i_94_17839)"><path d="M22.588 5.78h-.397c-.141-1.119-.552-2.011-1.204-2.677-.85-.85-2.082-1.275-3.67-1.275H9.414c-3.188 0-4.944 1.757-4.944 4.944 0 1.587.425 2.82 1.275 3.67.85.85 2.082 1.274 3.669 1.274h7.905c2.833 0 4.533-1.402 4.873-3.952h.397c2.96 0 2.96.397 2.96 2.96v2.636c0 2.564 0 2.96-2.96 2.96h-5.27c-4.236 0-4.845 2.012-4.93 3.967-1.275.085-2.65.68-2.65 2.947v3.952c0 2.451 1.616 2.961 2.962 2.961h1.317c1.346 0 2.96-.51 2.96-2.96v-3.953c0-2.238-1.345-2.862-2.62-2.947.07-1.43.482-1.997 2.947-1.997h5.27c4.604 0 4.944-1.87 4.944-4.944v-2.621c.014-3.074-.326-4.944-4.93-4.944z" fill="#FF7A57"/></g><defs><filter id="filter0_i_94_17839" x="4.469" y="1.828" width="23.049" height="28.319" filterUnits="userSpaceOnUse" color-interpolation-filters="sRGB"><feFlood flood-opacity="0" result="BackgroundImageFix"/><feBlend in="SourceGraphic" in2="BackgroundImageFix" result="shape"/><feColorMatrix in="SourceAlpha" values="0 0 0 0 0 0 0 0 0 0 0 0 0 0 0 0 0 0 127 0" result="hardAlpha"/><feOffset/><feGaussianBlur stdDeviation="2"/><feComposite in2="hardAlpha" operator="arithmetic" k2="-1" k3="1"/><feColorMatrix values="0 0 0 0 1 0 0 0 0 0.208333 0 0 0 0 0 0 0 0 1 0"/><feBlend in2="shape" result="effect1_innerShadow_94_17839"/></filter></defs></svg>