<svg width="32" height="32" fill="none" xmlns="http://www.w3.org/2000/svg"><path d="M29.21 11.84a3.921 3.921 0 01-3.09-5.3 1.84 1.84 0 00-.55-2.07 14.75 14.75 0 00-4.4-2.55 1.85 1.85 0 00-2.09.58 3.91 3.91 0 01-6.16 0 1.85 1.85 0 00-2.09-.58 14.82 14.82 0 00-4.1 2.3 1.86 1.86 0 00-.58 2.13 3.9 3.9 0 01-3.25 5.36 1.85 1.85 0 00-1.62 1.49 14.32 14.32 0 00-.09 5.15 1.85 1.85 0 001.63 1.55A3.9 3.9 0 016 25.41a1.82 1.82 0 00.51 2.18 14.86 14.86 0 004.36 2.51 1.84 1.84 0 002.13-.67 3.869 3.869 0 013.2-1.68 3.92 3.92 0 013.14 1.58 1.84 1.84 0 002.16.61c1.45-.583 2.8-1.39 4-2.39a1.85 1.85 0 00.54-2.11 3.901 3.901 0 013.13-5.39 1.85 1.85 0 001.57-1.52c.16-.834.248-1.68.26-2.53 0-.895-.084-1.79-.25-2.67a1.83 1.83 0 00-1.54-1.49zM21 16a5 5 0 11-10 0 5 5 0 0110 0z" fill="#002B45"/></svg>