<svg width="32" height="32" fill="none" xmlns="http://www.w3.org/2000/svg"><path d="M13 5.339v24h6v-24c0-1.467-.6-2.667-2.4-2.667h-1.2c-1.8 0-2.4 1.2-2.4 2.667z" fill="#FF7A57"/><path d="M29.335 29.336H2.668c-.547 0-1-.453-1-1 0-.547.453-1 1-1h26.667c.546 0 1 .453 1 1 0 .547-.454 1-1 1z" fill="#002B45"/><path d="M4 13.338v16h5.333v-16c0-1.466-.533-2.666-2.133-2.666H6.133c-1.6 0-2.133 1.2-2.133 2.666zm18.668 6.657v9.333h5.333v-9.333c0-1.467-.533-2.667-2.133-2.667h-1.067c-1.6 0-2.133 1.2-2.133 2.667z" fill="#002B45"/></svg>