<svg width="32" height="32" fill="none" xmlns="http://www.w3.org/2000/svg"><path d="M24.144 13.07L13.73 2.658 12.5 1.425a1.07 1.07 0 00-1.502 0 1.07 1.07 0 000 1.502l1.233 1.232-7.976 7.976c-.907.907-1.389 1.828-1.417 2.749-.028.977.453 1.955 1.417 2.932l5.68 5.681c1.899 1.884 3.797 1.884 5.682 0l8.528-8.528a1.32 1.32 0 00.382-1.034 1.344 1.344 0 00-.382-.865z" fill="#002B45"/><g filter="url(#filter0_i_94_17828)"><path d="M22.667 30.227H4.25a1.07 1.07 0 01-1.063-1.063c0-.58.482-1.062 1.063-1.062h18.417c.58 0 1.062.481 1.062 1.062a1.07 1.07 0 01-1.062 1.063z" fill="#FF7A57"/></g><g filter="url(#filter1_i_94_17828)"><path d="M27.413 18.938c-.369-.396-1.049-.396-1.417 0-.44.482-2.621 2.933-2.621 4.803a3.325 3.325 0 003.33 3.329 3.325 3.325 0 003.328-3.33c0-1.855-2.181-4.32-2.62-4.802z" fill="#FF7A57"/></g><defs><filter id="filter0_i_94_17828" x="3.188" y="28.102" width="20.541" height="2.125" filterUnits="userSpaceOnUse" color-interpolation-filters="sRGB"><feFlood flood-opacity="0" result="BackgroundImageFix"/><feBlend in="SourceGraphic" in2="BackgroundImageFix" result="shape"/><feColorMatrix in="SourceAlpha" values="0 0 0 0 0 0 0 0 0 0 0 0 0 0 0 0 0 0 127 0" result="hardAlpha"/><feOffset/><feGaussianBlur stdDeviation="2"/><feComposite in2="hardAlpha" operator="arithmetic" k2="-1" k3="1"/><feColorMatrix values="0 0 0 0 1 0 0 0 0 0.208333 0 0 0 0 0 0 0 0 1 0"/><feBlend in2="shape" result="effect1_innerShadow_94_17828"/></filter><filter id="filter1_i_94_17828" x="23.375" y="18.641" width="6.658" height="8.429" filterUnits="userSpaceOnUse" color-interpolation-filters="sRGB"><feFlood flood-opacity="0" result="BackgroundImageFix"/><feBlend in="SourceGraphic" in2="BackgroundImageFix" result="shape"/><feColorMatrix in="SourceAlpha" values="0 0 0 0 0 0 0 0 0 0 0 0 0 0 0 0 0 0 127 0" result="hardAlpha"/><feOffset/><feGaussianBlur stdDeviation="2"/><feComposite in2="hardAlpha" operator="arithmetic" k2="-1" k3="1"/><feColorMatrix values="0 0 0 0 1 0 0 0 0 0.208333 0 0 0 0 0 0 0 0 1 0"/><feBlend in2="shape" result="effect1_innerShadow_94_17828"/></filter></defs></svg>