<svg width="20" height="20" fill="none" xmlns="http://www.w3.org/2000/svg"><g opacity=".9" fill="#fff"><path d="M10.001 18.037c-.258 0-.508-.034-.716-.109C6.1 16.837 1.043 12.961 1.043 7.236c0-2.916 2.358-5.283 5.258-5.283 1.409 0 2.725 1.058 3.7 2.042.975-.984 2.292-2.042 3.7-2.042 2.9 0 5.259 2.375 5.259 5.283 0 5.734-5.059 9.6-8.242 10.692a2.158 2.158 0 01-.717.108zm-3.7-14.834c-2.208 0-4.008 1.808-4.008 4.033 0 5.692 5.475 8.859 7.4 9.517.15.05.475.05.625 0 1.917-.658 7.4-3.816 7.4-9.517 0-2.225-1.8-4.033-4.008-4.033-1.267 0-2.442 1.1-3.2 2.125-.234.317-.767.317-1 0-.775-1.033-1.942-2.125-3.21-2.125z"/><path fill-rule="evenodd" clip-rule="evenodd" d="M9.261 18.002c-1.603-.55-3.673-1.798-5.343-3.627-1.67-1.83-2.945-4.247-2.945-7.131 0-2.955 2.389-5.353 5.328-5.353.722 0 1.416.27 2.05.662.612.378 1.171.872 1.65 1.35.479-.478 1.038-.972 1.65-1.35.634-.391 1.328-.662 2.05-.662 2.939 0 5.328 2.406 5.328 5.353 0 2.888-1.274 5.305-2.945 7.134-1.67 1.828-3.74 3.074-5.343 3.624a2.228 2.228 0 01-.74.112 2.24 2.24 0 01-.74-.112zm1.457-.066c3.183-1.092 8.241-4.959 8.241-10.692 0-2.908-2.358-5.283-5.258-5.283-1.385 0-2.68 1.023-3.65 1.992l-.05.05a16.454 16.454 0 00-.05-.05c-.97-.97-2.265-1.992-3.65-1.992-2.9 0-5.258 2.366-5.258 5.283 0 5.725 5.058 9.6 8.241 10.692.209.075.459.108.717.108.258 0 .508-.033.717-.108zM6.3 3.28c-2.17 0-3.938 1.776-3.938 3.963 0 2.821 1.356 5.02 2.957 6.596 1.601 1.577 3.442 2.528 4.395 2.854.064.022.174.034.29.034.116 0 .226-.012.29-.034.95-.326 2.79-1.275 4.392-2.851 1.602-1.576 2.96-3.773 2.96-6.599 0-2.187-1.768-3.963-3.938-3.963-.613 0-1.209.266-1.749.664s-1.018.923-1.394 1.432a.686.686 0 01-.557.266.686.686 0 01-.556-.266c-.385-.513-.865-1.038-1.405-1.435S6.914 3.28 6.301 3.28zm3.208 2.054c.234.317.767.317 1 0 .759-1.025 1.934-2.124 3.2-2.124 2.209 0 4.009 1.808 4.009 4.033 0 5.7-5.484 8.858-7.4 9.517-.15.05-.475.05-.625 0-1.925-.659-7.4-3.825-7.4-9.517 0-2.225 1.8-4.033 4.008-4.033 1.267 0 2.433 1.091 3.208 2.124z"/></g></svg>