<svg width="30" height="30" fill="none" xmlns="http://www.w3.org/2000/svg"><g filter="url(#filter0_i_94_68774)" fill="#FF7A57"><path d="M23.364 14.412c-.712-.187-1.55-.287-2.55-.287-1.387 0-1.9.338-2.612.875-.038.025-.075.063-.113.1l-1.187 1.263c-1 1.05-2.8 1.062-3.8-.013l-1.188-1.25a.809.809 0 00-.112-.1c-.713-.537-1.225-.875-2.613-.875-1 0-1.837.1-2.55.287-2.975.8-2.975 3.163-2.975 5.238v1.163c0 3.137 0 6.687 6.688 6.687h9.3c4.437 0 6.687-2.25 6.687-6.688V19.65c0-2.075 0-4.437-2.975-5.237zM17.914 23H12.09a.867.867 0 01-.862-.875c0-.488.387-.875.862-.875h5.825c.475 0 .863.387.863.875a.867.867 0 01-.863.875z"/><path d="M24.013 8.025v4.625c-.05-.025-.112-.037-.162-.05-.875-.237-1.863-.35-3.038-.35-1.925 0-2.825.563-3.75 1.262-.125.088-.237.2-.337.3l-1.2 1.263c-.113.125-.313.2-.525.2a.725.725 0 01-.538-.213l-1.175-1.237a2.184 2.184 0 00-.362-.325c-.9-.688-1.813-1.25-3.738-1.25-1.175 0-2.162.113-3.037.35-.05.013-.113.025-.163.05V8.025c0-2.588 0-5.525 5.525-5.525h6.975c5.525 0 5.525 2.938 5.525 5.525z"/></g><defs><filter id="filter0_i_94_68774" x="0" y="0" width="30" height="30" filterUnits="userSpaceOnUse" color-interpolation-filters="sRGB"><feFlood flood-opacity="0" result="BackgroundImageFix"/><feBlend in="SourceGraphic" in2="BackgroundImageFix" result="shape"/><feColorMatrix in="SourceAlpha" values="0 0 0 0 0 0 0 0 0 0 0 0 0 0 0 0 0 0 127 0" result="hardAlpha"/><feOffset/><feGaussianBlur stdDeviation="3.5"/><feComposite in2="hardAlpha" operator="arithmetic" k2="-1" k3="1"/><feColorMatrix values="0 0 0 0 1 0 0 0 0 0.208333 0 0 0 0 0 0 0 0 0.6 0"/><feBlend in2="shape" result="effect1_innerShadow_94_68774"/></filter></defs></svg>