<svg width="287" height="33" fill="none" xmlns="http://www.w3.org/2000/svg"><path fill-rule="evenodd" clip-rule="evenodd" d="M1.58 3.227h6.25c.79 0 1.508.646 1.508 1.436v5.959c0 .79-.718 1.508-1.58 1.508H1.58C.718 12.202 0 11.484 0 10.694V4.663c0-.79.718-1.436 1.58-1.436zm0 10.123h6.25c.861 0 1.58.647 1.58 1.508v5.96c0 .79-.719 1.508-1.58 1.508H1.58c-.862 0-1.58-.718-1.58-1.508v-5.96c0-.861.718-1.508 1.58-1.508zm0 10.124h6.25c.861 0 1.58.646 1.58 1.508v5.96c0 .79-.719 1.507-1.58 1.507H1.58c-.862 0-1.58-.646-1.58-1.507v-5.96c0-.861.718-1.508 1.58-1.508zM12.066 13.35h6.249c.861 0 1.58.647 1.58 1.508v5.96c0 .79-.719 1.508-1.58 1.508h-6.249c-.862 0-1.58-.647-1.58-1.508v-5.96c.072-.861.718-1.508 1.58-1.508zm0 10.124h6.249c.861 0 1.58.646 1.58 1.508v5.96c0 .79-.719 1.507-1.58 1.507h-6.249c-.862 0-1.58-.646-1.58-1.507v-5.96c.072-.861.718-1.508 1.58-1.508zm10.558 0h6.248c.862 0 1.58.646 1.58 1.508v5.96c0 .79-.718 1.507-1.58 1.507h-6.248c-.862 0-1.58-.646-1.58-1.507v-5.96c0-.861.718-1.508 1.58-1.508z" fill="#FF7A57"/><path fill-rule="evenodd" clip-rule="evenodd" d="M255.184.04h.503c-.072.358-.144.645-.359.789-.216.215-.503.287-.862.287s-.646-.072-.862-.287c-.215-.216-.359-.43-.359-.79h.503c.072.215.143.36.215.43.144.073.287.144.503.144.215 0 .431-.071.503-.143.072-.072.143-.216.215-.43zm-3.088 1.507h.718V6.5l3.304-4.954h.79v6.247h-.718V2.839l-3.304 4.955h-.79V1.547zm-13.431 0h.718V6.5l3.304-4.954h.79v6.247h-.718V2.839l-3.304 4.955h-.79V1.547zm-13.359 6.247V1.547h.79v2.585h3.232V1.547h.79v6.247h-.79V4.85h-3.232v2.944h-.79zm-11.922-2.585h2.083l-.647-1.724c-.215-.502-.359-.933-.431-1.292-.071.43-.215.79-.359 1.22l-.646 1.796zm-1.796 2.585l2.37-6.247h.862l2.514 6.247h-.934l-.718-1.867h-2.585l-.647 1.867h-.862zm-12.712-6.247h4.884v6.247h-.79v-5.53h-3.232v5.53h-.79V1.547h-.072zM184.44 7.794V1.547h1.221l1.436 4.452c.144.43.216.718.287.933.072-.215.216-.574.359-1.005l1.509-4.38h1.077v6.247h-.718V2.552l-1.796 5.242h-.718l-1.795-5.314v5.314h-.862zm-13.287-3.016c0 .718.215 1.364.574 1.795.431.43.934.646 1.508.646.647 0 1.15-.215 1.509-.646.431-.43.574-1.077.574-1.867 0-.503-.072-.933-.287-1.364-.144-.36-.431-.646-.718-.862a2.027 2.027 0 00-1.078-.287c-.574 0-1.077.215-1.508.574-.359.36-.574 1.006-.574 2.01zm-.79-.072c0-1.005.287-1.867.861-2.441.575-.575 1.293-.862 2.155-.862.575 0 1.077.144 1.508.431.431.287.79.646 1.078 1.149.215.502.359 1.077.359 1.651 0 .647-.144 1.22-.359 1.724a3.332 3.332 0 01-1.078 1.148c-.431.288-.933.36-1.508.36a3.075 3.075 0 01-1.58-.431c-.431-.288-.79-.647-1.006-1.15-.359-.502-.43-1.004-.43-1.579zm-11.995-3.16h.79v2.73c.359 0 .647-.072.79-.216.144-.144.36-.503.575-1.077.144-.43.287-.718.431-.862.144-.143.287-.287.503-.43.215-.144.431-.144.646-.144h.503v.718h-.287c-.288 0-.431.072-.575.215-.144.144-.287.431-.431.79-.215.503-.359.862-.503 1.005-.143.144-.287.216-.502.36.43.143.79.502 1.149 1.148l1.292 2.082h-1.005l-1.006-1.723c-.287-.502-.502-.79-.718-.933-.215-.144-.431-.287-.718-.287v2.943h-.79V1.547h-.144zM134.523 5.21h2.083l-.646-1.724c-.216-.502-.359-.933-.431-1.292-.072.43-.216.79-.359 1.22l-.647 1.796zm-1.795 2.585l2.37-6.247h.862l2.514 6.247h-.934l-.718-1.867h-2.514l-.646 1.867h-.934zm-12.713-6.247h4.884v6.247h-.79v-5.53h-3.232v5.53h-.79V1.547h-.072zm-13.43 0h4.884v6.247h-.79v-5.53h-3.232v5.53h-.79V1.547h-.072zm-13.287 0h.862l2.01 3.805 1.796-3.805h.79L96.458 6.43c-.287.575-.503 1.006-.718 1.22-.216.216-.431.288-.79.288-.216 0-.503-.072-.79-.143v-.718c.215.143.43.215.718.215a.656.656 0 00.503-.215c.143-.144.287-.431.502-.862l-2.585-4.667zM81.806 4.49h1.58c.503 0 .934-.072 1.15-.287.215-.216.359-.503.359-.862 0-.287-.072-.503-.216-.646-.144-.216-.287-.288-.503-.36-.143-.071-.359-.071-.79-.071h-1.58V4.49zm-.862 3.303V1.547h2.299c.43 0 .718 0 .933.072.288.071.575.143.79.287.216.143.36.359.503.574.144.287.216.575.216.862 0 .502-.144 1.005-.503 1.364-.36.36-.934.575-1.796.575h-1.58v2.513h-.862zm-11.85-6.247h4.022v.718h-3.16v5.529h-.79V1.547h-.072zm195.066.618h22.839v29.87h-8.044V20.4h-9.768l2.442-5.887h7.398V8.985h-8.978c-.79 0-1.221 1.077-1.221 3.303V31.96h-7.972V9.488c0-2.01.287-3.806.934-5.242.646-1.364 1.436-2.082 2.37-2.082zm-22.121 29.87v-18.67h4.668l3.95 8.76 3.879-8.76h4.596V31.96h-4.884v-11.2l-3.591 8.113-3.663-8.114V31.96h-4.955v.072zm-15.586-18.669h14.221v18.596h-5.027v-7.18h-6.105l1.508-3.662h4.597v-3.446h-5.531c-.502 0-.718.718-.718 2.082v12.278h-4.956V17.96c0-1.292.216-2.37.575-3.23.431-.862.934-1.365 1.436-1.365zm-18.961 13.211v-5.744c0-1.22.072-2.297.288-3.23.215-.934.502-1.724.862-2.298.359-.647.718-1.077 1.221-1.436.43-.288.933-.503 1.436-.503h11.851v18.596h-4.956V17.673H214.1c-.575 0-1.005.215-1.293.79-.287.574-.359 1.364-.359 2.441v5.529c0 1.58-.144 2.944-.503 3.949-.359 1.077-.861 1.58-1.508 1.58h-3.95v-4.093c.431 0 .718-.144.79-.503.144-.287.215-.574.215-.79zm-13.502 5.457h-4.956V13.365h4.956v18.668zm6.248-18.74v5.242c0 .502-.071.861-.143 1.22-.072.36-.216.575-.359.79-.144.215-.288.359-.431.43-.144.073-.216.144-.288.144h-3.303l-1.509 3.662h4.812c.431 0 .719.216.934.646.216.431.287 1.006.287 1.724v4.81h4.956v-3.23c0-.719-.072-1.437-.215-2.155-.144-.718-.288-1.364-.503-1.938-.216-.575-.431-1.077-.718-1.508-.288-.431-.503-.718-.79-.862.287-.287.574-.646.79-1.077.287-.43.502-.861.718-1.436.215-.502.359-1.149.503-1.723.143-.646.143-1.292.143-2.082v-2.73h-4.884v.072zm-12.568.072h-12.066c-.575 0-1.078.215-1.581.718-.502.503-.933 1.149-1.292 1.939s-.647 1.795-.862 2.943c-.216 1.15-.288 2.37-.288 3.662 0 1.293.072 2.513.288 3.662.215 1.149.503 2.154.862 2.944.359.861.79 1.508 1.292 2.01.503.503 1.006.718 1.581.718h10.486l1.58-4.092h-8.547c-.287 0-.575-.144-.862-.431-.287-.287-.503-.646-.718-1.077-.216-.503-.359-1.005-.503-1.652a9.059 9.059 0 01-.216-2.01c0-1.436.216-2.657.647-3.59.431-.933 1.005-1.436 1.58-1.436h6.967l1.652-4.308zm-10.271 11.416h6.536l1.364-3.662h-6.392l-1.508 3.662zm-18.027-7.108h5.458c.216 0 .431.144.575.503.143.359.215.718.215 1.148 0 .431-.072.79-.215 1.15-.144.358-.287.502-.575.502h-3.591l-1.508 3.662h7.469c1.006 0 1.724-.503 2.299-1.58.574-1.005.862-2.298.862-3.805 0-1.652-.216-3.088-.719-4.237-.502-1.148-1.292-1.723-2.442-1.723h-12.64V31.89h4.884V17.673h-.072zm-21.762 8.903v-5.744c0-1.22.072-2.297.287-3.23.216-.934.503-1.724.862-2.298.359-.647.718-1.077 1.221-1.436.431-.288.934-.503 1.436-.503h11.851v18.596h-4.956V17.673h-4.094c-.574 0-1.005.215-1.292.79-.288.574-.36 1.364-.36 2.441v5.529c0 1.58-.143 2.944-.502 3.949-.359 1.077-.862 1.58-1.509 1.58h-3.95v-4.093c.431 0 .718-.144.79-.503.144-.287.216-.574.216-.79zm-18.171-13.211v18.596h13.143c.503 0 .862-.215 1.221-.574.359-.36.647-.862.862-1.436.216-.575.359-1.22.503-2.01.072-.79.143-1.508.143-2.298 0-1.436-.287-2.585-.861-3.375-.575-.79-1.293-1.22-2.155-1.22h-8.834V17.6h9.696l1.724-4.308h-15.442v.072zm10.486 14.575h-6.536v-3.159h6.536c.215 0 .431.144.574.503.144.287.144.646.144 1.077 0 .359-.072.718-.215 1.077-.072.287-.288.43-.503.503zm-21.547-.071h2.801c.647 0 1.149-.503 1.58-1.508.431-1.005.647-2.226.647-3.734 0-.718-.072-1.436-.144-2.01-.143-.575-.287-1.149-.503-1.58-.215-.43-.431-.79-.718-1.005a1.137 1.137 0 00-.862-.359h-2.801c-.287 0-.574.144-.862.43-.287.288-.502.647-.718 1.078-.215.43-.359 1.005-.503 1.651a9.12 9.12 0 00-.215 2.01c0 1.508.215 2.657.646 3.663.503.933 1.006 1.364 1.652 1.364zm5.818 4.164h-8.906c-.575 0-1.077-.215-1.58-.718-.503-.503-.934-1.149-1.293-2.01-.359-.862-.646-1.867-.862-3.016-.215-1.149-.287-2.513-.287-3.877 0-1.293.144-2.513.359-3.59a15.09 15.09 0 01.862-2.872c.359-.79.79-1.436 1.293-1.867.502-.43 1.005-.646 1.58-.646h8.834c.574 0 1.077.215 1.508.646.503.43.862 1.077 1.221 1.867.359.79.646 1.723.862 2.8.215 1.077.287 2.298.287 3.59 0 1.292-.072 2.513-.287 3.662-.216 1.149-.503 2.226-.862 3.087-.359.862-.79 1.58-1.293 2.083-.431.574-.933.861-1.436.861zM99.903 13.365H88.34c-.575 0-1.077.215-1.58.718a5.712 5.712 0 00-1.293 1.939c-.359.79-.646 1.795-.862 2.872-.215 1.148-.287 2.297-.287 3.59 0 1.292.072 2.513.287 3.661.216 1.15.503 2.154.862 3.016.36.862.79 1.508 1.293 2.01.503.503 1.005.79 1.58.79h9.983l1.652-4.092h-8.762c-.646 0-1.15-.503-1.58-1.508-.431-1.005-.647-2.226-.647-3.662s.216-2.657.647-3.59c.43-.933.934-1.436 1.58-1.436h7.038l1.652-4.308zM73.186 27.869h2.8c.647 0 1.15-.503 1.58-1.508.432-1.005.647-2.226.647-3.734 0-.718-.072-1.436-.143-2.01-.144-.575-.288-1.149-.503-1.58-.216-.43-.431-.79-.718-1.005a1.138 1.138 0 00-.862-.359h-2.801c-.288 0-.575.144-.862.43-.288.288-.503.647-.718 1.078-.216.43-.36 1.005-.503 1.651a9.077 9.077 0 00-.216 2.01c0 1.508.216 2.657.647 3.663.502.933 1.005 1.364 1.652 1.364zm5.817 4.164h-8.906c-.574 0-1.077-.215-1.58-.718-.503-.503-.933-1.149-1.293-2.01-.359-.862-.646-1.867-.862-3.016-.215-1.149-.287-2.513-.287-3.877 0-1.293.144-2.513.36-3.59a15.02 15.02 0 01.861-2.872c.36-.79.79-1.436 1.293-1.867.503-.43 1.005-.646 1.58-.646h8.906c.575 0 1.077.215 1.508.646.503.43.862 1.077 1.221 1.867.36.79.647 1.723.862 2.8.216 1.077.287 2.298.287 3.59 0 1.292-.072 2.513-.287 3.662-.215 1.149-.503 2.226-.862 3.087-.359.862-.79 1.58-1.293 2.083-.43.574-.933.861-1.508.861zm-42.16 0V2.164h7.542l6.32 14.073 6.249-14.073h7.326v29.87h-7.757V14.01l-5.818 12.996-5.889-12.996v18.022h-7.972z" fill="#fff"/></svg>