<svg width="271" height="31" fill="none" xmlns="http://www.w3.org/2000/svg"><path fill-rule="evenodd" clip-rule="evenodd" d="M1.486 3.078h5.879c.743 0 1.419.608 1.419 1.351v5.607c0 .743-.676 1.418-1.487 1.418h-5.81C.675 11.522 0 10.846 0 10.104V4.428c0-.743.676-1.35 1.486-1.35zm0 9.524h5.879c.81 0 1.486.608 1.486 1.419v5.607c0 .742-.675 1.418-1.486 1.418H1.486c-.81 0-1.486-.675-1.486-1.418V14.02c0-.81.676-1.419 1.486-1.419zm0 9.525h5.879c.81 0 1.486.608 1.486 1.418v5.607c0 .743-.675 1.418-1.486 1.418H1.486C.676 30.57 0 29.962 0 29.152v-5.607c0-.81.676-1.418 1.486-1.418zm9.865-9.525h5.879c.81 0 1.486.608 1.486 1.419v5.607c0 .742-.675 1.418-1.486 1.418h-5.88c-.81 0-1.486-.608-1.486-1.418V14.02c.067-.81.675-1.419 1.486-1.419zm0 9.525h5.879c.81 0 1.486.608 1.486 1.418v5.607c0 .743-.675 1.418-1.486 1.418h-5.88c-.81 0-1.486-.608-1.486-1.418v-5.607c.067-.81.675-1.418 1.486-1.418zm9.933 0h5.878c.811 0 1.487.608 1.487 1.418v5.607c0 .743-.676 1.418-1.487 1.418h-5.878c-.811 0-1.487-.608-1.487-1.418v-5.607c0-.81.676-1.418 1.487-1.418z" fill="#FF7A57"/><path fill-rule="evenodd" clip-rule="evenodd" d="M240.068.078h.473c-.068.338-.136.608-.338.743-.203.203-.473.27-.811.27-.338 0-.608-.067-.811-.27-.203-.202-.338-.405-.338-.743h.473c.068.203.135.338.203.406.135.067.27.135.473.135.203 0 .405-.068.473-.135.067-.068.135-.203.203-.406zm-2.906 1.419h.676v4.662l3.108-4.662h.743v5.878h-.675V2.713l-3.109 4.662h-.743V1.497zm-12.635 0h.676v4.662l3.108-4.662h.743v5.878h-.676V2.713l-3.108 4.662h-.743V1.497zm-12.568 5.878V1.497h.744v2.432h3.04V1.497h.743v5.878h-.743v-2.77h-3.04v2.77h-.744zm-11.216-2.432h1.96l-.608-1.622a6.38 6.38 0 01-.406-1.216c-.067.406-.203.743-.338 1.149l-.608 1.689zm-1.689 2.432l2.23-5.878h.811l2.364 5.878h-.878l-.676-1.756h-2.432l-.608 1.756h-.811zm-11.959-5.878h4.594v5.878h-.743V2.173h-3.041v5.202h-.743V1.497h-.067zm-13.581 5.878V1.497h1.148l1.352 4.19c.135.405.202.675.27.878.067-.203.202-.54.338-.946l1.419-4.122h1.013v5.878h-.676V2.443l-1.689 4.932h-.675l-1.69-5v5h-.81zm-12.5-2.837c0 .675.202 1.283.54 1.689.405.405.878.608 1.419.608.608 0 1.081-.203 1.419-.608.405-.406.54-1.014.54-1.757 0-.473-.067-.878-.27-1.284-.135-.338-.405-.608-.676-.81a1.903 1.903 0 00-1.013-.27c-.541 0-1.014.202-1.419.54-.338.338-.54.946-.54 1.892zm-.744-.068c0-.946.271-1.757.811-2.297.541-.54 1.216-.811 2.027-.811.541 0 1.014.135 1.419.405s.743.608 1.014 1.081a4.02 4.02 0 01.337 1.554 4.09 4.09 0 01-.337 1.622 3.14 3.14 0 01-1.014 1.081c-.405.27-.878.338-1.419.338-.54 0-1.013-.135-1.486-.405-.406-.27-.744-.609-.946-1.082-.338-.472-.406-.945-.406-1.486zm-11.284-2.973h.744v2.568c.338 0 .608-.068.743-.203s.338-.473.541-1.014c.135-.405.27-.675.405-.81.135-.136.27-.27.473-.406.203-.135.405-.135.608-.135h.473v.676h-.27c-.271 0-.406.067-.541.202-.135.136-.27.406-.405.744-.203.473-.338.81-.473.946-.135.135-.27.202-.473.337.405.136.743.473 1.081 1.082l1.216 1.959h-.946l-.946-1.622c-.27-.473-.473-.743-.675-.878-.203-.135-.406-.27-.676-.27v2.77h-.743V1.497h-.136zm-22.432 3.446h1.96l-.609-1.622a6.438 6.438 0 01-.405-1.216c-.068.406-.203.743-.338 1.149l-.608 1.689zm-1.689 2.432l2.23-5.878h.81l2.365 5.878h-.878l-.676-1.756h-2.365l-.608 1.756h-.878zm-11.96-5.878h4.595v5.878h-.743V2.173h-3.041v5.202h-.743V1.497h-.068zm-12.635 0h4.595v5.878h-.743V2.173h-3.041v5.202h-.743V1.497h-.068zm-12.5 0h.811l1.892 3.581 1.69-3.581h.742l-2.162 4.595c-.27.54-.473.946-.675 1.148-.203.203-.406.27-.744.27-.202 0-.473-.067-.743-.135V6.7c.203.135.406.202.676.202a.613.613 0 00.473-.202c.135-.135.27-.406.473-.811L87.77 1.497zm-10.81 2.77h1.486c.473 0 .878-.067 1.081-.27.203-.203.338-.473.338-.81 0-.271-.068-.474-.203-.609-.135-.203-.27-.27-.473-.338-.135-.067-.338-.067-.743-.067H76.96v2.094zm-.811 3.108V1.497h2.162c.405 0 .675 0 .878.068.27.067.54.135.743.27.203.135.338.338.473.54.135.27.203.541.203.811 0 .473-.135.946-.473 1.284-.338.338-.878.54-1.69.54H76.96v2.365h-.811zM65 1.497h3.784v.676H65.81v5.202h-.743V1.497H65zm183.515.581h21.487v28.1h-7.568V19.235h-9.189l2.297-5.539h6.96v-5.2h-8.446c-.743 0-1.149 1.012-1.149 3.106V30.11h-7.5V8.968c0-1.891.271-3.58.879-4.931.608-1.283 1.351-1.959 2.229-1.959zm-20.81 28.1V12.615h4.391l3.717 8.241 3.648-8.24h4.325V30.11h-4.595V19.573l-3.378 7.633-3.446-7.633V30.11h-4.662v.068zm-14.663-17.563h13.379V30.11h-4.73v-6.755h-5.743l1.419-3.444h4.324v-3.243h-5.203c-.473 0-.675.676-.675 1.96v11.55h-4.662v-13.24c0-1.215.202-2.229.54-3.04.405-.81.878-1.282 1.351-1.282zm-17.837 12.43V19.64c0-1.148.067-2.161.27-3.04.203-.877.473-1.62.811-2.16.338-.609.675-1.014 1.148-1.352.406-.27.879-.472 1.352-.472h11.148V30.11h-4.662V16.668h-3.851c-.541 0-.946.203-1.216.743-.271.54-.338 1.284-.338 2.297v5.201c0 1.486-.135 2.77-.473 3.715-.338 1.013-.811 1.486-1.419 1.486h-3.716v-3.85c.405 0 .675-.135.743-.473.135-.27.203-.54.203-.743zm-12.703 5.133h-4.662V12.615h4.662v17.563zm5.878-17.63v4.93c0 .474-.067.811-.135 1.15-.067.337-.203.54-.338.742-.135.203-.27.338-.405.405-.135.068-.203.136-.27.136h-3.108l-1.419 3.444h4.527c.405 0 .675.203.878.608.203.406.27.946.27 1.621v4.526h4.662v-3.04c0-.675-.067-1.35-.202-2.026-.135-.675-.271-1.283-.473-1.824-.203-.54-.406-1.013-.676-1.418s-.473-.676-.743-.81c.27-.27.54-.609.743-1.014.27-.405.473-.81.676-1.35.202-.474.338-1.082.473-1.622.135-.608.135-1.216.135-1.959V12.48h-4.595v.068zm-11.824.068h-11.351c-.541 0-1.014.202-1.487.675-.473.473-.878 1.08-1.216 1.824-.338.743-.608 1.688-.811 2.77-.203 1.08-.27 2.228-.27 3.444 0 1.216.067 2.364.27 3.445.203 1.08.473 2.026.811 2.77.338.81.743 1.418 1.216 1.89.473.473.946.676 1.487.676h9.864l1.487-3.85h-8.041c-.27 0-.54-.135-.81-.405-.271-.27-.473-.608-.676-1.014-.203-.472-.338-.945-.473-1.553a8.55 8.55 0 01-.203-1.891c0-1.351.203-2.5.608-3.378.406-.878.946-1.35 1.487-1.35h6.554l1.554-4.053zm-9.662 10.74h6.148l1.284-3.445h-6.013l-1.419 3.444zm-16.96-6.688h5.135c.203 0 .406.135.541.473.135.338.203.676.203 1.08 0 .406-.068.744-.203 1.082-.135.337-.27.473-.541.473h-3.378l-1.419 3.444h7.027c.946 0 1.622-.473 2.162-1.486.541-.945.811-2.161.811-3.58 0-1.553-.203-2.904-.676-3.985-.472-1.08-1.216-1.621-2.297-1.621h-11.892v17.495h4.595V16.668h-.068zm-20.473 8.376V19.64c0-1.148.068-2.161.271-3.04.202-.877.473-1.62.81-2.16.338-.609.676-1.014 1.149-1.352.405-.27.878-.472 1.351-.472h11.149V30.11h-4.662V16.668h-3.851c-.541 0-.946.203-1.217.743-.27.54-.337 1.284-.337 2.297v5.201c0 1.486-.136 2.77-.473 3.715-.338 1.013-.811 1.486-1.419 1.486h-3.717v-3.85c.406 0 .676-.135.744-.473.135-.27.202-.54.202-.743zm-17.094-12.428V30.11h12.365c.473 0 .81-.203 1.148-.54.338-.338.608-.81.811-1.351.203-.54.338-1.148.473-1.892.068-.743.135-1.418.135-2.161 0-1.35-.27-2.432-.811-3.175-.54-.743-1.216-1.148-2.027-1.148h-8.31v-3.242h9.121l1.622-4.053h-14.527v.068zm9.865 13.712h-6.149v-2.973h6.149c.202 0 .405.136.54.473.135.27.135.608.135 1.014 0 .337-.067.675-.202 1.013-.068.27-.271.405-.473.473zm-20.271-.068h2.635c.609 0 1.082-.473 1.487-1.419.405-.945.608-2.093.608-3.512 0-.675-.067-1.35-.135-1.891-.135-.54-.27-1.081-.473-1.486-.203-.406-.405-.743-.676-.946a1.07 1.07 0 00-.811-.338h-2.635c-.27 0-.54.135-.81.406-.271.27-.473.607-.676 1.013-.203.405-.338.945-.473 1.553a8.538 8.538 0 00-.203 1.892c0 1.418.203 2.499.608 3.445.473.878.946 1.283 1.554 1.283zm5.473 3.918h-8.378c-.54 0-1.014-.203-1.486-.676-.473-.473-.879-1.08-1.217-1.891-.338-.81-.608-1.756-.81-2.837-.203-1.08-.27-2.364-.27-3.648 0-1.215.134-2.364.337-3.377s.473-1.891.81-2.702c.339-.743.744-1.35 1.217-1.756.473-.405.946-.608 1.487-.608h8.31c.541 0 1.014.203 1.419.608.473.405.811 1.013 1.149 1.756.338.743.608 1.621.811 2.634.202 1.014.27 2.162.27 3.378 0 1.216-.068 2.364-.27 3.445-.203 1.08-.473 2.094-.811 2.904-.338.81-.743 1.486-1.216 1.96-.406.54-.879.81-1.352.81zM93.988 12.615H83.11c-.54 0-1.013.203-1.486.676a5.373 5.373 0 00-1.217 1.824c-.337.743-.608 1.688-.81 2.702-.203 1.08-.27 2.161-.27 3.377 0 1.216.067 2.364.27 3.445.202 1.08.473 2.026.81 2.837.338.81.743 1.418 1.217 1.891.473.473.946.743 1.486.743h9.392l1.554-3.85h-8.243c-.608 0-1.081-.473-1.487-1.419-.405-.945-.608-2.094-.608-3.444 0-1.351.203-2.5.608-3.378.406-.878.879-1.35 1.487-1.35h6.621l1.554-4.053zM68.853 26.26h2.635c.609 0 1.082-.473 1.487-1.419.405-.945.608-2.093.608-3.512 0-.675-.068-1.35-.135-1.891-.135-.54-.27-1.081-.473-1.486-.203-.406-.405-.743-.676-.946a1.07 1.07 0 00-.81-.338h-2.636c-.27 0-.54.135-.81.406-.27.27-.474.607-.676 1.013-.203.405-.338.945-.473 1.553a8.544 8.544 0 00-.203 1.892c0 1.418.203 2.499.608 3.445.473.878.946 1.283 1.554 1.283zm5.473 3.918h-8.378c-.54 0-1.014-.203-1.487-.676-.473-.473-.878-1.08-1.216-1.891-.338-.81-.608-1.756-.81-2.837-.203-1.08-.27-2.364-.27-3.648 0-1.215.134-2.364.337-3.377s.473-1.891.81-2.702c.339-.743.744-1.35 1.217-1.756.473-.405.946-.608 1.486-.608h8.379c.54 0 1.013.203 1.419.608.473.405.81 1.013 1.148 1.756.338.743.609 1.621.811 2.634.203 1.014.27 2.162.27 3.378 0 1.216-.067 2.364-.27 3.445-.203 1.08-.473 2.094-.81 2.904-.338.81-.744 1.486-1.217 1.96-.405.54-.878.81-1.419.81zm-39.662 0v-28.1h7.095l5.946 13.24 5.878-13.24h6.892v28.1h-7.297V13.223L47.705 25.45l-5.54-12.226v16.955h-7.5z" fill="#002B45"/></svg>