<svg width="191" height="58" fill="none" xmlns="http://www.w3.org/2000/svg"><path d="M87 49.446h-5.954v-3.184h-.138c-.554.83-1.523 1.661-3.046 2.492-1.523.83-3.047 1.246-4.708 1.246-3.739 0-6.923-1.246-9.415-3.877C61.245 43.493 60 40.308 60 36.57c0-3.738 1.246-6.923 3.739-9.554C66.23 24.385 69.415 23 73.154 23c1.8 0 3.461.415 4.846 1.108 1.385.692 2.354 1.523 2.77 2.215h.138v-2.77H87v25.893zm-6.23-13.015c0-1.939-.693-3.739-2.216-5.262-1.385-1.523-3.185-2.215-5.123-2.215-1.939 0-3.739.692-5.123 2.215-1.385 1.523-2.216 3.185-2.216 5.262 0 2.077.693 3.877 2.216 5.261 1.384 1.523 3.184 2.216 5.123 2.216 1.938 0 3.738-.693 5.123-2.216 1.523-1.384 2.215-3.184 2.215-5.261zm25.215 13.262c-1.8 0-3.462-.409-4.847-1.09-1.384-.817-2.353-1.498-2.769-2.179h-.138V58H92V23.545h5.954v3.132h.138c.554-.817 1.523-1.634 3.046-2.451 1.524-.817 3.047-1.226 4.847-1.226 3.738 0 6.784 1.226 9.277 3.813 2.492 2.588 3.738 5.72 3.738 9.397 0 3.677-1.246 6.81-3.738 9.397-2.493 2.724-5.677 4.086-9.277 4.086zm6.784-13.483c0-1.907-.692-3.677-2.215-5.175-1.385-1.498-3.185-2.179-5.123-2.179-1.939 0-3.739.681-5.123 2.179-1.523 1.498-2.216 3.132-2.216 5.175 0 2.043.693 3.813 2.216 5.175 1.523 1.498 3.184 2.18 5.123 2.18 1.938 0 3.738-.682 5.123-2.18 1.523-1.362 2.215-3.132 2.215-5.175zM151 49h-6.304V33.845h-.14L139.049 49h-5.323l-5.982-14.738h-.14V49H122V23h7.565l6.565 17.319h.141L142.594 23h8.266v26h.14zm31-12.638c0 3.72-1.371 6.888-3.975 9.643-2.604 2.617-5.756 3.995-9.456 3.995-3.701 0-6.99-1.378-9.594-3.995C156.371 43.388 155 40.22 155 36.5c0-3.72 1.371-6.888 3.975-9.505 2.604-2.617 5.756-3.995 9.456-3.995 3.701 0 6.853 1.378 9.457 3.995 2.741 2.48 4.112 5.648 4.112 9.367zm-6.305 0c0-1.928-.685-3.72-2.192-5.234-1.371-1.516-3.153-2.204-5.072-2.204-1.918 0-3.7.688-5.071 2.204-1.37 1.515-2.192 3.168-2.192 5.234 0 2.067.685 3.857 2.192 5.235 1.371 1.515 3.153 2.204 5.071 2.204 1.919 0 3.701-.689 5.072-2.204 1.507-1.378 2.192-3.168 2.192-5.235z" fill="#2B2A29"/><path d="M16.5 8.012c-4.693 8.198-9.661 16.532-14.353 24.73C.629 35.2-.89 38.753.629 42.852c1.38 3.416 4.554 5.738 7.038 6.011h24.15L37.89 37.66H11.393l13.248-22.953L44.651 49 51 37.66 34.026 8.56C30.713 2.548 20.777.09 16.499 8.013z" fill="#009640"/></svg>