<svg width="143" height="39" fill="none" xmlns="http://www.w3.org/2000/svg"><path d="M94.472 23.716h-8.301l4.158-9.59 4.143 9.59zM93.302.057L93.283 0h-5.55L72.05 34.191l-.043.093L72 39h7.56l3.116-7.203H97.96L101.069 39H109v-4.68L93.303.057zm-33.595 19.25l10.686-14.39.021-.022V0h-7.678L51.6 15.413h-4.193V0H38v39h9.407V23.973h4.279l11.407 14.991.028.036H71v-4.766L59.707 19.307zm-45.532 4.409l4.15-9.59 4.15 9.59h-8.3zM21.305.057L21.286 0h-5.548L.05 34.191l-.036.093L0 39h7.565l3.116-7.203h15.281L29.071 39H37v-4.68L21.306.057zm98.867 8.025h8.907c2.563 0 4.805 2.443 4.805 5.23 0 2.894-2.284 5.245-5.084 5.245h-8.628V8.082zM129.622 0H111v39h9.172V26.631h9.749c6.324 0 13.079-3.494 13.079-13.319C143 3.487 135.792 0 129.622 0z" fill="#00247D"/></svg>