<svg width="151" height="39" fill="none" xmlns="http://www.w3.org/2000/svg"><path d="M149.894 0h-12.518l-9.953 14.65h-3.117V0H114v39h10.306V23.744h3.117L138.231 39H151l-14.73-19.803L149.894 0zM23.7 14.65H10.3V0H0v39h10.3V23.693h2.25v.05H23.7V39H34V0H23.7v14.65zM57.455 0H47.58L36 39h10.677l1.905-6.618h13.886L64.473 39H75L65.325 7.174C64.122 3.183 61.565 0 57.455 0zm-6.717 24.703L55.5 7.83h.1l4.762 16.873h-9.624zm53.622-5.304v-.404c5.092-.859 6.041-4.042 6.041-8.992C110.401 1.465 105.908 0 98.269 0H78v39h20.469C106.607 39 111 37.687 111 28.19c0-4.901-.899-8.387-6.64-8.791zM88.284 8.538h8.637c2.896 0 3.195 1.01 3.195 3.334 0 3.03-.848 3.738-4.093 3.738h-7.788V8.538h.05zm7.739 21.924h-7.788v-7.628h8.736c2.746.101 3.745.758 3.745 3.688.05 3.183-1.348 3.94-4.693 3.94z" fill="#1C388D"/></svg>