<svg width="24" height="25" fill="none" xmlns="http://www.w3.org/2000/svg"><path d="M3.56 15.062l10.803-10.8a1.91 1.91 0 012.7 0l3.377 3.375a1.91 1.91 0 010 2.699L9.636 21.139a1.91 1.91 0 01-2.7 0l-3.377-3.376a1.91 1.91 0 010-2.7v-.001zm4.12-.743l1.282-1.282 1.823 1.824a.765.765 0 001.08-1.082l-1.824-1.822 1.216-1.214 1.148 1.144a.762.762 0 001.254-.83.766.766 0 00-.173-.248l-1.148-1.147L13.62 8.38l1.824 1.823a.765.765 0 001.08-1.082l-1.825-1.823 1.014-1.012a.48.48 0 10-.676-.675L4.91 15.736a.478.478 0 00.675.675L6.597 15.4l1.15 1.146a.766.766 0 001.271-.231.763.763 0 00-.191-.848L7.679 14.32z" fill="#002B45"/></svg>