<svg width="32" height="32" fill="none" xmlns="http://www.w3.org/2000/svg"><path d="M29.082 5.252c-1.746 4.36-5.733 10.053-9.533 13.774a7.95 7.95 0 00-6.76-6.614C16.522 8.6 22.256 4.56 26.63 2.8a1.896 1.896 0 012.027.413c.506.507.746 1.267.426 2.04z" fill="#002B45"/><path d="M18.373 20.12c-.266.227-.533.453-.8.667l-2.386 1.906c0-.04-.013-.093-.013-.146-.187-1.427-.854-2.747-1.934-3.827a6.705 6.705 0 00-3.947-1.947c-.04 0-.093-.013-.133-.013l1.934-2.44c.186-.24.386-.467.6-.707l.906.12c2.867.4 5.173 2.654 5.627 5.507l.146.88z" fill="#002B45"/><g filter="url(#filter0_i_94_74908)"><path d="M13.908 23.494c0 1.467-.56 2.867-1.627 3.92-.813.827-1.907 1.387-3.24 1.547l-3.267.36c-1.786.2-3.32-1.333-3.12-3.133l.36-3.28c.32-2.92 2.76-4.787 5.347-4.84.253-.014.533 0 .8.026 1.133.147 2.227.667 3.147 1.574.893.893 1.4 1.946 1.546 3.053.027.267.054.52.054.773z" fill="#FF7A57"/></g><defs><filter id="filter0_i_94_74908" x="2.637" y="18.063" width="11.271" height="11.276" filterUnits="userSpaceOnUse" color-interpolation-filters="sRGB"><feFlood flood-opacity="0" result="BackgroundImageFix"/><feBlend in="SourceGraphic" in2="BackgroundImageFix" result="shape"/><feColorMatrix in="SourceAlpha" values="0 0 0 0 0 0 0 0 0 0 0 0 0 0 0 0 0 0 127 0" result="hardAlpha"/><feOffset/><feGaussianBlur stdDeviation="2"/><feComposite in2="hardAlpha" operator="arithmetic" k2="-1" k3="1"/><feColorMatrix values="0 0 0 0 1 0 0 0 0 0.208333 0 0 0 0 0 0 0 0 1 0"/><feBlend in2="shape" result="effect1_innerShadow_94_74908"/></filter></defs></svg>