<svg width="32" height="32" fill="none" xmlns="http://www.w3.org/2000/svg"><path d="M24.608 13.057L14.048 2.554 12.8 1.311a1.088 1.088 0 00-1.523 0 1.074 1.074 0 000 1.515l1.25 1.243-8.088 8.045c-.92.915-1.408 1.843-1.437 2.772-.029.986.46 1.972 1.437 2.958l5.76 5.73c1.926 1.901 3.85 1.901 5.762 0l8.648-8.602c.287-.286.417-.672.388-1.043a1.353 1.353 0 00-.388-.872z" fill="#002B45"/><g filter="url(#filter0_i_94_74932)"><path d="M22.914 30H4.086C3.492 30 3 29.547 3 29c0-.547.492-1 1.086-1h18.828c.594 0 1.086.453 1.086 1 0 .547-.492 1-1.086 1z" fill="#FF7A57"/></g><g filter="url(#filter1_i_94_74932)"><path d="M27.245 19.282c-.388-.376-1.102-.376-1.49 0C25.294 19.74 23 22.066 23 23.84c0 1.748 1.564 3.16 3.5 3.16s3.5-1.412 3.5-3.16c0-1.761-2.294-4.1-2.755-4.558z" fill="#FF7A57"/></g><defs><filter id="filter0_i_94_74932" x="3" y="28" width="21" height="2" filterUnits="userSpaceOnUse" color-interpolation-filters="sRGB"><feFlood flood-opacity="0" result="BackgroundImageFix"/><feBlend in="SourceGraphic" in2="BackgroundImageFix" result="shape"/><feColorMatrix in="SourceAlpha" values="0 0 0 0 0 0 0 0 0 0 0 0 0 0 0 0 0 0 127 0" result="hardAlpha"/><feOffset/><feGaussianBlur stdDeviation="2"/><feComposite in2="hardAlpha" operator="arithmetic" k2="-1" k3="1"/><feColorMatrix values="0 0 0 0 1 0 0 0 0 0.208333 0 0 0 0 0 0 0 0 1 0"/><feBlend in2="shape" result="effect1_innerShadow_94_74932"/></filter><filter id="filter1_i_94_74932" x="23" y="19" width="7" height="8" filterUnits="userSpaceOnUse" color-interpolation-filters="sRGB"><feFlood flood-opacity="0" result="BackgroundImageFix"/><feBlend in="SourceGraphic" in2="BackgroundImageFix" result="shape"/><feColorMatrix in="SourceAlpha" values="0 0 0 0 0 0 0 0 0 0 0 0 0 0 0 0 0 0 127 0" result="hardAlpha"/><feOffset/><feGaussianBlur stdDeviation="2"/><feComposite in2="hardAlpha" operator="arithmetic" k2="-1" k3="1"/><feColorMatrix values="0 0 0 0 1 0 0 0 0 0.208333 0 0 0 0 0 0 0 0 1 0"/><feBlend in2="shape" result="effect1_innerShadow_94_74932"/></filter></defs></svg>