<svg width="30" height="30" fill="none" xmlns="http://www.w3.org/2000/svg"><g filter="url(#filter0_i_94_68767)"><path d="M21.25 4.375H8.75C5 4.375 2.5 6.25 2.5 10.625v8.75c0 4.375 2.5 6.25 6.25 6.25h12.5c3.75 0 6.25-1.875 6.25-6.25v-8.75c0-4.375-2.5-6.25-6.25-6.25zm.587 7.613l-3.912 3.125c-.825.662-1.875.987-2.925.987-1.05 0-2.113-.325-2.925-.988l-3.912-3.124a.962.962 0 01-.15-1.325.935.935 0 011.312-.15l3.913 3.124c.95.763 2.562.763 3.512 0l3.913-3.125c.4-.325 1-.262 1.312.15.325.4.262 1-.138 1.325z" fill="#FF7A57"/></g><defs><filter id="filter0_i_94_68767" x="0" y="0" width="30" height="30" filterUnits="userSpaceOnUse" color-interpolation-filters="sRGB"><feFlood flood-opacity="0" result="BackgroundImageFix"/><feBlend in="SourceGraphic" in2="BackgroundImageFix" result="shape"/><feColorMatrix in="SourceAlpha" values="0 0 0 0 0 0 0 0 0 0 0 0 0 0 0 0 0 0 127 0" result="hardAlpha"/><feOffset/><feGaussianBlur stdDeviation="3.5"/><feComposite in2="hardAlpha" operator="arithmetic" k2="-1" k3="1"/><feColorMatrix values="0 0 0 0 1 0 0 0 0 0.208333 0 0 0 0 0 0 0 0 0.6 0"/><feBlend in2="shape" result="effect1_innerShadow_94_68767"/></filter></defs></svg>