<svg width="18" height="18" fill="none" xmlns="http://www.w3.org/2000/svg"><path d="M14.828 5.423l.007-.008-2.79-2.79-.795.795 1.582 1.583a1.869 1.869 0 00-1.207 1.747 1.876 1.876 0 002.625 1.717v5.408c0 .412-.338.75-.75.75a.752.752 0 01-.75-.75V10.5c0-.825-.675-1.5-1.5-1.5h-.75V3.75c0-.825-.675-1.5-1.5-1.5H4.5c-.825 0-1.5.675-1.5 1.5v12h7.5v-5.625h1.125v3.75a1.876 1.876 0 003.75 0V6.75c0-.518-.21-.99-.547-1.327zM9 7.5H4.5V3.75H9V7.5zm4.5 0a.752.752 0 01-.75-.75c0-.412.338-.75.75-.75s.75.338.75.75-.338.75-.75.75z" fill="#154673"/></svg>