<svg width="18" height="18" fill="none" xmlns="http://www.w3.org/2000/svg"><g clip-path="url(#clip0_159_19092)" fill="#154673"><path d="M7.418 16.383a1.582 1.582 0 100-3.164 1.582 1.582 0 000 3.164zm6.328 0a1.582 1.582 0 100-3.164 1.582 1.582 0 000 3.164zM.527 2.672H2.8l2.529 9.106a.528.528 0 00.508.386h9.492a.528.528 0 00.507-.383L17.98 4.4a.529.529 0 00-.507-.672H4.186l-.479-1.724a.528.528 0 00-.508-.386H.527a.527.527 0 100 1.055zm12.692 7.383H7.945a.527.527 0 110-1.055h5.274a.527.527 0 110 1.055zM6.89 6.89h7.382a.527.527 0 110 1.054H6.891a.527.527 0 110-1.054z"/></g><defs><clipPath id="clip0_159_19092"><path fill="#fff" d="M0 0h18v18H0z"/></clipPath></defs></svg>