<svg width="18" height="18" fill="none" xmlns="http://www.w3.org/2000/svg"><g clip-path="url(#clip0_159_19059)" fill="#154673"><path d="M9.094 4.857L8.414.319A.374.374 0 008.042 0H8.03a.373.373 0 00-.36.344l-.329 3.94c-.02.242-.452.242-.472 0L6.541.343a.375.375 0 00-.747 0l-.328 3.94c-.02.242-.452.242-.472 0L4.666.343A.376.376 0 004.305 0h-.012a.374.374 0 00-.37.32l-.68 4.537A2.934 2.934 0 004.98 7.989l-.58 8.115A1.772 1.772 0 006.167 18h.003a1.773 1.773 0 001.766-1.896l-.578-8.115a2.934 2.934 0 001.737-3.132zm5.54-4.789a.376.376 0 00-.341-.047c-.032.011-3.25 1.193-3.25 4.853 0 2.635.857 3.966 1.34 4.506l-.48.48a.372.372 0 00-.109.228l-.593 5.933a1.801 1.801 0 001.791 1.978c.992 0 1.8-.807 1.8-1.8V.374a.371.371 0 00-.158-.306z"/></g><defs><clipPath id="clip0_159_19059"><path fill="#fff" d="M0 0h18v18H0z"/></clipPath></defs></svg>