<svg width="18" height="18" fill="none" xmlns="http://www.w3.org/2000/svg"><g clip-path="url(#clip0_159_19009)"><path d="M17.897 6.573a.463.463 0 00-.357-.17h-1.752c-.433-1.14-.996-2.258-1.636-2.68-2.214-1.456-8.088-1.456-10.303 0-.64.423-1.202 1.541-1.636 2.68H.46a.46.46 0 00-.451.554l.26 1.258a.46.46 0 00.45.367h.52a3.112 3.112 0 00-.748 2.034c-.003.9.339 1.713.963 2.288l.02.016v1.76c0 .38.31.69.692.69h1.616a.69.69 0 00.69-.69v-.708h9.053v.707c0 .381.31.691.692.691h1.615c.381 0 .692-.31.692-.69v-1.726c.663-.607.98-1.442.983-2.276a3.104 3.104 0 00-.781-2.097h.553a.46.46 0 00.451-.368l.26-1.257a.464.464 0 00-.094-.383zM4.608 4.878c1.765-1.162 7.019-1.162 8.783 0 .343.225.784 1.134 1.188 2.248H3.421c.403-1.113.844-2.022 1.187-2.248zM2.541 10.79a1.36 1.36 0 112.72 0 1.36 1.36 0 01-2.72 0zm11.577 1.36a1.36 1.36 0 110-2.72 1.36 1.36 0 010 2.72z" fill="#154673"/></g><defs><clipPath id="clip0_159_19009"><path fill="#fff" d="M0 0h18v18H0z"/></clipPath></defs></svg>