<svg width="18" height="18" fill="none" xmlns="http://www.w3.org/2000/svg"><path d="M15.36 6.87h-.533l-2.39-4.394a.445.445 0 00-.594-.178.423.423 0 00-.182.58l2.171 3.993h-9.6l2.17-3.994a.423.423 0 00-.182-.579.445.445 0 00-.594.178l-2.39 4.395H2.64c-.628 0-1.139.498-1.139 1.11 0 .613.511 1.111 1.14 1.111h.03l.004.019.916 5.01c.172.943 1.01 1.627 1.991 1.627h6.901c.982 0 1.82-.684 1.992-1.626l.916-5.011.003-.02c.613-.016 1.107-.507 1.107-1.11 0-.612-.511-1.11-1.14-1.11zm-8.239 7.42a.437.437 0 01-.506-.351l-.648-3.752a.43.43 0 01.36-.494c.24-.04.466.118.506.351l.649 3.753a.43.43 0 01-.36.493zm2.3-.422a.434.434 0 01-.44.428.434.434 0 01-.44-.428v-3.753c0-.236.197-.428.44-.428s.44.192.44.428v3.753zm2.544-3.681l-.648 3.752a.436.436 0 01-.507.351.43.43 0 01-.36-.493l.648-3.753a.439.439 0 01.506-.351c.24.04.401.26.36.494z" fill="#154673"/></svg>