<svg width="18" height="18" fill="none" xmlns="http://www.w3.org/2000/svg"><path d="M16.895 4.62v9.054A1.49 1.49 0 0018 12.237v-6.18c0-.69-.47-1.27-1.107-1.438zM14.3 3.42h-.349c-.82 0-1.486.667-1.486 1.486v8.48c0 .82.667 1.486 1.486 1.486h.349c.82 0 1.486-.666 1.486-1.486v-8.48c0-.82-.667-1.486-1.486-1.486zm-2.943 3.887H6.643v3.627h4.714V7.307zM0 5.763v6.18c0 .689.47 1.27 1.106 1.438V4.326A1.49 1.49 0 000 5.763zm4.048-2.636h-.349c-.82 0-1.486.667-1.486 1.486v8.48c0 .82.667 1.486 1.486 1.486h.349c.82 0 1.486-.667 1.486-1.486v-8.48c0-.82-.667-1.486-1.486-1.486z" fill="#154673"/></svg>