<svg xmlns="http://www.w3.org/2000/svg" width="17.12" height="16.375"><path id="_" data-name="" d="M1376.32 81.839h-3.68v11.053h3.68V81.839zm.24-3.413a2.071 2.071 0 10-2.1 1.907h.02a1.912 1.912 0 002.08-1.908zm13 8.131c0-3.391-1.81-4.975-4.23-4.975a3.641 3.641 0 00-3.33 1.863h.02v-1.606h-3.67s.05 1.037 0 11.054h3.67v-6.169a2.751 2.751 0 01.12-.9 2.016 2.016 0 011.89-1.338c1.33 0 1.86 1.015 1.86 2.5v5.912h3.67v-6.341z" transform="translate(-1372.44 -76.531)" fill="#f5f5f5" fill-rule="evenodd"/></svg>