<svg xmlns="http://www.w3.org/2000/svg" width="17.12" height="16.375" viewBox="0 0 17.12 16.375">
  <defs>
    <style>
      .cls-1 {
        fill: #f5f5f5;
        fill-rule: evenodd;
      }
    </style>
  </defs>
  <path id="_" data-name="" class="cls-1" d="M1376.32,81.839h-3.68V92.892h3.68V81.839Zm0.24-3.413a2.071,2.071,0,1,0-2.1,1.907h0.02A1.912,1.912,0,0,0,1376.56,78.425Zm13,8.131c0-3.391-1.81-4.975-4.23-4.975a3.641,3.641,0,0,0-3.33,1.863h0.02V81.839h-3.67s0.05,1.037,0,11.054h3.67V86.724a2.751,2.751,0,0,1,.12-0.9,2.016,2.016,0,0,1,1.89-1.338c1.33,0,1.86,1.015,1.86,2.5v5.912h3.67V86.557Z" transform="translate(-1372.44 -76.531)"/>
</svg>
