<svg xmlns="http://www.w3.org/2000/svg" width="30" height="34" viewBox="0 0 30 34">
    <path fill="#FFF" fill-rule="evenodd" d="M15.196 4.345c5.826 0 10.565 4.75 10.565 10.59 0 5.839-4.739 10.59-10.534 10.59l-.126-.008c-.116-.008-.233-.015-.35-.021l-.711-.029-.683.204-7.085 2.122.86-3.392.473-1.865-1.094-1.584c-1.23-1.777-1.879-3.858-1.879-6.017 0-5.84 4.739-10.59 10.564-10.59m0-4.236C7.02.109.393 6.747.393 14.935c0 3.132.975 6.032 2.63 8.426L.327 33.996l14.247-4.267c.208.008.412.031.622.031C23.372 29.76 30 23.123 30 14.935 30 6.747 23.372.109 15.196.109z"/>
</svg>
