<svg xmlns="http://www.w3.org/2000/svg" width="35" height="34"><path fill="#F1FBFF" fill-rule="evenodd" d="M13.378 4.239c4.648 0 8.43 3.8 8.43 8.472a8.432 8.432 0 01-1.563 4.896l-.829 1.171-1.166.834a8.329 8.329 0 01-4.872 1.571c-4.648 0-8.43-3.801-8.43-8.472 0-4.672 3.782-8.472 8.43-8.472m0-4.236C6.395.003.734 5.693.734 12.711s5.661 12.707 12.644 12.707c2.729 0 5.249-.878 7.316-2.355l10.154 10.206a2.1 2.1 0 002.986 0 2.13 2.13 0 000-3L23.679 20.064a12.683 12.683 0 002.344-7.353c0-7.018-5.662-12.708-12.645-12.708z"/></svg>