<svg xmlns="http://www.w3.org/2000/svg" width="35" height="34" viewBox="0 0 35 34">
    <path fill="#F1FBFF" fill-rule="evenodd" d="M13.378 4.239c4.648 0 8.43 3.8 8.43 8.472 0 1.759-.541 3.453-1.563 4.896l-.829 1.171-1.166.834c-1.437 1.028-3.121 1.571-4.872 1.571-4.648 0-8.43-3.801-8.43-8.472 0-4.672 3.782-8.472 8.43-8.472m0-4.236C6.395.003.734 5.693.734 12.711s5.661 12.707 12.644 12.707c2.729 0 5.249-.878 7.316-2.355l10.154 10.206c.413.415.953.622 1.493.622.54 0 1.081-.207 1.493-.622.824-.828.824-2.171 0-3L23.679 20.064c1.47-2.077 2.344-4.61 2.344-7.353 0-7.018-5.662-12.708-12.645-12.708z"/>
</svg>
