<svg xmlns="http://www.w3.org/2000/svg" width="17.12" height="17.156"><path id="_" data-name="" d="M1345.51 86.724c0 2.264-2.18 3.313-4.28 3.313-2.51 0-4.61-1.115-4.61-2.487a1.078 1.078 0 011.13-1.171c1.19 0 1.3 1.718 3.37 1.718.98 0 1.62-.435 1.62-1 0-.714-.62-.825-1.61-1.071l-1.63-.4c-1.63-.39-2.88-1.06-2.88-2.933 0-2.264 2.24-3.1 4.17-3.1 2.11 0 4.24.837 4.24 2.119a1.148 1.148 0 01-1.16 1.216c-1.08 0-1.11-1.283-2.86-1.283-.99 0-1.61.268-1.61.859 0 .647.64.792 1.48.993l1.16.268c1.59.349 3.47 1.018 3.47 2.959zm4.05 2.42a4.25 4.25 0 00-.89-2.61 8.378 8.378 0 00.18-1.673 7.853 7.853 0 00-7.85-7.853 8.356 8.356 0 00-1.68.178 4.278 4.278 0 00-6 6 8.378 8.378 0 00-.18 1.673 7.856 7.856 0 007.86 7.853 8.342 8.342 0 001.67-.178 4.276 4.276 0 006.89-3.389z" transform="translate(-1332.44 -76.281)" fill="#f5f5f5" fill-rule="evenodd"/></svg>