<svg xmlns="http://www.w3.org/2000/svg" width="17.56" height="14.281" viewBox="0 0 17.56 14.281">
  <defs>
    <style>
      .cls-1 {
        fill: #f5f5f5;
        fill-rule: evenodd;
      }
    </style>
  </defs>
  <path id="_" data-name="" class="cls-1" d="M1307.78,79.418a7.178,7.178,0,0,1-2.07.558,3.543,3.543,0,0,0,1.58-1.985,7.081,7.081,0,0,1-2.28.87,3.61,3.61,0,0,0-6.24,2.465,4.523,4.523,0,0,0,.09.825,10.254,10.254,0,0,1-7.43-3.77,3.607,3.607,0,0,0,1.12,4.819,3.642,3.642,0,0,1-1.63-.457v0.045a3.6,3.6,0,0,0,2.89,3.536,3.837,3.837,0,0,1-.95.123,4.556,4.556,0,0,1-.68-0.056,3.608,3.608,0,0,0,3.37,2.5,7.22,7.22,0,0,1-4.47,1.539,7.341,7.341,0,0,1-.87-0.045,10.253,10.253,0,0,0,15.78-8.633c0-.156,0-0.312-0.01-0.469A7.752,7.752,0,0,0,1307.78,79.418Z" transform="translate(-1290.22 -77.719)"/>
</svg>
