<svg xmlns="http://www.w3.org/2000/svg" width="17.56" height="14.281"><path id="_" data-name="" d="M1307.78 79.418a7.178 7.178 0 01-2.07.558 3.543 3.543 0 001.58-1.985 7.081 7.081 0 01-2.28.87 3.61 3.61 0 00-6.24 2.465 4.523 4.523 0 00.09.825 10.254 10.254 0 01-7.43-3.77 3.607 3.607 0 001.12 4.819 3.642 3.642 0 01-1.63-.457v.045a3.6 3.6 0 002.89 3.536 3.837 3.837 0 01-.95.123 4.556 4.556 0 01-.68-.056 3.608 3.608 0 003.37 2.5 7.22 7.22 0 01-4.47 1.539 7.341 7.341 0 01-.87-.045 10.253 10.253 0 0015.78-8.633c0-.156 0-.312-.01-.469a7.752 7.752 0 001.8-1.865z" transform="translate(-1290.22 -77.719)" fill="#f5f5f5" fill-rule="evenodd"/></svg>