<svg xmlns="http://www.w3.org/2000/svg" width="34" height="34" viewBox="0 0 34 34">
    <path fill="#FFF" fill-rule="evenodd" d="M33.307 9.586L18.028 25.418h-9.54v-9.53L24.335.621c.413-.411.955-.618 1.496-.618s1.083.207 1.495.619l5.981 5.976c.826.825.826 2.163 0 2.988zm-7.503-4.494L12.728 17.688v3.495h3.498L28.834 8.119l-3.03-3.027zm-15.196-.853h-5.3c-.585 0-1.06.474-1.06 1.059v23.298c0 .585.475 1.059 1.06 1.059h23.319c.585 0 1.06-.474 1.06-1.059V23.3c0-1.169.949-2.117 2.12-2.117 1.171 0 2.12.948 2.12 2.117v8.472c0 1.17-.949 2.119-2.12 2.119H2.129c-1.171 0-2.12-.949-2.12-2.119V2.121C.009.951.958.003 2.129.003h8.479c1.171 0 2.12.948 2.12 2.118s-.949 2.118-2.12 2.118z"/>
</svg>
