<svg id="Слой_1" data-name="Слой 1" xmlns="http://www.w3.org/2000/svg" viewBox="0 0 21.78 9.98"><defs><style>.cls-1{fill:#08b3c5;}</style></defs><path class="cls-1" d="M283.07,420.33a.67.67,0,0,1,.63-.3h19.59l-.18-.18-3.45-3.46-.15-.15a.45.45,0,0,1,0-.62.43.43,0,0,1,.6,0l.21.2,4.32,4.31a.47.47,0,0,1,0,.73l-4.39,4.38a1,1,0,0,1-.19.17.43.43,0,0,1-.55,0,.44.44,0,0,1-.08-.56,1.24,1.24,0,0,1,.19-.21l3.44-3.44a1.27,1.27,0,0,1,.19-.13l-.05-.08H283.69a.64.64,0,0,1-.62-.31Z" transform="translate(-283.07 -415.5)"/></svg>