<svg id="Слой_1" data-name="Слой 1" xmlns="http://www.w3.org/2000/svg" viewBox="0 0 15.98 12.13"><defs><style>.cls-1{fill:#0f737e;}</style></defs><path class="cls-1" d="M300.8,419.16a4.69,4.69,0,0,0-3.56-1.43h-9.86l2.66-2.6a.41.41,0,0,0,0-.57.4.4,0,0,0-.57,0l-3.36,3.28h0v0h0v0h0v0h0v0h0v0h0v.06h0v0h0v0h0v.06h0v0h0v0h0v0h0v0h0l3.36,3.29a.43.43,0,0,0,.28.11.42.42,0,0,0,.29-.12.41.41,0,0,0,0-.57l-2.66-2.59h9.86a3.91,3.91,0,0,1,3,1.17,3.75,3.75,0,0,1,1,2.57,3.62,3.62,0,0,1-.87,2.42,3.38,3.38,0,0,1-2.62,1.08h-6.15a.4.4,0,0,0,0,.8h6.15a4.21,4.21,0,0,0,3.21-1.34,4.42,4.42,0,0,0,1.08-3A4.56,4.56,0,0,0,300.8,419.16Z" transform="translate(-286 -414.44)"/></svg>