<svg id="Слой_1" data-name="Слой 1" xmlns="http://www.w3.org/2000/svg" viewBox="0 0 10.94 12.04"><defs><style>.cls-1{fill:#6e6f6f;}</style></defs><path class="cls-1" d="M297.82,415.56h-1.09V415a.55.55,0,0,0-.55-.54.54.54,0,0,0-.54.54v.55h-3.29V415a.55.55,0,0,0-1.09,0v.55h-1.1a1.65,1.65,0,0,0-1.64,1.64v7.66a1.64,1.64,0,0,0,1.64,1.64h7.66a1.64,1.64,0,0,0,1.65-1.64V417.2A1.65,1.65,0,0,0,297.82,415.56Zm.55,9.3a.55.55,0,0,1-.55.55h-7.66a.55.55,0,0,1-.54-.55v-4.92h8.75Zm0-6h-8.75V417.2a.54.54,0,0,1,.54-.54h1.1v.54a.55.55,0,1,0,1.09,0v-.54h3.29v.54a.54.54,0,0,0,.54.55.55.55,0,0,0,.55-.55v-.54h1.09a.54.54,0,0,1,.55.54Z" transform="translate(-288.52 -414.47)"/></svg>