<svg id="Слой_1" data-name="Слой 1" xmlns="http://www.w3.org/2000/svg" viewBox="0 0 53.04 53.04"><defs><style>.cls-1{fill:#1398a7;}</style></defs><path class="cls-1" d="M294,394a26.53,26.53,0,1,0,26.53,26.53A26.56,26.56,0,0,0,294,394ZM294,445a24.53,24.53,0,1,1,24.53-24.52A24.55,24.55,0,0,1,294,445Z" transform="translate(-267.47 -393.96)"/><path class="cls-1" d="M294,399.45a20.9,20.9,0,0,0-12.76,4.36,1,1,0,0,0-.33.22.56.56,0,0,0,0,.08c-.13.1-.28.2-.41.31.07.05.23.79.46,1,0,0,28.84,28.81,28.89,28.9.17-.2.33-.42.5-.62l.18-.12a1.07,1.07,0,0,0,.23-.4A21,21,0,0,0,294,399.45Zm3.95,20.21h1.94l.16,2.09Zm3.95,0h2.83v3.07h-2.61Zm7.72,11.66-6.6-6.59h2.71a1,1,0,0,0,1-1v-5.07a1,1,0,0,0-1-1h-9.07a1,1,0,0,0-.53.17l-13-13a19,19,0,0,1,26.47,26.46Z" transform="translate(-267.47 -393.96)"/><path class="cls-1" d="M307.81,414.35c-.82-1-.15-3.09.15-3.77a1,1,0,0,0-1.83-.81c-.17.38-1.62,3.79.15,5.88a6.71,6.71,0,0,1,1.69,3.73,1,1,0,0,0,1,.86h.14a1,1,0,0,0,.85-1.13A8.73,8.73,0,0,0,307.81,414.35Z" transform="translate(-267.47 -393.96)"/><path class="cls-1" d="M278.12,406.73a10.42,10.42,0,0,0-.77,1A21,21,0,0,0,307,437a.08.08,0,0,0,0,0,.83.83,0,0,0,.12-.08,1,1,0,0,0,0-1.41Zm12.59,15.17H279.28v-2.24h9.19ZM294,439.52a19.06,19.06,0,0,1-19-19,18.86,18.86,0,0,1,3.45-10.89l8.06,8.06h-8.19a1,1,0,0,0-1,1v4.24a1,1,0,0,0,1,1h14.43l12.16,12.16A18.93,18.93,0,0,1,294,439.52Z" transform="translate(-267.47 -393.96)"/></svg>