<svg id="Слой_1" data-name="Слой 1" xmlns="http://www.w3.org/2000/svg" viewBox="0 0 40.49 37.54"><defs><style>.cls-1{fill:#1398a7;}</style></defs><path class="cls-1" d="M317.32,421.09H304.1a1,1,0,0,0,0,2h13.22a1,1,0,0,0,0-2Z" transform="translate(-277.83 -402.01)"/><path class="cls-1" d="M314.66,427.32H302.85a1,1,0,0,0,0,2h11.81a1,1,0,0,0,0-2Z" transform="translate(-277.83 -402.01)"/><path class="cls-1" d="M308,437.55l-6.5-.23a16.07,16.07,0,0,0,7-7.59h-2.23a14,14,0,0,1-10.28,7.4L291,437a.53.53,0,0,0-.13,0,14,14,0,1,1,13.64-22.55h-3.32a1,1,0,0,0,0,2h12a1,1,0,0,0,0-2H307a15.94,15.94,0,0,0-9.85-6.7c2.35-1.07,2.4-2,2.42-2.25a3.86,3.86,0,0,0-.91-2.72,2.35,2.35,0,0,0-1.75-.75h-5a2.37,2.37,0,0,0-1.75.75,4,4,0,0,0-.91,2.72c0,.29.09,1.1,2.11,2.09a16,16,0,0,0,2.42,31.73,16.34,16.34,0,0,0,2.22-.16l11.88.41h0a1,1,0,0,0,0-2Zm-14.88-31.4a8.11,8.11,0,0,1-1.82-1,1.83,1.83,0,0,1,.37-1.05.34.34,0,0,1,.29-.12h5a.37.37,0,0,1,.3.12,1.89,1.89,0,0,1,.36,1.05,7.89,7.89,0,0,1-1.82,1,1,1,0,0,0-.63.93v.35c-.44,0-.88-.06-1.33-.06h-.08v-.29A1,1,0,0,0,293.08,406.15Z" transform="translate(-277.83 -402.01)"/><path class="cls-1" d="M306.35,411.28a1,1,0,0,0,1.41-1.42l-3.28-3.28a1,1,0,0,0-1.42,0,1,1,0,0,0,0,1.41Z" transform="translate(-277.83 -402.01)"/><path class="cls-1" d="M281.88,411.55a1,1,0,0,0,.71-.29l3.26-3.27a1,1,0,0,0-1.41-1.41l-3.26,3.26a1,1,0,0,0,.7,1.71Z" transform="translate(-277.83 -402.01)"/><path class="cls-1" d="M307.74,423.62a14,14,0,0,1-.46,3.25h2.07a16.6,16.6,0,0,0,.39-3.25Z" transform="translate(-277.83 -402.01)"/><path class="cls-1" d="M307.49,420.62h2a15.67,15.67,0,0,0-1-3.4h-2.17A14,14,0,0,1,307.49,420.62Z" transform="translate(-277.83 -402.01)"/><path class="cls-1" d="M295.71,413.39l.23-.17.38-.35.16-.29a3.62,3.62,0,0,0,.13-.47v0a1.47,1.47,0,0,1-.21-.62,12.42,12.42,0,0,0-2.61-.29,12.16,12.16,0,0,0-10.06,5.35,1.16,1.16,0,0,1,0,.32c0,.11,0,.22,0,.33a1.81,1.81,0,0,0,.09.31,1.09,1.09,0,0,0,.08.15l.1.09.19.12a4.05,4.05,0,0,0,.47.12c.16,0,.33,0,.49,0a8,8,0,0,1,.54-.76l8,8a1,1,0,0,0,1.41,0,1,1,0,0,0,0-1.41l-8-8a10,10,0,0,1,6.68-2.55A9.33,9.33,0,0,1,295.71,413.39Z" transform="translate(-277.83 -402.01)"/><path class="cls-1" d="M283.55,422.73l-.3-.09h-.42l-.37.1-.19.12-.18.17a1.43,1.43,0,0,1-.45.4,12.16,12.16,0,0,0,12.15,12.06,12,12,0,0,0,4.37-.83v-.12a4.18,4.18,0,0,0-.2-.69,4.29,4.29,0,0,0-.31-.55,2.5,2.5,0,0,0-.32-.33l-.13-.08a10.13,10.13,0,0,1-13.56-9.56c0-.18,0-.36,0-.54Z" transform="translate(-277.83 -402.01)"/></svg>