<svg id="Слой_1" data-name="Слой 1" xmlns="http://www.w3.org/2000/svg" viewBox="0 0 33.65 40.08"><defs><style>.cls-1{fill:#1398a7;}</style></defs><path class="cls-1" d="M312.83,419.48c-1.14-5.23-5.39-5.8-5.57-5.82a1,1,0,0,0-.25,2c.12,0,3,.46,3.86,4.27.92,4.23,1.9,15.69,2,17.08-.1.43-.51,1.82-1.87,1.82H285.13c-1.36,0-1.78-1.4-1.87-1.82.11-1.39,1.1-12.85,2-17.08.82-3.8,3.72-4.25,3.86-4.27a1,1,0,0,0-.25-2c-.18,0-4.43.59-5.57,5.82-1,4.61-2,17-2.07,17.48a1.93,1.93,0,0,0,0,.24c.2,1.25,1.27,3.61,3.87,3.61H311c2.6,0,3.67-2.36,3.87-3.61a1.93,1.93,0,0,0,0-.24C314.85,436.44,313.83,424.09,312.83,419.48Z" transform="translate(-281.25 -400.74)"/><path class="cls-1" d="M293.23,426.28c.19-.87.39-1.76.67-2.62a5.34,5.34,0,0,1,2.28-2.91,1,1,0,0,0,.54-.89v-2.77a1,1,0,1,0-2,0v2.23a7.43,7.43,0,0,0-2.73,3.73c-.3.95-.52,1.92-.71,2.78a9,9,0,0,1-.87,2.75,13.29,13.29,0,0,1-1.78,1.42,1,1,0,0,0-.38,1.22,7.52,7.52,0,0,0,5.3,4,.91.91,0,0,0,.23,0,1,1,0,0,0,.23-2,6,6,0,0,1-3.5-2.13,11.53,11.53,0,0,0,1.31-1.12C292.55,429.26,292.85,428,293.23,426.28Z" transform="translate(-281.25 -400.74)"/><path class="cls-1" d="M295.59,415.64a1,1,0,1,0,.26-2c-.18,0-4.37-.63-4.37-4.55s1.64-6,2.2-6.37h9.07c.67.65,2.39,2.52,2.39,4.54,0,2.72-1.11,4.88-2.21,5.59a5.64,5.64,0,0,1-2.67.78,1,1,0,0,0-1,1V419l-.93,0a1,1,0,0,0-.95,1,1,1,0,0,0,1,1c.87,0,1.9-.06,2.39,0a26.26,26.26,0,0,1,1.42,4.55,13.38,13.38,0,0,0,2.76,5.13,6.18,6.18,0,0,1-1.44,1.62c-1.31,1.11-4.42,1.69-5.51,1.82a1,1,0,0,0,.12,2h.11c.47-.06,4.57-.59,6.57-2.28s2.27-3,2.29-3.27a1,1,0,0,0-.29-.81,11.79,11.79,0,0,1-2.67-4.7c-1.27-4.89-1.79-5.79-2.69-6l-.22,0v-3.46a7.2,7.2,0,0,0,2.76-1c1.87-1.22,3.12-4.14,3.12-7.27,0-3.41-3.21-6.19-3.35-6.3a1,1,0,0,0-.65-.24h-9.58c-1.63,0-4.08,3.34-4.08,8.37C289.48,413.66,293.48,415.37,295.59,415.64Z" transform="translate(-281.25 -400.74)"/><path class="cls-1" d="M294.72,404.23a1,1,0,0,0-1,1v6.54a1,1,0,0,0,2,0V409.5h1.59v2.27a1,1,0,0,0,2,0V409.5h2.84a1,1,0,0,0,1-1V405a1,1,0,0,0-2,0v2.49h-1.84V405a1,1,0,0,0-2,0v2.49h-1.59v-2.27A1,1,0,0,0,294.72,404.23Z" transform="translate(-281.25 -400.74)"/></svg>