<svg id="Слой_1" data-name="Слой 1" xmlns="http://www.w3.org/2000/svg" viewBox="0 0 39.57 40.32"><defs><style>.cls-1{fill:#1398a7;}</style></defs><path class="cls-1" d="M316.93,412.21a9.16,9.16,0,0,0,.92-3.34,1,1,0,0,0-.19-.69l-1.32-1.76c.08-2-.35-2.42-.52-2.58a33.56,33.56,0,0,0-5.7-3.15c-.18,0-.72-.12-2.79.66l-1.92-.37a1.06,1.06,0,0,0-.7.12,5.2,5.2,0,0,0-2.43,3.24,4.08,4.08,0,0,0,.18,2.13,7.41,7.41,0,0,0-1.7,1,12.16,12.16,0,0,0-2.69,3.59,12,12,0,0,0-2.68-3.59,7.41,7.41,0,0,0-1.7-1,4.08,4.08,0,0,0,.18-2.13,5.2,5.2,0,0,0-2.43-3.24,1,1,0,0,0-.69-.12l-1.93.37c-2.07-.78-2.61-.69-2.79-.66a33.25,33.25,0,0,0-5.7,3.15c-.17.16-.6.6-.52,2.58l-1.32,1.76a1,1,0,0,0-.2.69,9.24,9.24,0,0,0,.93,3.34,3.41,3.41,0,0,0,3,1.22,21.77,21.77,0,0,0,.57,4.34h0c-.14.12-3.4,2.94-3.4,6.63,0,4,3,6.48,8,6.74-.35,1.05-.89,2.38-1.43,3.57h-1.62a1,1,0,0,0-1,1V440a1,1,0,0,0,1,1h13.58a.71.71,0,0,0,.21,0,.85.85,0,0,0,.22,0h13.58a1,1,0,0,0,1-1v-4.26a1,1,0,0,0-1-1h-1.62c-.54-1.19-1.08-2.52-1.43-3.57,5-.26,8-2.73,8-6.74,0-3.69-3.27-6.51-3.4-6.63h0a21.77,21.77,0,0,0,.57-4.34A3.38,3.38,0,0,0,316.93,412.21Zm-12.68-7.55a3,3,0,0,1,1.19-1.64l1.8.34a.91.91,0,0,0,.54-.05,12.25,12.25,0,0,1,2-.63,51,51,0,0,1,4.5,2.49,7.82,7.82,0,0,1,0,1.49,1.06,1.06,0,0,0,.2.67l1.3,1.73a6.68,6.68,0,0,1-.61,2.12,2.42,2.42,0,0,1-1.35.24,1,1,0,0,0-.32-.36L306,405.91a1,1,0,0,0-.59-.18,7.52,7.52,0,0,0-1,.13A1.88,1.88,0,0,1,304.25,404.66Zm-7.32,8.7a1.41,1.41,0,0,0,2.29,0,13,13,0,0,1,2.81-4.3,6.26,6.26,0,0,1,3.14-1.3l6.82,4.66c0,1.29-.11,4.8-1.32,6.95a13.19,13.19,0,0,1-3,3.71h-3a6.69,6.69,0,0,0-13.28,0H288.5a13.19,13.19,0,0,1-3-3.71c-1.21-2.14-1.32-5.66-1.32-6.95l6.82-4.66a6.26,6.26,0,0,1,3.14,1.3A13,13,0,0,1,296.93,413.36Zm5.77,10.51a4.69,4.69,0,1,1-4.69-4.69A4.7,4.7,0,0,1,302.7,423.87Zm-22.37-14.81,1.3-1.73a1.06,1.06,0,0,0,.2-.67,7.74,7.74,0,0,1,0-1.48,49.71,49.71,0,0,1,4.5-2.5,12.25,12.25,0,0,1,2,.63.91.91,0,0,0,.54.05l1.8-.34a3,3,0,0,1,1.19,1.64,2,2,0,0,1-.12,1.2,7.57,7.57,0,0,0-1-.13,1,1,0,0,0-.59.18l-7.53,5.15a.88.88,0,0,0-.32.37,2.28,2.28,0,0,1-1.35-.25A6.68,6.68,0,0,1,280.33,409.06Zm1,15.35a7.31,7.31,0,0,1,2.14-4.56c.09.18.17.35.26.51a16.09,16.09,0,0,0,2.53,3.39,8.42,8.42,0,0,0,1,4.36c.17.39.32.76.42,1.05C283.58,429,281.34,427.35,281.34,424.41ZM310.87,439H298.29a.87.87,0,0,0-.22,0,.72.72,0,0,0-.21,0H285.28v-2.26h12.58a.72.72,0,0,0,.21-.05.87.87,0,0,0,.22.05h12.58Zm-12.58-4.26a.85.85,0,0,0-.22,0,.71.71,0,0,0-.21,0h-9.77c.77-1.77,1.81-4.43,1.61-5.6a8.66,8.66,0,0,0-.63-1.8,10.79,10.79,0,0,1-.77-2.24h3.13a6.69,6.69,0,0,0,13.16,0h3.26a10.79,10.79,0,0,1-.77,2.24,8.66,8.66,0,0,0-.63,1.8c-.2,1.17.84,3.83,1.61,5.6Zm16.52-10.31c0,2.94-2.24,4.61-6.31,4.75.1-.3.25-.66.42-1.05a8.32,8.32,0,0,0,.95-4.36,15.74,15.74,0,0,0,2.54-3.39c.09-.16.17-.33.26-.51A7.31,7.31,0,0,1,314.81,424.41Z" transform="translate(-278.29 -400.67)"/><path class="cls-1" d="M295.61,423.87a2.4,2.4,0,1,0,2.4-2.4A2.41,2.41,0,0,0,295.61,423.87Zm2.8,0a.4.4,0,1,1-.4-.4A.4.4,0,0,1,298.41,423.87Z" transform="translate(-278.29 -400.67)"/></svg>