<svg id="Слой_1" data-name="Слой 1" xmlns="http://www.w3.org/2000/svg" viewBox="0 0 31.52 41.77"><defs><style>.cls-1{fill:#1398a7;}</style></defs><path class="cls-1" d="M292,415.86a1,1,0,0,0-.05,1.41s3.18,3.54,3.18,11.13a1,1,0,0,0,2,0c0-8.45-3.57-12.33-3.72-12.49A1,1,0,0,0,292,415.86Z" transform="translate(-282.31 -399.89)"/><path class="cls-1" d="M287.42,426.89a1,1,0,0,0,1-1V414.08c0-2.77,3.68-3.91,4.34-4.1h10.63c.66.19,4.34,1.33,4.34,4.1v11.81a1,1,0,0,0,2,0V414.08c0-3.21-2.77-4.86-4.54-5.59v-5.6c0-2-2.81-2.87-3.13-3a1.1,1.1,0,0,0-.27,0h-7.44a1.09,1.09,0,0,0-.26,0c-.32.09-3.13.93-3.13,3v5.6c-1.77.73-4.54,2.38-4.54,5.59v11.81A1,1,0,0,0,287.42,426.89Zm7.08-25h7.15c.77.25,1.54.74,1.54,1V408H293v-5.09C293,402.63,293.73,402.14,294.5,401.89Z" transform="translate(-282.31 -399.89)"/><path class="cls-1" d="M313.83,431.63a4.56,4.56,0,0,0-2-3.11,2.89,2.89,0,0,0-2.41-.5c-1.25.37-2.58,2.74-3.45,4.6l-1.78-.78a20.26,20.26,0,0,0-6.1-1h-.05a20.26,20.26,0,0,0-6.1,1l-1.78.78c-.87-1.86-2.2-4.23-3.45-4.6a2.89,2.89,0,0,0-2.41.5,4.56,4.56,0,0,0-2,3.11c-.13,1.48,1.49,7.49,2,9.3a1,1,0,0,0,1,.73h25.61a1,1,0,0,0,1-.73C312.34,439.12,314,433.11,313.83,431.63Zm-3.72,8H286a52.24,52.24,0,0,1-1.73-7.85,2.64,2.64,0,0,1,1.12-1.63,1.16,1.16,0,0,1,.69-.26c.49.26,1.73,2.33,2.64,4.44a1,1,0,0,0,.59.55,1,1,0,0,0,.8-.06s.64-.34,2.58-1.17a16.85,16.85,0,0,1,10.69,0c1.94.83,2.58,1.17,2.58,1.17a1,1,0,0,0,.8.06,1,1,0,0,0,.59-.55c.91-2.11,2.15-4.18,2.61-4.42a1,1,0,0,1,.72.24,2.58,2.58,0,0,1,1.11,1.63A50.47,50.47,0,0,1,310.11,439.66Z" transform="translate(-282.31 -399.89)"/><path class="cls-1" d="M302.79,415.91c-.15.16-3.72,4-3.72,12.49a1,1,0,0,0,2,0c0-7.59,3.15-11.09,3.18-11.13a1,1,0,0,0,0-1.41A1,1,0,0,0,302.79,415.91Z" transform="translate(-282.31 -399.89)"/></svg>