<svg id="Слой_1" data-name="Слой 1" xmlns="http://www.w3.org/2000/svg" viewBox="0 0 30.29 78.04"><defs><style>.cls-1{fill:#1398a7;}</style></defs><path class="cls-1" d="M286.24,416.57a.75.75,0,0,0,.26,0H301a.78.78,0,0,0,.26,0c.15,0,3.84-1.06,3.84-4.23,0-.16-.17-15.28-3.74-18.69a4.19,4.19,0,0,0,.31-1.49v-9.69a1,1,0,0,0-2,0v9.71a1.59,1.59,0,0,1-.36,1,.94.94,0,0,1-.75.25h-9.64a1,1,0,0,1-.76-.25,1.65,1.65,0,0,1-.35-1v-9.69a1,1,0,0,0-2,0v9.67a4,4,0,0,0,.31,1.51c-3.58,3.41-3.75,18.53-3.75,18.69C282.39,415.51,286.08,416.53,286.24,416.57Zm1.26-21.45a3.23,3.23,0,0,0,1.44.32h9.64a3.23,3.23,0,0,0,1.44-.32c2,1.69,3.1,12,3.1,17.22,0,1.43-1.79,2.11-2.25,2.27H286.65c-.47-.16-2.26-.85-2.26-2.27C284.39,407.08,285.46,396.81,287.5,395.12Z" transform="translate(-278.85 -381.47)"/><path class="cls-1" d="M286.83,413.06a1,1,0,0,0,1-1v-2.55h11.86v2.55a1,1,0,0,0,2,0v-3.55a1,1,0,0,0-1-1H286.83a1,1,0,0,0-1,1v3.55A1,1,0,0,0,286.83,413.06Z" transform="translate(-278.85 -381.47)"/><path class="cls-1" d="M300.22,431.45v-10c0-1.14-1.36-1.74-2-1.94a.92.92,0,0,0-.33-.06h-7.89a.88.88,0,0,0-.33.06c-.59.2-2,.8-2,1.94v10c-4.2,2.1-8.92,4.89-8.92,6.83v6.18a1,1,0,0,0,0,.29c.05.17,1.34,4.28,5.28,4.28a1,1,0,1,0,0-2c-2.18,0-3.12-2.18-3.32-2.74v-5.92a5.53,5.53,0,0,1,1.78-1.62c2.27,1.65,7.46,1.88,10.16,1.88h2.43c2.71,0,7.91-.23,10.17-1.89a5.75,5.75,0,0,1,1.76,1.54v6c-.2.55-1.15,2.74-3.32,2.74a1,1,0,1,0,0,2c3.94,0,5.23-4.11,5.28-4.28a1,1,0,0,0,0-.29v-6.18C309.14,436.34,304.42,433.55,300.22,431.45Zm-6.07,5.17h-.31c-3,.07-7.37-.23-9.35-1.08,1.37-.83,3-1.73,4.72-2.57a1,1,0,0,0,.56-.9v-10.4a3.22,3.22,0,0,1,.46-.24h7.53a3.22,3.22,0,0,1,.46.24v10.4a1,1,0,0,0,.56.9c1.71.84,3.35,1.74,4.73,2.57C301.52,436.39,297.18,436.69,294.15,436.62Z" transform="translate(-278.85 -381.47)"/><path class="cls-1" d="M304.26,443.54a1,1,0,0,0-1-1H284.72a1,1,0,0,0,0,2H286v14a1,1,0,0,0,2,0v-14h12v14a1,1,0,0,0,2,0v-14h1.27A1,1,0,0,0,304.26,443.54Z" transform="translate(-278.85 -381.47)"/><path class="cls-1" d="M295.81,422.31h-3.94a1,1,0,0,0-1,1v5.82a1,1,0,0,0,1,1h3.94a1,1,0,0,0,1-1v-5.82A1,1,0,0,0,295.81,422.31Zm-1,5.82h-1.94v-3.82h1.94Z" transform="translate(-278.85 -381.47)"/></svg>