<svg id="Слой_1" data-name="Слой 1" xmlns="http://www.w3.org/2000/svg" viewBox="0 0 44.92 34.59"><defs><style>.cls-1{fill:#1398a7;}</style></defs><path class="cls-1" d="M320.17,428.57l-3.79-3.11V413.29a.85.85,0,0,0,0-.23c-.1-.39-2.43-9.58-9.45-9.58h-8.73l-.1,0-.09,0h-8.73c-7,0-9.35,9.19-9.45,9.58a.85.85,0,0,0,0,.23v12.17L276,428.57a1,1,0,0,0-.14,1.4,1,1,0,0,0,1.41.14l2.52-2.07v9a1,1,0,0,0,2,0v-22c1.92-.62,7.2-2.54,10.46-5.72H298l.09,0,.1,0h5.75c3.26,3.18,8.54,5.1,10.46,5.72v22a1,1,0,1,0,2,0v-9l2.52,2.07a1,1,0,0,0,1.41-.14A1,1,0,0,0,320.17,428.57ZM314.23,413c-2.17-.77-6.33-2.47-8.91-5v-2.48h1.58C311.48,405.48,313.65,411.11,314.23,413Zm-25-7.47h1.58V408c-2.58,2.51-6.74,4.22-8.92,5C282.5,411.11,284.67,405.48,289.25,405.48Zm3.58,0H298l.09,0,.1,0h5.15v1.91h-5.15l-.1,0-.09,0h-5.15Z" transform="translate(-275.61 -403.48)"/><path class="cls-1" d="M307.3,423.07a83.45,83.45,0,0,0-9.13-.47l-.1,0-.09,0a83.45,83.45,0,0,0-9.13.47c-3.19.49-4.37,1.46-4.5,1.57a1,1,0,0,0-.32,1l2.33,11a1,1,0,0,0,1,.8H298l.09,0,.1,0h10.64a1,1,0,0,0,1-.8l2.33-11a1,1,0,0,0-.32-1C311.67,424.53,310.49,423.56,307.3,423.07Zm.7,12.38h-9.83l-.1,0-.09,0h-9.83l-2-9.57a11.13,11.13,0,0,1,3-.83,83.12,83.12,0,0,1,8.83-.45l.09,0,.1,0a83.12,83.12,0,0,1,8.83.45,10.9,10.9,0,0,1,3,.83Z" transform="translate(-275.61 -403.48)"/></svg>