<svg id="Слой_1" data-name="Слой 1" xmlns="http://www.w3.org/2000/svg" viewBox="0 0 39.57 30.02"><defs><style>.cls-1{fill:#1398a7;}</style></defs><path class="cls-1" d="M290.11,423.75a8.46,8.46,0,0,0,1.47-6.31,1,1,0,0,0-1.18-.76,1,1,0,0,0-.77,1.19,6.76,6.76,0,0,1-2.65,6.34c-2.8,2.31-3.25,2.9-3.22,3.66a3.29,3.29,0,0,1-2.11,1.1c-.58-.18-1-1.16-1.06-2.43-.13-3.46-.21-12.45.2-13.73.13-.18.28-.37.43-.56.75-.93,1.68-2.1,1.34-3.48a5.41,5.41,0,0,0-.37-1H291a12.63,12.63,0,0,1,6.76,3.15c.4.41.81.88,1.25,1.38,2.71,3.11,6.43,7.37,15,6.65a1,1,0,0,0,.91-1.08,1,1,0,0,0-1.08-.92c-7.52.64-10.73-3-13.3-6-.46-.52-.89-1-1.32-1.46-3.08-3.17-7.82-3.72-8-3.75H280.34a1,1,0,0,0-.75,1.66,5.35,5.35,0,0,1,1,1.83c.1.42-.51,1.18-1,1.74-.2.25-.39.49-.56.73-1,1.43-.51,14.75-.51,14.88.09,2.22,1,3.82,2.47,4.27a2.61,2.61,0,0,0,.69.09,5.19,5.19,0,0,0,3.8-2.19,1.47,1.47,0,0,0,.22-.8,23.75,23.75,0,0,1,2.48-2.24l.48-.42a8.38,8.38,0,0,1,3.09,2.11c1.08,1.35.63,2.07.11,2.54-1.24,1.14-1.46,4.17-1.49,4.76a1,1,0,0,0,.95,1h.05a1,1,0,0,0,1-.94c.07-1.31.43-3,.84-3.39,1.56-1.43,1.6-3.4.1-5.27A9.55,9.55,0,0,0,290.11,423.75Z" transform="translate(-278.47 -405.77)"/><path class="cls-1" d="M317.05,422.64c-12.74,0-15.48-3.54-17.68-6.38l-.5-.64c-2.57-3.22-7.1-3.52-7.29-3.53a1,1,0,0,0-1.05.94,1,1,0,0,0,.93,1.05s3.84.27,5.85,2.79l.48.61c2.33,3,5.53,7.16,19.26,7.16a1,1,0,1,0,0-2Z" transform="translate(-278.47 -405.77)"/><path class="cls-1" d="M313.93,427.63c-9.95,0-11.69-2.41-11.78-2.55a1,1,0,0,0-1.28-.49,1,1,0,0,0-.54,1.31c.25.62,2.12,3.73,13.6,3.73a1,1,0,0,0,0-2Z" transform="translate(-278.47 -405.77)"/><path class="cls-1" d="M282.21,416.37v.46a1,1,0,0,0,2,0v-.46a1,1,0,0,0-2,0Z" transform="translate(-278.47 -405.77)"/></svg>