<svg id="Слой_1" data-name="Слой 1" xmlns="http://www.w3.org/2000/svg" viewBox="0 0 42.28 39.3"><defs><style>.cls-1{fill:#1398a7;}</style></defs><path class="cls-1" d="M313.47,408a17.3,17.3,0,0,1,2.59,4.54c1.37,3.36.44,10.13.43,10.2a1,1,0,0,0,.85,1.13h.14a1,1,0,0,0,1-.86c0-.3,1-7.38-.56-11.24a16.57,16.57,0,0,0-3.31-5.5,1,1,0,0,0-.69-.28H296.64c-1.19-3-2.82-4.91-4.87-4.91h-6c-4.1,0-6.54,7.74-7.08,16h2c.56-8.77,3.15-14,5.08-14,2.16,0,5.19,6.67,5.19,17.54s-3,17.54-5.19,17.54c-1.93,0-4.52-5.25-5.08-14h-2c.54,8.28,3,16,7.08,16h6c4.67,0,7.19-10.07,7.19-19.54A46.4,46.4,0,0,0,297.33,408Zm-21.7,30.17a.58.58,0,0,1-.14,0v0h-2.56c2.54-3.41,3.89-10.63,3.89-17.54s-1.35-14.14-3.89-17.54h2.56v0l.14,0c2.16,0,5.19,6.67,5.19,17.54S293.93,438.21,291.77,438.21Z" transform="translate(-276.66 -401.13)"/><path class="cls-1" d="M303.35,411.53a1,1,0,0,0,0,2h7.73a1,1,0,0,0,0-2Z" transform="translate(-276.66 -401.13)"/><path class="cls-1" d="M286.57,420.67a1,1,0,0,0-1-1h-7.91a1,1,0,0,0,0,2h7.91A1,1,0,0,0,286.57,420.67Z" transform="translate(-276.66 -401.13)"/><path class="cls-1" d="M318.59,430.6l-2.1-1.78v-2.91a1,1,0,0,0-1-1h-3.11L310.51,423s0,0,0,0h0l-.16-.1a.86.86,0,0,0-.16-.1.58.58,0,0,0-.18,0,.71.71,0,0,0-.2,0l-.18,0a1.33,1.33,0,0,0-.19.05,1969443634413.69,1969443634413.69,0,0,1-.32.2h0l0,0-1.87,1.93h-3.1a1,1,0,0,0-1,1v2.91L301,430.6a1,1,0,0,0-.36.75,1,1,0,0,0,.34.76l2.08,1.82v3.17a1,1,0,0,0,1,1h2.77l2.29,2.07a1.18,1.18,0,0,0,.19.11l.11.07a.94.94,0,0,0,.37.07,1,1,0,0,0,.38-.07l.11-.07a1.08,1.08,0,0,0,.18-.11l2.29-2.07h2.78a1,1,0,0,0,1-1v-3.17l2.07-1.82a1,1,0,0,0,.34-.76A1,1,0,0,0,318.59,430.6Zm-3.72,2.13a1,1,0,0,0-.34.75v2.62h-2.16a1,1,0,0,0-.67.25l-1.91,1.73-1.91-1.73a1,1,0,0,0-.67-.25h-2.15v-2.62a1,1,0,0,0-.34-.75l-1.55-1.36,1.57-1.33a1,1,0,0,0,.36-.76v-2.37h2.53a1,1,0,0,0,.72-.3l1.44-1.5,1.44,1.5a1,1,0,0,0,.72.3h2.54v2.37a1,1,0,0,0,.35.76l1.57,1.33Z" transform="translate(-276.66 -401.13)"/><path class="cls-1" d="M310.85,429.74h-2.1a1,1,0,0,0-1,1v2.1a1,1,0,0,0,1,1h2.1a1,1,0,0,0,1-1v-2.1A1,1,0,0,0,310.85,429.74Zm-1,2.1h-.1v-.1h.1Z" transform="translate(-276.66 -401.13)"/></svg>