<svg id="Слой_1" data-name="Слой 1" xmlns="http://www.w3.org/2000/svg" viewBox="0 0 14.84 9.97"><defs><style>.cls-1{fill:#989898;}</style></defs><path class="cls-1" d="M301.42,424.28c0,.11-.07.22-.11.33a1.39,1.39,0,0,1-1.32.86H288a1.38,1.38,0,0,1-1.4-1.06,1.58,1.58,0,0,1,0-.38c0-2.36,0-4.73,0-7.09A1.39,1.39,0,0,1,288,415.5h11.92a1.38,1.38,0,0,1,1.45,1.15l0,0Zm-.93-4.6h-13V424c0,.37.18.54.55.54h11.87c.4,0,.57-.16.57-.56v-4.3Zm0-1.87V417c0-.39-.17-.56-.57-.56H288a.45.45,0,0,0-.49.38c0,.33,0,.67,0,1Z" transform="translate(-286.57 -415.5)"/><path class="cls-1" d="M290.28,423.62h-1.34a.47.47,0,1,1,0-.93h2.67a.47.47,0,0,1,.52.46.47.47,0,0,1-.53.47Z" transform="translate(-286.57 -415.5)"/></svg>