<svg id="Слой_1" data-name="Слой 1" xmlns="http://www.w3.org/2000/svg" viewBox="0 0 20.57 19.07"><defs><style>.cls-1{fill:#0b707a;}</style></defs><path class="cls-1" d="M302.82,426c0,.77,0,1.53,0,2.3v.3H300V430h4.3v-4.26c-.39,0-.78,0-1.18,0C302.89,425.69,302.82,425.75,302.82,426Z" transform="translate(-283.71 -410.95)"/><path class="cls-1" d="M302.5,411l-2.4,0c-.05,0-.13.09-.13.14,0,.42,0,.84,0,1.3h2.87V415c0,.12,0,.25.17.25l1.28,0V411Z" transform="translate(-283.71 -410.95)"/><path class="cls-1" d="M294.58,421h1.06v-2.17h-1.08v-1l1.06-.06v-3.28h-1.07v1.07h-1.09c0-.3,0-.58,0-.86s-.06-.23-.22-.22-.47,0-.7,0-.22.07-.21.23,0,.45,0,.67.05.24.23.23h.86c0,.29,0,.55,0,.8s.08.32.31.3.43,0,.64,0,.19,0,.19.17,0,.5,0,.74a.19.19,0,0,1-.07.14,3,3,0,0,1-.51.06l-1.45,0c-.06,0-.18.08-.18.12,0,.32,0,.64,0,1h1.12c0,.33,0,.62,0,.92,0,.05-.09.16-.14.16h-.95l-.06-1.06H289V421H288v1.11h4.37c0,.13,0,.21,0,.29,0,.56,0,1.12,0,1.67,0,.2.06.26.25.24h.82v1.08h-.84c-.18,0-.24.06-.23.24s0,.46,0,.69.05.21.21.21h2v-2.22h1.07v-2.18h-1.06Zm-2.25,0h-1.57a3.85,3.85,0,0,1-.48,0c-.06,0-.17-.1-.17-.15,0-.31.05-.62.07-.95h2.15Zm2.21,3.27h-1.06v-2.13h1.06Zm-1.07-3.3v-1.06c.33,0,.65,0,1,0,0,0,.11.13.11.21,0,.28,0,.56,0,.84Z" transform="translate(-283.71 -410.95)"/><path class="cls-1" d="M288,428.78c0-.16-.06-.22-.23-.22h-2.65V425.7h-1.29c-.06,0-.15.13-.15.21,0,1.29,0,2.59,0,3.89,0,.16.06.21.21.21h3.91c.16,0,.21-.06.21-.21C288,429.47,288,429.12,288,428.78Z" transform="translate(-283.71 -410.95)"/><path class="cls-1" d="M283.94,415.28h1c.17,0,.22-.06.22-.22,0-.64,0-1.27,0-1.9v-.79H288V411h-4l-.15,0c-.14,0-.18.07-.18.21v3.87C283.71,415.23,283.77,415.29,283.94,415.28Z" transform="translate(-283.71 -410.95)"/><path class="cls-1" d="M300.05,426.31v-2.87c0-.17-.05-.21-.22-.21h-2.9l-.18,0v3.29H300C300,426.46,300.05,426.39,300.05,426.31Zm-1.12-1s-.08.09-.12.09H298s-.12-.09-.12-.13c0-.3,0-.6,0-.93h1.07C298.93,424.68,298.94,425,298.93,425.32Z" transform="translate(-283.71 -410.95)"/><path class="cls-1" d="M291,423.23H288.1l-.15,0v3.29h3.28a1.49,1.49,0,0,0,0-.21c0-1,0-1.93,0-2.89C291.26,423.26,291.18,423.23,291,423.23Zm-.93,2.17H289c0-.3,0-.58,0-.85s.05-.22.21-.21.56,0,.86,0Z" transform="translate(-283.71 -410.95)"/><path class="cls-1" d="M288,417.75l.11,0h3c.2,0,.2-.11.2-.25,0-.95,0-1.89,0-2.84,0-.17,0-.25-.23-.25h-2.95l-.13,0Zm1.09-2a.23.23,0,0,1,.17-.15c.29,0,.58,0,.91,0,0,.34,0,.64,0,.95a.26.26,0,0,1-.15.12h-.77a.25.25,0,0,1-.16-.17A4.57,4.57,0,0,1,289,415.72Z" transform="translate(-283.71 -410.95)"/><path class="cls-1" d="M299.85,417.77c.18,0,.2-.09.2-.24v-3.07h-3.3v3.29l.12,0Zm-2-2.22h1.06v1.06h-1.06Z" transform="translate(-283.71 -410.95)"/><polygon class="cls-1" points="11.94 10.06 11.94 10.06 11.93 10.06 11.93 10.06 11.94 10.06"/><polygon class="cls-1" points="11.94 11.19 11.93 11.19 11.93 11.19 11.93 11.19 11.93 11.19 11.94 11.19 11.94 11.19"/><path class="cls-1" d="M297.46,422.15c.4,0,.4,0,.4-.38V421h.87c.15,0,.21.05.2.19s0,.48,0,.72.05.24.22.23a3.42,3.42,0,0,1,.64,0c.21,0,.27-.07.27-.27,0-.95,0-1.89,0-2.84a1.1,1.1,0,0,0,0-.18h-1.11v1.05h-1.07v-1.05h-1.13V421h-1.07v1.13Z" transform="translate(-283.71 -410.95)"/></svg>