<svg id="Слой_1" data-name="Слой 1" xmlns="http://www.w3.org/2000/svg" viewBox="0 0 21.38 20.46"><defs><style>.cls-1{fill:#079ba9;}</style></defs><path class="cls-1" d="M285.79,429.68A7,7,0,0,1,284,427a9.67,9.67,0,0,1-.66-3.57,15.25,15.25,0,0,1,1.1-5.78,16.5,16.5,0,0,1,2.73-4.62,11.79,11.79,0,0,1,3.12-2.75h.05L292,411.8v.7a10,10,0,0,0-2,2.9,10.39,10.39,0,0,0-1,4.67,5.35,5.35,0,0,0,.4,2.24,9.11,9.11,0,0,0,1.14,1.85,9.2,9.2,0,0,1,1,1.56,4.23,4.23,0,0,1,.31,1.7,3.13,3.13,0,0,1-1,2.35,3.41,3.41,0,0,1-2.44,1A3.84,3.84,0,0,1,285.79,429.68Zm12.67,0a7,7,0,0,1-1.83-2.7,9.67,9.67,0,0,1-.66-3.57,15.25,15.25,0,0,1,1.1-5.78A17,17,0,0,1,299.8,413a11.81,11.81,0,0,1,3.13-2.75h0l1.72,1.54v.7a9.89,9.89,0,0,0-2.07,2.93,10.1,10.1,0,0,0-1,4.64,5.35,5.35,0,0,0,.4,2.24,9.11,9.11,0,0,0,1.14,1.85,9.2,9.2,0,0,1,1,1.56,4.23,4.23,0,0,1,.31,1.7,3.18,3.18,0,0,1-1,2.35,3.33,3.33,0,0,1-2.42,1A3.85,3.85,0,0,1,298.46,429.68Z" transform="translate(-283.3 -410.26)"/></svg>