<svg id="Слой_1" data-name="Слой 1" xmlns="http://www.w3.org/2000/svg" viewBox="0 0 43.03 30.31"><defs><style>.cls-1{fill:#fff;}</style></defs><path class="cls-1" d="M315.5,410a4.45,4.45,0,0,0-1.21-3.07,4.16,4.16,0,0,0-2.61-1.41,9.14,9.14,0,0,0-1.27-.14h-29.8c-1.09,0-2.18,0-3.27,0a4.48,4.48,0,0,0-2.2.47,4.54,4.54,0,0,0-2.64,4.27c0,6.93,0,13.86,0,20.79a4.68,4.68,0,0,0,4.68,4.77h33.45a5.3,5.3,0,0,0,1.64-.24,4.75,4.75,0,0,0,1.4-.75,5.79,5.79,0,0,0,1.17-1.31,4.09,4.09,0,0,0,.67-2.33Q315.52,420.48,315.5,410Zm-.94,21a3.63,3.63,0,0,1-2.23,3.45,3.25,3.25,0,0,1-1.45.3H277a3.64,3.64,0,0,1-3.41-2.79,6.12,6.12,0,0,1-.15-1.27q0-10.26,0-20.52a3.68,3.68,0,0,1,1.89-3.32,3.45,3.45,0,0,1,1.81-.47h31.28c.45,0,.9,0,1.35,0s.73,0,1.1,0a3.78,3.78,0,0,1,1,.08A4.81,4.81,0,0,1,313,407a3.58,3.58,0,0,1,1.51,2.31,3.44,3.44,0,0,1,.08.78Q314.58,420.5,314.56,430.93Z" transform="translate(-272.48 -405.34)"/><path class="cls-1" d="M289,415H277.12c-.35,0-.35,0-.35.35v13.9H289c.26,0,.32-.07.32-.32q0-6.81,0-13.61C289.31,415,289.24,415,289,415Zm-3.7,13.29h-4.47c0-.54,0-1.09,0-1.62a2,2,0,0,1,1.11-1.6,2.27,2.27,0,0,1,3,.81,2.37,2.37,0,0,1,.31,1.25Zm3,0h-2.07v-1.17a3.2,3.2,0,0,0-6-1.55,3.32,3.32,0,0,0-.36,1.54c0,.38,0,.77,0,1.18h-2.07V415.91h10.54Z" transform="translate(-272.48 -405.34)"/><path class="cls-1" d="M311.23,415.27c0-.26-.08-.32-.33-.32H293a.32.32,0,0,1,0,.06c0,1.73,0,3.46,0,5.2,0,.06.11.16.18.17.24,0,.49,0,.74,0h17.32v-.32C311.23,418.47,311.22,416.87,311.23,415.27Zm-1,4s0,.08,0,.14h-16.3v-3.49h16.32C310.25,417.05,310.25,418.16,310.24,419.27Z" transform="translate(-272.48 -405.34)"/><path class="cls-1" d="M293,425.53h15.63v-.91H293Z" transform="translate(-272.48 -405.34)"/><path class="cls-1" d="M293,429.17H306.7v-.9H293Z" transform="translate(-272.48 -405.34)"/><path class="cls-1" d="M286.89,431h-7.7a.53.53,0,0,0-.18,0c-.05,0-.12.07-.12.11,0,.28,0,.55,0,.84h8.3a4.82,4.82,0,0,1,0-.66C287.22,431.09,287.13,431,286.89,431Z" transform="translate(-272.48 -405.34)"/><path class="cls-1" d="M302.69,413.17c.16,0,.23-.05.23-.23,0-.64,0-1.28,0-1.92,0-.1,0-.21,0-.31H303l.63,2.28c.08.33.32.16.49.18s.15-.16.15-.27v-3.16a1.49,1.49,0,0,0,0-.21h-.52v1.94h-.05l-.53-1.93h-.72c0,1.16,0,2.3,0,3.44C302.42,413.17,302.55,413.16,302.69,413.17Z" transform="translate(-272.48 -405.34)"/><path class="cls-1" d="M279.12,413.16a6,6,0,0,0,.85,0,.72.72,0,0,0,.7-.46,2,2,0,0,0,.08-.54c0-.67,0-1.35-.05-2a.54.54,0,0,0-.44-.55c-.42-.07-.85-.07-1.3-.1,0,1.21,0,2.37,0,3.53C279,413.06,279.07,413.15,279.12,413.16Zm.44-3.09c.48-.12.6,0,.6.43s0,1.08,0,1.61-.08.56-.6.5Z" transform="translate(-272.48 -405.34)"/><path class="cls-1" d="M282,413.16s0,0,.08-.05V411.7c.46,0,.57.05.58.48,0,.25,0,.51,0,.76s.07.23.22.22h.37c-.17-.62.2-1.3-.35-1.8.08-.1.2-.2.21-.3a5.08,5.08,0,0,0,0-1.1.54.54,0,0,0-.55-.44c-.36,0-.72,0-1.11,0v3.17C281.51,413.19,281.51,413.19,282,413.16Zm.09-3.09c.45-.1.54,0,.54.41v.21c0,.42-.1.5-.54.44Z" transform="translate(-272.48 -405.34)"/><path class="cls-1" d="M291.73,411.37a1.19,1.19,0,0,0,.25-.45,3.32,3.32,0,0,0,0-.89.5.5,0,0,0-.45-.47c-.32,0-.65,0-1-.06s-.26.07-.26.27c0,1,0,2,0,3.06,0,.22,0,.34.29.34s.31-.09.3-.32c0-.39,0-.79,0-1.2.56.09.57.1.57.59,0,.23,0,.46,0,.69s.06.23.22.23h.41C292,412.53,292.24,411.85,291.73,411.37Zm-.27-.71c0,.43-.07.5-.54.48v-1.09c.47-.06.54,0,.54.47A.66.66,0,0,1,291.46,410.66Z" transform="translate(-272.48 -405.34)"/><path class="cls-1" d="M286.32,413.16c.42,0,.41,0,.46-.43.09-.62.2-1.24.29-1.86.07-.44.13-.89.2-1.36a2.52,2.52,0,0,0-.39,0,.26.26,0,0,0-.15.16c0,.19-.05.38-.08.57-.08.6-.17,1.19-.26,1.79,0,.05-.06.08-.11.14-.12-.76-.25-1.49-.35-2.22-.06-.46-.05-.46-.5-.44h-.13l.57,3.64Z" transform="translate(-272.48 -405.34)"/><path class="cls-1" d="M305.77,411.63a.91.91,0,0,1,.36.75c0,.19-.1.3-.29.29s-.3-.08-.29-.29v-.33h-.4s-.14.08-.13.11a2,2,0,0,0,.14.7.84.84,0,0,0,1.09.26.94.94,0,0,0,.45-1,1.56,1.56,0,0,0-.6-1c-.28-.24-.57-.49-.49-.91,0-.1.14-.25.22-.26a.4.4,0,0,1,.3.18c.07.08.06.21.08.33a2,2,0,0,0,.35,0c.06,0,.15-.1.15-.15a.91.91,0,0,0-1-.89c-.65.1-.77.67-.68,1.17A1.91,1.91,0,0,0,305.77,411.63Z" transform="translate(-272.48 -405.34)"/><path class="cls-1" d="M298.25,413.19a.9.9,0,0,0,.94-.34,1.67,1.67,0,0,0,.11-1.06h-.53v.58c0,.18-.08.3-.28.3a.28.28,0,0,1-.31-.29c0-.7,0-1.41,0-2.11,0-.1.13-.23.23-.28a.3.3,0,0,1,.28.07,3,3,0,0,1,.08.43c0,.08.07.21.13.23.32.1.44,0,.42-.33a1.76,1.76,0,0,0-.06-.39.79.79,0,0,0-.88-.54.73.73,0,0,0-.75.72c0,.76,0,1.52,0,2.29A.73.73,0,0,0,298.25,413.19Z" transform="translate(-272.48 -405.34)"/><path class="cls-1" d="M308.82,413.17c.24,0,.21-.14.21-.29s0-.27-.22-.25h-.75v-1.09h.74c.07-.49.06-.5-.39-.51h-.35v-1H309v-.5h-1.53v3.64C307.93,413.16,308.37,413.15,308.82,413.17Z" transform="translate(-272.48 -405.34)"/><path class="cls-1" d="M289.14,412.63h-.61c0-.33,0-.63,0-.94,0-.05.1-.13.16-.14h.6V411c-.21,0-.41,0-.6,0s-.16-.09-.16-.13c0-.28,0-.56,0-.82l.08,0h.6c.35,0,.35,0,.34-.35a1,1,0,0,0,0-.16H288c0,1.18,0,2.33,0,3.49,0,.05.06.14.1.14h1.42C289.6,412.65,289.59,412.63,289.14,412.63Z" transform="translate(-272.48 -405.34)"/><path class="cls-1" d="M300.31,413.17c.38,0,.75,0,1.13,0s.21-.14.22-.29,0-.26-.24-.25h-.77c0-.31,0-.58,0-.85s.05-.24.23-.23h.56a.92.92,0,0,1,0-.18c0-.26,0-.38-.32-.34a3.53,3.53,0,0,1-.46,0v-1h1v-.5H300.1c0,1.16,0,2.3,0,3.44C300.1,413.12,300.16,413.17,300.31,413.17Z" transform="translate(-272.48 -405.34)"/><path class="cls-1" d="M294.19,413.15c.45,0,.91,0,1.37,0,0-.1,0-.17,0-.24,0-.22,0-.32-.28-.3a4.89,4.89,0,0,1-.67,0V409.5a1.63,1.63,0,0,0-.39,0c-.07,0-.18.11-.18.18,0,1.08,0,2.17,0,3.26C294.06,413,294.14,413.15,294.19,413.15Z" transform="translate(-272.48 -405.34)"/><path class="cls-1" d="M296.83,412.8v-3.28h-.57v3.63h.2C296.83,413.17,296.83,413.17,296.83,412.8Z" transform="translate(-272.48 -405.34)"/><path class="cls-1" d="M284.09,413.15a.35.35,0,0,0,.53-.28v-3.11a2.12,2.12,0,0,0,0-.24H284V413A.22.22,0,0,0,284.09,413.15Z" transform="translate(-272.48 -405.34)"/><path class="cls-1" d="M283,422.94a2.37,2.37,0,0,0,2.41-2.36,2.4,2.4,0,1,0-4.8,0A2.38,2.38,0,0,0,283,422.94Zm0-3.82a1.44,1.44,0,0,1,1.48,1.44,1.46,1.46,0,0,1-1.45,1.45,1.42,1.42,0,0,1-1.47-1.45A1.41,1.41,0,0,1,283,419.12Z" transform="translate(-272.48 -405.34)"/></svg>