<svg id="Слой_1" data-name="Слой 1" xmlns="http://www.w3.org/2000/svg" viewBox="0 0 20.21 14.55"><defs><style>.cls-1{fill:#d62e2d;}</style></defs><path class="cls-1" d="M297.88,413.5a7.28,7.28,0,1,0,7.3,7.24A7.24,7.24,0,0,0,297.88,413.5Zm0,13.26a6,6,0,1,1,6-6A6,6,0,0,1,297.85,426.76Z" transform="translate(-287.89 -413.5)"/><path class="cls-1" d="M305.11,413.65l-.88,1a8,8,0,0,1,2.58,6.12,8.22,8.22,0,0,1-2.65,6.1l.82.94C308.77,424.52,309.44,417.38,305.11,413.65Z" transform="translate(-287.89 -413.5)"/><path class="cls-1" d="M291.84,414.66l-.9-1c-4.23,3.88-3.87,10.9-.05,14.05l.88-.81a8,8,0,0,1-2.58-6.15A8.38,8.38,0,0,1,291.84,414.66Z" transform="translate(-287.89 -413.5)"/><path class="cls-1" d="M298.39,417.42h-.59a.94.94,0,0,0-1.06,1.2c.12.58.2,1.16.3,1.74a.88.88,0,0,0,.79.79.87.87,0,0,0,1-.67c.16-.73.27-1.48.36-2.23A.77.77,0,0,0,298.39,417.42Z" transform="translate(-287.89 -413.5)"/><path class="cls-1" d="M297.9,422.05a1,1,0,0,0-1,1,1,1,0,0,0,1,1,1,1,0,0,0,1-.95A1,1,0,0,0,297.9,422.05Z" transform="translate(-287.89 -413.5)"/></svg>