<svg id="Слой_1" data-name="Слой 1" xmlns="http://www.w3.org/2000/svg" viewBox="0 0 10.6 16.96"><defs><style>.cls-1{fill:#019aa8;}</style></defs><path class="cls-1" d="M297.7,412h-7.42a1.59,1.59,0,0,0-1.59,1.59v13.78a1.6,1.6,0,0,0,1.59,1.59h7.42a1.59,1.59,0,0,0,1.59-1.59V413.6A1.59,1.59,0,0,0,297.7,412Zm-5.3,1.06h3.18v.53a.53.53,0,0,1-.53.53h-2.12a.53.53,0,0,1-.53-.53Zm5.83,14.31a.53.53,0,0,1-.53.53h-7.42a.53.53,0,0,1-.53-.53V413.6a.53.53,0,0,1,.53-.53h1.06v.53a1.6,1.6,0,0,0,1.59,1.59h2.12a1.59,1.59,0,0,0,1.59-1.59v-.53h1.06a.52.52,0,0,1,.53.53Z" transform="translate(-288.69 -412.01)"/><path class="cls-1" d="M294.52,425.79h-1.06a.53.53,0,0,0-.53.53.53.53,0,0,0,.53.53h1.06a.53.53,0,0,0,.53-.53A.52.52,0,0,0,294.52,425.79Z" transform="translate(-288.69 -412.01)"/></svg>