<svg id="Слой_1" data-name="Слой 1" xmlns="http://www.w3.org/2000/svg" viewBox="0 0 7.88 14"><defs><style>.cls-1{fill:#079ba9;}</style></defs><path class="cls-1" d="M297.93,417.4a3.94,3.94,0,1,1-3.94-3.94A3.94,3.94,0,0,1,297.93,417.4Zm-3.61-2.19a.33.33,0,0,0-.33-.33,2.52,2.52,0,0,0-2.51,2.52.33.33,0,0,0,.33.33.32.32,0,0,0,.32-.33,1.86,1.86,0,0,1,1.86-1.86A.33.33,0,0,0,294.32,415.21Zm-.33,7a5.14,5.14,0,0,0,.88-.08v4.28l-.6.9a.33.33,0,0,1-.55,0l-.6-.9v-4.28A4.94,4.94,0,0,0,294,422.21Z" transform="translate(-290.06 -413.46)"/></svg>