<svg id="Слой_1" data-name="Слой 1" xmlns="http://www.w3.org/2000/svg" viewBox="0 0 14.99 14.99"><defs><style>.cls-1{fill:#d6d6d6;}</style></defs><circle class="cls-1" cx="7.5" cy="3.79" r="1.02"/><path class="cls-1" d="M298.55,413h-9.11a2.94,2.94,0,0,0-2.94,2.94V425a2.94,2.94,0,0,0,2.94,2.94h9.11a2.94,2.94,0,0,0,2.94-2.94v-9.11A2.94,2.94,0,0,0,298.55,413ZM300.13,425a1.58,1.58,0,0,1-1.58,1.58h-9.11a1.58,1.58,0,0,1-1.58-1.58v-9.11a1.58,1.58,0,0,1,1.58-1.58h9.11a1.58,1.58,0,0,1,1.58,1.58Z" transform="translate(-286.5 -412.99)"/><path class="cls-1" d="M295.4,423.89h-.72v-5.45h-2a.68.68,0,0,0,0,1.36h.64v4.09h-.64a.69.69,0,0,0,0,1.37h2.73a.69.69,0,0,0,0-1.37Z" transform="translate(-286.5 -412.99)"/></svg>