<svg id="Слой_1" data-name="Слой 1" xmlns="http://www.w3.org/2000/svg" viewBox="0 0 13.98 13.98"><defs><style>.cls-1{fill:#808181;}</style></defs><path class="cls-1" d="M294,413.5a7,7,0,1,0,7,7A7,7,0,0,0,294,413.5Zm0,13.22a6.24,6.24,0,1,1,6.24-6.23A6.24,6.24,0,0,1,294,426.72Z" transform="translate(-287.01 -413.5)"/><path class="cls-1" d="M294,419.92a.56.56,0,0,0-.56.57v3a.57.57,0,1,0,1.13,0v-3A.56.56,0,0,0,294,419.92Z" transform="translate(-287.01 -413.5)"/><path class="cls-1" d="M293.59,417.87a.58.58,0,0,0,.62.13.46.46,0,0,0,.18-.13.59.59,0,0,0,.13-.18.71.71,0,0,0,0-.21.54.54,0,0,0-.17-.4.57.57,0,0,0-.61-.12.76.76,0,0,0-.19.12.58.58,0,0,0-.16.4.49.49,0,0,0,0,.21A.57.57,0,0,0,293.59,417.87Z" transform="translate(-287.01 -413.5)"/></svg>