<svg id="Слой_1" data-name="Слой 1" xmlns="http://www.w3.org/2000/svg" viewBox="0 0 18.03 18.03"><defs><style>.cls-1{fill:#fff;}</style></defs><path class="cls-1" d="M303,416.77a6.39,6.39,0,0,0-.42-2.19A4.64,4.64,0,0,0,299.9,412a6.39,6.39,0,0,0-2.19-.42c-1,0-1.27-.06-3.72-.06s-2.75,0-3.71.06a6.34,6.34,0,0,0-2.19.42,4.33,4.33,0,0,0-1.6,1,4.42,4.42,0,0,0-1,1.59,6.66,6.66,0,0,0-.41,2.19c-.05,1-.06,1.27-.06,3.72s0,2.75.06,3.71a6.61,6.61,0,0,0,.41,2.19,4.54,4.54,0,0,0,1,1.6,4.46,4.46,0,0,0,1.6,1,6.61,6.61,0,0,0,2.19.41c1,.05,1.27.06,3.71.06s2.76,0,3.72-.06a6.66,6.66,0,0,0,2.19-.41,4.62,4.62,0,0,0,2.63-2.64,6.34,6.34,0,0,0,.42-2.19c.05-1,.06-1.27.06-3.71S303,417.73,303,416.77Zm-1.62,7.36a5.06,5.06,0,0,1-.31,1.67,2.92,2.92,0,0,1-1.71,1.71,4.86,4.86,0,0,1-1.67.31c-.95.05-1.24.05-3.65.05s-2.69,0-3.64-.05a4.8,4.8,0,0,1-1.67-.31A2.92,2.92,0,0,1,287,425.8a4.8,4.8,0,0,1-.31-1.67c-.05-.95-.05-1.24-.05-3.64s0-2.7.05-3.65a4.86,4.86,0,0,1,.31-1.67,2.92,2.92,0,0,1,1.71-1.71,5.06,5.06,0,0,1,1.67-.31c.95,0,1.24,0,3.64,0s2.7,0,3.65,0a5.12,5.12,0,0,1,1.67.31,2.92,2.92,0,0,1,1.71,1.71,5.12,5.12,0,0,1,.31,1.67c0,1,.05,1.24.05,3.65S301.37,423.18,301.33,424.13Z" transform="translate(-284.98 -411.47)"/><path class="cls-1" d="M294,415.86a4.63,4.63,0,1,0,4.63,4.63A4.62,4.62,0,0,0,294,415.86Zm0,7.63a3,3,0,1,1,3-3A3,3,0,0,1,294,423.49Z" transform="translate(-284.98 -411.47)"/><path class="cls-1" d="M298.81,414.59a1.09,1.09,0,1,0,1.08,1.08A1.09,1.09,0,0,0,298.81,414.59Z" transform="translate(-284.98 -411.47)"/></svg>