<svg id="Слой_1" data-name="Слой 1" xmlns="http://www.w3.org/2000/svg" viewBox="0 0 59.89 76.23"><defs><style>.cls-1{fill:#fff;}</style></defs><g id="Lock"><path class="cls-1" d="M315.77,409.6h-2.72v-8.17a19.06,19.06,0,1,0-38.11,0v8.17h-2.73a8.16,8.16,0,0,0-8.16,8.16v32.67a8.18,8.18,0,0,0,8.16,8.17h43.56a8.18,8.18,0,0,0,8.17-8.17V417.76A8.16,8.16,0,0,0,315.77,409.6Zm-35.39-8.17a13.62,13.62,0,0,1,27.23,0v8.17H280.38Zm38.12,49a2.72,2.72,0,0,1-2.73,2.72H272.21a2.72,2.72,0,0,1-2.72-2.72V417.76a2.72,2.72,0,0,1,2.72-2.72h43.56a2.73,2.73,0,0,1,2.73,2.72Z" transform="translate(-264.05 -382.37)"/><path class="cls-1" d="M294,424.57a5.43,5.43,0,0,0-2.72,10.13v6.2a2.73,2.73,0,1,0,5.45,0v-6.2A5.43,5.43,0,0,0,294,424.57Z" transform="translate(-264.05 -382.37)"/></g></svg>