<svg id="Слой_1" data-name="Слой 1" xmlns="http://www.w3.org/2000/svg" viewBox="0 0 16.96 14.04"><defs><style>.cls-1{fill:#26a7b6;}</style></defs><path class="cls-1" d="M290.61,415.79h14.93a1,1,0,0,0,0-2H290.61a1,1,0,1,0,0,2Z" transform="translate(-289.59 -413.76)"/><path class="cls-1" d="M305.54,419.76H290.61a1,1,0,1,0,0,2h14.93a1,1,0,0,0,0-2Z" transform="translate(-289.59 -413.76)"/><path class="cls-1" d="M305.54,425.76H290.61a1,1,0,1,0,0,2h14.93a1,1,0,0,0,0-2Z" transform="translate(-289.59 -413.76)"/></svg>