<svg id="Слой_1" data-name="Слой 1" xmlns="http://www.w3.org/2000/svg" viewBox="0 0 44.41 44.69"><defs><style>.cls-1{fill:#089faf;}.cls-2{fill:#fff;}</style></defs><ellipse class="cls-1" cx="293.99" cy="420.49" rx="24.03" ry="20.37" transform="translate(-484.63 -57.39) rotate(-46.1)"/><path class="cls-2" d="M285.68,425.36,284.52,422l-.63-2.09h-.05l-1,5.48h-2l1.89-9.75h1.76l1,3.1a2.14,2.14,0,0,0,.14.49c.08.26.17.54.27.83s.19.57.26.83a2.48,2.48,0,0,1,.12.52h.06l1.06-5.77h2l-1.89,9.75Z" transform="translate(-271.79 -398.14)"/><path class="cls-2" d="M289.07,425.36l1.89-9.75h5.61l-.36,1.88h-3.6l-.41,2h3.11l-.36,1.86h-3.11l-.39,2.11H295l-.36,1.88Z" transform="translate(-271.79 -398.14)"/><path class="cls-2" d="M301.15,420.23l-.91,2.12-1.36,3h-1.79c0-1.63-.06-3.25-.08-4.87s0-3.24-.06-4.88h2.18l0,2.85q0,.6,0,1.26c0,.43,0,.86-.07,1.28h.06l1.09-2.66,1.15-2.73h1.57l.11,3c0,.38,0,.78,0,1.22s0,.87,0,1.3h.07c.16-.45.31-.91.47-1.37s.31-.91.47-1.37c0-.1.1-.29.19-.55s.2-.55.3-.84.2-.58.29-.84.16-.45.2-.56h2.18l-2,4.88c-.64,1.62-1.3,3.24-2,4.87h-1.79c0-.51,0-1-.08-1.52s-.06-1-.08-1.52l-.08-2.09Z" transform="translate(-271.79 -398.14)"/></svg>