<svg id="Слой_1" data-name="Слой 1" xmlns="http://www.w3.org/2000/svg" viewBox="0 0 48.17 33.25"><defs><style>.cls-1{fill:#fff;}</style></defs><path class="cls-1" d="M318,404.25c-.2-.36-.55-.39-.92-.39H270.94a.93.93,0,0,0-.92.38c-.22.37,0,.67.16,1,1.36,2.15,2.73,4.29,4.07,6.46a2.3,2.3,0,0,1,.32,1.11c0,7.73,0,15.45,0,23.18,0,1,.15,1.14,1.13,1.14h36.63c.92,0,1.1-.18,1.1-1.08,0-7.79,0-15.58,0-23.37a1.76,1.76,0,0,1,.25-.89c1.36-2.19,2.75-4.36,4.13-6.54A.91.91,0,0,0,318,404.25ZM312,435.64H276.07V412.7H312Zm3.8-29.85-3.13,4.95a.61.61,0,0,1-.62.33H276a.7.7,0,0,1-.52-.22c-1.13-1.75-2.24-3.51-3.36-5.27a1.11,1.11,0,0,1-.07-.2H316Z" transform="translate(-269.92 -403.86)"/><path class="cls-1" d="M279.2,430.83a.72.72,0,0,0,.82-.68c.07-.41.09-.83.14-1.24a2.13,2.13,0,0,1,1.39-1.86,3.63,3.63,0,0,0,2.4-2.24.5.5,0,0,1,.37-.2.41.41,0,0,1,.31.19A3.63,3.63,0,0,0,287,427a2,2,0,0,1,1.36,1.67c.09.47.12,1,.18,1.42a.73.73,0,0,0,.76.71.7.7,0,0,0,.67-.78,10.85,10.85,0,0,0-.18-1.62,3.54,3.54,0,0,0-2.32-2.78,2.17,2.17,0,0,1-1.44-1.23.42.42,0,0,1,.12-.57,3.74,3.74,0,0,0,1.31-2.61c0-2.15-1.11-3.53-2.66-3.76a3.08,3.08,0,0,0-3.52,2.22,3.91,3.91,0,0,0,1.05,4.06.56.56,0,0,1,.14.74,2,2,0,0,1-1.27,1.09,3.61,3.61,0,0,0-2.42,2.64,11.45,11.45,0,0,0-.23,1.76A.73.73,0,0,0,279.2,430.83Zm3.5-10.72a1.62,1.62,0,0,1,1.61-1.2,1.72,1.72,0,0,1,1.72,1.72,2.55,2.55,0,0,1-.72,2.06,1.28,1.28,0,0,1-2,0A2.52,2.52,0,0,1,282.7,420.11Z" transform="translate(-269.92 -403.86)"/><path class="cls-1" d="M293.76,420.74h14.47a2.57,2.57,0,0,0,.48,0,.69.69,0,0,0,.48-1.09,1.19,1.19,0,0,0-.79-.32c-2.42,0-4.84,0-7.26,0h-5c-.8,0-1.6,0-2.4,0a.72.72,0,0,0-.74.72A.74.74,0,0,0,293.76,420.74Z" transform="translate(-269.92 -403.86)"/><path class="cls-1" d="M293.84,424.68H303a.72.72,0,0,0,.79-.71.7.7,0,0,0-.73-.72c-3.11,0-6.22,0-9.32,0a.91.91,0,0,0-.65.39C292.79,424.13,293.19,424.68,293.84,424.68Z" transform="translate(-269.92 -403.86)"/><path class="cls-1" d="M308.1,429.05h-3.74a.71.71,0,0,0-.8.74c0,.43.29.69.79.7h3.74c.54,0,.83-.27.83-.71S308.62,429.05,308.1,429.05Z" transform="translate(-269.92 -403.86)"/><path class="cls-1" d="M297.63,429.05H293.8a.72.72,0,1,0,0,1.44h1.91c.64,0,1.28,0,1.92,0a.7.7,0,0,0,.76-.69A.72.72,0,0,0,297.63,429.05Z" transform="translate(-269.92 -403.86)"/></svg>