<svg id="Слой_1" data-name="Слой 1" xmlns="http://www.w3.org/2000/svg" viewBox="0 0 41.11 35.97"><defs><style>.cls-1{fill:#1398a7;}</style></defs><path class="cls-1" d="M314.55,425.7l0,0c-.67,1.89-1.48,2.46-3.48,2.46h-15.1c-.45,0-.84-.08-1-.54a1,1,0,0,1,.35-1.1c1.05-1,2.07-2.05,3.1-3.09a.88.88,0,0,1,1-.27.84.84,0,0,1,.3,1.4c-.5.53-1,1-1.53,1.54l-.31.34.47,0h13.05c1,0,1.51-.49,1.51-1.53V414.88c0-.13,0-.26,0-.43H295.65a.84.84,0,0,1-.79-.81.8.8,0,0,1,.75-.87c.64,0,1.29,0,1.93,0,4.94,0,9.88,0,14.81,0,.38,0,.52-.09.5-.49,0-.83,0-1.66,0-2.49v-.45H280.3v3.45h.5c3.75,0,7.49,0,11.24,0,.45,0,.84.08,1,.53a1,1,0,0,1-.35,1.11q-1.56,1.53-3.1,3.09a.89.89,0,0,1-1,.27.83.83,0,0,1-.29-1.4c.49-.53,1-1,1.52-1.54l.31-.34-.42,0c-3,0-6,0-9,0-.4,0-.49.12-.49.5,0,3.46,0,6.93,0,10.39,0,.82.3,1.13,1.11,1.13H287c.59,0,.94.29,1,.79a.81.81,0,0,1-.81.9c-2.09,0-4.18,0-6.26,0a2.49,2.49,0,0,1-2.33-2.56V414.53c-.85,0-1.66,0-2.47,0a1.06,1.06,0,0,0-.92.93,3.12,3.12,0,0,0-.05.68v19.07a1.34,1.34,0,0,0,1.52,1.54h29.51a1.34,1.34,0,0,0,1.53-1.52c0-1.74,0-3.48,0-5.22,0-.59.3-.94.79-1a.82.82,0,0,1,.9.78c0,2,.05,4,0,6a2.91,2.91,0,0,1-3,2.67H276.48a3,3,0,0,1-3-2.49,3.43,3.43,0,0,1,0-.56V415.86a3,3,0,0,1,3.06-3.08h2.08v-7.17a3,3,0,0,1,3.11-3.11h29.62a3,3,0,0,1,3.17,2.39s0,.06.07.09Zm-18-18.09h15.86c.33,0,.45-.09.43-.43,0-.55,0-1.1,0-1.64a1.2,1.2,0,0,0-.69-1.18,2.45,2.45,0,0,0-.94-.16H281.79a1.33,1.33,0,0,0-1.51,1.51v1.36c0,.54,0,.54.54.54Z" transform="translate(-273.44 -402.5)"/><path class="cls-1" d="M290.55,427.32a.83.83,0,0,1-.82.86.84.84,0,0,1-.87-.85.85.85,0,0,1,1.69,0Z" transform="translate(-273.44 -402.5)"/></svg>