<svg id="Слой_1" data-name="Слой 1" xmlns="http://www.w3.org/2000/svg" viewBox="0 0 45.02 39.58"><defs><style>.cls-1{fill:#1398a7;}</style></defs><path class="cls-1" d="M316.5,410.91c-.13.46-.27.92-.39,1.38q-1.29,5-2.59,9.92a.73.73,0,0,1-.86.59.71.71,0,0,1-.51-.94q1.37-5.26,2.74-10.53s0-.08,0-.14l-5.78-1.51c-.21.83-.43,1.64-.64,2.45-.16.63-.32,1.26-.49,1.88a.73.73,0,0,1-.89.58.72.72,0,0,1-.48-.94c.37-1.4.73-2.8,1.1-4.2a1.05,1.05,0,0,1,0-.13l-15.44-4-5,19,1.28.35,5.91,1.54.21.06a.7.7,0,0,1,.47.85.69.69,0,0,1-.87.5l-6.46-1.69L275,422.56a.78.78,0,0,1-.67-.63,1.06,1.06,0,0,1,0-.39q2.64-10.11,5.29-20.22a.73.73,0,0,1,1-.58l14.1,3.7,16.65,4.35L315.8,410a1,1,0,0,1,.7.52Zm-40.65,10.41L286,424l5-19.05-10.12-2.65Z" transform="translate(-271.49 -400.7)"/><path class="cls-1" d="M311.14,427.75c0,2.9,0,5.81,0,8.72a2.53,2.53,0,0,1-1,2.08,6.68,6.68,0,0,1-2.62,1.28,14.32,14.32,0,0,1-4.92.4,10.77,10.77,0,0,1-3.83-.93,4.39,4.39,0,0,1-1.65-1.25,2.2,2.2,0,0,1-.48-1.4c0-5.89,0-11.78,0-17.67a2.6,2.6,0,0,1,1.07-2.17,6.92,6.92,0,0,1,2.81-1.28,14.62,14.62,0,0,1,4.71-.32,10.68,10.68,0,0,1,3.76.94,4.3,4.3,0,0,1,1.66,1.27,2.15,2.15,0,0,1,.46,1.38v8.95Zm-7.24-6.86a12.09,12.09,0,0,0,3.63-.53,4.78,4.78,0,0,0,1.8-.94c.54-.48.53-.91,0-1.4a4.19,4.19,0,0,0-1.36-.78,10.16,10.16,0,0,0-3-.63,12.26,12.26,0,0,0-4.85.54,4.59,4.59,0,0,0-1.63.87c-.53.49-.55,1,0,1.4a5.43,5.43,0,0,0,1.3.75A11,11,0,0,0,303.9,420.89Zm-5.81,14.4c0,.44,0,.83,0,1.23a1.05,1.05,0,0,0,.37.85,3.82,3.82,0,0,0,1.33.79,10.3,10.3,0,0,0,3.24.68,12.06,12.06,0,0,0,4.7-.55,4.19,4.19,0,0,0,1.7-1,1,1,0,0,0,.29-.52c0-.49,0-1,0-1.5a13,13,0,0,1-11.64,0Zm0-10.81c0,.44,0,.85,0,1.26a1,1,0,0,0,.32.76,3.84,3.84,0,0,0,1.39.85,10.86,10.86,0,0,0,3.34.68,12.27,12.27,0,0,0,4.54-.55,4.62,4.62,0,0,0,1.53-.78,1.07,1.07,0,0,0,.52-.73c0-.49,0-1,0-1.48a13.09,13.09,0,0,1-11.64,0Zm0,3.61c0,.43,0,.82,0,1.21a1.06,1.06,0,0,0,.37.86,4.2,4.2,0,0,0,1.35.8,10.58,10.58,0,0,0,3.24.67,12.17,12.17,0,0,0,4.53-.51,4.27,4.27,0,0,0,1.8-1,1.07,1.07,0,0,0,.34-.56,14.93,14.93,0,0,0,0-1.5,13,13,0,0,1-11.64,0Zm0,3.61c0,.4,0,.77,0,1.14a1.18,1.18,0,0,0,.52,1.05,5,5,0,0,0,1.55.8,11.31,11.31,0,0,0,3.05.55,12.33,12.33,0,0,0,4.48-.55,4.84,4.84,0,0,0,1.53-.79,1.07,1.07,0,0,0,.51-.74c0-.48,0-1,0-1.46a13,13,0,0,1-11.64,0Zm11.64-10.77a13.09,13.09,0,0,1-11.64,0c0,.38,0,.74,0,1.09a1.18,1.18,0,0,0,.52,1.07,5.13,5.13,0,0,0,1.56.8,11.09,11.09,0,0,0,3,.54,12,12,0,0,0,4.5-.55,4.38,4.38,0,0,0,1.69-.93,1,1,0,0,0,.35-.64C309.74,421.85,309.73,421.41,309.73,420.93Z" transform="translate(-271.49 -400.7)"/><path class="cls-1" d="M272.91,409.8v20.6h21.64a.72.72,0,0,1-.05,1.43H272.35a1.22,1.22,0,0,1-.59-.17.55.55,0,0,1-.27-.52v-.4q0-10.75,0-21.51a.77.77,0,0,1,.85-.85h3.05a.74.74,0,0,1,.8.63.71.71,0,0,1-.75.8h-2.53Z" transform="translate(-271.49 -400.7)"/><path class="cls-1" d="M278.45,429.06h-3.32a.71.71,0,0,1-.68-.52.7.7,0,0,1,.31-.78.82.82,0,0,1,.37-.1q3.31,0,6.63,0a.69.69,0,0,1,.7.69.71.71,0,0,1-.72.71Z" transform="translate(-271.49 -400.7)"/><path class="cls-1" d="M284.43,422.29l-.62-.15-5.49-1.43c-.54-.14-.8-.54-.63-1a.68.68,0,0,1,.83-.43l6.14,1.6a.69.69,0,0,1,.55.82A.71.71,0,0,1,284.43,422.29Z" transform="translate(-271.49 -400.7)"/><path class="cls-1" d="M289.25,406.2a.68.68,0,0,1-.84.68c-1-.24-1.89-.48-2.84-.74a.68.68,0,0,1-.51-.84.69.69,0,0,1,.87-.52c.93.23,1.85.48,2.77.73A.68.68,0,0,1,289.25,406.2Z" transform="translate(-271.49 -400.7)"/></svg>