<svg id="Слой_1" data-name="Слой 1" xmlns="http://www.w3.org/2000/svg" viewBox="0 0 31.77 42.77"><defs><style>.cls-1{fill:#1398a7;}</style></defs><path class="cls-1" d="M309.87,406.62a1,1,0,0,0-.26-.61q-3.25-3.28-6.55-6.56c-.1-.11-.19-.23-.29-.35H278.11v42.41c0,.12,0,.24,0,.36h31.75v-.36Q309.88,424.07,309.87,406.62Zm-6.67-4.69L307,405.8H303.2Zm5.14,38.43h-28.7V400.64h22v6.7h6.73Z" transform="translate(-278.11 -399.1)"/><path class="cls-1" d="M283.32,433.79h21.34V411.57H283.32Zm14.08-1.52H284.87v-2.56H297.4Zm0-4.19H284.87v-2.54h12.54Zm-12.55-4.14v-2.53h12.55v2.53Zm12.55-4.13H284.86v-2.56h12.55Zm5.7,5.73v2.54H299v-2.54Zm-4.12-1.6v-2.53h4.12v2.53Zm4.13,8.33H299v-2.56h4.13Zm0-12.46H299v-2.56h4.15Zm-18.27-6.73h18.25v2.56H284.86Z" transform="translate(-278.11 -399.1)"/><path class="cls-1" d="M283.34,410.15h15.54v-1.49H283.34Z" transform="translate(-278.11 -399.1)"/><path class="cls-1" d="M290.55,406.27c0-.34-.08-.46-.44-.46-2.13,0-4.26,0-6.39,0-.13,0-.27,0-.38,0v1.5h7.2C290.54,407,290.52,406.61,290.55,406.27Z" transform="translate(-278.11 -399.1)"/><path class="cls-1" d="M304.19,435.16h-6.35c-.16,0-.39-.07-.39.23v1.29h7.21v-1.52Z" transform="translate(-278.11 -399.1)"/></svg>