<svg id="Слой_1" data-name="Слой 1" xmlns="http://www.w3.org/2000/svg" viewBox="0 0 11.22 17.96"><defs><style>.cls-1{fill:#fff;}</style></defs><path class="cls-1" d="M297.92,411.51h-7.85a1.69,1.69,0,0,0-1.69,1.68v14.59a1.69,1.69,0,0,0,1.69,1.68h7.85a1.69,1.69,0,0,0,1.69-1.68V413.19A1.69,1.69,0,0,0,297.92,411.51Zm-5.61,1.12h3.37v.56a.56.56,0,0,1-.56.56h-2.25a.56.56,0,0,1-.56-.56Zm6.17,15.15a.56.56,0,0,1-.56.56h-7.85a.57.57,0,0,1-.57-.56V413.19a.57.57,0,0,1,.57-.56h1.12v.56a1.68,1.68,0,0,0,1.68,1.68h2.25a1.68,1.68,0,0,0,1.68-1.68v-.56h1.12a.56.56,0,0,1,.56.56Z" transform="translate(-288.38 -411.51)"/><path class="cls-1" d="M294.56,426.1h-1.13a.56.56,0,0,0,0,1.12h1.13a.56.56,0,0,0,0-1.12Z" transform="translate(-288.38 -411.51)"/></svg>