<svg id="Слой_1" data-name="Слой 1" xmlns="http://www.w3.org/2000/svg" viewBox="0 0 20 12"><defs><style>.cls-1{fill:#078490;}</style></defs><path class="cls-1" d="M308.07,424.53a2.25,2.25,0,0,1-2.25,2.25h-15.5a2.25,2.25,0,0,1-2.25-2.25V417a2.25,2.25,0,0,1,2.25-2.25h15.5a2.24,2.24,0,0,1,2.25,2.25Zm-1.5,0V417a.74.74,0,0,0-.75-.75h-15.5a.75.75,0,0,0-.75.75v7.5a.76.76,0,0,0,.75.75h15.5A.75.75,0,0,0,306.57,424.53Zm-10-1a.75.75,0,0,1-1,.08l-.08-.07-2.3-2.25a.75.75,0,0,1-.07-1l.07-.09,2.3-2.25a.75.75,0,0,1,1.06,0,.76.76,0,0,1,.06,1l-.07.08-1.75,1.72,1.75,1.71A.75.75,0,0,1,296.61,423.55Zm6.24-2.24-2.3,2.25a.75.75,0,0,1-1.06,0,.75.75,0,0,1,0-1.06l1.75-1.71-1.75-1.72a.75.75,0,0,1,0-1.06.75.75,0,0,1,1.06,0l2.3,2.25A.75.75,0,0,1,302.85,421.31Z" transform="translate(-288.07 -414.78)"/></svg>