<svg id="Слой_1" data-name="Слой 1" xmlns="http://www.w3.org/2000/svg" viewBox="0 0 181.46 170.41"><defs><style>.cls-1{fill:#019aa8;}</style></defs><path class="cls-1" d="M224.8,416.33a1.5,1.5,0,1,0-2.17,2.07l4.55,4.77a1.51,1.51,0,0,0,2.12.05,1.5,1.5,0,0,0,0-2.12Z" transform="translate(-203.26 -335.28)"/><path class="cls-1" d="M241.51,432.37a1.5,1.5,0,0,0-2.11,2.14l22.73,22.39a1.48,1.48,0,0,0,1.05.43,1.53,1.53,0,0,0,1.07-.44,1.51,1.51,0,0,0,0-2.13Z" transform="translate(-203.26 -335.28)"/><path class="cls-1" d="M267.81,458.12a1.5,1.5,0,0,0-2.17,2.08l5.1,5.32a1.53,1.53,0,0,0,1.08.46,1.48,1.48,0,0,0,1-.42,1.5,1.5,0,0,0,.05-2.12Z" transform="translate(-203.26 -335.28)"/><path class="cls-1" d="M327.29,423.37l9.2,6.32a1.46,1.46,0,0,0,.84.26,1.5,1.5,0,0,0,.85-2.73L329,420.9a1.5,1.5,0,0,0-1.69,2.47Z" transform="translate(-203.26 -335.28)"/><path class="cls-1" d="M226,436.7a1.5,1.5,0,0,0-2.11,2.13l7.54,7.43a1.5,1.5,0,0,0,2.12,0,1.5,1.5,0,0,0,0-2.12Z" transform="translate(-203.26 -335.28)"/><path class="cls-1" d="M240.54,451.24a1.5,1.5,0,1,0-2.16,2.09l30.92,32.14a1.5,1.5,0,1,0,2.16-2.08Z" transform="translate(-203.26 -335.28)"/><path class="cls-1" d="M338.63,476.91l-28.27,9.54a1.5,1.5,0,0,0,.48,2.92,1.61,1.61,0,0,0,.48-.08l28.27-9.53a1.5,1.5,0,0,0-1-2.85Z" transform="translate(-203.26 -335.28)"/><path class="cls-1" d="M359.46,469.71l-14,4.77a1.49,1.49,0,0,0-.94,1.9,1.51,1.51,0,0,0,1.42,1,1.67,1.67,0,0,0,.49-.08l14-4.77a1.5,1.5,0,1,0-1-2.84Z" transform="translate(-203.26 -335.28)"/><path class="cls-1" d="M384.69,390.21a2,2,0,0,0,0-.34c0-.24-.13-24.71-1.23-38.68-1.2-15.25-20.11-15.9-20.3-15.91H363c-.73.08-72.85,8.13-91,10.87-19.4,2.94-18.63,23.3-18.62,23.51,0,0,0,.07,0,.11s1.34,11,2.87,22l-48.8,10.5a5,5,0,0,0-4.24,5.29h0v15.47a5.84,5.84,0,0,0,1.54,3.64c1.17,1.35,69,72,71.87,75l.13.12a18.87,18.87,0,0,0,11.35,3.81,19.26,19.26,0,0,0,6.21-1.05c9-3.06,75.13-27.35,78.86-28.72.94-.14,4-.92,5.23-5,1.18-3.87,2.81-13.58,2.88-14s.73-5.26-2.09-7.07c-1.53-1-29.17-20.84-45.68-32.73,14.46-2.72,29.48-5.53,34.74-6.46C380.45,408.5,384.52,391,384.69,390.21ZM207.92,405.28l48.79-10.49c.3,2.09.6,4.17.89,6.15l-46.23,11.24-5.06-5.13A1.94,1.94,0,0,1,207.92,405.28Zm170.45,51.14c0,.1-1.66,9.92-2.79,13.61-.81,2.66-2.62,2.91-2.8,2.93h-.23l-.21.08c-.69.25-69.75,25.63-78.94,28.75a15.94,15.94,0,0,1-14.63-2.18c-24.39-25.43-70.67-73.7-71.72-74.87a3.12,3.12,0,0,1-.79-1.67V411.27L277,482.94a1.39,1.39,0,0,0,.27.21c.35.22,7.27,4.54,14.35,4.54a14.34,14.34,0,0,0,4.67-.73c7.67-2.63,77.77-26.36,78.48-26.6a1.52,1.52,0,0,0,.94-1.91,1.5,1.5,0,0,0-1.9-.93c-.71.23-70.82,24-78.49,26.6-6.51,2.23-15.12-2.71-16.31-3.42l-7.38-7.49L365.86,444c6.33,4.53,11.11,7.94,11.76,8.36C378.43,452.87,378.57,455.06,378.37,456.42ZM362.8,441.81l-93.59,29-55.38-56.14,44.23-10.75c.42,2.75.83,5.22,1.21,7.19,2,10.55,13.53,13.86,17.87,15.11l.6.17c.16,1,.41,2.83.63,4.39.31,2.32.64,4.72.9,6.15a4.31,4.31,0,0,0,1.84,3,4.23,4.23,0,0,0,2.28.63,4.47,4.47,0,0,0,1-.1,1.48,1.48,0,0,0,.71-.4l16.86-17,27.55-5.21C332.25,419.86,349.68,432.41,362.8,441.81Zm-61.88-21.59a1.51,1.51,0,0,0-.79.41l-16.8,16.91a1.11,1.11,0,0,1-.6-.16,1.48,1.48,0,0,1-.51-1c-.25-1.35-.58-3.82-.88-6-.61-4.45-.74-5.25-.95-5.71-.33-.74-.9-.9-2.42-1.34-3.86-1.1-14.11-4-15.76-12.78-2.13-11.31-5.6-39.53-5.79-41.07a25.08,25.08,0,0,1,1.75-9.36c2.52-6.23,7.34-9.93,14.32-11,17.73-2.69,87.54-10.49,90.73-10.84,1.48,0,16.33.95,17.29,13.13,1,13.23,1.2,36,1.21,38.28-.41,1.68-4.3,16.29-13.94,18C356.59,409.66,301.47,420.11,300.92,420.22Z" transform="translate(-203.26 -335.28)"/><path class="cls-1" d="M313,371.71l-39.32,5.82a1.5,1.5,0,0,0,.22,3l.22,0,39.32-5.82a1.5,1.5,0,0,0-.44-3Z" transform="translate(-203.26 -335.28)"/><path class="cls-1" d="M313,379.71l-39.32,5.82a1.5,1.5,0,0,0,.22,3l.22,0,39.32-5.82a1.5,1.5,0,0,0-.44-3Z" transform="translate(-203.26 -335.28)"/><path class="cls-1" d="M313,387.71l-39.32,5.82a1.5,1.5,0,0,0,.22,3l.22,0,39.32-5.82a1.5,1.5,0,0,0-.44-3Z" transform="translate(-203.26 -335.28)"/><path class="cls-1" d="M335.15,371.67a1.5,1.5,0,1,0-1.81,2.39l10.93,8.33a1.49,1.49,0,0,0,.91.31l.22,0a1.48,1.48,0,0,0,1-.62l20.54-29a1.51,1.51,0,0,0-.36-2.09,1.49,1.49,0,0,0-2.09.36l-19.64,27.76Z" transform="translate(-203.26 -335.28)"/><path class="cls-1" d="M364.09,364.39l-.21.11-.19.13c-.11.1-.22.19-.32.3s-.2.27-.32.37l0,0c.09-.12.22-.19,0,0h0l-.14.19a9,9,0,0,0-.53,1l-.09.21A19.48,19.48,0,1,1,354.8,359a16,16,0,0,0,1.55-2.27c0-.09,0-.18.07-.26a22.46,22.46,0,1,0,8,7.8Z" transform="translate(-203.26 -335.28)"/><path class="cls-1" d="M326.89,458.28c-4.71,0-8.4,2.72-8.4,6.2s3.69,6.19,8.4,6.19,8.39-2.72,8.39-6.19S331.59,458.28,326.89,458.28Zm0,9.39c-2.88,0-5.4-1.49-5.4-3.19s2.52-3.2,5.4-3.2,5.39,1.5,5.39,3.2S329.76,467.67,326.89,467.67Z" transform="translate(-203.26 -335.28)"/></svg>