<svg id="Слой_1" data-name="Слой 1" xmlns="http://www.w3.org/2000/svg" viewBox="0 0 36.82 36.82"><defs><style>.cls-1{fill:#1398a7;}</style></defs><path class="cls-1" d="M311,428a.74.74,0,0,1-.09-.77,18.38,18.38,0,0,0-13.37-25c-.46-.09-.94-.15-1.4-.21l-.71-.09-.22,0h-2.7l-.58.08c-.41.06-.84.12-1.26.2a18.1,18.1,0,0,0-10.73,6.09,18.3,18.3,0,0,0-4.31,9.46c0,.28-.07.56-.11.83s0,.24,0,.37v2.73l.07.44c0,.32.09.65.14,1a18.37,18.37,0,0,0,25.09,14.28.76.76,0,0,1,.8.07,6.75,6.75,0,0,0,10.6-4.28A6.47,6.47,0,0,0,311,428Zm-14.18-3.66c-.07-.27-.15-.55-.2-.82-.41-1.94-.86-3.9-1.3-5.8-.16-.72-.33-1.44-.49-2.16a.94.94,0,0,0-.95-.86h0a1,1,0,0,0-.95.85l-.4,1.78c-.62,2.78-1.26,5.65-1.87,8.48a3.7,3.7,0,0,0,0,.95c0,.17,0,.34,0,.52v.22H286.9a.92.92,0,0,0-.95.94.93.93,0,0,0,1,.95h12.3l-.09.28a6.82,6.82,0,0,0,.58,5.76l.12.21-.23.1a15.32,15.32,0,0,1-5.66,1.06,16.52,16.52,0,0,1-16.49-17.64,16.48,16.48,0,0,1,26.44-12,16.34,16.34,0,0,1,6,9.21,15.91,15.91,0,0,1-.57,9.5l-.08.19-.19-.06-.72-.26a9.72,9.72,0,0,0-1.51-.47,6.5,6.5,0,0,0-6.15,1.88.92.92,0,0,1-.73.3h-3.1l.1-.29A4.78,4.78,0,0,0,296.82,424.34Zm-2.15,2.88a1.3,1.3,0,0,1-.78.27,1.43,1.43,0,0,1-.76-.23,1.24,1.24,0,0,1-.58-1.32c.26-1.17.51-2.34.77-3.52l.32-1.49h.45l.26,1.15.54,2.4c0,.21.08.42.13.63s.11.55.17.82A1.19,1.19,0,0,1,294.67,427.22ZM309,435.39a4.84,4.84,0,0,1-3.43,1.42h0a4.88,4.88,0,0,1,0-9.75h0a4.88,4.88,0,0,1,4.88,4.88A4.83,4.83,0,0,1,309,435.39Z" transform="translate(-275.47 -401.9)"/><path class="cls-1" d="M305.63,419.11l0,.24h-1.28a.93.93,0,0,0-1,.94.92.92,0,0,0,1,.95h2.29a1,1,0,0,0,.76-.3.86.86,0,0,0,.21-.65l0-.32a18.37,18.37,0,0,0-.33-2.77,13.7,13.7,0,0,0-4.51-7.43,13.53,13.53,0,0,0-8-3.2c-.28,0-.55,0-.82,0a13.76,13.76,0,0,0-13.76,13.71,1,1,0,0,0,.26.71,1,1,0,0,0,.7.27h2.32a.95.95,0,0,0,0-1.89h-1.31l0-.24a11.82,11.82,0,0,1,10.59-10.58l.24,0v1.25a.94.94,0,0,0,.94,1h0a.94.94,0,0,0,.95-1V408.5l.24,0a11.84,11.84,0,0,1,7.31,3.54A11.55,11.55,0,0,1,305.63,419.11Z" transform="translate(-275.47 -401.9)"/><path class="cls-1" d="M289.22,411.21h0a1,1,0,0,0-1,1,.93.93,0,0,0,.29.67.94.94,0,0,0,.67.3h0a1,1,0,0,0,1-1,.93.93,0,0,0-.27-.68A.91.91,0,0,0,289.22,411.21Z" transform="translate(-275.47 -401.9)"/><path class="cls-1" d="M285.73,414.7h0a1,1,0,0,0-1,1,1,1,0,0,0,.3.68.94.94,0,0,0,.67.28,1,1,0,0,0,1-1,.92.92,0,0,0-.94-.94Z" transform="translate(-275.47 -401.9)"/><path class="cls-1" d="M302,414.7h0a.91.91,0,0,0-.66.28.88.88,0,0,0-.27.67.91.91,0,0,0,.28.67,1,1,0,0,0,.69.27.95.95,0,0,0,0-1.89Z" transform="translate(-275.47 -401.9)"/><path class="cls-1" d="M298.53,411.21h0a.94.94,0,1,0,0,1.88h0a.94.94,0,0,0,.67-.27,1,1,0,0,0,.27-.69A.92.92,0,0,0,298.53,411.21Z" transform="translate(-275.47 -401.9)"/><path class="cls-1" d="M305.5,428.66h0a.92.92,0,0,0-.92.95c0,.41,0,.79,0,1.15a.91.91,0,0,0,.95.95.92.92,0,0,0,.93-1c0-.12,0-.25,0-.37V430a2.94,2.94,0,0,0,0-.42A.92.92,0,0,0,305.5,428.66Z" transform="translate(-275.47 -401.9)"/><path class="cls-1" d="M305.51,433.32h0a.92.92,0,0,0-.94.91,1,1,0,0,0,.26.7,1,1,0,0,0,.66.28h0a1,1,0,0,0,.68-.27,1,1,0,0,0,.27-.66.9.9,0,0,0-.26-.68A.92.92,0,0,0,305.51,433.32Z" transform="translate(-275.47 -401.9)"/></svg>