<svg id="Слой_1" data-name="Слой 1" xmlns="http://www.w3.org/2000/svg" viewBox="0 0 51.9 39.99"><defs><style>.cls-1{fill:#1398a7;}</style></defs><path class="cls-1" d="M319.92,413.77a4.35,4.35,0,0,0-1.64-3.55,11.38,11.38,0,0,0-3.37-1.92,46.16,46.16,0,0,0-9.2-2.34,1.56,1.56,0,0,1-.7-.33c-.74-.57-1.42-1.2-2.17-1.75a15.74,15.74,0,0,0-9.14-3.41c-2.52-.07-5-.05-7.55,0a8.74,8.74,0,0,0-2.15.32,26.36,26.36,0,0,0-7.57,3.56,10.86,10.86,0,0,1-2.3,1.44,10.24,10.24,0,0,1-2.72.08,2.06,2.06,0,0,0-2.27,2.26c0,1.17,0,2.33,0,3.5a1.22,1.22,0,0,1-.07.54c-.33.68-.69,1.34-1,2v2.94a.91.91,0,0,1,.09.17,3.19,3.19,0,0,0,3.35,2.57c.88,0,1.76,0,2.64,0,.38,0,.54.11.65.5a5.33,5.33,0,0,0,2.45,3.15l1.05-1.8a3.35,3.35,0,0,1-.77-5.06,3.26,3.26,0,0,1,4.55-.3,3.16,3.16,0,0,1,1.12,2.15,3.4,3.4,0,0,1-1.58,3.2l1.05,1.8a5.4,5.4,0,1,0-7.87-6.18c-.11.34-.24.45-.59.44-.95,0-1.89,0-2.84,0a1,1,0,0,1-1.13-.94,4.36,4.36,0,0,1,.4-2.94,4.1,4.1,0,0,0,.66-2.69c-.05-.9,0-1.79,0-2.69V408c1,0,1.87,0,2.77,0a2.55,2.55,0,0,0,1.5-.46c2-1.21,3.92-2.45,6-3.54a10.5,10.5,0,0,1,5-1.4c2.09,0,4.19,0,6.28,0a13,13,0,0,1,7.44,2.13c1.29.85,2.45,1.89,3.69,2.83a2.22,2.22,0,0,0,.93.44,53.27,53.27,0,0,1,8.26,1.94,11.28,11.28,0,0,1,3.85,2,2.33,2.33,0,0,1,.86,1.91c0,1.13,0,2.26,0,3.4,0,.16,0,.32,0,.54-1.35,0-2.67,0-4,0a.5.5,0,0,1-.59-.44,5.36,5.36,0,0,0-10.3-.06c-.13.41-.31.5-.71.5-2.51,0-5,0-7.55,0H294v2.12h.7c2.46,0,4.93,0,7.4,0a.65.65,0,0,1,.77.55,5.37,5.37,0,0,0,10.29-.1c.11-.38.29-.45.64-.45h4.81c.89,0,1.26-.38,1.26-1.27C319.92,417,319.88,415.37,319.92,413.77ZM308,422.06a3.26,3.26,0,0,1-3.25-3.25,3.21,3.21,0,0,1,3.22-3.26,3.25,3.25,0,0,1,3.29,3.26A3.29,3.29,0,0,1,308,422.06Z" transform="translate(-268.03 -400.42)"/><path class="cls-1" d="M290.49,418.14a1.2,1.2,0,0,0-.68-.38c-1.11,0-2.22,0-3.35,0v2.11c.78,0,1.5,0,2.22,0a1.1,1.1,0,0,1,.89.37l9,9a3.6,3.6,0,0,1,.3.32l-8.2,8.21-.18-.16q-4.62-4.62-9.24-9.25a1.06,1.06,0,0,1-.24-.67c0-2.41,0-4.83,0-7.24,0-.18,0-.36,0-.55l1-.05v-2.09h-2a1.06,1.06,0,0,0-1.19,1.19c0,3.16,0,6.32,0,9.48a1.56,1.56,0,0,0,.4,1q5.26,5.31,10.56,10.58a1.09,1.09,0,0,0,1.76,0l9.5-9.5a1.08,1.08,0,0,0,0-1.72Q295.8,423.44,290.49,418.14Z" transform="translate(-268.03 -400.42)"/><path class="cls-1" d="M299,410.12a10.25,10.25,0,0,0,3-.91l-.79-2c-.54.21-1,.42-1.54.6a2.66,2.66,0,0,1-.83.16H280.74c-.81,0-1.69.2-2.13-.7l-1.54,1.54a5.57,5.57,0,0,1,.52.48,2.16,2.16,0,0,0,1.9.81Q289.24,410.09,299,410.12Z" transform="translate(-268.03 -400.42)"/></svg>