<svg id="Слой_1" data-name="Слой 1" xmlns="http://www.w3.org/2000/svg" viewBox="0 0 12.25 12.25"><defs><style>.cls-1{fill:#fff;}</style></defs><path class="cls-1" d="M300.12,420.43A6.12,6.12,0,0,1,294,426.5h0a6.06,6.06,0,0,1-2.9-.73l-3.22.84.86-3.14a6.08,6.08,0,0,1,5.26-9.11,6,6,0,0,1,4.29,1.78A6.08,6.08,0,0,1,300.12,420.43Zm-1,0a5.07,5.07,0,1,0-9.37,2.69l.12.19-.51,1.86,1.91-.5.18.11a5,5,0,0,0,2.57.7A5.1,5.1,0,0,0,299.09,420.43Zm-2,1.45a1.42,1.42,0,0,1-.09.72,1.58,1.58,0,0,1-1,.73,3,3,0,0,1-1.83-.38,6.84,6.84,0,0,1-2.59-2.29,3.07,3.07,0,0,1-.62-1.57,1.74,1.74,0,0,1,.53-1.27.58.58,0,0,1,.41-.19h.29c.09,0,.22,0,.34.26s.43,1.05.47,1.12a.28.28,0,0,1,0,.27c-.29.58-.6.56-.44.83a4.05,4.05,0,0,0,2.06,1.8.23.23,0,0,0,.33,0c.09-.1.38-.44.48-.59s.2-.13.34-.08.89.42,1,.49S297,421.81,297.05,421.88Z" transform="translate(-287.87 -414.36)"/></svg>