<svg id="Слой_1" data-name="Слой 1" xmlns="http://www.w3.org/2000/svg" viewBox="0 0 13.8 11.96"><defs><style>.cls-1{fill:#969695;}</style></defs><path class="cls-1" d="M300.68,425.64,297.21,423a5.57,5.57,0,1,0-.57.73l3.49,2.62a.55.55,0,0,0,.28.09.44.44,0,0,0,.36-.19A.45.45,0,0,0,300.68,425.64Zm-8.1-1a4.61,4.61,0,1,1,4.6-4.6A4.6,4.6,0,0,1,292.58,424.63Z" transform="translate(-287.06 -414.5)"/><polygon class="cls-1" points="5.98 3.68 5.06 3.68 5.06 5.06 3.68 5.06 3.68 5.98 5.06 5.98 5.06 7.36 5.98 7.36 5.98 5.98 7.36 5.98 7.36 5.06 5.98 5.06 5.98 3.68"/></svg>